# Blender 3.6.23
# www.blender.org
mtllib scene_0003.mtl
o glass_table_01
v 114.205940 -601.270691 -0.009922
v 113.846413 -600.239258 79.982620
v 114.864189 -603.159058 0.017384
v 114.504662 -602.127625 80.009918
v 38.663902 -627.603210 -0.009922
v 38.304375 -626.571777 79.982620
v 39.322151 -629.491577 0.017384
v 38.962624 -628.460144 80.009918
vn 0.9443 0.3292 -0.0000
vn 0.3291 -0.9442 0.0137
vn -0.9443 -0.3292 -0.0000
vn -0.3291 0.9442 -0.0137
vn 0.0045 -0.0129 -0.9999
vn -0.0045 0.0129 0.9999
vt 0.375000 0.000000
vt 0.625000 0.000000
vt 0.625000 0.250000
vt 0.375000 0.250000
vt 0.625000 0.500000
vt 0.375000 0.500000
vt 0.625000 0.750000
vt 0.375000 0.750000
vt 0.625000 1.000000
vt 0.375000 1.000000
vt 0.125000 0.500000
vt 0.125000 0.750000
vt 0.875000 0.500000
vt 0.875000 0.750000
s 0
usemtl Glass_Clear
f 1/1/1 2/2/1 4/3/1 3/4/1
f 3/4/2 4/3/2 8/5/2 7/6/2
f 7/6/3 8/5/3 6/7/3 5/8/3
f 5/8/4 6/7/4 2/9/4 1/10/4
f 3/11/5 7/6/5 5/8/5 1/12/5
f 8/5/6 4/13/6 2/14/6 6/7/6
o glass_door_02
v 11.388451 -581.368774 0.229034
v 9.925400 -591.147583 149.902802
v 11.093163 -583.342468 0.097198
v 9.630112 -593.121277 149.770966
v -77.620857 -568.051697 0.229034
v -79.083908 -577.830505 149.902802
v -77.916145 -570.025391 0.097198
v -79.379196 -579.804199 149.770966
vn 0.9890 -0.1480 -0.0000
vn -0.1476 -0.9868 -0.0659
vn -0.9890 0.1480 -0.0000
vn 0.1476 0.9868 0.0659
vn 0.0098 0.0652 -0.9978
vn -0.0098 -0.0652 0.9978
vt 0.375000 0.000000
vt 0.625000 0.000000
vt 0.625000 0.250000
vt 0.375000 0.250000
vt 0.625000 0.500000
vt 0.375000 0.500000
vt 0.625000 0.750000
vt 0.375000 0.750000
vt 0.625000 1.000000
vt 0.375000 1.000000
vt 0.125000 0.500000
vt 0.125000 0.750000
vt 0.875000 0.500000
vt 0.875000 0.750000
s 0
usemtl Glass_Clear
f 9/15/7 10/16/7 12/17/7 11/18/7
f 11/18/8 12/17/8 16/19/8 15/20/8
f 15/20/9 16/19/9 14/21/9 13/22/9
f 13/22/10 14/21/10 10/23/10 9/24/10
f 11/25/11 15/20/11 13/22/11 9/26/11
f 16/19/12 12/27/12 10/28/12 14/21/12
o glass_partition_03
v 3.185419 -654.037964 -0.024778
v 2.326120 -652.437683 39.933960
v 4.130590 -655.798218 0.066042
v 3.271292 -654.197876 40.024780
v -40.865730 -677.691650 -0.024778
v -41.725029 -676.091309 39.933960
v -39.920563 -679.451843 0.066042
v -40.779861 -677.851562 40.024780
vn 0.8810 0.4731 -0.0000
vn 0.4726 -0.8801 0.0454
vn -0.8810 -0.4731 -0.0000
vn -0.4726 0.8801 -0.0454
vn 0.0215 -0.0400 -0.9990
vn -0.0215 0.0400 0.9990
vt 0.375000 0.000000
vt 0.625000 0.000000
vt 0.625000 0.250000
vt 0.375000 0.250000
vt 0.625000 0.500000
vt 0.375000 0.500000
vt 0.625000 0.750000
vt 0.375000 0.750000
vt 0.625000 1.000000
vt 0.375000 1.000000
vt 0.125000 0.500000
vt 0.125000 0.750000
vt 0.875000 0.500000
vt 0.875000 0.750000
s 0
usemtl Glass_Clear
f 17/29/13 18/30/13 20/31/13 19/32/13
f 19/32/14 20/31/14 24/33/14 23/34/14
f 23/34/15 24/33/15 22/35/15 21/36/15
f 21/36/16 22/35/16 18/37/16 17/38/16
f 19/39/17 23/34/17 21/36/17 17/40/17
f 24/33/18 20/41/18 18/42/18 22/35/18
o diffuse_table_01
v -87.446335 -712.703735 67.171371
v -86.992249 -712.274475 67.171371
v -87.446335 -712.703735 70.518539
v -84.709900 -715.143677 70.867592
v -86.992249 -712.274475 70.518539
v -3.048592 -714.634644 67.171371
v -2.619335 -715.088745 67.171371
v -5.488552 -717.371094 70.867599
v -2.619335 -715.088745 70.518539
v -3.048592 -714.634644 70.518539
v -88.476608 -765.068115 67.171371
v -88.905869 -764.614014 67.171371
v -86.036652 -762.331665 70.867592
v -88.905869 -764.614014 70.518539
v -88.476608 -765.068115 70.518539
v -4.078861 -766.999023 67.171371
v -4.532951 -767.428284 67.171371
v -6.815304 -764.559082 70.867599
v -4.532951 -767.428284 70.518539
v -4.078861 -766.999023 70.518539
v -3.061008 -715.076355 66.859894
v -87.004669 -712.716125 66.859879
v -4.520535 -766.986633 66.859894
v -88.464188 -764.626404 66.859879
v -5.536118 -717.425842 69.326935
v -84.665482 -715.201050 69.326920
v -6.859718 -764.501709 69.326935
v -85.989082 -762.276917 69.326920
v -84.665482 -715.201050 66.986206
v -84.820488 -715.036377 66.859879
v -5.372120 -717.270142 66.859894
v -5.536118 -717.425842 66.986221
v -86.153091 -762.432617 66.859879
v -85.989082 -762.276917 66.986206
v -6.704723 -764.666382 66.859894
v -6.859718 -764.501709 66.986221
v -87.004669 -712.716125 70.867599
v -3.061008 -715.076355 70.867599
v -4.520535 -766.986633 70.867599
v -88.464188 -764.626404 70.867599
v -11.655991 -759.384277 23.617607
v -11.986416 -759.359070 23.865791
v -11.662674 -759.053040 23.865795
v -14.686159 -755.868469 69.350403
v -15.009899 -756.174500 69.350403
v -8.237755 -759.479858 23.632402
v -8.238873 -759.149292 23.865795
v -7.933075 -759.472046 23.880463
v -9.786324 -756.321350 69.350403
v -10.092091 -755.997620 69.350403
v -11.752659 -762.802490 23.632401
v -11.777607 -763.106323 23.880463
v -12.082680 -762.782898 23.865791
v -15.139067 -760.768555 69.350403
v -14.833027 -761.092041 69.350403
v -8.333332 -762.899170 23.778730
v -8.029430 -762.897400 24.041864
v -8.352276 -763.202576 24.041864
v -10.238956 -761.221252 69.350403
v -9.915489 -760.915466 69.350403
v -10.612358 -722.265686 23.617607
v -10.943676 -722.272339 23.865791
v -10.637642 -722.596069 23.865795
v -13.835283 -725.605713 69.350403
v -14.141315 -725.281982 69.350403
v -7.194153 -722.362366 23.632402
v -7.213840 -722.692322 23.865795
v -6.890388 -722.387268 23.880463
v -8.917740 -725.428833 69.350403
v -9.241215 -725.734863 69.350403
v -10.516811 -718.847473 23.632401
v -10.524647 -718.542725 23.880463
v -10.847412 -718.848511 23.865791
v -14.012148 -720.687866 69.350403
v -13.688416 -720.382141 69.350403
v -7.097450 -718.943054 23.778730
v -6.794132 -718.961914 24.041864
v -7.099316 -718.639099 24.041864
v -9.094349 -720.511292 69.350403
v -8.788570 -720.834778 69.350403
v -80.912834 -757.437073 23.617603
v -80.581512 -757.430420 23.865786
v -80.887543 -757.106689 23.865791
v -77.689911 -754.097046 69.350395
v -77.383881 -754.420776 69.350395
v -84.331032 -757.340393 23.632397
v -84.311356 -757.010437 23.865791
v -84.634804 -757.315491 23.880457
v -82.607468 -754.273926 69.350395
v -82.283981 -753.967896 69.350395
v -81.008377 -760.855286 23.632397
v -81.000549 -761.160034 23.880457
v -80.677780 -760.854248 23.865786
v -77.513046 -759.014893 69.350395
v -77.836777 -759.320618 69.350395
v -84.427734 -760.759705 23.778727
v -84.731064 -760.740845 24.041859
v -84.425873 -761.063660 24.041859
v -82.430847 -759.191467 69.350395
v -82.736633 -758.867981 69.350395
v -79.869202 -720.318481 23.617603
v -79.538773 -720.343689 23.865786
v -79.862511 -720.649719 23.865791
v -76.839035 -723.834290 69.350395
v -76.515297 -723.528259 69.350395
v -83.287430 -720.222900 23.632397
v -83.286324 -720.553467 23.865791
v -83.592117 -720.230713 23.880457
v -81.738876 -723.381409 69.350395
v -81.433105 -723.705139 69.350395
v -79.772537 -716.900269 23.632397
v -79.747589 -716.596436 23.880457
v -79.442513 -716.919861 23.865786
v -76.386124 -718.934204 69.350395
v -76.692169 -718.610718 69.350395
v -83.191849 -716.803589 23.778727
v -83.495758 -716.805359 24.041859
v -83.172913 -716.500183 24.041859
v -81.286240 -718.481506 69.350395
v -81.609711 -718.787292 69.350395
vn -0.8586 -0.3079 -0.4098
vn -0.8675 -0.3107 0.3884
vn -0.8487 0.3590 0.3884
vn -0.8400 0.3557 -0.4098
vn 0.3079 -0.8586 -0.4098
vn 0.3107 -0.8675 0.3884
vn -0.3590 -0.8487 0.3884
vn -0.3557 -0.8400 -0.4098
vn -0.0000 -0.0000 1.0000
vn -0.3079 0.8586 -0.4098
vn -0.3107 0.8675 0.3884
vn 0.3590 0.8487 0.3884
vn 0.3557 0.8400 -0.4098
vn 0.8586 0.3079 -0.4098
vn 0.8675 0.3107 0.3884
vn 0.8487 -0.3590 0.3884
vn 0.8400 -0.3557 -0.4098
vn -0.2709 0.2865 -0.9190
vn -0.2909 0.3078 0.9059
vn 0.2865 0.2709 -0.9190
vn 0.3078 0.2909 0.9059
vn -0.2865 -0.2709 -0.9190
vn -0.3078 -0.2909 0.9059
vn 0.2709 -0.2865 -0.9190
vn 0.2909 -0.3078 0.9059
vn 0.5572 0.5257 -0.6428
vn 0.5267 -0.5562 -0.6428
vn 0.5609 -0.5933 -0.5774
vn 0.5933 0.5609 -0.5774
vn 0.0932 0.0882 -0.9917
vn -0.0881 0.0933 -0.9917
vn -0.5268 0.5562 -0.6428
vn -0.5609 0.5933 -0.5774
vn -0.0932 -0.0882 -0.9917
vn 0.0881 -0.0933 -0.9917
vn -0.5933 -0.5609 -0.5774
vn -0.5572 -0.5257 -0.6428
vn -0.8475 -0.3155 -0.4267
vn -0.9387 -0.3415 -0.0479
vn -0.9056 0.4147 -0.0892
vn -0.8258 0.3471 -0.4444
vn 0.3271 -0.8822 -0.3388
vn 0.3502 -0.9350 0.0554
vn -0.4265 -0.9044 0.0114
vn -0.3401 -0.8602 -0.3799
vn 0.8781 0.2913 -0.3797
vn 0.9270 0.3750 0.0118
vn 0.9138 -0.4023 0.0556
vn 0.8624 -0.3761 -0.3387
vn -0.3001 0.8441 -0.4443
vn -0.3633 0.9274 -0.0891
vn 0.3937 0.9180 -0.0476
vn 0.3627 0.8286 -0.4265
vn -0.2664 0.2818 -0.9217
vn 0.3248 0.2563 -0.9104
vn -0.2741 -0.3098 -0.9104
vn 0.3208 -0.3393 -0.8843
vn -0.8285 0.3627 -0.4267
vn -0.8440 -0.3002 -0.4444
vn -0.9274 -0.3632 -0.0892
vn -0.9180 0.3937 -0.0479
vn 0.3762 0.8624 -0.3388
vn -0.2912 0.8780 -0.3799
vn -0.3750 0.9270 0.0114
vn 0.4022 0.9139 0.0554
vn 0.8603 -0.3402 -0.3797
vn 0.8822 0.3271 -0.3387
vn 0.9350 0.3503 0.0556
vn 0.9044 -0.4265 0.0118
vn -0.3471 -0.8259 -0.4443
vn 0.3156 -0.8476 -0.4265
vn 0.3415 -0.9387 -0.0476
vn -0.4148 -0.9055 -0.0891
vn -0.2818 -0.2664 -0.9217
vn 0.3099 -0.2742 -0.9104
vn -0.2563 0.3247 -0.9104
vn 0.3394 0.3208 -0.8843
vn 0.8285 -0.3627 -0.4267
vn 0.8440 0.3002 -0.4444
vn 0.9274 0.3632 -0.0892
vn 0.9180 -0.3937 -0.0479
vn -0.3762 -0.8624 -0.3388
vn 0.2912 -0.8780 -0.3799
vn 0.3750 -0.9270 0.0114
vn -0.4022 -0.9139 0.0554
vn -0.8603 0.3402 -0.3797
vn -0.8822 -0.3271 -0.3387
vn -0.9350 -0.3503 0.0556
vn -0.9044 0.4265 0.0118
vn 0.3471 0.8259 -0.4443
vn -0.3156 0.8476 -0.4265
vn -0.3415 0.9387 -0.0476
vn 0.4148 0.9055 -0.0891
vn 0.2818 0.2664 -0.9217
vn -0.3099 0.2742 -0.9104
vn 0.2563 -0.3247 -0.9104
vn -0.3394 -0.3208 -0.8843
vn 0.8475 0.3155 -0.4267
vn 0.9387 0.3415 -0.0479
vn 0.9056 -0.4147 -0.0892
vn 0.8258 -0.3471 -0.4444
vn -0.3271 0.8822 -0.3388
vn -0.3502 0.9350 0.0554
vn 0.4265 0.9044 0.0114
vn 0.3401 0.8602 -0.3799
vn -0.8781 -0.2913 -0.3797
vn -0.9270 -0.3750 0.0118
vn -0.9138 0.4023 0.0556
vn -0.8624 0.3761 -0.3387
vn 0.3001 -0.8441 -0.4443
vn 0.3633 -0.9274 -0.0891
vn -0.3937 -0.9180 -0.0476
vn -0.3627 -0.8286 -0.4265
vn 0.2664 -0.2818 -0.9217
vn -0.3248 -0.2563 -0.9104
vn 0.2741 0.3098 -0.9104
vn -0.3208 0.3393 -0.8843
vt 0.012167 0.894395
vt 0.012161 0.862608
vt 0.401654 0.862517
vt 0.401672 0.894215
vt 0.770729 0.637544
vt 0.738930 0.637544
vt 0.738908 0.007387
vt 0.770625 0.007379
vt 0.011087 0.358772
vt 0.011087 0.004670
vt 0.605569 0.004670
vt 0.605569 0.358772
vt 0.665754 0.637544
vt 0.633954 0.637544
vt 0.633932 0.007387
vt 0.665648 0.007379
vt 0.012153 0.781665
vt 0.012159 0.749877
vt 0.401667 0.750059
vt 0.401653 0.781757
vt 0.402511 0.898447
vt 0.406213 0.894954
vt 0.402459 0.858019
vt 0.406193 0.861757
vt 0.669880 0.006541
vt 0.666388 0.002840
vt 0.629432 0.006581
vt 0.633174 0.002846
vt 0.774855 0.006541
vt 0.771365 0.002840
vt 0.734408 0.006581
vt 0.738150 0.002846
vt 0.402486 0.785988
vt 0.406185 0.782501
vt 0.402477 0.745559
vt 0.406213 0.749304
vt 0.670203 0.637542
vt 0.629261 0.637543
vt 0.012154 0.786116
vt 0.012153 0.745183
vt 0.775179 0.637542
vt 0.734237 0.637543
vt 0.012161 0.898847
vt 0.012163 0.857914
vt 0.030357 0.917428
vt 0.384349 0.917072
vt 0.384371 0.939343
vt 0.030379 0.939699
vt 0.791830 0.023428
vt 0.792136 0.620638
vt 0.793836 0.619438
vt 0.793540 0.024632
vt 0.815803 0.024621
vt 0.816101 0.619427
vt 0.686854 0.023428
vt 0.687161 0.620638
vt 0.012407 0.719528
vt 0.012407 0.366267
vt 0.606199 0.366267
vt 0.606199 0.719528
vt 0.385556 0.915367
vt 0.029151 0.915731
vt 0.030336 0.804709
vt 0.384312 0.804599
vt 0.384318 0.826869
vt 0.030343 0.826979
vt 0.385520 0.802895
vt 0.029131 0.803011
vt 0.688564 0.024632
vt 0.688861 0.619438
vt 0.710827 0.024621
vt 0.711126 0.619427
vt 0.611519 0.619791
vt 0.611679 0.024324
vt 0.029925 0.727445
vt 0.384741 0.727787
vt 0.716494 0.619791
vt 0.716655 0.024324
vt 0.029921 0.840165
vt 0.384711 0.840261
vt 0.413096 0.829099
vt 0.844696 0.829099
vt 0.844696 0.859196
vt 0.413096 0.859196
vt 0.413096 0.795490
vt 0.844696 0.795490
vt 0.844696 0.825587
vt 0.413096 0.825587
vt 0.413096 0.761885
vt 0.844696 0.761885
vt 0.844696 0.791983
vt 0.413096 0.791983
vt 0.413096 0.728276
vt 0.844696 0.728276
vt 0.844696 0.758374
vt 0.413096 0.758374
vt 0.107983 0.983687
vt 0.111358 0.984368
vt 0.108613 0.987108
vt 0.082406 0.983545
vt 0.081894 0.986785
vt 0.079217 0.984090
vt 0.108067 0.957990
vt 0.108635 0.954717
vt 0.111358 0.957486
vt 0.082448 0.957934
vt 0.079161 0.957325
vt 0.081842 0.954645
vt 0.413096 0.724762
vt 0.844696 0.724763
vt 0.888655 0.437483
vt 0.858557 0.437483
vt 0.858557 0.005879
vt 0.888655 0.005879
vt 0.922263 0.437483
vt 0.892166 0.437483
vt 0.892166 0.005879
vt 0.922263 0.005879
vt 0.955869 0.437483
vt 0.925771 0.437483
vt 0.925771 0.005879
vt 0.955869 0.005879
vt 0.989477 0.437483
vt 0.959380 0.437483
vt 0.959380 0.005879
vt 0.989477 0.005879
vt 0.221686 0.960258
vt 0.222316 0.956836
vt 0.225061 0.959577
vt 0.196110 0.960400
vt 0.192920 0.959855
vt 0.195597 0.957160
vt 0.221771 0.985955
vt 0.225061 0.986459
vt 0.222338 0.989228
vt 0.196151 0.986011
vt 0.195545 0.989300
vt 0.192865 0.986620
vt 0.992991 0.437483
vt 0.992991 0.005879
vt 0.961249 0.441373
vt 0.991346 0.441373
vt 0.991346 0.872978
vt 0.961249 0.872978
vt 0.927640 0.441373
vt 0.957737 0.441373
vt 0.957737 0.872978
vt 0.927640 0.872978
vt 0.894035 0.441373
vt 0.924132 0.441373
vt 0.924132 0.872978
vt 0.894035 0.872978
vt 0.860426 0.441373
vt 0.890524 0.441373
vt 0.890524 0.872978
vt 0.860426 0.872978
vt 0.054205 0.960486
vt 0.054834 0.957064
vt 0.057579 0.959805
vt 0.028628 0.960627
vt 0.025438 0.960082
vt 0.028115 0.957387
vt 0.054289 0.986182
vt 0.057579 0.986686
vt 0.054856 0.989456
vt 0.028669 0.986238
vt 0.028063 0.989527
vt 0.025383 0.986847
vt 0.856912 0.441373
vt 0.856912 0.872978
vt 0.845719 0.893331
vt 0.414117 0.893331
vt 0.414117 0.863233
vt 0.845719 0.863233
vt 0.845719 0.926939
vt 0.414117 0.926939
vt 0.414117 0.896842
vt 0.845719 0.896842
vt 0.845719 0.960544
vt 0.414117 0.960544
vt 0.414117 0.930447
vt 0.845719 0.930447
vt 0.845719 0.994153
vt 0.414117 0.994153
vt 0.414117 0.964055
vt 0.845719 0.964055
vt 0.163985 0.985789
vt 0.167323 0.986440
vt 0.164631 0.989129
vt 0.138369 0.985797
vt 0.137835 0.989092
vt 0.135147 0.986348
vt 0.164045 0.960168
vt 0.164650 0.956930
vt 0.167323 0.959689
vt 0.138385 0.960134
vt 0.135092 0.959522
vt 0.137781 0.956836
vt 0.845719 0.997667
vt 0.414117 0.997667
s 1
usemtl Diffuse_Table
f 36/43/19 38/44/20 27/45/21 25/46/22
f 41/47/23 43/48/24 39/49/25 35/50/26
f 42/51/27 32/52/27 28/53/27 37/54/27
f 26/55/28 29/56/29 34/57/30 30/58/31
f 31/59/32 33/60/33 44/61/34 40/62/35
f 46/63/36 25/46/22 26/64/28
f 27/45/21 61/65/37 29/66/29
f 45/67/38 30/58/31 31/68/32
f 62/69/39 33/70/33 34/57/30
f 48/71/40 35/50/26 36/72/19
f 64/73/41 38/74/20 39/49/25
f 47/75/42 40/62/35 41/76/23
f 63/77/43 43/78/24 44/61/34
f 45/67/38 46/79/36 26/55/28 30/58/31
f 25/46/22 27/45/21 29/66/29 26/64/28
f 61/80/37 62/69/39 34/57/30 29/56/29
f 33/70/33 31/68/32 30/58/31 34/57/30
f 47/75/42 45/81/38 31/59/32 40/62/35
f 62/82/39 63/77/43 44/61/34 33/60/33
f 43/78/24 41/76/23 40/62/35 44/61/34
f 48/71/40 47/83/42 41/47/23 35/50/26
f 63/84/43 64/73/41 39/49/25 43/48/24
f 38/74/20 36/72/19 35/50/26 39/49/25
f 46/63/36 48/85/40 36/43/19 25/46/22
f 64/86/41 61/65/37 27/45/21 38/44/20
f 58/87/44 53/88/45 50/89/46 52/90/47
f 57/91/48 59/92/49 47/83/42 48/71/40
f 60/93/50 58/94/44 52/95/47 51/96/51
f 55/97/52 54/98/53 46/79/36 45/67/38
f 49/99/54 51/100/51 52/101/47 50/102/46
f 54/103/53 57/104/48 48/85/40 46/63/36
f 56/105/55 60/106/50 51/107/51 49/108/54
f 59/109/49 55/110/52 45/81/38 47/75/42
f 56/111/55 53/112/45 54/98/53 55/97/52
f 60/106/50 56/105/55 55/110/52 59/109/49
f 58/94/44 60/93/50 59/92/49 57/91/48
f 53/88/45 58/87/44 57/104/48 54/103/53
f 53/112/45 56/111/55 49/113/54 50/114/46
f 28/115/27 32/116/27 62/69/39 61/80/37
f 32/117/27 42/118/27 63/77/43 62/82/39
f 42/119/27 37/120/27 64/73/41 63/84/43
f 37/121/27 28/122/27 61/65/37 64/86/41
f 77/123/56 78/124/57 69/125/58 66/126/59
f 82/127/60 83/128/61 79/129/62 76/130/63
f 72/131/64 73/132/65 84/133/66 81/134/67
f 67/135/68 68/136/69 74/137/70 71/138/71
f 65/139/72 66/140/59 67/141/68
f 70/142/73 71/143/71 72/144/64
f 75/145/74 76/146/63 77/147/56
f 80/148/75 81/149/67 82/150/60
f 70/142/73 65/139/72 67/141/68 71/143/71
f 66/151/59 69/152/58 68/136/69 67/135/68
f 73/132/65 72/131/64 71/138/71 74/137/70
f 80/148/75 70/142/73 72/144/64 81/149/67
f 83/128/61 82/127/60 81/134/67 84/133/66
f 75/145/74 80/148/75 82/150/60 76/146/63
f 78/124/57 77/123/56 76/130/63 79/129/62
f 65/139/72 75/145/74 77/147/56 66/140/59
f 70/142/73 80/148/75 75/145/74 65/139/72
f 97/153/76 86/154/77 89/155/78 98/156/79
f 102/157/80 96/158/81 99/159/82 103/160/83
f 92/161/84 101/162/85 104/163/86 93/164/87
f 87/165/88 91/166/89 94/167/90 88/168/91
f 85/169/92 87/170/88 86/171/77
f 90/172/93 92/173/84 91/174/89
f 95/175/94 97/176/76 96/177/81
f 100/178/95 102/179/80 101/180/85
f 90/172/93 91/174/89 87/170/88 85/169/92
f 86/181/77 87/165/88 88/168/91 89/182/78
f 93/164/87 94/167/90 91/166/89 92/161/84
f 100/178/95 101/180/85 92/173/84 90/172/93
f 103/160/83 104/163/86 101/162/85 102/157/80
f 95/175/94 96/177/81 102/179/80 100/178/95
f 98/156/79 99/159/82 96/158/81 97/153/76
f 85/169/92 86/171/77 97/176/76 95/175/94
f 90/172/93 85/169/92 95/175/94 100/178/95
f 117/183/96 106/184/97 109/185/98 118/186/99
f 122/187/100 116/188/101 119/189/102 123/190/103
f 112/191/104 121/192/105 124/193/106 113/194/107
f 107/195/108 111/196/109 114/197/110 108/198/111
f 105/199/112 107/200/108 106/201/97
f 110/202/113 112/203/104 111/204/109
f 115/205/114 117/206/96 116/207/101
f 120/208/115 122/209/100 121/210/105
f 110/202/113 111/204/109 107/200/108 105/199/112
f 106/211/97 107/195/108 108/198/111 109/212/98
f 113/194/107 114/197/110 111/196/109 112/191/104
f 120/208/115 121/210/105 112/203/104 110/202/113
f 123/190/103 124/193/106 121/192/105 122/187/100
f 115/205/114 116/207/101 122/209/100 120/208/115
f 118/186/99 119/189/102 116/188/101 117/183/96
f 105/199/112 106/201/97 117/206/96 115/205/114
f 110/202/113 105/199/112 115/205/114 120/208/115
f 137/213/116 138/214/117 129/215/118 126/216/119
f 142/217/120 143/218/121 139/219/122 136/220/123
f 132/221/124 133/222/125 144/223/126 141/224/127
f 127/225/128 128/226/129 134/227/130 131/228/131
f 125/229/132 126/230/119 127/231/128
f 130/232/133 131/233/131 132/234/124
f 135/235/134 136/236/123 137/237/116
f 140/238/135 141/239/127 142/240/120
f 130/232/133 125/229/132 127/231/128 131/233/131
f 126/241/119 129/242/118 128/226/129 127/225/128
f 133/222/125 132/221/124 131/228/131 134/227/130
f 140/238/135 130/232/133 132/234/124 141/239/127
f 143/218/121 142/217/120 141/224/127 144/223/126
f 135/235/134 140/238/135 142/240/120 136/236/123
f 138/214/117 137/213/116 136/220/123 139/219/122
f 125/229/132 135/235/134 137/237/116 126/230/119
f 130/232/133 140/238/135 135/235/134 125/229/132
o diffuse_shelf_02
v 99.162254 -695.563416 94.500000
v 10.291855 -673.046875 94.500000
v 10.221527 -695.282043 94.500000
v 99.232582 -673.328186 94.500000
v 93.673790 -673.310669 277.941162
v 93.673790 -673.310608 107.192184
v 15.850647 -673.064514 277.941162
v 15.850647 -673.064453 107.192184
v 15.790867 -691.964417 277.941162
v 93.614014 -692.210571 277.941162
v 15.790867 -691.964355 107.192169
v 93.614014 -692.210510 107.192169
v 99.232582 -673.328247 280.720581
v 99.162254 -695.563416 280.720581
v 10.221527 -695.282104 280.720581
v 10.291855 -673.046936 280.720581
v 100.274010 -695.566956 283.500000
v 100.274010 -695.566956 281.502014
v 100.347855 -672.219971 281.502014
v 100.347855 -672.219971 283.500000
v 9.109772 -695.278564 283.500000
v 9.109772 -695.278564 281.502014
v 9.183617 -671.931641 283.500000
v 9.183617 -671.931641 281.502014
v 93.670273 -674.422363 154.535309
v 15.847134 -674.176208 154.535309
v 15.790867 -691.964355 154.535294
v 93.614014 -692.210510 154.535294
v 15.847134 -674.176208 152.311768
v 93.670273 -674.422363 152.311768
v 15.790867 -691.964355 152.311768
v 93.614014 -692.210510 152.311768
v 93.666763 -675.534119 152.311768
v 92.777702 -675.531311 152.311768
v 92.724953 -692.207703 152.311768
v 92.777702 -675.531311 151.644699
v 93.666763 -675.534119 151.644699
v 92.724953 -692.207703 151.644699
v 93.614014 -692.210510 151.644699
v 93.614014 -692.210510 152.311768
v 15.843616 -675.287964 152.311768
v 16.732674 -675.290833 152.311768
v 16.679924 -691.967163 152.311768
v 16.732674 -675.290833 151.644699
v 15.843616 -675.287964 151.644699
v 16.679924 -691.967163 151.644699
v 15.790867 -691.964355 151.644699
v 15.790867 -691.964355 152.311768
v 93.670273 -674.422363 180.105881
v 15.847134 -674.176270 180.105881
v 15.790867 -691.964355 180.105881
v 93.614014 -692.210510 180.105881
v 15.847134 -674.176270 177.882355
v 93.670273 -674.422363 177.882355
v 15.790867 -691.964355 177.882355
v 93.614014 -692.210510 177.882355
v 93.666763 -675.534180 177.882355
v 92.777702 -675.531311 177.882355
v 92.724953 -692.207703 177.882355
v 92.777702 -675.531311 177.215302
v 93.666763 -675.534180 177.215302
v 92.724953 -692.207703 177.215302
v 93.614014 -692.210510 177.215302
v 93.614014 -692.210510 177.882355
v 15.843616 -675.288025 177.882355
v 16.732674 -675.290833 177.882355
v 16.679924 -691.967224 177.882355
v 16.732674 -675.290833 177.215302
v 15.843616 -675.288025 177.215302
v 16.679924 -691.967224 177.215302
v 15.790867 -691.964355 177.215302
v 15.790867 -691.964355 177.882355
v 93.670273 -674.422363 205.676468
v 15.847134 -674.176270 205.676468
v 15.790867 -691.964417 205.676468
v 93.614014 -692.210571 205.676468
v 15.847134 -674.176270 203.452927
v 93.670273 -674.422363 203.452927
v 15.790867 -691.964417 203.452927
v 93.614014 -692.210571 203.452927
v 93.666763 -675.534180 203.452927
v 92.777702 -675.531372 203.452927
v 92.724953 -692.207703 203.452927
v 92.777702 -675.531372 202.785873
v 93.666763 -675.534180 202.785873
v 92.724953 -692.207703 202.785873
v 93.614014 -692.210571 202.785873
v 93.614014 -692.210571 203.452927
v 15.843616 -675.288025 203.452927
v 16.732674 -675.290833 203.452927
v 16.679924 -691.967224 203.452927
v 16.732674 -675.290833 202.785873
v 15.843616 -675.288025 202.785873
v 16.679924 -691.967224 202.785873
v 15.790867 -691.964417 202.785873
v 15.790867 -691.964417 203.452927
v 93.670273 -674.422424 231.247055
v 15.847134 -674.176270 231.247055
v 15.790867 -691.964417 231.247055
v 93.614014 -692.210571 231.247055
v 15.847134 -674.176270 229.023514
v 93.670273 -674.422424 229.023514
v 15.790867 -691.964417 229.023514
v 93.614014 -692.210571 229.023514
v 93.666763 -675.534180 229.023514
v 92.777702 -675.531372 229.023514
v 92.724953 -692.207703 229.023514
v 92.777702 -675.531372 228.356461
v 93.666763 -675.534180 228.356461
v 92.724953 -692.207703 228.356461
v 93.614014 -692.210571 228.356461
v 93.614014 -692.210571 229.023514
v 15.843616 -675.288025 229.023514
v 16.732674 -675.290833 229.023514
v 16.679924 -691.967224 229.023514
v 16.732674 -675.290833 228.356461
v 15.843616 -675.288025 228.356461
v 16.679924 -691.967224 228.356461
v 15.790867 -691.964417 228.356461
v 15.790867 -691.964417 229.023514
v 93.670273 -674.422424 256.817627
v 15.847134 -674.176270 256.817627
v 15.790867 -691.964417 256.817627
v 93.614014 -692.210571 256.817627
v 15.847134 -674.176270 254.594116
v 93.670273 -674.422424 254.594116
v 15.790867 -691.964417 254.594116
v 93.614014 -692.210571 254.594116
v 93.666763 -675.534180 254.594116
v 92.777702 -675.531372 254.594116
v 92.724953 -692.207764 254.594116
v 92.777702 -675.531372 253.927063
v 93.666763 -675.534180 253.927063
v 92.724953 -692.207764 253.927063
v 93.614014 -692.210571 253.927063
v 93.614014 -692.210571 254.594116
v 15.843616 -675.288025 254.594116
v 16.732674 -675.290833 254.594116
v 16.679924 -691.967224 254.594116
v 16.732674 -675.290833 253.927063
v 15.843616 -675.288025 253.927063
v 16.679924 -691.967224 253.927063
v 15.790867 -691.964417 253.927063
v 15.790867 -691.964417 254.594116
v 93.670273 -674.422363 128.964706
v 15.847134 -674.176208 128.964706
v 15.790867 -691.964355 128.964706
v 93.614014 -692.210510 128.964706
v 15.847134 -674.176208 126.741180
v 93.670273 -674.422363 126.741180
v 15.790867 -691.964355 126.741180
v 93.614014 -692.210510 126.741180
v 93.666763 -675.534119 126.741180
v 92.777702 -675.531311 126.741180
v 92.724953 -692.207703 126.741180
v 92.777702 -675.531311 126.074120
v 93.666763 -675.534119 126.074120
v 92.724953 -692.207703 126.074112
v 93.614014 -692.210510 126.074112
v 93.614014 -692.210510 126.741180
v 15.843616 -675.287964 126.741180
v 16.732674 -675.290771 126.741180
v 16.679924 -691.967163 126.741180
v 16.732674 -675.290771 126.074120
v 15.843616 -675.287964 126.074120
v 16.679924 -691.967163 126.074112
v 15.790867 -691.964355 126.074112
v 15.790867 -691.964355 126.741180
vn -0.5213 0.5246 -0.6731
vn -0.5016 -0.8253 -0.2592
vn -0.7006 -0.6144 -0.3629
vn -0.6324 0.6364 -0.4417
vn -0.2986 0.9055 0.3015
vn -0.2986 0.9055 -0.3015
vn 0.5246 0.5213 -0.6731
vn 0.5792 0.5755 -0.5774
vn -0.5792 -0.5755 -0.5774
vn -0.5755 0.5792 -0.5774
vn 0.4964 -0.8285 -0.2592
vn 0.5755 -0.5792 -0.5774
vn 0.3044 0.9036 0.3015
vn 0.3044 0.9036 -0.3015
vn -0.5792 -0.5755 0.5774
vn 0.5755 -0.5792 0.5774
vn 0.5792 0.5755 0.5774
vn -0.5755 0.5792 0.5774
vn 0.6364 0.6324 -0.4417
vn 0.6967 -0.6188 -0.3629
vn 0.0022 0.7071 0.7071
vn -0.0000 -0.0000 1.0000
vn 0.0022 0.7071 -0.7071
vn -0.0000 -0.0000 -1.0000
vn -0.0022 -0.7071 -0.7071
vn -0.7093 -0.7049 -0.0000
vn -0.7049 0.7093 -0.0000
vn 0.0032 1.0000 -0.0000
vn -0.0032 -1.0000 -0.0000
vn 0.7049 -0.7093 -0.0000
vn 0.7093 0.7049 -0.0000
vn 0.5792 0.5755 -0.5773
vn 0.5755 -0.5792 -0.5773
vt 0.910724 0.606259
vt 0.989116 0.606259
vt 0.989116 0.611050
vt 0.906804 0.611050
vt 0.613938 0.966226
vt 0.011952 0.966226
vt 0.002153 0.946628
vt 0.658686 0.946628
vt 0.780069 0.657875
vt 0.780069 0.001334
vt 0.858462 0.001334
vt 0.858462 0.657875
vt 0.629727 0.657876
vt 0.629727 0.001334
vt 0.708120 0.001334
vt 0.708120 0.657876
vt 0.963978 0.953926
vt 0.944379 0.998674
vt 0.670004 0.998674
vt 0.650405 0.953926
vt 0.996659 0.003858
vt 0.996659 0.273693
vt 0.931128 0.273693
vt 0.931128 0.003858
vt 0.989116 0.618094
vt 0.989116 0.939504
vt 0.906804 0.939503
vt 0.906804 0.618094
vt 0.894966 0.935583
vt 0.894969 0.622013
vt 0.899760 0.618094
vt 0.899759 0.939503
vt 0.659539 0.991588
vt 0.003002 0.991588
vt 0.012801 0.971990
vt 0.614791 0.971990
vt 0.624644 0.577883
vt 0.003749 0.577882
vt 0.003750 0.281335
vt 0.624645 0.281336
vt 0.317517 0.663987
vt 0.003945 0.663987
vt 0.003945 0.585594
vt 0.317517 0.585594
vt 0.978444 0.278821
vt 0.985488 0.278821
vt 0.985489 0.600233
vt 0.978444 0.600233
vt 0.001331 0.001326
vt 0.603325 0.001326
vt 0.603325 0.275702
vt 0.001331 0.275702
vt 0.927665 0.002061
vt 0.927666 0.604056
vt 0.861032 0.604056
vt 0.861031 0.002061
vt 0.710782 0.603328
vt 0.710781 0.001333
vt 0.777415 0.001333
vt 0.777415 0.603328
vt 0.326807 0.589611
vt 0.601183 0.589611
vt 0.601183 0.656245
vt 0.326807 0.656245
vt 0.885170 0.641612
vt 0.885168 0.915984
vt 0.906804 0.946547
vt 0.989116 0.946548
vt 0.989116 0.951339
vt 0.910723 0.951339
vt 0.975689 0.282741
vt 0.975688 0.596312
vt 0.558477 0.878351
vt 0.832841 0.878351
vt 0.832841 0.941063
vt 0.558477 0.941063
vt 0.558477 0.870512
vt 0.558477 0.807800
vt 0.832841 0.807800
vt 0.832841 0.870512
vt 0.605985 0.062479
vt 0.605985 0.003686
vt 0.609120 0.003686
vt 0.609119 0.062479
vt 0.611471 0.003686
vt 0.611471 0.062479
vt 0.609119 0.064831
vt 0.605985 0.064831
vt 0.609120 0.001335
vt 0.605985 0.001335
vt 0.613685 0.138933
vt 0.616819 0.138933
vt 0.616819 0.197726
vt 0.613685 0.197726
vt 0.619171 0.197726
vt 0.619171 0.138933
vt 0.616819 0.136581
vt 0.613685 0.136581
vt 0.616819 0.200077
vt 0.613685 0.200077
vt 0.554922 0.731143
vt 0.280558 0.731143
vt 0.280558 0.668431
vt 0.554922 0.668431
vt 0.554922 0.738982
vt 0.554922 0.801694
vt 0.280558 0.801694
vt 0.280558 0.738982
vt 0.622273 0.062477
vt 0.622275 0.003684
vt 0.625409 0.003684
vt 0.625407 0.062477
vt 0.627761 0.003684
vt 0.627759 0.062477
vt 0.625408 0.064829
vt 0.622273 0.064829
vt 0.625409 0.001333
vt 0.622275 0.001332
vt 0.605571 0.207142
vt 0.608705 0.207142
vt 0.608705 0.265935
vt 0.605571 0.265935
vt 0.611057 0.265935
vt 0.611057 0.207142
vt 0.608705 0.204791
vt 0.605571 0.204791
vt 0.608705 0.268287
vt 0.605571 0.268287
vt 0.003015 0.875554
vt 0.277378 0.875554
vt 0.277378 0.938266
vt 0.003015 0.938266
vt 0.003015 0.867715
vt 0.003015 0.805003
vt 0.277378 0.805003
vt 0.277378 0.867715
vt 0.621345 0.591306
vt 0.621344 0.650098
vt 0.618210 0.650098
vt 0.618211 0.591306
vt 0.615858 0.650098
vt 0.615859 0.591306
vt 0.618211 0.588954
vt 0.621345 0.588954
vt 0.618210 0.652450
vt 0.621344 0.652450
vt 0.605988 0.071199
vt 0.609122 0.071199
vt 0.609122 0.129992
vt 0.605988 0.129992
vt 0.611474 0.129992
vt 0.611474 0.071199
vt 0.609122 0.068848
vt 0.605988 0.068848
vt 0.609122 0.132343
vt 0.605988 0.132343
vt 0.277373 0.731785
vt 0.003009 0.731785
vt 0.003009 0.669074
vt 0.277373 0.669074
vt 0.277373 0.739624
vt 0.277373 0.802336
vt 0.003009 0.802336
vt 0.003009 0.739625
vt 0.622271 0.129998
vt 0.622272 0.071206
vt 0.625406 0.071206
vt 0.625405 0.129999
vt 0.627758 0.071206
vt 0.627757 0.129998
vt 0.625406 0.132350
vt 0.622271 0.132350
vt 0.625406 0.068855
vt 0.622272 0.068855
vt 0.614131 0.003686
vt 0.617265 0.003686
vt 0.617265 0.062478
vt 0.614131 0.062478
vt 0.619617 0.062478
vt 0.619617 0.003686
vt 0.617265 0.001335
vt 0.614131 0.001335
vt 0.617265 0.064830
vt 0.614131 0.064830
vt 0.554918 0.868004
vt 0.280554 0.868004
vt 0.280554 0.805293
vt 0.554918 0.805293
vt 0.554918 0.875843
vt 0.554918 0.938555
vt 0.280554 0.938555
vt 0.280554 0.875843
vt 0.614132 0.129990
vt 0.614132 0.071198
vt 0.617267 0.071198
vt 0.617267 0.129990
vt 0.619618 0.071198
vt 0.619618 0.129990
vt 0.617267 0.132342
vt 0.614132 0.132342
vt 0.617267 0.068846
vt 0.614132 0.068846
vt 0.621835 0.138936
vt 0.624969 0.138936
vt 0.624969 0.197728
vt 0.621835 0.197728
vt 0.627321 0.197728
vt 0.627321 0.138936
vt 0.624969 0.136584
vt 0.621835 0.136584
vt 0.624969 0.200080
vt 0.621835 0.200080
vt 0.565751 0.740565
vt 0.840114 0.740565
vt 0.840114 0.803276
vt 0.565751 0.803276
vt 0.565751 0.732726
vt 0.565751 0.670014
vt 0.840114 0.670014
vt 0.840114 0.732725
vt 0.557912 0.670014
vt 0.557912 0.732726
vt 0.847953 0.732725
vt 0.847953 0.670014
vt 0.565751 0.662175
vt 0.840114 0.662175
vt 0.605446 0.198158
vt 0.605452 0.139365
vt 0.608586 0.139365
vt 0.608580 0.198158
vt 0.610938 0.139366
vt 0.610932 0.198158
vt 0.608580 0.200510
vt 0.605446 0.200509
vt 0.608587 0.137014
vt 0.605452 0.137013
vt 0.606732 0.591302
vt 0.609866 0.591302
vt 0.609866 0.650095
vt 0.606732 0.650095
vt 0.612218 0.650095
vt 0.612218 0.591302
vt 0.609866 0.588950
vt 0.606732 0.588950
vt 0.609866 0.652446
vt 0.606732 0.652446
s 1
usemtl Diffuse_shelf
f 160/243/136 159/244/137 166/245/138 168/246/139
f 150/247/140 149/248/141 157/249/142 148/250/143
f 147/251/144 159/252/137 160/253/136 146/254/145
f 148/255/143 157/256/142 158/257/146 145/258/147
f 146/259/145 152/260/148 150/261/140 148/262/143
f 151/263/149 149/264/141 154/265/145 153/266/143
f 165/267/150 161/268/151 164/269/152 167/270/153
f 157/271/142 160/272/136 168/273/139 163/274/154
f 146/275/145 160/276/136 151/277/149 152/278/148
f 145/279/147 158/280/146 159/281/137 147/282/144
f 145/283/147 147/284/144 146/285/145 148/286/143
f 162/287/155 161/288/151 165/289/150 166/290/138
f 155/291/152 153/292/143 154/293/145 156/294/153
f 152/295/148 151/296/149 153/297/143 155/298/152
f 149/299/141 150/300/140 156/301/153 154/302/145
f 150/303/140 152/304/148 155/305/152 156/306/153
f 151/307/149 160/272/136 157/271/142 149/308/141
f 168/273/139 167/270/153 164/269/152 163/274/154
f 163/309/154 164/269/152 161/268/151 162/310/155
f 158/311/146 157/312/142 163/309/154 162/310/155
f 166/245/138 165/267/150 167/270/153 168/246/139
f 158/313/146 162/287/155 166/290/138 159/314/137
f 169/315/156 170/316/156 171/317/157 172/318/157
f 174/319/158 176/320/159 175/321/159 173/322/158
f 169/315/156 174/319/158 173/322/158 170/316/156
f 181/323/158 183/324/160 182/325/144 180/326/145
f 179/327/161 178/328/162 180/326/145 182/325/144
f 178/329/162 177/330/163 181/323/158 180/326/145
f 179/331/161 182/325/144 183/324/160 184/332/164
f 189/333/158 188/334/143 190/335/147 191/336/160
f 187/337/165 190/335/147 188/334/143 186/338/166
f 186/339/166 188/334/143 189/333/158 185/340/163
f 187/341/165 192/342/164 191/336/160 190/335/147
f 193/343/156 194/344/156 195/345/157 196/346/157
f 198/347/158 200/348/159 199/349/159 197/350/158
f 193/343/156 198/347/158 197/350/158 194/344/156
f 205/351/158 207/352/160 206/353/144 204/354/145
f 203/355/161 202/356/162 204/354/145 206/353/144
f 202/357/162 201/358/163 205/351/158 204/354/145
f 203/359/161 206/353/144 207/352/160 208/360/164
f 213/361/158 212/362/167 214/363/168 215/364/160
f 211/365/165 214/363/168 212/362/167 210/366/166
f 210/367/166 212/362/167 213/361/158 209/368/163
f 211/369/165 216/370/164 215/364/160 214/363/168
f 217/371/156 218/372/156 219/373/157 220/374/157
f 222/375/158 224/376/159 223/377/159 221/378/158
f 217/371/156 222/375/158 221/378/158 218/372/156
f 229/379/158 231/380/160 230/381/144 228/382/145
f 227/383/161 226/384/162 228/382/145 230/381/144
f 226/385/162 225/386/163 229/379/158 228/382/145
f 227/387/161 230/381/144 231/380/160 232/388/164
f 237/389/158 236/390/167 238/391/147 239/392/160
f 235/393/165 238/391/147 236/390/167 234/394/166
f 234/395/166 236/390/167 237/389/158 233/396/163
f 235/397/165 240/398/164 239/392/160 238/391/147
f 241/399/156 242/400/156 243/401/157 244/402/157
f 246/403/158 248/404/159 247/405/159 245/406/158
f 241/399/156 246/403/158 245/406/158 242/400/156
f 253/407/158 255/408/160 254/409/144 252/410/145
f 251/411/161 250/412/162 252/410/145 254/409/144
f 250/413/162 249/414/163 253/407/158 252/410/145
f 251/415/161 254/409/144 255/408/160 256/416/164
f 261/417/158 260/418/143 262/419/147 263/420/160
f 259/421/165 262/419/147 260/418/143 258/422/166
f 258/423/166 260/418/143 261/417/158 257/424/163
f 259/425/165 264/426/164 263/420/160 262/419/147
f 265/427/156 266/428/156 267/429/157 268/430/157
f 270/431/158 272/432/159 271/433/159 269/434/158
f 265/427/156 270/431/158 269/434/158 266/428/156
f 277/435/158 279/436/160 278/437/144 276/438/145
f 275/439/161 274/440/162 276/438/145 278/437/144
f 274/441/162 273/442/163 277/435/158 276/438/145
f 275/443/161 278/437/144 279/436/160 280/444/164
f 285/445/158 284/446/143 286/447/147 287/448/160
f 283/449/165 286/447/147 284/446/143 282/450/166
f 282/451/166 284/446/143 285/445/158 281/452/163
f 283/453/165 288/454/164 287/448/160 286/447/147
f 289/455/152 290/456/153 291/457/150 292/458/151
f 294/459/143 296/460/147 295/461/144 293/462/145
f 289/455/152 294/459/143 293/462/145 290/456/153
f 292/463/151 296/460/147 294/459/143 289/464/152
f 290/465/153 293/462/145 295/461/144 291/466/150
f 292/467/151 291/468/150 295/461/144 296/460/147
f 301/469/158 303/470/160 302/471/144 300/472/145
f 299/473/161 298/474/162 300/472/145 302/471/144
f 298/475/162 297/476/163 301/469/158 300/472/145
f 299/477/161 302/471/144 303/470/160 304/478/164
f 309/479/158 308/480/143 310/481/147 311/482/160
f 307/483/165 310/481/147 308/480/143 306/484/166
f 306/485/166 308/480/143 309/479/158 305/486/163
f 307/487/165 312/488/164 311/482/160 310/481/147
