# Blender 3.6.23
# www.blender.org
mtllib scene_0006.mtl
o glass_partition_01
v -62.913597 -652.636108 -0.024061
v -63.787216 -650.420776 39.904991
v -62.181190 -654.493408 0.095011
v -63.054817 -652.278015 40.024063
v -109.427574 -670.978699 -0.024061
v -110.301201 -668.763306 39.904991
v -108.695175 -672.835938 0.095011
v -109.568794 -670.620605 40.024063
vn 0.9303 0.3668 -0.0000
vn 0.3662 -0.9286 0.0595
vn -0.9303 -0.3668 -0.0000
vn -0.3662 0.9286 -0.0595
vn 0.0218 -0.0554 -0.9982
vn -0.0218 0.0554 0.9982
vt 0.375000 0.000000
vt 0.625000 0.000000
vt 0.625000 0.250000
vt 0.375000 0.250000
vt 0.625000 0.500000
vt 0.375000 0.500000
vt 0.625000 0.750000
vt 0.375000 0.750000
vt 0.625000 1.000000
vt 0.375000 1.000000
vt 0.125000 0.500000
vt 0.125000 0.750000
vt 0.875000 0.500000
vt 0.875000 0.750000
s 0
usemtl Glass_Clear
f 1/1/1 2/2/1 4/3/1 3/4/1
f 3/4/2 4/3/2 8/5/2 7/6/2
f 7/6/3 8/5/3 6/7/3 5/8/3
f 5/8/4 6/7/4 2/9/4 1/10/4
f 3/11/5 7/6/5 5/8/5 1/12/5
f 8/5/6 4/13/6 2/14/6 6/7/6
o glass_window_02
v 55.397644 -659.107666 -0.011303
v 55.910065 -657.824707 79.976761
v 54.655930 -660.964783 0.023235
v 55.168350 -659.681763 80.011307
v -37.469139 -622.016479 -0.011303
v -36.956718 -620.733459 79.976761
v -38.210854 -623.873535 0.023235
v -37.698433 -622.590576 80.011307
vn 0.9287 -0.3709 -0.0000
vn -0.3709 -0.9285 0.0173
vn -0.9287 0.3709 -0.0000
vn 0.3709 0.9285 -0.0173
vn -0.0064 -0.0160 -0.9999
vn 0.0064 0.0160 0.9999
vt 0.375000 0.000000
vt 0.625000 0.000000
vt 0.625000 0.250000
vt 0.375000 0.250000
vt 0.625000 0.500000
vt 0.375000 0.500000
vt 0.625000 0.750000
vt 0.375000 0.750000
vt 0.625000 1.000000
vt 0.375000 1.000000
vt 0.125000 0.500000
vt 0.125000 0.750000
vt 0.875000 0.500000
vt 0.875000 0.750000
s 0
usemtl Glass_Clear
f 9/15/7 10/16/7 12/17/7 11/18/7
f 11/18/8 12/17/8 16/19/8 15/20/8
f 15/20/9 16/19/9 14/21/9 13/22/9
f 13/22/10 14/21/10 10/23/10 9/24/10
f 11/25/11 15/20/11 13/22/11 9/26/11
f 16/19/12 12/27/12 10/28/12 14/21/12
o diffuse_table_01
v -47.975609 -683.835327 67.171371
v -47.448807 -683.499207 67.171371
v -47.975609 -683.835327 70.518539
v -45.747608 -686.746948 70.867592
v -47.448807 -683.499207 70.518539
v 34.548523 -701.625061 67.171371
v 34.884583 -702.151855 67.171371
v 31.636898 -703.853088 70.867599
v 34.884583 -702.151855 70.518539
v 34.548523 -701.625061 70.518539
v -58.848465 -735.068787 67.171371
v -59.184525 -734.541992 67.171371
v -55.936840 -732.840759 70.867592
v -59.184525 -734.541992 70.518539
v -58.848465 -735.068787 70.518539
v 23.675667 -752.858521 67.171371
v 23.148865 -753.194641 67.171371
v 21.447666 -749.946899 70.867599
v 23.148865 -753.194641 70.518539
v 23.675667 -752.858521 70.518539
v 34.453152 -702.056519 66.859894
v -47.544178 -683.930664 66.859879
v 23.244236 -752.763184 66.859894
v -58.753094 -734.637329 66.859879
v 31.579876 -703.897888 69.326935
v -45.714787 -686.811584 69.326920
v 21.414845 -749.882263 69.326935
v -55.879818 -732.795959 69.326920
v -45.714787 -686.811584 66.986206
v -45.836010 -686.620728 66.859879
v 31.770256 -703.775879 66.859894
v 31.579876 -703.897888 66.986221
v -56.070210 -732.917969 66.859879
v -55.879818 -732.795959 66.986206
v 21.536057 -750.073120 66.859894
v 21.414845 -749.882263 66.986221
v -47.544178 -683.930664 70.867599
v 34.453152 -702.056519 70.867599
v 23.244236 -752.763184 70.867599
v -58.753094 -734.637329 70.867599
v 17.668072 -743.953125 23.617607
v 17.348309 -743.866150 23.865791
v 17.723885 -743.626587 23.865795
v 15.354199 -739.929626 69.350403
v 14.978621 -740.169189 69.350403
v 21.007156 -744.690674 23.632402
v 21.068306 -744.365845 23.865795
v 21.307850 -744.740479 23.880463
v 20.081085 -741.297119 69.350403
v 19.841751 -740.921631 69.350403
v 16.929432 -747.291992 23.632401
v 16.847710 -747.585693 23.880463
v 16.609013 -747.210571 23.865791
v 13.986630 -744.656799 69.350403
v 14.226277 -745.032104 69.350403
v 20.269375 -748.030884 23.778730
v 20.568176 -748.086365 24.041864
v 20.193638 -748.325256 24.041864
v 18.713829 -746.024109 69.350403
v 19.089092 -745.784668 69.350403
v 25.683033 -707.695251 23.617607
v 25.356400 -707.639343 23.865791
v 25.595993 -708.014893 23.865795
v 21.888802 -710.368530 69.350403
v 21.649208 -709.992981 69.350403
v 29.021881 -708.433838 23.632402
v 28.940414 -708.754211 23.865795
v 29.315525 -708.515503 23.880463
v 26.751671 -711.120850 69.350403
v 26.376350 -711.360535 69.350403
v 26.420582 -704.356140 23.632401
v 26.470276 -704.055359 23.880463
v 26.095699 -704.294922 23.865791
v 22.641201 -705.505371 69.350403
v 23.016724 -705.266052 69.350403
v 29.760765 -705.093933 23.778730
v 30.055107 -705.169556 24.041864
v 29.816177 -704.795044 24.041864
v 27.504272 -706.258057 69.350403
v 27.743664 -706.633301 69.350403
v -49.982967 -728.998596 23.617603
v -49.656334 -729.054504 23.865786
v -49.895920 -728.678955 23.865791
v -46.188740 -726.325317 69.350395
v -45.949142 -726.700867 69.350395
v -53.321808 -728.260010 23.632397
v -53.240349 -727.939636 23.865791
v -53.615459 -728.178345 23.880457
v -51.051613 -725.572937 69.350395
v -50.676292 -725.333313 69.350395
v -50.720516 -732.337708 23.632397
v -50.770210 -732.638489 23.880457
v -50.395634 -732.398926 23.865786
v -46.941135 -731.188416 69.350395
v -47.316662 -731.427795 69.350395
v -54.060692 -731.599915 23.778727
v -54.355042 -731.524292 24.041859
v -54.116104 -731.898804 24.041859
v -51.804214 -730.435791 69.350395
v -52.043606 -730.060547 69.350395
v -41.968006 -692.740662 23.617603
v -41.648247 -692.827698 23.865786
v -42.023815 -693.067261 23.865791
v -39.654140 -696.764221 69.350395
v -39.278557 -696.524658 69.350395
v -45.307083 -692.003174 23.632397
v -45.368240 -692.328003 23.865791
v -45.607784 -691.953369 23.880457
v -44.381027 -695.396729 69.350395
v -44.141693 -695.772217 69.350395
v -41.229366 -689.401855 23.632397
v -41.147648 -689.108154 23.880457
v -40.908947 -689.483276 23.865786
v -38.286568 -692.037048 69.350395
v -38.526218 -691.661743 69.350395
v -44.569302 -688.662964 23.778727
v -44.868111 -688.607483 24.041859
v -44.493565 -688.368591 24.041859
v -43.013771 -690.669739 69.350395
v -43.389038 -690.909180 69.350395
vn -0.9012 -0.1407 -0.4098
vn -0.9105 -0.1418 0.3884
vn -0.7659 0.5124 0.3884
vn -0.7580 0.5075 -0.4098
vn 0.1407 -0.9012 -0.4098
vn 0.1418 -0.9105 0.3884
vn -0.5124 -0.7659 0.3884
vn -0.5075 -0.7580 -0.4098
vn -0.0000 -0.0000 1.0000
vn -0.1407 0.9012 -0.4098
vn -0.1418 0.9105 0.3884
vn 0.5124 0.7659 0.3884
vn 0.5075 0.7580 -0.4098
vn 0.9012 0.1407 -0.4098
vn 0.9105 0.1418 0.3884
vn 0.7659 -0.5124 0.3884
vn 0.7580 -0.5075 -0.4098
vn -0.2121 0.3324 -0.9190
vn -0.2278 0.3570 0.9059
vn 0.3324 0.2120 -0.9190
vn 0.3571 0.2278 0.9059
vn -0.3324 -0.2121 -0.9190
vn -0.3570 -0.2278 0.9059
vn 0.2121 -0.3324 -0.9190
vn 0.2278 -0.3570 0.9059
vn 0.6462 0.4114 -0.6428
vn 0.4126 -0.6454 -0.6428
vn 0.4391 -0.6884 -0.5774
vn 0.6884 0.4391 -0.5774
vn 0.1082 0.0691 -0.9917
vn -0.0690 0.1083 -0.9917
vn -0.4126 0.6454 -0.6428
vn -0.4391 0.6884 -0.5774
vn -0.1082 -0.0691 -0.9917
vn 0.0690 -0.1082 -0.9917
vn -0.6884 -0.4391 -0.5774
vn -0.6462 -0.4114 -0.6428
vn -0.8918 -0.1503 -0.4267
vn -0.9862 -0.1586 -0.0479
vn -0.8113 0.5778 -0.0892
vn -0.7457 0.4964 -0.4444
vn 0.1551 -0.9280 -0.3388
vn 0.1679 -0.9842 0.0554
vn -0.5892 -0.8079 0.0114
vn -0.4960 -0.7808 -0.3799
vn 0.9172 0.1207 -0.3797
vn 0.9810 0.1937 0.0118
vn 0.8217 -0.5672 0.0556
vn 0.7762 -0.5318 -0.3387
vn -0.1358 0.8855 -0.4443
vn -0.1821 0.9792 -0.0891
vn 0.5595 0.8274 -0.0476
vn 0.5123 0.7454 -0.4265
vn -0.2085 0.3270 -0.9217
vn 0.3673 0.1906 -0.9104
vn -0.3276 -0.2526 -0.9104
vn 0.2512 -0.3937 -0.8843
vn -0.7454 0.5122 -0.4267
vn -0.8855 -0.1358 -0.4444
vn -0.9792 -0.1820 -0.0892
vn -0.8274 0.5595 -0.0479
vn 0.5318 0.7761 -0.3388
vn -0.1207 0.9171 -0.3799
vn -0.1937 0.9810 0.0114
vn 0.5671 0.8218 0.0554
vn 0.7809 -0.4961 -0.3797
vn 0.9280 0.1551 -0.3387
vn 0.9842 0.1680 0.0556
vn 0.8079 -0.5891 0.0118
vn -0.4964 -0.7458 -0.4443
vn 0.1503 -0.8919 -0.4265
vn 0.1586 -0.9862 -0.0476
vn -0.5779 -0.8112 -0.0891
vn -0.3269 -0.2086 -0.9217
vn 0.2527 -0.3276 -0.9104
vn -0.1905 0.3672 -0.9104
vn 0.3937 0.2511 -0.8843
vn 0.7454 -0.5122 -0.4267
vn 0.8855 0.1358 -0.4444
vn 0.9792 0.1820 -0.0892
vn 0.8274 -0.5595 -0.0479
vn -0.5318 -0.7761 -0.3388
vn 0.1207 -0.9171 -0.3799
vn 0.1937 -0.9810 0.0114
vn -0.5671 -0.8218 0.0554
vn -0.7809 0.4961 -0.3797
vn -0.9280 -0.1551 -0.3387
vn -0.9842 -0.1680 0.0556
vn -0.8079 0.5891 0.0118
vn 0.4964 0.7458 -0.4443
vn -0.1503 0.8919 -0.4265
vn -0.1586 0.9862 -0.0476
vn 0.5779 0.8112 -0.0891
vn 0.3269 0.2086 -0.9217
vn -0.2527 0.3276 -0.9104
vn 0.1905 -0.3672 -0.9104
vn -0.3937 -0.2511 -0.8843
vn 0.8918 0.1503 -0.4267
vn 0.9862 0.1586 -0.0479
vn 0.8113 -0.5778 -0.0892
vn 0.7457 -0.4964 -0.4444
vn -0.1551 0.9280 -0.3388
vn -0.1679 0.9843 0.0554
vn 0.5892 0.8079 0.0114
vn 0.4960 0.7808 -0.3799
vn -0.9172 -0.1207 -0.3797
vn -0.9810 -0.1937 0.0118
vn -0.8217 0.5672 0.0556
vn -0.7762 0.5318 -0.3387
vn 0.1358 -0.8855 -0.4443
vn 0.1821 -0.9792 -0.0891
vn -0.5595 -0.8274 -0.0476
vn -0.5123 -0.7454 -0.4265
vn 0.2085 -0.3270 -0.9217
vn -0.3672 -0.1906 -0.9104
vn 0.3276 0.2526 -0.9104
vn -0.2512 0.3937 -0.8843
vt 0.012167 0.894395
vt 0.012161 0.862608
vt 0.401654 0.862517
vt 0.401672 0.894215
vt 0.770729 0.637544
vt 0.738930 0.637544
vt 0.738908 0.007387
vt 0.770625 0.007379
vt 0.011087 0.358772
vt 0.011087 0.004670
vt 0.605569 0.004670
vt 0.605569 0.358772
vt 0.665754 0.637544
vt 0.633954 0.637544
vt 0.633932 0.007387
vt 0.665648 0.007379
vt 0.012153 0.781665
vt 0.012159 0.749877
vt 0.401667 0.750059
vt 0.401653 0.781757
vt 0.402511 0.898447
vt 0.406213 0.894954
vt 0.402459 0.858019
vt 0.406193 0.861757
vt 0.669880 0.006541
vt 0.666388 0.002840
vt 0.629432 0.006581
vt 0.633174 0.002846
vt 0.774855 0.006541
vt 0.771365 0.002840
vt 0.734408 0.006581
vt 0.738150 0.002846
vt 0.402486 0.785988
vt 0.406185 0.782501
vt 0.402477 0.745559
vt 0.406213 0.749304
vt 0.670203 0.637542
vt 0.629261 0.637543
vt 0.012154 0.786116
vt 0.012153 0.745183
vt 0.775179 0.637542
vt 0.734237 0.637543
vt 0.012161 0.898847
vt 0.012163 0.857914
vt 0.030357 0.917428
vt 0.384349 0.917072
vt 0.384371 0.939343
vt 0.030379 0.939699
vt 0.791830 0.023428
vt 0.792136 0.620638
vt 0.793836 0.619438
vt 0.793540 0.024632
vt 0.815803 0.024621
vt 0.816101 0.619427
vt 0.686854 0.023428
vt 0.687161 0.620638
vt 0.012407 0.719528
vt 0.012407 0.366267
vt 0.606199 0.366267
vt 0.606199 0.719528
vt 0.385556 0.915367
vt 0.029151 0.915731
vt 0.030336 0.804709
vt 0.384312 0.804599
vt 0.384318 0.826869
vt 0.030343 0.826979
vt 0.385520 0.802895
vt 0.029131 0.803011
vt 0.688564 0.024632
vt 0.688861 0.619438
vt 0.710827 0.024621
vt 0.711126 0.619427
vt 0.611519 0.619791
vt 0.611679 0.024324
vt 0.029925 0.727445
vt 0.384741 0.727787
vt 0.716494 0.619791
vt 0.716655 0.024324
vt 0.029921 0.840165
vt 0.384711 0.840261
vt 0.413096 0.829099
vt 0.844696 0.829099
vt 0.844696 0.859196
vt 0.413096 0.859196
vt 0.413096 0.795490
vt 0.844696 0.795490
vt 0.844696 0.825587
vt 0.413096 0.825587
vt 0.413096 0.761885
vt 0.844696 0.761885
vt 0.844696 0.791983
vt 0.413096 0.791983
vt 0.413096 0.728276
vt 0.844696 0.728276
vt 0.844696 0.758374
vt 0.413096 0.758374
vt 0.107983 0.983687
vt 0.111358 0.984368
vt 0.108613 0.987108
vt 0.082406 0.983545
vt 0.081894 0.986785
vt 0.079217 0.984090
vt 0.108067 0.957990
vt 0.108635 0.954717
vt 0.111358 0.957486
vt 0.082448 0.957934
vt 0.079161 0.957325
vt 0.081842 0.954645
vt 0.413096 0.724762
vt 0.844696 0.724763
vt 0.888655 0.437483
vt 0.858557 0.437483
vt 0.858557 0.005879
vt 0.888655 0.005879
vt 0.922263 0.437483
vt 0.892166 0.437483
vt 0.892166 0.005879
vt 0.922263 0.005879
vt 0.955869 0.437483
vt 0.925771 0.437483
vt 0.925771 0.005879
vt 0.955869 0.005879
vt 0.989477 0.437483
vt 0.959380 0.437483
vt 0.959380 0.005879
vt 0.989477 0.005879
vt 0.221686 0.960258
vt 0.222316 0.956836
vt 0.225061 0.959577
vt 0.196110 0.960400
vt 0.192920 0.959855
vt 0.195597 0.957160
vt 0.221771 0.985955
vt 0.225061 0.986459
vt 0.222338 0.989228
vt 0.196151 0.986011
vt 0.195545 0.989300
vt 0.192865 0.986620
vt 0.992991 0.437483
vt 0.992991 0.005879
vt 0.961249 0.441373
vt 0.991346 0.441373
vt 0.991346 0.872978
vt 0.961249 0.872978
vt 0.927640 0.441373
vt 0.957737 0.441373
vt 0.957737 0.872978
vt 0.927640 0.872978
vt 0.894035 0.441373
vt 0.924132 0.441373
vt 0.924132 0.872978
vt 0.894035 0.872978
vt 0.860426 0.441373
vt 0.890524 0.441373
vt 0.890524 0.872978
vt 0.860426 0.872978
vt 0.054205 0.960486
vt 0.054834 0.957064
vt 0.057579 0.959805
vt 0.028628 0.960627
vt 0.025438 0.960082
vt 0.028115 0.957387
vt 0.054289 0.986182
vt 0.057579 0.986686
vt 0.054856 0.989456
vt 0.028669 0.986238
vt 0.028063 0.989527
vt 0.025383 0.986847
vt 0.856912 0.441373
vt 0.856912 0.872978
vt 0.845719 0.893331
vt 0.414117 0.893331
vt 0.414117 0.863233
vt 0.845719 0.863233
vt 0.845719 0.926939
vt 0.414117 0.926939
vt 0.414117 0.896842
vt 0.845719 0.896842
vt 0.845719 0.960544
vt 0.414117 0.960544
vt 0.414117 0.930447
vt 0.845719 0.930447
vt 0.845719 0.994153
vt 0.414117 0.994153
vt 0.414117 0.964055
vt 0.845719 0.964055
vt 0.163985 0.985789
vt 0.167323 0.986440
vt 0.164631 0.989129
vt 0.138369 0.985797
vt 0.137835 0.989092
vt 0.135147 0.986348
vt 0.164045 0.960168
vt 0.164650 0.956930
vt 0.167323 0.959689
vt 0.138385 0.960134
vt 0.135092 0.959522
vt 0.137781 0.956836
vt 0.845719 0.997667
vt 0.414117 0.997667
s 1
usemtl Diffuse_Table
f 28/29/13 30/30/14 19/31/15 17/32/16
f 33/33/17 35/34/18 31/35/19 27/36/20
f 34/37/21 24/38/21 20/39/21 29/40/21
f 18/41/22 21/42/23 26/43/24 22/44/25
f 23/45/26 25/46/27 36/47/28 32/48/29
f 38/49/30 17/32/16 18/50/22
f 19/31/15 53/51/31 21/52/23
f 37/53/32 22/44/25 23/54/26
f 54/55/33 25/56/27 26/43/24
f 40/57/34 27/36/20 28/58/13
f 56/59/35 30/60/14 31/35/19
f 39/61/36 32/48/29 33/62/17
f 55/63/37 35/64/18 36/47/28
f 37/53/32 38/65/30 18/41/22 22/44/25
f 17/32/16 19/31/15 21/52/23 18/50/22
f 53/66/31 54/55/33 26/43/24 21/42/23
f 25/56/27 23/54/26 22/44/25 26/43/24
f 39/61/36 37/67/32 23/45/26 32/48/29
f 54/68/33 55/63/37 36/47/28 25/46/27
f 35/64/18 33/62/17 32/48/29 36/47/28
f 40/57/34 39/69/36 33/33/17 27/36/20
f 55/70/37 56/59/35 31/35/19 35/34/18
f 30/60/14 28/58/13 27/36/20 31/35/19
f 38/49/30 40/71/34 28/29/13 17/32/16
f 56/72/35 53/51/31 19/31/15 30/30/14
f 50/73/38 45/74/39 42/75/40 44/76/41
f 49/77/42 51/78/43 39/69/36 40/57/34
f 52/79/44 50/80/38 44/81/41 43/82/45
f 47/83/46 46/84/47 38/65/30 37/53/32
f 41/85/48 43/86/45 44/87/41 42/88/40
f 46/89/47 49/90/42 40/71/34 38/49/30
f 48/91/49 52/92/44 43/93/45 41/94/48
f 51/95/43 47/96/46 37/67/32 39/61/36
f 48/97/49 45/98/39 46/84/47 47/83/46
f 52/92/44 48/91/49 47/96/46 51/95/43
f 50/80/38 52/79/44 51/78/43 49/77/42
f 45/74/39 50/73/38 49/90/42 46/89/47
f 45/98/39 48/97/49 41/99/48 42/100/40
f 20/101/21 24/102/21 54/55/33 53/66/31
f 24/103/21 34/104/21 55/63/37 54/68/33
f 34/105/21 29/106/21 56/59/35 55/70/37
f 29/107/21 20/108/21 53/51/31 56/72/35
f 69/109/50 70/110/51 61/111/52 58/112/53
f 74/113/54 75/114/55 71/115/56 68/116/57
f 64/117/58 65/118/59 76/119/60 73/120/61
f 59/121/62 60/122/63 66/123/64 63/124/65
f 57/125/66 58/126/53 59/127/62
f 62/128/67 63/129/65 64/130/58
f 67/131/68 68/132/57 69/133/50
f 72/134/69 73/135/61 74/136/54
f 62/128/67 57/125/66 59/127/62 63/129/65
f 58/137/53 61/138/52 60/122/63 59/121/62
f 65/118/59 64/117/58 63/124/65 66/123/64
f 72/134/69 62/128/67 64/130/58 73/135/61
f 75/114/55 74/113/54 73/120/61 76/119/60
f 67/131/68 72/134/69 74/136/54 68/132/57
f 70/110/51 69/109/50 68/116/57 71/115/56
f 57/125/66 67/131/68 69/133/50 58/126/53
f 62/128/67 72/134/69 67/131/68 57/125/66
f 89/139/70 78/140/71 81/141/72 90/142/73
f 94/143/74 88/144/75 91/145/76 95/146/77
f 84/147/78 93/148/79 96/149/80 85/150/81
f 79/151/82 83/152/83 86/153/84 80/154/85
f 77/155/86 79/156/82 78/157/71
f 82/158/87 84/159/78 83/160/83
f 87/161/88 89/162/70 88/163/75
f 92/164/89 94/165/74 93/166/79
f 82/158/87 83/160/83 79/156/82 77/155/86
f 78/167/71 79/151/82 80/154/85 81/168/72
f 85/150/81 86/153/84 83/152/83 84/147/78
f 92/164/89 93/166/79 84/159/78 82/158/87
f 95/146/77 96/149/80 93/148/79 94/143/74
f 87/161/88 88/163/75 94/165/74 92/164/89
f 90/142/73 91/145/76 88/144/75 89/139/70
f 77/155/86 78/157/71 89/162/70 87/161/88
f 82/158/87 77/155/86 87/161/88 92/164/89
f 109/169/90 98/170/91 101/171/92 110/172/93
f 114/173/94 108/174/95 111/175/96 115/176/97
f 104/177/98 113/178/99 116/179/100 105/180/101
f 99/181/102 103/182/103 106/183/104 100/184/105
f 97/185/106 99/186/102 98/187/91
f 102/188/107 104/189/98 103/190/103
f 107/191/108 109/192/90 108/193/95
f 112/194/109 114/195/94 113/196/99
f 102/188/107 103/190/103 99/186/102 97/185/106
f 98/197/91 99/181/102 100/184/105 101/198/92
f 105/180/101 106/183/104 103/182/103 104/177/98
f 112/194/109 113/196/99 104/189/98 102/188/107
f 115/176/97 116/179/100 113/178/99 114/173/94
f 107/191/108 108/193/95 114/195/94 112/194/109
f 110/172/93 111/175/96 108/174/95 109/169/90
f 97/185/106 98/187/91 109/192/90 107/191/108
f 102/188/107 97/185/106 107/191/108 112/194/109
f 129/199/110 130/200/111 121/201/112 118/202/113
f 134/203/114 135/204/115 131/205/116 128/206/117
f 124/207/118 125/208/119 136/209/120 133/210/121
f 119/211/122 120/212/123 126/213/124 123/214/125
f 117/215/126 118/216/113 119/217/122
f 122/218/127 123/219/125 124/220/118
f 127/221/128 128/222/117 129/223/110
f 132/224/129 133/225/121 134/226/114
f 122/218/127 117/215/126 119/217/122 123/219/125
f 118/227/113 121/228/112 120/212/123 119/211/122
f 125/208/119 124/207/118 123/214/125 126/213/124
f 132/224/129 122/218/127 124/220/118 133/225/121
f 135/204/115 134/203/114 133/210/121 136/209/120
f 127/221/128 132/224/129 134/226/114 128/222/117
f 130/200/111 129/199/110 128/206/117 131/205/116
f 117/215/126 127/221/128 129/223/110 118/216/113
f 122/218/127 132/224/129 127/221/128 117/215/126
o diffuse_shelf_02
v 117.891411 -748.037659 81.000000
v 44.658215 -719.542786 81.000000
v 42.261375 -738.450256 81.000000
v 120.288254 -729.130127 81.000000
v 115.561371 -728.530945 238.235291
v 115.561378 -728.530945 91.879013
v 49.385082 -720.142029 238.235291
v 49.385086 -720.141968 91.879013
v 47.347771 -736.213379 238.235291
v 113.524063 -744.602295 238.235291
v 47.347771 -736.213379 91.879005
v 113.524063 -744.602295 91.879005
v 120.288246 -729.130127 240.617645
v 117.891403 -748.037659 240.617645
v 42.261372 -738.450317 240.617645
v 44.658211 -719.542786 240.617645
v 118.836777 -748.157471 243.000000
v 118.836777 -748.157471 241.287445
v 121.353462 -728.304626 241.287445
v 121.353462 -728.304626 243.000000
v 41.315998 -738.330444 243.000000
v 41.315998 -738.330444 241.287445
v 43.832680 -718.477600 243.000000
v 43.832680 -718.477600 241.287445
v 115.441536 -729.476318 132.458832
v 49.265244 -721.087341 132.458832
v 47.347771 -736.213379 132.458832
v 113.524063 -744.602295 132.458832
v 49.265244 -721.087341 130.552948
v 115.441536 -729.476318 130.552948
v 47.347771 -736.213379 130.552948
v 113.524063 -744.602295 130.552948
v 115.321693 -730.421692 130.552948
v 114.565689 -730.325806 130.552948
v 112.768059 -744.506470 130.552948
v 114.565689 -730.325806 129.981171
v 115.321693 -730.421692 129.981171
v 112.768059 -744.506470 129.981171
v 113.524063 -744.602295 129.981171
v 113.524063 -744.602295 130.552948
v 49.145401 -722.032715 130.552948
v 49.901405 -722.128540 130.552948
v 48.103775 -736.309204 130.552948
v 49.901405 -722.128540 129.981171
v 49.145401 -722.032715 129.981171
v 48.103775 -736.309204 129.981171
v 47.347771 -736.213379 129.981171
v 47.347771 -736.213379 130.552948
v 115.441536 -729.476318 154.376465
v 49.265244 -721.087341 154.376465
v 47.347771 -736.213379 154.376465
v 113.524063 -744.602295 154.376465
v 49.265244 -721.087341 152.470581
v 115.441536 -729.476318 152.470581
v 47.347771 -736.213379 152.470581
v 113.524063 -744.602295 152.470581
v 115.321693 -730.421692 152.470581
v 114.565689 -730.325806 152.470581
v 112.768059 -744.506470 152.470581
v 114.565689 -730.325806 151.898834
v 115.321693 -730.421692 151.898834
v 112.768059 -744.506470 151.898834
v 113.524063 -744.602295 151.898834
v 113.524063 -744.602295 152.470581
v 49.145401 -722.032715 152.470581
v 49.901405 -722.128601 152.470581
v 48.103775 -736.309204 152.470581
v 49.901405 -722.128601 151.898834
v 49.145401 -722.032715 151.898834
v 48.103775 -736.309204 151.898834
v 47.347771 -736.213379 151.898834
v 47.347771 -736.213379 152.470581
v 115.441528 -729.476318 176.294113
v 49.265244 -721.087341 176.294113
v 47.347771 -736.213379 176.294113
v 113.524063 -744.602295 176.294113
v 49.265244 -721.087341 174.388214
v 115.441528 -729.476318 174.388214
v 47.347771 -736.213379 174.388214
v 113.524063 -744.602295 174.388214
v 115.321693 -730.421692 174.388214
v 114.565689 -730.325867 174.388214
v 112.768059 -744.506470 174.388214
v 114.565689 -730.325867 173.816467
v 115.321693 -730.421692 173.816467
v 112.768059 -744.506470 173.816467
v 113.524063 -744.602295 173.816467
v 113.524063 -744.602295 174.388214
v 49.145401 -722.032715 174.388214
v 49.901405 -722.128601 174.388214
v 48.103775 -736.309204 174.388214
v 49.901405 -722.128601 173.816467
v 49.145401 -722.032715 173.816467
v 48.103775 -736.309204 173.816467
v 47.347771 -736.213379 173.816467
v 47.347771 -736.213379 174.388214
v 115.441528 -729.476318 198.211761
v 49.265244 -721.087402 198.211761
v 47.347771 -736.213379 198.211761
v 113.524063 -744.602295 198.211761
v 49.265244 -721.087402 196.305878
v 115.441528 -729.476318 196.305878
v 47.347771 -736.213379 196.305878
v 113.524063 -744.602295 196.305878
v 115.321693 -730.421692 196.305878
v 114.565689 -730.325867 196.305878
v 112.768059 -744.506470 196.305878
v 114.565689 -730.325867 195.734116
v 115.321693 -730.421692 195.734116
v 112.768059 -744.506470 195.734116
v 113.524063 -744.602295 195.734116
v 113.524063 -744.602295 196.305878
v 49.145401 -722.032715 196.305878
v 49.901405 -722.128601 196.305878
v 48.103775 -736.309204 196.305878
v 49.901405 -722.128601 195.734116
v 49.145401 -722.032715 195.734116
v 48.103775 -736.309204 195.734116
v 47.347771 -736.213379 195.734116
v 47.347771 -736.213379 196.305878
v 115.441528 -729.476318 220.129395
v 49.265240 -721.087402 220.129395
v 47.347771 -736.213379 220.129395
v 113.524063 -744.602295 220.129395
v 49.265240 -721.087402 218.223526
v 115.441528 -729.476318 218.223526
v 47.347771 -736.213379 218.223526
v 113.524063 -744.602295 218.223526
v 115.321686 -730.421692 218.223526
v 114.565689 -730.325867 218.223526
v 112.768059 -744.506470 218.223526
v 114.565689 -730.325867 217.651779
v 115.321686 -730.421692 217.651779
v 112.768059 -744.506470 217.651779
v 113.524063 -744.602295 217.651779
v 113.524063 -744.602295 218.223526
v 49.145401 -722.032776 218.223526
v 49.901405 -722.128601 218.223526
v 48.103775 -736.309204 218.223526
v 49.901405 -722.128601 217.651779
v 49.145401 -722.032776 217.651779
v 48.103775 -736.309204 217.651779
v 47.347771 -736.213379 217.651779
v 47.347771 -736.213379 218.223526
v 115.441536 -729.476318 110.541176
v 49.265244 -721.087341 110.541176
v 47.347771 -736.213379 110.541176
v 113.524063 -744.602295 110.541176
v 49.265244 -721.087341 108.635300
v 115.441536 -729.476318 108.635300
v 47.347771 -736.213379 108.635292
v 113.524063 -744.602295 108.635292
v 115.321693 -730.421692 108.635300
v 114.565689 -730.325806 108.635300
v 112.768059 -744.506470 108.635292
v 114.565689 -730.325806 108.063530
v 115.321693 -730.421692 108.063530
v 112.768059 -744.506470 108.063530
v 113.524063 -744.602295 108.063530
v 113.524063 -744.602295 108.635292
v 49.145401 -722.032715 108.635300
v 49.901405 -722.128540 108.635300
v 48.103775 -736.309204 108.635292
v 49.901405 -722.128540 108.063530
v 49.145401 -722.032715 108.063530
v 48.103775 -736.309204 108.063530
v 47.347771 -736.213379 108.063530
v 47.347771 -736.213379 108.635292
vn -0.4530 0.5845 -0.6731
vn -0.5991 -0.7576 -0.2592
vn -0.7707 -0.5238 -0.3629
vn -0.5496 0.7091 -0.4417
vn -0.1854 0.9353 0.3015
vn -0.1854 0.9353 -0.3015
vn 0.5845 0.4530 -0.6731
vn 0.6454 0.5002 -0.5774
vn -0.6454 -0.5002 -0.5774
vn -0.5002 0.6454 -0.5774
vn 0.3911 -0.8831 -0.2592
vn 0.5002 -0.6454 -0.5774
vn 0.4129 0.8594 0.3015
vn 0.4129 0.8594 -0.3015
vn -0.6454 -0.5002 0.5774
vn 0.5002 -0.6454 0.5774
vn 0.6454 0.5002 0.5774
vn -0.5002 0.6454 0.5774
vn 0.7091 0.5496 -0.4417
vn 0.6156 -0.6996 -0.3629
vn 0.0889 0.7015 0.7071
vn -0.0000 -0.0000 1.0000
vn 0.0889 0.7015 -0.7071
vn -0.0000 -0.0000 -1.0000
vn -0.0889 -0.7015 -0.7071
vn -0.7904 -0.6126 -0.0000
vn -0.6126 0.7904 -0.0000
vn 0.1258 0.9921 -0.0000
vn -0.1258 -0.9921 -0.0000
vn 0.6126 -0.7904 -0.0000
vn 0.7904 0.6126 -0.0000
vn 0.6454 0.5002 -0.5773
vn 0.5002 -0.6454 -0.5773
vt 0.910724 0.606259
vt 0.989116 0.606259
vt 0.989116 0.611050
vt 0.906804 0.611050
vt 0.613938 0.966226
vt 0.011952 0.966226
vt 0.002153 0.946628
vt 0.658686 0.946628
vt 0.780069 0.657875
vt 0.780069 0.001334
vt 0.858462 0.001334
vt 0.858462 0.657875
vt 0.629727 0.657876
vt 0.629727 0.001334
vt 0.708120 0.001334
vt 0.708120 0.657876
vt 0.963978 0.953926
vt 0.944379 0.998674
vt 0.670004 0.998674
vt 0.650405 0.953926
vt 0.996659 0.003858
vt 0.996659 0.273693
vt 0.931128 0.273693
vt 0.931128 0.003858
vt 0.989116 0.618094
vt 0.989116 0.939504
vt 0.906804 0.939503
vt 0.906804 0.618094
vt 0.894966 0.935583
vt 0.894969 0.622013
vt 0.899760 0.618094
vt 0.899759 0.939503
vt 0.659539 0.991588
vt 0.003002 0.991588
vt 0.012801 0.971990
vt 0.614791 0.971990
vt 0.624644 0.577883
vt 0.003749 0.577882
vt 0.003750 0.281335
vt 0.624645 0.281336
vt 0.317517 0.663987
vt 0.003945 0.663987
vt 0.003945 0.585594
vt 0.317517 0.585594
vt 0.978444 0.278821
vt 0.985488 0.278821
vt 0.985489 0.600233
vt 0.978444 0.600233
vt 0.001331 0.001326
vt 0.603325 0.001326
vt 0.603325 0.275702
vt 0.001331 0.275702
vt 0.927665 0.002061
vt 0.927666 0.604056
vt 0.861032 0.604056
vt 0.861031 0.002061
vt 0.710782 0.603328
vt 0.710781 0.001333
vt 0.777415 0.001333
vt 0.777415 0.603328
vt 0.326807 0.589611
vt 0.601183 0.589611
vt 0.601183 0.656245
vt 0.326807 0.656245
vt 0.885170 0.641612
vt 0.885168 0.915984
vt 0.906804 0.946547
vt 0.989116 0.946548
vt 0.989116 0.951339
vt 0.910723 0.951339
vt 0.975689 0.282741
vt 0.975688 0.596312
vt 0.558477 0.878351
vt 0.832841 0.878351
vt 0.832841 0.941063
vt 0.558477 0.941063
vt 0.558477 0.870512
vt 0.558477 0.807800
vt 0.832841 0.807800
vt 0.832841 0.870512
vt 0.605985 0.062479
vt 0.605985 0.003686
vt 0.609120 0.003686
vt 0.609119 0.062479
vt 0.611471 0.003686
vt 0.611471 0.062479
vt 0.609119 0.064831
vt 0.605985 0.064831
vt 0.609120 0.001335
vt 0.605985 0.001335
vt 0.613685 0.138933
vt 0.616819 0.138933
vt 0.616819 0.197726
vt 0.613685 0.197726
vt 0.619171 0.197726
vt 0.619171 0.138933
vt 0.616819 0.136581
vt 0.613685 0.136581
vt 0.616819 0.200077
vt 0.613685 0.200077
vt 0.554922 0.731143
vt 0.280558 0.731143
vt 0.280558 0.668431
vt 0.554922 0.668431
vt 0.554922 0.738982
vt 0.554922 0.801694
vt 0.280558 0.801694
vt 0.280558 0.738982
vt 0.622273 0.062477
vt 0.622275 0.003684
vt 0.625409 0.003684
vt 0.625407 0.062477
vt 0.627761 0.003684
vt 0.627759 0.062477
vt 0.625408 0.064829
vt 0.622273 0.064829
vt 0.625409 0.001333
vt 0.622275 0.001332
vt 0.605571 0.207142
vt 0.608705 0.207142
vt 0.608705 0.265935
vt 0.605571 0.265935
vt 0.611057 0.265935
vt 0.611057 0.207142
vt 0.608705 0.204791
vt 0.605571 0.204791
vt 0.608705 0.268287
vt 0.605571 0.268287
vt 0.003015 0.875554
vt 0.277378 0.875554
vt 0.277378 0.938266
vt 0.003015 0.938266
vt 0.003015 0.867715
vt 0.003015 0.805003
vt 0.277378 0.805003
vt 0.277378 0.867715
vt 0.621345 0.591306
vt 0.621344 0.650098
vt 0.618210 0.650098
vt 0.618211 0.591306
vt 0.615858 0.650098
vt 0.615859 0.591306
vt 0.618211 0.588954
vt 0.621345 0.588954
vt 0.618210 0.652450
vt 0.621344 0.652450
vt 0.605988 0.071199
vt 0.609122 0.071199
vt 0.609122 0.129992
vt 0.605988 0.129992
vt 0.611474 0.129992
vt 0.611474 0.071199
vt 0.609122 0.068848
vt 0.605988 0.068848
vt 0.609122 0.132343
vt 0.605988 0.132343
vt 0.277373 0.731785
vt 0.003009 0.731785
vt 0.003009 0.669074
vt 0.277373 0.669074
vt 0.277373 0.739624
vt 0.277373 0.802336
vt 0.003009 0.802336
vt 0.003009 0.739625
vt 0.622271 0.129998
vt 0.622272 0.071206
vt 0.625406 0.071206
vt 0.625405 0.129999
vt 0.627758 0.071206
vt 0.627757 0.129998
vt 0.625406 0.132350
vt 0.622271 0.132350
vt 0.625406 0.068855
vt 0.622272 0.068855
vt 0.614131 0.003686
vt 0.617265 0.003686
vt 0.617265 0.062478
vt 0.614131 0.062478
vt 0.619617 0.062478
vt 0.619617 0.003686
vt 0.617265 0.001335
vt 0.614131 0.001335
vt 0.617265 0.064830
vt 0.614131 0.064830
vt 0.554918 0.868004
vt 0.280554 0.868004
vt 0.280554 0.805293
vt 0.554918 0.805293
vt 0.554918 0.875843
vt 0.554918 0.938555
vt 0.280554 0.938555
vt 0.280554 0.875843
vt 0.614132 0.129990
vt 0.614132 0.071198
vt 0.617267 0.071198
vt 0.617267 0.129990
vt 0.619618 0.071198
vt 0.619618 0.129990
vt 0.617267 0.132342
vt 0.614132 0.132342
vt 0.617267 0.068846
vt 0.614132 0.068846
vt 0.621835 0.138936
vt 0.624969 0.138936
vt 0.624969 0.197728
vt 0.621835 0.197728
vt 0.627321 0.197728
vt 0.627321 0.138936
vt 0.624969 0.136584
vt 0.621835 0.136584
vt 0.624969 0.200080
vt 0.621835 0.200080
vt 0.565751 0.740565
vt 0.840114 0.740565
vt 0.840114 0.803276
vt 0.565751 0.803276
vt 0.565751 0.732726
vt 0.565751 0.670014
vt 0.840114 0.670014
vt 0.840114 0.732725
vt 0.557912 0.670014
vt 0.557912 0.732726
vt 0.847953 0.732725
vt 0.847953 0.670014
vt 0.565751 0.662175
vt 0.840114 0.662175
vt 0.605446 0.198158
vt 0.605452 0.139365
vt 0.608586 0.139365
vt 0.608580 0.198158
vt 0.610938 0.139366
vt 0.610932 0.198158
vt 0.608580 0.200510
vt 0.605446 0.200509
vt 0.608587 0.137014
vt 0.605452 0.137013
vt 0.606732 0.591302
vt 0.609866 0.591302
vt 0.609866 0.650095
vt 0.606732 0.650095
vt 0.612218 0.650095
vt 0.612218 0.591302
vt 0.609866 0.588950
vt 0.606732 0.588950
vt 0.609866 0.652446
vt 0.606732 0.652446
s 1
usemtl Diffuse_shelf
f 152/229/130 151/230/131 158/231/132 160/232/133
f 142/233/134 141/234/135 149/235/136 140/236/137
f 139/237/138 151/238/131 152/239/130 138/240/139
f 140/241/137 149/242/136 150/243/140 137/244/141
f 138/245/139 144/246/142 142/247/134 140/248/137
f 143/249/143 141/250/135 146/251/139 145/252/137
f 157/253/144 153/254/145 156/255/146 159/256/147
f 149/257/136 152/258/130 160/259/133 155/260/148
f 138/261/139 152/262/130 143/263/143 144/264/142
f 137/265/141 150/266/140 151/267/131 139/268/138
f 137/269/141 139/270/138 138/271/139 140/272/137
f 154/273/149 153/274/145 157/275/144 158/276/132
f 147/277/146 145/278/137 146/279/139 148/280/147
f 144/281/142 143/282/143 145/283/137 147/284/146
f 141/285/135 142/286/134 148/287/147 146/288/139
f 142/289/134 144/290/142 147/291/146 148/292/147
f 143/293/143 152/258/130 149/257/136 141/294/135
f 160/259/133 159/256/147 156/255/146 155/260/148
f 155/295/148 156/255/146 153/254/145 154/296/149
f 150/297/140 149/298/136 155/295/148 154/296/149
f 158/231/132 157/253/144 159/256/147 160/232/133
f 150/299/140 154/273/149 158/276/132 151/300/131
f 161/301/150 162/302/150 163/303/151 164/304/151
f 166/305/152 168/306/153 167/307/153 165/308/152
f 161/301/150 166/305/152 165/308/152 162/302/150
f 173/309/152 175/310/154 174/311/138 172/312/139
f 171/313/155 170/314/156 172/312/139 174/311/138
f 170/315/156 169/316/157 173/309/152 172/312/139
f 171/317/155 174/311/138 175/310/154 176/318/158
f 181/319/152 180/320/137 182/321/141 183/322/154
f 179/323/159 182/321/141 180/320/137 178/324/160
f 178/325/160 180/320/137 181/319/152 177/326/157
f 179/327/159 184/328/158 183/322/154 182/321/141
f 185/329/150 186/330/150 187/331/151 188/332/151
f 190/333/152 192/334/153 191/335/153 189/336/152
f 185/329/150 190/333/152 189/336/152 186/330/150
f 197/337/152 199/338/154 198/339/138 196/340/139
f 195/341/155 194/342/156 196/340/139 198/339/138
f 194/343/156 193/344/157 197/337/152 196/340/139
f 195/345/155 198/339/138 199/338/154 200/346/158
f 205/347/152 204/348/161 206/349/162 207/350/154
f 203/351/159 206/349/162 204/348/161 202/352/160
f 202/353/160 204/348/161 205/347/152 201/354/157
f 203/355/159 208/356/158 207/350/154 206/349/162
f 209/357/150 210/358/150 211/359/151 212/360/151
f 214/361/152 216/362/153 215/363/153 213/364/152
f 209/357/150 214/361/152 213/364/152 210/358/150
f 221/365/152 223/366/154 222/367/138 220/368/139
f 219/369/155 218/370/156 220/368/139 222/367/138
f 218/371/156 217/372/157 221/365/152 220/368/139
f 219/373/155 222/367/138 223/366/154 224/374/158
f 229/375/152 228/376/161 230/377/162 231/378/154
f 227/379/159 230/377/162 228/376/161 226/380/160
f 226/381/160 228/376/161 229/375/152 225/382/157
f 227/383/159 232/384/158 231/378/154 230/377/162
f 233/385/150 234/386/150 235/387/151 236/388/151
f 238/389/152 240/390/153 239/391/153 237/392/152
f 233/385/150 238/389/152 237/392/152 234/386/150
f 245/393/152 247/394/154 246/395/138 244/396/139
f 243/397/155 242/398/156 244/396/139 246/395/138
f 242/399/156 241/400/157 245/393/152 244/396/139
f 243/401/155 246/395/138 247/394/154 248/402/158
f 253/403/152 252/404/137 254/405/141 255/406/154
f 251/407/159 254/405/141 252/404/137 250/408/160
f 250/409/160 252/404/137 253/403/152 249/410/157
f 251/411/159 256/412/158 255/406/154 254/405/141
f 257/413/150 258/414/150 259/415/151 260/416/151
f 262/417/152 264/418/153 263/419/153 261/420/152
f 257/413/150 262/417/152 261/420/152 258/414/150
f 269/421/152 271/422/154 270/423/138 268/424/139
f 267/425/155 266/426/156 268/424/139 270/423/138
f 266/427/156 265/428/157 269/421/152 268/424/139
f 267/429/155 270/423/138 271/422/154 272/430/158
f 277/431/152 276/432/137 278/433/141 279/434/154
f 275/435/159 278/433/141 276/432/137 274/436/160
f 274/437/160 276/432/137 277/431/152 273/438/157
f 275/439/159 280/440/158 279/434/154 278/433/141
f 281/441/146 282/442/147 283/443/144 284/444/145
f 286/445/137 288/446/141 287/447/138 285/448/139
f 281/441/146 286/445/137 285/448/139 282/442/147
f 284/449/145 288/446/141 286/445/137 281/450/146
f 282/451/147 285/448/139 287/447/138 283/452/144
f 284/453/145 283/454/144 287/447/138 288/446/141
f 293/455/152 295/456/154 294/457/138 292/458/139
f 291/459/155 290/460/156 292/458/139 294/457/138
f 290/461/156 289/462/157 293/455/152 292/458/139
f 291/463/155 294/457/138 295/456/154 296/464/158
f 301/465/152 300/466/137 302/467/141 303/468/154
f 299/469/159 302/467/141 300/466/137 298/470/160
f 298/471/160 300/466/137 301/465/152 297/472/157
f 299/473/159 304/474/158 303/468/154 302/467/141
o diffuse_chair_03
v 77.227142 -713.876038 85.368103
v 77.289589 -715.209656 85.308769
v 77.211517 -713.542419 78.848801
v 52.859787 -715.017090 85.368103
v 52.922234 -716.350647 85.308769
v 52.844166 -714.683411 78.848801
v 52.906612 -716.017029 78.789474
v 77.273972 -714.876038 78.789474
v 83.155312 -678.818665 86.416458
v 83.164284 -678.458069 85.378906
v 43.644249 -679.539673 86.388763
v 43.606354 -679.201172 85.369675
v 83.325668 -673.265930 86.136215
v 82.410904 -672.346802 86.088409
v 83.213753 -672.796082 86.112320
v 82.878922 -672.459656 86.094818
v 82.408974 -672.306580 85.269547
v 83.323959 -673.224609 85.286285
v 82.877029 -672.419434 85.271790
v 83.211929 -672.755493 85.277916
v 43.891190 -673.494568 86.088409
v 43.056625 -674.466370 86.135513
v 43.433899 -673.635071 86.094719
v 43.128429 -673.990784 86.111961
v 43.048149 -674.406677 85.285980
v 43.882416 -673.437500 85.269547
v 43.119801 -673.932251 85.277771
v 43.425163 -673.577515 85.271751
v 82.288277 -719.911743 133.083923
v 81.953964 -718.135437 123.582962
v 82.372597 -721.795959 132.702194
v 81.774277 -720.006348 133.460495
v 80.736404 -719.984375 133.083923
v 79.184532 -720.057068 133.083923
v 80.741913 -720.102173 133.714020
v 81.258743 -720.068054 133.661194
v 80.224167 -720.116516 133.661194
v 79.705116 -720.103210 133.460495
v 78.589027 -718.292969 123.582962
v 78.106049 -716.523621 114.082001
v 78.686539 -720.481323 123.157074
v 79.268852 -721.941284 132.702194
v 78.217392 -719.016113 113.611954
v 82.051476 -720.323792 123.157074
v 80.820724 -721.868652 132.702194
v 79.789436 -721.987488 133.078781
v 80.308487 -722.000732 133.279465
v 80.826233 -721.986389 133.332306
v 81.343063 -721.952332 133.279465
v 81.858597 -721.890564 133.078781
v 81.656006 -718.855103 113.611954
v 81.102142 -716.800293 99.532150
v 81.544655 -716.362610 114.082001
v 80.966309 -713.753845 100.106682
v 80.595016 -711.109497 85.994339
v 77.460724 -713.917969 100.106682
v 76.955482 -711.279907 85.994339
v 77.596558 -716.964417 99.532150
v 77.160843 -715.720947 85.591705
v 77.017189 -715.074829 71.035049
v 80.800369 -715.550537 85.591705
v 80.656723 -714.904419 71.035049
v 80.589157 -714.276672 56.967949
v 80.470673 -710.916931 71.294861
v 76.831146 -711.087341 71.294861
v 80.422958 -710.727417 57.089737
v 77.109924 -710.882568 57.089737
v 80.415230 -710.562317 44.829769
v 80.154129 -710.845154 44.555805
v 80.563721 -713.733459 44.829762
v 77.306915 -710.707825 44.829769
v 77.597878 -710.964844 44.555805
v 77.455353 -713.879028 44.829762
v 77.720329 -713.580017 44.555801
v 77.276123 -714.431824 56.967949
v 80.276581 -713.460327 44.555801
v 48.282822 -723.392212 132.702194
v 48.464973 -721.896484 123.157074
v 48.803410 -723.438416 133.078781
v 48.190701 -721.508362 133.083923
v 49.834694 -723.319580 132.702194
v 51.386566 -723.246887 132.702194
v 49.322456 -723.451660 133.279465
v 49.840210 -723.437317 133.332306
v 50.357040 -723.403198 133.279465
v 50.872574 -723.341492 133.078781
v 51.829906 -721.738892 123.157074
v 52.160076 -720.236206 113.611954
v 51.722496 -719.551025 123.582962
v 52.038033 -717.744263 114.082001
v 51.294441 -721.363037 133.083923
v 48.357563 -719.708557 123.582962
v 49.742573 -721.435669 133.083923
v 50.780449 -721.457642 133.460495
v 50.264915 -721.519348 133.661194
v 49.748089 -721.553467 133.714020
v 49.230335 -721.567810 133.661194
v 48.711288 -721.554504 133.460495
v 48.599419 -717.905273 114.082001
v 48.931461 -715.253845 100.106682
v 48.721466 -720.397278 113.611954
v 49.080891 -718.299683 99.532150
v 49.264557 -717.027161 85.591705
v 52.586475 -718.135559 99.532150
v 52.904087 -716.856750 85.591705
v 52.437042 -715.089722 100.106682
v 52.693558 -712.416016 85.994339
v 49.054028 -712.586426 85.994339
v 52.799355 -712.212646 71.294861
v 49.159828 -712.383057 71.294861
v 52.986732 -716.200012 71.035049
v 52.502655 -712.034790 57.089737
v 49.189621 -712.189941 57.089737
v 52.668850 -715.584045 56.967949
v 52.290207 -711.879272 44.829769
v 52.024529 -712.162354 44.555805
v 52.438744 -715.050415 44.829762
v 49.181889 -712.024780 44.829769
v 49.468281 -712.282043 44.555805
v 49.330383 -715.195984 44.829762
v 49.590736 -714.897156 44.555801
v 49.355816 -715.739197 56.967949
v 49.347202 -716.370483 71.035049
v 52.146988 -714.777466 44.555801
v 78.825363 -677.062744 85.421356
v 78.608971 -672.441589 85.153168
v 82.525391 -676.889465 85.421356
v 78.641647 -677.356567 75.230270
v 78.457932 -677.650452 65.039177
v 82.110130 -677.194214 75.230270
v 78.441940 -673.070251 75.029129
v 78.274910 -673.698914 64.905083
v 81.910423 -672.907837 75.029129
v 82.309006 -672.268311 85.153168
v 81.504135 -673.547729 64.905083
v 81.128716 -674.186157 54.781044
v 81.687149 -677.499268 65.039177
v 81.295044 -677.802856 54.848091
v 78.274216 -677.944336 54.848091
v 81.042068 -678.092285 44.930862
v 80.748520 -677.839355 44.657005
v 80.888107 -674.801514 44.930855
v 78.111366 -678.229553 44.930862
v 78.367798 -677.950867 44.657005
v 77.957390 -674.938721 44.930855
v 78.239769 -675.216675 44.657005
v 78.107880 -674.327637 54.781044
v 80.620491 -675.105164 44.657005
v 47.634415 -678.523254 85.421356
v 47.418034 -673.902100 85.153168
v 43.934391 -678.696533 85.421356
v 47.844788 -678.798645 75.230270
v 48.055161 -679.074097 65.039177
v 44.376305 -678.961060 75.230270
v 47.643082 -674.512451 75.029129
v 47.868126 -675.122742 64.905083
v 44.174599 -674.674805 75.029129
v 43.718006 -674.075378 85.153168
v 44.638908 -675.273926 64.905083
v 45.072342 -675.874512 54.781044
v 44.825943 -679.225281 65.039177
v 45.244705 -679.490967 54.848091
v 48.265533 -679.349487 54.848091
v 45.523621 -679.755493 44.930862
v 45.792248 -679.476196 44.657005
v 45.369400 -676.464661 44.930855
v 48.454319 -679.618225 44.930862
v 48.172966 -679.364746 44.657005
v 48.300114 -676.327454 44.930855
v 48.044937 -676.630554 44.657005
v 48.093174 -675.733093 54.781044
v 45.664223 -676.742004 44.657005
v 80.498337 -677.040405 78.792244
v 81.805344 -677.105835 78.769943
v 78.780914 -711.017395 78.848801
v 80.608040 -676.851868 85.221161
v 81.915054 -676.917297 85.198860
v 78.899200 -711.011841 85.277725
v 80.206207 -711.077271 85.255424
v 80.087921 -711.082825 78.826508
v 45.953949 -678.616089 78.792076
v 44.658772 -678.803345 78.769775
v 50.849876 -712.325256 78.848801
v 45.833015 -678.386536 85.220993
v 44.537842 -678.573792 85.198700
v 50.739933 -712.330444 85.277725
v 49.444759 -712.517700 85.255424
v 49.554703 -712.512573 78.826508
v 77.531708 -714.578430 101.296921
v 77.603149 -716.104187 101.006836
v 77.508949 -714.092468 98.735336
v 52.416679 -715.754456 101.296921
v 52.488121 -717.280212 101.006836
v 52.393925 -715.268494 98.735336
v 52.465370 -716.794250 98.445251
v 77.580399 -715.618225 98.445251
v 79.157501 -720.257385 131.566376
v 79.228943 -721.783203 131.276276
v 78.787804 -719.407043 127.002686
v 72.329056 -720.577148 131.566376
v 72.120888 -719.719238 127.002686
v 72.400497 -722.102905 131.276276
v 72.336807 -720.742798 132.439377
v 65.980072 -720.874451 131.566376
v 65.243088 -720.908936 131.566376
v 65.998940 -721.287415 133.743164
v 65.939758 -720.008667 127.002686
v 65.202545 -720.043152 127.002686
v 66.011200 -721.534424 126.712601
v 65.273987 -721.568909 126.712601
v 66.051514 -722.400208 131.276276
v 72.192329 -721.244995 126.712601
v 78.859245 -720.932800 126.712601
v 65.314529 -722.434692 131.276276
v 66.070381 -722.813171 133.453064
v 65.334427 -722.859558 133.515717
v 72.408249 -722.268555 132.149292
v 64.597351 -722.882141 133.453064
v 65.262978 -721.333801 133.805801
v 64.525909 -721.356384 133.743164
v 64.506104 -720.943481 131.566376
v 58.164875 -721.406372 132.439377
v 58.236320 -722.932129 132.149292
v 58.157120 -721.240784 131.566376
v 51.328671 -721.560486 131.566376
v 58.284203 -720.367126 127.002686
v 58.228565 -722.766541 131.276276
v 51.400116 -723.086243 131.276276
v 58.355648 -721.892883 126.712601
v 64.577545 -722.469238 131.276276
v 64.536781 -721.603455 126.712601
v 64.465340 -720.077698 127.002686
v 51.688736 -722.205078 126.712601
v 51.617290 -720.679321 127.002686
v 72.425995 -720.541748 126.911545
v 72.392395 -719.824280 127.046310
v 72.199860 -715.712524 101.143730
v 70.751266 -720.620178 126.911545
v 70.717674 -719.902710 127.046310
v 70.525139 -715.790955 101.143730
v 70.491539 -715.073486 101.278511
v 72.166267 -714.995056 101.278511
v 58.057297 -721.214600 126.911545
v 58.023705 -720.497131 127.046310
v 57.831169 -716.385376 101.143730
v 59.732025 -721.136169 126.911545
v 59.698429 -720.418701 127.046310
v 59.505894 -716.306946 101.143730
v 59.472298 -715.589478 101.278511
v 57.797573 -715.667847 101.278511
v 62.144169 -720.343628 127.034172
v 68.283394 -720.056152 127.034172
v 62.189690 -721.315796 126.860054
v 62.116833 -719.759888 123.767715
v 61.966965 -719.707642 123.437050
v 68.256065 -719.472412 123.767715
v 62.162357 -720.732056 123.593590
v 62.012486 -720.679871 123.262924
v 68.301582 -720.444580 123.593590
v 68.445923 -720.378601 123.262924
v 68.328918 -721.028320 126.860054
v 68.400398 -719.406433 123.437050
v 68.945724 -720.264709 122.757729
v 61.504230 -720.613159 122.757729
v 68.900200 -719.292542 122.931847
v 69.287621 -720.127380 122.080482
v 69.557549 -719.945007 121.132637
v 61.150993 -720.508423 122.080482
v 69.242104 -719.155212 122.254585
v 69.512024 -718.972839 121.306763
v 61.105473 -719.536194 122.254585
v 60.819683 -719.379822 121.306763
v 61.458710 -719.640991 122.931847
v 60.865208 -720.351990 121.132637
v 60.730568 -719.215454 120.365532
v 60.784637 -718.997498 119.162743
v 69.585388 -718.800781 120.365532
v 60.776093 -720.187622 120.191414
v 69.630913 -719.773010 120.191414
v 60.830162 -719.969666 118.988625
v 69.556709 -719.561035 118.988625
v 61.053764 -719.743469 117.784142
v 61.302872 -719.516296 116.580856
v 61.008244 -718.771301 117.958275
v 69.312943 -719.356750 117.784142
v 69.043701 -719.153809 116.580856
v 69.267426 -718.384521 117.958275
v 68.998177 -718.181641 116.754974
v 69.511185 -718.588867 119.162743
v 61.257347 -718.544128 116.754974
v 68.610199 -717.922241 115.205208
v 68.319519 -717.682190 113.789017
v 61.619392 -718.249573 115.205208
v 68.655724 -718.894409 115.031097
v 68.365044 -718.654358 113.614899
v 61.664913 -719.221741 115.031097
v 61.931892 -718.955627 113.614899
v 61.886372 -717.983459 113.789017
v 62.199429 -718.641907 111.933151
v 62.295372 -718.406311 110.642906
v 62.153904 -717.669739 112.107277
v 68.069359 -718.367004 111.933151
v 67.951820 -718.141418 110.642906
v 68.023842 -717.394836 112.107277
v 67.906296 -717.169250 110.817024
v 62.249851 -717.434143 110.817024
v 67.870277 -716.878174 109.182365
v 67.836189 -716.478088 106.939468
v 62.258511 -717.140991 109.182365
v 67.915802 -717.850342 109.008263
v 67.881706 -717.450256 106.765350
v 62.304031 -718.113159 109.008263
v 62.300587 -717.711548 106.765350
v 62.255066 -716.739380 106.939468
v 62.251846 -716.670654 100.940857
v 62.206326 -715.698486 101.114975
v 67.832970 -716.409363 100.940857
v 67.787445 -715.437195 101.114975
v 78.764145 -673.597595 85.004036
v 78.826523 -674.929749 85.090042
v 78.782310 -673.985474 78.982323
v 47.565670 -675.058472 85.004036
v 47.628048 -676.390625 85.090042
v 47.583832 -675.446350 78.982323
v 47.646210 -676.778503 79.068329
v 78.844688 -675.317627 79.068329
v 78.791191 -674.175110 76.038391
v 78.853569 -675.507263 76.124397
v 78.796524 -674.289001 74.270401
v 47.592712 -675.635986 76.038391
v 47.655090 -676.968140 76.124397
v 47.598045 -675.749878 74.270401
v 47.660423 -677.082031 74.356407
v 78.858902 -675.621155 74.356407
v 80.366905 -676.769531 73.269806
v 81.673744 -676.834900 73.247513
v 78.653358 -711.023376 73.326538
v 80.393700 -676.768250 74.836647
v 81.700539 -676.833679 74.814354
v 78.680153 -711.022095 74.893372
v 79.987000 -711.087524 74.871078
v 79.960205 -711.088745 73.304237
v 46.070518 -678.375427 73.269806
v 44.775505 -678.562683 73.247513
v 50.977432 -712.319275 73.326538
v 46.043724 -678.376709 74.836647
v 44.748711 -678.563904 74.814354
v 50.950634 -712.320557 74.893372
v 49.655624 -712.507812 74.871078
v 49.682419 -712.506531 73.304237
v 82.414574 -703.275940 86.283356
v 46.571457 -704.839600 86.283356
v 82.415337 -703.223999 85.257645
v 82.194817 -710.063171 86.452484
v 80.792038 -711.164673 86.478317
v 82.199043 -709.911255 85.369232
v 47.377125 -711.692871 86.452827
v 48.899212 -712.658447 86.478317
v 47.359695 -711.539368 85.369385
v 48.881870 -712.503784 85.386520
v 46.566162 -704.787598 85.256989
v 80.796097 -711.011475 85.386520
v 82.408813 -703.152771 86.283356
v 82.589500 -697.765381 86.283356
v 46.565910 -704.721191 86.283356
v 82.409668 -703.103027 85.257645
v 82.592148 -697.665100 85.379395
v 46.560719 -704.671265 85.256989
v 45.865341 -698.810059 85.370995
v 45.875259 -698.899353 86.283356
v 82.584572 -697.660095 86.283356
v 82.790237 -690.865845 86.270882
v 45.869164 -698.769226 86.283356
v 82.587021 -697.555542 85.379395
v 82.785934 -690.960327 85.233063
v 45.859070 -698.676147 85.370995
v 45.096535 -692.079529 85.234848
v 45.085793 -691.998047 86.261932
v 82.784828 -690.750183 86.270882
v 82.972000 -685.101013 86.112228
v 45.081436 -691.904907 86.261932
v 82.780365 -690.841248 85.233063
v 82.976562 -684.903259 85.277496
v 45.092037 -691.983521 85.234848
v 44.407585 -686.192017 85.278717
v 44.429630 -686.393494 86.115891
v 82.962875 -684.906189 86.112228
v 83.158630 -678.889648 86.416458
v 44.420319 -686.194580 86.115891
v 82.967361 -684.706909 85.277496
v 83.168083 -678.539124 85.378906
v 44.398201 -685.991577 85.278717
v 43.611607 -679.313293 85.369675
v 43.649052 -679.642273 86.388763
v 77.159073 -715.833435 86.622009
v 77.159012 -715.677917 85.530212
v 76.933311 -711.365540 86.427048
v 52.952175 -716.966919 86.622009
v 52.759441 -712.497498 86.427048
v 52.937698 -716.812073 85.530212
v 52.755077 -712.445435 85.400681
v 76.932793 -711.313293 85.400681
v 77.203758 -713.376587 74.871078
v 77.266205 -714.710205 74.811752
v 77.200081 -713.298035 73.326538
v 52.836403 -714.517639 74.871078
v 52.898849 -715.851196 74.811752
v 52.832726 -714.439026 73.326538
v 52.895172 -715.772644 73.267204
v 77.262527 -714.631653 73.267204
vn -0.6028 0.5213 0.6041
vn -0.5481 -0.6308 0.5493
vn 0.6046 -0.5768 0.5493
vn 0.5514 0.5754 0.6041
vn 0.6028 -0.5213 -0.6041
vn 0.5481 0.6308 -0.5493
vn -0.6046 0.5768 -0.5493
vn -0.5514 -0.5754 -0.6041
vn 0.0781 0.7427 -0.6650
vn -0.1234 0.7402 -0.6609
vn -0.1148 0.7206 0.6838
vn 0.0722 0.7297 0.6799
vn 0.5525 -0.6639 0.5039
vn 0.5946 -0.4758 -0.6481
vn 0.7323 0.0670 -0.6776
vn 0.7282 0.1023 0.6777
vn -0.7381 0.0064 -0.6747
vn -0.6997 0.3215 -0.6381
vn -0.4246 0.6490 -0.6313
vn -0.5613 -0.5129 -0.6495
vn -0.5136 -0.6922 0.5071
vn -0.7317 0.0391 0.6805
vn 0.6679 0.3701 -0.6457
vn 0.6554 0.3856 0.6495
vn 0.3768 0.6686 -0.6411
vn 0.3638 0.6678 0.6494
vn -0.4045 0.6360 0.6572
vn -0.6803 0.3287 0.6551
vn 0.6827 0.5709 0.4561
vn 0.6750 0.7296 0.1099
vn -0.0460 0.9817 0.1845
vn 0.7383 -0.6332 0.2323
vn 0.7390 -0.6611 -0.1296
vn 0.3322 0.5596 0.7593
vn 0.3906 -0.7722 0.5012
vn -0.7137 0.5081 0.4821
vn -0.3826 0.5269 0.7589
vn -0.7384 0.6542 0.1636
vn -0.0248 0.5321 0.8463
vn -0.1997 0.5203 0.8303
vn 0.1506 0.5363 0.8305
vn -0.6741 -0.7347 -0.0756
vn -0.7378 0.6562 0.1581
vn -0.6746 -0.7340 -0.0783
vn 0.6738 0.7310 0.1080
vn -0.6578 -0.7079 0.2573
vn 0.0461 -0.9846 -0.1689
vn 0.7388 -0.6614 -0.1290
vn -0.3173 -0.8047 0.5018
vn -0.1359 -0.8090 0.5719
vn 0.0379 -0.8104 0.5846
vn 0.2106 -0.7930 0.5716
vn 0.7432 -0.6615 -0.1006
vn 0.6725 0.7312 0.1140
vn -0.6809 -0.7299 -0.0598
vn -0.7385 0.6566 0.1529
vn 0.7431 -0.6668 -0.0565
vn 0.6527 0.7549 0.0643
vn -0.7230 0.6859 0.0833
vn -0.6808 -0.7316 -0.0348
vn -0.7423 0.6701 0.0054
vn -0.6766 -0.7354 -0.0361
vn 0.7388 -0.6730 -0.0354
vn 0.6726 0.7400 0.0058
vn 0.7391 -0.6728 -0.0326
vn 0.6729 0.7397 0.0086
vn -0.6727 -0.7385 -0.0448
vn -0.7388 0.6740 -0.0036
vn 0.6194 0.6836 -0.3861
vn -0.6765 0.6231 -0.3926
vn 0.6802 -0.6086 -0.4087
vn 0.2853 0.3168 -0.9046
vn -0.3100 0.2894 -0.9056
vn 0.3145 -0.2760 -0.9082
vn -0.2837 -0.3045 -0.9093
vn -0.6162 -0.6692 -0.4153
vn -0.6759 -0.6995 0.2323
vn -0.6740 -0.7273 -0.1296
vn -0.7331 0.5046 0.4561
vn -0.7402 0.6634 0.1099
vn -0.3167 -0.8053 0.5012
vn -0.3830 0.5261 0.7593
vn 0.7398 -0.6685 -0.0756
vn 0.7211 -0.6433 0.2573
vn 0.3911 -0.7716 0.5018
vn -0.1356 -0.8092 0.5716
vn 0.0380 -0.8104 0.5846
vn 0.2109 -0.7927 0.5719
vn 0.6740 0.7204 0.1636
vn 0.6631 0.5726 0.4821
vn -0.6738 -0.7276 -0.1290
vn 0.7403 -0.6677 -0.0783
vn 0.6733 0.7223 0.1581
vn -0.7392 0.6648 0.1080
vn 0.3316 0.5604 0.7589
vn 0.1502 0.5367 0.8303
vn -0.0250 0.5321 0.8463
vn -0.2000 0.5199 0.8305
vn -0.7379 0.6652 0.1140
vn -0.6781 -0.7280 -0.1006
vn 0.6740 0.7228 0.1529
vn 0.7462 -0.6631 -0.0598
vn -0.7204 0.6906 0.0643
vn -0.6775 -0.7334 -0.0565
vn 0.7462 -0.6648 -0.0348
vn 0.6557 0.7504 0.0833
vn 0.6764 0.7365 0.0054
vn -0.7388 0.6739 0.0058
vn 0.7424 -0.6690 -0.0361
vn 0.6725 0.7401 -0.0036
vn -0.7391 0.6735 0.0086
vn 0.7388 -0.6724 -0.0448
vn 0.6153 0.6836 -0.3926
vn -0.6805 0.6227 -0.3861
vn 0.6761 -0.6087 -0.4153
vn 0.2816 0.3171 -0.9056
vn -0.3136 0.2888 -0.9046
vn 0.3109 -0.2766 -0.9093
vn -0.2874 -0.3042 -0.9082
vn -0.6203 -0.6695 -0.4087
vn -0.6730 -0.7390 -0.0326
vn -0.6727 -0.7391 -0.0354
vn -0.5432 -0.5796 0.6074
vn -0.5991 0.5847 0.5470
vn -0.7393 0.6728 -0.0296
vn -0.6734 -0.7385 0.0334
vn 0.6139 -0.5229 0.5913
vn 0.5612 0.6349 0.5310
vn 0.7385 -0.6741 -0.0102
vn 0.7382 -0.6745 -0.0094
vn 0.6727 0.7363 -0.0732
vn 0.6722 0.7368 -0.0724
vn 0.7375 -0.6753 -0.0038
vn 0.6712 0.7382 -0.0670
vn -0.7395 0.6725 -0.0300
vn -0.6735 -0.7385 0.0329
vn -0.6234 -0.6869 -0.3735
vn 0.6741 -0.6268 -0.3908
vn 0.6140 0.6647 -0.4256
vn -0.2887 -0.3197 -0.9025
vn 0.3075 -0.2930 -0.9053
vn 0.2819 0.3011 -0.9110
vn -0.6844 0.6045 -0.4077
vn -0.3188 0.2719 -0.9080
vn 0.5950 -0.5263 0.6074
vn 0.7394 -0.6724 0.0334
vn 0.6732 0.7389 -0.0296
vn 0.5418 0.6381 0.5470
vn -0.6181 0.5797 0.5310
vn -0.5624 -0.5780 0.5913
vn -0.6723 -0.7402 -0.0102
vn 0.7395 -0.6724 0.0334
vn -0.6720 -0.7405 -0.0094
vn -0.7386 0.6702 -0.0732
vn -0.7381 0.6708 -0.0724
vn -0.7372 0.6723 -0.0670
vn -0.6712 -0.7413 -0.0038
vn 0.6734 0.7387 -0.0300
vn 0.7396 -0.6723 0.0329
vn 0.6849 -0.6256 -0.3735
vn -0.6126 -0.6871 -0.3908
vn -0.6734 0.6044 -0.4256
vn -0.2788 -0.3204 -0.9053
vn 0.3173 -0.2913 -0.9025
vn -0.3088 0.2734 -0.9110
vn 0.2920 0.3005 -0.9080
vn 0.6249 0.6658 -0.4077
vn -0.5362 0.6145 0.5787
vn 0.6140 0.5575 0.5588
vn 0.5967 0.5378 -0.5955
vn -0.5593 0.5964 -0.5757
vn 0.5375 -0.6063 -0.5860
vn -0.6155 -0.5479 -0.5666
vn -0.5954 -0.5475 0.5879
vn 0.5577 -0.6048 0.5686
vn 0.4763 0.6642 0.5762
vn 0.5013 0.6438 -0.5781
vn -0.6450 0.4769 -0.5971
vn -0.6628 0.5004 0.5571
vn 0.6636 -0.4880 -0.5671
vn -0.4790 -0.6540 -0.5856
vn 0.6445 -0.4894 0.5874
vn -0.4982 -0.6542 0.5690
vn -0.5982 0.4320 0.6749
vn -0.5451 -0.7012 0.4595
vn 0.6083 -0.6472 0.4595
vn 0.5552 0.4860 0.6749
vn 0.5982 -0.4320 -0.6749
vn 0.5451 0.7012 -0.4595
vn -0.6083 0.6472 -0.4595
vn -0.5552 -0.4860 -0.6749
vn 0.2622 0.8456 0.4650
vn 0.3454 -0.9298 0.1274
vn 0.6299 -0.6391 0.4414
vn 0.5772 0.4870 0.6555
vn 0.5756 -0.4334 -0.6934
vn 0.5222 0.7073 -0.4766
vn -0.0387 0.8257 -0.5628
vn -0.0460 0.9814 0.1866
vn 0.6038 0.5123 0.6107
vn 0.6580 -0.6436 0.3909
vn 0.0790 0.5531 0.8294
vn -0.0253 0.5402 0.8412
vn 0.0263 -0.5621 -0.8266
vn 0.0460 -0.9814 -0.1866
vn 0.1428 -0.8088 0.5704
vn 0.0380 -0.8106 0.5844
vn -0.0666 -0.8187 0.5704
vn -0.1303 0.5433 0.8294
vn -0.3401 0.8174 0.4650
vn -0.6491 0.4536 0.6107
vn -0.5949 -0.7023 0.3909
vn -0.2570 -0.9580 0.1274
vn -0.6201 0.4309 0.6555
vn -0.5674 -0.6951 0.4414
vn -0.5860 0.6554 -0.4766
vn -0.5326 -0.4853 -0.6934
vn -0.5452 -0.7002 0.4610
vn 0.6082 -0.6462 0.4610
vn 0.5552 0.4875 0.6739
vn -0.5983 0.4335 0.6739
vn 0.5983 -0.4335 -0.6739
vn 0.5452 0.7002 -0.4610
vn -0.5552 -0.4875 -0.6739
vn -0.6082 0.6462 -0.4610
vn -0.5985 0.4391 0.6700
vn 0.5549 0.4931 0.6700
vn 0.6059 0.7500 0.2653
vn -0.6733 0.6901 0.2653
vn -0.5454 -0.6963 0.4666
vn 0.6081 -0.6423 0.4666
vn -0.6037 -0.7972 -0.0011
vn -0.5785 0.6468 0.4970
vn -0.5094 -0.8285 0.2327
vn 0.5155 0.6980 0.4970
vn 0.6755 -0.7373 -0.0011
vn 0.5846 -0.7772 0.2327
vn -0.5648 -0.7667 0.3053
vn 0.6340 -0.7105 0.3053
vn 0.5719 0.6151 0.5427
vn -0.6420 -0.7537 0.1410
vn 0.7096 -0.6904 0.1410
vn 0.6463 0.6600 0.3829
vn 0.7476 -0.6641 0.0097
vn 0.6845 0.6844 0.2512
vn -0.6823 -0.7310 0.0097
vn -0.7454 0.6175 0.2512
vn -0.7052 0.5968 0.3829
vn -0.6269 0.5590 0.5427
vn 0.6893 0.7121 0.1334
vn -0.7528 0.6446 0.1334
vn -0.6891 -0.7162 -0.1104
vn -0.7484 0.6623 0.0363
vn -0.6846 -0.6987 -0.2074
vn 0.6832 0.7293 0.0363
vn 0.7530 -0.6487 -0.1104
vn 0.7469 -0.6317 -0.2074
vn -0.6633 -0.7009 -0.2622
vn 0.7259 -0.6359 -0.2622
vn -0.7282 0.6852 -0.0139
vn -0.6606 -0.6975 -0.2776
vn 0.7229 -0.6327 -0.2776
vn -0.7255 0.6876 -0.0296
vn 0.6610 0.7503 -0.0139
vn 0.6581 0.7524 -0.0296
vn 0.6517 0.7582 -0.0207
vn -0.7197 0.6940 -0.0207
vn 0.7172 -0.6418 -0.2714
vn 0.7238 -0.6441 -0.2475
vn 0.6584 0.7527 0.0027
vn -0.7258 0.6879 0.0027
vn -0.6541 -0.7060 -0.2714
vn -0.6604 -0.7089 -0.2475
vn -0.6593 -0.7219 -0.2101
vn 0.7239 -0.6571 -0.2101
vn -0.7253 0.6871 0.0423
vn -0.6651 -0.7297 -0.1585
vn 0.7304 -0.6644 -0.1585
vn -0.7309 0.6760 0.0933
vn 0.6579 0.7519 0.0423
vn 0.6646 0.7414 0.0933
vn 0.6729 0.7303 0.1176
vn -0.7382 0.6643 0.1176
vn 0.7381 -0.6617 -0.1317
vn 0.7381 -0.6626 -0.1270
vn 0.6730 0.7295 0.1223
vn -0.7382 0.6634 0.1223
vn -0.6730 -0.7278 -0.1317
vn -0.6730 -0.7287 -0.1270
vn -0.5549 -0.4931 -0.6700
vn 0.5985 -0.4391 -0.6700
vn -0.6081 0.6423 -0.4667
vn 0.5454 0.6963 -0.4667
vn -0.6054 0.5856 0.5390
vn -0.5515 -0.5654 0.6133
vn 0.6019 -0.5114 0.6133
vn 0.5480 0.6396 0.5390
vn 0.6054 -0.5856 -0.5390
vn 0.5515 0.5654 -0.6133
vn -0.6019 0.5114 -0.6133
vn -0.5480 -0.6396 -0.5390
vn -0.5378 0.6059 0.5861
vn 0.6153 0.5482 0.5665
vn 0.5955 0.5473 -0.5881
vn -0.5576 0.6050 -0.5684
vn 0.5378 -0.6059 -0.5861
vn -0.6153 -0.5482 -0.5665
vn -0.5955 -0.5473 0.5881
vn 0.5576 -0.6050 0.5684
vn 0.4788 0.6536 0.5861
vn 0.4986 0.6545 -0.5684
vn -0.6441 0.4893 -0.5881
vn -0.6638 0.4883 0.5665
vn 0.6638 -0.4883 -0.5665
vn -0.4789 -0.6536 -0.5861
vn 0.6441 -0.4893 0.5881
vn -0.4986 -0.6545 0.5684
vn 0.5802 0.5724 0.5794
vn -0.6272 0.5205 0.5795
vn -0.6658 -0.4410 0.6019
vn 0.7028 -0.3761 0.6039
vn 0.5724 0.5944 -0.5648
vn -0.6212 0.5431 -0.5649
vn 0.6939 -0.3289 -0.6405
vn 0.2736 -0.7479 0.6048
vn 0.2579 -0.6799 -0.6865
vn -0.2000 -0.7707 0.6049
vn -0.6615 -0.3911 -0.6399
vn -0.1904 -0.7007 -0.6876
vn 0.5759 -0.5872 0.5688
vn 0.5791 -0.5513 -0.6006
vn 0.5743 0.6162 -0.5389
vn 0.5868 0.5436 0.6002
vn -0.6227 0.5011 0.6010
vn -0.5233 -0.6347 0.5686
vn -0.5303 -0.5989 -0.6001
vn -0.6210 0.5715 -0.5364
vn 0.5687 -0.6090 0.5529
vn 0.5844 -0.5464 -0.5999
vn 0.5830 0.5450 -0.6026
vn 0.5737 0.6065 0.5504
vn -0.6199 0.5623 0.5472
vn -0.5253 -0.6464 0.5533
vn -0.5392 -0.5883 -0.6026
vn -0.6192 0.5033 -0.6027
vn 0.5796 -0.5421 0.6085
vn 0.5683 -0.6003 -0.5627
vn 0.5686 0.6509 -0.5031
vn 0.5938 0.5078 0.6241
vn -0.6313 0.4610 0.6237
vn -0.5359 -0.5831 0.6106
vn -0.5253 -0.6380 -0.5631
vn -0.6157 0.6072 -0.5022
vn 0.5682 -0.6551 0.4980
vn 0.5873 -0.4945 -0.6407
vn 0.5673 0.6722 -0.4758
vn 0.5979 0.4524 0.6617
vn -0.6243 0.4152 0.6617
vn -0.5132 -0.6970 0.5007
vn -0.5495 -0.5367 -0.6403
vn -0.6127 0.6349 -0.4706
vn -0.5643 -0.5648 -0.6021
vn 0.6146 -0.5096 -0.6021
vn 0.5958 -0.5822 0.5532
vn -0.5388 -0.6353 0.5532
vn 0.5448 0.6131 -0.5721
vn 0.5525 0.6001 0.5785
vn -0.6062 0.5458 0.5785
vn -0.5997 0.5595 -0.5721
vn -0.6027 0.5214 0.6040
vn -0.5481 -0.6307 0.5494
vn 0.6046 -0.5767 0.5494
vn 0.5514 0.5755 0.6040
vn 0.6027 -0.5214 -0.6040
vn 0.5481 0.6307 -0.5494
vn -0.6046 0.5767 -0.5494
vn -0.5514 -0.5755 -0.6040
vt 0.260220 0.704599
vt 0.271953 0.704599
vt 0.271953 0.918768
vt 0.260220 0.918768
vt 0.986617 0.063677
vt 0.998350 0.063597
vt 0.998350 0.120909
vt 0.986617 0.120989
vt 0.340998 0.918768
vt 0.340998 0.704599
vt 0.398309 0.704599
vt 0.398309 0.918768
vt 0.998345 0.058955
vt 0.986612 0.058876
vt 0.986612 0.001564
vt 0.998345 0.001644
vt 0.329265 0.918768
vt 0.329265 0.704599
vt 0.992174 0.420907
vt 0.993080 0.758638
vt 0.985887 0.758596
vt 0.984992 0.420920
vt 0.979222 0.359856
vt 0.988460 0.362552
vt 0.991593 0.408322
vt 0.984138 0.408339
vt 0.454208 0.430860
vt 0.445854 0.423392
vt 0.449999 0.424098
vt 0.453057 0.426831
vt 0.988400 0.813226
vt 0.979269 0.815523
vt 0.984886 0.771069
vt 0.992349 0.771109
vt 0.792598 0.365439
vt 0.792598 0.712102
vt 0.782975 0.711966
vt 0.783187 0.365717
vt 0.991877 0.412539
vt 0.984559 0.412554
vt 0.992089 0.416690
vt 0.984870 0.416704
vt 0.992993 0.762828
vt 0.985764 0.762786
vt 0.992728 0.766921
vt 0.985400 0.766881
vt 0.738596 0.361351
vt 0.730202 0.368812
vt 0.731364 0.364784
vt 0.734436 0.362054
vt 0.730155 0.713407
vt 0.727152 0.710525
vt 0.726090 0.706443
vt 0.734294 0.714315
vt 0.449581 0.776416
vt 0.457776 0.768551
vt 0.403754 0.774156
vt 0.403754 0.427493
vt 0.453711 0.775512
vt 0.456710 0.772633
vt 0.514662 0.007202
vt 0.512075 0.091187
vt 0.501141 0.007138
vt 0.531397 0.007949
vt 0.531433 0.091879
vt 0.880168 0.683927
vt 0.880199 0.700713
vt 0.874580 0.700764
vt 0.874549 0.683978
vt 0.510170 0.003846
vt 0.487621 0.007077
vt 0.492143 0.003763
vt 0.482788 0.091190
vt 0.501167 0.001559
vt 0.496658 0.002007
vt 0.505672 0.002048
vt 0.560617 0.092674
vt 0.579973 0.091535
vt 0.584009 0.175632
vt 0.561866 0.176783
vt 0.509675 0.175368
vt 0.479619 0.175381
vt 0.558435 0.008664
vt 0.575128 0.007475
vt 0.544914 0.008304
vt 0.531875 0.176036
vt 0.554016 0.005210
vt 0.535990 0.004734
vt 0.549556 0.003313
vt 0.545061 0.002726
vt 0.540542 0.003075
vt 0.869725 0.700790
vt 0.869694 0.684003
vt 0.865183 0.700796
vt 0.865152 0.684009
vt 0.860642 0.700788
vt 0.860611 0.684002
vt 0.855786 0.700761
vt 0.855755 0.683975
vt 0.850167 0.700713
vt 0.850136 0.683927
vt 0.532900 0.301978
vt 0.505580 0.300522
vt 0.564030 0.302188
vt 0.474431 0.299733
vt 0.535504 0.425725
vt 0.496908 0.425177
vt 0.465407 0.425013
vt 0.591114 0.299722
vt 0.606361 0.424669
vt 0.567275 0.425896
vt 0.601138 0.552830
vt 0.566407 0.553004
vt 0.534786 0.552723
vt 0.500101 0.551911
vt 0.534650 0.675164
vt 0.503720 0.675432
vt 0.563508 0.675256
vt 0.468424 0.552915
vt 0.474890 0.676314
vt 0.506787 0.782053
vt 0.479749 0.782830
vt 0.534361 0.780894
vt 0.473381 0.140109
vt 0.473743 0.168992
vt 0.470113 0.165387
vt 0.470040 0.143724
vt 0.444297 0.168992
vt 0.447938 0.165580
vt 0.447500 0.143505
vt 0.444000 0.140089
vt 0.594474 0.676240
vt 0.588975 0.782773
vt 0.561416 0.780978
vt 0.795700 0.698485
vt 0.795700 0.675649
vt 0.818022 0.675649
vt 0.818022 0.698485
vt 0.067537 0.776478
vt 0.067574 0.692549
vt 0.081054 0.776124
vt 0.050803 0.777226
vt 0.048216 0.693240
vt 0.072131 0.779694
vt 0.862193 0.301395
vt 0.867811 0.301445
vt 0.867780 0.318231
vt 0.862162 0.318181
vt 0.096758 0.691753
vt 0.094575 0.775763
vt 0.090157 0.779218
vt 0.076683 0.781352
vt 0.081202 0.781702
vt 0.085696 0.781114
vt 0.116114 0.692892
vt 0.111269 0.776952
vt 0.068016 0.608392
vt 0.098007 0.607645
vt 0.120149 0.608796
vt 0.018929 0.693238
vt 0.015760 0.609047
vt 0.045816 0.609060
vt 0.037282 0.777289
vt 0.023762 0.777351
vt 0.028284 0.780664
vt 0.046311 0.780581
vt 0.032798 0.782421
vt 0.037307 0.782868
vt 0.041812 0.782379
vt 0.872667 0.301471
vt 0.872636 0.318257
vt 0.877208 0.301477
vt 0.877178 0.318263
vt 0.881750 0.301470
vt 0.881719 0.318256
vt 0.886606 0.301443
vt 0.886575 0.318229
vt 0.892224 0.301395
vt 0.892194 0.318181
vt 0.041721 0.483906
vt 0.069041 0.482450
vt 0.010571 0.484695
vt 0.100171 0.482240
vt 0.033048 0.359251
vt 0.071645 0.358703
vt 0.103416 0.358532
vt 0.142502 0.359759
vt 0.127255 0.484706
vt 0.001548 0.359415
vt 0.004565 0.231513
vt 0.036242 0.232517
vt 0.102548 0.231424
vt 0.137279 0.231598
vt 0.011031 0.108114
vt 0.039860 0.108996
vt 0.099649 0.109171
vt 0.130615 0.108188
vt 0.015890 0.001598
vt 0.042928 0.002375
vt 0.097557 0.003450
vt 0.125116 0.001654
vt 0.447693 0.211960
vt 0.447620 0.233623
vt 0.443990 0.237228
vt 0.444352 0.208345
vt 0.473733 0.208325
vt 0.470232 0.211741
vt 0.469795 0.233816
vt 0.473436 0.237228
vt 0.070502 0.003534
vt 0.070791 0.109263
vt 0.070926 0.231705
vt 0.843448 0.700554
vt 0.821126 0.700554
vt 0.821126 0.677718
vt 0.843448 0.677718
vt 0.861196 0.355744
vt 0.820689 0.356864
vt 0.818522 0.268176
vt 0.856064 0.266725
vt 0.901562 0.264156
vt 0.901562 0.296600
vt 0.860973 0.296600
vt 0.860973 0.264156
vt 0.720358 0.266799
vt 0.750633 0.269034
vt 0.747809 0.358208
vt 0.715509 0.355821
vt 0.816351 0.179417
vt 0.850968 0.177683
vt 0.725178 0.177758
vt 0.753398 0.179769
vt 0.788329 0.358280
vt 0.788188 0.269510
vt 0.788063 0.180627
vt 0.756053 0.090214
vt 0.787883 0.091432
vt 0.814440 0.090455
vt 0.729559 0.088559
vt 0.732951 0.001642
vt 0.758629 0.003100
vt 0.787410 0.004740
vt 0.471486 0.271973
vt 0.443979 0.272269
vt 0.447553 0.268649
vt 0.467840 0.268632
vt 0.468047 0.244987
vt 0.471493 0.241431
vt 0.443979 0.241774
vt 0.447363 0.245457
vt 0.846135 0.088521
vt 0.813114 0.003884
vt 0.841898 0.001672
vt 0.907259 0.683916
vt 0.907259 0.704791
vt 0.883284 0.704791
vt 0.883284 0.683916
vt 0.729746 0.004089
vt 0.724615 0.093109
vt 0.687073 0.091657
vt 0.689240 0.002970
vt 0.858835 0.226937
vt 0.899424 0.226937
vt 0.899424 0.259381
vt 0.858835 0.259381
vt 0.588909 0.093035
vt 0.584059 0.004012
vt 0.616359 0.001625
vt 0.619183 0.090800
vt 0.719518 0.182151
vt 0.684902 0.180417
vt 0.593729 0.182076
vt 0.621948 0.180064
vt 0.656738 0.090323
vt 0.656879 0.001554
vt 0.656614 0.179207
vt 0.656433 0.268402
vt 0.624603 0.269620
vt 0.682991 0.269379
vt 0.598109 0.271275
vt 0.601502 0.358192
vt 0.627179 0.356733
vt 0.655961 0.355094
vt 0.467842 0.176830
vt 0.447555 0.176813
vt 0.443980 0.173193
vt 0.471488 0.173490
vt 0.471495 0.204032
vt 0.468049 0.200475
vt 0.447365 0.200005
vt 0.443980 0.203688
vt 0.714685 0.271313
vt 0.710449 0.358162
vt 0.681665 0.355950
vt 0.683727 0.700463
vt 0.707702 0.700463
vt 0.707702 0.721338
vt 0.683727 0.721338
vt 0.998011 0.183707
vt 0.986618 0.183707
vt 0.986618 0.125614
vt 0.998011 0.125614
vt 0.145600 0.363645
vt 0.145600 0.352251
vt 0.444149 0.352251
vt 0.444149 0.363645
vt 0.444149 0.421738
vt 0.145600 0.421738
vt 0.444149 0.282765
vt 0.444149 0.294158
vt 0.145600 0.294158
vt 0.145600 0.282765
vt 0.998008 0.245741
vt 0.986614 0.245741
vt 0.986614 0.187648
vt 0.998008 0.187648
vt 0.458641 0.276568
vt 0.458641 0.334661
vt 0.447248 0.334661
vt 0.447248 0.276568
vt 0.142326 0.198190
vt 0.440874 0.198190
vt 0.440874 0.209583
vt 0.142326 0.209583
vt 0.142326 0.140097
vt 0.440874 0.140097
vt 0.440875 0.279070
vt 0.142326 0.279070
vt 0.142326 0.267676
vt 0.440875 0.267676
vt 0.447255 0.396695
vt 0.447255 0.338602
vt 0.458648 0.338602
vt 0.458648 0.396695
vt 0.893240 0.222289
vt 0.879590 0.222289
vt 0.879590 0.001548
vt 0.893240 0.001548
vt 0.902526 0.226937
vt 0.916176 0.226937
vt 0.916176 0.249829
vt 0.902526 0.249829
vt 0.916131 0.001548
vt 0.916131 0.222289
vt 0.998260 0.351152
vt 0.984610 0.351152
vt 0.984610 0.328260
vt 0.998260 0.328260
vt 0.929781 0.001548
vt 0.929781 0.222289
vt 0.856698 0.222289
vt 0.856698 0.001548
vt 0.792114 0.994408
vt 0.792114 0.981673
vt 0.848111 0.981673
vt 0.848111 0.994408
vt 0.886258 0.981673
vt 0.886258 0.994408
vt 0.237843 0.833698
vt 0.183171 0.833698
vt 0.184546 0.795646
vt 0.240542 0.795646
vt 0.132483 0.833698
vt 0.132481 0.795646
vt 0.784835 0.994408
vt 0.784835 0.981673
vt 0.132477 0.777496
vt 0.184546 0.788367
vt 0.126437 0.833698
vt 0.126438 0.795646
vt 0.126438 0.776974
vt 0.126437 0.846433
vt 0.132483 0.846433
vt 0.183171 0.846433
vt 0.132481 0.884485
vt 0.126437 0.884485
vt 0.184546 0.884485
vt 0.237843 0.846433
vt 0.240542 0.884485
vt 0.132477 0.902635
vt 0.126437 0.903157
vt 0.184546 0.891764
vt 0.731644 0.981673
vt 0.731644 0.994408
vt 0.725582 0.994408
vt 0.725582 0.981673
vt 0.120398 0.902635
vt 0.120394 0.884485
vt 0.719520 0.994408
vt 0.719520 0.981673
vt 0.120394 0.795646
vt 0.120398 0.777496
vt 0.068329 0.795646
vt 0.068329 0.788367
vt 0.666329 0.994408
vt 0.666329 0.981673
vt 0.659050 0.994408
vt 0.659050 0.981673
vt 0.603053 0.994408
vt 0.603053 0.981673
vt 0.069704 0.833698
vt 0.015032 0.833698
vt 0.012333 0.795646
vt 0.120392 0.833698
vt 0.015032 0.846433
vt 0.069704 0.846433
vt 0.068329 0.884485
vt 0.012333 0.884485
vt 0.120392 0.846433
vt 0.068329 0.891764
vt 0.564906 0.994408
vt 0.564906 0.981673
vt 0.007960 0.020161
vt 0.007960 0.034865
vt 0.001551 0.034865
vt 0.001551 0.020161
vt 0.305316 0.959157
vt 0.535251 0.959156
vt 0.535250 0.965566
vt 0.305316 0.965565
vt 0.305316 0.944453
vt 0.535251 0.944452
vt 0.535251 0.986678
vt 0.305316 0.986678
vt 0.305316 0.980269
vt 0.535250 0.980270
vt 0.845728 0.016252
vt 0.845728 0.001548
vt 0.852137 0.001548
vt 0.852137 0.016252
vt 0.846635 0.020160
vt 0.853044 0.020160
vt 0.853044 0.034863
vt 0.846635 0.034863
vt 0.961292 0.971748
vt 0.954883 0.971748
vt 0.954883 0.741814
vt 0.961292 0.741813
vt 0.975996 0.741813
vt 0.975997 0.971748
vt 0.933770 0.741813
vt 0.940179 0.741814
vt 0.940179 0.971748
vt 0.933770 0.971748
vt 0.001552 0.001555
vt 0.007962 0.001555
vt 0.007962 0.016259
vt 0.001552 0.016259
vt 0.705176 0.965314
vt 0.705176 0.912680
vt 0.733594 0.912680
vt 0.733594 0.965314
vt 0.054183 0.989943
vt 0.054183 0.998410
vt 0.001549 0.998410
vt 0.001549 0.989943
vt 0.082600 0.989943
vt 0.082600 0.998410
vt 0.085741 0.989943
vt 0.085741 0.998410
vt 0.736471 0.911419
vt 0.736471 0.966575
vt 0.924434 0.255360
vt 0.977068 0.255360
vt 0.978329 0.258237
vt 0.923173 0.258236
vt 0.977068 0.226942
vt 0.924434 0.226942
vt 0.533387 0.989943
vt 0.533387 0.998410
vt 0.530246 0.998410
vt 0.530246 0.989943
vt 0.561805 0.989943
vt 0.561805 0.998410
vt 0.982650 0.262632
vt 0.918852 0.262632
vt 0.524082 0.998410
vt 0.524082 0.989943
vt 0.985630 0.268524
vt 0.915872 0.268524
vt 0.517480 0.998410
vt 0.517480 0.989943
vt 0.508896 0.998410
vt 0.508896 0.989943
vt 0.988012 0.276770
vt 0.913490 0.276770
vt 0.755004 0.901736
vt 0.755004 0.976258
vt 0.746758 0.973876
vt 0.746758 0.904118
vt 0.740866 0.970896
vt 0.740866 0.907098
vt 0.107091 0.989943
vt 0.107091 0.998410
vt 0.098508 0.998410
vt 0.098508 0.989943
vt 0.091905 0.998410
vt 0.091905 0.989943
vt 0.763193 0.901039
vt 0.763193 0.976955
vt 0.115309 0.989943
vt 0.115309 0.998410
vt 0.125788 0.989943
vt 0.125788 0.998410
vt 0.773657 0.901589
vt 0.773657 0.976405
vt 0.912793 0.284959
vt 0.988709 0.284958
vt 0.988159 0.295423
vt 0.913343 0.295423
vt 0.986155 0.305901
vt 0.915347 0.305901
vt 0.136456 0.989943
vt 0.136456 0.998410
vt 0.983933 0.316370
vt 0.917569 0.316370
vt 0.147158 0.989943
vt 0.147158 0.998410
vt 0.479531 0.989943
vt 0.479531 0.998410
vt 0.468829 0.998410
vt 0.468829 0.989943
vt 0.490200 0.989943
vt 0.490200 0.998410
vt 0.794604 0.905815
vt 0.794604 0.972179
vt 0.784136 0.974401
vt 0.784136 0.903593
vt 0.500678 0.989943
vt 0.500678 0.998410
vt 0.808087 0.909030
vt 0.808087 0.968964
vt 0.454969 0.998410
vt 0.454969 0.989943
vt 0.442418 0.998410
vt 0.442418 0.989943
vt 0.820408 0.911420
vt 0.820408 0.966574
vt 0.920784 0.329853
vt 0.980718 0.329853
vt 0.978328 0.342174
vt 0.923174 0.342174
vt 0.161019 0.998410
vt 0.161019 0.989943
vt 0.173570 0.989943
vt 0.173570 0.998410
vt 0.975914 0.356804
vt 0.925589 0.356805
vt 0.188399 0.989943
vt 0.188399 0.998410
vt 0.974998 0.368029
vt 0.926504 0.368030
vt 0.199661 0.989943
vt 0.199661 0.998410
vt 0.427589 0.989943
vt 0.427589 0.998410
vt 0.416327 0.998410
vt 0.416327 0.989943
vt 0.846264 0.914750
vt 0.846264 0.963244
vt 0.835039 0.964159
vt 0.835039 0.913835
vt 0.860485 0.914941
vt 0.860485 0.963053
vt 0.402104 0.998410
vt 0.402104 0.989943
vt 0.382591 0.998410
vt 0.382591 0.989943
vt 0.879998 0.915073
vt 0.879998 0.962921
vt 0.926695 0.382251
vt 0.974807 0.382251
vt 0.974675 0.401764
vt 0.926827 0.401764
vt 0.233397 0.989943
vt 0.233397 0.998410
vt 0.213884 0.998410
vt 0.213884 0.989943
vt 0.974675 0.452437
vt 0.926827 0.452437
vt 0.284070 0.989943
vt 0.284070 0.998410
vt 0.331918 0.989943
vt 0.331918 0.998410
vt 0.930671 0.915073
vt 0.930671 0.962921
vt 0.377911 0.425448
vt 0.389644 0.425448
vt 0.389644 0.699658
vt 0.377911 0.699658
vt 0.916328 0.326194
vt 0.916328 0.337927
vt 0.863350 0.337927
vt 0.863350 0.326194
vt 0.324933 0.699658
vt 0.324933 0.425448
vt 0.013288 0.681070
vt 0.001555 0.681070
vt 0.001555 0.628092
vt 0.013288 0.628092
vt 0.313200 0.699658
vt 0.313200 0.425448
vt 0.260222 0.699658
vt 0.260222 0.425448
vt 0.950968 0.462664
vt 0.962701 0.462664
vt 0.962701 0.736874
vt 0.950968 0.736874
vt 0.466508 0.148363
vt 0.466508 0.160096
vt 0.450954 0.160096
vt 0.450954 0.148363
vt 0.935414 0.736874
vt 0.935414 0.462664
vt 0.450790 0.228337
vt 0.450790 0.216604
vt 0.466344 0.216604
vt 0.466344 0.228337
vt 0.923681 0.736874
vt 0.923681 0.462664
vt 0.978255 0.462664
vt 0.978256 0.736874
vt 0.447246 0.400636
vt 0.458719 0.400636
vt 0.458719 0.414373
vt 0.447246 0.414373
vt 0.702071 0.890693
vt 0.702071 0.902166
vt 0.401406 0.902166
vt 0.401406 0.890694
vt 0.401406 0.941114
vt 0.401406 0.927377
vt 0.702071 0.927376
vt 0.702071 0.941114
vt 0.401406 0.915904
vt 0.702071 0.915904
vt 0.998454 0.263425
vt 0.986982 0.263425
vt 0.986982 0.249687
vt 0.998454 0.249687
vt 0.471505 0.673575
vt 0.471505 0.687313
vt 0.460033 0.687313
vt 0.460033 0.673575
vt 0.001549 0.923774
vt 0.302216 0.923774
vt 0.302216 0.935247
vt 0.001549 0.935246
vt 0.302216 0.974194
vt 0.001549 0.974195
vt 0.001549 0.960457
vt 0.302216 0.960456
vt 0.001549 0.948984
vt 0.302216 0.948984
vt 0.909061 0.312854
vt 0.895324 0.312854
vt 0.895324 0.301381
vt 0.909061 0.301381
vt 0.915342 0.794365
vt 0.600355 0.794358
vt 0.604801 0.733920
vt 0.910818 0.734897
vt 0.915368 0.803381
vt 0.600328 0.803381
vt 0.920385 0.735745
vt 0.924359 0.794360
vt 0.898092 0.725769
vt 0.904515 0.718527
vt 0.917191 0.727712
vt 0.617782 0.724866
vt 0.598524 0.726644
vt 0.611459 0.717533
vt 0.591332 0.794377
vt 0.595233 0.734811
vt 0.712117 0.866561
vt 0.699391 0.875675
vt 0.418894 0.876556
vt 0.405911 0.867513
vt 0.716573 0.807980
vt 0.401534 0.807980
vt 0.699323 0.885355
vt 0.419013 0.886239
vt 0.906392 0.671247
vt 0.906420 0.680044
vt 0.859817 0.681409
vt 0.860275 0.673631
vt 0.864287 0.358987
vt 0.914260 0.363998
vt 0.923060 0.364198
vt 0.915186 0.671498
vt 0.806001 0.669984
vt 0.806001 0.362582
vt 0.856434 0.358825
vt 0.852485 0.673581
vt 0.864301 0.351133
vt 0.914709 0.355207
vt 0.468286 0.009544
vt 0.476263 0.009994
vt 0.480951 0.067748
vt 0.471904 0.069112
vt 0.140726 0.069236
vt 0.145794 0.009606
vt 0.145728 0.001554
vt 0.468334 0.001554
vt 0.468381 0.136103
vt 0.145776 0.136382
vt 0.140800 0.078282
vt 0.471842 0.078263
vt 0.137744 0.009772
vt 0.131797 0.067781
vt 0.618365 0.369638
vt 0.617267 0.360753
vt 0.668304 0.359331
vt 0.666858 0.366560
vt 0.665790 0.697949
vt 0.618264 0.693786
vt 0.609412 0.693715
vt 0.609412 0.369700
vt 0.725163 0.370035
vt 0.723142 0.694044
vt 0.673191 0.698104
vt 0.674230 0.366487
vt 0.617045 0.702554
vt 0.667089 0.705236
vt 0.143601 0.436678
vt 0.144665 0.429418
vt 0.197298 0.425596
vt 0.195099 0.434698
vt 0.190669 0.772549
vt 0.134558 0.766288
vt 0.127191 0.766217
vt 0.136269 0.436381
vt 0.257122 0.438160
vt 0.257122 0.768121
vt 0.199823 0.772942
vt 0.204465 0.434690
vt 0.135197 0.773629
vt 0.192144 0.781592
vt 0.724852 0.843237
vt 0.920384 0.843237
vt 0.920326 0.852130
vt 0.724910 0.852130
vt 0.929061 0.853797
vt 0.928440 0.889050
vt 0.920192 0.888239
vt 0.725044 0.888239
vt 0.716797 0.889050
vt 0.716175 0.853797
vt 0.725028 0.807979
vt 0.920208 0.807979
vt 0.920208 0.896526
vt 0.725028 0.896526
vt 0.946464 0.001554
vt 0.958197 0.001554
vt 0.958198 0.215723
vt 0.946465 0.215723
vt 0.464216 0.181448
vt 0.464292 0.193181
vt 0.450714 0.193181
vt 0.450638 0.181448
vt 0.932886 0.215723
vt 0.932886 0.001554
vt 0.462354 0.263344
vt 0.450621 0.263268
vt 0.450621 0.249690
vt 0.462354 0.249766
vt 0.983509 0.215723
vt 0.971776 0.215723
vt 0.971776 0.001554
vt 0.983509 0.001554
s 1
usemtl Diffuse_Chair
f 308/475/163 309/476/164 306/477/165 305/478/166
f 305/479/166 306/480/165 312/481/167 307/482/168
f 307/483/168 310/484/169 308/485/163 305/486/166
f 310/487/169 311/488/170 309/489/164 308/490/163
f 307/483/168 312/491/167 311/492/170 310/484/169
f 311/492/170 312/491/167 306/477/165 309/476/164
f 321/493/171 330/494/172 325/495/173 318/496/174
f 313/497/175 314/498/176 322/499/177 317/500/178
f 330/501/172 329/502/179 331/503/180 332/504/181
f 316/505/182 315/506/183 326/507/184 329/508/179
f 316/509/182 314/510/176 313/511/175 315/512/183
f 317/500/178 322/499/177 324/513/185 319/514/186
f 319/514/186 324/513/185 323/515/187 320/516/188
f 320/516/188 323/515/187 321/493/171 318/496/174
f 325/495/173 330/494/172 332/517/181 327/518/189
f 327/518/189 332/517/181 331/519/180 328/520/190
f 328/520/190 331/519/180 329/508/179 326/507/184
f 326/521/184 325/522/173 327/523/189 328/524/190
f 319/525/186 320/526/188 318/527/174 317/528/178
f 313/511/175 317/528/178 326/521/184 315/512/183
f 317/528/178 318/527/174 325/522/173 326/521/184
f 322/529/177 329/502/179 330/501/172 321/530/171
f 314/531/176 316/532/182 329/502/179 322/529/177
f 324/533/185 322/529/177 321/530/171 323/534/187
f 333/535/191 334/536/192 337/537/193
f 335/538/194 348/539/195 334/536/192 333/535/191
f 335/540/194 333/541/191 336/542/196 354/543/197
f 336/544/196 333/535/191 337/537/193
f 337/537/193 338/545/198 342/546/199
f 343/547/200 338/545/198 337/537/193
f 339/548/201 337/537/193 341/549/202
f 340/550/203 337/537/193 339/548/201
f 340/550/203 336/544/196 337/537/193
f 341/549/202 337/537/193 342/546/199
f 334/536/192 343/547/200 337/537/193
f 345/551/204 343/552/200 344/553/205 347/554/206
f 334/536/192 357/555/207 344/556/205 343/547/200
f 346/557/208 338/558/198 343/552/200 345/551/204
f 345/551/204 349/559/209 346/557/208
f 355/560/210 348/539/195 345/551/204 347/554/206
f 345/551/204 348/539/195 349/559/209
f 349/559/209 350/561/211 346/557/208
f 348/539/195 335/538/194 349/559/209
f 335/538/194 354/562/197 349/559/209
f 349/559/209 351/563/212 350/561/211
f 349/559/209 352/564/213 351/563/212
f 349/559/209 353/565/214 352/564/213
f 354/562/197 353/565/214 349/559/209
f 354/543/197 336/542/196 340/566/203 353/567/214
f 353/567/214 340/566/203 339/568/201 352/569/213
f 352/569/213 339/568/201 341/570/202 351/571/212
f 351/571/212 341/570/202 342/572/199 350/573/211
f 350/573/211 342/572/199 338/574/198 346/575/208
f 348/539/195 355/560/210 357/555/207 334/536/192
f 355/560/210 356/576/215 358/577/216 357/555/207
f 356/576/215 355/560/210 347/554/206 362/578/217
f 357/555/207 358/577/216 360/579/218 344/556/205
f 356/576/215 365/580/219 359/581/220 358/577/216
f 358/577/216 359/581/220 361/582/221 360/579/218
f 347/554/206 344/553/205 360/583/218 362/578/217
f 362/578/217 360/583/218 361/584/221 363/585/222
f 365/580/219 356/576/215 362/578/217 363/585/222
f 363/585/222 361/584/221 369/586/223 364/587/224
f 366/588/225 365/580/219 363/585/222 364/587/224
f 359/581/220 365/580/219 366/588/225 368/589/226
f 368/589/226 366/588/225 367/590/227 370/591/228
f 367/590/227 366/588/225 364/587/224 379/592/229
f 359/581/220 368/589/226 369/593/223 361/582/221
f 368/589/226 370/591/228 371/594/230 369/593/223
f 370/591/228 372/595/231 375/596/232 371/594/230
f 370/591/228 367/590/227 374/597/233 372/595/231
f 375/598/232 372/599/231 373/600/234 376/601/235
f 372/599/231 374/602/233 380/603/236 373/600/234
f 376/601/235 378/604/237 377/605/238 375/598/232
f 379/592/229 371/606/230 375/607/232 377/608/238
f 374/602/233 377/605/238 378/604/237 380/603/236
f 374/597/233 367/590/227 379/592/229 377/608/238
f 364/587/224 369/586/223 371/606/230 379/592/229
f 373/609/234 380/610/236 378/611/237 376/612/235
f 381/613/239 382/614/240 385/615/209
f 381/613/239 384/616/241 396/617/242 382/614/240
f 381/613/239 385/615/209 383/618/243
f 381/619/239 383/620/243 402/621/244 384/622/241
f 391/623/245 386/624/246 385/615/209
f 385/615/209 386/624/246 390/625/247
f 383/618/243 385/615/209 387/626/248
f 387/626/248 385/615/209 388/627/249
f 388/627/249 385/615/209 389/628/250
f 389/628/250 385/615/209 390/625/247
f 382/614/240 391/623/245 385/615/209
f 386/624/246 391/623/245 393/629/251 395/630/252
f 405/631/253 392/632/254 391/623/245 382/614/240
f 391/623/245 392/632/254 394/633/255 393/629/251
f 396/617/242 393/634/251 394/635/255 403/636/256
f 393/634/251 397/637/193 395/638/252
f 393/634/251 396/617/242 397/637/193
f 397/637/193 398/639/257 395/638/252
f 396/617/242 384/616/241 397/637/193
f 384/616/241 402/640/244 397/637/193
f 397/637/193 399/641/258 398/639/257
f 397/637/193 400/642/259 399/641/258
f 397/637/193 401/643/260 400/642/259
f 402/640/244 401/643/260 397/637/193
f 383/620/243 387/644/248 401/645/260 402/621/244
f 387/644/248 388/646/249 400/647/259 401/645/260
f 388/646/249 389/648/250 399/649/258 400/647/259
f 389/648/250 390/650/247 398/651/257 399/649/258
f 390/650/247 386/652/246 395/653/252 398/651/257
f 382/614/240 396/617/242 403/636/256 405/631/253
f 405/631/253 403/636/256 404/654/261 406/655/262
f 403/636/256 394/635/255 410/656/263 404/654/261
f 406/655/262 408/657/264 392/632/254 405/631/253
f 406/655/262 404/654/261 412/658/265 407/659/266
f 407/659/266 409/660/267 408/657/264 406/655/262
f 408/657/264 409/660/267 411/661/268 410/662/263
f 392/632/254 408/657/264 410/662/263 394/633/255
f 404/654/261 410/656/263 411/663/268 412/658/265
f 412/658/265 411/663/268 413/664/269 414/665/270
f 409/660/267 415/666/271 413/667/269 411/661/268
f 414/665/270 413/664/269 416/668/272 417/669/273
f 415/666/271 418/670/274 416/671/272 413/667/269
f 417/669/273 416/668/272 419/672/275 422/673/276
f 418/670/274 421/674/277 419/675/275 416/671/272
f 420/676/278 423/677/279 422/678/276 419/679/275
f 419/679/275 421/680/277 428/681/280 420/676/278
f 423/677/279 425/682/281 424/683/282 422/678/276
f 417/669/273 422/673/276 424/684/282 426/685/283
f 425/682/281 428/681/280 421/680/277 424/683/282
f 424/684/282 421/674/277 418/670/274 426/685/283
f 414/665/270 417/669/273 426/685/283 427/686/284
f 426/685/283 418/670/274 415/666/271 427/686/284
f 412/658/265 414/665/270 427/686/284 407/659/266
f 427/686/284 415/666/271 409/660/267 407/659/266
f 423/687/279 420/688/278 428/689/280 425/690/281
f 429/691/285 430/692/286 435/693/287 432/694/288
f 429/695/285 431/696/289 438/697/290 430/698/286
f 432/699/288 434/700/291 431/701/289 429/702/285
f 432/694/288 435/693/287 436/703/287 433/704/288
f 433/705/288 441/706/292 434/700/291 432/699/288
f 430/692/286 438/707/290 437/708/293 435/693/287
f 435/693/287 437/708/293 439/709/294 436/703/287
f 431/701/289 434/700/291 437/708/293 438/707/290
f 434/700/291 441/706/292 439/709/294 437/708/293
f 441/706/292 442/710/295 440/711/296 439/709/294
f 436/703/287 439/709/294 440/711/296 451/712/297
f 443/713/298 442/710/295 441/706/292 433/705/288
f 447/714/299 444/715/300 442/710/295 443/713/298
f 442/710/295 444/715/300 446/716/301 440/711/296
f 444/717/300 447/718/299 448/719/302 445/720/303
f 445/720/303 452/721/304 446/722/301 444/717/300
f 447/718/299 449/723/305 450/724/306 448/719/302
f 443/725/298 451/712/297 449/726/305 447/727/299
f 449/723/305 446/722/301 452/721/304 450/724/306
f 451/712/297 440/711/296 446/716/301 449/726/305
f 433/704/288 436/703/287 451/712/297 443/725/298
f 450/728/306 452/729/304 445/730/303 448/731/302
f 453/732/307 456/733/308 459/734/309 454/735/310
f 453/736/307 454/737/310 462/738/311 455/739/312
f 456/740/308 453/741/307 455/742/312 458/743/313
f 456/733/308 457/744/314 460/745/309 459/734/309
f 457/746/314 456/740/308 458/743/313 465/747/315
f 454/735/310 459/734/309 461/748/316 462/749/311
f 459/734/309 460/745/309 463/750/317 461/748/316
f 455/742/312 462/749/311 461/748/316 458/743/313
f 458/743/313 461/748/316 463/750/317 465/747/315
f 465/747/315 463/750/317 464/751/318 466/752/319
f 460/745/309 475/753/320 464/751/318 463/750/317
f 467/754/321 457/746/314 465/747/315 466/752/319
f 471/755/322 467/754/321 466/752/319 468/756/323
f 466/752/319 464/751/318 470/757/324 468/756/323
f 469/758/325 472/759/326 471/760/322 468/761/323
f 468/761/323 470/762/324 476/763/327 469/758/325
f 472/759/326 474/764/328 473/765/329 471/760/322
f 467/766/321 471/767/322 473/768/329 475/753/320
f 474/764/328 476/763/327 470/762/324 473/765/329
f 475/753/320 473/768/329 470/757/324 464/751/318
f 457/744/314 467/766/321 475/753/320 460/745/309
f 474/769/328 472/770/326 469/771/325 476/772/327
f 480/773/330 481/774/331 478/775/332 477/776/333
f 477/777/333 478/778/332 484/779/334 479/780/335
f 479/780/335 482/781/336 480/782/330 477/777/333
f 482/783/336 483/784/337 481/785/331 480/786/330
f 479/787/335 484/788/334 483/789/337 482/790/336
f 483/784/337 484/779/334 478/778/332 481/785/331
f 488/791/338 485/792/339 486/793/340 489/794/341
f 485/795/339 487/796/342 492/797/343 486/798/340
f 487/796/342 485/795/339 488/799/338 490/800/344
f 490/801/344 488/802/338 489/803/341 491/804/345
f 487/805/342 490/806/344 491/807/345 492/808/343
f 491/804/345 489/803/341 486/798/340 492/797/343
f 496/809/346 497/810/347 494/811/348 493/812/349
f 493/813/349 494/814/348 500/815/350 495/816/351
f 495/817/351 498/818/352 496/809/346 493/812/349
f 498/819/352 499/820/353 497/821/347 496/822/346
f 495/817/351 500/823/350 499/824/353 498/818/352
f 499/825/353 500/826/350 494/811/348 497/810/347
f 504/827/354 506/828/355 502/829/356 501/830/357
f 501/830/357 502/829/356 517/831/358 503/832/359
f 503/833/359 505/834/360 504/835/354 501/836/357
f 505/834/360 511/837/360 508/838/361 504/835/354
f 506/828/355 504/827/354 507/839/362 521/840/363
f 504/835/354 508/838/361 510/841/364 507/842/362
f 512/843/360 509/844/361 508/838/361 511/837/360
f 509/844/361 523/845/365 510/841/364 508/838/361
f 514/846/366 512/843/360 511/837/360 513/847/366
f 505/834/360 516/848/366 513/847/366 511/837/360
f 513/847/366 515/849/367 518/850/367 514/846/366
f 513/847/366 516/848/366 506/851/355 515/849/367
f 503/833/359 517/852/358 516/848/366 505/834/360
f 516/848/366 517/852/358 502/853/356 506/851/355
f 515/849/367 519/854/368 520/855/369 518/850/367
f 515/849/367 506/851/355 521/856/363 519/854/368
f 519/857/368 510/858/364 523/859/365 520/860/369
f 510/858/364 519/857/368 521/840/363 507/839/362
f 518/850/367 520/855/369 522/861/370 534/862/367
f 520/860/369 523/859/365 524/863/371 522/864/370
f 525/865/361 524/866/371 523/845/365 509/844/361
f 525/865/361 528/867/372 526/868/373 524/866/371
f 526/869/373 527/870/374 522/864/370 524/863/371
f 528/871/372 531/872/375 527/870/374 526/869/373
f 529/873/376 532/874/377 531/872/375 528/871/372
f 530/875/360 538/876/378 529/877/376 528/867/372
f 536/878/360 530/875/360 528/867/372 525/865/361
f 537/879/379 533/880/366 531/881/375 532/882/377
f 533/880/366 535/883/366 534/862/367 531/881/375
f 531/881/375 534/862/367 522/861/370 527/884/374
f 514/846/366 518/850/367 534/862/367 535/883/366
f 535/883/366 536/878/360 512/843/360 514/846/366
f 536/878/360 535/883/366 533/880/366 530/875/360
f 536/878/360 525/865/361 509/844/361 512/843/360
f 530/875/360 533/880/366 537/879/379 538/876/378
f 538/885/378 537/886/379 532/874/377 529/873/376
f 542/887/380 539/888/381 540/889/382 543/890/383
f 539/891/381 541/892/384 546/893/385 540/894/382
f 541/892/384 539/891/381 542/895/380 544/896/386
f 544/897/386 542/898/380 543/899/383 545/900/387
f 541/901/384 544/902/386 545/903/387 546/904/385
f 545/900/387 543/899/383 540/894/382 546/893/385
f 550/905/381 551/906/382 548/907/383 547/908/380
f 547/909/380 548/910/383 554/911/387 549/912/386
f 549/912/386 552/913/384 550/914/381 547/909/380
f 552/915/384 553/916/385 551/917/382 550/918/381
f 549/919/386 554/920/387 553/921/385 552/922/384
f 553/916/385 554/911/387 548/910/383 551/917/382
f 555/923/388 556/924/389 560/925/390 558/926/391
f 555/927/388 557/928/392 565/929/393 556/930/389
f 558/931/391 561/932/394 557/928/392 555/927/388
f 559/933/395 562/934/396 561/932/394 558/931/391
f 566/935/397 559/936/395 558/926/391 560/925/390
f 563/937/398 561/938/394 562/939/396 564/940/399
f 557/941/392 561/938/394 563/937/398 565/942/393
f 560/943/390 563/944/398 564/945/399 566/946/397
f 556/947/389 565/948/393 563/944/398 560/943/390
f 562/939/396 568/949/400 567/950/401 564/940/399
f 566/946/397 564/945/399 567/951/401 569/952/402
f 568/949/400 572/953/403 570/954/404 567/950/401
f 569/952/402 567/951/401 570/955/404 573/956/405
f 573/956/405 570/955/404 571/957/406 574/958/407
f 570/954/404 572/953/403 578/959/408 571/960/406
f 574/961/407 576/962/409 575/963/410 573/964/405
f 577/965/411 569/966/402 573/964/405 575/963/410
f 576/967/409 578/968/408 572/969/403 575/970/410
f 575/970/410 572/969/403 568/971/400 577/972/411
f 559/936/395 566/935/397 569/966/402 577/965/411
f 577/972/411 568/971/400 562/934/396 559/933/395
f 576/962/409 574/961/407 581/973/412 579/974/413
f 579/975/413 582/976/414 578/968/408 576/967/409
f 580/977/415 584/978/416 582/976/414 579/975/413
f 593/979/417 580/980/415 579/974/413 581/973/412
f 583/981/418 582/982/414 584/983/416 585/984/419
f 578/959/408 582/982/414 583/981/418 571/960/406
f 584/983/416 586/985/420 589/986/421 585/984/419
f 588/987/422 586/988/420 584/978/416 580/977/415
f 589/986/421 586/985/420 587/989/423 590/990/424
f 594/991/425 587/992/423 586/988/420 588/987/422
f 591/993/426 589/994/421 590/995/424 592/996/427
f 593/997/417 585/998/419 589/994/421 591/993/426
f 592/999/427 594/1000/425 588/1001/422 591/1002/426
f 580/980/415 593/979/417 591/1002/426 588/1001/422
f 581/1003/412 583/1004/418 585/998/419 593/997/417
f 594/1000/425 592/999/427 595/1005/428 597/1006/429
f 592/996/427 590/995/424 598/1007/430 595/1008/428
f 599/1009/431 596/1010/432 595/1008/428 598/1007/430
f 596/1011/432 602/1012/433 597/1006/429 595/1005/428
f 598/1013/430 600/1014/434 601/1015/435 599/1016/431
f 587/989/423 600/1014/434 598/1013/430 590/990/424
f 600/1017/434 597/1018/429 602/1019/433 601/1020/435
f 597/1018/429 600/1017/434 587/992/423 594/991/425
f 601/1015/435 603/1021/436 606/1022/437 599/1016/431
f 605/1023/438 603/1024/436 601/1020/435 602/1019/433
f 606/1022/437 603/1021/436 604/1025/439 607/1026/440
f 610/1027/441 604/1028/439 603/1024/436 605/1023/438
f 608/1029/442 606/1030/437 607/1031/440 609/1032/443
f 596/1010/432 599/1009/431 606/1030/437 608/1029/442
f 609/1033/443 610/1034/441 605/1035/438 608/1036/442
f 602/1012/433 596/1011/432 608/1036/442 605/1035/438
f 610/1034/441 609/1033/443 611/1037/444 613/1038/445
f 609/1032/443 607/1031/440 614/1039/446 611/1040/444
f 611/1040/444 614/1039/446 615/1041/447 612/1042/448
f 612/1043/448 618/1044/449 613/1038/445 611/1037/444
f 614/1045/446 616/1046/450 617/1047/451 615/1048/447
f 604/1025/439 616/1046/450 614/1045/446 607/1026/440
f 618/1049/449 617/1050/451 616/1051/450 613/1052/445
f 613/1052/445 616/1051/450 604/1028/439 610/1027/441
f 617/1047/451 619/1053/452 621/1054/453 615/1048/447
f 620/1055/454 619/1056/452 617/1050/451 618/1049/449
f 622/1057/455 621/1058/453 619/1056/452 620/1055/454
f 612/1042/448 615/1041/447 621/1058/453 622/1057/455
f 618/1044/449 612/1043/448 622/1059/455 620/1060/454
f 574/958/407 571/957/406 583/1004/418 581/1003/412
f 626/1061/456 627/1062/457 624/1063/458 623/1064/459
f 623/1065/459 624/1066/458 630/1067/460 625/1068/461
f 625/1069/461 628/1070/462 626/1061/456 623/1064/459
f 628/1071/462 629/1072/463 627/1073/457 626/1074/456
f 625/1069/461 630/1075/460 629/1076/463 628/1070/462
f 629/1076/463 630/1075/460 624/1077/458 627/1078/457
f 634/1079/456 635/1080/457 632/1081/458 631/1082/459
f 631/1083/459 632/1084/458 638/1085/460 633/1086/461
f 633/1087/461 636/1088/462 634/1079/456 631/1082/459
f 636/1089/462 637/1090/463 635/1091/457 634/1092/456
f 633/1087/461 638/1093/460 637/1094/463 636/1088/462
f 637/1095/463 638/1096/460 632/1081/458 635/1080/457
f 642/1097/464 643/1098/465 640/1099/466 639/1100/467
f 639/1101/467 640/1102/466 646/1103/468 641/1104/469
f 641/1105/469 644/1106/470 642/1107/464 639/1108/467
f 644/1106/470 645/1109/471 643/1110/465 642/1107/464
f 641/1111/469 646/1112/468 645/1113/471 644/1114/470
f 645/1109/471 646/1103/468 640/1102/466 643/1110/465
f 650/1115/472 647/1116/473 648/1117/474 651/1118/475
f 647/1119/473 649/1120/476 654/1121/477 648/1122/474
f 649/1123/476 647/1124/473 650/1125/472 652/1126/478
f 652/1126/478 650/1125/472 651/1127/475 653/1128/479
f 649/1129/476 652/1130/478 653/1131/479 654/1132/477
f 653/1128/479 651/1127/475 648/1122/474 654/1121/477
f 655/1133/480 656/1134/481 661/1135/482 658/1136/483
f 656/1134/481 655/1133/480 657/1137/484 665/1138/485
f 658/1136/483 660/1139/486 657/1140/484 655/1133/480
f 659/1141/487 666/1142/488 660/1143/486 658/1136/483
f 658/1136/483 661/1135/482 662/1144/489 659/1141/487
f 661/1135/482 663/1145/490 664/1146/491 662/1144/489
f 661/1135/482 656/1134/481 665/1147/485 663/1148/490
f 660/1149/486 666/1150/488 664/1151/491 663/1152/490
f 657/1153/484 660/1149/486 663/1152/490 665/1154/485
f 666/1150/488 659/1155/487 662/1156/489 664/1151/491
f 667/1157/492 670/1158/493 671/1159/494 668/1160/495
f 668/1160/495 674/1161/496 669/1162/497 667/1157/492
f 669/1162/497 672/1163/498 670/1164/493 667/1157/492
f 670/1165/493 672/1166/498 673/1167/499 671/1168/494
f 669/1162/497 674/1161/496 673/1169/499 672/1170/498
f 674/1161/496 668/1160/495 671/1168/494 673/1167/499
f 675/1171/500 678/1172/501 679/1173/502 676/1174/503
f 676/1174/503 682/1175/504 677/1176/505 675/1171/500
f 677/1176/505 680/1177/506 678/1178/501 675/1171/500
f 678/1179/501 680/1180/506 681/1181/507 679/1182/502
f 680/1183/506 677/1176/505 682/1175/504 681/1184/507
f 681/1181/507 682/1175/504 676/1174/503 679/1182/502
f 683/1185/508 686/1186/509 687/1187/510 684/1188/511
f 684/1188/511 690/1189/512 685/1190/513 683/1185/508
f 688/1191/514 686/1192/509 683/1185/508 685/1190/513
f 686/1193/509 688/1194/514 689/1195/515 687/1196/510
f 688/1197/514 685/1190/513 690/1189/512 689/1198/515
f 689/1195/515 690/1189/512 684/1188/511 687/1196/510
f 691/1199/516 694/1200/517 695/1201/518 692/1202/519
f 692/1202/519 698/1203/520 693/1204/521 691/1199/516
f 696/1205/522 694/1206/517 691/1199/516 693/1204/521
f 694/1207/517 696/1208/522 697/1209/523 695/1210/518
f 696/1211/522 693/1204/521 698/1203/520 697/1212/523
f 697/1209/523 698/1203/520 692/1202/519 695/1210/518
f 704/1213/524 700/1214/525 699/1215/526 702/1216/527
f 699/1215/526 700/1217/525 706/1218/528 701/1219/529
f 702/1216/527 699/1215/526 701/1219/529 703/1220/530
f 702/1216/527 703/1220/530 705/1221/531 704/1222/524
f 705/1223/531 706/1224/528 700/1214/525 704/1213/524
f 703/1220/530 701/1219/529 706/1225/528 705/1226/531
f 710/1227/532 711/1228/533 708/1229/534 707/1230/535
f 707/1231/535 708/1232/534 714/1233/536 709/1234/537
f 709/1235/537 712/1236/538 710/1227/532 707/1230/535
f 712/1237/538 713/1238/539 711/1239/533 710/1240/532
f 709/1241/537 714/1242/536 713/1243/539 712/1244/538
f 713/1243/539 714/1242/536 708/1229/534 711/1228/533
