# Blender 3.6.23
# www.blender.org
mtllib scene_0006_glass.mtl
o glass_partition_01
v 57.140362 -629.078552 0.044579
v 57.484093 -629.901245 40.034641
v 57.911240 -630.923523 0.000000
v 58.254971 -631.746155 39.990063
v 11.005680 -648.355286 0.044579
v 11.349411 -649.177917 40.034641
v 11.776558 -650.200195 0.000000
v 12.120289 -651.022888 39.990063
vn 0.9227 0.3855 -0.0000
vn 0.3854 -0.9225 -0.0223
vn -0.9227 -0.3855 -0.0000
vn -0.3854 0.9225 0.0223
vn -0.0086 0.0206 -0.9998
vn 0.0086 -0.0206 0.9998
vt 0.375000 0.000000
vt 0.625000 0.000000
vt 0.625000 0.250000
vt 0.375000 0.250000
vt 0.625000 0.500000
vt 0.375000 0.500000
vt 0.625000 0.750000
vt 0.375000 0.750000
vt 0.625000 1.000000
vt 0.375000 1.000000
vt 0.125000 0.500000
vt 0.125000 0.750000
vt 0.875000 0.500000
vt 0.875000 0.750000
s 0
usemtl Glass_Clear
f 1/1/1 2/2/1 4/3/1 3/4/1
f 3/4/2 4/3/2 8/5/2 7/6/2
f 7/6/3 8/5/3 6/7/3 5/8/3
f 5/8/4 6/7/4 2/9/4 1/10/4
f 3/11/5 7/6/5 5/8/5 1/12/5
f 8/5/6 4/13/6 2/14/6 6/7/6
o glass_table_02
v 100.895615 -563.307739 0.125381
v 100.702332 -568.319153 79.968025
v 100.818680 -565.302307 0.000000
v 100.625412 -570.313721 79.842644
v 20.955036 -560.224731 0.125381
v 20.761761 -565.236145 79.968025
v 20.878109 -562.219299 0.000000
v 20.684834 -567.230713 79.842644
vn 0.9993 -0.0385 -0.0000
vn -0.0385 -0.9973 -0.0627
vn -0.9993 0.0385 -0.0000
vn 0.0385 0.9973 0.0627
vn 0.0024 0.0626 -0.9980
vn -0.0024 -0.0626 0.9980
vt 0.375000 0.000000
vt 0.625000 0.000000
vt 0.625000 0.250000
vt 0.375000 0.250000
vt 0.625000 0.500000
vt 0.375000 0.500000
vt 0.625000 0.750000
vt 0.375000 0.750000
vt 0.625000 1.000000
vt 0.375000 1.000000
vt 0.125000 0.500000
vt 0.125000 0.750000
vt 0.875000 0.500000
vt 0.875000 0.750000
s 0
usemtl Glass_Clear
f 9/15/7 10/16/7 12/17/7 11/18/7
f 11/18/8 12/17/8 16/19/8 15/20/8
f 15/20/9 16/19/9 14/21/9 13/22/9
f 13/22/10 14/21/10 10/23/10 9/24/10
f 11/25/11 15/20/11 13/22/11 9/26/11
f 16/19/12 12/27/12 10/28/12 14/21/12
