# Blender 3.6.23
# www.blender.org
mtllib scene_0004_glass.mtl
o glass_partition_01
v -35.584270 -664.883911 0.000000
v -34.970207 -662.314819 39.912689
v -36.048203 -666.824829 0.132072
v -35.434139 -664.255798 40.044762
v -84.214401 -653.260193 0.000000
v -83.600342 -650.691162 39.912689
v -84.678337 -655.201172 0.132072
v -84.064270 -652.632080 40.044762
vn 0.9726 -0.2325 -0.0000
vn -0.2320 -0.9705 0.0660
vn -0.9726 0.2325 -0.0000
vn 0.2320 0.9705 -0.0660
vn -0.0154 -0.0642 -0.9978
vn 0.0154 0.0642 0.9978
vt 0.375000 0.000000
vt 0.625000 0.000000
vt 0.625000 0.250000
vt 0.375000 0.250000
vt 0.625000 0.500000
vt 0.375000 0.500000
vt 0.625000 0.750000
vt 0.375000 0.750000
vt 0.625000 1.000000
vt 0.375000 1.000000
vt 0.125000 0.500000
vt 0.125000 0.750000
vt 0.875000 0.500000
vt 0.875000 0.750000
s 0
usemtl Glass_Clear
f 1/1/1 2/2/1 4/3/1 3/4/1
f 3/4/2 4/3/2 8/5/2 7/6/2
f 7/6/3 8/5/3 6/7/3 5/8/3
f 5/8/4 6/7/4 2/9/4 1/10/4
f 3/11/5 7/6/5 5/8/5 1/12/5
f 8/5/6 4/13/6 2/14/6 6/7/6
o glass_door_02
v -29.680859 -604.619507 0.070251
v -29.934689 -609.882690 149.977676
v -29.777142 -606.615967 0.000000
v -30.030972 -611.879089 149.907425
v -119.576370 -600.284119 0.070251
v -119.830200 -605.547241 149.977676
v -119.672653 -602.280518 0.000000
v -119.926483 -607.543701 149.907425
vn 0.9988 -0.0482 -0.0000
vn -0.0481 -0.9982 -0.0351
vn -0.9988 0.0482 -0.0000
vn 0.0481 0.9982 0.0351
vn 0.0017 0.0351 -0.9994
vn -0.0017 -0.0351 0.9994
vt 0.375000 0.000000
vt 0.625000 0.000000
vt 0.625000 0.250000
vt 0.375000 0.250000
vt 0.625000 0.500000
vt 0.375000 0.500000
vt 0.625000 0.750000
vt 0.375000 0.750000
vt 0.625000 1.000000
vt 0.375000 1.000000
vt 0.125000 0.500000
vt 0.125000 0.750000
vt 0.875000 0.500000
vt 0.875000 0.750000
s 0
usemtl Glass_Clear
f 9/15/7 10/16/7 12/17/7 11/18/7
f 11/18/8 12/17/8 16/19/8 15/20/8
f 15/20/9 16/19/9 14/21/9 13/22/9
f 13/22/10 14/21/10 10/23/10 9/24/10
f 11/25/11 15/20/11 13/22/11 9/26/11
f 16/19/12 12/27/12 10/28/12 14/21/12
o glass_partition_03
v 29.145388 -620.656006 0.000000
v 28.920904 -617.491150 39.873970
v 29.286448 -622.644653 0.158638
v 29.061964 -619.479858 40.032608
v -20.729307 -624.193604 0.000000
v -20.953791 -621.028809 39.873970
v -20.588247 -626.182312 0.158638
v -20.812731 -623.017456 40.032608
vn 0.9975 0.0708 -0.0000
vn 0.0705 -0.9944 0.0793
vn -0.9975 -0.0708 -0.0000
vn -0.0705 0.9944 -0.0793
vn 0.0056 -0.0791 -0.9968
vn -0.0056 0.0791 0.9968
vt 0.375000 0.000000
vt 0.625000 0.000000
vt 0.625000 0.250000
vt 0.375000 0.250000
vt 0.625000 0.500000
vt 0.375000 0.500000
vt 0.625000 0.750000
vt 0.375000 0.750000
vt 0.625000 1.000000
vt 0.375000 1.000000
vt 0.125000 0.500000
vt 0.125000 0.750000
vt 0.875000 0.500000
vt 0.875000 0.750000
s 0
usemtl Glass_Clear
f 17/29/13 18/30/13 20/31/13 19/32/13
f 19/32/14 20/31/14 24/33/14 23/34/14
f 23/34/15 24/33/15 22/35/15 21/36/15
f 21/36/16 22/35/16 18/37/16 17/38/16
f 19/39/17 23/34/17 21/36/17 17/40/17
f 24/33/18 20/41/18 18/42/18 22/35/18
