# Blender 3.6.23
# www.blender.org
mtllib scene_0007_glass.mtl
o glass_table_01
v 39.965427 -695.959412 0.000000
v 41.532566 -689.781555 79.745705
v 39.475224 -697.891846 0.159340
v 41.042362 -691.713989 79.905045
v -37.578548 -676.288818 0.000000
v -36.011410 -670.110962 79.745705
v -38.068752 -678.221252 0.159340
v -36.501614 -672.043396 79.905045
vn 0.9693 -0.2459 -0.0000
vn -0.2451 -0.9662 0.0797
vn -0.9693 0.2459 -0.0000
vn 0.2451 0.9662 -0.0797
vn -0.0196 -0.0772 -0.9968
vn 0.0196 0.0772 0.9968
vt 0.375000 0.000000
vt 0.625000 0.000000
vt 0.625000 0.250000
vt 0.375000 0.250000
vt 0.625000 0.500000
vt 0.375000 0.500000
vt 0.625000 0.750000
vt 0.375000 0.750000
vt 0.625000 1.000000
vt 0.375000 1.000000
vt 0.125000 0.500000
vt 0.125000 0.750000
vt 0.875000 0.500000
vt 0.875000 0.750000
s 0
usemtl Glass_Clear
f 1/1/1 2/2/1 4/3/1 3/4/1
f 3/4/2 4/3/2 8/5/2 7/6/2
f 7/6/3 8/5/3 6/7/3 5/8/3
f 5/8/4 6/7/4 2/9/4 1/10/4
f 3/11/5 7/6/5 5/8/5 1/12/5
f 8/5/6 4/13/6 2/14/6 6/7/6
