# Blender 3.6.23
# www.blender.org
mtllib scene_0002_diffuse.mtl
o diffuse_shelf_01
v 51.525330 -713.117249 0.000000
v -39.920639 -706.592407 0.000000
v -36.076721 -728.492920 0.000000
v 47.681412 -691.216736 0.000000
v 42.206291 -692.177795 183.441162
v 42.206291 -692.177734 12.692177
v -34.445511 -705.631470 183.441162
v -34.445511 -705.631470 12.692177
v -31.178175 -724.246948 183.441162
v 45.473625 -710.793213 183.441162
v -31.178183 -724.246887 12.692169
v 45.473618 -710.793152 12.692169
v 47.681419 -691.216797 186.220581
v 51.525337 -713.117310 186.220581
v -36.076714 -728.492981 186.220581
v -39.920631 -706.592468 186.220581
v 52.620361 -712.925110 188.999985
v 52.620361 -712.925110 187.002014
v 48.584244 -689.929565 187.002014
v 48.584244 -689.929565 188.999985
v -37.171738 -728.685181 188.999985
v -37.171738 -728.685181 187.002014
v -41.207855 -705.689636 188.999985
v -41.207855 -705.689636 187.002014
v 42.398483 -693.272766 60.035297
v -34.253319 -706.726501 60.035297
v -31.178183 -724.246887 60.035290
v 45.473618 -710.793152 60.035290
v -34.253319 -706.726501 57.811760
v 42.398483 -693.272766 57.811760
v -31.178183 -724.246887 57.811756
v 45.473618 -710.793152 57.811756
v 42.590683 -694.367798 57.811760
v 41.715004 -694.521484 57.811760
v 44.597946 -710.946899 57.811756
v 41.715004 -694.521484 57.144695
v 42.590683 -694.367798 57.144695
v 44.597946 -710.946899 57.144695
v 45.473618 -710.793152 57.144695
v 45.473618 -710.793152 57.811756
v -34.061119 -707.821533 57.811760
v -33.185448 -707.667786 57.811760
v -30.302507 -724.093201 57.811756
v -33.185448 -707.667786 57.144695
v -34.061119 -707.821533 57.144695
v -30.302507 -724.093201 57.144695
v -31.178183 -724.246887 57.144695
v -31.178183 -724.246887 57.811756
v 42.398483 -693.272766 85.605873
v -34.253319 -706.726501 85.605873
v -31.178179 -724.246887 85.605873
v 45.473625 -710.793213 85.605873
v -34.253319 -706.726501 83.382347
v 42.398483 -693.272766 83.382347
v -31.178179 -724.246887 83.382347
v 45.473625 -710.793213 83.382347
v 42.590683 -694.367798 83.382347
v 41.715004 -694.521484 83.382347
v 44.597946 -710.946899 83.382347
v 41.715004 -694.521484 82.715294
v 42.590683 -694.367798 82.715294
v 44.597946 -710.946899 82.715294
v 45.473625 -710.793213 82.715294
v 45.473625 -710.793213 83.382347
v -34.061119 -707.821533 83.382347
v -33.185448 -707.667847 83.382347
v -30.302504 -724.093201 83.382347
v -33.185448 -707.667847 82.715294
v -34.061119 -707.821533 82.715294
v -30.302504 -724.093201 82.715294
v -31.178179 -724.246887 82.715294
v -31.178179 -724.246887 83.382347
v 42.398483 -693.272766 111.176468
v -34.253319 -706.726501 111.176468
v -31.178179 -724.246887 111.176468
v 45.473625 -710.793213 111.176468
v -34.253319 -706.726501 108.952919
v 42.398483 -693.272766 108.952919
v -31.178179 -724.246887 108.952919
v 45.473625 -710.793213 108.952919
v 42.590683 -694.367798 108.952919
v 41.715004 -694.521484 108.952919
v 44.597946 -710.946899 108.952919
v 41.715004 -694.521484 108.285873
v 42.590683 -694.367798 108.285873
v 44.597946 -710.946899 108.285873
v 45.473625 -710.793213 108.285873
v 45.473625 -710.793213 108.952919
v -34.061119 -707.821533 108.952919
v -33.185448 -707.667847 108.952919
v -30.302504 -724.093201 108.952919
v -33.185448 -707.667847 108.285873
v -34.061119 -707.821533 108.285873
v -30.302504 -724.093201 108.285873
v -31.178179 -724.246887 108.285873
v -31.178179 -724.246887 108.952919
v 42.398491 -693.272766 136.747040
v -34.253311 -706.726501 136.747040
v -31.178179 -724.246887 136.747040
v 45.473625 -710.793213 136.747040
v -34.253311 -706.726501 134.523514
v 42.398491 -693.272766 134.523514
v -31.178179 -724.246887 134.523514
v 45.473625 -710.793213 134.523514
v 42.590683 -694.367798 134.523514
v 41.715012 -694.521484 134.523514
v 44.597946 -710.946899 134.523514
v 41.715012 -694.521484 133.856461
v 42.590683 -694.367798 133.856461
v 44.597946 -710.946899 133.856461
v 45.473625 -710.793213 133.856461
v 45.473625 -710.793213 134.523514
v -34.061119 -707.821533 134.523514
v -33.185440 -707.667847 134.523514
v -30.302504 -724.093201 134.523514
v -33.185440 -707.667847 133.856461
v -34.061119 -707.821533 133.856461
v -30.302504 -724.093201 133.856461
v -31.178179 -724.246887 133.856461
v -31.178179 -724.246887 134.523514
v 42.398491 -693.272766 162.317627
v -34.253311 -706.726501 162.317627
v -31.178179 -724.246887 162.317627
v 45.473625 -710.793213 162.317627
v -34.253311 -706.726501 160.094116
v 42.398491 -693.272766 160.094116
v -31.178179 -724.246887 160.094116
v 45.473625 -710.793213 160.094116
v 42.590683 -694.367798 160.094116
v 41.715012 -694.521484 160.094116
v 44.597946 -710.946899 160.094116
v 41.715012 -694.521484 159.427063
v 42.590683 -694.367798 159.427063
v 44.597946 -710.946899 159.427063
v 45.473625 -710.793213 159.427063
v 45.473625 -710.793213 160.094116
v -34.061119 -707.821533 160.094116
v -33.185440 -707.667847 160.094116
v -30.302504 -724.093201 160.094116
v -33.185440 -707.667847 159.427063
v -34.061119 -707.821533 159.427063
v -30.302504 -724.093201 159.427063
v -31.178179 -724.246887 159.427063
v -31.178179 -724.246887 160.094116
v 42.398483 -693.272766 34.464703
v -34.253319 -706.726501 34.464703
v -31.178183 -724.246887 34.464703
v 45.473618 -710.793152 34.464703
v -34.253319 -706.726501 32.241177
v 42.398483 -693.272766 32.241177
v -31.178183 -724.246887 32.241173
v 45.473618 -710.793152 32.241173
v 42.590683 -694.367798 32.241177
v 41.715004 -694.521484 32.241177
v 44.597946 -710.946899 32.241173
v 41.715004 -694.521484 31.574116
v 42.590683 -694.367798 31.574116
v 44.597946 -710.946899 31.574112
v 45.473618 -710.793152 31.574112
v 45.473618 -710.793152 32.241173
v -34.061119 -707.821533 32.241177
v -33.185448 -707.667786 32.241177
v -30.302507 -724.093201 32.241173
v -33.185448 -707.667786 31.574116
v -34.061119 -707.821533 31.574116
v -30.302507 -724.093201 31.574112
v -31.178183 -724.246887 31.574112
v -31.178183 -724.246887 32.241173
vn -0.6055 0.4247 -0.6731
vn -0.3486 -0.9007 -0.2592
vn -0.5815 -0.7281 -0.3629
vn -0.7345 0.5152 -0.4417
vn -0.4533 0.8388 0.3015
vn -0.4533 0.8388 -0.3015
vn 0.4247 0.6055 -0.6731
vn 0.4688 0.6685 -0.5774
vn -0.4688 -0.6685 -0.5774
vn -0.6685 0.4688 -0.5774
vn 0.6345 -0.7282 -0.2592
vn 0.6685 -0.4688 -0.5774
vn 0.1406 0.9430 0.3015
vn 0.1406 0.9430 -0.3015
vn -0.4688 -0.6685 0.5773
vn 0.6685 -0.4688 0.5773
vn 0.4688 0.6685 0.5774
vn -0.6685 0.4688 0.5774
vn 0.5152 0.7345 -0.4417
vn 0.7947 -0.4865 -0.3629
vn -0.1222 0.6965 0.7071
vn -0.0000 -0.0000 1.0000
vn -0.1222 0.6965 -0.7071
vn -0.0000 -0.0000 -1.0000
vn 0.1222 -0.6965 -0.7071
vn -0.5742 -0.8187 -0.0000
vn -0.8187 0.5742 -0.0000
vn -0.1729 0.9849 -0.0000
vn 0.1729 -0.9849 -0.0000
vn 0.8187 -0.5742 -0.0000
vn 0.5742 0.8187 -0.0000
vn -0.6685 0.4688 -0.5773
vn 0.4688 0.6685 -0.5773
vn -0.4688 -0.6685 0.5774
vn 0.6685 -0.4688 0.5774
vt 0.910724 0.606259
vt 0.989116 0.606259
vt 0.989116 0.611050
vt 0.906804 0.611050
vt 0.613938 0.966226
vt 0.011952 0.966226
vt 0.002153 0.946628
vt 0.658686 0.946628
vt 0.780069 0.657875
vt 0.780069 0.001334
vt 0.858462 0.001334
vt 0.858462 0.657875
vt 0.629727 0.657876
vt 0.629727 0.001334
vt 0.708120 0.001334
vt 0.708120 0.657876
vt 0.963978 0.953926
vt 0.944379 0.998674
vt 0.670004 0.998674
vt 0.650405 0.953926
vt 0.996659 0.003858
vt 0.996659 0.273693
vt 0.931128 0.273693
vt 0.931128 0.003858
vt 0.989116 0.618094
vt 0.989116 0.939504
vt 0.906804 0.939503
vt 0.906804 0.618094
vt 0.894966 0.935583
vt 0.894969 0.622013
vt 0.899760 0.618094
vt 0.899759 0.939503
vt 0.659539 0.991588
vt 0.003002 0.991588
vt 0.012801 0.971990
vt 0.614791 0.971990
vt 0.624644 0.577883
vt 0.003749 0.577882
vt 0.003750 0.281335
vt 0.624645 0.281336
vt 0.317517 0.663987
vt 0.003945 0.663987
vt 0.003945 0.585594
vt 0.317517 0.585594
vt 0.978444 0.278821
vt 0.985488 0.278821
vt 0.985489 0.600233
vt 0.978444 0.600233
vt 0.001331 0.001326
vt 0.603325 0.001326
vt 0.603325 0.275702
vt 0.001331 0.275702
vt 0.927665 0.002061
vt 0.927666 0.604056
vt 0.861032 0.604056
vt 0.861031 0.002061
vt 0.710782 0.603328
vt 0.710781 0.001333
vt 0.777415 0.001333
vt 0.777415 0.603328
vt 0.326807 0.589611
vt 0.601183 0.589611
vt 0.601183 0.656245
vt 0.326807 0.656245
vt 0.885170 0.641612
vt 0.885168 0.915984
vt 0.906804 0.946547
vt 0.989116 0.946548
vt 0.989116 0.951339
vt 0.910723 0.951339
vt 0.975689 0.282741
vt 0.975688 0.596312
vt 0.558477 0.878351
vt 0.832841 0.878351
vt 0.832841 0.941063
vt 0.558477 0.941063
vt 0.558477 0.870512
vt 0.558477 0.807800
vt 0.832841 0.807800
vt 0.832841 0.870512
vt 0.605985 0.062479
vt 0.605985 0.003686
vt 0.609120 0.003686
vt 0.609119 0.062479
vt 0.611471 0.003686
vt 0.611471 0.062479
vt 0.609119 0.064831
vt 0.605985 0.064831
vt 0.609120 0.001335
vt 0.605985 0.001335
vt 0.613685 0.138933
vt 0.616819 0.138933
vt 0.616819 0.197726
vt 0.613685 0.197726
vt 0.619171 0.197726
vt 0.619171 0.138933
vt 0.616819 0.136581
vt 0.613685 0.136581
vt 0.616819 0.200077
vt 0.613685 0.200077
vt 0.554922 0.731143
vt 0.280558 0.731143
vt 0.280558 0.668431
vt 0.554922 0.668431
vt 0.554922 0.738982
vt 0.554922 0.801694
vt 0.280558 0.801694
vt 0.280558 0.738982
vt 0.622273 0.062477
vt 0.622275 0.003684
vt 0.625409 0.003684
vt 0.625407 0.062477
vt 0.627761 0.003684
vt 0.627759 0.062477
vt 0.625408 0.064829
vt 0.622273 0.064829
vt 0.625409 0.001333
vt 0.622275 0.001332
vt 0.605571 0.207142
vt 0.608705 0.207142
vt 0.608705 0.265935
vt 0.605571 0.265935
vt 0.611057 0.265935
vt 0.611057 0.207142
vt 0.608705 0.204791
vt 0.605571 0.204791
vt 0.608705 0.268287
vt 0.605571 0.268287
vt 0.003015 0.875554
vt 0.277378 0.875554
vt 0.277378 0.938266
vt 0.003015 0.938266
vt 0.003015 0.867715
vt 0.003015 0.805003
vt 0.277378 0.805003
vt 0.277378 0.867715
vt 0.621345 0.591306
vt 0.621344 0.650098
vt 0.618210 0.650098
vt 0.618211 0.591306
vt 0.615858 0.650098
vt 0.615859 0.591306
vt 0.618211 0.588954
vt 0.621345 0.588954
vt 0.618210 0.652450
vt 0.621344 0.652450
vt 0.605988 0.071199
vt 0.609122 0.071199
vt 0.609122 0.129992
vt 0.605988 0.129992
vt 0.611474 0.129992
vt 0.611474 0.071199
vt 0.609122 0.068848
vt 0.605988 0.068848
vt 0.609122 0.132343
vt 0.605988 0.132343
vt 0.277373 0.731785
vt 0.003009 0.731785
vt 0.003009 0.669074
vt 0.277373 0.669074
vt 0.277373 0.739624
vt 0.277373 0.802336
vt 0.003009 0.802336
vt 0.003009 0.739625
vt 0.622271 0.129998
vt 0.622272 0.071206
vt 0.625406 0.071206
vt 0.625405 0.129999
vt 0.627758 0.071206
vt 0.627757 0.129998
vt 0.625406 0.132350
vt 0.622271 0.132350
vt 0.625406 0.068855
vt 0.622272 0.068855
vt 0.614131 0.003686
vt 0.617265 0.003686
vt 0.617265 0.062478
vt 0.614131 0.062478
vt 0.619617 0.062478
vt 0.619617 0.003686
vt 0.617265 0.001335
vt 0.614131 0.001335
vt 0.617265 0.064830
vt 0.614131 0.064830
vt 0.554918 0.868004
vt 0.280554 0.868004
vt 0.280554 0.805293
vt 0.554918 0.805293
vt 0.554918 0.875843
vt 0.554918 0.938555
vt 0.280554 0.938555
vt 0.280554 0.875843
vt 0.614132 0.129990
vt 0.614132 0.071198
vt 0.617267 0.071198
vt 0.617267 0.129990
vt 0.619618 0.071198
vt 0.619618 0.129990
vt 0.617267 0.132342
vt 0.614132 0.132342
vt 0.617267 0.068846
vt 0.614132 0.068846
vt 0.621835 0.138936
vt 0.624969 0.138936
vt 0.624969 0.197728
vt 0.621835 0.197728
vt 0.627321 0.197728
vt 0.627321 0.138936
vt 0.624969 0.136584
vt 0.621835 0.136584
vt 0.624969 0.200080
vt 0.621835 0.200080
vt 0.565751 0.740565
vt 0.840114 0.740565
vt 0.840114 0.803276
vt 0.565751 0.803276
vt 0.565751 0.732726
vt 0.565751 0.670014
vt 0.840114 0.670014
vt 0.840114 0.732725
vt 0.557912 0.670014
vt 0.557912 0.732726
vt 0.847953 0.732725
vt 0.847953 0.670014
vt 0.565751 0.662175
vt 0.840114 0.662175
vt 0.605446 0.198158
vt 0.605452 0.139365
vt 0.608586 0.139365
vt 0.608580 0.198158
vt 0.610938 0.139366
vt 0.610932 0.198158
vt 0.608580 0.200510
vt 0.605446 0.200509
vt 0.608587 0.137014
vt 0.605452 0.137013
vt 0.606732 0.591302
vt 0.609866 0.591302
vt 0.609866 0.650095
vt 0.606732 0.650095
vt 0.612218 0.650095
vt 0.612218 0.591302
vt 0.609866 0.588950
vt 0.606732 0.588950
vt 0.609866 0.652446
vt 0.606732 0.652446
s 1
usemtl Diffuse_shelf
f 16/1/1 15/2/2 22/3/3 24/4/4
f 6/5/5 5/6/6 13/7/7 4/8/8
f 3/9/9 15/10/2 16/11/1 2/12/10
f 4/13/8 13/14/7 14/15/11 1/16/12
f 2/17/10 8/18/13 6/19/5 4/20/8
f 7/21/14 5/22/6 10/23/10 9/24/8
f 21/25/15 17/26/16 20/27/17 23/28/18
f 13/29/7 16/30/1 24/31/4 19/32/19
f 2/33/10 16/34/1 7/35/14 8/36/13
f 1/37/12 14/38/11 15/39/2 3/40/9
f 1/41/12 3/42/9 2/43/10 4/44/8
f 18/45/20 17/46/16 21/47/15 22/48/3
f 11/49/17 9/50/8 10/51/10 12/52/18
f 8/53/13 7/54/14 9/55/8 11/56/17
f 5/57/6 6/58/5 12/59/18 10/60/10
f 6/61/5 8/62/13 11/63/17 12/64/18
f 7/65/14 16/30/1 13/29/7 5/66/6
f 24/31/4 23/28/18 20/27/17 19/32/19
f 19/67/19 20/27/17 17/26/16 18/68/20
f 14/69/11 13/70/7 19/67/19 18/68/20
f 22/3/3 21/25/15 23/28/18 24/4/4
f 14/71/11 18/45/20 22/48/3 15/72/2
f 25/73/21 26/74/21 27/75/22 28/76/22
f 30/77/23 32/78/24 31/79/24 29/80/23
f 25/73/21 30/77/23 29/80/23 26/74/21
f 37/81/23 39/82/25 38/83/9 36/84/10
f 35/85/26 34/86/27 36/84/10 38/83/9
f 34/87/27 33/88/28 37/81/23 36/84/10
f 35/89/26 38/83/9 39/82/25 40/90/29
f 45/91/23 44/92/8 46/93/12 47/94/25
f 43/95/30 46/93/12 44/92/8 42/96/31
f 42/97/31 44/92/8 45/91/23 41/98/28
f 43/99/30 48/100/29 47/94/25 46/93/12
f 49/101/21 50/102/21 51/103/22 52/104/22
f 54/105/23 56/106/24 55/107/24 53/108/23
f 49/101/21 54/105/23 53/108/23 50/102/21
f 61/109/23 63/110/25 62/111/9 60/112/32
f 59/113/26 58/114/27 60/112/32 62/111/9
f 58/115/27 57/116/28 61/109/23 60/112/32
f 59/117/26 62/111/9 63/110/25 64/118/29
f 69/119/23 68/120/33 70/121/12 71/122/25
f 67/123/30 70/121/12 68/120/33 66/124/31
f 66/125/31 68/120/33 69/119/23 65/126/28
f 67/127/30 72/128/29 71/122/25 70/121/12
f 73/129/21 74/130/21 75/131/22 76/132/22
f 78/133/23 80/134/24 79/135/24 77/136/23
f 73/129/21 78/133/23 77/136/23 74/130/21
f 85/137/23 87/138/25 86/139/9 84/140/10
f 83/141/26 82/142/27 84/140/10 86/139/9
f 82/143/27 81/144/28 85/137/23 84/140/10
f 83/145/26 86/139/9 87/138/25 88/146/29
f 93/147/23 92/148/8 94/149/12 95/150/25
f 91/151/30 94/149/12 92/148/8 90/152/31
f 90/153/31 92/148/8 93/147/23 89/154/28
f 91/155/30 96/156/29 95/150/25 94/149/12
f 97/157/21 98/158/21 99/159/22 100/160/22
f 102/161/23 104/162/24 103/163/24 101/164/23
f 97/157/21 102/161/23 101/164/23 98/158/21
f 109/165/23 111/166/25 110/167/9 108/168/10
f 107/169/26 106/170/27 108/168/10 110/167/9
f 106/171/27 105/172/28 109/165/23 108/168/10
f 107/173/26 110/167/9 111/166/25 112/174/29
f 117/175/23 116/176/8 118/177/12 119/178/25
f 115/179/30 118/177/12 116/176/8 114/180/31
f 114/181/31 116/176/8 117/175/23 113/182/28
f 115/183/30 120/184/29 119/178/25 118/177/12
f 121/185/21 122/186/21 123/187/22 124/188/22
f 126/189/23 128/190/24 127/191/24 125/192/23
f 121/185/21 126/189/23 125/192/23 122/186/21
f 133/193/23 135/194/25 134/195/9 132/196/32
f 131/197/26 130/198/27 132/196/32 134/195/9
f 130/199/27 129/200/28 133/193/23 132/196/32
f 131/201/26 134/195/9 135/194/25 136/202/29
f 141/203/23 140/204/33 142/205/12 143/206/25
f 139/207/30 142/205/12 140/204/33 138/208/31
f 138/209/31 140/204/33 141/203/23 137/210/28
f 139/211/30 144/212/29 143/206/25 142/205/12
f 145/213/17 146/214/18 147/215/34 148/216/35
f 150/217/8 152/218/12 151/219/9 149/220/10
f 145/213/17 150/217/8 149/220/10 146/214/18
f 148/221/35 152/218/12 150/217/8 145/222/17
f 146/223/18 149/220/10 151/219/9 147/224/34
f 148/225/35 147/226/34 151/219/9 152/218/12
f 157/227/23 159/228/25 158/229/9 156/230/10
f 155/231/26 154/232/27 156/230/10 158/229/9
f 154/233/27 153/234/28 157/227/23 156/230/10
f 155/235/26 158/229/9 159/228/25 160/236/29
f 165/237/23 164/238/8 166/239/12 167/240/25
f 163/241/30 166/239/12 164/238/8 162/242/31
f 162/243/31 164/238/8 165/237/23 161/244/28
f 163/245/30 168/246/29 167/240/25 166/239/12
o diffuse_chair_02
v -67.890839 -724.801758 40.812294
v -68.162895 -726.108826 40.752964
v -67.822777 -724.474731 34.292999
v -91.773064 -719.830872 40.812294
v -92.045113 -721.137939 40.752964
v -91.705002 -719.503845 34.292999
v -91.977051 -720.810913 34.233673
v -68.094833 -725.781799 34.233673
v -53.408600 -692.329773 41.860661
v -53.309990 -691.982788 40.823101
v -91.851486 -683.176208 41.832954
v -91.803780 -682.838928 40.813869
v -51.859077 -686.994873 41.580410
v -52.515778 -685.876709 41.532608
v -51.850307 -686.511963 41.556511
v -52.090679 -686.102722 41.539013
v -52.507622 -685.837280 40.713745
v -51.850437 -686.954468 40.730484
v -52.082489 -686.063293 40.715988
v -51.841942 -686.472229 40.722111
v -90.105049 -677.383606 41.532608
v -91.155556 -678.116638 41.579712
v -90.582916 -677.405640 41.538914
v -90.967438 -677.673950 41.556160
v -91.148880 -678.056641 40.730179
v -90.099312 -677.326172 40.713745
v -90.961189 -677.615112 40.721962
v -90.577026 -677.347717 40.715946
v -64.494514 -731.908752 88.528107
v -64.375366 -730.105164 79.027153
v -64.882683 -733.754456 88.146393
v -65.015869 -731.872192 88.904694
v -66.015495 -731.592163 88.528107
v -67.536469 -731.275574 88.528107
v -66.039520 -731.707581 89.158218
v -65.530518 -731.803467 89.105377
v -66.544495 -731.592407 89.105377
v -67.043839 -731.450073 88.904694
v -67.673302 -729.418701 79.027153
v -67.699860 -727.584839 69.526199
v -68.124527 -731.562317 78.601273
v -67.924629 -733.121338 88.146393
v -68.213501 -730.026367 69.056152
v -64.826584 -732.248718 78.601273
v -66.403656 -733.437927 88.146393
v -67.431999 -733.295837 88.522980
v -66.932663 -733.438110 88.723663
v -66.427689 -733.553345 88.776505
v -65.918678 -733.649170 88.723663
v -65.404037 -733.717957 88.522980
v -64.843353 -730.727844 69.056152
v -64.867371 -728.599854 54.976349
v -64.329712 -728.286316 69.526199
v -64.239304 -725.615723 55.550877
v -63.939529 -722.962341 41.438530
v -67.675095 -724.900574 55.550877
v -67.506592 -722.219910 41.438530
v -68.303162 -727.884705 54.976349
v -68.415054 -726.571838 41.035896
v -68.393066 -725.910278 26.479244
v -64.847984 -727.314270 41.035896
v -64.825996 -726.652710 26.479244
v -64.734909 -726.028015 12.412144
v -64.011917 -722.744812 26.739054
v -67.578987 -722.002380 26.739054
v -64.010872 -722.549377 12.533932
v -67.257950 -721.873535 12.533932
v -63.977188 -722.387573 0.273964
v -64.300575 -722.596375 0.000004
v -64.624100 -725.495605 0.273956
v -67.023621 -721.753479 0.273964
v -66.805931 -722.074951 0.000004
v -67.670578 -724.861511 0.273956
v -67.339409 -724.638000 0.000000
v -67.981987 -725.352173 12.412144
v -64.834053 -725.159485 0.000000
v -98.293755 -726.800293 88.146393
v -97.744400 -725.397156 78.601273
v -97.801125 -726.974792 88.522980
v -97.913239 -724.952942 88.528107
v -96.772781 -727.116821 88.146393
v -95.251801 -727.433411 88.146393
v -97.301781 -727.117065 88.723663
v -96.796806 -727.232300 88.776505
v -96.287796 -727.328125 88.723663
v -95.773155 -727.396912 88.522980
v -94.446465 -726.083618 78.601273
v -93.752045 -724.710754 69.056152
v -94.004944 -723.938049 79.027153
v -93.248878 -722.267029 69.526199
v -94.871284 -725.586060 88.528107
v -97.302879 -723.251587 79.027153
v -96.392258 -725.269531 88.528107
v -95.392639 -725.549561 88.904694
v -95.907288 -725.480774 89.105377
v -96.416290 -725.384949 89.158218
v -96.921265 -725.269714 89.105377
v -97.420601 -725.127441 88.904694
v -96.619034 -721.565613 69.526199
v -95.636360 -719.080688 55.550877
v -97.122192 -724.009277 69.056152
v -96.251106 -722.067566 54.976349
v -95.755951 -720.881042 41.035896
v -92.815315 -722.782715 54.976349
v -92.188881 -721.623535 41.035896
v -92.200577 -719.795837 55.550877
v -91.285492 -717.270508 41.438530
v -94.852554 -716.528076 41.438530
v -91.132324 -717.099976 26.739054
v -94.699387 -716.357483 26.739054
v -91.945099 -721.008118 26.479244
v -91.375305 -716.853760 12.533932
v -94.622383 -716.177917 12.533932
v -92.099342 -720.332336 12.412144
v -91.542267 -716.650146 0.273964
v -91.870132 -716.858032 0.000004
v -92.189133 -719.758240 0.273956
v -94.588699 -716.016052 0.273964
v -94.375488 -716.336609 0.000004
v -95.235611 -719.124146 0.273956
v -94.908966 -718.899658 0.000000
v -95.346420 -719.656494 12.412144
v -95.512161 -720.265686 26.479244
v -92.403610 -719.421143 0.000000
v -57.163952 -689.549683 40.865555
v -56.221252 -685.020508 40.597366
v -53.537590 -690.304443 40.865555
v -57.415138 -689.788452 30.674463
v -57.666325 -690.027222 20.483376
v -54.015709 -690.495972 30.674465
v -56.539764 -685.587708 30.473324
v -56.858276 -686.154846 20.349281
v -53.140335 -686.295227 30.473324
v -52.594887 -685.775330 40.597366
v -53.693348 -686.813599 20.349281
v -54.216103 -687.338257 10.225243
v -54.501396 -690.685974 20.483376
v -54.956825 -690.882202 10.292290
v -57.917511 -690.265991 10.292290
v -55.273979 -691.099426 0.375057
v -55.495186 -690.781311 0.101200
v -54.602539 -687.874207 0.375050
v -58.146332 -690.501587 0.375057
v -57.828510 -690.295654 0.101200
v -57.474907 -687.276306 0.375050
v -57.270744 -687.615906 0.101200
v -57.176788 -686.722046 10.225243
v -54.937424 -688.101562 0.101200
v -87.733917 -683.186829 40.865555
v -86.791206 -678.657654 40.597366
v -91.360275 -682.432007 40.865555
v -87.598862 -683.505981 30.674463
v -87.463799 -683.825134 20.483376
v -90.998283 -682.798401 30.674465
v -86.725449 -679.304810 30.473324
v -86.659691 -679.951965 20.349281
v -90.124878 -678.597229 30.473324
v -90.417572 -677.902832 40.597366
v -89.824615 -679.293213 20.349281
v -89.554619 -679.982910 10.225243
v -90.628731 -683.166382 20.483376
v -90.289429 -683.528076 10.292290
v -87.328743 -684.144287 10.292290
v -90.085281 -683.853760 0.375057
v -89.755508 -683.650330 0.101200
v -89.414101 -680.628479 0.375050
v -87.212936 -684.451660 0.375057
v -87.422188 -684.135986 0.101200
v -86.541733 -681.226318 0.375050
v -86.864418 -681.456238 0.101200
v -86.593933 -680.599121 10.225243
v -89.197739 -680.970581 0.101200
v -55.538261 -689.945190 34.236439
v -54.288845 -690.334473 34.214138
v -65.673355 -722.420776 34.292999
v -55.384995 -689.789917 40.665359
v -54.135582 -690.179199 40.643055
v -65.557434 -722.444946 40.721920
v -64.308022 -722.834167 40.699619
v -64.423943 -722.810059 34.270702
v -89.384453 -682.857666 34.236271
v -90.685410 -682.716064 34.213974
v -93.048317 -716.722961 34.292999
v -89.444328 -682.605225 40.665192
v -90.745285 -682.463623 40.642891
v -93.156067 -716.700562 40.721920
v -94.457031 -716.558960 40.699619
v -94.349274 -716.581360 34.270702
v -67.771027 -725.557861 56.741119
v -68.082283 -727.053223 56.451035
v -67.671898 -725.081604 54.179535
v -92.386040 -720.434509 56.741119
v -92.697289 -721.929871 56.451035
v -92.286903 -719.958191 54.179535
v -92.598152 -721.453552 53.889450
v -67.983147 -726.576965 53.889450
v -67.612602 -731.462891 87.010574
v -67.923851 -732.958252 86.720474
v -67.758591 -730.547180 82.446884
v -74.305099 -730.069885 87.010574
v -74.292770 -729.187134 82.446884
v -74.616348 -731.565247 86.720474
v -74.338882 -730.232178 87.883575
v -80.527679 -728.774719 87.010574
v -81.249992 -728.624390 87.010574
v -80.612381 -729.179382 89.187347
v -80.350838 -727.926208 82.446884
v -81.073372 -727.775818 82.446884
v -80.662094 -729.421570 82.156799
v -81.384621 -729.271179 82.156799
v -80.838928 -730.270081 86.720474
v -74.604019 -730.682495 82.156799
v -68.069839 -732.042542 82.156799
v -81.561241 -730.119751 86.720474
v -80.923630 -730.674744 88.897263
v -81.647911 -730.536133 88.959915
v -74.650139 -731.727600 87.593483
v -82.367340 -730.374268 88.897263
v -81.336662 -729.040771 89.249992
v -82.056084 -728.878845 89.187347
v -81.972305 -728.473999 87.010574
v -88.228668 -727.341187 87.883575
v -88.539917 -728.836548 87.593483
v -88.194885 -727.178833 87.010574
v -94.887383 -725.785889 87.010574
v -87.853973 -726.364502 82.446884
v -88.506134 -728.674255 86.720474
v -95.198631 -727.281250 86.720474
v -88.165222 -727.859863 82.156799
v -82.283554 -729.969421 86.720474
v -82.107155 -729.120789 82.156799
v -81.795906 -727.625427 82.446884
v -94.699409 -726.499878 82.156799
v -94.388161 -725.004456 82.446884
v -74.202400 -730.059753 82.355743
v -74.056038 -729.356567 82.490509
v -73.217247 -725.326721 56.587929
v -75.843781 -729.718140 82.355743
v -75.697418 -729.014954 82.490509
v -74.858635 -724.985046 56.587929
v -74.712273 -724.281860 56.722706
v -73.070885 -724.623535 56.722706
v -88.285027 -727.128601 82.355743
v -88.138664 -726.425415 82.490509
v -87.299881 -722.395508 56.587929
v -86.643639 -727.470276 82.355743
v -86.497276 -726.767090 82.490509
v -85.658493 -722.737183 56.587929
v -85.512131 -722.033997 56.722706
v -87.153511 -721.692322 56.722706
v -84.110069 -727.304199 82.478371
v -78.093063 -728.556580 82.478371
v -84.308388 -728.257019 82.304245
v -83.990982 -726.732056 79.211914
v -84.123100 -726.644165 78.881241
v -77.973984 -727.984436 79.211914
v -84.189308 -727.684875 79.037781
v -84.321426 -727.596985 78.707123
v -78.172302 -728.937256 79.037781
v -78.016075 -728.909363 78.707123
v -78.291389 -729.509399 82.304245
v -77.817757 -727.956543 78.881241
v -77.503662 -728.923706 78.201920
v -84.796997 -727.405640 78.201920
v -77.305344 -727.970886 78.376038
v -77.138321 -728.875977 77.524673
v -76.831444 -728.766663 76.576828
v -85.112961 -727.216125 77.524673
v -76.940002 -727.923157 77.698784
v -76.633125 -727.813843 76.750961
v -84.914642 -726.263306 77.698784
v -85.152405 -726.040588 76.750961
v -84.598679 -726.452820 78.376038
v -85.350731 -726.993408 76.576828
v -85.197716 -725.859192 75.809723
v -85.091003 -725.661560 74.606934
v -76.519188 -727.665527 75.809723
v -85.396034 -726.812012 75.635612
v -76.717506 -728.618347 75.635612
v -85.289330 -726.614380 74.432816
v -76.736519 -728.394592 74.432816
v -85.016388 -726.451111 73.228340
v -84.718506 -726.293213 72.025055
v -84.818062 -725.498291 73.402473
v -76.921638 -728.135986 73.228340
v -77.131783 -727.872314 72.025055
v -76.723320 -727.183105 73.402473
v -76.933464 -726.919495 72.199165
v -76.538200 -727.441772 74.606934
v -84.520180 -725.340393 72.199165
v -77.244514 -726.571533 70.649399
v -77.466164 -726.266602 69.233215
v -84.096138 -725.145447 70.649399
v -77.442833 -727.524353 70.475296
v -77.664482 -727.219421 69.059090
v -84.294456 -726.098267 70.475296
v -83.969551 -725.907104 69.059090
v -83.771233 -724.954285 69.233215
v -83.632240 -725.669983 67.377350
v -83.480583 -725.465759 66.087105
v -83.433922 -724.717163 67.551468
v -77.879173 -726.867432 67.377350
v -77.936752 -726.619690 66.087105
v -77.680855 -725.914612 67.551468
v -77.738426 -725.666870 66.261215
v -83.282265 -724.512939 66.261215
v -77.700729 -725.375977 64.626564
v -77.633987 -724.979980 62.383659
v -83.200775 -724.231201 64.626564
v -77.899048 -726.328796 64.452454
v -77.832306 -725.932800 62.209541
v -83.399094 -725.184021 64.452454
v -83.302307 -724.794312 62.209541
v -83.103989 -723.841492 62.383659
v -83.089966 -723.774109 56.385056
v -82.891647 -722.821289 56.559170
v -77.619965 -724.912659 56.385056
v -77.421646 -723.959839 56.559170
v -56.359222 -686.178711 40.448231
v -56.630974 -687.484314 40.534233
v -56.438351 -686.558838 34.426517
v -86.936562 -679.814270 40.448231
v -87.208313 -681.119934 40.534233
v -87.015686 -680.194458 34.426517
v -87.287445 -681.500122 34.512520
v -56.710106 -687.864502 34.512520
v -56.477036 -686.744690 31.482592
v -56.748791 -688.050354 31.568596
v -56.500267 -686.856323 29.714596
v -87.054375 -680.380310 31.482592
v -87.326126 -681.685974 31.568596
v -87.077606 -680.491943 29.714596
v -87.349365 -681.797607 29.800604
v -56.772022 -688.161987 29.800604
v -55.597984 -689.650085 28.714003
v -54.348728 -690.039246 28.691708
v -65.798370 -722.394775 28.770733
v -55.571724 -689.655518 30.280846
v -54.322468 -690.044739 30.258549
v -65.772110 -722.400269 30.337572
v -64.522858 -722.789429 30.315277
v -64.549118 -722.783936 28.748436
v -89.211555 -682.653687 28.714003
v -90.512360 -682.512146 28.691708
v -92.923294 -716.748962 28.770733
v -89.237823 -682.648254 30.280846
v -90.538620 -682.506653 30.258549
v -92.949562 -716.743530 30.337572
v -94.250359 -716.601929 30.315273
v -94.224091 -716.607422 28.748436
v -60.224182 -715.829834 41.727554
v -95.325104 -708.406921 41.727554
v -60.210510 -715.779785 40.701843
v -62.129360 -722.347961 41.896675
v -63.762482 -723.064880 41.922516
v -62.087391 -722.201904 40.813427
v -96.253700 -715.244629 41.897026
v -95.020432 -716.559204 41.922516
v -96.232292 -715.091614 40.813576
v -94.998672 -716.405151 40.830715
v -95.317261 -708.355225 40.701187
v -63.720345 -722.917542 40.830715
v -60.199066 -715.709167 41.727554
v -58.680771 -710.536987 41.727554
v -95.300934 -708.290833 41.727554
v -60.185822 -715.661194 40.701839
v -58.653198 -710.440552 40.823589
v -95.293526 -708.241211 40.701187
v -94.505493 -702.391785 40.815189
v -94.518158 -702.480713 41.727554
v -58.659290 -710.433838 41.727554
v -56.766010 -703.905396 41.715076
v -94.491608 -702.353149 41.727554
v -58.630852 -710.333191 40.823589
v -56.793732 -703.995850 40.677254
v -94.478165 -702.260498 40.815189
v -93.571808 -695.682129 40.679047
v -93.561882 -695.600525 41.706135
v -56.742416 -703.792053 41.715076
v -55.152580 -698.367981 41.556423
v -93.542892 -695.509277 41.706135
v -56.769455 -703.879150 40.677254
v -55.098854 -698.177612 40.721691
v -93.552216 -695.588013 40.679047
v -92.770981 -689.808777 40.722912
v -92.799866 -690.009338 41.560089
v -55.112843 -698.177063 41.556423
v -53.423080 -692.399353 41.860661
v -92.759293 -689.814453 41.560089
v -55.058792 -697.985168 40.721691
v -53.326523 -692.062256 40.823101
v -92.730080 -689.612305 40.722912
v -91.826653 -682.948792 40.813869
v -91.872414 -683.276733 41.832954
v -68.444824 -726.680359 42.066208
v -68.406097 -726.529663 40.974407
v -67.549416 -722.297241 41.871243
v -92.169785 -721.742188 42.066208
v -91.241997 -717.365845 41.871243
v -92.145187 -721.588623 40.974407
v -91.233246 -717.314331 40.844875
v -67.536888 -722.246521 40.844875
v -67.788956 -724.312256 30.315277
v -68.061005 -725.619324 30.255947
v -67.772926 -724.235229 28.770733
v -91.671173 -719.341370 30.315277
v -91.943230 -720.648438 30.255947
v -91.655151 -719.264343 28.770733
v -91.927200 -720.571411 28.711401
v -68.044983 -725.542297 28.711401
vn -0.4537 0.6551 0.6041
vn -0.6881 -0.4742 0.5493
vn 0.4417 -0.7094 0.5493
vn 0.6774 0.4197 0.6041
vn 0.4537 -0.6551 -0.6041
vn 0.6881 0.4742 -0.5493
vn -0.4417 0.7094 -0.5493
vn -0.6774 -0.4197 -0.6041
vn 0.2608 0.6998 -0.6650
vn 0.0651 0.7476 -0.6609
vn 0.0685 0.7265 0.6838
vn 0.2519 0.6887 0.6799
vn 0.3695 -0.7807 0.5039
vn 0.4572 -0.6090 -0.6481
vn 0.7259 -0.1177 -0.6776
vn 0.7307 -0.0825 0.6777
vn -0.7131 0.1902 -0.6747
vn -0.5974 0.4858 -0.6380
vn -0.2493 0.7344 -0.6313
vn -0.6714 -0.3567 -0.6495
vn -0.6699 -0.5423 0.5071
vn -0.6988 0.2203 0.6805
vn 0.7391 0.1918 -0.6457
vn 0.7308 0.2100 0.6495
vn 0.5316 0.5535 -0.6411
vn 0.5188 0.5560 0.6494
vn -0.2332 0.7168 0.6572
vn -0.5768 0.4879 0.6551
vn 0.8035 0.3826 0.4561
vn 0.8356 0.5383 0.1099
vn 0.2003 0.9622 0.1845
vn 0.5571 -0.7973 0.2323
vn 0.5508 -0.8245 -0.1296
vn 0.4612 0.4591 0.7593
vn 0.1857 -0.8452 0.5012
vn -0.5645 0.6700 0.4821
vn -0.2391 0.6057 0.7589
vn -0.5519 0.8177 0.1636
vn 0.1086 0.5214 0.8463
vn -0.0637 0.5536 0.8303
vn 0.2795 0.4818 0.8305
vn -0.8360 -0.5434 -0.0756
vn -0.5509 0.8195 0.1581
vn -0.8363 -0.5426 -0.0783
vn 0.8348 0.5399 0.1080
vn -0.8135 -0.5215 0.2573
vn -0.2008 -0.9650 -0.1689
vn 0.5506 -0.8248 -0.1290
vn -0.5079 -0.7002 0.5018
vn -0.3334 -0.7495 0.5719
vn -0.1654 -0.7943 0.5846
vn 0.0062 -0.8205 0.5716
vn 0.5548 -0.8259 -0.1006
vn 0.8336 0.5405 0.1140
vn -0.8414 -0.5370 -0.0598
vn -0.5515 0.8200 0.1529
vn 0.5533 -0.8311 -0.0565
vn 0.8203 0.5683 0.0643
vn -0.5291 0.8445 0.0833
vn -0.8417 -0.5388 -0.0348
vn -0.5517 0.8340 0.0054
vn -0.8386 -0.5435 -0.0361
vn 0.5476 -0.8360 -0.0354
vn 0.8359 0.5489 0.0058
vn 0.5480 -0.8359 -0.0326
vn 0.8361 0.5485 0.0086
vn -0.8356 -0.5475 -0.0448
vn -0.5474 0.8369 -0.0036
vn 0.7702 0.5076 -0.3861
vn -0.4997 0.7721 -0.3926
vn 0.5070 -0.7589 -0.4087
vn 0.3553 0.2357 -0.9046
vn -0.2280 0.3575 -0.9056
vn 0.2358 -0.3457 -0.9082
vn -0.3506 -0.2241 -0.9093
vn -0.7636 -0.4944 -0.4153
vn -0.8289 -0.5088 0.2323
vn -0.8341 -0.5362 -0.1296
vn -0.5841 0.6714 0.4561
vn -0.5514 0.8270 0.1099
vn -0.5075 -0.7009 0.5012
vn -0.2397 0.6050 0.7593
vn 0.5498 -0.8319 -0.0756
vn 0.5379 -0.8028 0.2573
vn 0.1863 -0.8447 0.5018
vn -0.3331 -0.7499 0.5716
vn -0.1652 -0.7943 0.5846
vn 0.0066 -0.8203 0.5719
vn 0.8323 0.5296 0.1636
vn 0.7849 0.3892 0.4821
vn -0.8339 -0.5366 -0.1290
vn 0.5504 -0.8312 -0.0783
vn 0.8321 0.5316 0.1581
vn -0.5501 0.8281 0.1080
vn 0.4609 0.4600 0.7589
vn 0.2793 0.4823 0.8303
vn 0.1084 0.5215 0.8463
vn -0.0641 0.5533 0.8305
vn -0.5487 0.8282 0.1140
vn -0.8382 -0.5360 -0.1006
vn 0.8329 0.5319 0.1529
vn 0.5573 -0.8282 -0.0598
vn -0.5254 0.8484 0.0643
vn -0.8390 -0.5413 -0.0565
vn 0.5568 -0.8299 -0.0348
vn 0.8221 0.5632 0.0833
vn 0.8387 0.5446 0.0054
vn -0.5475 0.8368 0.0058
vn 0.5522 -0.8330 -0.0361
vn 0.8358 0.5490 -0.0036
vn -0.5478 0.8365 0.0086
vn 0.5478 -0.8354 -0.0448
vn 0.7663 0.5086 -0.3926
vn -0.5038 0.7728 -0.3861
vn 0.5030 -0.7580 -0.4153
vn 0.3518 0.2369 -0.9056
vn -0.2317 0.3579 -0.9046
vn 0.2321 -0.3454 -0.9093
vn -0.3542 -0.2230 -0.9082
vn -0.7677 -0.4936 -0.4087
vn -0.8360 -0.5478 -0.0326
vn -0.8357 -0.5480 -0.0354
vn -0.6706 -0.4259 0.6074
vn -0.4344 0.7156 0.5470
vn -0.5482 0.8358 -0.0296
vn -0.8363 -0.5473 0.0334
vn 0.4642 -0.6595 0.5913
vn 0.7018 0.4749 0.5310
vn 0.5471 -0.8370 -0.0102
vn -0.5482 0.8359 -0.0296
vn 0.5468 -0.8372 -0.0094
vn 0.8351 0.5453 -0.0732
vn 0.8347 0.5459 -0.0724
vn 0.5459 -0.8379 -0.0038
vn 0.8341 0.5476 -0.0670
vn -0.5484 0.8357 -0.0300
vn -0.8364 -0.5472 0.0329
vn -0.7750 -0.5097 -0.3735
vn 0.4965 -0.7751 -0.3908
vn 0.7603 0.4906 -0.4256
vn -0.3593 -0.2376 -0.9025
vn 0.2247 -0.3604 -0.9053
vn 0.3481 0.2213 -0.9110
vn -0.5121 0.7560 -0.4077
vn -0.2409 0.3428 -0.9080
vn 0.4450 -0.6581 0.6074
vn 0.5484 -0.8355 0.0334
vn 0.8361 0.5477 -0.0296
vn 0.6838 0.4829 0.5470
vn -0.4540 0.7155 0.5310
vn -0.6887 -0.4195 0.5913
vn -0.8356 -0.5492 -0.0102
vn -0.8354 -0.5496 -0.0094
vn -0.5481 0.8332 -0.0732
vn -0.5476 0.8336 -0.0724
vn -0.5463 0.8349 -0.0670
vn -0.8348 -0.5505 -0.0038
vn 0.8363 0.5474 -0.0300
vn 0.5486 -0.8355 0.0329
vn 0.5073 -0.7766 -0.3735
vn -0.7645 -0.5126 -0.3908
vn -0.5014 0.7533 -0.4256
vn -0.3499 -0.2408 -0.9053
vn 0.2346 -0.3613 -0.9025
vn -0.2309 0.3418 -0.9110
vn 0.3576 0.2182 -0.9080
vn 0.7712 0.4889 -0.4077
vn -0.3660 0.7288 0.5787
vn 0.7336 0.3868 0.5588
vn 0.7120 0.3720 -0.5955
vn -0.3929 0.7171 -0.5757
vn 0.3694 -0.7212 -0.5860
vn -0.7327 -0.3771 -0.5666
vn -0.7132 -0.3817 0.5879
vn 0.3893 -0.7247 0.5686
vn 0.6269 0.5245 0.5762
vn 0.6460 0.4984 -0.5781
vn -0.5057 0.6227 -0.5971
vn -0.5171 0.6498 0.5571
vn 0.5209 -0.6380 -0.5671
vn -0.6269 -0.5139 -0.5856
vn 0.5021 -0.6347 0.5874
vn -0.6456 -0.5093 0.5690
vn -0.4716 0.5675 0.6749
vn -0.7028 -0.5431 0.4595
vn 0.4277 -0.7784 0.4595
vn 0.6589 0.3322 0.6749
vn 0.4716 -0.5675 -0.6749
vn 0.7028 0.5431 -0.4595
vn -0.4277 0.7784 -0.4595
vn -0.6589 -0.3322 -0.6749
vn 0.4648 0.7535 0.4650
vn 0.1026 -0.9865 0.1274
vn 0.4506 -0.7759 0.4414
vn 0.6804 0.3277 0.6555
vn 0.4494 -0.5632 -0.6934
vn 0.6820 0.5547 -0.4766
vn 0.1684 0.8093 -0.5628
vn 0.2002 0.9618 0.1866
vn 0.7125 0.3456 0.6107
vn 0.4767 -0.7874 0.3909
vn 0.2144 0.5159 0.8294
vn 0.1102 0.5294 0.8412
vn -0.1147 -0.5509 -0.8266
vn -0.2002 -0.9618 -0.1866
vn -0.0634 -0.8189 0.5704
vn -0.1654 -0.7945 0.5844
vn -0.2686 -0.7762 0.5704
vn 0.0092 0.5586 0.8294
vn -0.1256 0.8764 0.4650
vn -0.5155 0.6012 0.6107
vn -0.7513 -0.5318 0.3909
vn -0.4877 -0.8636 0.1274
vn -0.4931 0.5720 0.6555
vn -0.7228 -0.5317 0.4414
vn -0.4041 0.7808 -0.4766
vn -0.6368 -0.3372 -0.6934
vn -0.7026 -0.5421 0.4610
vn 0.4279 -0.7774 0.4610
vn 0.6592 0.3337 0.6739
vn -0.4713 0.5690 0.6739
vn 0.4713 -0.5690 -0.6739
vn 0.7026 0.5421 -0.4610
vn -0.6592 -0.3337 -0.6739
vn -0.4279 0.7774 -0.4610
vn -0.4701 0.5745 0.6700
vn 0.6603 0.3392 0.6700
vn 0.7738 0.5753 0.2653
vn -0.4800 0.8362 0.2653
vn -0.7018 -0.5383 0.4666
vn 0.4287 -0.7736 0.4666
vn -0.7834 -0.6215 -0.0011
vn -0.3989 0.7706 0.4970
vn -0.6999 -0.6753 0.2327
vn 0.6733 0.5475 0.4970
vn 0.4703 -0.8825 -0.0011
vn 0.3723 -0.8984 0.2327
vn -0.7382 -0.6016 0.3053
vn 0.4368 -0.8462 0.3053
vn 0.7072 0.4531 0.5427
vn -0.8096 -0.5698 0.1410
vn 0.5150 -0.8455 0.1410
vn 0.7905 0.4780 0.3829
vn 0.5584 -0.8295 0.0097
vn 0.8335 0.4921 0.2512
vn -0.8430 -0.5378 0.0097
vn -0.5679 0.7838 0.2512
vn -0.5341 0.7537 0.3829
vn -0.4677 0.6976 0.5427
vn 0.8451 0.5178 0.1334
vn -0.5683 0.8119 0.1334
vn -0.8459 -0.5218 -0.1104
vn -0.5596 0.8280 0.0363
vn -0.8372 -0.5060 -0.2074
vn 0.8435 0.5359 0.0363
vn 0.5675 -0.8160 -0.1104
vn 0.5658 -0.7980 -0.2074
vn -0.8171 -0.5134 -0.2622
vn 0.5444 -0.7968 -0.2622
vn -0.5344 0.8451 -0.0139
vn -0.8137 -0.5107 -0.2776
vn 0.5423 -0.7930 -0.2776
vn -0.5311 0.8468 -0.0296
vn 0.8272 0.5617 -0.0139
vn 0.8249 0.5645 -0.0296
vn 0.8201 0.5718 -0.0207
vn -0.5239 0.8515 -0.0207
vn 0.5345 -0.8004 -0.2714
vn 0.5403 -0.8043 -0.2475
vn 0.8252 0.5648 0.0027
vn -0.5314 0.8471 0.0027
vn -0.8095 -0.5206 -0.2714
vn -0.8163 -0.5219 -0.2475
vn -0.8185 -0.5347 -0.2101
vn 0.5372 -0.8169 -0.2101
vn -0.5311 0.8463 0.0423
vn -0.8261 -0.5408 -0.1585
vn 0.5417 -0.8255 -0.1585
vn -0.5393 0.8369 0.0933
vn 0.8246 0.5641 0.0423
vn 0.8284 0.5523 0.0933
vn 0.8337 0.5395 0.1176
vn -0.5492 0.8273 0.1176
vn 0.5498 -0.8249 -0.1317
vn 0.5496 -0.8257 -0.1270
vn 0.8336 0.5387 0.1223
vn -0.5494 0.8265 0.1223
vn -0.8332 -0.5370 -0.1317
vn -0.8334 -0.5378 -0.1270
vn -0.6603 -0.3392 -0.6700
vn 0.4701 -0.5745 -0.6700
vn -0.4287 0.7736 -0.4667
vn 0.7018 0.5383 -0.4667
vn -0.4403 0.7181 0.5390
vn -0.6751 -0.4100 0.6133
vn 0.4554 -0.6453 0.6133
vn 0.6902 0.4828 0.5390
vn 0.4403 -0.7181 -0.5390
vn 0.6751 0.4100 -0.6133
vn -0.4554 0.6453 -0.6133
vn -0.6902 -0.4828 -0.5390
vn -0.3698 0.7209 0.5861
vn 0.7325 0.3775 0.5665
vn 0.7132 0.3815 -0.5881
vn -0.3891 0.7249 -0.5684
vn 0.3698 -0.7209 -0.5861
vn -0.7325 -0.3775 -0.5665
vn -0.7132 -0.3815 0.5881
vn 0.3891 -0.7249 0.5684
vn 0.6267 0.5135 0.5861
vn 0.6460 0.5095 -0.5684
vn -0.5017 0.6344 -0.5881
vn -0.5211 0.6384 0.5665
vn 0.5211 -0.6384 -0.5665
vn -0.6267 -0.5135 -0.5861
vn 0.5017 -0.6344 0.5881
vn -0.6460 -0.5095 0.5684
vn 0.7046 0.4097 0.5794
vn -0.4776 0.6604 0.5795
vn -0.7547 -0.2610 0.6019
vn 0.5868 -0.5395 0.6039
vn 0.7026 0.4329 -0.5648
vn -0.4662 0.6808 -0.5649
vn 0.5900 -0.4915 -0.6405
vn 0.0785 -0.7925 0.6048
vn 0.0802 -0.7227 -0.6865
vn -0.3859 -0.6965 0.6049
vn -0.7381 -0.2138 -0.6399
vn -0.3591 -0.6311 -0.6876
vn 0.4113 -0.7123 0.5688
vn 0.4233 -0.6783 -0.6006
vn 0.7098 0.4536 -0.5389
vn 0.7038 0.3801 0.6002
vn -0.4781 0.6405 0.6010
vn -0.6650 -0.4841 0.5686
vn -0.6629 -0.4478 -0.6001
vn -0.4589 0.7083 -0.5364
vn 0.3989 -0.7316 0.5529
vn 0.4297 -0.6748 -0.5999
vn 0.7005 0.3825 -0.6026
vn 0.7068 0.4443 0.5504
vn -0.4602 0.6992 0.5472
vn -0.6699 -0.4950 0.5533
vn -0.6689 -0.4353 -0.6026
vn -0.4742 0.6418 -0.6027
vn 0.4261 -0.6695 0.6085
vn 0.4006 -0.7231 -0.5627
vn 0.7129 0.4885 -0.5031
vn 0.7017 0.3437 0.6241
vn -0.4964 0.6038 0.6237
vn -0.6643 -0.4311 0.6106
vn -0.6678 -0.4868 -0.5631
vn -0.4448 0.7415 -0.5022
vn 0.3869 -0.7761 0.4980
vn 0.4455 -0.6253 -0.6407
vn 0.7170 0.5095 -0.4758
vn 0.6918 0.2890 0.6617
vn -0.5011 0.5577 0.6617
vn -0.6708 -0.5470 0.5007
vn -0.6659 -0.3828 -0.6403
vn -0.4351 0.7676 -0.4706
vn -0.6873 -0.4062 -0.6021
vn 0.4682 -0.6467 -0.6021
vn 0.4318 -0.7124 0.5532
vn -0.6802 -0.4809 0.5532
vn 0.6805 0.4579 -0.5721
vn 0.6847 0.4433 0.5785
vn -0.4509 0.6797 0.5785
vn -0.4413 0.6914 -0.5721
vn -0.4537 0.6552 0.6040
vn -0.6881 -0.4741 0.5494
vn 0.4417 -0.7093 0.5494
vn 0.6774 0.4198 0.6040
vn 0.4537 -0.6552 -0.6040
vn 0.6881 0.4741 -0.5494
vn -0.4417 0.7093 -0.5494
vn -0.6774 -0.4198 -0.6040
vt 0.260220 0.704599
vt 0.271953 0.704599
vt 0.271953 0.918768
vt 0.260220 0.918768
vt 0.986617 0.063677
vt 0.998350 0.063597
vt 0.998350 0.120909
vt 0.986617 0.120989
vt 0.340998 0.918768
vt 0.340998 0.704599
vt 0.398309 0.704599
vt 0.398309 0.918768
vt 0.998345 0.058955
vt 0.986612 0.058876
vt 0.986612 0.001564
vt 0.998345 0.001644
vt 0.329265 0.918768
vt 0.329265 0.704599
vt 0.992174 0.420907
vt 0.993080 0.758638
vt 0.985887 0.758596
vt 0.984992 0.420920
vt 0.979222 0.359856
vt 0.988460 0.362552
vt 0.991593 0.408322
vt 0.984138 0.408339
vt 0.454208 0.430860
vt 0.445854 0.423392
vt 0.449999 0.424098
vt 0.453057 0.426831
vt 0.988400 0.813226
vt 0.979269 0.815523
vt 0.984886 0.771069
vt 0.992349 0.771109
vt 0.792598 0.365439
vt 0.792598 0.712102
vt 0.782975 0.711966
vt 0.783187 0.365717
vt 0.991877 0.412539
vt 0.984559 0.412554
vt 0.992089 0.416690
vt 0.984870 0.416704
vt 0.992993 0.762828
vt 0.985764 0.762786
vt 0.992728 0.766921
vt 0.985400 0.766881
vt 0.738596 0.361351
vt 0.730202 0.368812
vt 0.731364 0.364784
vt 0.734436 0.362054
vt 0.730155 0.713407
vt 0.727152 0.710525
vt 0.726090 0.706443
vt 0.734294 0.714315
vt 0.449581 0.776416
vt 0.457776 0.768551
vt 0.403754 0.774156
vt 0.403754 0.427493
vt 0.453711 0.775512
vt 0.456710 0.772633
vt 0.514662 0.007202
vt 0.512075 0.091187
vt 0.501141 0.007138
vt 0.531397 0.007949
vt 0.531433 0.091879
vt 0.880168 0.683927
vt 0.880199 0.700713
vt 0.874580 0.700764
vt 0.874549 0.683978
vt 0.510170 0.003846
vt 0.487621 0.007077
vt 0.492143 0.003763
vt 0.482788 0.091190
vt 0.501167 0.001559
vt 0.496658 0.002007
vt 0.505672 0.002048
vt 0.560617 0.092674
vt 0.579973 0.091535
vt 0.584009 0.175632
vt 0.561866 0.176783
vt 0.509675 0.175368
vt 0.479619 0.175381
vt 0.558435 0.008664
vt 0.575128 0.007475
vt 0.544914 0.008304
vt 0.531875 0.176036
vt 0.554016 0.005210
vt 0.535990 0.004734
vt 0.549556 0.003313
vt 0.545061 0.002726
vt 0.540542 0.003075
vt 0.869725 0.700790
vt 0.869694 0.684003
vt 0.865183 0.700796
vt 0.865152 0.684009
vt 0.860642 0.700788
vt 0.860611 0.684002
vt 0.855786 0.700761
vt 0.855755 0.683975
vt 0.850167 0.700713
vt 0.850136 0.683927
vt 0.532900 0.301978
vt 0.505580 0.300522
vt 0.564030 0.302188
vt 0.474431 0.299733
vt 0.535504 0.425725
vt 0.496908 0.425177
vt 0.465407 0.425013
vt 0.591114 0.299722
vt 0.606361 0.424669
vt 0.567275 0.425896
vt 0.601138 0.552830
vt 0.566407 0.553004
vt 0.534786 0.552723
vt 0.500101 0.551911
vt 0.534650 0.675164
vt 0.503720 0.675432
vt 0.563508 0.675256
vt 0.468424 0.552915
vt 0.474890 0.676314
vt 0.506787 0.782053
vt 0.479749 0.782830
vt 0.534361 0.780894
vt 0.473381 0.140109
vt 0.473743 0.168992
vt 0.470113 0.165387
vt 0.470040 0.143724
vt 0.444297 0.168992
vt 0.447938 0.165580
vt 0.447500 0.143505
vt 0.444000 0.140089
vt 0.594474 0.676240
vt 0.588975 0.782773
vt 0.561416 0.780978
vt 0.795700 0.698485
vt 0.795700 0.675649
vt 0.818022 0.675649
vt 0.818022 0.698485
vt 0.067537 0.776478
vt 0.067574 0.692549
vt 0.081054 0.776124
vt 0.050803 0.777226
vt 0.048216 0.693240
vt 0.072131 0.779694
vt 0.862193 0.301395
vt 0.867811 0.301445
vt 0.867780 0.318231
vt 0.862162 0.318181
vt 0.096758 0.691753
vt 0.094575 0.775763
vt 0.090157 0.779218
vt 0.076683 0.781352
vt 0.081202 0.781702
vt 0.085696 0.781114
vt 0.116114 0.692892
vt 0.111269 0.776952
vt 0.068016 0.608392
vt 0.098007 0.607645
vt 0.120149 0.608796
vt 0.018929 0.693238
vt 0.015760 0.609047
vt 0.045816 0.609060
vt 0.037282 0.777289
vt 0.023762 0.777351
vt 0.028284 0.780664
vt 0.046311 0.780581
vt 0.032798 0.782421
vt 0.037307 0.782868
vt 0.041812 0.782379
vt 0.872667 0.301471
vt 0.872636 0.318257
vt 0.877208 0.301477
vt 0.877178 0.318263
vt 0.881750 0.301470
vt 0.881719 0.318256
vt 0.886606 0.301443
vt 0.886575 0.318229
vt 0.892224 0.301395
vt 0.892194 0.318181
vt 0.041721 0.483906
vt 0.069041 0.482450
vt 0.010571 0.484695
vt 0.100171 0.482240
vt 0.033048 0.359251
vt 0.071645 0.358703
vt 0.103416 0.358532
vt 0.142502 0.359759
vt 0.127255 0.484706
vt 0.001548 0.359415
vt 0.004565 0.231513
vt 0.036242 0.232517
vt 0.102548 0.231424
vt 0.137279 0.231598
vt 0.011031 0.108114
vt 0.039860 0.108996
vt 0.099649 0.109171
vt 0.130615 0.108188
vt 0.015890 0.001598
vt 0.042928 0.002375
vt 0.097557 0.003450
vt 0.125116 0.001654
vt 0.447693 0.211960
vt 0.447620 0.233623
vt 0.443990 0.237228
vt 0.444352 0.208345
vt 0.473733 0.208325
vt 0.470232 0.211741
vt 0.469795 0.233816
vt 0.473436 0.237228
vt 0.070502 0.003534
vt 0.070791 0.109263
vt 0.070926 0.231705
vt 0.843448 0.700554
vt 0.821126 0.700554
vt 0.821126 0.677718
vt 0.843448 0.677718
vt 0.861196 0.355744
vt 0.820689 0.356864
vt 0.818522 0.268176
vt 0.856064 0.266725
vt 0.901562 0.264156
vt 0.901562 0.296600
vt 0.860973 0.296600
vt 0.860973 0.264156
vt 0.720358 0.266799
vt 0.750633 0.269034
vt 0.747809 0.358208
vt 0.715509 0.355821
vt 0.816351 0.179417
vt 0.850968 0.177683
vt 0.725178 0.177758
vt 0.753398 0.179769
vt 0.788329 0.358280
vt 0.788188 0.269510
vt 0.788063 0.180627
vt 0.756053 0.090214
vt 0.787883 0.091432
vt 0.814440 0.090455
vt 0.729559 0.088559
vt 0.732951 0.001642
vt 0.758629 0.003100
vt 0.787410 0.004740
vt 0.471486 0.271973
vt 0.443979 0.272269
vt 0.447553 0.268649
vt 0.467840 0.268632
vt 0.468047 0.244987
vt 0.471493 0.241431
vt 0.443979 0.241774
vt 0.447363 0.245457
vt 0.846135 0.088521
vt 0.813114 0.003884
vt 0.841898 0.001672
vt 0.907259 0.683916
vt 0.907259 0.704791
vt 0.883284 0.704791
vt 0.883284 0.683916
vt 0.729746 0.004089
vt 0.724615 0.093109
vt 0.687073 0.091657
vt 0.689240 0.002970
vt 0.858835 0.226937
vt 0.899424 0.226937
vt 0.899424 0.259381
vt 0.858835 0.259381
vt 0.588909 0.093035
vt 0.584059 0.004012
vt 0.616359 0.001625
vt 0.619183 0.090800
vt 0.719518 0.182151
vt 0.684902 0.180417
vt 0.593729 0.182076
vt 0.621948 0.180064
vt 0.656738 0.090323
vt 0.656879 0.001554
vt 0.656614 0.179207
vt 0.656433 0.268402
vt 0.624603 0.269620
vt 0.682991 0.269379
vt 0.598109 0.271275
vt 0.601502 0.358192
vt 0.627179 0.356733
vt 0.655961 0.355094
vt 0.467842 0.176830
vt 0.447555 0.176813
vt 0.443980 0.173193
vt 0.471488 0.173490
vt 0.471495 0.204032
vt 0.468049 0.200475
vt 0.447365 0.200005
vt 0.443980 0.203688
vt 0.714685 0.271313
vt 0.710449 0.358162
vt 0.681665 0.355950
vt 0.683727 0.700463
vt 0.707702 0.700463
vt 0.707702 0.721338
vt 0.683727 0.721338
vt 0.998011 0.183707
vt 0.986618 0.183707
vt 0.986618 0.125614
vt 0.998011 0.125614
vt 0.145600 0.363645
vt 0.145600 0.352251
vt 0.444149 0.352251
vt 0.444149 0.363645
vt 0.444149 0.421738
vt 0.145600 0.421738
vt 0.444149 0.282765
vt 0.444149 0.294158
vt 0.145600 0.294158
vt 0.145600 0.282765
vt 0.998008 0.245741
vt 0.986614 0.245741
vt 0.986614 0.187648
vt 0.998008 0.187648
vt 0.458641 0.276568
vt 0.458641 0.334661
vt 0.447248 0.334661
vt 0.447248 0.276568
vt 0.142326 0.198190
vt 0.440874 0.198190
vt 0.440874 0.209583
vt 0.142326 0.209583
vt 0.142326 0.140097
vt 0.440874 0.140097
vt 0.440875 0.279070
vt 0.142326 0.279070
vt 0.142326 0.267676
vt 0.440875 0.267676
vt 0.447255 0.396695
vt 0.447255 0.338602
vt 0.458648 0.338602
vt 0.458648 0.396695
vt 0.893240 0.222289
vt 0.879590 0.222289
vt 0.879590 0.001548
vt 0.893240 0.001548
vt 0.902526 0.226937
vt 0.916176 0.226937
vt 0.916176 0.249829
vt 0.902526 0.249829
vt 0.916131 0.001548
vt 0.916131 0.222289
vt 0.998260 0.351152
vt 0.984610 0.351152
vt 0.984610 0.328260
vt 0.998260 0.328260
vt 0.929781 0.001548
vt 0.929781 0.222289
vt 0.856698 0.222289
vt 0.856698 0.001548
vt 0.792114 0.994408
vt 0.792114 0.981673
vt 0.848111 0.981673
vt 0.848111 0.994408
vt 0.886258 0.981673
vt 0.886258 0.994408
vt 0.237843 0.833698
vt 0.183171 0.833698
vt 0.184546 0.795646
vt 0.240542 0.795646
vt 0.132483 0.833698
vt 0.132481 0.795646
vt 0.784835 0.994408
vt 0.784835 0.981673
vt 0.132477 0.777496
vt 0.184546 0.788367
vt 0.126437 0.833698
vt 0.126438 0.795646
vt 0.126438 0.776974
vt 0.126437 0.846433
vt 0.132483 0.846433
vt 0.183171 0.846433
vt 0.132481 0.884485
vt 0.126437 0.884485
vt 0.184546 0.884485
vt 0.237843 0.846433
vt 0.240542 0.884485
vt 0.132477 0.902635
vt 0.126437 0.903157
vt 0.184546 0.891764
vt 0.731644 0.981673
vt 0.731644 0.994408
vt 0.725582 0.994408
vt 0.725582 0.981673
vt 0.120398 0.902635
vt 0.120394 0.884485
vt 0.719520 0.994408
vt 0.719520 0.981673
vt 0.120394 0.795646
vt 0.120398 0.777496
vt 0.068329 0.795646
vt 0.068329 0.788367
vt 0.666329 0.994408
vt 0.666329 0.981673
vt 0.659050 0.994408
vt 0.659050 0.981673
vt 0.603053 0.994408
vt 0.603053 0.981673
vt 0.069704 0.833698
vt 0.015032 0.833698
vt 0.012333 0.795646
vt 0.120392 0.833698
vt 0.015032 0.846433
vt 0.069704 0.846433
vt 0.068329 0.884485
vt 0.012333 0.884485
vt 0.120392 0.846433
vt 0.068329 0.891764
vt 0.564906 0.994408
vt 0.564906 0.981673
vt 0.007960 0.020161
vt 0.007960 0.034865
vt 0.001551 0.034865
vt 0.001551 0.020161
vt 0.305316 0.959157
vt 0.535251 0.959156
vt 0.535250 0.965566
vt 0.305316 0.965565
vt 0.305316 0.944453
vt 0.535251 0.944452
vt 0.535251 0.986678
vt 0.305316 0.986678
vt 0.305316 0.980269
vt 0.535250 0.980270
vt 0.845728 0.016252
vt 0.845728 0.001548
vt 0.852137 0.001548
vt 0.852137 0.016252
vt 0.846635 0.020160
vt 0.853044 0.020160
vt 0.853044 0.034863
vt 0.846635 0.034863
vt 0.961292 0.971748
vt 0.954883 0.971748
vt 0.954883 0.741814
vt 0.961292 0.741813
vt 0.975996 0.741813
vt 0.975997 0.971748
vt 0.933770 0.741813
vt 0.940179 0.741814
vt 0.940179 0.971748
vt 0.933770 0.971748
vt 0.001552 0.001555
vt 0.007962 0.001555
vt 0.007962 0.016259
vt 0.001552 0.016259
vt 0.705176 0.965314
vt 0.705176 0.912680
vt 0.733594 0.912680
vt 0.733594 0.965314
vt 0.054183 0.989943
vt 0.054183 0.998410
vt 0.001549 0.998410
vt 0.001549 0.989943
vt 0.082600 0.989943
vt 0.082600 0.998410
vt 0.085741 0.989943
vt 0.085741 0.998410
vt 0.736471 0.911419
vt 0.736471 0.966575
vt 0.924434 0.255360
vt 0.977068 0.255360
vt 0.978329 0.258237
vt 0.923173 0.258236
vt 0.977068 0.226942
vt 0.924434 0.226942
vt 0.533387 0.989943
vt 0.533387 0.998410
vt 0.530246 0.998410
vt 0.530246 0.989943
vt 0.561805 0.989943
vt 0.561805 0.998410
vt 0.982650 0.262632
vt 0.918852 0.262632
vt 0.524082 0.998410
vt 0.524082 0.989943
vt 0.985630 0.268524
vt 0.915872 0.268524
vt 0.517480 0.998410
vt 0.517480 0.989943
vt 0.508896 0.998410
vt 0.508896 0.989943
vt 0.988012 0.276770
vt 0.913490 0.276770
vt 0.755004 0.901736
vt 0.755004 0.976258
vt 0.746758 0.973876
vt 0.746758 0.904118
vt 0.740866 0.970896
vt 0.740866 0.907098
vt 0.107091 0.989943
vt 0.107091 0.998410
vt 0.098508 0.998410
vt 0.098508 0.989943
vt 0.091905 0.998410
vt 0.091905 0.989943
vt 0.763193 0.901039
vt 0.763193 0.976955
vt 0.115309 0.989943
vt 0.115309 0.998410
vt 0.125788 0.989943
vt 0.125788 0.998410
vt 0.773657 0.901589
vt 0.773657 0.976405
vt 0.912793 0.284959
vt 0.988709 0.284958
vt 0.988159 0.295423
vt 0.913343 0.295423
vt 0.986155 0.305901
vt 0.915347 0.305901
vt 0.136456 0.989943
vt 0.136456 0.998410
vt 0.983933 0.316370
vt 0.917569 0.316370
vt 0.147158 0.989943
vt 0.147158 0.998410
vt 0.479531 0.989943
vt 0.479531 0.998410
vt 0.468829 0.998410
vt 0.468829 0.989943
vt 0.490200 0.989943
vt 0.490200 0.998410
vt 0.794604 0.905815
vt 0.794604 0.972179
vt 0.784136 0.974401
vt 0.784136 0.903593
vt 0.500678 0.989943
vt 0.500678 0.998410
vt 0.808087 0.909030
vt 0.808087 0.968964
vt 0.454969 0.998410
vt 0.454969 0.989943
vt 0.442418 0.998410
vt 0.442418 0.989943
vt 0.820408 0.911420
vt 0.820408 0.966574
vt 0.920784 0.329853
vt 0.980718 0.329853
vt 0.978328 0.342174
vt 0.923174 0.342174
vt 0.161019 0.998410
vt 0.161019 0.989943
vt 0.173570 0.989943
vt 0.173570 0.998410
vt 0.975914 0.356804
vt 0.925589 0.356805
vt 0.188399 0.989943
vt 0.188399 0.998410
vt 0.974998 0.368029
vt 0.926504 0.368030
vt 0.199661 0.989943
vt 0.199661 0.998410
vt 0.427589 0.989943
vt 0.427589 0.998410
vt 0.416327 0.998410
vt 0.416327 0.989943
vt 0.846264 0.914750
vt 0.846264 0.963244
vt 0.835039 0.964159
vt 0.835039 0.913835
vt 0.860485 0.914941
vt 0.860485 0.963053
vt 0.402104 0.998410
vt 0.402104 0.989943
vt 0.382591 0.998410
vt 0.382591 0.989943
vt 0.879998 0.915073
vt 0.879998 0.962921
vt 0.926695 0.382251
vt 0.974807 0.382251
vt 0.974675 0.401764
vt 0.926827 0.401764
vt 0.233397 0.989943
vt 0.233397 0.998410
vt 0.213884 0.998410
vt 0.213884 0.989943
vt 0.974675 0.452437
vt 0.926827 0.452437
vt 0.284070 0.989943
vt 0.284070 0.998410
vt 0.331918 0.989943
vt 0.331918 0.998410
vt 0.930671 0.915073
vt 0.930671 0.962921
vt 0.377911 0.425448
vt 0.389644 0.425448
vt 0.389644 0.699658
vt 0.377911 0.699658
vt 0.916328 0.326194
vt 0.916328 0.337927
vt 0.863350 0.337927
vt 0.863350 0.326194
vt 0.324933 0.699658
vt 0.324933 0.425448
vt 0.013288 0.681070
vt 0.001555 0.681070
vt 0.001555 0.628092
vt 0.013288 0.628092
vt 0.313200 0.699658
vt 0.313200 0.425448
vt 0.260222 0.699658
vt 0.260222 0.425448
vt 0.950968 0.462664
vt 0.962701 0.462664
vt 0.962701 0.736874
vt 0.950968 0.736874
vt 0.466508 0.148363
vt 0.466508 0.160096
vt 0.450954 0.160096
vt 0.450954 0.148363
vt 0.935414 0.736874
vt 0.935414 0.462664
vt 0.450790 0.228337
vt 0.450790 0.216604
vt 0.466344 0.216604
vt 0.466344 0.228337
vt 0.923681 0.736874
vt 0.923681 0.462664
vt 0.978255 0.462664
vt 0.978256 0.736874
vt 0.447246 0.400636
vt 0.458719 0.400636
vt 0.458719 0.414373
vt 0.447246 0.414373
vt 0.702071 0.890693
vt 0.702071 0.902166
vt 0.401406 0.902166
vt 0.401406 0.890694
vt 0.401406 0.941114
vt 0.401406 0.927377
vt 0.702071 0.927376
vt 0.702071 0.941114
vt 0.401406 0.915904
vt 0.702071 0.915904
vt 0.998454 0.263425
vt 0.986982 0.263425
vt 0.986982 0.249687
vt 0.998454 0.249687
vt 0.471505 0.673575
vt 0.471505 0.687313
vt 0.460033 0.687313
vt 0.460033 0.673575
vt 0.001549 0.923774
vt 0.302216 0.923774
vt 0.302216 0.935247
vt 0.001549 0.935246
vt 0.302216 0.974194
vt 0.001549 0.974195
vt 0.001549 0.960457
vt 0.302216 0.960456
vt 0.001549 0.948984
vt 0.302216 0.948984
vt 0.909061 0.312854
vt 0.895324 0.312854
vt 0.895324 0.301381
vt 0.909061 0.301381
vt 0.915342 0.794365
vt 0.600355 0.794358
vt 0.604801 0.733920
vt 0.910818 0.734897
vt 0.915368 0.803381
vt 0.600328 0.803381
vt 0.920385 0.735745
vt 0.924359 0.794360
vt 0.898092 0.725769
vt 0.904515 0.718527
vt 0.917191 0.727712
vt 0.617782 0.724866
vt 0.598524 0.726644
vt 0.611459 0.717533
vt 0.591332 0.794377
vt 0.595233 0.734811
vt 0.712117 0.866561
vt 0.699391 0.875675
vt 0.418894 0.876556
vt 0.405911 0.867513
vt 0.716573 0.807980
vt 0.401534 0.807980
vt 0.699323 0.885355
vt 0.419013 0.886239
vt 0.906392 0.671247
vt 0.906420 0.680044
vt 0.859817 0.681409
vt 0.860275 0.673631
vt 0.864287 0.358987
vt 0.914260 0.363998
vt 0.923060 0.364198
vt 0.915186 0.671498
vt 0.806001 0.669984
vt 0.806001 0.362582
vt 0.856434 0.358825
vt 0.852485 0.673581
vt 0.864301 0.351133
vt 0.914709 0.355207
vt 0.468286 0.009544
vt 0.476263 0.009994
vt 0.480951 0.067748
vt 0.471904 0.069112
vt 0.140726 0.069236
vt 0.145794 0.009606
vt 0.145728 0.001554
vt 0.468334 0.001554
vt 0.468381 0.136103
vt 0.145776 0.136382
vt 0.140800 0.078282
vt 0.471842 0.078263
vt 0.137744 0.009772
vt 0.131797 0.067781
vt 0.618365 0.369638
vt 0.617267 0.360753
vt 0.668304 0.359331
vt 0.666858 0.366560
vt 0.665790 0.697949
vt 0.618264 0.693786
vt 0.609412 0.693715
vt 0.609412 0.369700
vt 0.725163 0.370035
vt 0.723142 0.694044
vt 0.673191 0.698104
vt 0.674230 0.366487
vt 0.617045 0.702554
vt 0.667089 0.705236
vt 0.143601 0.436678
vt 0.144665 0.429418
vt 0.197298 0.425596
vt 0.195099 0.434698
vt 0.190669 0.772549
vt 0.134558 0.766288
vt 0.127191 0.766217
vt 0.136269 0.436381
vt 0.257122 0.438160
vt 0.257122 0.768121
vt 0.199823 0.772942
vt 0.204465 0.434690
vt 0.135197 0.773629
vt 0.192144 0.781592
vt 0.724852 0.843237
vt 0.920384 0.843237
vt 0.920326 0.852130
vt 0.724910 0.852130
vt 0.929061 0.853797
vt 0.928440 0.889050
vt 0.920192 0.888239
vt 0.725044 0.888239
vt 0.716797 0.889050
vt 0.716175 0.853797
vt 0.725028 0.807979
vt 0.920208 0.807979
vt 0.920208 0.896526
vt 0.725028 0.896526
vt 0.946464 0.001554
vt 0.958197 0.001554
vt 0.958198 0.215723
vt 0.946465 0.215723
vt 0.464216 0.181448
vt 0.464292 0.193181
vt 0.450714 0.193181
vt 0.450638 0.181448
vt 0.932886 0.215723
vt 0.932886 0.001554
vt 0.462354 0.263344
vt 0.450621 0.263268
vt 0.450621 0.249690
vt 0.462354 0.249766
vt 0.983509 0.215723
vt 0.971776 0.215723
vt 0.971776 0.001554
vt 0.983509 0.001554
s 1
usemtl Diffuse_Chair
f 172/247/36 173/248/37 170/249/38 169/250/39
f 169/251/39 170/252/38 176/253/40 171/254/41
f 171/255/41 174/256/42 172/257/36 169/258/39
f 174/259/42 175/260/43 173/261/37 172/262/36
f 171/255/41 176/263/40 175/264/43 174/256/42
f 175/264/43 176/263/40 170/249/38 173/248/37
f 185/265/44 194/266/45 189/267/46 182/268/47
f 177/269/48 178/270/49 186/271/50 181/272/51
f 194/273/45 193/274/52 195/275/53 196/276/54
f 180/277/55 179/278/56 190/279/57 193/280/52
f 180/281/55 178/282/49 177/283/48 179/284/56
f 181/272/51 186/271/50 188/285/58 183/286/59
f 183/286/59 188/285/58 187/287/60 184/288/61
f 184/288/61 187/287/60 185/265/44 182/268/47
f 189/267/46 194/266/45 196/289/54 191/290/62
f 191/290/62 196/289/54 195/291/53 192/292/63
f 192/292/63 195/291/53 193/280/52 190/279/57
f 190/293/57 189/294/46 191/295/62 192/296/63
f 183/297/59 184/298/61 182/299/47 181/300/51
f 177/283/48 181/300/51 190/293/57 179/284/56
f 181/300/51 182/299/47 189/294/46 190/293/57
f 186/301/50 193/274/52 194/273/45 185/302/44
f 178/303/49 180/304/55 193/274/52 186/301/50
f 188/305/58 186/301/50 185/302/44 187/306/60
f 197/307/64 198/308/65 201/309/66
f 199/310/67 212/311/68 198/308/65 197/307/64
f 199/312/67 197/313/64 200/314/69 218/315/70
f 200/316/69 197/307/64 201/309/66
f 201/309/66 202/317/71 206/318/72
f 207/319/73 202/317/71 201/309/66
f 203/320/74 201/309/66 205/321/75
f 204/322/76 201/309/66 203/320/74
f 204/322/76 200/316/69 201/309/66
f 205/321/75 201/309/66 206/318/72
f 198/308/65 207/319/73 201/309/66
f 209/323/77 207/324/73 208/325/78 211/326/79
f 198/308/65 221/327/80 208/328/78 207/319/73
f 210/329/81 202/330/71 207/324/73 209/323/77
f 209/323/77 213/331/82 210/329/81
f 219/332/83 212/311/68 209/323/77 211/326/79
f 209/323/77 212/311/68 213/331/82
f 213/331/82 214/333/84 210/329/81
f 212/311/68 199/310/67 213/331/82
f 199/310/67 218/334/70 213/331/82
f 213/331/82 215/335/85 214/333/84
f 213/331/82 216/336/86 215/335/85
f 213/331/82 217/337/87 216/336/86
f 218/334/70 217/337/87 213/331/82
f 218/315/70 200/314/69 204/338/76 217/339/87
f 217/339/87 204/338/76 203/340/74 216/341/86
f 216/341/86 203/340/74 205/342/75 215/343/85
f 215/343/85 205/342/75 206/344/72 214/345/84
f 214/345/84 206/344/72 202/346/71 210/347/81
f 212/311/68 219/332/83 221/327/80 198/308/65
f 219/332/83 220/348/88 222/349/89 221/327/80
f 220/348/88 219/332/83 211/326/79 226/350/90
f 221/327/80 222/349/89 224/351/91 208/328/78
f 220/348/88 229/352/92 223/353/93 222/349/89
f 222/349/89 223/353/93 225/354/94 224/351/91
f 211/326/79 208/325/78 224/355/91 226/350/90
f 226/350/90 224/355/91 225/356/94 227/357/95
f 229/352/92 220/348/88 226/350/90 227/357/95
f 227/357/95 225/356/94 233/358/96 228/359/97
f 230/360/98 229/352/92 227/357/95 228/359/97
f 223/353/93 229/352/92 230/360/98 232/361/99
f 232/361/99 230/360/98 231/362/100 234/363/101
f 231/362/100 230/360/98 228/359/97 243/364/102
f 223/353/93 232/361/99 233/365/96 225/354/94
f 232/361/99 234/363/101 235/366/103 233/365/96
f 234/363/101 236/367/104 239/368/105 235/366/103
f 234/363/101 231/362/100 238/369/106 236/367/104
f 239/370/105 236/371/104 237/372/107 240/373/108
f 236/371/104 238/374/106 244/375/109 237/372/107
f 240/373/108 242/376/110 241/377/111 239/370/105
f 243/364/102 235/378/103 239/379/105 241/380/111
f 238/374/106 241/377/111 242/376/110 244/375/109
f 238/369/106 231/362/100 243/364/102 241/380/111
f 228/359/97 233/358/96 235/378/103 243/364/102
f 237/381/107 244/382/109 242/383/110 240/384/108
f 245/385/112 246/386/113 249/387/82
f 245/385/112 248/388/114 260/389/115 246/386/113
f 245/385/112 249/387/82 247/390/116
f 245/391/112 247/392/116 266/393/117 248/394/114
f 255/395/118 250/396/119 249/387/82
f 249/387/82 250/396/119 254/397/120
f 247/390/116 249/387/82 251/398/121
f 251/398/121 249/387/82 252/399/122
f 252/399/122 249/387/82 253/400/123
f 253/400/123 249/387/82 254/397/120
f 246/386/113 255/395/118 249/387/82
f 250/396/119 255/395/118 257/401/124 259/402/125
f 269/403/126 256/404/127 255/395/118 246/386/113
f 255/395/118 256/404/127 258/405/128 257/401/124
f 260/389/115 257/406/124 258/407/128 267/408/129
f 257/406/124 261/409/66 259/410/125
f 257/406/124 260/389/115 261/409/66
f 261/409/66 262/411/130 259/410/125
f 260/389/115 248/388/114 261/409/66
f 248/388/114 266/412/117 261/409/66
f 261/409/66 263/413/131 262/411/130
f 261/409/66 264/414/132 263/413/131
f 261/409/66 265/415/133 264/414/132
f 266/412/117 265/415/133 261/409/66
f 247/392/116 251/416/121 265/417/133 266/393/117
f 251/416/121 252/418/122 264/419/132 265/417/133
f 252/418/122 253/420/123 263/421/131 264/419/132
f 253/420/123 254/422/120 262/423/130 263/421/131
f 254/422/120 250/424/119 259/425/125 262/423/130
f 246/386/113 260/389/115 267/408/129 269/403/126
f 269/403/126 267/408/129 268/426/134 270/427/135
f 267/408/129 258/407/128 274/428/136 268/426/134
f 270/427/135 272/429/137 256/404/127 269/403/126
f 270/427/135 268/426/134 276/430/138 271/431/139
f 271/431/139 273/432/140 272/429/137 270/427/135
f 272/429/137 273/432/140 275/433/141 274/434/136
f 256/404/127 272/429/137 274/434/136 258/405/128
f 268/426/134 274/428/136 275/435/141 276/430/138
f 276/430/138 275/435/141 277/436/142 278/437/143
f 273/432/140 279/438/144 277/439/142 275/433/141
f 278/437/143 277/436/142 280/440/145 281/441/146
f 279/438/144 282/442/147 280/443/145 277/439/142
f 281/441/146 280/440/145 283/444/148 286/445/149
f 282/442/147 285/446/150 283/447/148 280/443/145
f 284/448/151 287/449/152 286/450/149 283/451/148
f 283/451/148 285/452/150 292/453/153 284/448/151
f 287/449/152 289/454/154 288/455/155 286/450/149
f 281/441/146 286/445/149 288/456/155 290/457/156
f 289/454/154 292/453/153 285/452/150 288/455/155
f 288/456/155 285/446/150 282/442/147 290/457/156
f 278/437/143 281/441/146 290/457/156 291/458/157
f 290/457/156 282/442/147 279/438/144 291/458/157
f 276/430/138 278/437/143 291/458/157 271/431/139
f 291/458/157 279/438/144 273/432/140 271/431/139
f 287/459/152 284/460/151 292/461/153 289/462/154
f 293/463/158 294/464/159 299/465/160 296/466/161
f 293/467/158 295/468/162 302/469/163 294/470/159
f 296/471/161 298/472/164 295/473/162 293/474/158
f 296/466/161 299/465/160 300/475/165 297/476/161
f 297/477/161 305/478/166 298/472/164 296/471/161
f 294/464/159 302/479/163 301/480/167 299/465/160
f 299/465/160 301/480/167 303/481/168 300/475/165
f 295/473/162 298/472/164 301/480/167 302/479/163
f 298/472/164 305/478/166 303/481/168 301/480/167
f 305/478/166 306/482/169 304/483/170 303/481/168
f 300/475/165 303/481/168 304/483/170 315/484/171
f 307/485/172 306/482/169 305/478/166 297/477/161
f 311/486/173 308/487/174 306/482/169 307/485/172
f 306/482/169 308/487/174 310/488/175 304/483/170
f 308/489/174 311/490/173 312/491/176 309/492/177
f 309/492/177 316/493/178 310/494/175 308/489/174
f 311/490/173 313/495/179 314/496/180 312/491/176
f 307/497/172 315/484/171 313/498/179 311/499/173
f 313/495/179 310/494/175 316/493/178 314/496/180
f 315/484/171 304/483/170 310/488/175 313/498/179
f 297/476/161 300/475/165 315/484/171 307/497/172
f 314/500/180 316/501/178 309/502/177 312/503/176
f 317/504/181 320/505/182 323/506/183 318/507/184
f 317/508/181 318/509/184 326/510/185 319/511/186
f 320/512/182 317/513/181 319/514/186 322/515/187
f 320/505/182 321/516/182 324/517/183 323/506/183
f 321/518/182 320/512/182 322/515/187 329/519/188
f 318/507/184 323/506/183 325/520/189 326/521/185
f 323/506/183 324/517/183 327/522/190 325/520/189
f 319/514/186 326/521/185 325/520/189 322/515/187
f 322/515/187 325/520/189 327/522/190 329/519/188
f 329/519/188 327/522/190 328/523/191 330/524/192
f 324/517/183 339/525/193 328/523/191 327/522/190
f 331/526/194 321/518/182 329/519/188 330/524/192
f 335/527/195 331/526/194 330/524/192 332/528/196
f 330/524/192 328/523/191 334/529/197 332/528/196
f 333/530/198 336/531/199 335/532/195 332/533/196
f 332/533/196 334/534/197 340/535/200 333/530/198
f 336/531/199 338/536/201 337/537/202 335/532/195
f 331/538/194 335/539/195 337/540/202 339/525/193
f 338/536/201 340/535/200 334/534/197 337/537/202
f 339/525/193 337/540/202 334/529/197 328/523/191
f 321/516/182 331/538/194 339/525/193 324/517/183
f 338/541/201 336/542/199 333/543/198 340/544/200
f 344/545/203 345/546/204 342/547/205 341/548/206
f 341/549/206 342/550/205 348/551/207 343/552/208
f 343/552/208 346/553/209 344/554/203 341/549/206
f 346/555/209 347/556/210 345/557/204 344/558/203
f 343/559/208 348/560/207 347/561/210 346/562/209
f 347/556/210 348/551/207 342/550/205 345/557/204
f 352/563/211 349/564/212 350/565/213 353/566/214
f 349/567/212 351/568/215 356/569/216 350/570/213
f 351/568/215 349/567/212 352/571/211 354/572/217
f 354/573/217 352/574/211 353/575/214 355/576/218
f 351/577/215 354/578/217 355/579/218 356/580/216
f 355/576/218 353/575/214 350/570/213 356/569/216
f 360/581/219 361/582/220 358/583/221 357/584/222
f 357/585/222 358/586/221 364/587/223 359/588/224
f 359/589/224 362/590/225 360/581/219 357/584/222
f 362/591/225 363/592/226 361/593/220 360/594/219
f 359/589/224 364/595/223 363/596/226 362/590/225
f 363/597/226 364/598/223 358/583/221 361/582/220
f 368/599/227 370/600/228 366/601/229 365/602/230
f 365/602/230 366/601/229 381/603/231 367/604/232
f 367/605/232 369/606/233 368/607/227 365/608/230
f 369/606/233 375/609/233 372/610/234 368/607/227
f 370/600/228 368/599/227 371/611/235 385/612/236
f 368/607/227 372/610/234 374/613/237 371/614/235
f 376/615/233 373/616/234 372/610/234 375/609/233
f 373/616/234 387/617/238 374/613/237 372/610/234
f 378/618/239 376/615/233 375/609/233 377/619/239
f 369/606/233 380/620/239 377/619/239 375/609/233
f 377/619/239 379/621/240 382/622/240 378/618/239
f 377/619/239 380/620/239 370/623/228 379/621/240
f 367/605/232 381/624/231 380/620/239 369/606/233
f 380/620/239 381/624/231 366/625/229 370/623/228
f 379/621/240 383/626/241 384/627/242 382/622/240
f 379/621/240 370/623/228 385/628/236 383/626/241
f 383/629/241 374/630/237 387/631/238 384/632/242
f 374/630/237 383/629/241 385/612/236 371/611/235
f 382/622/240 384/627/242 386/633/243 398/634/240
f 384/632/242 387/631/238 388/635/244 386/636/243
f 389/637/234 388/638/244 387/617/238 373/616/234
f 389/637/234 392/639/245 390/640/246 388/638/244
f 390/641/246 391/642/247 386/636/243 388/635/244
f 392/643/245 395/644/248 391/642/247 390/641/246
f 393/645/249 396/646/250 395/644/248 392/643/245
f 394/647/233 402/648/251 393/649/249 392/639/245
f 400/650/233 394/647/233 392/639/245 389/637/234
f 401/651/252 397/652/239 395/653/248 396/654/250
f 397/652/239 399/655/239 398/634/240 395/653/248
f 395/653/248 398/634/240 386/633/243 391/656/247
f 378/618/239 382/622/240 398/634/240 399/655/239
f 399/655/239 400/650/233 376/615/233 378/618/239
f 400/650/233 399/655/239 397/652/239 394/647/233
f 400/650/233 389/637/234 373/616/234 376/615/233
f 394/647/233 397/652/239 401/651/252 402/648/251
f 402/657/251 401/658/252 396/646/250 393/645/249
f 406/659/253 403/660/254 404/661/255 407/662/256
f 403/663/254 405/664/257 410/665/258 404/666/255
f 405/664/257 403/663/254 406/667/253 408/668/259
f 408/669/259 406/670/253 407/671/256 409/672/260
f 405/673/257 408/674/259 409/675/260 410/676/258
f 409/672/260 407/671/256 404/666/255 410/665/258
f 414/677/254 415/678/255 412/679/256 411/680/253
f 411/681/253 412/682/256 418/683/260 413/684/259
f 413/684/259 416/685/257 414/686/254 411/681/253
f 416/687/257 417/688/258 415/689/255 414/690/254
f 413/691/259 418/692/260 417/693/258 416/694/257
f 417/688/258 418/683/260 412/682/256 415/689/255
f 419/695/261 420/696/262 424/697/263 422/698/264
f 419/699/261 421/700/265 429/701/266 420/702/262
f 422/703/264 425/704/267 421/700/265 419/699/261
f 423/705/268 426/706/269 425/704/267 422/703/264
f 430/707/270 423/708/268 422/698/264 424/697/263
f 427/709/271 425/710/267 426/711/269 428/712/272
f 421/713/265 425/710/267 427/709/271 429/714/266
f 424/715/263 427/716/271 428/717/272 430/718/270
f 420/719/262 429/720/266 427/716/271 424/715/263
f 426/711/269 432/721/273 431/722/274 428/712/272
f 430/718/270 428/717/272 431/723/274 433/724/275
f 432/721/273 436/725/276 434/726/277 431/722/274
f 433/724/275 431/723/274 434/727/277 437/728/278
f 437/728/278 434/727/277 435/729/279 438/730/280
f 434/726/277 436/725/276 442/731/281 435/732/279
f 438/733/280 440/734/282 439/735/283 437/736/278
f 441/737/284 433/738/275 437/736/278 439/735/283
f 440/739/282 442/740/281 436/741/276 439/742/283
f 439/742/283 436/741/276 432/743/273 441/744/284
f 423/708/268 430/707/270 433/738/275 441/737/284
f 441/744/284 432/743/273 426/706/269 423/705/268
f 440/734/282 438/733/280 445/745/285 443/746/286
f 443/747/286 446/748/287 442/740/281 440/739/282
f 444/749/288 448/750/289 446/748/287 443/747/286
f 457/751/290 444/752/288 443/746/286 445/745/285
f 447/753/291 446/754/287 448/755/289 449/756/292
f 442/731/281 446/754/287 447/753/291 435/732/279
f 448/755/289 450/757/293 453/758/294 449/756/292
f 452/759/295 450/760/293 448/750/289 444/749/288
f 453/758/294 450/757/293 451/761/296 454/762/297
f 458/763/298 451/764/296 450/760/293 452/759/295
f 455/765/299 453/766/294 454/767/297 456/768/300
f 457/769/290 449/770/292 453/766/294 455/765/299
f 456/771/300 458/772/298 452/773/295 455/774/299
f 444/752/288 457/751/290 455/774/299 452/773/295
f 445/775/285 447/776/291 449/770/292 457/769/290
f 458/772/298 456/771/300 459/777/301 461/778/302
f 456/768/300 454/767/297 462/779/303 459/780/301
f 463/781/304 460/782/305 459/780/301 462/779/303
f 460/783/305 466/784/306 461/778/302 459/777/301
f 462/785/303 464/786/307 465/787/308 463/788/304
f 451/761/296 464/786/307 462/785/303 454/762/297
f 464/789/307 461/790/302 466/791/306 465/792/308
f 461/790/302 464/789/307 451/764/296 458/763/298
f 465/787/308 467/793/309 470/794/310 463/788/304
f 469/795/311 467/796/309 465/792/308 466/791/306
f 470/794/310 467/793/309 468/797/312 471/798/313
f 474/799/314 468/800/312 467/796/309 469/795/311
f 472/801/315 470/802/310 471/803/313 473/804/316
f 460/782/305 463/781/304 470/802/310 472/801/315
f 473/805/316 474/806/314 469/807/311 472/808/315
f 466/784/306 460/783/305 472/808/315 469/807/311
f 474/806/314 473/805/316 475/809/317 477/810/318
f 473/804/316 471/803/313 478/811/319 475/812/317
f 475/812/317 478/811/319 479/813/320 476/814/321
f 476/815/321 482/816/322 477/810/318 475/809/317
f 478/817/319 480/818/323 481/819/324 479/820/320
f 468/797/312 480/818/323 478/817/319 471/798/313
f 482/821/322 481/822/324 480/823/323 477/824/318
f 477/824/318 480/823/323 468/800/312 474/799/314
f 481/819/324 483/825/325 485/826/326 479/820/320
f 484/827/327 483/828/325 481/822/324 482/821/322
f 486/829/328 485/830/326 483/828/325 484/827/327
f 476/814/321 479/813/320 485/830/326 486/829/328
f 482/816/322 476/815/321 486/831/328 484/832/327
f 438/730/280 435/729/279 447/776/291 445/775/285
f 490/833/329 491/834/330 488/835/331 487/836/332
f 487/837/332 488/838/331 494/839/333 489/840/334
f 489/841/334 492/842/335 490/833/329 487/836/332
f 492/843/335 493/844/336 491/845/330 490/846/329
f 489/841/334 494/847/333 493/848/336 492/842/335
f 493/848/336 494/847/333 488/849/331 491/850/330
f 498/851/329 499/852/330 496/853/331 495/854/332
f 495/855/332 496/856/331 502/857/333 497/858/334
f 497/859/334 500/860/335 498/851/329 495/854/332
f 500/861/335 501/862/336 499/863/330 498/864/329
f 497/859/334 502/865/333 501/866/336 500/860/335
f 501/867/336 502/868/333 496/853/331 499/852/330
f 506/869/337 507/870/338 504/871/339 503/872/340
f 503/873/340 504/874/339 510/875/341 505/876/342
f 505/877/342 508/878/343 506/879/337 503/880/340
f 508/878/343 509/881/344 507/882/338 506/879/337
f 505/883/342 510/884/341 509/885/344 508/886/343
f 509/881/344 510/875/341 504/874/339 507/882/338
f 514/887/345 511/888/346 512/889/347 515/890/348
f 511/891/346 513/892/349 518/893/350 512/894/347
f 513/895/349 511/896/346 514/897/345 516/898/351
f 516/898/351 514/897/345 515/899/348 517/900/352
f 513/901/349 516/902/351 517/903/352 518/904/350
f 517/900/352 515/899/348 512/894/347 518/893/350
f 519/905/353 520/906/354 525/907/355 522/908/356
f 520/906/354 519/905/353 521/909/357 529/910/358
f 522/908/356 524/911/359 521/912/357 519/905/353
f 523/913/360 530/914/361 524/915/359 522/908/356
f 522/908/356 525/907/355 526/916/362 523/913/360
f 525/907/355 527/917/363 528/918/364 526/916/362
f 525/907/355 520/906/354 529/919/358 527/920/363
f 524/921/359 530/922/361 528/923/364 527/924/363
f 521/925/357 524/921/359 527/924/363 529/926/358
f 530/922/361 523/927/360 526/928/362 528/923/364
f 531/929/365 534/930/366 535/931/367 532/932/368
f 532/932/368 538/933/369 533/934/370 531/929/365
f 533/934/370 536/935/371 534/936/366 531/929/365
f 534/937/366 536/938/371 537/939/372 535/940/367
f 533/934/370 538/933/369 537/941/372 536/942/371
f 538/933/369 532/932/368 535/940/367 537/939/372
f 539/943/373 542/944/374 543/945/375 540/946/376
f 540/946/376 546/947/377 541/948/378 539/943/373
f 541/948/378 544/949/379 542/950/374 539/943/373
f 542/951/374 544/952/379 545/953/380 543/954/375
f 544/955/379 541/948/378 546/947/377 545/956/380
f 545/953/380 546/947/377 540/946/376 543/954/375
f 547/957/381 550/958/382 551/959/383 548/960/384
f 548/960/384 554/961/385 549/962/386 547/957/381
f 552/963/387 550/964/382 547/957/381 549/962/386
f 550/965/382 552/966/387 553/967/388 551/968/383
f 552/969/387 549/962/386 554/961/385 553/970/388
f 553/967/388 554/961/385 548/960/384 551/968/383
f 555/971/389 558/972/390 559/973/391 556/974/392
f 556/974/392 562/975/393 557/976/394 555/971/389
f 560/977/395 558/978/390 555/971/389 557/976/394
f 558/979/390 560/980/395 561/981/396 559/982/391
f 560/983/395 557/976/394 562/975/393 561/984/396
f 561/981/396 562/975/393 556/974/392 559/982/391
f 568/985/397 564/986/398 563/987/399 566/988/400
f 563/987/399 564/989/398 570/990/401 565/991/402
f 566/988/400 563/987/399 565/991/402 567/992/403
f 566/988/400 567/992/403 569/993/404 568/994/397
f 569/995/404 570/996/401 564/986/398 568/985/397
f 567/992/403 565/991/402 570/997/401 569/998/404
f 574/999/405 575/1000/406 572/1001/407 571/1002/408
f 571/1003/408 572/1004/407 578/1005/409 573/1006/410
f 573/1007/410 576/1008/411 574/999/405 571/1002/408
f 576/1009/411 577/1010/412 575/1011/406 574/1012/405
f 573/1013/410 578/1014/409 577/1015/412 576/1016/411
f 577/1015/412 578/1014/409 572/1001/407 575/1000/406
