# Blender 3.6.23
# www.blender.org
mtllib scene_0008_glass.mtl
o glass_door_01
v 88.066452 -550.236023 0.015060
v 87.914642 -551.355164 150.010803
v 87.797623 -552.217834 0.000000
v 87.645813 -553.336975 149.995743
v -1.116802 -538.138611 0.015060
v -1.268612 -539.257751 150.010803
v -1.385624 -540.120422 0.000000
v -1.537434 -541.239563 149.995743
vn 0.9909 -0.1344 -0.0000
vn -0.1344 -0.9909 -0.0075
vn -0.9909 0.1344 -0.0000
vn 0.1344 0.9909 0.0075
vn 0.0010 0.0075 -1.0000
vn -0.0010 -0.0075 1.0000
vt 0.375000 0.000000
vt 0.625000 0.000000
vt 0.625000 0.250000
vt 0.375000 0.250000
vt 0.625000 0.500000
vt 0.375000 0.500000
vt 0.625000 0.750000
vt 0.375000 0.750000
vt 0.625000 1.000000
vt 0.375000 1.000000
vt 0.125000 0.500000
vt 0.125000 0.750000
vt 0.875000 0.500000
vt 0.875000 0.750000
s 0
usemtl Glass_Clear
f 1/1/1 2/2/1 4/3/1 3/4/1
f 3/4/2 4/3/2 8/5/2 7/6/2
f 7/6/3 8/5/3 6/7/3 5/8/3
f 5/8/4 6/7/4 2/9/4 1/10/4
f 3/11/5 7/6/5 5/8/5 1/12/5
f 8/5/6 4/13/6 2/14/6 6/7/6
