# Blender 3.6.23
# www.blender.org
mtllib scene_0009_diffuse.mtl
o diffuse_table_01
v -66.328629 -691.151428 43.553764
v -65.910278 -690.687256 43.553764
v -66.328629 -691.151428 46.900932
v -63.406040 -693.364990 47.249985
v -65.910278 -690.687256 46.900932
v 17.953682 -686.334839 43.553764
v 18.417835 -686.753235 43.553764
v 15.740093 -689.257446 47.249992
v 18.417835 -686.753235 46.900932
v 17.953682 -686.334839 46.900932
v -63.172981 -743.430786 43.553764
v -63.637135 -743.012390 43.553764
v -60.959393 -740.508179 47.249985
v -63.637135 -743.012390 46.900932
v -63.172981 -743.430786 46.900932
v 21.109333 -738.614197 43.553764
v 20.690979 -739.078369 43.553764
v 18.186741 -736.400635 47.249992
v 20.690979 -739.078369 46.900932
v 21.109333 -738.614197 46.900932
v 17.976582 -686.776123 43.242287
v -65.887375 -691.128540 43.242275
v 20.668079 -738.637085 43.242287
v -63.195881 -742.989502 43.242275
v 15.697052 -689.315796 45.709328
v -63.357193 -693.418640 45.709320
v 18.137894 -736.346985 45.709328
v -60.916351 -740.449829 45.709320
v -63.357193 -693.418640 43.368603
v -63.524849 -693.266846 43.242275
v 15.848091 -689.147522 43.242287
v 15.697052 -689.315796 43.368610
v -61.067398 -740.618103 43.242275
v -60.916351 -740.449829 43.368603
v 18.305542 -736.498779 43.242287
v 18.137894 -736.346985 43.368610
v -65.887375 -691.128540 47.249992
v 17.976582 -686.776123 47.250000
v 20.668079 -738.637085 47.250000
v -63.195881 -742.989502 47.249992
v 12.948181 -731.629028 0.000004
v 12.616798 -731.630249 0.248186
v 12.915062 -731.299377 0.248190
v 9.646870 -728.366516 45.732796
v 9.348610 -728.697388 45.732796
v 16.363129 -731.451233 0.014797
v 16.335613 -731.121826 0.248190
v 16.666214 -731.419128 0.262857
v 14.567226 -728.426575 45.732796
v 14.236576 -728.128296 45.732796
v 13.124851 -735.044006 0.014795
v 13.124252 -735.348877 0.262857
v 12.794319 -735.050842 0.248186
v 9.586807 -733.287109 45.732796
v 9.917706 -733.585083 45.732796
v 16.540977 -734.867310 0.161125
v 16.843769 -734.841248 0.424261
v 16.546333 -735.171265 0.424261
v 14.507416 -733.346924 45.732796
v 14.805428 -733.016296 45.732796
v 11.023621 -694.545715 0.000004
v 10.693886 -694.578735 0.248186
v 11.024803 -694.877014 0.248190
v 8.077774 -698.132446 45.732796
v 7.746861 -697.834167 45.732796
v 14.438622 -694.369019 0.014797
v 14.445354 -694.699463 0.248190
v 14.743401 -694.369568 0.262857
v 12.965481 -697.563354 45.732796
v 12.667480 -697.894226 45.732796
v 10.845829 -691.130737 0.014795
v 10.813675 -690.827576 0.262857
v 10.516365 -691.158203 0.248186
v 7.508663 -693.244507 45.732796
v 7.806936 -692.913818 45.732796
v 14.261894 -690.952881 0.161125
v 14.565754 -690.947449 0.424261
v 14.235756 -690.650024 0.424261
v 12.396645 -692.675598 45.732796
v 12.727280 -692.973633 45.732796
v -56.242908 -735.219910 0.000000
v -55.913177 -735.186890 0.248182
v -56.244083 -734.888611 0.248186
v -53.297073 -731.633179 45.732788
v -52.966152 -731.931458 45.732788
v -59.657906 -735.396606 0.014791
v -59.664646 -735.066162 0.248186
v -59.962692 -735.396057 0.262852
v -58.184780 -732.202271 45.732788
v -57.886780 -731.871399 45.732788
v -56.065121 -738.634888 0.014791
v -56.032967 -738.938049 0.262852
v -55.735657 -738.607422 0.248182
v -52.727955 -736.521118 45.732788
v -53.026234 -736.851807 45.732788
v -59.481178 -738.812744 0.161121
v -59.785046 -738.818176 0.424255
v -59.455040 -739.115601 0.424255
v -57.615944 -737.090027 45.732788
v -57.946579 -736.791992 45.732788
v -58.167469 -698.136597 0.000000
v -57.836090 -698.135376 0.248182
v -58.134342 -698.466248 0.248186
v -54.866165 -701.399109 45.732788
v -54.567902 -701.068237 45.732788
v -61.582413 -698.314392 0.014791
v -61.554905 -698.643799 0.248186
v -61.885506 -698.346497 0.262852
v -59.786526 -701.339050 45.732788
v -59.455875 -701.637329 45.732788
v -58.344143 -694.721619 0.014791
v -58.343544 -694.416748 0.262852
v -58.013611 -694.714783 0.248182
v -54.806099 -696.478516 45.732788
v -55.137005 -696.180542 45.732788
v -61.760262 -694.898315 0.161121
v -62.063061 -694.924377 0.424255
v -61.765617 -694.594360 0.424255
v -59.726715 -696.418701 45.732788
v -60.024727 -696.749329 45.732788
vn -0.8313 -0.3755 -0.4098
vn -0.8399 -0.3790 0.3884
vn -0.8747 0.2901 0.3884
vn -0.8657 0.2874 -0.4098
vn 0.3755 -0.8313 -0.4098
vn 0.3790 -0.8399 0.3884
vn -0.2901 -0.8747 0.3884
vn -0.2874 -0.8657 -0.4098
vn -0.0000 -0.0000 1.0000
vn -0.3755 0.8313 -0.4098
vn -0.3790 0.8399 0.3884
vn 0.2901 0.8747 0.3884
vn 0.2874 0.8657 -0.4098
vn 0.8313 0.3755 -0.4098
vn 0.8399 0.3790 0.3884
vn 0.8747 -0.2901 0.3884
vn 0.8657 -0.2874 -0.4098
vn -0.2929 0.2640 -0.9190
vn -0.3146 0.2835 0.9059
vn 0.2640 0.2929 -0.9190
vn 0.2835 0.3146 0.9059
vn -0.2640 -0.2929 -0.9190
vn -0.2835 -0.3146 0.9059
vn 0.2929 -0.2640 -0.9190
vn 0.3146 -0.2835 0.9059
vn 0.5134 0.5685 -0.6428
vn 0.5695 -0.5123 -0.6428
vn 0.6065 -0.5467 -0.5774
vn 0.5467 0.6065 -0.5774
vn 0.0859 0.0954 -0.9917
vn -0.0953 0.0860 -0.9917
vn -0.5695 0.5123 -0.6428
vn -0.6065 0.5467 -0.5774
vn -0.0859 -0.0954 -0.9917
vn 0.0953 -0.0860 -0.9917
vn -0.5467 -0.6065 -0.5774
vn -0.5134 -0.5685 -0.6428
vn -0.8196 -0.3822 -0.4267
vn -0.9084 -0.4154 -0.0479
vn -0.9358 0.3410 -0.0892
vn -0.8509 0.2800 -0.4444
vn 0.3965 -0.8532 -0.3388
vn 0.4238 -0.9041 0.0554
vn -0.3529 -0.9356 0.0114
vn -0.2703 -0.8846 -0.3799
vn 0.8520 0.3605 -0.3797
vn 0.8941 0.4478 0.0118
vn 0.9430 -0.3280 0.0556
vn 0.8897 -0.3060 -0.3387
vn -0.3666 0.8174 -0.4443
vn -0.4362 0.8954 -0.0891
vn 0.3191 0.9465 -0.0476
vn 0.2954 0.8549 -0.4265
vn -0.2880 0.2597 -0.9217
vn 0.3033 0.2815 -0.9104
vn -0.2485 -0.3307 -0.9104
vn 0.3469 -0.3126 -0.8843
vn -0.8548 0.2953 -0.4267
vn -0.8174 -0.3666 -0.4444
vn -0.8955 -0.4361 -0.0892
vn -0.9465 0.3191 -0.0479
vn 0.3061 0.8897 -0.3388
vn -0.3604 0.8519 -0.3799
vn -0.4478 0.8940 0.0114
vn 0.3279 0.9431 0.0554
vn 0.8847 -0.2704 -0.3797
vn 0.8533 0.3965 -0.3387
vn 0.9040 0.4239 0.0556
vn 0.9356 -0.3528 0.0118
vn -0.2800 -0.8510 -0.4443
vn 0.3823 -0.8197 -0.4265
vn 0.4154 -0.9084 -0.0476
vn -0.3411 -0.9358 -0.0891
vn -0.2596 -0.2881 -0.9217
vn 0.3308 -0.2486 -0.9104
vn -0.2814 0.3032 -0.9104
vn 0.3127 0.3468 -0.8843
vn 0.8548 -0.2953 -0.4267
vn 0.8174 0.3666 -0.4444
vn 0.8955 0.4361 -0.0892
vn 0.9465 -0.3191 -0.0479
vn -0.3061 -0.8897 -0.3388
vn 0.3604 -0.8519 -0.3799
vn 0.4478 -0.8940 0.0114
vn -0.3279 -0.9431 0.0554
vn -0.8847 0.2704 -0.3797
vn -0.8533 -0.3965 -0.3387
vn -0.9040 -0.4239 0.0556
vn -0.9356 0.3528 0.0118
vn 0.2800 0.8510 -0.4443
vn -0.3823 0.8197 -0.4265
vn -0.4154 0.9084 -0.0476
vn 0.3411 0.9358 -0.0891
vn 0.2596 0.2881 -0.9217
vn -0.3308 0.2486 -0.9104
vn 0.2814 -0.3032 -0.9104
vn -0.3127 -0.3468 -0.8843
vn 0.8196 0.3822 -0.4267
vn 0.9084 0.4154 -0.0479
vn 0.9358 -0.3410 -0.0892
vn 0.8509 -0.2800 -0.4444
vn -0.3965 0.8532 -0.3388
vn -0.4238 0.9041 0.0554
vn 0.3529 0.9356 0.0114
vn 0.2703 0.8846 -0.3799
vn -0.8520 -0.3605 -0.3797
vn -0.8941 -0.4478 0.0118
vn -0.9430 0.3280 0.0556
vn -0.8897 0.3060 -0.3387
vn 0.3666 -0.8174 -0.4443
vn 0.4362 -0.8954 -0.0891
vn -0.3191 -0.9465 -0.0476
vn -0.2954 -0.8549 -0.4265
vn 0.2880 -0.2597 -0.9217
vn -0.3033 -0.2815 -0.9104
vn 0.2485 0.3307 -0.9104
vn -0.3469 0.3126 -0.8843
vt 0.012167 0.894395
vt 0.012161 0.862608
vt 0.401654 0.862517
vt 0.401672 0.894215
vt 0.770729 0.637544
vt 0.738930 0.637544
vt 0.738908 0.007387
vt 0.770625 0.007379
vt 0.011087 0.358772
vt 0.011087 0.004670
vt 0.605569 0.004670
vt 0.605569 0.358772
vt 0.665754 0.637544
vt 0.633954 0.637544
vt 0.633932 0.007387
vt 0.665648 0.007379
vt 0.012153 0.781665
vt 0.012159 0.749877
vt 0.401667 0.750059
vt 0.401653 0.781757
vt 0.402511 0.898447
vt 0.406213 0.894954
vt 0.402459 0.858019
vt 0.406193 0.861757
vt 0.669880 0.006541
vt 0.666388 0.002840
vt 0.629432 0.006581
vt 0.633174 0.002846
vt 0.774855 0.006541
vt 0.771365 0.002840
vt 0.734408 0.006581
vt 0.738150 0.002846
vt 0.402486 0.785988
vt 0.406185 0.782501
vt 0.402477 0.745559
vt 0.406213 0.749304
vt 0.670203 0.637542
vt 0.629261 0.637543
vt 0.012154 0.786116
vt 0.012153 0.745183
vt 0.775179 0.637542
vt 0.734237 0.637543
vt 0.012161 0.898847
vt 0.012163 0.857914
vt 0.030357 0.917428
vt 0.384349 0.917072
vt 0.384371 0.939343
vt 0.030379 0.939699
vt 0.791830 0.023428
vt 0.792136 0.620638
vt 0.793836 0.619438
vt 0.793540 0.024632
vt 0.815803 0.024621
vt 0.816101 0.619427
vt 0.686854 0.023428
vt 0.687161 0.620638
vt 0.012407 0.719528
vt 0.012407 0.366267
vt 0.606199 0.366267
vt 0.606199 0.719528
vt 0.385556 0.915367
vt 0.029151 0.915731
vt 0.030336 0.804709
vt 0.384312 0.804599
vt 0.384318 0.826869
vt 0.030343 0.826979
vt 0.385520 0.802895
vt 0.029131 0.803011
vt 0.688564 0.024632
vt 0.688861 0.619438
vt 0.710827 0.024621
vt 0.711126 0.619427
vt 0.611519 0.619791
vt 0.611679 0.024324
vt 0.029925 0.727445
vt 0.384741 0.727787
vt 0.716494 0.619791
vt 0.716655 0.024324
vt 0.029921 0.840165
vt 0.384711 0.840261
vt 0.413096 0.829099
vt 0.844696 0.829099
vt 0.844696 0.859196
vt 0.413096 0.859196
vt 0.413096 0.795490
vt 0.844696 0.795490
vt 0.844696 0.825587
vt 0.413096 0.825587
vt 0.413096 0.761885
vt 0.844696 0.761885
vt 0.844696 0.791983
vt 0.413096 0.791983
vt 0.413096 0.728276
vt 0.844696 0.728276
vt 0.844696 0.758374
vt 0.413096 0.758374
vt 0.107983 0.983687
vt 0.111358 0.984368
vt 0.108613 0.987108
vt 0.082406 0.983545
vt 0.081894 0.986785
vt 0.079217 0.984090
vt 0.108067 0.957990
vt 0.108635 0.954717
vt 0.111358 0.957486
vt 0.082448 0.957934
vt 0.079161 0.957325
vt 0.081842 0.954645
vt 0.413096 0.724762
vt 0.844696 0.724763
vt 0.888655 0.437483
vt 0.858557 0.437483
vt 0.858557 0.005879
vt 0.888655 0.005879
vt 0.922263 0.437483
vt 0.892166 0.437483
vt 0.892166 0.005879
vt 0.922263 0.005879
vt 0.955869 0.437483
vt 0.925771 0.437483
vt 0.925771 0.005879
vt 0.955869 0.005879
vt 0.989477 0.437483
vt 0.959380 0.437483
vt 0.959380 0.005879
vt 0.989477 0.005879
vt 0.221686 0.960258
vt 0.222316 0.956836
vt 0.225061 0.959577
vt 0.196110 0.960400
vt 0.192920 0.959855
vt 0.195597 0.957160
vt 0.221771 0.985955
vt 0.225061 0.986459
vt 0.222338 0.989228
vt 0.196151 0.986011
vt 0.195545 0.989300
vt 0.192865 0.986620
vt 0.992991 0.437483
vt 0.992991 0.005879
vt 0.961249 0.441373
vt 0.991346 0.441373
vt 0.991346 0.872978
vt 0.961249 0.872978
vt 0.927640 0.441373
vt 0.957737 0.441373
vt 0.957737 0.872978
vt 0.927640 0.872978
vt 0.894035 0.441373
vt 0.924132 0.441373
vt 0.924132 0.872978
vt 0.894035 0.872978
vt 0.860426 0.441373
vt 0.890524 0.441373
vt 0.890524 0.872978
vt 0.860426 0.872978
vt 0.054205 0.960486
vt 0.054834 0.957064
vt 0.057579 0.959805
vt 0.028628 0.960627
vt 0.025438 0.960082
vt 0.028115 0.957387
vt 0.054289 0.986182
vt 0.057579 0.986686
vt 0.054856 0.989456
vt 0.028669 0.986238
vt 0.028063 0.989527
vt 0.025383 0.986847
vt 0.856912 0.441373
vt 0.856912 0.872978
vt 0.845719 0.893331
vt 0.414117 0.893331
vt 0.414117 0.863233
vt 0.845719 0.863233
vt 0.845719 0.926939
vt 0.414117 0.926939
vt 0.414117 0.896842
vt 0.845719 0.896842
vt 0.845719 0.960544
vt 0.414117 0.960544
vt 0.414117 0.930447
vt 0.845719 0.930447
vt 0.845719 0.994153
vt 0.414117 0.994153
vt 0.414117 0.964055
vt 0.845719 0.964055
vt 0.163985 0.985789
vt 0.167323 0.986440
vt 0.164631 0.989129
vt 0.138369 0.985797
vt 0.137835 0.989092
vt 0.135147 0.986348
vt 0.164045 0.960168
vt 0.164650 0.956930
vt 0.167323 0.959689
vt 0.138385 0.960134
vt 0.135092 0.959522
vt 0.137781 0.956836
vt 0.845719 0.997667
vt 0.414117 0.997667
s 1
usemtl Diffuse_Table
f 12/1/1 14/2/2 3/3/3 1/4/4
f 17/5/5 19/6/6 15/7/7 11/8/8
f 18/9/9 8/10/9 4/11/9 13/12/9
f 2/13/10 5/14/11 10/15/12 6/16/13
f 7/17/14 9/18/15 20/19/16 16/20/17
f 22/21/18 1/4/4 2/22/10
f 3/3/3 37/23/19 5/24/11
f 21/25/20 6/16/13 7/26/14
f 38/27/21 9/28/15 10/15/12
f 24/29/22 11/8/8 12/30/1
f 40/31/23 14/32/2 15/7/7
f 23/33/24 16/20/17 17/34/5
f 39/35/25 19/36/6 20/19/16
f 21/25/20 22/37/18 2/13/10 6/16/13
f 1/4/4 3/3/3 5/24/11 2/22/10
f 37/38/19 38/27/21 10/15/12 5/14/11
f 9/28/15 7/26/14 6/16/13 10/15/12
f 23/33/24 21/39/20 7/17/14 16/20/17
f 38/40/21 39/35/25 20/19/16 9/18/15
f 19/36/6 17/34/5 16/20/17 20/19/16
f 24/29/22 23/41/24 17/5/5 11/8/8
f 39/42/25 40/31/23 15/7/7 19/6/6
f 14/32/2 12/30/1 11/8/8 15/7/7
f 22/21/18 24/43/22 12/1/1 1/4/4
f 40/44/23 37/23/19 3/3/3 14/2/2
f 34/45/26 29/46/27 26/47/28 28/48/29
f 33/49/30 35/50/31 23/41/24 24/29/22
f 36/51/32 34/52/26 28/53/29 27/54/33
f 31/55/34 30/56/35 22/37/18 21/25/20
f 25/57/36 27/58/33 28/59/29 26/60/28
f 30/61/35 33/62/30 24/43/22 22/21/18
f 32/63/37 36/64/32 27/65/33 25/66/36
f 35/67/31 31/68/34 21/39/20 23/33/24
f 32/69/37 29/70/27 30/56/35 31/55/34
f 36/64/32 32/63/37 31/68/34 35/67/31
f 34/52/26 36/51/32 35/50/31 33/49/30
f 29/46/27 34/45/26 33/62/30 30/61/35
f 29/70/27 32/69/37 25/71/36 26/72/28
f 4/73/9 8/74/9 38/27/21 37/38/19
f 8/75/9 18/76/9 39/35/25 38/40/21
f 18/77/9 13/78/9 40/31/23 39/42/25
f 13/79/9 4/80/9 37/23/19 40/44/23
f 53/81/38 54/82/39 45/83/40 42/84/41
f 58/85/42 59/86/43 55/87/44 52/88/45
f 48/89/46 49/90/47 60/91/48 57/92/49
f 43/93/50 44/94/51 50/95/52 47/96/53
f 41/97/54 42/98/41 43/99/50
f 46/100/55 47/101/53 48/102/46
f 51/103/56 52/104/45 53/105/38
f 56/106/57 57/107/49 58/108/42
f 46/100/55 41/97/54 43/99/50 47/101/53
f 42/109/41 45/110/40 44/94/51 43/93/50
f 49/90/47 48/89/46 47/96/53 50/95/52
f 56/106/57 46/100/55 48/102/46 57/107/49
f 59/86/43 58/85/42 57/92/49 60/91/48
f 51/103/56 56/106/57 58/108/42 52/104/45
f 54/82/39 53/81/38 52/88/45 55/87/44
f 41/97/54 51/103/56 53/105/38 42/98/41
f 46/100/55 56/106/57 51/103/56 41/97/54
f 73/111/58 62/112/59 65/113/60 74/114/61
f 78/115/62 72/116/63 75/117/64 79/118/65
f 68/119/66 77/120/67 80/121/68 69/122/69
f 63/123/70 67/124/71 70/125/72 64/126/73
f 61/127/74 63/128/70 62/129/59
f 66/130/75 68/131/66 67/132/71
f 71/133/76 73/134/58 72/135/63
f 76/136/77 78/137/62 77/138/67
f 66/130/75 67/132/71 63/128/70 61/127/74
f 62/139/59 63/123/70 64/126/73 65/140/60
f 69/122/69 70/125/72 67/124/71 68/119/66
f 76/136/77 77/138/67 68/131/66 66/130/75
f 79/118/65 80/121/68 77/120/67 78/115/62
f 71/133/76 72/135/63 78/137/62 76/136/77
f 74/114/61 75/117/64 72/116/63 73/111/58
f 61/127/74 62/129/59 73/134/58 71/133/76
f 66/130/75 61/127/74 71/133/76 76/136/77
f 93/141/78 82/142/79 85/143/80 94/144/81
f 98/145/82 92/146/83 95/147/84 99/148/85
f 88/149/86 97/150/87 100/151/88 89/152/89
f 83/153/90 87/154/91 90/155/92 84/156/93
f 81/157/94 83/158/90 82/159/79
f 86/160/95 88/161/86 87/162/91
f 91/163/96 93/164/78 92/165/83
f 96/166/97 98/167/82 97/168/87
f 86/160/95 87/162/91 83/158/90 81/157/94
f 82/169/79 83/153/90 84/156/93 85/170/80
f 89/152/89 90/155/92 87/154/91 88/149/86
f 96/166/97 97/168/87 88/161/86 86/160/95
f 99/148/85 100/151/88 97/150/87 98/145/82
f 91/163/96 92/165/83 98/167/82 96/166/97
f 94/144/81 95/147/84 92/146/83 93/141/78
f 81/157/94 82/159/79 93/164/78 91/163/96
f 86/160/95 81/157/94 91/163/96 96/166/97
f 113/171/98 114/172/99 105/173/100 102/174/101
f 118/175/102 119/176/103 115/177/104 112/178/105
f 108/179/106 109/180/107 120/181/108 117/182/109
f 103/183/110 104/184/111 110/185/112 107/186/113
f 101/187/114 102/188/101 103/189/110
f 106/190/115 107/191/113 108/192/106
f 111/193/116 112/194/105 113/195/98
f 116/196/117 117/197/109 118/198/102
f 106/190/115 101/187/114 103/189/110 107/191/113
f 102/199/101 105/200/100 104/184/111 103/183/110
f 109/180/107 108/179/106 107/186/113 110/185/112
f 116/196/117 106/190/115 108/192/106 117/197/109
f 119/176/103 118/175/102 117/182/109 120/181/108
f 111/193/116 116/196/117 118/198/102 112/194/105
f 114/172/99 113/171/98 112/178/105 115/177/104
f 101/187/114 111/193/116 113/195/98 102/188/101
f 106/190/115 116/196/117 111/193/116 101/187/114
o diffuse_shelf_02
v 74.412971 -638.597046 0.000000
v -16.044645 -623.685364 0.000000
v -14.232244 -645.846680 0.000000
v 72.600571 -616.435791 0.000000
v 67.060257 -616.888916 183.441162
v 67.060249 -616.888855 12.692177
v -10.504320 -623.232300 183.441162
v -10.504324 -623.232300 12.692177
v -8.963781 -642.069397 183.441162
v 68.600792 -635.726013 183.441162
v -8.963781 -642.069397 12.692169
v 68.600792 -635.725952 12.692169
v 72.600578 -616.435791 186.220581
v 74.412979 -638.597107 186.220581
v -14.232241 -645.846680 186.220581
v -16.044641 -623.685425 186.220581
v 75.521042 -638.506470 188.999985
v 75.521042 -638.506470 187.002014
v 73.618019 -615.237122 187.002014
v 73.618019 -615.237122 188.999985
v -15.340303 -645.937317 188.999985
v -15.340303 -645.937317 187.002014
v -17.243326 -622.667969 188.999985
v -17.243326 -622.667969 187.002014
v 67.150871 -617.996948 60.035297
v -10.413702 -624.340332 60.035297
v -8.963781 -642.069397 60.035290
v 68.600792 -635.725952 60.035290
v -10.413702 -624.340332 57.811760
v 67.150871 -617.996948 57.811760
v -8.963781 -642.069397 57.811756
v 68.600792 -635.725952 57.811756
v 67.241493 -619.104980 57.811760
v 66.355385 -619.177490 57.811760
v 67.714691 -635.798462 57.811756
v 66.355385 -619.177490 57.144695
v 67.241493 -619.104980 57.144695
v 67.714691 -635.798462 57.144695
v 68.600792 -635.725952 57.144695
v 68.600792 -635.725952 57.811756
v -10.323084 -625.448425 57.811760
v -9.436979 -625.375916 57.811760
v -8.077677 -641.996887 57.811756
v -9.436979 -625.375916 57.144695
v -10.323084 -625.448425 57.144695
v -8.077677 -641.996887 57.144695
v -8.963781 -642.069397 57.144695
v -8.963781 -642.069397 57.811756
v 67.150871 -617.996948 85.605873
v -10.413702 -624.340332 85.605873
v -8.963781 -642.069397 85.605873
v 68.600792 -635.726013 85.605873
v -10.413702 -624.340332 83.382347
v 67.150871 -617.996948 83.382347
v -8.963781 -642.069397 83.382347
v 68.600792 -635.726013 83.382347
v 67.241493 -619.104980 83.382347
v 66.355385 -619.177490 83.382347
v 67.714691 -635.798462 83.382347
v 66.355385 -619.177490 82.715294
v 67.241493 -619.104980 82.715294
v 67.714691 -635.798462 82.715294
v 68.600792 -635.726013 82.715294
v 68.600792 -635.726013 83.382347
v -10.323084 -625.448425 83.382347
v -9.436979 -625.375916 83.382347
v -8.077677 -641.996948 83.382347
v -9.436979 -625.375916 82.715294
v -10.323084 -625.448425 82.715294
v -8.077677 -641.996948 82.715294
v -8.963781 -642.069397 82.715294
v -8.963781 -642.069397 83.382347
v 67.150871 -617.996948 111.176468
v -10.413702 -624.340332 111.176468
v -8.963781 -642.069397 111.176468
v 68.600792 -635.726013 111.176468
v -10.413702 -624.340332 108.952919
v 67.150871 -617.996948 108.952919
v -8.963781 -642.069397 108.952919
v 68.600792 -635.726013 108.952919
v 67.241493 -619.104980 108.952919
v 66.355385 -619.177490 108.952919
v 67.714691 -635.798462 108.952919
v 66.355385 -619.177490 108.285873
v 67.241493 -619.104980 108.285873
v 67.714691 -635.798462 108.285873
v 68.600792 -635.726013 108.285873
v 68.600792 -635.726013 108.952919
v -10.323084 -625.448425 108.952919
v -9.436979 -625.375916 108.952919
v -8.077677 -641.996948 108.952919
v -9.436979 -625.375916 108.285873
v -10.323084 -625.448425 108.285873
v -8.077677 -641.996948 108.285873
v -8.963781 -642.069397 108.285873
v -8.963781 -642.069397 108.952919
v 67.150871 -617.996948 136.747040
v -10.413702 -624.340332 136.747040
v -8.963781 -642.069397 136.747040
v 68.600792 -635.726013 136.747040
v -10.413702 -624.340332 134.523514
v 67.150871 -617.996948 134.523514
v -8.963781 -642.069397 134.523514
v 68.600792 -635.726013 134.523514
v 67.241493 -619.105042 134.523514
v 66.355385 -619.177490 134.523514
v 67.714691 -635.798462 134.523514
v 66.355385 -619.177490 133.856461
v 67.241493 -619.105042 133.856461
v 67.714691 -635.798462 133.856461
v 68.600792 -635.726013 133.856461
v 68.600792 -635.726013 134.523514
v -10.323084 -625.448425 134.523514
v -9.436979 -625.375977 134.523514
v -8.077677 -641.996948 134.523514
v -9.436979 -625.375977 133.856461
v -10.323084 -625.448425 133.856461
v -8.077677 -641.996948 133.856461
v -8.963781 -642.069397 133.856461
v -8.963781 -642.069397 134.523514
v 67.150871 -617.996948 162.317627
v -10.413702 -624.340332 162.317627
v -8.963781 -642.069397 162.317627
v 68.600792 -635.726013 162.317627
v -10.413702 -624.340332 160.094116
v 67.150871 -617.996948 160.094116
v -8.963781 -642.069397 160.094116
v 68.600792 -635.726013 160.094116
v 67.241493 -619.105042 160.094116
v 66.355392 -619.177490 160.094116
v 67.714691 -635.798462 160.094116
v 66.355392 -619.177490 159.427063
v 67.241493 -619.105042 159.427063
v 67.714691 -635.798462 159.427063
v 68.600792 -635.726013 159.427063
v 68.600792 -635.726013 160.094116
v -10.323080 -625.448425 160.094116
v -9.436975 -625.375977 160.094116
v -8.077677 -641.996948 160.094116
v -9.436975 -625.375977 159.427063
v -10.323080 -625.448425 159.427063
v -8.077677 -641.996948 159.427063
v -8.963781 -642.069397 159.427063
v -8.963781 -642.069397 160.094116
v 67.150871 -617.996948 34.464703
v -10.413702 -624.340332 34.464703
v -8.963781 -642.069397 34.464703
v 68.600792 -635.725952 34.464703
v -10.413702 -624.340332 32.241177
v 67.150871 -617.996948 32.241177
v -8.963781 -642.069397 32.241173
v 68.600792 -635.725952 32.241173
v 67.241493 -619.104980 32.241177
v 66.355385 -619.177490 32.241177
v 67.714691 -635.798462 32.241173
v 66.355385 -619.177490 31.574116
v 67.241493 -619.104980 31.574116
v 67.714691 -635.798462 31.574112
v 68.600792 -635.725952 31.574112
v 68.600792 -635.725952 32.241173
v -10.323084 -625.448425 32.241177
v -9.436979 -625.375916 32.241177
v -8.077677 -641.996887 32.241173
v -9.436979 -625.375916 31.574116
v -10.323084 -625.448425 31.574116
v -8.077677 -641.996887 31.574112
v -8.963781 -642.069397 31.574112
v -8.963781 -642.069397 32.241173
vn -0.5638 0.4786 -0.6731
vn -0.4300 -0.8648 -0.2592
vn -0.6461 -0.6715 -0.3629
vn -0.6840 0.5806 -0.4417
vn -0.3742 0.8769 0.3015
vn -0.3742 0.8769 -0.3015
vn 0.4786 0.5638 -0.6731
vn 0.5284 0.6225 -0.5774
vn -0.5284 -0.6225 -0.5774
vn -0.6225 0.5284 -0.5774
vn 0.5648 -0.7835 -0.2592
vn 0.6225 -0.5284 -0.5774
vn 0.2268 0.9261 0.3015
vn 0.2268 0.9261 -0.3015
vn -0.5284 -0.6225 0.5774
vn 0.6225 -0.5284 0.5773
vn 0.5284 0.6225 0.5774
vn -0.6225 0.5284 0.5774
vn 0.5806 0.6840 -0.4417
vn 0.7466 -0.5576 -0.3629
vn -0.0576 0.7048 0.7071
vn -0.0000 -0.0000 1.0000
vn -0.0576 0.7048 -0.7071
vn -0.0000 -0.0000 -1.0000
vn 0.0576 -0.7048 -0.7071
vn -0.6471 -0.7624 -0.0000
vn -0.7624 0.6471 -0.0000
vn -0.0815 0.9967 -0.0000
vn 0.0815 -0.9967 -0.0000
vn 0.7624 -0.6471 -0.0000
vn 0.6471 0.7624 -0.0000
vn -0.6225 0.5284 -0.5773
vn 0.5284 0.6225 -0.5773
vn 0.6225 -0.5284 0.5774
vt 0.910724 0.606259
vt 0.989116 0.606259
vt 0.989116 0.611050
vt 0.906804 0.611050
vt 0.613938 0.966226
vt 0.011952 0.966226
vt 0.002153 0.946628
vt 0.658686 0.946628
vt 0.780069 0.657875
vt 0.780069 0.001334
vt 0.858462 0.001334
vt 0.858462 0.657875
vt 0.629727 0.657876
vt 0.629727 0.001334
vt 0.708120 0.001334
vt 0.708120 0.657876
vt 0.963978 0.953926
vt 0.944379 0.998674
vt 0.670004 0.998674
vt 0.650405 0.953926
vt 0.996659 0.003858
vt 0.996659 0.273693
vt 0.931128 0.273693
vt 0.931128 0.003858
vt 0.989116 0.618094
vt 0.989116 0.939504
vt 0.906804 0.939503
vt 0.906804 0.618094
vt 0.894966 0.935583
vt 0.894969 0.622013
vt 0.899760 0.618094
vt 0.899759 0.939503
vt 0.659539 0.991588
vt 0.003002 0.991588
vt 0.012801 0.971990
vt 0.614791 0.971990
vt 0.624644 0.577883
vt 0.003749 0.577882
vt 0.003750 0.281335
vt 0.624645 0.281336
vt 0.317517 0.663987
vt 0.003945 0.663987
vt 0.003945 0.585594
vt 0.317517 0.585594
vt 0.978444 0.278821
vt 0.985488 0.278821
vt 0.985489 0.600233
vt 0.978444 0.600233
vt 0.001331 0.001326
vt 0.603325 0.001326
vt 0.603325 0.275702
vt 0.001331 0.275702
vt 0.927665 0.002061
vt 0.927666 0.604056
vt 0.861032 0.604056
vt 0.861031 0.002061
vt 0.710782 0.603328
vt 0.710781 0.001333
vt 0.777415 0.001333
vt 0.777415 0.603328
vt 0.326807 0.589611
vt 0.601183 0.589611
vt 0.601183 0.656245
vt 0.326807 0.656245
vt 0.885170 0.641612
vt 0.885168 0.915984
vt 0.906804 0.946547
vt 0.989116 0.946548
vt 0.989116 0.951339
vt 0.910723 0.951339
vt 0.975689 0.282741
vt 0.975688 0.596312
vt 0.558477 0.878351
vt 0.832841 0.878351
vt 0.832841 0.941063
vt 0.558477 0.941063
vt 0.558477 0.870512
vt 0.558477 0.807800
vt 0.832841 0.807800
vt 0.832841 0.870512
vt 0.605985 0.062479
vt 0.605985 0.003686
vt 0.609120 0.003686
vt 0.609119 0.062479
vt 0.611471 0.003686
vt 0.611471 0.062479
vt 0.609119 0.064831
vt 0.605985 0.064831
vt 0.609120 0.001335
vt 0.605985 0.001335
vt 0.613685 0.138933
vt 0.616819 0.138933
vt 0.616819 0.197726
vt 0.613685 0.197726
vt 0.619171 0.197726
vt 0.619171 0.138933
vt 0.616819 0.136581
vt 0.613685 0.136581
vt 0.616819 0.200077
vt 0.613685 0.200077
vt 0.554922 0.731143
vt 0.280558 0.731143
vt 0.280558 0.668431
vt 0.554922 0.668431
vt 0.554922 0.738982
vt 0.554922 0.801694
vt 0.280558 0.801694
vt 0.280558 0.738982
vt 0.622273 0.062477
vt 0.622275 0.003684
vt 0.625409 0.003684
vt 0.625407 0.062477
vt 0.627761 0.003684
vt 0.627759 0.062477
vt 0.625408 0.064829
vt 0.622273 0.064829
vt 0.625409 0.001333
vt 0.622275 0.001332
vt 0.605571 0.207142
vt 0.608705 0.207142
vt 0.608705 0.265935
vt 0.605571 0.265935
vt 0.611057 0.265935
vt 0.611057 0.207142
vt 0.608705 0.204791
vt 0.605571 0.204791
vt 0.608705 0.268287
vt 0.605571 0.268287
vt 0.003015 0.875554
vt 0.277378 0.875554
vt 0.277378 0.938266
vt 0.003015 0.938266
vt 0.003015 0.867715
vt 0.003015 0.805003
vt 0.277378 0.805003
vt 0.277378 0.867715
vt 0.621345 0.591306
vt 0.621344 0.650098
vt 0.618210 0.650098
vt 0.618211 0.591306
vt 0.615858 0.650098
vt 0.615859 0.591306
vt 0.618211 0.588954
vt 0.621345 0.588954
vt 0.618210 0.652450
vt 0.621344 0.652450
vt 0.605988 0.071199
vt 0.609122 0.071199
vt 0.609122 0.129992
vt 0.605988 0.129992
vt 0.611474 0.129992
vt 0.611474 0.071199
vt 0.609122 0.068848
vt 0.605988 0.068848
vt 0.609122 0.132343
vt 0.605988 0.132343
vt 0.277373 0.731785
vt 0.003009 0.731785
vt 0.003009 0.669074
vt 0.277373 0.669074
vt 0.277373 0.739624
vt 0.277373 0.802336
vt 0.003009 0.802336
vt 0.003009 0.739625
vt 0.622271 0.129998
vt 0.622272 0.071206
vt 0.625406 0.071206
vt 0.625405 0.129999
vt 0.627758 0.071206
vt 0.627757 0.129998
vt 0.625406 0.132350
vt 0.622271 0.132350
vt 0.625406 0.068855
vt 0.622272 0.068855
vt 0.614131 0.003686
vt 0.617265 0.003686
vt 0.617265 0.062478
vt 0.614131 0.062478
vt 0.619617 0.062478
vt 0.619617 0.003686
vt 0.617265 0.001335
vt 0.614131 0.001335
vt 0.617265 0.064830
vt 0.614131 0.064830
vt 0.554918 0.868004
vt 0.280554 0.868004
vt 0.280554 0.805293
vt 0.554918 0.805293
vt 0.554918 0.875843
vt 0.554918 0.938555
vt 0.280554 0.938555
vt 0.280554 0.875843
vt 0.614132 0.129990
vt 0.614132 0.071198
vt 0.617267 0.071198
vt 0.617267 0.129990
vt 0.619618 0.071198
vt 0.619618 0.129990
vt 0.617267 0.132342
vt 0.614132 0.132342
vt 0.617267 0.068846
vt 0.614132 0.068846
vt 0.621835 0.138936
vt 0.624969 0.138936
vt 0.624969 0.197728
vt 0.621835 0.197728
vt 0.627321 0.197728
vt 0.627321 0.138936
vt 0.624969 0.136584
vt 0.621835 0.136584
vt 0.624969 0.200080
vt 0.621835 0.200080
vt 0.565751 0.740565
vt 0.840114 0.740565
vt 0.840114 0.803276
vt 0.565751 0.803276
vt 0.565751 0.732726
vt 0.565751 0.670014
vt 0.840114 0.670014
vt 0.840114 0.732725
vt 0.557912 0.670014
vt 0.557912 0.732726
vt 0.847953 0.732725
vt 0.847953 0.670014
vt 0.565751 0.662175
vt 0.840114 0.662175
vt 0.605446 0.198158
vt 0.605452 0.139365
vt 0.608586 0.139365
vt 0.608580 0.198158
vt 0.610938 0.139366
vt 0.610932 0.198158
vt 0.608580 0.200510
vt 0.605446 0.200509
vt 0.608587 0.137014
vt 0.605452 0.137013
vt 0.606732 0.591302
vt 0.609866 0.591302
vt 0.609866 0.650095
vt 0.606732 0.650095
vt 0.612218 0.650095
vt 0.612218 0.591302
vt 0.609866 0.588950
vt 0.606732 0.588950
vt 0.609866 0.652446
vt 0.606732 0.652446
s 1
usemtl Diffuse_shelf
f 136/201/118 135/202/119 142/203/120 144/204/121
f 126/205/122 125/206/123 133/207/124 124/208/125
f 123/209/126 135/210/119 136/211/118 122/212/127
f 124/213/125 133/214/124 134/215/128 121/216/129
f 122/217/127 128/218/130 126/219/122 124/220/125
f 127/221/131 125/222/123 130/223/127 129/224/125
f 141/225/132 137/226/133 140/227/134 143/228/135
f 133/229/124 136/230/118 144/231/121 139/232/136
f 122/233/127 136/234/118 127/235/131 128/236/130
f 121/237/129 134/238/128 135/239/119 123/240/126
f 121/241/129 123/242/126 122/243/127 124/244/125
f 138/245/137 137/246/133 141/247/132 142/248/120
f 131/249/134 129/250/125 130/251/127 132/252/135
f 128/253/130 127/254/131 129/255/125 131/256/134
f 125/257/123 126/258/122 132/259/135 130/260/127
f 126/261/122 128/262/130 131/263/134 132/264/135
f 127/265/131 136/230/118 133/229/124 125/266/123
f 144/231/121 143/228/135 140/227/134 139/232/136
f 139/267/136 140/227/134 137/226/133 138/268/137
f 134/269/128 133/270/124 139/267/136 138/268/137
f 142/203/120 141/225/132 143/228/135 144/204/121
f 134/271/128 138/245/137 142/248/120 135/272/119
f 145/273/138 146/274/138 147/275/139 148/276/139
f 150/277/140 152/278/141 151/279/141 149/280/140
f 145/273/138 150/277/140 149/280/140 146/274/138
f 157/281/140 159/282/142 158/283/126 156/284/127
f 155/285/143 154/286/144 156/284/127 158/283/126
f 154/287/144 153/288/145 157/281/140 156/284/127
f 155/289/143 158/283/126 159/282/142 160/290/146
f 165/291/140 164/292/125 166/293/129 167/294/142
f 163/295/147 166/293/129 164/292/125 162/296/148
f 162/297/148 164/292/125 165/291/140 161/298/145
f 163/299/147 168/300/146 167/294/142 166/293/129
f 169/301/138 170/302/138 171/303/139 172/304/139
f 174/305/140 176/306/141 175/307/141 173/308/140
f 169/301/138 174/305/140 173/308/140 170/302/138
f 181/309/140 183/310/142 182/311/126 180/312/149
f 179/313/143 178/314/144 180/312/149 182/311/126
f 178/315/144 177/316/145 181/309/140 180/312/149
f 179/317/143 182/311/126 183/310/142 184/318/146
f 189/319/140 188/320/150 190/321/129 191/322/142
f 187/323/147 190/321/129 188/320/150 186/324/148
f 186/325/148 188/320/150 189/319/140 185/326/145
f 187/327/147 192/328/146 191/322/142 190/321/129
f 193/329/138 194/330/138 195/331/139 196/332/139
f 198/333/140 200/334/141 199/335/141 197/336/140
f 193/329/138 198/333/140 197/336/140 194/330/138
f 205/337/140 207/338/142 206/339/126 204/340/127
f 203/341/143 202/342/144 204/340/127 206/339/126
f 202/343/144 201/344/145 205/337/140 204/340/127
f 203/345/143 206/339/126 207/338/142 208/346/146
f 213/347/140 212/348/125 214/349/129 215/350/142
f 211/351/147 214/349/129 212/348/125 210/352/148
f 210/353/148 212/348/125 213/347/140 209/354/145
f 211/355/147 216/356/146 215/350/142 214/349/129
f 217/357/138 218/358/138 219/359/139 220/360/139
f 222/361/140 224/362/141 223/363/141 221/364/140
f 217/357/138 222/361/140 221/364/140 218/358/138
f 229/365/140 231/366/142 230/367/126 228/368/127
f 227/369/143 226/370/144 228/368/127 230/367/126
f 226/371/144 225/372/145 229/365/140 228/368/127
f 227/373/143 230/367/126 231/366/142 232/374/146
f 237/375/140 236/376/125 238/377/129 239/378/142
f 235/379/147 238/377/129 236/376/125 234/380/148
f 234/381/148 236/376/125 237/375/140 233/382/145
f 235/383/147 240/384/146 239/378/142 238/377/129
f 241/385/138 242/386/138 243/387/139 244/388/139
f 246/389/140 248/390/141 247/391/141 245/392/140
f 241/385/138 246/389/140 245/392/140 242/386/138
f 253/393/140 255/394/142 254/395/126 252/396/149
f 251/397/143 250/398/144 252/396/149 254/395/126
f 250/399/144 249/400/145 253/393/140 252/396/149
f 251/401/143 254/395/126 255/394/142 256/402/146
f 261/403/140 260/404/150 262/405/129 263/406/142
f 259/407/147 262/405/129 260/404/150 258/408/148
f 258/409/148 260/404/150 261/403/140 257/410/145
f 259/411/147 264/412/146 263/406/142 262/405/129
f 265/413/134 266/414/135 267/415/132 268/416/151
f 270/417/125 272/418/129 271/419/126 269/420/127
f 265/413/134 270/417/125 269/420/127 266/414/135
f 268/421/151 272/418/129 270/417/125 265/422/134
f 266/423/135 269/420/127 271/419/126 267/424/132
f 268/425/151 267/426/132 271/419/126 272/418/129
f 277/427/140 279/428/142 278/429/126 276/430/127
f 275/431/143 274/432/144 276/430/127 278/429/126
f 274/433/144 273/434/145 277/427/140 276/430/127
f 275/435/143 278/429/126 279/428/142 280/436/146
f 285/437/140 284/438/125 286/439/129 287/440/142
f 283/441/147 286/439/129 284/438/125 282/442/148
f 282/443/148 284/438/125 285/437/140 281/444/145
f 283/445/147 288/446/146 287/440/142 286/439/129
