# Blender 3.6.23
# www.blender.org
mtllib scene_0001_glass.mtl
o glass_window_01
v 85.541519 -717.131897 0.000000
v 88.408905 -710.916443 79.706627
v 84.706787 -718.941284 0.171127
v 87.574173 -712.725830 79.877754
v -5.261578 -675.241577 0.000000
v -2.394192 -669.026123 79.706627
v -6.096310 -677.050964 0.171127
v -3.228924 -670.835510 79.877754
vn 0.9080 -0.4189 -0.0000
vn -0.4174 -0.9047 0.0856
vn -0.9080 0.4189 -0.0000
vn 0.4174 0.9047 -0.0856
vn -0.0358 -0.0777 -0.9963
vn 0.0358 0.0777 0.9963
vt 0.375000 0.000000
vt 0.625000 0.000000
vt 0.625000 0.250000
vt 0.375000 0.250000
vt 0.625000 0.500000
vt 0.375000 0.500000
vt 0.625000 0.750000
vt 0.375000 0.750000
vt 0.625000 1.000000
vt 0.375000 1.000000
vt 0.125000 0.500000
vt 0.125000 0.750000
vt 0.875000 0.500000
vt 0.875000 0.750000
s 0
usemtl Glass_Clear
f 1/1/1 2/2/1 4/3/1 3/4/1
f 3/4/2 4/3/2 8/5/2 7/6/2
f 7/6/3 8/5/3 6/7/3 5/8/3
f 5/8/4 6/7/4 2/9/4 1/10/4
f 3/11/5 7/6/5 5/8/5 1/12/5
f 8/5/6 4/13/6 2/14/6 6/7/6
