# Blender 3.6.23
# www.blender.org
mtllib scene_0017.mtl
o glass_partition_01
v 103.143631 -542.432983 0.032829
v 103.629532 -543.354553 40.019260
v 104.076118 -544.201538 -0.019260
v 104.562027 -545.123108 39.967171
v 58.915054 -565.753235 0.032829
v 59.400963 -566.674805 40.019260
v 59.847546 -567.521790 -0.019260
v 60.333454 -568.443359 39.967171
vn 0.8846 0.4664 -0.0000
vn 0.4662 -0.8843 -0.0260
vn -0.8846 -0.4664 -0.0000
vn -0.4662 0.8843 0.0260
vn -0.0121 0.0230 -0.9997
vn 0.0121 -0.0230 0.9997
vt 0.375000 0.000000
vt 0.625000 0.000000
vt 0.625000 0.250000
vt 0.375000 0.250000
vt 0.625000 0.500000
vt 0.375000 0.500000
vt 0.625000 0.750000
vt 0.375000 0.750000
vt 0.625000 1.000000
vt 0.375000 1.000000
vt 0.125000 0.500000
vt 0.125000 0.750000
vt 0.875000 0.500000
vt 0.875000 0.750000
s 0
usemtl Glass_Clear
f 1/1/1 2/2/1 4/3/1 3/4/1
f 3/4/2 4/3/2 8/5/2 7/6/2
f 7/6/3 8/5/3 6/7/3 5/8/3
f 5/8/4 6/7/4 2/9/4 1/10/4
f 3/11/5 7/6/5 5/8/5 1/12/5
f 8/5/6 4/13/6 2/14/6 6/7/6
o glass_door_02
v 24.873110 -580.802185 0.020088
v 22.814981 -575.160583 149.899841
v 25.558001 -582.679565 0.100166
v 23.499872 -577.037964 149.979919
v -59.676308 -611.646851 0.020088
v -61.734436 -606.005249 149.899841
v -58.991417 -613.524231 0.100166
v -61.049545 -607.882629 149.979919
vn 0.9394 0.3427 -0.0000
vn 0.3424 -0.9387 0.0400
vn -0.9394 -0.3427 -0.0000
vn -0.3424 0.9387 -0.0400
vn 0.0137 -0.0376 -0.9992
vn -0.0137 0.0376 0.9992
vt 0.375000 0.000000
vt 0.625000 0.000000
vt 0.625000 0.250000
vt 0.375000 0.250000
vt 0.625000 0.500000
vt 0.375000 0.500000
vt 0.625000 0.750000
vt 0.375000 0.750000
vt 0.625000 1.000000
vt 0.375000 1.000000
vt 0.125000 0.500000
vt 0.125000 0.750000
vt 0.875000 0.500000
vt 0.875000 0.750000
s 0
usemtl Glass_Clear
f 9/15/7 10/16/7 12/17/7 11/18/7
f 11/18/8 12/17/8 16/19/8 15/20/8
f 15/20/9 16/19/9 14/21/9 13/22/9
f 13/22/10 14/21/10 10/23/10 9/24/10
f 11/25/11 15/20/11 13/22/11 9/26/11
f 16/19/12 12/27/12 10/28/12 14/21/12
o glass_window_03
v 112.034698 -661.593811 -0.001801
v 111.985199 -661.452759 79.998062
v 112.697205 -663.480835 0.001938
v 112.647690 -663.339844 80.001801
v 17.680386 -694.718750 -0.001801
v 17.630878 -694.577759 79.998062
v 18.342884 -696.605835 0.001938
v 18.293377 -696.464783 80.001801
vn 0.9435 0.3313 -0.0000
vn 0.3312 -0.9435 0.0019
vn -0.9435 -0.3313 -0.0000
vn -0.3312 0.9435 -0.0019
vn 0.0006 -0.0018 -1.0000
vn -0.0006 0.0018 1.0000
vt 0.375000 0.000000
vt 0.625000 0.000000
vt 0.625000 0.250000
vt 0.375000 0.250000
vt 0.625000 0.500000
vt 0.375000 0.500000
vt 0.625000 0.750000
vt 0.375000 0.750000
vt 0.625000 1.000000
vt 0.375000 1.000000
vt 0.125000 0.500000
vt 0.125000 0.750000
vt 0.875000 0.500000
vt 0.875000 0.750000
s 0
usemtl Glass_Clear
f 17/29/13 18/30/13 20/31/13 19/32/13
f 19/32/14 20/31/14 24/33/14 23/34/14
f 23/34/15 24/33/15 22/35/15 21/36/15
f 21/36/16 22/35/16 18/37/16 17/38/16
f 19/39/17 23/34/17 21/36/17 17/40/17
f 24/33/18 20/41/18 18/42/18 22/35/18
o diffuse_table_01
v -95.814728 -632.920776 67.171371
v -95.290329 -632.580994 67.171371
v -95.814728 -632.920776 70.518539
v -93.566071 -635.816467 70.867592
v -95.290329 -632.580994 70.518539
v -13.166138 -650.123108 67.171371
v -12.826340 -650.647461 67.171371
v -16.061844 -652.371765 70.867599
v -12.826340 -650.647461 70.518539
v -13.166138 -650.123108 70.518539
v -106.322876 -684.230286 67.171371
v -106.662674 -683.705872 67.171371
v -103.427170 -681.981628 70.867592
v -106.662674 -683.705872 70.518539
v -106.322876 -684.230286 70.518539
v -23.674286 -701.432617 67.171371
v -24.198685 -701.772400 67.171371
v -25.922943 -698.536926 70.867599
v -24.198685 -701.772400 70.518539
v -23.674286 -701.432617 70.518539
v -13.258438 -650.555176 66.859894
v -95.382629 -633.013062 66.859879
v -24.106384 -701.340332 66.859894
v -106.230576 -683.798218 66.859879
v -16.118546 -652.416992 69.326935
v -93.532791 -635.880920 69.326920
v -25.956223 -698.472473 69.326935
v -103.370468 -681.936401 69.326920
v -93.532791 -635.880920 66.986206
v -93.655365 -635.690918 66.859879
v -15.929035 -652.293579 66.859894
v -16.118546 -652.416992 66.986221
v -103.559982 -682.059814 66.859879
v -103.370468 -681.936401 66.986206
v -25.833652 -698.662476 66.859894
v -25.956223 -698.472473 66.986221
v -95.382629 -633.013062 70.867599
v -13.258438 -650.555176 70.867599
v -24.106384 -701.340332 70.867599
v -106.230576 -683.798218 70.867599
v -29.745075 -692.570190 23.617607
v -30.065449 -692.485474 23.865791
v -29.691582 -692.243225 23.865795
v -32.087509 -688.563232 69.350403
v -32.461372 -688.805481 69.350403
v -26.400826 -693.283936 23.632402
v -26.341988 -692.958679 23.865795
v -26.099789 -693.331543 23.880463
v -27.351013 -689.897095 69.350403
v -27.593014 -689.523254 69.350403
v -30.459948 -695.914185 23.632401
v -30.539576 -696.208496 23.880463
v -30.780939 -695.835083 23.865791
v -33.421417 -693.299988 69.350403
v -33.179108 -693.673584 69.350403
v -27.114834 -696.629272 23.778730
v -26.815643 -696.682617 24.041864
v -27.188473 -696.924255 24.041864
v -28.684612 -694.633606 69.350403
v -28.311060 -694.391541 69.350403
v -21.988224 -656.256165 23.617607
v -22.315250 -656.202576 23.865791
v -22.072990 -656.576416 23.865795
v -25.763348 -658.956360 69.350403
v -26.005604 -658.582520 69.350403
v -18.644211 -656.971008 23.632402
v -18.723396 -657.291931 23.865795
v -18.349995 -657.050537 23.880463
v -20.895248 -659.674133 69.350403
v -21.268852 -659.916443 69.350403
v -21.274448 -652.911926 23.632401
v -21.226894 -652.610779 23.880463
v -21.599758 -652.852966 23.865791
v -25.045559 -654.088013 69.350403
v -24.671749 -653.846008 69.350403
v -17.929104 -653.625916 23.778730
v -17.634232 -653.699463 24.041864
v -17.875816 -653.326660 24.041864
v -20.177258 -654.806091 69.350403
v -19.935200 -655.179626 69.350403
v -97.500778 -678.097229 23.617603
v -97.173752 -678.150818 23.865786
v -97.416008 -677.776978 23.865791
v -93.725662 -675.397034 69.350395
v -93.483398 -675.770874 69.350395
v -100.844788 -677.382385 23.632397
v -100.765610 -677.061462 23.865791
v -101.139008 -677.302856 23.880457
v -98.593765 -674.679260 69.350395
v -98.220161 -674.436951 69.350395
v -98.214554 -681.441467 23.632397
v -98.262115 -681.742615 23.880457
v -97.889252 -681.500427 23.865786
v -94.443451 -680.265381 69.350395
v -94.817261 -680.507385 69.350395
v -101.559891 -680.727478 23.778727
v -101.854774 -680.653931 24.041859
v -101.613182 -681.026733 24.041859
v -99.311752 -679.547302 69.350395
v -99.553818 -679.173767 69.350395
v -89.743927 -641.783203 23.617603
v -89.423553 -641.867920 23.865786
v -89.797417 -642.110168 23.865791
v -87.401505 -645.790161 69.350395
v -87.027634 -645.547913 69.350395
v -93.088173 -641.069458 23.632397
v -93.147018 -641.394714 23.865791
v -93.389221 -641.021851 23.880457
v -92.138000 -644.456299 69.350395
v -91.895996 -644.830139 69.350395
v -89.029060 -638.439209 23.632397
v -88.949432 -638.144897 23.880457
v -88.708069 -638.518311 23.865786
v -86.067589 -641.053406 69.350395
v -86.309906 -640.679810 69.350395
v -92.374161 -637.724121 23.778727
v -92.673363 -637.670776 24.041859
v -92.300522 -637.429138 24.041859
v -90.804398 -639.719788 69.350395
v -91.177956 -639.961853 69.350395
vn -0.9002 -0.1471 -0.4098
vn -0.9095 -0.1483 0.3884
vn -0.7695 0.5069 0.3884
vn -0.7616 0.5021 -0.4098
vn 0.1471 -0.9002 -0.4098
vn 0.1483 -0.9095 0.3884
vn -0.5069 -0.7695 0.3884
vn -0.5021 -0.7616 -0.4098
vn -0.0000 -0.0000 1.0000
vn -0.1471 0.9002 -0.4098
vn -0.1483 0.9095 0.3884
vn 0.5069 0.7695 0.3884
vn 0.5021 0.7616 -0.4098
vn 0.9002 0.1471 -0.4098
vn 0.9095 0.1483 0.3884
vn 0.7695 -0.5069 0.3884
vn 0.7616 -0.5021 -0.4098
vn -0.2144 0.3309 -0.9190
vn -0.2303 0.3554 0.9059
vn 0.3309 0.2144 -0.9190
vn 0.3554 0.2303 0.9059
vn -0.3309 -0.2144 -0.9190
vn -0.3554 -0.2303 0.9059
vn 0.2144 -0.3309 -0.9190
vn 0.2303 -0.3554 0.9059
vn 0.6433 0.4160 -0.6428
vn 0.4172 -0.6425 -0.6428
vn 0.4440 -0.6852 -0.5774
vn 0.6852 0.4440 -0.5774
vn 0.1077 0.0699 -0.9917
vn -0.0697 0.1078 -0.9917
vn -0.4172 0.6425 -0.6428
vn -0.4440 0.6852 -0.5774
vn -0.1077 -0.0699 -0.9917
vn 0.0697 -0.1078 -0.9917
vn -0.6852 -0.4440 -0.5774
vn -0.6433 -0.4160 -0.6428
vn -0.8907 -0.1566 -0.4267
vn -0.9850 -0.1657 -0.0479
vn -0.8154 0.5720 -0.0892
vn -0.7492 0.4911 -0.4444
vn 0.1617 -0.9269 -0.3388
vn 0.1749 -0.9830 0.0554
vn -0.5834 -0.8121 0.0114
vn -0.4905 -0.7843 -0.3799
vn 0.9163 0.1272 -0.3797
vn 0.9796 0.2007 0.0118
vn 0.8257 -0.5613 0.0556
vn 0.7799 -0.5263 -0.3387
vn -0.1421 0.8845 -0.4443
vn -0.1891 0.9779 -0.0891
vn 0.5536 0.8314 -0.0476
vn 0.5069 0.7491 -0.4265
vn -0.2109 0.3255 -0.9217
vn 0.3659 0.1932 -0.9104
vn -0.3257 -0.2550 -0.9104
vn 0.2540 -0.3919 -0.8843
vn -0.7490 0.5069 -0.4267
vn -0.8845 -0.1421 -0.4444
vn -0.9779 -0.1890 -0.0892
vn -0.8314 0.5536 -0.0479
vn 0.5263 0.7799 -0.3388
vn -0.1272 0.9162 -0.3799
vn -0.2007 0.9796 0.0114
vn 0.5612 0.8258 0.0554
vn 0.7844 -0.4905 -0.3797
vn 0.9269 0.1617 -0.3387
vn 0.9830 0.1750 0.0556
vn 0.8121 -0.5834 0.0118
vn -0.4911 -0.7493 -0.4443
vn 0.1566 -0.8908 -0.4265
vn 0.1656 -0.9850 -0.0476
vn -0.5721 -0.8153 -0.0891
vn -0.3254 -0.2109 -0.9217
vn 0.2550 -0.3258 -0.9104
vn -0.1931 0.3658 -0.9104
vn 0.3919 0.2539 -0.8843
vn 0.7490 -0.5069 -0.4267
vn 0.8845 0.1421 -0.4444
vn 0.9779 0.1890 -0.0892
vn 0.8314 -0.5536 -0.0479
vn -0.5263 -0.7799 -0.3388
vn 0.1272 -0.9162 -0.3799
vn 0.2007 -0.9796 0.0114
vn -0.5612 -0.8258 0.0554
vn -0.7844 0.4905 -0.3797
vn -0.9269 -0.1617 -0.3387
vn -0.9830 -0.1750 0.0556
vn -0.8121 0.5834 0.0118
vn 0.4911 0.7493 -0.4443
vn -0.1567 0.8908 -0.4265
vn -0.1656 0.9850 -0.0476
vn 0.5721 0.8153 -0.0891
vn 0.3254 0.2109 -0.9217
vn -0.2550 0.3258 -0.9104
vn 0.1931 -0.3658 -0.9104
vn -0.3919 -0.2539 -0.8843
vn 0.8907 0.1566 -0.4267
vn 0.9850 0.1657 -0.0479
vn 0.8154 -0.5720 -0.0892
vn 0.7492 -0.4911 -0.4444
vn -0.1617 0.9268 -0.3388
vn -0.1749 0.9830 0.0554
vn 0.5834 0.8121 0.0114
vn 0.4905 0.7843 -0.3799
vn -0.9163 -0.1272 -0.3797
vn -0.9796 -0.2007 0.0118
vn -0.8257 0.5613 0.0556
vn -0.7799 0.5263 -0.3387
vn 0.1421 -0.8845 -0.4443
vn 0.1891 -0.9779 -0.0891
vn -0.5536 -0.8314 -0.0476
vn -0.5069 -0.7491 -0.4265
vn 0.2109 -0.3255 -0.9217
vn -0.3659 -0.1932 -0.9104
vn 0.3257 0.2550 -0.9104
vn -0.2540 0.3919 -0.8843
vt 0.012167 0.894395
vt 0.012161 0.862608
vt 0.401654 0.862517
vt 0.401672 0.894215
vt 0.770729 0.637544
vt 0.738930 0.637544
vt 0.738908 0.007387
vt 0.770625 0.007379
vt 0.011087 0.358772
vt 0.011087 0.004670
vt 0.605569 0.004670
vt 0.605569 0.358772
vt 0.665754 0.637544
vt 0.633954 0.637544
vt 0.633932 0.007387
vt 0.665648 0.007379
vt 0.012153 0.781665
vt 0.012159 0.749877
vt 0.401667 0.750059
vt 0.401653 0.781757
vt 0.402511 0.898447
vt 0.406213 0.894954
vt 0.402459 0.858019
vt 0.406193 0.861757
vt 0.669880 0.006541
vt 0.666388 0.002840
vt 0.629432 0.006581
vt 0.633174 0.002846
vt 0.774855 0.006541
vt 0.771365 0.002840
vt 0.734408 0.006581
vt 0.738150 0.002846
vt 0.402486 0.785988
vt 0.406185 0.782501
vt 0.402477 0.745559
vt 0.406213 0.749304
vt 0.670203 0.637542
vt 0.629261 0.637543
vt 0.012154 0.786116
vt 0.012153 0.745183
vt 0.775179 0.637542
vt 0.734237 0.637543
vt 0.012161 0.898847
vt 0.012163 0.857914
vt 0.030357 0.917428
vt 0.384349 0.917072
vt 0.384371 0.939343
vt 0.030379 0.939699
vt 0.791830 0.023428
vt 0.792136 0.620638
vt 0.793836 0.619438
vt 0.793540 0.024632
vt 0.815803 0.024621
vt 0.816101 0.619427
vt 0.686854 0.023428
vt 0.687161 0.620638
vt 0.012407 0.719528
vt 0.012407 0.366267
vt 0.606199 0.366267
vt 0.606199 0.719528
vt 0.385556 0.915367
vt 0.029151 0.915731
vt 0.030336 0.804709
vt 0.384312 0.804599
vt 0.384318 0.826869
vt 0.030343 0.826979
vt 0.385520 0.802895
vt 0.029131 0.803011
vt 0.688564 0.024632
vt 0.688861 0.619438
vt 0.710827 0.024621
vt 0.711126 0.619427
vt 0.611519 0.619791
vt 0.611679 0.024324
vt 0.029925 0.727445
vt 0.384741 0.727787
vt 0.716494 0.619791
vt 0.716655 0.024324
vt 0.029921 0.840165
vt 0.384711 0.840261
vt 0.413096 0.829099
vt 0.844696 0.829099
vt 0.844696 0.859196
vt 0.413096 0.859196
vt 0.413096 0.795490
vt 0.844696 0.795490
vt 0.844696 0.825587
vt 0.413096 0.825587
vt 0.413096 0.761885
vt 0.844696 0.761885
vt 0.844696 0.791983
vt 0.413096 0.791983
vt 0.413096 0.728276
vt 0.844696 0.728276
vt 0.844696 0.758374
vt 0.413096 0.758374
vt 0.107983 0.983687
vt 0.111358 0.984368
vt 0.108613 0.987108
vt 0.082406 0.983545
vt 0.081894 0.986785
vt 0.079217 0.984090
vt 0.108067 0.957990
vt 0.108635 0.954717
vt 0.111358 0.957486
vt 0.082448 0.957934
vt 0.079161 0.957325
vt 0.081842 0.954645
vt 0.413096 0.724762
vt 0.844696 0.724763
vt 0.888655 0.437483
vt 0.858557 0.437483
vt 0.858557 0.005879
vt 0.888655 0.005879
vt 0.922263 0.437483
vt 0.892166 0.437483
vt 0.892166 0.005879
vt 0.922263 0.005879
vt 0.955869 0.437483
vt 0.925771 0.437483
vt 0.925771 0.005879
vt 0.955869 0.005879
vt 0.989477 0.437483
vt 0.959380 0.437483
vt 0.959380 0.005879
vt 0.989477 0.005879
vt 0.221686 0.960258
vt 0.222316 0.956836
vt 0.225061 0.959577
vt 0.196110 0.960400
vt 0.192920 0.959855
vt 0.195597 0.957160
vt 0.221771 0.985955
vt 0.225061 0.986459
vt 0.222338 0.989228
vt 0.196151 0.986011
vt 0.195545 0.989300
vt 0.192865 0.986620
vt 0.992991 0.437483
vt 0.992991 0.005879
vt 0.961249 0.441373
vt 0.991346 0.441373
vt 0.991346 0.872978
vt 0.961249 0.872978
vt 0.927640 0.441373
vt 0.957737 0.441373
vt 0.957737 0.872978
vt 0.927640 0.872978
vt 0.894035 0.441373
vt 0.924132 0.441373
vt 0.924132 0.872978
vt 0.894035 0.872978
vt 0.860426 0.441373
vt 0.890524 0.441373
vt 0.890524 0.872978
vt 0.860426 0.872978
vt 0.054205 0.960486
vt 0.054834 0.957064
vt 0.057579 0.959805
vt 0.028628 0.960627
vt 0.025438 0.960082
vt 0.028115 0.957387
vt 0.054289 0.986182
vt 0.057579 0.986686
vt 0.054856 0.989456
vt 0.028669 0.986238
vt 0.028063 0.989527
vt 0.025383 0.986847
vt 0.856912 0.441373
vt 0.856912 0.872978
vt 0.845719 0.893331
vt 0.414117 0.893331
vt 0.414117 0.863233
vt 0.845719 0.863233
vt 0.845719 0.926939
vt 0.414117 0.926939
vt 0.414117 0.896842
vt 0.845719 0.896842
vt 0.845719 0.960544
vt 0.414117 0.960544
vt 0.414117 0.930447
vt 0.845719 0.930447
vt 0.845719 0.994153
vt 0.414117 0.994153
vt 0.414117 0.964055
vt 0.845719 0.964055
vt 0.163985 0.985789
vt 0.167323 0.986440
vt 0.164631 0.989129
vt 0.138369 0.985797
vt 0.137835 0.989092
vt 0.135147 0.986348
vt 0.164045 0.960168
vt 0.164650 0.956930
vt 0.167323 0.959689
vt 0.138385 0.960134
vt 0.135092 0.959522
vt 0.137781 0.956836
vt 0.845719 0.997667
vt 0.414117 0.997667
s 1
usemtl Diffuse_Table
f 36/43/19 38/44/20 27/45/21 25/46/22
f 41/47/23 43/48/24 39/49/25 35/50/26
f 42/51/27 32/52/27 28/53/27 37/54/27
f 26/55/28 29/56/29 34/57/30 30/58/31
f 31/59/32 33/60/33 44/61/34 40/62/35
f 46/63/36 25/46/22 26/64/28
f 27/45/21 61/65/37 29/66/29
f 45/67/38 30/58/31 31/68/32
f 62/69/39 33/70/33 34/57/30
f 48/71/40 35/50/26 36/72/19
f 64/73/41 38/74/20 39/49/25
f 47/75/42 40/62/35 41/76/23
f 63/77/43 43/78/24 44/61/34
f 45/67/38 46/79/36 26/55/28 30/58/31
f 25/46/22 27/45/21 29/66/29 26/64/28
f 61/80/37 62/69/39 34/57/30 29/56/29
f 33/70/33 31/68/32 30/58/31 34/57/30
f 47/75/42 45/81/38 31/59/32 40/62/35
f 62/82/39 63/77/43 44/61/34 33/60/33
f 43/78/24 41/76/23 40/62/35 44/61/34
f 48/71/40 47/83/42 41/47/23 35/50/26
f 63/84/43 64/73/41 39/49/25 43/48/24
f 38/74/20 36/72/19 35/50/26 39/49/25
f 46/63/36 48/85/40 36/43/19 25/46/22
f 64/86/41 61/65/37 27/45/21 38/44/20
f 58/87/44 53/88/45 50/89/46 52/90/47
f 57/91/48 59/92/49 47/83/42 48/71/40
f 60/93/50 58/94/44 52/95/47 51/96/51
f 55/97/52 54/98/53 46/79/36 45/67/38
f 49/99/54 51/100/51 52/101/47 50/102/46
f 54/103/53 57/104/48 48/85/40 46/63/36
f 56/105/55 60/106/50 51/107/51 49/108/54
f 59/109/49 55/110/52 45/81/38 47/75/42
f 56/111/55 53/112/45 54/98/53 55/97/52
f 60/106/50 56/105/55 55/110/52 59/109/49
f 58/94/44 60/93/50 59/92/49 57/91/48
f 53/88/45 58/87/44 57/104/48 54/103/53
f 53/112/45 56/111/55 49/113/54 50/114/46
f 28/115/27 32/116/27 62/69/39 61/80/37
f 32/117/27 42/118/27 63/77/43 62/82/39
f 42/119/27 37/120/27 64/73/41 63/84/43
f 37/121/27 28/122/27 61/65/37 64/86/41
f 77/123/56 78/124/57 69/125/58 66/126/59
f 82/127/60 83/128/61 79/129/62 76/130/63
f 72/131/64 73/132/65 84/133/66 81/134/67
f 67/135/68 68/136/69 74/137/70 71/138/71
f 65/139/72 66/140/59 67/141/68
f 70/142/73 71/143/71 72/144/64
f 75/145/74 76/146/63 77/147/56
f 80/148/75 81/149/67 82/150/60
f 70/142/73 65/139/72 67/141/68 71/143/71
f 66/151/59 69/152/58 68/136/69 67/135/68
f 73/132/65 72/131/64 71/138/71 74/137/70
f 80/148/75 70/142/73 72/144/64 81/149/67
f 83/128/61 82/127/60 81/134/67 84/133/66
f 75/145/74 80/148/75 82/150/60 76/146/63
f 78/124/57 77/123/56 76/130/63 79/129/62
f 65/139/72 75/145/74 77/147/56 66/140/59
f 70/142/73 80/148/75 75/145/74 65/139/72
f 97/153/76 86/154/77 89/155/78 98/156/79
f 102/157/80 96/158/81 99/159/82 103/160/83
f 92/161/84 101/162/85 104/163/86 93/164/87
f 87/165/88 91/166/89 94/167/90 88/168/91
f 85/169/92 87/170/88 86/171/77
f 90/172/93 92/173/84 91/174/89
f 95/175/94 97/176/76 96/177/81
f 100/178/95 102/179/80 101/180/85
f 90/172/93 91/174/89 87/170/88 85/169/92
f 86/181/77 87/165/88 88/168/91 89/182/78
f 93/164/87 94/167/90 91/166/89 92/161/84
f 100/178/95 101/180/85 92/173/84 90/172/93
f 103/160/83 104/163/86 101/162/85 102/157/80
f 95/175/94 96/177/81 102/179/80 100/178/95
f 98/156/79 99/159/82 96/158/81 97/153/76
f 85/169/92 86/171/77 97/176/76 95/175/94
f 90/172/93 85/169/92 95/175/94 100/178/95
f 117/183/96 106/184/97 109/185/98 118/186/99
f 122/187/100 116/188/101 119/189/102 123/190/103
f 112/191/104 121/192/105 124/193/106 113/194/107
f 107/195/108 111/196/109 114/197/110 108/198/111
f 105/199/112 107/200/108 106/201/97
f 110/202/113 112/203/104 111/204/109
f 115/205/114 117/206/96 116/207/101
f 120/208/115 122/209/100 121/210/105
f 110/202/113 111/204/109 107/200/108 105/199/112
f 106/211/97 107/195/108 108/198/111 109/212/98
f 113/194/107 114/197/110 111/196/109 112/191/104
f 120/208/115 121/210/105 112/203/104 110/202/113
f 123/190/103 124/193/106 121/192/105 122/187/100
f 115/205/114 116/207/101 122/209/100 120/208/115
f 118/186/99 119/189/102 116/188/101 117/183/96
f 105/199/112 106/201/97 117/206/96 115/205/114
f 110/202/113 105/199/112 115/205/114 120/208/115
f 137/213/116 138/214/117 129/215/118 126/216/119
f 142/217/120 143/218/121 139/219/122 136/220/123
f 132/221/124 133/222/125 144/223/126 141/224/127
f 127/225/128 128/226/129 134/227/130 131/228/131
f 125/229/132 126/230/119 127/231/128
f 130/232/133 131/233/131 132/234/124
f 135/235/134 136/236/123 137/237/116
f 140/238/135 141/239/127 142/240/120
f 130/232/133 125/229/132 127/231/128 131/233/131
f 126/241/119 129/242/118 128/226/129 127/225/128
f 133/222/125 132/221/124 131/228/131 134/227/130
f 140/238/135 130/232/133 132/234/124 141/239/127
f 143/218/121 142/217/120 141/224/127 144/223/126
f 135/235/134 140/238/135 142/240/120 136/236/123
f 138/214/117 137/213/116 136/220/123 139/219/122
f 125/229/132 135/235/134 137/237/116 126/230/119
f 130/232/133 140/238/135 135/235/134 125/229/132
o diffuse_shelf_02
v 121.081207 -752.994507 94.500000
v 38.087898 -714.045166 94.500000
v 33.805309 -735.864136 94.500000
v 125.363800 -731.175537 94.500000
v 119.909058 -730.104919 277.941162
v 119.909058 -730.104858 107.192184
v 43.542629 -715.115845 277.941162
v 43.542637 -715.115845 107.192184
v 39.902431 -733.661987 277.941162
v 116.268860 -748.651062 277.941162
v 39.902435 -733.661926 107.192169
v 116.268860 -748.651001 107.192169
v 125.363792 -731.175537 280.720581
v 121.081207 -752.994507 280.720581
v 33.805302 -735.864197 280.720581
v 38.087891 -714.045166 280.720581
v 122.172150 -753.208679 283.500000
v 122.172150 -753.208679 281.502014
v 126.668869 -730.298706 281.502014
v 126.668869 -730.298706 283.500000
v 32.714352 -735.650024 283.500000
v 32.714352 -735.650024 281.502014
v 37.211071 -712.740112 283.500000
v 37.211071 -712.740112 281.502014
v 119.694931 -731.195801 154.535309
v 43.328506 -716.206787 154.535309
v 39.902435 -733.661926 154.535294
v 116.268860 -748.651001 154.535294
v 43.328506 -716.206787 152.311768
v 119.694931 -731.195801 152.311768
v 39.902435 -733.661926 152.311768
v 116.268860 -748.651001 152.311768
v 119.480804 -732.286804 152.311768
v 118.608383 -732.115540 152.311768
v 115.396439 -748.479797 152.311768
v 118.608383 -732.115540 151.644699
v 119.480804 -732.286804 151.644699
v 115.396439 -748.479797 151.644699
v 116.268860 -748.651001 151.644699
v 116.268860 -748.651001 152.311768
v 43.114376 -717.297729 152.311768
v 43.986794 -717.468933 152.311768
v 40.774853 -733.833191 152.311768
v 43.986794 -717.468933 151.644699
v 43.114376 -717.297729 151.644699
v 40.774853 -733.833191 151.644699
v 39.902435 -733.661926 151.644699
v 39.902435 -733.661926 152.311768
v 119.694931 -731.195801 180.105881
v 43.328506 -716.206787 180.105881
v 39.902435 -733.661926 180.105881
v 116.268860 -748.651001 180.105881
v 43.328506 -716.206787 177.882355
v 119.694931 -731.195801 177.882355
v 39.902435 -733.661926 177.882355
v 116.268860 -748.651001 177.882355
v 119.480804 -732.286804 177.882355
v 118.608383 -732.115540 177.882355
v 115.396439 -748.479797 177.882355
v 118.608383 -732.115540 177.215302
v 119.480804 -732.286804 177.215302
v 115.396439 -748.479797 177.215302
v 116.268860 -748.651001 177.215302
v 116.268860 -748.651001 177.882355
v 43.114376 -717.297729 177.882355
v 43.986794 -717.468933 177.882355
v 40.774853 -733.833191 177.882355
v 43.986794 -717.468933 177.215302
v 43.114376 -717.297729 177.215302
v 40.774853 -733.833191 177.215302
v 39.902435 -733.661926 177.215302
v 39.902435 -733.661926 177.882355
v 119.694931 -731.195862 205.676468
v 43.328503 -716.206787 205.676468
v 39.902431 -733.661987 205.676468
v 116.268860 -748.651001 205.676468
v 43.328503 -716.206787 203.452927
v 119.694931 -731.195862 203.452927
v 39.902435 -733.661987 203.452927
v 116.268860 -748.651001 203.452927
v 119.480804 -732.286804 203.452927
v 118.608383 -732.115540 203.452927
v 115.396439 -748.479797 203.452927
v 118.608383 -732.115540 202.785873
v 119.480804 -732.286804 202.785873
v 115.396439 -748.479797 202.785873
v 116.268860 -748.651001 202.785873
v 116.268860 -748.651001 203.452927
v 43.114376 -717.297729 203.452927
v 43.986794 -717.468933 203.452927
v 40.774853 -733.833191 203.452927
v 43.986794 -717.468933 202.785873
v 43.114376 -717.297729 202.785873
v 40.774853 -733.833191 202.785873
v 39.902435 -733.661987 202.785873
v 39.902435 -733.661987 203.452927
v 119.694931 -731.195862 231.247055
v 43.328503 -716.206787 231.247055
v 39.902431 -733.661987 231.247055
v 116.268860 -748.651001 231.247055
v 43.328503 -716.206787 229.023514
v 119.694931 -731.195862 229.023514
v 39.902431 -733.661987 229.023514
v 116.268860 -748.651001 229.023514
v 119.480797 -732.286804 229.023514
v 118.608383 -732.115540 229.023514
v 115.396439 -748.479797 229.023514
v 118.608383 -732.115540 228.356461
v 119.480797 -732.286804 228.356461
v 115.396439 -748.479797 228.356461
v 116.268860 -748.651001 228.356461
v 116.268860 -748.651001 229.023514
v 43.114372 -717.297729 229.023514
v 43.986794 -717.468994 229.023514
v 40.774849 -733.833191 229.023514
v 43.986794 -717.468994 228.356461
v 43.114372 -717.297729 228.356461
v 40.774849 -733.833191 228.356461
v 39.902431 -733.661987 228.356461
v 39.902431 -733.661987 229.023514
v 119.694931 -731.195862 256.817627
v 43.328503 -716.206787 256.817627
v 39.902431 -733.661987 256.817627
v 116.268860 -748.651001 256.817627
v 43.328503 -716.206787 254.594116
v 119.694931 -731.195862 254.594116
v 39.902431 -733.661987 254.594116
v 116.268860 -748.651001 254.594116
v 119.480797 -732.286804 254.594116
v 118.608383 -732.115540 254.594116
v 115.396439 -748.479797 254.594116
v 118.608383 -732.115540 253.927063
v 119.480797 -732.286804 253.927063
v 115.396439 -748.479797 253.927063
v 116.268860 -748.651001 253.927063
v 116.268860 -748.651001 254.594116
v 43.114372 -717.297729 254.594116
v 43.986790 -717.468994 254.594116
v 40.774849 -733.833191 254.594116
v 43.986790 -717.468994 253.927063
v 43.114372 -717.297729 253.927063
v 40.774849 -733.833191 253.927063
v 39.902431 -733.661987 253.927063
v 39.902431 -733.661987 254.594116
v 119.694931 -731.195801 128.964706
v 43.328506 -716.206787 128.964706
v 39.902435 -733.661926 128.964706
v 116.268860 -748.651001 128.964706
v 43.328506 -716.206787 126.741180
v 119.694931 -731.195801 126.741180
v 39.902435 -733.661926 126.741180
v 116.268860 -748.651001 126.741180
v 119.480804 -732.286743 126.741180
v 118.608383 -732.115540 126.741180
v 115.396439 -748.479797 126.741180
v 118.608383 -732.115540 126.074120
v 119.480804 -732.286743 126.074120
v 115.396439 -748.479797 126.074112
v 116.268860 -748.651001 126.074112
v 116.268860 -748.651001 126.741180
v 43.114376 -717.297729 126.741180
v 43.986794 -717.468933 126.741180
v 40.774853 -733.833191 126.741180
v 43.986794 -717.468933 126.074120
v 43.114376 -717.297729 126.074120
v 40.774853 -733.833191 126.074112
v 39.902435 -733.661926 126.074112
v 39.902435 -733.661926 126.741180
vn -0.4124 0.6139 -0.6731
vn -0.6489 -0.7153 -0.2592
vn -0.8043 -0.4705 -0.3629
vn -0.5003 0.7447 -0.4417
vn -0.1217 0.9457 0.3015
vn -0.1217 0.9457 -0.3015
vn 0.6139 0.4124 -0.6731
vn 0.6777 0.4553 -0.5774
vn -0.6777 -0.4553 -0.5774
vn -0.4553 0.6777 -0.5774
vn 0.3304 -0.9075 -0.2592
vn 0.4553 -0.6777 -0.5774
vn 0.4701 0.8295 0.3015
vn 0.4701 0.8295 -0.3015
vn -0.6777 -0.4553 0.5774
vn 0.4553 -0.6777 0.5774
vn 0.6777 0.4553 0.5774
vn -0.4553 0.6777 0.5774
vn 0.7447 0.5003 -0.4417
vn 0.5668 -0.7396 -0.3629
vn 0.1362 0.6939 0.7071
vn -0.0000 -0.0000 1.0000
vn 0.1362 0.6939 -0.7071
vn -0.0000 -0.0000 -1.0000
vn -0.1362 -0.6939 -0.7071
vn -0.8301 -0.5577 -0.0000
vn -0.5577 0.8301 -0.0000
vn 0.1926 0.9813 -0.0000
vn -0.1926 -0.9813 -0.0000
vn 0.5577 -0.8301 -0.0000
vn 0.8301 0.5577 -0.0000
vn 0.6777 0.4553 -0.5773
vn 0.4553 -0.6777 -0.5773
vt 0.910724 0.606259
vt 0.989116 0.606259
vt 0.989116 0.611050
vt 0.906804 0.611050
vt 0.613938 0.966226
vt 0.011952 0.966226
vt 0.002153 0.946628
vt 0.658686 0.946628
vt 0.780069 0.657875
vt 0.780069 0.001334
vt 0.858462 0.001334
vt 0.858462 0.657875
vt 0.629727 0.657876
vt 0.629727 0.001334
vt 0.708120 0.001334
vt 0.708120 0.657876
vt 0.963978 0.953926
vt 0.944379 0.998674
vt 0.670004 0.998674
vt 0.650405 0.953926
vt 0.996659 0.003858
vt 0.996659 0.273693
vt 0.931128 0.273693
vt 0.931128 0.003858
vt 0.989116 0.618094
vt 0.989116 0.939504
vt 0.906804 0.939503
vt 0.906804 0.618094
vt 0.894966 0.935583
vt 0.894969 0.622013
vt 0.899760 0.618094
vt 0.899759 0.939503
vt 0.659539 0.991588
vt 0.003002 0.991588
vt 0.012801 0.971990
vt 0.614791 0.971990
vt 0.624644 0.577883
vt 0.003749 0.577882
vt 0.003750 0.281335
vt 0.624645 0.281336
vt 0.317517 0.663987
vt 0.003945 0.663987
vt 0.003945 0.585594
vt 0.317517 0.585594
vt 0.978444 0.278821
vt 0.985488 0.278821
vt 0.985489 0.600233
vt 0.978444 0.600233
vt 0.001331 0.001326
vt 0.603325 0.001326
vt 0.603325 0.275702
vt 0.001331 0.275702
vt 0.927665 0.002061
vt 0.927666 0.604056
vt 0.861032 0.604056
vt 0.861031 0.002061
vt 0.710782 0.603328
vt 0.710781 0.001333
vt 0.777415 0.001333
vt 0.777415 0.603328
vt 0.326807 0.589611
vt 0.601183 0.589611
vt 0.601183 0.656245
vt 0.326807 0.656245
vt 0.885170 0.641612
vt 0.885168 0.915984
vt 0.906804 0.946547
vt 0.989116 0.946548
vt 0.989116 0.951339
vt 0.910723 0.951339
vt 0.975689 0.282741
vt 0.975688 0.596312
vt 0.558477 0.878351
vt 0.832841 0.878351
vt 0.832841 0.941063
vt 0.558477 0.941063
vt 0.558477 0.870512
vt 0.558477 0.807800
vt 0.832841 0.807800
vt 0.832841 0.870512
vt 0.605985 0.062479
vt 0.605985 0.003686
vt 0.609120 0.003686
vt 0.609119 0.062479
vt 0.611471 0.003686
vt 0.611471 0.062479
vt 0.609119 0.064831
vt 0.605985 0.064831
vt 0.609120 0.001335
vt 0.605985 0.001335
vt 0.613685 0.138933
vt 0.616819 0.138933
vt 0.616819 0.197726
vt 0.613685 0.197726
vt 0.619171 0.197726
vt 0.619171 0.138933
vt 0.616819 0.136581
vt 0.613685 0.136581
vt 0.616819 0.200077
vt 0.613685 0.200077
vt 0.554922 0.731143
vt 0.280558 0.731143
vt 0.280558 0.668431
vt 0.554922 0.668431
vt 0.554922 0.738982
vt 0.554922 0.801694
vt 0.280558 0.801694
vt 0.280558 0.738982
vt 0.622273 0.062477
vt 0.622275 0.003684
vt 0.625409 0.003684
vt 0.625407 0.062477
vt 0.627761 0.003684
vt 0.627759 0.062477
vt 0.625408 0.064829
vt 0.622273 0.064829
vt 0.625409 0.001333
vt 0.622275 0.001332
vt 0.605571 0.207142
vt 0.608705 0.207142
vt 0.608705 0.265935
vt 0.605571 0.265935
vt 0.611057 0.265935
vt 0.611057 0.207142
vt 0.608705 0.204791
vt 0.605571 0.204791
vt 0.608705 0.268287
vt 0.605571 0.268287
vt 0.003015 0.875554
vt 0.277378 0.875554
vt 0.277378 0.938266
vt 0.003015 0.938266
vt 0.003015 0.867715
vt 0.003015 0.805003
vt 0.277378 0.805003
vt 0.277378 0.867715
vt 0.621345 0.591306
vt 0.621344 0.650098
vt 0.618210 0.650098
vt 0.618211 0.591306
vt 0.615858 0.650098
vt 0.615859 0.591306
vt 0.618211 0.588954
vt 0.621345 0.588954
vt 0.618210 0.652450
vt 0.621344 0.652450
vt 0.605988 0.071199
vt 0.609122 0.071199
vt 0.609122 0.129992
vt 0.605988 0.129992
vt 0.611474 0.129992
vt 0.611474 0.071199
vt 0.609122 0.068848
vt 0.605988 0.068848
vt 0.609122 0.132343
vt 0.605988 0.132343
vt 0.277373 0.731785
vt 0.003009 0.731785
vt 0.003009 0.669074
vt 0.277373 0.669074
vt 0.277373 0.739624
vt 0.277373 0.802336
vt 0.003009 0.802336
vt 0.003009 0.739625
vt 0.622271 0.129998
vt 0.622272 0.071206
vt 0.625406 0.071206
vt 0.625405 0.129999
vt 0.627758 0.071206
vt 0.627757 0.129998
vt 0.625406 0.132350
vt 0.622271 0.132350
vt 0.625406 0.068855
vt 0.622272 0.068855
vt 0.614131 0.003686
vt 0.617265 0.003686
vt 0.617265 0.062478
vt 0.614131 0.062478
vt 0.619617 0.062478
vt 0.619617 0.003686
vt 0.617265 0.001335
vt 0.614131 0.001335
vt 0.617265 0.064830
vt 0.614131 0.064830
vt 0.554918 0.868004
vt 0.280554 0.868004
vt 0.280554 0.805293
vt 0.554918 0.805293
vt 0.554918 0.875843
vt 0.554918 0.938555
vt 0.280554 0.938555
vt 0.280554 0.875843
vt 0.614132 0.129990
vt 0.614132 0.071198
vt 0.617267 0.071198
vt 0.617267 0.129990
vt 0.619618 0.071198
vt 0.619618 0.129990
vt 0.617267 0.132342
vt 0.614132 0.132342
vt 0.617267 0.068846
vt 0.614132 0.068846
vt 0.621835 0.138936
vt 0.624969 0.138936
vt 0.624969 0.197728
vt 0.621835 0.197728
vt 0.627321 0.197728
vt 0.627321 0.138936
vt 0.624969 0.136584
vt 0.621835 0.136584
vt 0.624969 0.200080
vt 0.621835 0.200080
vt 0.565751 0.740565
vt 0.840114 0.740565
vt 0.840114 0.803276
vt 0.565751 0.803276
vt 0.565751 0.732726
vt 0.565751 0.670014
vt 0.840114 0.670014
vt 0.840114 0.732725
vt 0.557912 0.670014
vt 0.557912 0.732726
vt 0.847953 0.732725
vt 0.847953 0.670014
vt 0.565751 0.662175
vt 0.840114 0.662175
vt 0.605446 0.198158
vt 0.605452 0.139365
vt 0.608586 0.139365
vt 0.608580 0.198158
vt 0.610938 0.139366
vt 0.610932 0.198158
vt 0.608580 0.200510
vt 0.605446 0.200509
vt 0.608587 0.137014
vt 0.605452 0.137013
vt 0.606732 0.591302
vt 0.609866 0.591302
vt 0.609866 0.650095
vt 0.606732 0.650095
vt 0.612218 0.650095
vt 0.612218 0.591302
vt 0.609866 0.588950
vt 0.606732 0.588950
vt 0.609866 0.652446
vt 0.606732 0.652446
s 1
usemtl Diffuse_shelf
f 160/243/136 159/244/137 166/245/138 168/246/139
f 150/247/140 149/248/141 157/249/142 148/250/143
f 147/251/144 159/252/137 160/253/136 146/254/145
f 148/255/143 157/256/142 158/257/146 145/258/147
f 146/259/145 152/260/148 150/261/140 148/262/143
f 151/263/149 149/264/141 154/265/145 153/266/143
f 165/267/150 161/268/151 164/269/152 167/270/153
f 157/271/142 160/272/136 168/273/139 163/274/154
f 146/275/145 160/276/136 151/277/149 152/278/148
f 145/279/147 158/280/146 159/281/137 147/282/144
f 145/283/147 147/284/144 146/285/145 148/286/143
f 162/287/155 161/288/151 165/289/150 166/290/138
f 155/291/152 153/292/143 154/293/145 156/294/153
f 152/295/148 151/296/149 153/297/143 155/298/152
f 149/299/141 150/300/140 156/301/153 154/302/145
f 150/303/140 152/304/148 155/305/152 156/306/153
f 151/307/149 160/272/136 157/271/142 149/308/141
f 168/273/139 167/270/153 164/269/152 163/274/154
f 163/309/154 164/269/152 161/268/151 162/310/155
f 158/311/146 157/312/142 163/309/154 162/310/155
f 166/245/138 165/267/150 167/270/153 168/246/139
f 158/313/146 162/287/155 166/290/138 159/314/137
f 169/315/156 170/316/156 171/317/157 172/318/157
f 174/319/158 176/320/159 175/321/159 173/322/158
f 169/315/156 174/319/158 173/322/158 170/316/156
f 181/323/158 183/324/160 182/325/144 180/326/145
f 179/327/161 178/328/162 180/326/145 182/325/144
f 178/329/162 177/330/163 181/323/158 180/326/145
f 179/331/161 182/325/144 183/324/160 184/332/164
f 189/333/158 188/334/143 190/335/147 191/336/160
f 187/337/165 190/335/147 188/334/143 186/338/166
f 186/339/166 188/334/143 189/333/158 185/340/163
f 187/341/165 192/342/164 191/336/160 190/335/147
f 193/343/156 194/344/156 195/345/157 196/346/157
f 198/347/158 200/348/159 199/349/159 197/350/158
f 193/343/156 198/347/158 197/350/158 194/344/156
f 205/351/158 207/352/160 206/353/144 204/354/145
f 203/355/161 202/356/162 204/354/145 206/353/144
f 202/357/162 201/358/163 205/351/158 204/354/145
f 203/359/161 206/353/144 207/352/160 208/360/164
f 213/361/158 212/362/167 214/363/168 215/364/160
f 211/365/165 214/363/168 212/362/167 210/366/166
f 210/367/166 212/362/167 213/361/158 209/368/163
f 211/369/165 216/370/164 215/364/160 214/363/168
f 217/371/156 218/372/156 219/373/157 220/374/157
f 222/375/158 224/376/159 223/377/159 221/378/158
f 217/371/156 222/375/158 221/378/158 218/372/156
f 229/379/158 231/380/160 230/381/144 228/382/145
f 227/383/161 226/384/162 228/382/145 230/381/144
f 226/385/162 225/386/163 229/379/158 228/382/145
f 227/387/161 230/381/144 231/380/160 232/388/164
f 237/389/158 236/390/167 238/391/168 239/392/160
f 235/393/165 238/391/168 236/390/167 234/394/166
f 234/395/166 236/390/167 237/389/158 233/396/163
f 235/397/165 240/398/164 239/392/160 238/391/168
f 241/399/156 242/400/156 243/401/157 244/402/157
f 246/403/158 248/404/159 247/405/159 245/406/158
f 241/399/156 246/403/158 245/406/158 242/400/156
f 253/407/158 255/408/160 254/409/144 252/410/145
f 251/411/161 250/412/162 252/410/145 254/409/144
f 250/413/162 249/414/163 253/407/158 252/410/145
f 251/415/161 254/409/144 255/408/160 256/416/164
f 261/417/158 260/418/143 262/419/147 263/420/160
f 259/421/165 262/419/147 260/418/143 258/422/166
f 258/423/166 260/418/143 261/417/158 257/424/163
f 259/425/165 264/426/164 263/420/160 262/419/147
f 265/427/156 266/428/156 267/429/157 268/430/157
f 270/431/158 272/432/159 271/433/159 269/434/158
f 265/427/156 270/431/158 269/434/158 266/428/156
f 277/435/158 279/436/160 278/437/144 276/438/145
f 275/439/161 274/440/162 276/438/145 278/437/144
f 274/441/162 273/442/163 277/435/158 276/438/145
f 275/443/161 278/437/144 279/436/160 280/444/164
f 285/445/158 284/446/143 286/447/147 287/448/160
f 283/449/165 286/447/147 284/446/143 282/450/166
f 282/451/166 284/446/143 285/445/158 281/452/163
f 283/453/165 288/454/164 287/448/160 286/447/147
f 289/455/152 290/456/153 291/457/150 292/458/151
f 294/459/143 296/460/147 295/461/144 293/462/145
f 289/455/152 294/459/143 293/462/145 290/456/153
f 292/463/151 296/460/147 294/459/143 289/464/152
f 290/465/153 293/462/145 295/461/144 291/466/150
f 292/467/151 291/468/150 295/461/144 296/460/147
f 301/469/158 303/470/160 302/471/144 300/472/145
f 299/473/161 298/474/162 300/472/145 302/471/144
f 298/475/162 297/476/163 301/469/158 300/472/145
f 299/477/161 302/471/144 303/470/160 304/478/164
f 309/479/158 308/480/143 310/481/147 311/482/160
f 307/483/165 310/481/147 308/480/143 306/484/166
f 306/485/166 308/480/143 309/479/158 305/486/163
f 307/487/165 312/488/164 311/482/160 310/481/147
o diffuse_chair_03
v -88.654343 -766.786133 85.368103
v -88.894440 -768.099426 85.308769
v -88.594269 -766.457581 78.848801
v -112.650658 -762.399048 85.368103
v -112.890762 -763.712341 85.308769
v -112.590591 -762.070496 78.848801
v -112.830688 -763.383789 78.789474
v -88.834366 -767.770874 78.789474
v -74.968140 -733.970703 86.416458
v -74.878014 -733.621460 85.378906
v -113.622787 -725.757202 86.388763
v -113.583313 -725.418823 85.369675
v -73.549149 -728.599609 86.136215
v -74.232918 -727.497803 86.088409
v -73.552155 -728.116638 86.112320
v -73.802437 -727.713318 86.094818
v -74.225731 -727.458191 85.269547
v -73.541504 -728.559021 85.286285
v -73.795212 -727.673767 85.271790
v -73.544769 -728.076660 85.277916
v -112.018097 -719.923706 86.088409
v -113.050423 -720.682129 86.135513
v -112.495293 -719.957397 86.094719
v -112.873154 -720.234985 86.111961
v -113.045212 -720.622009 85.285980
v -112.013763 -719.866150 85.269547
v -112.868347 -720.176025 85.277771
v -112.490814 -719.899353 85.271751
v -85.085739 -773.808167 133.083923
v -85.010597 -772.002258 123.582962
v -85.428787 -775.662842 132.702194
v -85.607826 -773.784363 133.460495
v -86.613983 -773.528809 133.083923
v -88.142220 -773.249390 133.083923
v -86.635193 -773.644775 133.714020
v -86.123993 -773.728210 133.661194
v -87.142822 -773.541931 133.661194
v -87.645485 -773.411865 133.460495
v -88.324287 -771.396423 123.582962
v -88.395554 -769.563721 114.082001
v -88.723114 -773.550354 123.157074
v -88.485268 -775.104065 132.702194
v -88.849518 -772.017029 113.611954
v -85.409416 -774.156189 123.157074
v -86.957031 -775.383484 132.702194
v -87.988533 -775.266541 133.078781
v -87.485870 -775.396606 133.279465
v -86.978233 -775.499451 133.332306
v -86.467041 -775.582825 133.279465
v -85.950874 -775.639038 133.078781
v -85.463264 -772.636108 113.611954
v -85.539162 -770.509338 99.532150
v -85.009300 -770.182861 114.082001
v -84.984039 -767.510803 100.106682
v -84.749046 -764.850952 85.994339
v -88.436249 -766.879700 100.106682
v -88.333160 -764.195679 85.994339
v -88.991364 -769.878235 99.532150
v -89.135239 -768.568481 85.591705
v -89.129387 -767.906616 71.035049
v -85.551132 -769.223694 85.591705
v -85.545273 -768.561829 71.035049
v -85.469444 -767.935059 56.967949
v -84.826721 -764.635254 71.294861
v -88.410835 -763.979980 71.294861
v -84.830437 -764.439880 57.089737
v -88.093025 -763.843384 57.089737
v -84.800705 -764.277222 44.829769
v -85.118912 -764.493896 44.555805
v -85.371651 -767.400146 44.829762
v -87.861694 -763.717651 44.829769
v -87.636238 -764.033691 44.555805
v -88.432686 -766.840515 44.829762
v -88.107063 -766.609009 44.555801
v -88.732033 -767.338623 56.967949
v -85.589737 -767.069214 44.555801
v -118.999481 -769.525330 132.702194
v -118.484512 -768.109314 123.157074
v -118.502747 -769.687805 133.078781
v -118.664124 -767.669312 133.083923
v -117.471237 -769.804749 132.702194
v -115.943001 -770.084167 132.702194
v -118.000084 -769.817871 133.279465
v -117.492447 -769.920715 133.332306
v -116.981255 -770.004150 133.279465
v -116.465088 -770.060364 133.078781
v -115.170807 -768.715088 123.157074
v -114.510071 -767.325684 113.611954
v -114.781738 -766.559387 123.582962
v -114.066635 -764.870483 114.082001
v -115.607635 -768.228088 133.083923
v -118.095428 -765.953613 123.582962
v -117.135880 -767.948669 133.083923
v -116.129730 -768.204285 133.460495
v -116.645897 -768.148071 133.661194
v -117.157089 -768.064697 133.714020
v -117.664719 -767.961792 133.661194
v -118.167381 -767.831726 133.460495
v -117.452888 -764.251404 114.082001
v -116.531105 -761.743286 100.106682
v -117.896317 -766.706604 113.611954
v -117.072845 -764.744263 99.532150
v -116.606758 -763.546021 85.591705
v -113.620636 -765.375427 99.532150
v -113.022644 -764.201294 85.591705
v -113.078903 -762.374451 100.106682
v -112.225662 -759.827576 85.994339
v -115.809769 -759.172302 85.994339
v -112.076698 -759.653320 71.294861
v -115.660812 -758.998047 71.294861
v -112.793938 -763.580139 71.035049
v -112.325607 -759.413086 57.089737
v -115.588196 -758.816650 57.089737
v -112.964615 -762.908325 56.967949
v -112.497482 -759.213623 44.829769
v -112.820190 -759.429443 44.555805
v -113.068375 -762.336548 44.829762
v -115.558472 -758.653992 44.829769
v -115.337509 -758.969238 44.555805
v -116.129410 -761.776917 44.829762
v -115.808342 -761.544556 44.555801
v -116.227203 -762.311829 56.967949
v -116.378052 -762.924927 71.035049
v -113.291016 -762.004761 44.555801
v -78.790161 -731.282959 85.421356
v -77.958176 -726.732178 85.153168
v -75.146469 -731.949158 85.421356
v -79.035446 -731.527832 75.230270
v -79.280739 -731.772644 65.039177
v -75.619781 -732.152283 75.230270
v -78.262756 -727.306946 75.029129
v -78.567352 -727.881714 64.905083
v -74.847092 -727.931458 75.029129
v -74.314484 -727.398315 85.153168
v -75.387299 -728.463135 64.905083
v -75.897110 -729.000366 54.781044
v -76.100693 -732.354004 65.039177
v -76.551193 -732.561340 54.848091
v -79.526031 -732.017456 54.848091
v -76.862961 -732.786194 44.930862
v -77.091858 -732.473572 44.657005
v -76.270355 -729.545532 44.930855
v -79.749039 -732.258606 44.930862
v -79.436333 -732.044922 44.657005
v -79.156448 -729.017944 44.930855
v -78.944069 -729.352417 44.657005
v -78.871941 -728.456543 54.781044
v -76.599602 -729.781006 44.657005
v -109.506180 -725.667358 85.421356
v -108.674179 -721.116577 85.153168
v -113.149857 -725.001221 85.421356
v -109.363380 -725.983154 75.230270
v -109.220581 -726.298950 65.039177
v -112.779045 -725.358704 75.230270
v -108.592659 -721.761963 75.029129
v -108.511139 -722.407349 64.905083
v -112.008331 -721.137512 75.029129
v -112.317871 -720.450439 85.153168
v -111.691193 -721.825928 64.905083
v -111.404457 -722.508789 54.781044
v -112.400627 -725.717529 65.039177
v -112.052612 -726.070862 54.848091
v -109.077774 -726.614746 54.848091
v -111.840584 -726.391479 44.930862
v -111.515869 -726.180054 44.657005
v -111.248238 -723.150757 44.930855
v -108.954506 -726.919128 44.930862
v -109.171394 -726.608704 44.657005
v -108.362144 -723.678406 44.930855
v -108.679138 -723.916138 44.657005
v -108.429626 -723.052673 54.781044
v -111.023605 -723.487488 44.657005
v -77.155304 -731.638794 78.792244
v -75.896774 -731.997437 78.769943
v -86.495567 -764.351807 78.848801
v -77.005875 -731.479797 85.221161
v -75.747345 -731.838501 85.198860
v -86.379089 -764.373108 85.277725
v -85.120560 -764.731812 85.255424
v -85.237030 -764.710510 78.826508
v -111.164246 -725.378601 78.792076
v -112.468269 -725.268799 78.769775
v -114.001312 -759.323120 78.848801
v -111.230263 -725.127686 85.220993
v -112.534286 -725.017822 85.198700
v -114.109581 -759.303345 85.277725
v -115.413605 -759.193542 85.255424
v -115.305344 -759.213318 78.826508
v -88.516129 -767.539124 101.296921
v -88.790825 -769.041626 101.006836
v -88.428635 -767.060547 98.735336
v -113.248734 -763.017395 101.296921
v -113.523438 -764.519958 101.006836
v -113.161240 -762.538818 98.735336
v -113.435944 -764.041382 98.445251
v -88.703331 -768.563049 98.445251
v -88.213768 -773.438477 131.566376
v -88.488464 -774.941040 131.276276
v -88.382034 -772.526611 127.002686
v -94.938240 -772.209106 131.566376
v -94.947441 -771.326294 127.002686
v -95.212936 -773.711609 131.276276
v -94.968063 -772.372192 132.439377
v -101.190552 -771.066040 131.566376
v -101.916313 -770.933350 131.566376
v -101.265366 -771.472595 133.743164
v -101.034454 -770.213440 127.002686
v -101.760437 -770.080750 127.002686
v -101.309151 -771.716003 126.712601
v -102.035133 -771.583252 126.712601
v -101.465248 -772.568542 131.276276
v -95.222137 -772.828857 126.712601
v -88.656738 -774.029175 126.712601
v -102.191010 -772.435852 131.276276
v -101.540062 -772.975159 133.453064
v -102.267502 -772.854248 133.515717
v -95.242760 -773.874756 132.149292
v -102.990662 -772.709961 133.453064
v -101.992805 -771.351746 133.805801
v -102.715965 -771.207397 133.743164
v -102.642075 -770.800659 131.566376
v -108.924202 -769.820679 132.439377
v -109.198898 -771.323242 132.149292
v -108.894386 -769.657593 131.566376
v -115.618858 -768.428223 131.566376
v -108.573433 -768.835144 127.002686
v -109.169083 -771.160095 131.276276
v -115.893555 -769.930725 131.276276
v -108.848129 -770.337708 126.712601
v -102.916771 -772.303162 131.276276
v -102.761116 -771.450562 126.712601
v -102.486420 -769.947998 127.002686
v -115.413528 -769.137390 126.712601
v -115.138840 -767.634827 127.002686
v -94.835815 -772.196472 126.911545
v -94.706642 -771.489929 127.046310
v -93.966362 -767.440796 101.143730
v -96.485046 -771.894958 126.911545
v -96.355865 -771.188416 127.046310
v -95.615593 -767.139282 101.143730
v -95.486412 -766.432739 101.278511
v -93.837189 -766.734253 101.278511
v -108.985725 -769.609558 126.911545
v -108.856552 -768.903015 127.046310
v -108.116272 -764.853882 101.143730
v -107.336502 -769.911072 126.911545
v -107.207329 -769.204529 127.046310
v -106.467049 -765.155396 101.143730
v -106.337875 -764.448853 101.278511
v -107.987099 -764.147339 101.278511
v -104.807732 -769.683289 127.034172
v -98.761978 -770.788574 127.034172
v -104.982758 -770.640686 126.860054
v -104.702629 -769.108459 123.767715
v -104.836853 -769.023743 123.437050
v -98.656883 -770.213745 123.767715
v -104.877663 -770.065796 123.593590
v -105.011887 -769.981140 123.262924
v -98.831909 -771.171082 123.593590
v -98.676407 -771.139404 123.262924
v -98.937012 -771.745972 126.860054
v -98.501381 -770.182007 123.437050
v -98.163803 -771.141235 122.757729
v -105.491982 -769.801453 122.757729
v -97.988770 -770.183838 122.931847
v -97.799736 -771.084595 122.080482
v -97.495613 -770.967834 121.132637
v -105.812469 -769.619690 122.080482
v -97.624702 -770.127258 122.254585
v -97.320580 -770.010437 121.306763
v -105.637444 -768.662354 122.254585
v -105.880569 -768.445496 121.306763
v -105.316956 -768.844116 122.931847
v -106.055595 -769.402893 121.132637
v -105.930283 -768.265198 120.365532
v -105.828430 -768.065063 119.162743
v -97.210297 -769.859436 120.365532
v -106.105316 -769.222595 120.191414
v -97.385323 -770.816833 120.191414
v -106.003456 -769.022461 118.988625
v -97.409782 -770.593567 118.988625
v -105.734573 -768.852539 117.784142
v -105.440628 -768.687439 116.580856
v -105.559547 -767.895203 117.958275
v -97.601158 -770.339539 117.784142
v -97.817665 -770.081116 116.580856
v -97.426125 -769.382141 117.958275
v -97.642639 -769.123718 116.754974
v -97.234756 -769.636230 119.162743
v -105.265602 -767.730103 116.754974
v -97.962074 -768.783508 115.205208
v -98.191093 -768.484070 113.789017
v -104.846436 -767.524841 115.205208
v -98.137108 -769.740845 115.031097
v -98.366127 -769.441406 113.614899
v -105.021469 -768.482239 115.031097
v -104.701317 -768.283203 113.614899
v -104.526291 -767.325806 113.789017
v -104.369888 -768.037903 111.933151
v -104.223259 -767.830078 110.642906
v -104.194855 -767.080566 112.107277
v -98.589333 -769.094727 111.933151
v -98.652939 -768.848450 110.642906
v -98.414307 -768.137390 112.107277
v -98.477905 -767.891113 110.817024
v -104.048225 -766.872681 110.817024
v -98.447311 -767.599365 109.182365
v -98.390236 -767.201904 106.939468
v -103.973633 -766.589050 109.182365
v -98.622337 -768.556763 109.008263
v -98.565269 -768.159241 106.765350
v -104.148666 -767.546387 109.008263
v -104.061401 -767.154419 106.765350
v -103.886375 -766.197083 106.939468
v -103.874001 -766.129395 100.940857
v -103.698975 -765.171997 101.114975
v -98.377861 -767.134216 100.940857
v -98.202835 -766.176819 101.114975
v -78.067856 -727.893372 85.004036
v -78.307701 -729.205261 85.090042
v -78.137695 -728.275391 78.982323
v -108.791290 -722.276428 85.004036
v -109.031128 -723.588318 85.090042
v -108.861122 -722.658447 78.982323
v -109.100967 -723.970276 79.068329
v -78.377533 -729.587280 79.068329
v -78.171837 -728.462097 76.038391
v -78.411682 -729.773987 76.124397
v -78.192337 -728.574280 74.270401
v -108.895264 -722.845154 76.038391
v -109.135109 -724.157043 76.124397
v -108.915771 -722.957336 74.270401
v -109.155609 -724.269165 74.356407
v -78.432182 -729.886169 74.356407
v -77.222214 -731.345154 73.269806
v -75.963837 -731.703796 73.247513
v -86.621178 -764.328857 73.326538
v -77.195824 -731.349976 74.836647
v -75.937447 -731.708618 74.814354
v -86.594788 -764.333679 74.893372
v -85.336418 -764.692322 74.871078
v -85.362808 -764.687500 73.304237
v -110.996376 -725.170471 73.269806
v -112.300240 -725.060669 73.247513
v -113.875702 -759.346069 73.326538
v -111.022766 -725.165649 74.836647
v -112.326630 -725.055847 74.814354
v -113.902084 -759.341248 74.893372
v -115.205948 -759.231445 74.871078
v -115.179558 -759.236267 73.304237
v -81.208710 -757.630005 86.283356
v -116.480186 -751.065125 86.283356
v -81.196259 -757.579590 85.257645
v -82.954399 -764.192627 86.452484
v -84.569557 -764.949097 86.478317
v -82.916000 -764.045532 85.369232
v -117.241791 -757.923401 86.452827
v -115.976837 -759.207520 86.478317
v -117.224121 -757.769897 85.369385
v -115.958839 -759.052979 85.386520
v -116.473602 -751.013245 85.256989
v -84.531021 -764.800781 85.386520
v -81.186546 -757.508728 86.283356
v -79.794815 -752.301086 86.283356
v -116.458862 -750.948425 86.283356
v -81.174477 -757.460449 85.257645
v -79.769600 -752.203979 85.379395
v -116.452660 -750.898682 85.256989
v -115.807480 -745.031738 85.370995
v -115.817970 -745.120972 86.283356
v -79.775848 -752.197388 86.283356
v -78.042313 -745.624756 86.270882
v -115.794540 -744.992798 86.283356
v -79.749878 -752.096069 85.379395
v -78.067825 -745.715820 85.233063
v -115.783363 -744.899841 85.370995
v -115.037666 -738.301331 85.234848
v -115.029739 -738.219482 86.261932
v -78.021492 -745.510864 86.270882
v -76.564377 -740.049683 86.112228
v -115.012970 -738.127808 86.261932
v -78.046394 -745.598633 85.233063
v -76.515305 -739.858032 85.277496
v -115.020378 -738.206726 85.234848
v -114.380280 -732.410217 85.278717
v -114.404266 -732.611450 86.115891
v -76.529305 -739.857788 86.112228
v -74.980919 -734.040649 86.416458
v -114.368469 -732.415588 86.115891
v -76.479950 -739.664673 85.277496
v -74.892609 -733.701233 85.378906
v -114.344193 -732.212769 85.278717
v -113.603500 -725.529236 85.369675
v -113.641251 -725.858215 86.388763
v -89.162354 -768.677673 86.622009
v -89.127312 -768.526123 85.530212
v -88.374077 -764.274048 86.427048
v -113.000664 -764.319458 86.622009
v -112.179855 -759.921814 86.427048
v -112.979820 -764.165344 85.530212
v -112.172363 -759.870117 85.400681
v -88.362793 -764.223083 85.400681
v -88.564423 -766.294312 74.871078
v -88.804520 -767.607605 74.811752
v -88.550270 -766.216919 73.326538
v -112.560738 -761.907227 74.871078
v -112.800842 -763.220520 74.811752
v -112.546593 -761.829834 73.326538
v -112.786697 -763.143127 73.267204
v -88.790375 -767.530212 73.267204
vn -0.4696 0.6439 0.6041
vn -0.6763 -0.4908 0.5493
vn 0.4589 -0.6984 0.5493
vn 0.6670 0.4361 0.6041
vn 0.4696 -0.6439 -0.6041
vn 0.6763 0.4908 -0.5493
vn -0.4589 0.6984 -0.5493
vn -0.6670 -0.4361 -0.6041
vn 0.2436 0.7060 -0.6650
vn 0.0468 0.7490 -0.6609
vn 0.0508 0.7279 0.6838
vn 0.2350 0.6946 0.6799
vn 0.3884 -0.7715 0.5039
vn 0.4719 -0.5977 -0.6481
vn 0.7286 -0.1000 -0.6776
vn 0.7325 -0.0646 0.6777
vn -0.7176 0.1728 -0.6747
vn -0.6091 0.4711 -0.6381
vn -0.2671 0.7281 -0.6313
vn -0.6625 -0.3730 -0.6495
vn -0.6565 -0.5584 0.5071
vn -0.7040 0.2032 0.6805
vn 0.7342 0.2098 -0.6457
vn 0.7255 0.2277 0.6495
vn 0.5180 0.5663 -0.6411
vn 0.5051 0.5685 0.6494
vn -0.2506 0.7109 0.6572
vn -0.5886 0.4737 0.6551
vn 0.7939 0.4021 0.4561
vn 0.8222 0.5585 0.1099
vn 0.1768 0.9668 0.1845
vn 0.5763 -0.7835 0.2323
vn 0.5708 -0.8108 -0.1296
vn 0.4499 0.4702 0.7593
vn 0.2063 -0.8404 0.5012
vn -0.5806 0.6561 0.4821
vn -0.2538 0.5997 0.7589
vn -0.5717 0.8040 0.1636
vn 0.0959 0.5239 0.8463
vn -0.0772 0.5519 0.8303
vn 0.2677 0.4885 0.8305
vn -0.8225 -0.5637 -0.0756
vn -0.5707 0.8058 0.1581
vn -0.8228 -0.5628 -0.0783
vn 0.8214 0.5600 0.1080
vn -0.8006 -0.5412 0.2573
vn -0.1773 -0.9696 -0.1689
vn 0.5705 -0.8111 -0.1290
vn -0.4907 -0.7124 0.5018
vn -0.3150 -0.7574 0.5719
vn -0.1460 -0.7981 0.5846
vn 0.0263 -0.8201 0.5716
vn 0.5747 -0.8121 -0.1006
vn 0.8202 0.5606 0.1140
vn -0.8281 -0.5574 -0.0598
vn -0.5713 0.8064 0.1529
vn 0.5734 -0.8173 -0.0565
vn 0.8062 0.5881 0.0643
vn -0.5495 0.8313 0.0833
vn -0.8283 -0.5592 -0.0348
vn -0.5719 0.8203 0.0054
vn -0.8251 -0.5638 -0.0361
vn 0.5679 -0.8224 -0.0354
vn 0.8223 0.5691 0.0058
vn 0.5682 -0.8223 -0.0326
vn 0.8225 0.5687 0.0086
vn -0.8220 -0.5677 -0.0448
vn -0.5676 0.8233 -0.0036
vn 0.7576 0.5262 -0.3861
vn -0.5184 0.7597 -0.3926
vn 0.5253 -0.7464 -0.4087
vn 0.3494 0.2443 -0.9046
vn -0.2367 0.3519 -0.9056
vn 0.2441 -0.3399 -0.9082
vn -0.3450 -0.2326 -0.9093
vn -0.7513 -0.5128 -0.4153
vn -0.8163 -0.5289 0.2323
vn -0.8207 -0.5564 -0.1296
vn -0.6003 0.6570 0.4561
vn -0.5714 0.8133 0.1099
vn -0.4903 -0.7131 0.5012
vn -0.2544 0.5990 0.7593
vn 0.5699 -0.8182 -0.0756
vn 0.5573 -0.7894 0.2573
vn 0.2069 -0.8399 0.5018
vn -0.3147 -0.7578 0.5716
vn -0.1458 -0.7981 0.5846
vn 0.0266 -0.8199 0.5719
vn 0.8192 0.5497 0.1636
vn 0.7752 0.4082 0.4821
vn -0.8206 -0.5568 -0.1290
vn 0.5705 -0.8176 -0.0783
vn 0.8189 0.5517 0.1581
vn -0.5701 0.8144 0.1080
vn 0.4495 0.4711 0.7589
vn 0.2675 0.4889 0.8303
vn 0.0957 0.5240 0.8463
vn -0.0776 0.5516 0.8305
vn -0.5688 0.8146 0.1140
vn -0.8249 -0.5562 -0.1006
vn 0.8197 0.5520 0.1529
vn 0.5773 -0.8143 -0.0598
vn -0.5460 0.8353 0.0643
vn -0.8255 -0.5616 -0.0565
vn 0.5769 -0.8161 -0.0348
vn 0.8081 0.5831 0.0833
vn 0.8252 0.5649 0.0054
vn -0.5677 0.8232 0.0058
vn 0.5723 -0.8193 -0.0361
vn 0.8222 0.5692 -0.0036
vn -0.5681 0.8229 0.0086
vn 0.5680 -0.8218 -0.0448
vn 0.7537 0.5271 -0.3926
vn -0.5224 0.7602 -0.3861
vn 0.5213 -0.7455 -0.4153
vn 0.3459 0.2454 -0.9056
vn -0.2404 0.3521 -0.9046
vn 0.2404 -0.3396 -0.9093
vn -0.3486 -0.2315 -0.9082
vn -0.7554 -0.5122 -0.4087
vn -0.8224 -0.5680 -0.0326
vn -0.8221 -0.5683 -0.0354
vn -0.6600 -0.4421 0.6074
vn -0.4517 0.7048 0.5470
vn -0.5684 0.8222 -0.0296
vn -0.8227 -0.5675 0.0334
vn 0.4801 -0.6480 0.5913
vn 0.6900 0.4919 0.5310
vn 0.5674 -0.8234 -0.0102
vn 0.5670 -0.8237 -0.0094
vn 0.8215 0.5655 -0.0732
vn 0.8211 0.5661 -0.0724
vn 0.5661 -0.8243 -0.0038
vn 0.8205 0.5677 -0.0670
vn -0.5686 0.8220 -0.0300
vn -0.8228 -0.5674 0.0329
vn -0.7624 -0.5285 -0.3735
vn 0.5153 -0.7628 -0.3908
vn 0.7482 0.5090 -0.4256
vn -0.3534 -0.2463 -0.9025
vn 0.2335 -0.3548 -0.9053
vn 0.3426 0.2297 -0.9110
vn -0.5304 0.7433 -0.4077
vn -0.2492 0.3368 -0.9080
vn 0.4609 -0.6470 0.6074
vn 0.5686 -0.8219 0.0334
vn 0.8225 0.5679 -0.0296
vn 0.6718 0.4994 0.5470
vn -0.4713 0.7042 0.5310
vn -0.6783 -0.4362 0.5913
vn -0.8220 -0.5694 -0.0102
vn 0.5687 -0.8219 0.0334
vn -0.8218 -0.5698 -0.0094
vn -0.5683 0.8196 -0.0732
vn -0.5677 0.8200 -0.0724
vn -0.5665 0.8213 -0.0670
vn -0.8212 -0.5707 -0.0038
vn 0.8227 0.5677 -0.0300
vn 0.5688 -0.8218 0.0329
vn 0.5261 -0.7640 -0.3735
vn -0.7518 -0.5311 -0.3908
vn -0.5197 0.7408 -0.4256
vn -0.3439 -0.2493 -0.9053
vn 0.2434 -0.3554 -0.9025
vn -0.2392 0.3361 -0.9110
vn 0.3522 0.2268 -0.9080
vn 0.7590 0.5076 -0.4077
vn -0.3837 0.7197 0.5787
vn 0.7239 0.4045 0.5588
vn 0.7027 0.3893 -0.5955
vn -0.4103 0.7073 -0.5757
vn 0.3869 -0.7120 -0.5860
vn -0.7233 -0.3949 -0.5666
vn -0.7036 -0.3990 0.5879
vn 0.4068 -0.7150 0.5686
vn 0.6139 0.5396 0.5762
vn 0.6337 0.5140 -0.5781
vn -0.5208 0.6101 -0.5971
vn -0.5328 0.6370 0.5571
vn 0.5363 -0.6251 -0.5671
vn -0.6142 -0.5290 -0.5856
vn 0.5174 -0.6222 0.5874
vn -0.6330 -0.5249 0.5690
vn -0.4853 0.5558 0.6749
vn -0.6893 -0.5601 0.4595
vn 0.4466 -0.7678 0.4595
vn 0.6506 0.3482 0.6749
vn 0.4853 -0.5558 -0.6749
vn 0.6893 0.5601 -0.4595
vn -0.4466 0.7678 -0.4595
vn -0.6506 -0.3482 -0.6749
vn 0.4463 0.7646 0.4650
vn 0.1267 -0.9837 0.1274
vn 0.4694 -0.7647 0.4414
vn 0.6722 0.3442 0.6555
vn 0.4630 -0.5521 -0.6934
vn 0.6683 0.5712 -0.4766
vn 0.1487 0.8131 -0.5628
vn 0.1767 0.9664 0.1866
vn 0.7039 0.3628 0.6107
vn 0.4958 -0.7755 0.3909
vn 0.2018 0.5210 0.8294
vn 0.0973 0.5319 0.8412
vn -0.1012 -0.5536 -0.8266
vn -0.1767 -0.9664 -0.1866
vn -0.0434 -0.8202 0.5704
vn -0.1459 -0.7983 0.5844
vn -0.2496 -0.7825 0.5704
vn -0.0044 0.5587 0.8294
vn -0.1469 0.8730 0.4650
vn -0.5300 0.5884 0.6107
vn -0.7381 -0.5499 0.3909
vn -0.4665 -0.8753 0.1274
vn -0.5069 0.5598 0.6555
vn -0.7096 -0.5491 0.4414
vn -0.4230 0.7707 -0.4766
vn -0.6284 -0.3526 -0.6934
vn -0.6891 -0.5591 0.4610
vn 0.4467 -0.7668 0.4610
vn 0.6508 0.3496 0.6739
vn -0.4850 0.5573 0.6739
vn 0.4850 -0.5573 -0.6739
vn 0.6891 0.5591 -0.4610
vn -0.6508 -0.3496 -0.6739
vn -0.4467 0.7668 -0.4610
vn -0.4840 0.5629 0.6700
vn 0.6519 0.3552 0.6700
vn 0.7595 0.5940 0.2653
vn -0.5002 0.8243 0.2653
vn -0.6884 -0.5552 0.4666
vn 0.4474 -0.7629 0.4666
vn -0.7680 -0.6405 -0.0011
vn -0.4176 0.7607 0.4970
vn -0.6832 -0.6921 0.2327
vn 0.6597 0.5637 0.4970
vn 0.4917 -0.8708 -0.0011
vn 0.3941 -0.8891 0.2327
vn -0.7233 -0.6194 0.3053
vn 0.4573 -0.8353 0.3053
vn 0.6960 0.4702 0.5427
vn -0.7955 -0.5894 0.1410
vn 0.5355 -0.8327 0.1410
vn 0.7786 0.4972 0.3829
vn 0.5785 -0.8156 0.0097
vn 0.8213 0.5123 0.2512
vn -0.8296 -0.5582 0.0097
vn -0.5869 0.7697 0.2512
vn -0.5523 0.7405 0.3829
vn -0.4846 0.6860 0.5427
vn 0.8322 0.5382 0.1334
vn -0.5879 0.7979 0.1334
vn -0.8329 -0.5423 -0.1104
vn -0.5796 0.8141 0.0363
vn -0.8246 -0.5262 -0.2074
vn 0.8302 0.5563 0.0363
vn 0.5872 -0.8019 -0.1104
vn 0.5851 -0.7840 -0.2074
vn -0.8044 -0.5332 -0.2622
vn 0.5637 -0.7833 -0.2622
vn -0.5548 0.8319 -0.0139
vn -0.8010 -0.5304 -0.2776
vn 0.5615 -0.7795 -0.2776
vn -0.5516 0.8336 -0.0296
vn 0.8132 0.5818 -0.0139
vn 0.8109 0.5845 -0.0296
vn 0.8060 0.5916 -0.0207
vn -0.5445 0.8385 -0.0207
vn 0.5539 -0.7871 -0.2714
vn 0.5597 -0.7908 -0.2475
vn 0.8112 0.5847 0.0027
vn -0.5519 0.8339 0.0027
vn -0.7966 -0.5402 -0.2714
vn -0.8034 -0.5416 -0.2475
vn -0.8052 -0.5545 -0.2101
vn 0.5570 -0.8035 -0.2101
vn -0.5516 0.8331 0.0423
vn -0.8126 -0.5608 -0.1585
vn 0.5616 -0.8121 -0.1585
vn -0.5595 0.8235 0.0933
vn 0.8106 0.5840 0.0423
vn 0.8147 0.5723 0.0933
vn 0.8203 0.5597 0.1176
vn -0.5693 0.8137 0.1176
vn 0.5697 -0.8112 -0.1317
vn 0.5696 -0.8121 -0.1270
vn 0.8202 0.5588 0.1223
vn -0.5694 0.8129 0.1223
vn -0.8199 -0.5572 -0.1317
vn -0.8201 -0.5580 -0.1270
vn -0.6519 -0.3552 -0.6700
vn 0.4840 -0.5629 -0.6700
vn -0.4474 0.7629 -0.4667
vn 0.6884 0.5552 -0.4667
vn -0.4576 0.7071 0.5390
vn -0.6649 -0.4264 0.6133
vn 0.4710 -0.6340 0.6133
vn 0.6782 0.4995 0.5390
vn 0.4576 -0.7071 -0.5390
vn 0.6649 0.4264 -0.6133
vn -0.4710 0.6340 -0.6133
vn -0.6782 -0.4995 -0.5390
vn -0.3872 0.7117 0.5861
vn 0.7231 0.3953 0.5665
vn 0.7037 0.3988 -0.5881
vn -0.4067 0.7152 -0.5684
vn 0.3872 -0.7117 -0.5861
vn -0.7231 -0.3953 -0.5665
vn -0.7037 -0.3988 0.5881
vn 0.4067 -0.7152 0.5684
vn 0.6140 0.5286 0.5861
vn 0.6334 0.5251 -0.5684
vn -0.5170 0.6220 -0.5881
vn -0.5365 0.6255 0.5665
vn 0.5365 -0.6255 -0.5665
vn -0.6140 -0.5286 -0.5861
vn 0.5170 -0.6220 0.5881
vn -0.6334 -0.5251 0.5684
vn 0.6944 0.4267 0.5794
vn -0.4935 0.6486 0.5795
vn -0.7482 -0.2793 0.6019
vn 0.5998 -0.5250 0.6039
vn 0.6918 0.4499 -0.5648
vn -0.4827 0.6692 -0.5649
vn 0.6018 -0.4770 -0.6405
vn 0.0978 -0.7904 0.6048
vn 0.0978 -0.7206 -0.6865
vn -0.3688 -0.7057 0.6049
vn -0.7327 -0.2317 -0.6399
vn -0.3436 -0.6397 -0.6876
vn 0.4285 -0.7020 0.5688
vn 0.4397 -0.6678 -0.6006
vn 0.6985 0.4707 -0.5389
vn 0.6943 0.3971 0.6002
vn -0.4936 0.6287 0.6010
vn -0.6530 -0.5002 0.5686
vn -0.6518 -0.4638 -0.6001
vn -0.4760 0.6969 -0.5364
vn 0.4166 -0.7216 0.5529
vn 0.4461 -0.6641 -0.5999
vn 0.6909 0.3994 -0.6026
vn 0.6958 0.4614 0.5504
vn -0.4771 0.6877 0.5472
vn -0.6577 -0.5112 0.5533
vn -0.6581 -0.4515 -0.6026
vn -0.4897 0.6300 -0.6027
vn 0.4423 -0.6589 0.6085
vn 0.4181 -0.7131 -0.5627
vn 0.7008 0.5058 -0.5031
vn 0.6931 0.3607 0.6241
vn -0.5110 0.5916 0.6237
vn -0.6536 -0.4471 0.6106
vn -0.6557 -0.5030 -0.5631
vn -0.4628 0.7305 -0.5022
vn 0.4057 -0.7664 0.4980
vn 0.4606 -0.6142 -0.6407
vn 0.7044 0.5268 -0.4758
vn 0.6846 0.3058 0.6617
vn -0.5145 0.5453 0.6617
vn -0.6573 -0.5632 0.5007
vn -0.6564 -0.3989 -0.6403
vn -0.4537 0.7568 -0.4706
vn -0.6772 -0.4229 -0.6021
vn 0.4838 -0.6351 -0.6021
vn 0.4491 -0.7016 0.5532
vn -0.6683 -0.4973 0.5532
vn 0.6691 0.4744 -0.5721
vn 0.6737 0.4599 0.5785
vn -0.4674 0.6685 0.5785
vn -0.4580 0.6804 -0.5721
vn -0.4695 0.6440 0.6040
vn -0.6763 -0.4907 0.5494
vn 0.4589 -0.6983 0.5494
vn 0.6670 0.4362 0.6040
vn 0.4695 -0.6440 -0.6040
vn 0.6763 0.4907 -0.5494
vn -0.4589 0.6983 -0.5494
vn -0.6670 -0.4362 -0.6040
vt 0.260220 0.704599
vt 0.271953 0.704599
vt 0.271953 0.918768
vt 0.260220 0.918768
vt 0.986617 0.063677
vt 0.998350 0.063597
vt 0.998350 0.120909
vt 0.986617 0.120989
vt 0.340998 0.918768
vt 0.340998 0.704599
vt 0.398309 0.704599
vt 0.398309 0.918768
vt 0.998345 0.058955
vt 0.986612 0.058876
vt 0.986612 0.001564
vt 0.998345 0.001644
vt 0.329265 0.918768
vt 0.329265 0.704599
vt 0.992174 0.420907
vt 0.993080 0.758638
vt 0.985887 0.758596
vt 0.984992 0.420920
vt 0.979222 0.359856
vt 0.988460 0.362552
vt 0.991593 0.408322
vt 0.984138 0.408339
vt 0.454208 0.430860
vt 0.445854 0.423392
vt 0.449999 0.424098
vt 0.453057 0.426831
vt 0.988400 0.813226
vt 0.979269 0.815523
vt 0.984886 0.771069
vt 0.992349 0.771109
vt 0.792598 0.365439
vt 0.792598 0.712102
vt 0.782975 0.711966
vt 0.783187 0.365717
vt 0.991877 0.412539
vt 0.984559 0.412554
vt 0.992089 0.416690
vt 0.984870 0.416704
vt 0.992993 0.762828
vt 0.985764 0.762786
vt 0.992728 0.766921
vt 0.985400 0.766881
vt 0.738596 0.361351
vt 0.730202 0.368812
vt 0.731364 0.364784
vt 0.734436 0.362054
vt 0.730155 0.713407
vt 0.727152 0.710525
vt 0.726090 0.706443
vt 0.734294 0.714315
vt 0.449581 0.776416
vt 0.457776 0.768551
vt 0.403754 0.774156
vt 0.403754 0.427493
vt 0.453711 0.775512
vt 0.456710 0.772633
vt 0.514662 0.007202
vt 0.512075 0.091187
vt 0.501141 0.007138
vt 0.531397 0.007949
vt 0.531433 0.091879
vt 0.880168 0.683927
vt 0.880199 0.700713
vt 0.874580 0.700764
vt 0.874549 0.683978
vt 0.510170 0.003846
vt 0.487621 0.007077
vt 0.492143 0.003763
vt 0.482788 0.091190
vt 0.501167 0.001559
vt 0.496658 0.002007
vt 0.505672 0.002048
vt 0.560617 0.092674
vt 0.579973 0.091535
vt 0.584009 0.175632
vt 0.561866 0.176783
vt 0.509675 0.175368
vt 0.479619 0.175381
vt 0.558435 0.008664
vt 0.575128 0.007475
vt 0.544914 0.008304
vt 0.531875 0.176036
vt 0.554016 0.005210
vt 0.535990 0.004734
vt 0.549556 0.003313
vt 0.545061 0.002726
vt 0.540542 0.003075
vt 0.869725 0.700790
vt 0.869694 0.684003
vt 0.865183 0.700796
vt 0.865152 0.684009
vt 0.860642 0.700788
vt 0.860611 0.684002
vt 0.855786 0.700761
vt 0.855755 0.683975
vt 0.850167 0.700713
vt 0.850136 0.683927
vt 0.532900 0.301978
vt 0.505580 0.300522
vt 0.564030 0.302188
vt 0.474431 0.299733
vt 0.535504 0.425725
vt 0.496908 0.425177
vt 0.465407 0.425013
vt 0.591114 0.299722
vt 0.606361 0.424669
vt 0.567275 0.425896
vt 0.601138 0.552830
vt 0.566407 0.553004
vt 0.534786 0.552723
vt 0.500101 0.551911
vt 0.534650 0.675164
vt 0.503720 0.675432
vt 0.563508 0.675256
vt 0.468424 0.552915
vt 0.474890 0.676314
vt 0.506787 0.782053
vt 0.479749 0.782830
vt 0.534361 0.780894
vt 0.473381 0.140109
vt 0.473743 0.168992
vt 0.470113 0.165387
vt 0.470040 0.143724
vt 0.444297 0.168992
vt 0.447938 0.165580
vt 0.447500 0.143505
vt 0.444000 0.140089
vt 0.594474 0.676240
vt 0.588975 0.782773
vt 0.561416 0.780978
vt 0.795700 0.698485
vt 0.795700 0.675649
vt 0.818022 0.675649
vt 0.818022 0.698485
vt 0.067537 0.776478
vt 0.067574 0.692549
vt 0.081054 0.776124
vt 0.050803 0.777226
vt 0.048216 0.693240
vt 0.072131 0.779694
vt 0.862193 0.301395
vt 0.867811 0.301445
vt 0.867780 0.318231
vt 0.862162 0.318181
vt 0.096758 0.691753
vt 0.094575 0.775763
vt 0.090157 0.779218
vt 0.076683 0.781352
vt 0.081202 0.781702
vt 0.085696 0.781114
vt 0.116114 0.692892
vt 0.111269 0.776952
vt 0.068016 0.608392
vt 0.098007 0.607645
vt 0.120149 0.608796
vt 0.018929 0.693238
vt 0.015760 0.609047
vt 0.045816 0.609060
vt 0.037282 0.777289
vt 0.023762 0.777351
vt 0.028284 0.780664
vt 0.046311 0.780581
vt 0.032798 0.782421
vt 0.037307 0.782868
vt 0.041812 0.782379
vt 0.872667 0.301471
vt 0.872636 0.318257
vt 0.877208 0.301477
vt 0.877178 0.318263
vt 0.881750 0.301470
vt 0.881719 0.318256
vt 0.886606 0.301443
vt 0.886575 0.318229
vt 0.892224 0.301395
vt 0.892194 0.318181
vt 0.041721 0.483906
vt 0.069041 0.482450
vt 0.010571 0.484695
vt 0.100171 0.482240
vt 0.033048 0.359251
vt 0.071645 0.358703
vt 0.103416 0.358532
vt 0.142502 0.359759
vt 0.127255 0.484706
vt 0.001548 0.359415
vt 0.004565 0.231513
vt 0.036242 0.232517
vt 0.102548 0.231424
vt 0.137279 0.231598
vt 0.011031 0.108114
vt 0.039860 0.108996
vt 0.099649 0.109171
vt 0.130615 0.108188
vt 0.015890 0.001598
vt 0.042928 0.002375
vt 0.097557 0.003450
vt 0.125116 0.001654
vt 0.447693 0.211960
vt 0.447620 0.233623
vt 0.443990 0.237228
vt 0.444352 0.208345
vt 0.473733 0.208325
vt 0.470232 0.211741
vt 0.469795 0.233816
vt 0.473436 0.237228
vt 0.070502 0.003534
vt 0.070791 0.109263
vt 0.070926 0.231705
vt 0.843448 0.700554
vt 0.821126 0.700554
vt 0.821126 0.677718
vt 0.843448 0.677718
vt 0.861196 0.355744
vt 0.820689 0.356864
vt 0.818522 0.268176
vt 0.856064 0.266725
vt 0.901562 0.264156
vt 0.901562 0.296600
vt 0.860973 0.296600
vt 0.860973 0.264156
vt 0.720358 0.266799
vt 0.750633 0.269034
vt 0.747809 0.358208
vt 0.715509 0.355821
vt 0.816351 0.179417
vt 0.850968 0.177683
vt 0.725178 0.177758
vt 0.753398 0.179769
vt 0.788329 0.358280
vt 0.788188 0.269510
vt 0.788063 0.180627
vt 0.756053 0.090214
vt 0.787883 0.091432
vt 0.814440 0.090455
vt 0.729559 0.088559
vt 0.732951 0.001642
vt 0.758629 0.003100
vt 0.787410 0.004740
vt 0.471486 0.271973
vt 0.443979 0.272269
vt 0.447553 0.268649
vt 0.467840 0.268632
vt 0.468047 0.244987
vt 0.471493 0.241431
vt 0.443979 0.241774
vt 0.447363 0.245457
vt 0.846135 0.088521
vt 0.813114 0.003884
vt 0.841898 0.001672
vt 0.907259 0.683916
vt 0.907259 0.704791
vt 0.883284 0.704791
vt 0.883284 0.683916
vt 0.729746 0.004089
vt 0.724615 0.093109
vt 0.687073 0.091657
vt 0.689240 0.002970
vt 0.858835 0.226937
vt 0.899424 0.226937
vt 0.899424 0.259381
vt 0.858835 0.259381
vt 0.588909 0.093035
vt 0.584059 0.004012
vt 0.616359 0.001625
vt 0.619183 0.090800
vt 0.719518 0.182151
vt 0.684902 0.180417
vt 0.593729 0.182076
vt 0.621948 0.180064
vt 0.656738 0.090323
vt 0.656879 0.001554
vt 0.656614 0.179207
vt 0.656433 0.268402
vt 0.624603 0.269620
vt 0.682991 0.269379
vt 0.598109 0.271275
vt 0.601502 0.358192
vt 0.627179 0.356733
vt 0.655961 0.355094
vt 0.467842 0.176830
vt 0.447555 0.176813
vt 0.443980 0.173193
vt 0.471488 0.173490
vt 0.471495 0.204032
vt 0.468049 0.200475
vt 0.447365 0.200005
vt 0.443980 0.203688
vt 0.714685 0.271313
vt 0.710449 0.358162
vt 0.681665 0.355950
vt 0.683727 0.700463
vt 0.707702 0.700463
vt 0.707702 0.721338
vt 0.683727 0.721338
vt 0.998011 0.183707
vt 0.986618 0.183707
vt 0.986618 0.125614
vt 0.998011 0.125614
vt 0.145600 0.363645
vt 0.145600 0.352251
vt 0.444149 0.352251
vt 0.444149 0.363645
vt 0.444149 0.421738
vt 0.145600 0.421738
vt 0.444149 0.282765
vt 0.444149 0.294158
vt 0.145600 0.294158
vt 0.145600 0.282765
vt 0.998008 0.245741
vt 0.986614 0.245741
vt 0.986614 0.187648
vt 0.998008 0.187648
vt 0.458641 0.276568
vt 0.458641 0.334661
vt 0.447248 0.334661
vt 0.447248 0.276568
vt 0.142326 0.198190
vt 0.440874 0.198190
vt 0.440874 0.209583
vt 0.142326 0.209583
vt 0.142326 0.140097
vt 0.440874 0.140097
vt 0.440875 0.279070
vt 0.142326 0.279070
vt 0.142326 0.267676
vt 0.440875 0.267676
vt 0.447255 0.396695
vt 0.447255 0.338602
vt 0.458648 0.338602
vt 0.458648 0.396695
vt 0.893240 0.222289
vt 0.879590 0.222289
vt 0.879590 0.001548
vt 0.893240 0.001548
vt 0.902526 0.226937
vt 0.916176 0.226937
vt 0.916176 0.249829
vt 0.902526 0.249829
vt 0.916131 0.001548
vt 0.916131 0.222289
vt 0.998260 0.351152
vt 0.984610 0.351152
vt 0.984610 0.328260
vt 0.998260 0.328260
vt 0.929781 0.001548
vt 0.929781 0.222289
vt 0.856698 0.222289
vt 0.856698 0.001548
vt 0.792114 0.994408
vt 0.792114 0.981673
vt 0.848111 0.981673
vt 0.848111 0.994408
vt 0.886258 0.981673
vt 0.886258 0.994408
vt 0.237843 0.833698
vt 0.183171 0.833698
vt 0.184546 0.795646
vt 0.240542 0.795646
vt 0.132483 0.833698
vt 0.132481 0.795646
vt 0.784835 0.994408
vt 0.784835 0.981673
vt 0.132477 0.777496
vt 0.184546 0.788367
vt 0.126437 0.833698
vt 0.126438 0.795646
vt 0.126438 0.776974
vt 0.126437 0.846433
vt 0.132483 0.846433
vt 0.183171 0.846433
vt 0.132481 0.884485
vt 0.126437 0.884485
vt 0.184546 0.884485
vt 0.237843 0.846433
vt 0.240542 0.884485
vt 0.132477 0.902635
vt 0.126437 0.903157
vt 0.184546 0.891764
vt 0.731644 0.981673
vt 0.731644 0.994408
vt 0.725582 0.994408
vt 0.725582 0.981673
vt 0.120398 0.902635
vt 0.120394 0.884485
vt 0.719520 0.994408
vt 0.719520 0.981673
vt 0.120394 0.795646
vt 0.120398 0.777496
vt 0.068329 0.795646
vt 0.068329 0.788367
vt 0.666329 0.994408
vt 0.666329 0.981673
vt 0.659050 0.994408
vt 0.659050 0.981673
vt 0.603053 0.994408
vt 0.603053 0.981673
vt 0.069704 0.833698
vt 0.015032 0.833698
vt 0.012333 0.795646
vt 0.120392 0.833698
vt 0.015032 0.846433
vt 0.069704 0.846433
vt 0.068329 0.884485
vt 0.012333 0.884485
vt 0.120392 0.846433
vt 0.068329 0.891764
vt 0.564906 0.994408
vt 0.564906 0.981673
vt 0.007960 0.020161
vt 0.007960 0.034865
vt 0.001551 0.034865
vt 0.001551 0.020161
vt 0.305316 0.959157
vt 0.535251 0.959156
vt 0.535250 0.965566
vt 0.305316 0.965565
vt 0.305316 0.944453
vt 0.535251 0.944452
vt 0.535251 0.986678
vt 0.305316 0.986678
vt 0.305316 0.980269
vt 0.535250 0.980270
vt 0.845728 0.016252
vt 0.845728 0.001548
vt 0.852137 0.001548
vt 0.852137 0.016252
vt 0.846635 0.020160
vt 0.853044 0.020160
vt 0.853044 0.034863
vt 0.846635 0.034863
vt 0.961292 0.971748
vt 0.954883 0.971748
vt 0.954883 0.741814
vt 0.961292 0.741813
vt 0.975996 0.741813
vt 0.975997 0.971748
vt 0.933770 0.741813
vt 0.940179 0.741814
vt 0.940179 0.971748
vt 0.933770 0.971748
vt 0.001552 0.001555
vt 0.007962 0.001555
vt 0.007962 0.016259
vt 0.001552 0.016259
vt 0.705176 0.965314
vt 0.705176 0.912680
vt 0.733594 0.912680
vt 0.733594 0.965314
vt 0.054183 0.989943
vt 0.054183 0.998410
vt 0.001549 0.998410
vt 0.001549 0.989943
vt 0.082600 0.989943
vt 0.082600 0.998410
vt 0.085741 0.989943
vt 0.085741 0.998410
vt 0.736471 0.911419
vt 0.736471 0.966575
vt 0.924434 0.255360
vt 0.977068 0.255360
vt 0.978329 0.258237
vt 0.923173 0.258236
vt 0.977068 0.226942
vt 0.924434 0.226942
vt 0.533387 0.989943
vt 0.533387 0.998410
vt 0.530246 0.998410
vt 0.530246 0.989943
vt 0.561805 0.989943
vt 0.561805 0.998410
vt 0.982650 0.262632
vt 0.918852 0.262632
vt 0.524082 0.998410
vt 0.524082 0.989943
vt 0.985630 0.268524
vt 0.915872 0.268524
vt 0.517480 0.998410
vt 0.517480 0.989943
vt 0.508896 0.998410
vt 0.508896 0.989943
vt 0.988012 0.276770
vt 0.913490 0.276770
vt 0.755004 0.901736
vt 0.755004 0.976258
vt 0.746758 0.973876
vt 0.746758 0.904118
vt 0.740866 0.970896
vt 0.740866 0.907098
vt 0.107091 0.989943
vt 0.107091 0.998410
vt 0.098508 0.998410
vt 0.098508 0.989943
vt 0.091905 0.998410
vt 0.091905 0.989943
vt 0.763193 0.901039
vt 0.763193 0.976955
vt 0.115309 0.989943
vt 0.115309 0.998410
vt 0.125788 0.989943
vt 0.125788 0.998410
vt 0.773657 0.901589
vt 0.773657 0.976405
vt 0.912793 0.284959
vt 0.988709 0.284958
vt 0.988159 0.295423
vt 0.913343 0.295423
vt 0.986155 0.305901
vt 0.915347 0.305901
vt 0.136456 0.989943
vt 0.136456 0.998410
vt 0.983933 0.316370
vt 0.917569 0.316370
vt 0.147158 0.989943
vt 0.147158 0.998410
vt 0.479531 0.989943
vt 0.479531 0.998410
vt 0.468829 0.998410
vt 0.468829 0.989943
vt 0.490200 0.989943
vt 0.490200 0.998410
vt 0.794604 0.905815
vt 0.794604 0.972179
vt 0.784136 0.974401
vt 0.784136 0.903593
vt 0.500678 0.989943
vt 0.500678 0.998410
vt 0.808087 0.909030
vt 0.808087 0.968964
vt 0.454969 0.998410
vt 0.454969 0.989943
vt 0.442418 0.998410
vt 0.442418 0.989943
vt 0.820408 0.911420
vt 0.820408 0.966574
vt 0.920784 0.329853
vt 0.980718 0.329853
vt 0.978328 0.342174
vt 0.923174 0.342174
vt 0.161019 0.998410
vt 0.161019 0.989943
vt 0.173570 0.989943
vt 0.173570 0.998410
vt 0.975914 0.356804
vt 0.925589 0.356805
vt 0.188399 0.989943
vt 0.188399 0.998410
vt 0.974998 0.368029
vt 0.926504 0.368030
vt 0.199661 0.989943
vt 0.199661 0.998410
vt 0.427589 0.989943
vt 0.427589 0.998410
vt 0.416327 0.998410
vt 0.416327 0.989943
vt 0.846264 0.914750
vt 0.846264 0.963244
vt 0.835039 0.964159
vt 0.835039 0.913835
vt 0.860485 0.914941
vt 0.860485 0.963053
vt 0.402104 0.998410
vt 0.402104 0.989943
vt 0.382591 0.998410
vt 0.382591 0.989943
vt 0.879998 0.915073
vt 0.879998 0.962921
vt 0.926695 0.382251
vt 0.974807 0.382251
vt 0.974675 0.401764
vt 0.926827 0.401764
vt 0.233397 0.989943
vt 0.233397 0.998410
vt 0.213884 0.998410
vt 0.213884 0.989943
vt 0.974675 0.452437
vt 0.926827 0.452437
vt 0.284070 0.989943
vt 0.284070 0.998410
vt 0.331918 0.989943
vt 0.331918 0.998410
vt 0.930671 0.915073
vt 0.930671 0.962921
vt 0.377911 0.425448
vt 0.389644 0.425448
vt 0.389644 0.699658
vt 0.377911 0.699658
vt 0.916328 0.326194
vt 0.916328 0.337927
vt 0.863350 0.337927
vt 0.863350 0.326194
vt 0.324933 0.699658
vt 0.324933 0.425448
vt 0.013288 0.681070
vt 0.001555 0.681070
vt 0.001555 0.628092
vt 0.013288 0.628092
vt 0.313200 0.699658
vt 0.313200 0.425448
vt 0.260222 0.699658
vt 0.260222 0.425448
vt 0.950968 0.462664
vt 0.962701 0.462664
vt 0.962701 0.736874
vt 0.950968 0.736874
vt 0.466508 0.148363
vt 0.466508 0.160096
vt 0.450954 0.160096
vt 0.450954 0.148363
vt 0.935414 0.736874
vt 0.935414 0.462664
vt 0.450790 0.228337
vt 0.450790 0.216604
vt 0.466344 0.216604
vt 0.466344 0.228337
vt 0.923681 0.736874
vt 0.923681 0.462664
vt 0.978255 0.462664
vt 0.978256 0.736874
vt 0.447246 0.400636
vt 0.458719 0.400636
vt 0.458719 0.414373
vt 0.447246 0.414373
vt 0.702071 0.890693
vt 0.702071 0.902166
vt 0.401406 0.902166
vt 0.401406 0.890694
vt 0.401406 0.941114
vt 0.401406 0.927377
vt 0.702071 0.927376
vt 0.702071 0.941114
vt 0.401406 0.915904
vt 0.702071 0.915904
vt 0.998454 0.263425
vt 0.986982 0.263425
vt 0.986982 0.249687
vt 0.998454 0.249687
vt 0.471505 0.673575
vt 0.471505 0.687313
vt 0.460033 0.687313
vt 0.460033 0.673575
vt 0.001549 0.923774
vt 0.302216 0.923774
vt 0.302216 0.935247
vt 0.001549 0.935246
vt 0.302216 0.974194
vt 0.001549 0.974195
vt 0.001549 0.960457
vt 0.302216 0.960456
vt 0.001549 0.948984
vt 0.302216 0.948984
vt 0.909061 0.312854
vt 0.895324 0.312854
vt 0.895324 0.301381
vt 0.909061 0.301381
vt 0.915342 0.794365
vt 0.600355 0.794358
vt 0.604801 0.733920
vt 0.910818 0.734897
vt 0.915368 0.803381
vt 0.600328 0.803381
vt 0.920385 0.735745
vt 0.924359 0.794360
vt 0.898092 0.725769
vt 0.904515 0.718527
vt 0.917191 0.727712
vt 0.617782 0.724866
vt 0.598524 0.726644
vt 0.611459 0.717533
vt 0.591332 0.794377
vt 0.595233 0.734811
vt 0.712117 0.866561
vt 0.699391 0.875675
vt 0.418894 0.876556
vt 0.405911 0.867513
vt 0.716573 0.807980
vt 0.401534 0.807980
vt 0.699323 0.885355
vt 0.419013 0.886239
vt 0.906392 0.671247
vt 0.906420 0.680044
vt 0.859817 0.681409
vt 0.860275 0.673631
vt 0.864287 0.358987
vt 0.914260 0.363998
vt 0.923060 0.364198
vt 0.915186 0.671498
vt 0.806001 0.669984
vt 0.806001 0.362582
vt 0.856434 0.358825
vt 0.852485 0.673581
vt 0.864301 0.351133
vt 0.914709 0.355207
vt 0.468286 0.009544
vt 0.476263 0.009994
vt 0.480951 0.067748
vt 0.471904 0.069112
vt 0.140726 0.069236
vt 0.145794 0.009606
vt 0.145728 0.001554
vt 0.468334 0.001554
vt 0.468381 0.136103
vt 0.145776 0.136382
vt 0.140800 0.078282
vt 0.471842 0.078263
vt 0.137744 0.009772
vt 0.131797 0.067781
vt 0.618365 0.369638
vt 0.617267 0.360753
vt 0.668304 0.359331
vt 0.666858 0.366560
vt 0.665790 0.697949
vt 0.618264 0.693786
vt 0.609412 0.693715
vt 0.609412 0.369700
vt 0.725163 0.370035
vt 0.723142 0.694044
vt 0.673191 0.698104
vt 0.674230 0.366487
vt 0.617045 0.702554
vt 0.667089 0.705236
vt 0.143601 0.436678
vt 0.144665 0.429418
vt 0.197298 0.425596
vt 0.195099 0.434698
vt 0.190669 0.772549
vt 0.134558 0.766288
vt 0.127191 0.766217
vt 0.136269 0.436381
vt 0.257122 0.438160
vt 0.257122 0.768121
vt 0.199823 0.772942
vt 0.204465 0.434690
vt 0.135197 0.773629
vt 0.192144 0.781592
vt 0.724852 0.843237
vt 0.920384 0.843237
vt 0.920326 0.852130
vt 0.724910 0.852130
vt 0.929061 0.853797
vt 0.928440 0.889050
vt 0.920192 0.888239
vt 0.725044 0.888239
vt 0.716797 0.889050
vt 0.716175 0.853797
vt 0.725028 0.807979
vt 0.920208 0.807979
vt 0.920208 0.896526
vt 0.725028 0.896526
vt 0.946464 0.001554
vt 0.958197 0.001554
vt 0.958198 0.215723
vt 0.946465 0.215723
vt 0.464216 0.181448
vt 0.464292 0.193181
vt 0.450714 0.193181
vt 0.450638 0.181448
vt 0.932886 0.215723
vt 0.932886 0.001554
vt 0.462354 0.263344
vt 0.450621 0.263268
vt 0.450621 0.249690
vt 0.462354 0.249766
vt 0.983509 0.215723
vt 0.971776 0.215723
vt 0.971776 0.001554
vt 0.983509 0.001554
s 1
usemtl Diffuse_Chair
f 316/489/169 317/490/170 314/491/171 313/492/172
f 313/493/172 314/494/171 320/495/173 315/496/174
f 315/497/174 318/498/175 316/499/169 313/500/172
f 318/501/175 319/502/176 317/503/170 316/504/169
f 315/497/174 320/505/173 319/506/176 318/498/175
f 319/506/176 320/505/173 314/491/171 317/490/170
f 329/507/177 338/508/178 333/509/179 326/510/180
f 321/511/181 322/512/182 330/513/183 325/514/184
f 338/515/178 337/516/185 339/517/186 340/518/187
f 324/519/188 323/520/189 334/521/190 337/522/185
f 324/523/188 322/524/182 321/525/181 323/526/189
f 325/514/184 330/513/183 332/527/191 327/528/192
f 327/528/192 332/527/191 331/529/193 328/530/194
f 328/530/194 331/529/193 329/507/177 326/510/180
f 333/509/179 338/508/178 340/531/187 335/532/195
f 335/532/195 340/531/187 339/533/186 336/534/196
f 336/534/196 339/533/186 337/522/185 334/521/190
f 334/535/190 333/536/179 335/537/195 336/538/196
f 327/539/192 328/540/194 326/541/180 325/542/184
f 321/525/181 325/542/184 334/535/190 323/526/189
f 325/542/184 326/541/180 333/536/179 334/535/190
f 330/543/183 337/516/185 338/515/178 329/544/177
f 322/545/182 324/546/188 337/516/185 330/543/183
f 332/547/191 330/543/183 329/544/177 331/548/193
f 341/549/197 342/550/198 345/551/199
f 343/552/200 356/553/201 342/550/198 341/549/197
f 343/554/200 341/555/197 344/556/202 362/557/203
f 344/558/202 341/549/197 345/551/199
f 345/551/199 346/559/204 350/560/205
f 351/561/206 346/559/204 345/551/199
f 347/562/207 345/551/199 349/563/208
f 348/564/209 345/551/199 347/562/207
f 348/564/209 344/558/202 345/551/199
f 349/563/208 345/551/199 350/560/205
f 342/550/198 351/561/206 345/551/199
f 353/565/210 351/566/206 352/567/211 355/568/212
f 342/550/198 365/569/213 352/570/211 351/561/206
f 354/571/214 346/572/204 351/566/206 353/565/210
f 353/565/210 357/573/215 354/571/214
f 363/574/216 356/553/201 353/565/210 355/568/212
f 353/565/210 356/553/201 357/573/215
f 357/573/215 358/575/217 354/571/214
f 356/553/201 343/552/200 357/573/215
f 343/552/200 362/576/203 357/573/215
f 357/573/215 359/577/218 358/575/217
f 357/573/215 360/578/219 359/577/218
f 357/573/215 361/579/220 360/578/219
f 362/576/203 361/579/220 357/573/215
f 362/557/203 344/556/202 348/580/209 361/581/220
f 361/581/220 348/580/209 347/582/207 360/583/219
f 360/583/219 347/582/207 349/584/208 359/585/218
f 359/585/218 349/584/208 350/586/205 358/587/217
f 358/587/217 350/586/205 346/588/204 354/589/214
f 356/553/201 363/574/216 365/569/213 342/550/198
f 363/574/216 364/590/221 366/591/222 365/569/213
f 364/590/221 363/574/216 355/568/212 370/592/223
f 365/569/213 366/591/222 368/593/224 352/570/211
f 364/590/221 373/594/225 367/595/226 366/591/222
f 366/591/222 367/595/226 369/596/227 368/593/224
f 355/568/212 352/567/211 368/597/224 370/592/223
f 370/592/223 368/597/224 369/598/227 371/599/228
f 373/594/225 364/590/221 370/592/223 371/599/228
f 371/599/228 369/598/227 377/600/229 372/601/230
f 374/602/231 373/594/225 371/599/228 372/601/230
f 367/595/226 373/594/225 374/602/231 376/603/232
f 376/603/232 374/602/231 375/604/233 378/605/234
f 375/604/233 374/602/231 372/601/230 387/606/235
f 367/595/226 376/603/232 377/607/229 369/596/227
f 376/603/232 378/605/234 379/608/236 377/607/229
f 378/605/234 380/609/237 383/610/238 379/608/236
f 378/605/234 375/604/233 382/611/239 380/609/237
f 383/612/238 380/613/237 381/614/240 384/615/241
f 380/613/237 382/616/239 388/617/242 381/614/240
f 384/615/241 386/618/243 385/619/244 383/612/238
f 387/606/235 379/620/236 383/621/238 385/622/244
f 382/616/239 385/619/244 386/618/243 388/617/242
f 382/611/239 375/604/233 387/606/235 385/622/244
f 372/601/230 377/600/229 379/620/236 387/606/235
f 381/623/240 388/624/242 386/625/243 384/626/241
f 389/627/245 390/628/246 393/629/215
f 389/627/245 392/630/247 404/631/248 390/628/246
f 389/627/245 393/629/215 391/632/249
f 389/633/245 391/634/249 410/635/250 392/636/247
f 399/637/251 394/638/252 393/629/215
f 393/629/215 394/638/252 398/639/253
f 391/632/249 393/629/215 395/640/254
f 395/640/254 393/629/215 396/641/255
f 396/641/255 393/629/215 397/642/256
f 397/642/256 393/629/215 398/639/253
f 390/628/246 399/637/251 393/629/215
f 394/638/252 399/637/251 401/643/257 403/644/258
f 413/645/259 400/646/260 399/637/251 390/628/246
f 399/637/251 400/646/260 402/647/261 401/643/257
f 404/631/248 401/648/257 402/649/261 411/650/262
f 401/648/257 405/651/199 403/652/258
f 401/648/257 404/631/248 405/651/199
f 405/651/199 406/653/263 403/652/258
f 404/631/248 392/630/247 405/651/199
f 392/630/247 410/654/250 405/651/199
f 405/651/199 407/655/264 406/653/263
f 405/651/199 408/656/265 407/655/264
f 405/651/199 409/657/266 408/656/265
f 410/654/250 409/657/266 405/651/199
f 391/634/249 395/658/254 409/659/266 410/635/250
f 395/658/254 396/660/255 408/661/265 409/659/266
f 396/660/255 397/662/256 407/663/264 408/661/265
f 397/662/256 398/664/253 406/665/263 407/663/264
f 398/664/253 394/666/252 403/667/258 406/665/263
f 390/628/246 404/631/248 411/650/262 413/645/259
f 413/645/259 411/650/262 412/668/267 414/669/268
f 411/650/262 402/649/261 418/670/269 412/668/267
f 414/669/268 416/671/270 400/646/260 413/645/259
f 414/669/268 412/668/267 420/672/271 415/673/272
f 415/673/272 417/674/273 416/671/270 414/669/268
f 416/671/270 417/674/273 419/675/274 418/676/269
f 400/646/260 416/671/270 418/676/269 402/647/261
f 412/668/267 418/670/269 419/677/274 420/672/271
f 420/672/271 419/677/274 421/678/275 422/679/276
f 417/674/273 423/680/277 421/681/275 419/675/274
f 422/679/276 421/678/275 424/682/278 425/683/279
f 423/680/277 426/684/280 424/685/278 421/681/275
f 425/683/279 424/682/278 427/686/281 430/687/282
f 426/684/280 429/688/283 427/689/281 424/685/278
f 428/690/284 431/691/285 430/692/282 427/693/281
f 427/693/281 429/694/283 436/695/286 428/690/284
f 431/691/285 433/696/287 432/697/288 430/692/282
f 425/683/279 430/687/282 432/698/288 434/699/289
f 433/696/287 436/695/286 429/694/283 432/697/288
f 432/698/288 429/688/283 426/684/280 434/699/289
f 422/679/276 425/683/279 434/699/289 435/700/290
f 434/699/289 426/684/280 423/680/277 435/700/290
f 420/672/271 422/679/276 435/700/290 415/673/272
f 435/700/290 423/680/277 417/674/273 415/673/272
f 431/701/285 428/702/284 436/703/286 433/704/287
f 437/705/291 438/706/292 443/707/293 440/708/294
f 437/709/291 439/710/295 446/711/296 438/712/292
f 440/713/294 442/714/297 439/715/295 437/716/291
f 440/708/294 443/707/293 444/717/293 441/718/294
f 441/719/294 449/720/298 442/714/297 440/713/294
f 438/706/292 446/721/296 445/722/299 443/707/293
f 443/707/293 445/722/299 447/723/300 444/717/293
f 439/715/295 442/714/297 445/722/299 446/721/296
f 442/714/297 449/720/298 447/723/300 445/722/299
f 449/720/298 450/724/301 448/725/302 447/723/300
f 444/717/293 447/723/300 448/725/302 459/726/303
f 451/727/304 450/724/301 449/720/298 441/719/294
f 455/728/305 452/729/306 450/724/301 451/727/304
f 450/724/301 452/729/306 454/730/307 448/725/302
f 452/731/306 455/732/305 456/733/308 453/734/309
f 453/734/309 460/735/310 454/736/307 452/731/306
f 455/732/305 457/737/311 458/738/312 456/733/308
f 451/739/304 459/726/303 457/740/311 455/741/305
f 457/737/311 454/736/307 460/735/310 458/738/312
f 459/726/303 448/725/302 454/730/307 457/740/311
f 441/718/294 444/717/293 459/726/303 451/739/304
f 458/742/312 460/743/310 453/744/309 456/745/308
f 461/746/313 464/747/314 467/748/315 462/749/316
f 461/750/313 462/751/316 470/752/317 463/753/318
f 464/754/314 461/755/313 463/756/318 466/757/319
f 464/747/314 465/758/320 468/759/315 467/748/315
f 465/760/320 464/754/314 466/757/319 473/761/321
f 462/749/316 467/748/315 469/762/322 470/763/317
f 467/748/315 468/759/315 471/764/323 469/762/322
f 463/756/318 470/763/317 469/762/322 466/757/319
f 466/757/319 469/762/322 471/764/323 473/761/321
f 473/761/321 471/764/323 472/765/324 474/766/325
f 468/759/315 483/767/326 472/765/324 471/764/323
f 475/768/327 465/760/320 473/761/321 474/766/325
f 479/769/328 475/768/327 474/766/325 476/770/329
f 474/766/325 472/765/324 478/771/330 476/770/329
f 477/772/331 480/773/332 479/774/328 476/775/329
f 476/775/329 478/776/330 484/777/333 477/772/331
f 480/773/332 482/778/334 481/779/335 479/774/328
f 475/780/327 479/781/328 481/782/335 483/767/326
f 482/778/334 484/777/333 478/776/330 481/779/335
f 483/767/326 481/782/335 478/771/330 472/765/324
f 465/758/320 475/780/327 483/767/326 468/759/315
f 482/783/334 480/784/332 477/785/331 484/786/333
f 488/787/336 489/788/337 486/789/338 485/790/339
f 485/791/339 486/792/338 492/793/340 487/794/341
f 487/794/341 490/795/342 488/796/336 485/791/339
f 490/797/342 491/798/343 489/799/337 488/800/336
f 487/801/341 492/802/340 491/803/343 490/804/342
f 491/798/343 492/793/340 486/792/338 489/799/337
f 496/805/344 493/806/345 494/807/346 497/808/347
f 493/809/345 495/810/348 500/811/349 494/812/346
f 495/810/348 493/809/345 496/813/344 498/814/350
f 498/815/350 496/816/344 497/817/347 499/818/351
f 495/819/348 498/820/350 499/821/351 500/822/349
f 499/818/351 497/817/347 494/812/346 500/811/349
f 504/823/352 505/824/353 502/825/354 501/826/355
f 501/827/355 502/828/354 508/829/356 503/830/357
f 503/831/357 506/832/358 504/823/352 501/826/355
f 506/833/358 507/834/359 505/835/353 504/836/352
f 503/831/357 508/837/356 507/838/359 506/832/358
f 507/839/359 508/840/356 502/825/354 505/824/353
f 512/841/360 514/842/361 510/843/362 509/844/363
f 509/844/363 510/843/362 525/845/364 511/846/365
f 511/847/365 513/848/366 512/849/360 509/850/363
f 513/848/366 519/851/366 516/852/367 512/849/360
f 514/842/361 512/841/360 515/853/368 529/854/369
f 512/849/360 516/852/367 518/855/370 515/856/368
f 520/857/366 517/858/367 516/852/367 519/851/366
f 517/858/367 531/859/371 518/855/370 516/852/367
f 522/860/372 520/857/366 519/851/366 521/861/372
f 513/848/366 524/862/372 521/861/372 519/851/366
f 521/861/372 523/863/373 526/864/373 522/860/372
f 521/861/372 524/862/372 514/865/361 523/863/373
f 511/847/365 525/866/364 524/862/372 513/848/366
f 524/862/372 525/866/364 510/867/362 514/865/361
f 523/863/373 527/868/374 528/869/375 526/864/373
f 523/863/373 514/865/361 529/870/369 527/868/374
f 527/871/374 518/872/370 531/873/371 528/874/375
f 518/872/370 527/871/374 529/854/369 515/853/368
f 526/864/373 528/869/375 530/875/376 542/876/373
f 528/874/375 531/873/371 532/877/377 530/878/376
f 533/879/367 532/880/377 531/859/371 517/858/367
f 533/879/367 536/881/378 534/882/379 532/880/377
f 534/883/379 535/884/380 530/878/376 532/877/377
f 536/885/378 539/886/381 535/884/380 534/883/379
f 537/887/382 540/888/383 539/886/381 536/885/378
f 538/889/366 546/890/384 537/891/382 536/881/378
f 544/892/366 538/889/366 536/881/378 533/879/367
f 545/893/385 541/894/372 539/895/381 540/896/383
f 541/894/372 543/897/372 542/876/373 539/895/381
f 539/895/381 542/876/373 530/875/376 535/898/380
f 522/860/372 526/864/373 542/876/373 543/897/372
f 543/897/372 544/892/366 520/857/366 522/860/372
f 544/892/366 543/897/372 541/894/372 538/889/366
f 544/892/366 533/879/367 517/858/367 520/857/366
f 538/889/366 541/894/372 545/893/385 546/890/384
f 546/899/384 545/900/385 540/888/383 537/887/382
f 550/901/386 547/902/387 548/903/388 551/904/389
f 547/905/387 549/906/390 554/907/391 548/908/388
f 549/906/390 547/905/387 550/909/386 552/910/392
f 552/911/392 550/912/386 551/913/389 553/914/393
f 549/915/390 552/916/392 553/917/393 554/918/391
f 553/914/393 551/913/389 548/908/388 554/907/391
f 558/919/387 559/920/388 556/921/389 555/922/386
f 555/923/386 556/924/389 562/925/393 557/926/392
f 557/926/392 560/927/390 558/928/387 555/923/386
f 560/929/390 561/930/391 559/931/388 558/932/387
f 557/933/392 562/934/393 561/935/391 560/936/390
f 561/930/391 562/925/393 556/924/389 559/931/388
f 563/937/394 564/938/395 568/939/396 566/940/397
f 563/941/394 565/942/398 573/943/399 564/944/395
f 566/945/397 569/946/400 565/942/398 563/941/394
f 567/947/401 570/948/402 569/946/400 566/945/397
f 574/949/403 567/950/401 566/940/397 568/939/396
f 571/951/404 569/952/400 570/953/402 572/954/405
f 565/955/398 569/952/400 571/951/404 573/956/399
f 568/957/396 571/958/404 572/959/405 574/960/403
f 564/961/395 573/962/399 571/958/404 568/957/396
f 570/953/402 576/963/406 575/964/407 572/954/405
f 574/960/403 572/959/405 575/965/407 577/966/408
f 576/963/406 580/967/409 578/968/410 575/964/407
f 577/966/408 575/965/407 578/969/410 581/970/411
f 581/970/411 578/969/410 579/971/412 582/972/413
f 578/968/410 580/967/409 586/973/414 579/974/412
f 582/975/413 584/976/415 583/977/416 581/978/411
f 585/979/417 577/980/408 581/978/411 583/977/416
f 584/981/415 586/982/414 580/983/409 583/984/416
f 583/984/416 580/983/409 576/985/406 585/986/417
f 567/950/401 574/949/403 577/980/408 585/979/417
f 585/986/417 576/985/406 570/948/402 567/947/401
f 584/976/415 582/975/413 589/987/418 587/988/419
f 587/989/419 590/990/420 586/982/414 584/981/415
f 588/991/421 592/992/422 590/990/420 587/989/419
f 601/993/423 588/994/421 587/988/419 589/987/418
f 591/995/424 590/996/420 592/997/422 593/998/425
f 586/973/414 590/996/420 591/995/424 579/974/412
f 592/997/422 594/999/426 597/1000/427 593/998/425
f 596/1001/428 594/1002/426 592/992/422 588/991/421
f 597/1000/427 594/999/426 595/1003/429 598/1004/430
f 602/1005/431 595/1006/429 594/1002/426 596/1001/428
f 599/1007/432 597/1008/427 598/1009/430 600/1010/433
f 601/1011/423 593/1012/425 597/1008/427 599/1007/432
f 600/1013/433 602/1014/431 596/1015/428 599/1016/432
f 588/994/421 601/993/423 599/1016/432 596/1015/428
f 589/1017/418 591/1018/424 593/1012/425 601/1011/423
f 602/1014/431 600/1013/433 603/1019/434 605/1020/435
f 600/1010/433 598/1009/430 606/1021/436 603/1022/434
f 607/1023/437 604/1024/438 603/1022/434 606/1021/436
f 604/1025/438 610/1026/439 605/1020/435 603/1019/434
f 606/1027/436 608/1028/440 609/1029/441 607/1030/437
f 595/1003/429 608/1028/440 606/1027/436 598/1004/430
f 608/1031/440 605/1032/435 610/1033/439 609/1034/441
f 605/1032/435 608/1031/440 595/1006/429 602/1005/431
f 609/1029/441 611/1035/442 614/1036/443 607/1030/437
f 613/1037/444 611/1038/442 609/1034/441 610/1033/439
f 614/1036/443 611/1035/442 612/1039/445 615/1040/446
f 618/1041/447 612/1042/445 611/1038/442 613/1037/444
f 616/1043/448 614/1044/443 615/1045/446 617/1046/449
f 604/1024/438 607/1023/437 614/1044/443 616/1043/448
f 617/1047/449 618/1048/447 613/1049/444 616/1050/448
f 610/1026/439 604/1025/438 616/1050/448 613/1049/444
f 618/1048/447 617/1047/449 619/1051/450 621/1052/451
f 617/1046/449 615/1045/446 622/1053/452 619/1054/450
f 619/1054/450 622/1053/452 623/1055/453 620/1056/454
f 620/1057/454 626/1058/455 621/1052/451 619/1051/450
f 622/1059/452 624/1060/456 625/1061/457 623/1062/453
f 612/1039/445 624/1060/456 622/1059/452 615/1040/446
f 626/1063/455 625/1064/457 624/1065/456 621/1066/451
f 621/1066/451 624/1065/456 612/1042/445 618/1041/447
f 625/1061/457 627/1067/458 629/1068/459 623/1062/453
f 628/1069/460 627/1070/458 625/1064/457 626/1063/455
f 630/1071/461 629/1072/459 627/1070/458 628/1069/460
f 620/1056/454 623/1055/453 629/1072/459 630/1071/461
f 626/1058/455 620/1057/454 630/1073/461 628/1074/460
f 582/972/413 579/971/412 591/1018/424 589/1017/418
f 634/1075/462 635/1076/463 632/1077/464 631/1078/465
f 631/1079/465 632/1080/464 638/1081/466 633/1082/467
f 633/1083/467 636/1084/468 634/1075/462 631/1078/465
f 636/1085/468 637/1086/469 635/1087/463 634/1088/462
f 633/1083/467 638/1089/466 637/1090/469 636/1084/468
f 637/1090/469 638/1089/466 632/1091/464 635/1092/463
f 642/1093/462 643/1094/463 640/1095/464 639/1096/465
f 639/1097/465 640/1098/464 646/1099/466 641/1100/467
f 641/1101/467 644/1102/468 642/1093/462 639/1096/465
f 644/1103/468 645/1104/469 643/1105/463 642/1106/462
f 641/1101/467 646/1107/466 645/1108/469 644/1102/468
f 645/1109/469 646/1110/466 640/1095/464 643/1094/463
f 650/1111/470 651/1112/471 648/1113/472 647/1114/473
f 647/1115/473 648/1116/472 654/1117/474 649/1118/475
f 649/1119/475 652/1120/476 650/1121/470 647/1122/473
f 652/1120/476 653/1123/477 651/1124/471 650/1121/470
f 649/1125/475 654/1126/474 653/1127/477 652/1128/476
f 653/1123/477 654/1117/474 648/1116/472 651/1124/471
f 658/1129/478 655/1130/479 656/1131/480 659/1132/481
f 655/1133/479 657/1134/482 662/1135/483 656/1136/480
f 657/1137/482 655/1138/479 658/1139/478 660/1140/484
f 660/1140/484 658/1139/478 659/1141/481 661/1142/485
f 657/1143/482 660/1144/484 661/1145/485 662/1146/483
f 661/1142/485 659/1141/481 656/1136/480 662/1135/483
f 663/1147/486 664/1148/487 669/1149/488 666/1150/489
f 664/1148/487 663/1147/486 665/1151/490 673/1152/491
f 666/1150/489 668/1153/492 665/1154/490 663/1147/486
f 667/1155/493 674/1156/494 668/1157/492 666/1150/489
f 666/1150/489 669/1149/488 670/1158/495 667/1155/493
f 669/1149/488 671/1159/496 672/1160/497 670/1158/495
f 669/1149/488 664/1148/487 673/1161/491 671/1162/496
f 668/1163/492 674/1164/494 672/1165/497 671/1166/496
f 665/1167/490 668/1163/492 671/1166/496 673/1168/491
f 674/1164/494 667/1169/493 670/1170/495 672/1165/497
f 675/1171/498 678/1172/499 679/1173/500 676/1174/501
f 676/1174/501 682/1175/502 677/1176/503 675/1171/498
f 677/1176/503 680/1177/504 678/1178/499 675/1171/498
f 678/1179/499 680/1180/504 681/1181/505 679/1182/500
f 677/1176/503 682/1175/502 681/1183/505 680/1184/504
f 682/1175/502 676/1174/501 679/1182/500 681/1181/505
f 683/1185/506 686/1186/507 687/1187/508 684/1188/509
f 684/1188/509 690/1189/510 685/1190/511 683/1185/506
f 685/1190/511 688/1191/512 686/1192/507 683/1185/506
f 686/1193/507 688/1194/512 689/1195/513 687/1196/508
f 688/1197/512 685/1190/511 690/1189/510 689/1198/513
f 689/1195/513 690/1189/510 684/1188/509 687/1196/508
f 691/1199/514 694/1200/515 695/1201/516 692/1202/517
f 692/1202/517 698/1203/518 693/1204/519 691/1199/514
f 696/1205/520 694/1206/515 691/1199/514 693/1204/519
f 694/1207/515 696/1208/520 697/1209/521 695/1210/516
f 696/1211/520 693/1204/519 698/1203/518 697/1212/521
f 697/1209/521 698/1203/518 692/1202/517 695/1210/516
f 699/1213/522 702/1214/523 703/1215/524 700/1216/525
f 700/1216/525 706/1217/526 701/1218/527 699/1213/522
f 704/1219/528 702/1220/523 699/1213/522 701/1218/527
f 702/1221/523 704/1222/528 705/1223/529 703/1224/524
f 704/1225/528 701/1218/527 706/1217/526 705/1226/529
f 705/1223/529 706/1217/526 700/1216/525 703/1224/524
f 712/1227/530 708/1228/531 707/1229/532 710/1230/533
f 707/1229/532 708/1231/531 714/1232/534 709/1233/535
f 710/1230/533 707/1229/532 709/1233/535 711/1234/536
f 710/1230/533 711/1234/536 713/1235/537 712/1236/530
f 713/1237/537 714/1238/534 708/1228/531 712/1227/530
f 711/1234/536 709/1233/535 714/1239/534 713/1240/537
f 718/1241/538 719/1242/539 716/1243/540 715/1244/541
f 715/1245/541 716/1246/540 722/1247/542 717/1248/543
f 717/1249/543 720/1250/544 718/1241/538 715/1244/541
f 720/1251/544 721/1252/545 719/1253/539 718/1254/538
f 717/1255/543 722/1256/542 721/1257/545 720/1258/544
f 721/1257/545 722/1256/542 716/1243/540 719/1242/539
