# Blender 3.6.23
# www.blender.org
mtllib scene_0004_diffuse.mtl
o diffuse_table_01
v -33.124416 -701.210449 43.553764
v -32.707592 -700.744873 43.553764
v -33.124416 -701.210449 46.900932
v -30.194565 -703.414429 47.249985
v -32.707592 -700.744873 46.900932
v 51.141621 -696.116943 43.553764
v 51.607151 -696.533752 43.553764
v 48.937645 -699.046814 47.249992
v 51.607151 -696.533752 46.900932
v 51.141621 -696.116943 46.900932
v -29.796986 -753.479126 43.553764
v -30.262516 -753.062317 43.553764
v -27.593010 -750.549255 47.249985
v -30.262516 -753.062317 46.900932
v -29.796986 -753.479126 46.900932
v 54.469051 -748.385620 43.553764
v 54.052227 -748.851196 43.553764
v 51.539200 -746.181641 47.249992
v 54.052227 -748.851196 46.900932
v 54.469051 -748.385620 46.900932
v 51.165974 -696.558105 43.242287
v -32.683239 -701.186096 43.242275
v 54.027874 -748.409973 43.242287
v -29.821339 -753.037964 43.242275
v 48.894798 -699.105286 45.709328
v -30.145538 -703.467834 45.709320
v 51.490173 -746.128235 45.709328
v -27.550163 -750.490784 45.709320
v -30.145538 -703.467834 43.368603
v -30.313698 -703.316650 43.242275
v 49.045284 -698.936523 43.242287
v 48.894798 -699.105286 43.368610
v -27.700661 -750.659546 43.242275
v -27.550163 -750.490784 43.368603
v 51.658321 -746.279419 43.242287
v 51.490173 -746.128235 43.368610
v -32.683239 -701.186096 47.249992
v 51.165974 -696.558105 47.250000
v 54.027874 -748.409973 47.250000
v -29.821339 -753.037964 47.249992
v 46.284988 -741.427307 0.000004
v 45.953613 -741.429688 0.248186
v 46.250782 -741.097778 0.248190
v 42.972973 -738.175659 45.732796
v 42.675800 -738.507507 45.732796
v 49.699333 -741.238281 0.014797
v 49.670734 -740.908997 0.248190
v 50.002312 -741.205200 0.262857
v 47.893501 -738.219543 45.732796
v 47.561874 -737.922363 45.732796
v 46.472881 -744.841736 0.014795
v 46.473286 -745.146606 0.262857
v 46.142376 -744.849609 0.248186
v 42.929081 -743.096436 45.732796
v 43.260960 -743.393372 45.732796
v 49.888409 -744.653748 0.161125
v 50.191109 -744.626709 0.424261
v 49.894760 -744.957703 0.424261
v 47.849857 -743.140076 45.732796
v 48.146782 -742.808472 45.732796
v 44.238579 -704.350525 0.000004
v 43.908958 -704.384644 0.248186
v 44.240849 -704.681824 0.248190
v 41.304535 -707.946899 45.732796
v 40.972645 -707.649780 45.732796
v 47.652985 -704.162598 0.014797
v 47.660801 -704.493042 0.248190
v 47.957764 -704.162109 0.262857
v 46.190346 -707.361755 45.732796
v 45.893433 -707.693665 45.732796
v 44.049564 -700.936157 0.014795
v 44.016415 -700.633118 0.262857
v 43.720196 -700.964661 0.248186
v 40.719364 -703.060852 45.732796
v 41.016552 -702.729187 45.732796
v 47.465031 -700.747070 0.161125
v 47.768867 -700.740662 0.424261
v 47.437897 -700.444336 0.424261
v 45.605450 -702.475952 45.732796
v 45.937065 -702.772888 45.732796
v -22.893932 -745.245544 0.000000
v -22.564312 -745.211426 0.248182
v -22.896198 -744.914246 0.248186
v -19.959896 -741.649170 45.732788
v -19.627998 -741.946289 45.732788
v -26.308334 -745.433472 0.014791
v -26.316158 -745.103027 0.248186
v -26.613121 -745.433960 0.262852
v -24.845711 -742.234314 45.732788
v -24.548798 -741.902405 45.732788
v -22.704922 -748.659912 0.014791
v -22.671772 -748.962952 0.262852
v -22.375549 -748.631409 0.248182
v -19.374722 -746.535217 45.732788
v -19.671913 -746.866882 45.732788
v -26.120380 -748.848999 0.161121
v -26.424225 -748.855408 0.424255
v -26.093246 -749.151733 0.424255
v -24.260815 -747.120117 45.732788
v -24.592430 -746.823181 45.732788
v -24.940342 -708.168762 0.000000
v -24.608967 -708.166382 0.248182
v -24.906132 -708.498291 0.248186
v -21.628338 -711.420410 45.732788
v -21.331158 -711.088562 45.732788
v -28.354683 -708.357788 0.014791
v -28.326092 -708.687073 0.248186
v -28.657669 -708.390869 0.262852
v -26.548866 -711.376526 45.732788
v -26.217239 -711.673706 45.732788
v -25.128239 -704.754333 0.014791
v -25.128643 -704.449463 0.262852
v -24.797729 -704.746460 0.248182
v -21.584438 -706.499634 45.732788
v -21.916321 -706.202698 45.732788
v -28.543758 -704.942322 0.161121
v -28.846466 -704.969360 0.424255
v -28.550110 -704.638367 0.424255
v -26.505222 -706.455994 45.732788
v -26.802147 -706.787598 45.732788
vn -0.8301 -0.3782 -0.4098
vn -0.8387 -0.3818 0.3884
vn -0.8756 0.2872 0.3884
vn -0.8666 0.2846 -0.4098
vn 0.3782 -0.8300 -0.4098
vn 0.3818 -0.8387 0.3884
vn -0.2872 -0.8756 0.3884
vn -0.2846 -0.8666 -0.4098
vn -0.0000 -0.0000 1.0000
vn -0.3782 0.8300 -0.4098
vn -0.3818 0.8387 0.3884
vn 0.2872 0.8756 0.3884
vn 0.2846 0.8666 -0.4098
vn 0.8300 0.3782 -0.4098
vn 0.8387 0.3818 0.3884
vn 0.8756 -0.2872 0.3884
vn 0.8666 -0.2846 -0.4098
vn -0.2937 0.2630 -0.9190
vn -0.3155 0.2825 0.9059
vn 0.2630 0.2937 -0.9190
vn 0.2825 0.3155 0.9059
vn -0.2630 -0.2937 -0.9190
vn -0.2825 -0.3155 0.9059
vn 0.2937 -0.2630 -0.9190
vn 0.3155 -0.2825 0.9059
vn 0.5115 0.5702 -0.6428
vn 0.5712 -0.5105 -0.6428
vn 0.6083 -0.5447 -0.5774
vn 0.5447 0.6083 -0.5774
vn 0.0856 0.0957 -0.9917
vn -0.0956 0.0857 -0.9917
vn -0.5712 0.5105 -0.6428
vn -0.6083 0.5447 -0.5774
vn -0.0856 -0.0957 -0.9917
vn 0.0956 -0.0857 -0.9917
vn -0.5447 -0.6083 -0.5774
vn -0.5115 -0.5702 -0.6428
vn -0.8184 -0.3849 -0.4267
vn -0.9070 -0.4184 -0.0479
vn -0.9369 0.3380 -0.0892
vn -0.8518 0.2772 -0.4444
vn 0.3993 -0.8519 -0.3388
vn 0.4267 -0.9027 0.0554
vn -0.3498 -0.9368 0.0114
vn -0.2674 -0.8855 -0.3799
vn 0.8508 0.3633 -0.3797
vn 0.8926 0.4507 0.0118
vn 0.9441 -0.3249 0.0556
vn 0.8907 -0.3031 -0.3387
vn -0.3693 0.8162 -0.4443
vn -0.4391 0.8940 -0.0891
vn 0.3160 0.9476 -0.0476
vn 0.2926 0.8559 -0.4265
vn -0.2889 0.2587 -0.9217
vn 0.3024 0.2825 -0.9104
vn -0.2474 -0.3315 -0.9104
vn 0.3479 -0.3115 -0.8843
vn -0.8558 0.2925 -0.4267
vn -0.8162 -0.3693 -0.4444
vn -0.8940 -0.4390 -0.0892
vn -0.9475 0.3160 -0.0479
vn 0.3031 0.8907 -0.3388
vn -0.3632 0.8507 -0.3799
vn -0.4508 0.8926 0.0114
vn 0.3248 0.9442 0.0554
vn 0.8856 -0.2674 -0.3797
vn 0.8520 0.3993 -0.3387
vn 0.9026 0.4268 0.0556
vn 0.9368 -0.3498 0.0118
vn -0.2772 -0.8519 -0.4443
vn 0.3850 -0.8185 -0.4265
vn 0.4184 -0.9070 -0.0476
vn -0.3381 -0.9369 -0.0891
vn -0.2587 -0.2889 -0.9217
vn 0.3316 -0.2475 -0.9104
vn -0.2824 0.3023 -0.9104
vn 0.3115 0.3479 -0.8843
vn 0.8558 -0.2925 -0.4267
vn 0.8162 0.3693 -0.4444
vn 0.8940 0.4390 -0.0892
vn 0.9475 -0.3160 -0.0479
vn -0.3031 -0.8907 -0.3388
vn 0.3632 -0.8507 -0.3799
vn 0.4508 -0.8926 0.0114
vn -0.3248 -0.9442 0.0554
vn -0.8856 0.2674 -0.3797
vn -0.8520 -0.3993 -0.3387
vn -0.9026 -0.4268 0.0556
vn -0.9368 0.3498 0.0118
vn 0.2772 0.8519 -0.4443
vn -0.3850 0.8185 -0.4265
vn -0.4184 0.9070 -0.0476
vn 0.3381 0.9369 -0.0891
vn 0.2587 0.2889 -0.9217
vn -0.3316 0.2475 -0.9104
vn 0.2824 -0.3023 -0.9104
vn -0.3115 -0.3479 -0.8843
vn 0.8184 0.3849 -0.4267
vn 0.9070 0.4184 -0.0479
vn 0.9369 -0.3380 -0.0892
vn 0.8518 -0.2772 -0.4444
vn -0.3993 0.8519 -0.3388
vn -0.4267 0.9027 0.0554
vn 0.3498 0.9368 0.0114
vn 0.2674 0.8855 -0.3799
vn -0.8508 -0.3633 -0.3797
vn -0.8926 -0.4507 0.0118
vn -0.9441 0.3249 0.0556
vn -0.8907 0.3031 -0.3387
vn 0.3693 -0.8162 -0.4443
vn 0.4391 -0.8940 -0.0891
vn -0.3160 -0.9476 -0.0476
vn -0.2926 -0.8559 -0.4265
vn 0.2889 -0.2587 -0.9217
vn -0.3023 -0.2825 -0.9104
vn 0.2474 0.3315 -0.9104
vn -0.3479 0.3115 -0.8843
vt 0.012167 0.894395
vt 0.012161 0.862608
vt 0.401654 0.862517
vt 0.401672 0.894215
vt 0.770729 0.637544
vt 0.738930 0.637544
vt 0.738908 0.007387
vt 0.770625 0.007379
vt 0.011087 0.358772
vt 0.011087 0.004670
vt 0.605569 0.004670
vt 0.605569 0.358772
vt 0.665754 0.637544
vt 0.633954 0.637544
vt 0.633932 0.007387
vt 0.665648 0.007379
vt 0.012153 0.781665
vt 0.012159 0.749877
vt 0.401667 0.750059
vt 0.401653 0.781757
vt 0.402511 0.898447
vt 0.406213 0.894954
vt 0.402459 0.858019
vt 0.406193 0.861757
vt 0.669880 0.006541
vt 0.666388 0.002840
vt 0.629432 0.006581
vt 0.633174 0.002846
vt 0.774855 0.006541
vt 0.771365 0.002840
vt 0.734408 0.006581
vt 0.738150 0.002846
vt 0.402486 0.785988
vt 0.406185 0.782501
vt 0.402477 0.745559
vt 0.406213 0.749304
vt 0.670203 0.637542
vt 0.629261 0.637543
vt 0.012154 0.786116
vt 0.012153 0.745183
vt 0.775179 0.637542
vt 0.734237 0.637543
vt 0.012161 0.898847
vt 0.012163 0.857914
vt 0.030357 0.917428
vt 0.384349 0.917072
vt 0.384371 0.939343
vt 0.030379 0.939699
vt 0.791830 0.023428
vt 0.792136 0.620638
vt 0.793836 0.619438
vt 0.793540 0.024632
vt 0.815803 0.024621
vt 0.816101 0.619427
vt 0.686854 0.023428
vt 0.687161 0.620638
vt 0.012407 0.719528
vt 0.012407 0.366267
vt 0.606199 0.366267
vt 0.606199 0.719528
vt 0.385556 0.915367
vt 0.029151 0.915731
vt 0.030336 0.804709
vt 0.384312 0.804599
vt 0.384318 0.826869
vt 0.030343 0.826979
vt 0.385520 0.802895
vt 0.029131 0.803011
vt 0.688564 0.024632
vt 0.688861 0.619438
vt 0.710827 0.024621
vt 0.711126 0.619427
vt 0.611519 0.619791
vt 0.611679 0.024324
vt 0.029925 0.727445
vt 0.384741 0.727787
vt 0.716494 0.619791
vt 0.716655 0.024324
vt 0.029921 0.840165
vt 0.384711 0.840261
vt 0.413096 0.829099
vt 0.844696 0.829099
vt 0.844696 0.859196
vt 0.413096 0.859196
vt 0.413096 0.795490
vt 0.844696 0.795490
vt 0.844696 0.825587
vt 0.413096 0.825587
vt 0.413096 0.761885
vt 0.844696 0.761885
vt 0.844696 0.791983
vt 0.413096 0.791983
vt 0.413096 0.728276
vt 0.844696 0.728276
vt 0.844696 0.758374
vt 0.413096 0.758374
vt 0.107983 0.983687
vt 0.111358 0.984368
vt 0.108613 0.987108
vt 0.082406 0.983545
vt 0.081894 0.986785
vt 0.079217 0.984090
vt 0.108067 0.957990
vt 0.108635 0.954717
vt 0.111358 0.957486
vt 0.082448 0.957934
vt 0.079161 0.957325
vt 0.081842 0.954645
vt 0.413096 0.724762
vt 0.844696 0.724763
vt 0.888655 0.437483
vt 0.858557 0.437483
vt 0.858557 0.005879
vt 0.888655 0.005879
vt 0.922263 0.437483
vt 0.892166 0.437483
vt 0.892166 0.005879
vt 0.922263 0.005879
vt 0.955869 0.437483
vt 0.925771 0.437483
vt 0.925771 0.005879
vt 0.955869 0.005879
vt 0.989477 0.437483
vt 0.959380 0.437483
vt 0.959380 0.005879
vt 0.989477 0.005879
vt 0.221686 0.960258
vt 0.222316 0.956836
vt 0.225061 0.959577
vt 0.196110 0.960400
vt 0.192920 0.959855
vt 0.195597 0.957160
vt 0.221771 0.985955
vt 0.225061 0.986459
vt 0.222338 0.989228
vt 0.196151 0.986011
vt 0.195545 0.989300
vt 0.192865 0.986620
vt 0.992991 0.437483
vt 0.992991 0.005879
vt 0.961249 0.441373
vt 0.991346 0.441373
vt 0.991346 0.872978
vt 0.961249 0.872978
vt 0.927640 0.441373
vt 0.957737 0.441373
vt 0.957737 0.872978
vt 0.927640 0.872978
vt 0.894035 0.441373
vt 0.924132 0.441373
vt 0.924132 0.872978
vt 0.894035 0.872978
vt 0.860426 0.441373
vt 0.890524 0.441373
vt 0.890524 0.872978
vt 0.860426 0.872978
vt 0.054205 0.960486
vt 0.054834 0.957064
vt 0.057579 0.959805
vt 0.028628 0.960627
vt 0.025438 0.960082
vt 0.028115 0.957387
vt 0.054289 0.986182
vt 0.057579 0.986686
vt 0.054856 0.989456
vt 0.028669 0.986238
vt 0.028063 0.989527
vt 0.025383 0.986847
vt 0.856912 0.441373
vt 0.856912 0.872978
vt 0.845719 0.893331
vt 0.414117 0.893331
vt 0.414117 0.863233
vt 0.845719 0.863233
vt 0.845719 0.926939
vt 0.414117 0.926939
vt 0.414117 0.896842
vt 0.845719 0.896842
vt 0.845719 0.960544
vt 0.414117 0.960544
vt 0.414117 0.930447
vt 0.845719 0.930447
vt 0.845719 0.994153
vt 0.414117 0.994153
vt 0.414117 0.964055
vt 0.845719 0.964055
vt 0.163985 0.985789
vt 0.167323 0.986440
vt 0.164631 0.989129
vt 0.138369 0.985797
vt 0.137835 0.989092
vt 0.135147 0.986348
vt 0.164045 0.960168
vt 0.164650 0.956930
vt 0.167323 0.959689
vt 0.138385 0.960134
vt 0.135092 0.959522
vt 0.137781 0.956836
vt 0.845719 0.997667
vt 0.414117 0.997667
s 1
usemtl Diffuse_Table
f 12/1/1 14/2/2 3/3/3 1/4/4
f 17/5/5 19/6/6 15/7/7 11/8/8
f 18/9/9 8/10/9 4/11/9 13/12/9
f 2/13/10 5/14/11 10/15/12 6/16/13
f 7/17/14 9/18/15 20/19/16 16/20/17
f 22/21/18 1/4/4 2/22/10
f 3/3/3 37/23/19 5/24/11
f 21/25/20 6/16/13 7/26/14
f 38/27/21 9/28/15 10/15/12
f 24/29/22 11/8/8 12/30/1
f 40/31/23 14/32/2 15/7/7
f 23/33/24 16/20/17 17/34/5
f 39/35/25 19/36/6 20/19/16
f 21/25/20 22/37/18 2/13/10 6/16/13
f 1/4/4 3/3/3 5/24/11 2/22/10
f 37/38/19 38/27/21 10/15/12 5/14/11
f 9/28/15 7/26/14 6/16/13 10/15/12
f 23/33/24 21/39/20 7/17/14 16/20/17
f 38/40/21 39/35/25 20/19/16 9/18/15
f 19/36/6 17/34/5 16/20/17 20/19/16
f 24/29/22 23/41/24 17/5/5 11/8/8
f 39/42/25 40/31/23 15/7/7 19/6/6
f 14/32/2 12/30/1 11/8/8 15/7/7
f 22/21/18 24/43/22 12/1/1 1/4/4
f 40/44/23 37/23/19 3/3/3 14/2/2
f 34/45/26 29/46/27 26/47/28 28/48/29
f 33/49/30 35/50/31 23/41/24 24/29/22
f 36/51/32 34/52/26 28/53/29 27/54/33
f 31/55/34 30/56/35 22/37/18 21/25/20
f 25/57/36 27/58/33 28/59/29 26/60/28
f 30/61/35 33/62/30 24/43/22 22/21/18
f 32/63/37 36/64/32 27/65/33 25/66/36
f 35/67/31 31/68/34 21/39/20 23/33/24
f 32/69/37 29/70/27 30/56/35 31/55/34
f 36/64/32 32/63/37 31/68/34 35/67/31
f 34/52/26 36/51/32 35/50/31 33/49/30
f 29/46/27 34/45/26 33/62/30 30/61/35
f 29/70/27 32/69/37 25/71/36 26/72/28
f 4/73/9 8/74/9 38/27/21 37/38/19
f 8/75/9 18/76/9 39/35/25 38/40/21
f 18/77/9 13/78/9 40/31/23 39/42/25
f 13/79/9 4/80/9 37/23/19 40/44/23
f 53/81/38 54/82/39 45/83/40 42/84/41
f 58/85/42 59/86/43 55/87/44 52/88/45
f 48/89/46 49/90/47 60/91/48 57/92/49
f 43/93/50 44/94/51 50/95/52 47/96/53
f 41/97/54 42/98/41 43/99/50
f 46/100/55 47/101/53 48/102/46
f 51/103/56 52/104/45 53/105/38
f 56/106/57 57/107/49 58/108/42
f 46/100/55 41/97/54 43/99/50 47/101/53
f 42/109/41 45/110/40 44/94/51 43/93/50
f 49/90/47 48/89/46 47/96/53 50/95/52
f 56/106/57 46/100/55 48/102/46 57/107/49
f 59/86/43 58/85/42 57/92/49 60/91/48
f 51/103/56 56/106/57 58/108/42 52/104/45
f 54/82/39 53/81/38 52/88/45 55/87/44
f 41/97/54 51/103/56 53/105/38 42/98/41
f 46/100/55 56/106/57 51/103/56 41/97/54
f 73/111/58 62/112/59 65/113/60 74/114/61
f 78/115/62 72/116/63 75/117/64 79/118/65
f 68/119/66 77/120/67 80/121/68 69/122/69
f 63/123/70 67/124/71 70/125/72 64/126/73
f 61/127/74 63/128/70 62/129/59
f 66/130/75 68/131/66 67/132/71
f 71/133/76 73/134/58 72/135/63
f 76/136/77 78/137/62 77/138/67
f 66/130/75 67/132/71 63/128/70 61/127/74
f 62/139/59 63/123/70 64/126/73 65/140/60
f 69/122/69 70/125/72 67/124/71 68/119/66
f 76/136/77 77/138/67 68/131/66 66/130/75
f 79/118/65 80/121/68 77/120/67 78/115/62
f 71/133/76 72/135/63 78/137/62 76/136/77
f 74/114/61 75/117/64 72/116/63 73/111/58
f 61/127/74 62/129/59 73/134/58 71/133/76
f 66/130/75 61/127/74 71/133/76 76/136/77
f 93/141/78 82/142/79 85/143/80 94/144/81
f 98/145/82 92/146/83 95/147/84 99/148/85
f 88/149/86 97/150/87 100/151/88 89/152/89
f 83/153/90 87/154/91 90/155/92 84/156/93
f 81/157/94 83/158/90 82/159/79
f 86/160/95 88/161/86 87/162/91
f 91/163/96 93/164/78 92/165/83
f 96/166/97 98/167/82 97/168/87
f 86/160/95 87/162/91 83/158/90 81/157/94
f 82/169/79 83/153/90 84/156/93 85/170/80
f 89/152/89 90/155/92 87/154/91 88/149/86
f 96/166/97 97/168/87 88/161/86 86/160/95
f 99/148/85 100/151/88 97/150/87 98/145/82
f 91/163/96 92/165/83 98/167/82 96/166/97
f 94/144/81 95/147/84 92/146/83 93/141/78
f 81/157/94 82/159/79 93/164/78 91/163/96
f 86/160/95 81/157/94 91/163/96 96/166/97
f 113/171/98 114/172/99 105/173/100 102/174/101
f 118/175/102 119/176/103 115/177/104 112/178/105
f 108/179/106 109/180/107 120/181/108 117/182/109
f 103/183/110 104/184/111 110/185/112 107/186/113
f 101/187/114 102/188/101 103/189/110
f 106/190/115 107/191/113 108/192/106
f 111/193/116 112/194/105 113/195/98
f 116/196/117 117/197/109 118/198/102
f 106/190/115 101/187/114 103/189/110 107/191/113
f 102/199/101 105/200/100 104/184/111 103/183/110
f 109/180/107 108/179/106 107/186/113 110/185/112
f 116/196/117 106/190/115 108/192/106 117/197/109
f 119/176/103 118/175/102 117/182/109 120/181/108
f 111/193/116 116/196/117 118/198/102 112/194/105
f 114/172/99 113/171/98 112/178/105 115/177/104
f 101/187/114 111/193/116 113/195/98 102/188/101
f 106/190/115 116/196/117 111/193/116 101/187/114
o diffuse_shelf_02
v -18.585621 -665.419617 0.000000
v -100.901520 -625.058350 0.000000
v -105.556183 -646.800964 0.000000
v -13.930965 -643.676941 0.000000
v -19.366631 -642.513306 183.441162
v -19.366623 -642.513306 12.692177
v -95.465874 -626.222046 183.441162
v -95.465866 -626.221985 12.692177
v -99.422333 -644.703308 183.441162
v -23.323086 -660.994568 183.441162
v -99.422325 -644.703247 12.692169
v -23.323082 -660.994568 12.692169
v -13.930973 -643.677002 186.220581
v -18.585625 -665.419617 186.220581
v -105.556183 -646.801025 186.220581
v -100.901535 -625.058350 186.220581
v -17.498493 -665.652344 188.999985
v -17.498493 -665.652344 187.002014
v -12.611107 -642.822571 187.002014
v -12.611107 -642.822571 188.999985
v -106.643311 -646.568298 188.999985
v -106.643311 -646.568298 187.002014
v -101.755928 -623.738525 188.999985
v -101.755928 -623.738525 187.002014
v -19.599358 -643.600403 60.035297
v -95.698601 -627.309143 60.035297
v -99.422325 -644.703247 60.035290
v -23.323082 -660.994568 60.035290
v -95.698601 -627.309143 57.811760
v -19.599358 -643.600403 57.811760
v -99.422325 -644.703247 57.811756
v -23.323082 -660.994568 57.811756
v -19.832088 -644.687561 57.811760
v -20.701450 -644.501465 57.811760
v -24.192444 -660.808411 57.811756
v -20.701450 -644.501465 57.144695
v -19.832088 -644.687561 57.144695
v -24.192444 -660.808411 57.144695
v -23.323082 -660.994568 57.144695
v -23.323082 -660.994568 57.811756
v -95.931335 -628.396240 57.811760
v -95.061966 -628.582397 57.811760
v -98.552963 -644.889343 57.811756
v -95.061966 -628.582397 57.144695
v -95.931335 -628.396240 57.144695
v -98.552963 -644.889343 57.144695
v -99.422325 -644.703247 57.144695
v -99.422325 -644.703247 57.811756
v -19.599358 -643.600464 85.605873
v -95.698601 -627.309143 85.605873
v -99.422325 -644.703247 85.605873
v -23.323082 -660.994568 85.605873
v -95.698601 -627.309143 83.382347
v -19.599358 -643.600464 83.382347
v -99.422325 -644.703247 83.382347
v -23.323082 -660.994568 83.382347
v -19.832092 -644.687561 83.382347
v -20.701450 -644.501465 83.382347
v -24.192444 -660.808411 83.382347
v -20.701450 -644.501465 82.715294
v -19.832092 -644.687561 82.715294
v -24.192444 -660.808411 82.715294
v -23.323082 -660.994568 82.715294
v -23.323082 -660.994568 83.382347
v -95.931335 -628.396301 83.382347
v -95.061966 -628.582397 83.382347
v -98.552963 -644.889343 83.382347
v -95.061966 -628.582397 82.715294
v -95.931335 -628.396301 82.715294
v -98.552963 -644.889343 82.715294
v -99.422325 -644.703247 82.715294
v -99.422325 -644.703247 83.382347
v -19.599358 -643.600464 111.176468
v -95.698601 -627.309143 111.176468
v -99.422325 -644.703247 111.176468
v -23.323082 -660.994568 111.176468
v -95.698601 -627.309143 108.952919
v -19.599358 -643.600464 108.952919
v -99.422325 -644.703247 108.952919
v -23.323082 -660.994568 108.952919
v -19.832092 -644.687561 108.952919
v -20.701454 -644.501465 108.952919
v -24.192444 -660.808411 108.952919
v -20.701454 -644.501465 108.285873
v -19.832092 -644.687561 108.285873
v -24.192444 -660.808411 108.285873
v -23.323082 -660.994568 108.285873
v -23.323082 -660.994568 108.952919
v -95.931335 -628.396301 108.952919
v -95.061974 -628.582397 108.952919
v -98.552963 -644.889343 108.952919
v -95.061974 -628.582397 108.285873
v -95.931335 -628.396301 108.285873
v -98.552963 -644.889343 108.285873
v -99.422325 -644.703247 108.285873
v -99.422325 -644.703247 108.952919
v -19.599361 -643.600464 136.747040
v -95.698608 -627.309143 136.747040
v -99.422325 -644.703247 136.747040
v -23.323082 -660.994568 136.747040
v -95.698608 -627.309143 134.523514
v -19.599361 -643.600464 134.523514
v -99.422325 -644.703247 134.523514
v -23.323082 -660.994568 134.523514
v -19.832092 -644.687561 134.523514
v -20.701454 -644.501465 134.523514
v -24.192444 -660.808411 134.523514
v -20.701454 -644.501465 133.856461
v -19.832092 -644.687561 133.856461
v -24.192444 -660.808411 133.856461
v -23.323082 -660.994568 133.856461
v -23.323082 -660.994568 134.523514
v -95.931335 -628.396301 134.523514
v -95.061974 -628.582397 134.523514
v -98.552963 -644.889404 134.523514
v -95.061974 -628.582397 133.856461
v -95.931335 -628.396301 133.856461
v -98.552963 -644.889404 133.856461
v -99.422325 -644.703247 133.856461
v -99.422325 -644.703247 134.523514
v -19.599361 -643.600464 162.317627
v -95.698608 -627.309143 162.317627
v -99.422333 -644.703247 162.317627
v -23.323086 -660.994568 162.317627
v -95.698608 -627.309143 160.094116
v -19.599361 -643.600464 160.094116
v -99.422333 -644.703247 160.094116
v -23.323086 -660.994568 160.094116
v -19.832092 -644.687561 160.094116
v -20.701454 -644.501465 160.094116
v -24.192444 -660.808472 160.094116
v -20.701454 -644.501465 159.427063
v -19.832092 -644.687561 159.427063
v -24.192444 -660.808472 159.427063
v -23.323082 -660.994568 159.427063
v -23.323086 -660.994568 160.094116
v -95.931335 -628.396301 160.094116
v -95.061974 -628.582397 160.094116
v -98.552963 -644.889404 160.094116
v -95.061974 -628.582397 159.427063
v -95.931335 -628.396301 159.427063
v -98.552963 -644.889404 159.427063
v -99.422325 -644.703247 159.427063
v -99.422333 -644.703247 160.094116
v -19.599358 -643.600403 34.464703
v -95.698601 -627.309143 34.464703
v -99.422318 -644.703247 34.464703
v -23.323078 -660.994568 34.464703
v -95.698601 -627.309143 32.241177
v -19.599358 -643.600403 32.241177
v -99.422318 -644.703247 32.241173
v -23.323078 -660.994568 32.241173
v -19.832088 -644.687561 32.241177
v -20.701450 -644.501465 32.241177
v -24.192440 -660.808411 32.241173
v -20.701450 -644.501465 31.574116
v -19.832088 -644.687561 31.574116
v -24.192440 -660.808411 31.574112
v -23.323078 -660.994568 31.574112
v -23.323078 -660.994568 32.241173
v -95.931335 -628.396240 32.241177
v -95.061966 -628.582397 32.241177
v -98.552963 -644.889343 32.241173
v -95.061966 -628.582397 31.574116
v -95.931335 -628.396240 31.574116
v -98.552963 -644.889343 31.574112
v -99.422318 -644.703247 31.574112
v -99.422318 -644.703247 32.241173
vn -0.4019 0.6208 -0.6731
vn -0.6611 -0.7041 -0.2592
vn -0.8123 -0.4567 -0.3629
vn -0.4875 0.7531 -0.4417
vn -0.1055 0.9476 0.3015
vn -0.1055 0.9476 -0.3015
vn 0.6208 0.4019 -0.6731
vn 0.6854 0.4437 -0.5774
vn -0.6854 -0.4437 -0.5774
vn -0.4437 0.6854 -0.5774
vn 0.3149 -0.9131 -0.2592
vn 0.4437 -0.6854 -0.5774
vn 0.4842 0.8214 0.3015
vn 0.4842 0.8214 -0.3015
vn -0.6854 -0.4437 0.5773
vn 0.4437 -0.6854 0.5773
vn 0.6854 0.4437 0.5774
vn -0.4437 0.6854 0.5774
vn 0.7531 0.4875 -0.4417
vn 0.5541 -0.7492 -0.3629
vn 0.1480 0.6914 0.7071
vn -0.0000 -0.0000 1.0000
vn 0.1480 0.6914 -0.7071
vn -0.0000 -0.0000 -1.0000
vn -0.1480 -0.6914 -0.7071
vn -0.8395 -0.5434 -0.0000
vn -0.5434 0.8395 -0.0000
vn 0.2093 0.9778 -0.0000
vn -0.2093 -0.9778 -0.0000
vn 0.5434 -0.8395 -0.0000
vn 0.8395 0.5434 -0.0000
vn -0.4437 0.6854 -0.5773
vn 0.6854 0.4437 -0.5773
vn -0.6854 -0.4437 0.5774
vn 0.4437 -0.6854 0.5774
vt 0.910724 0.606259
vt 0.989116 0.606259
vt 0.989116 0.611050
vt 0.906804 0.611050
vt 0.613938 0.966226
vt 0.011952 0.966226
vt 0.002153 0.946628
vt 0.658686 0.946628
vt 0.780069 0.657875
vt 0.780069 0.001334
vt 0.858462 0.001334
vt 0.858462 0.657875
vt 0.629727 0.657876
vt 0.629727 0.001334
vt 0.708120 0.001334
vt 0.708120 0.657876
vt 0.963978 0.953926
vt 0.944379 0.998674
vt 0.670004 0.998674
vt 0.650405 0.953926
vt 0.996659 0.003858
vt 0.996659 0.273693
vt 0.931128 0.273693
vt 0.931128 0.003858
vt 0.989116 0.618094
vt 0.989116 0.939504
vt 0.906804 0.939503
vt 0.906804 0.618094
vt 0.894966 0.935583
vt 0.894969 0.622013
vt 0.899760 0.618094
vt 0.899759 0.939503
vt 0.659539 0.991588
vt 0.003002 0.991588
vt 0.012801 0.971990
vt 0.614791 0.971990
vt 0.624644 0.577883
vt 0.003749 0.577882
vt 0.003750 0.281335
vt 0.624645 0.281336
vt 0.317517 0.663987
vt 0.003945 0.663987
vt 0.003945 0.585594
vt 0.317517 0.585594
vt 0.978444 0.278821
vt 0.985488 0.278821
vt 0.985489 0.600233
vt 0.978444 0.600233
vt 0.001331 0.001326
vt 0.603325 0.001326
vt 0.603325 0.275702
vt 0.001331 0.275702
vt 0.927665 0.002061
vt 0.927666 0.604056
vt 0.861032 0.604056
vt 0.861031 0.002061
vt 0.710782 0.603328
vt 0.710781 0.001333
vt 0.777415 0.001333
vt 0.777415 0.603328
vt 0.326807 0.589611
vt 0.601183 0.589611
vt 0.601183 0.656245
vt 0.326807 0.656245
vt 0.885170 0.641612
vt 0.885168 0.915984
vt 0.906804 0.946547
vt 0.989116 0.946548
vt 0.989116 0.951339
vt 0.910723 0.951339
vt 0.975689 0.282741
vt 0.975688 0.596312
vt 0.558477 0.878351
vt 0.832841 0.878351
vt 0.832841 0.941063
vt 0.558477 0.941063
vt 0.558477 0.870512
vt 0.558477 0.807800
vt 0.832841 0.807800
vt 0.832841 0.870512
vt 0.605985 0.062479
vt 0.605985 0.003686
vt 0.609120 0.003686
vt 0.609119 0.062479
vt 0.611471 0.003686
vt 0.611471 0.062479
vt 0.609119 0.064831
vt 0.605985 0.064831
vt 0.609120 0.001335
vt 0.605985 0.001335
vt 0.613685 0.138933
vt 0.616819 0.138933
vt 0.616819 0.197726
vt 0.613685 0.197726
vt 0.619171 0.197726
vt 0.619171 0.138933
vt 0.616819 0.136581
vt 0.613685 0.136581
vt 0.616819 0.200077
vt 0.613685 0.200077
vt 0.554922 0.731143
vt 0.280558 0.731143
vt 0.280558 0.668431
vt 0.554922 0.668431
vt 0.554922 0.738982
vt 0.554922 0.801694
vt 0.280558 0.801694
vt 0.280558 0.738982
vt 0.622273 0.062477
vt 0.622275 0.003684
vt 0.625409 0.003684
vt 0.625407 0.062477
vt 0.627761 0.003684
vt 0.627759 0.062477
vt 0.625408 0.064829
vt 0.622273 0.064829
vt 0.625409 0.001333
vt 0.622275 0.001332
vt 0.605571 0.207142
vt 0.608705 0.207142
vt 0.608705 0.265935
vt 0.605571 0.265935
vt 0.611057 0.265935
vt 0.611057 0.207142
vt 0.608705 0.204791
vt 0.605571 0.204791
vt 0.608705 0.268287
vt 0.605571 0.268287
vt 0.003015 0.875554
vt 0.277378 0.875554
vt 0.277378 0.938266
vt 0.003015 0.938266
vt 0.003015 0.867715
vt 0.003015 0.805003
vt 0.277378 0.805003
vt 0.277378 0.867715
vt 0.621345 0.591306
vt 0.621344 0.650098
vt 0.618210 0.650098
vt 0.618211 0.591306
vt 0.615858 0.650098
vt 0.615859 0.591306
vt 0.618211 0.588954
vt 0.621345 0.588954
vt 0.618210 0.652450
vt 0.621344 0.652450
vt 0.605988 0.071199
vt 0.609122 0.071199
vt 0.609122 0.129992
vt 0.605988 0.129992
vt 0.611474 0.129992
vt 0.611474 0.071199
vt 0.609122 0.068848
vt 0.605988 0.068848
vt 0.609122 0.132343
vt 0.605988 0.132343
vt 0.277373 0.731785
vt 0.003009 0.731785
vt 0.003009 0.669074
vt 0.277373 0.669074
vt 0.277373 0.739624
vt 0.277373 0.802336
vt 0.003009 0.802336
vt 0.003009 0.739625
vt 0.622271 0.129998
vt 0.622272 0.071206
vt 0.625406 0.071206
vt 0.625405 0.129999
vt 0.627758 0.071206
vt 0.627757 0.129998
vt 0.625406 0.132350
vt 0.622271 0.132350
vt 0.625406 0.068855
vt 0.622272 0.068855
vt 0.614131 0.003686
vt 0.617265 0.003686
vt 0.617265 0.062478
vt 0.614131 0.062478
vt 0.619617 0.062478
vt 0.619617 0.003686
vt 0.617265 0.001335
vt 0.614131 0.001335
vt 0.617265 0.064830
vt 0.614131 0.064830
vt 0.554918 0.868004
vt 0.280554 0.868004
vt 0.280554 0.805293
vt 0.554918 0.805293
vt 0.554918 0.875843
vt 0.554918 0.938555
vt 0.280554 0.938555
vt 0.280554 0.875843
vt 0.614132 0.129990
vt 0.614132 0.071198
vt 0.617267 0.071198
vt 0.617267 0.129990
vt 0.619618 0.071198
vt 0.619618 0.129990
vt 0.617267 0.132342
vt 0.614132 0.132342
vt 0.617267 0.068846
vt 0.614132 0.068846
vt 0.621835 0.138936
vt 0.624969 0.138936
vt 0.624969 0.197728
vt 0.621835 0.197728
vt 0.627321 0.197728
vt 0.627321 0.138936
vt 0.624969 0.136584
vt 0.621835 0.136584
vt 0.624969 0.200080
vt 0.621835 0.200080
vt 0.565751 0.740565
vt 0.840114 0.740565
vt 0.840114 0.803276
vt 0.565751 0.803276
vt 0.565751 0.732726
vt 0.565751 0.670014
vt 0.840114 0.670014
vt 0.840114 0.732725
vt 0.557912 0.670014
vt 0.557912 0.732726
vt 0.847953 0.732725
vt 0.847953 0.670014
vt 0.565751 0.662175
vt 0.840114 0.662175
vt 0.605446 0.198158
vt 0.605452 0.139365
vt 0.608586 0.139365
vt 0.608580 0.198158
vt 0.610938 0.139366
vt 0.610932 0.198158
vt 0.608580 0.200510
vt 0.605446 0.200509
vt 0.608587 0.137014
vt 0.605452 0.137013
vt 0.606732 0.591302
vt 0.609866 0.591302
vt 0.609866 0.650095
vt 0.606732 0.650095
vt 0.612218 0.650095
vt 0.612218 0.591302
vt 0.609866 0.588950
vt 0.606732 0.588950
vt 0.609866 0.652446
vt 0.606732 0.652446
s 1
usemtl Diffuse_shelf
f 136/201/118 135/202/119 142/203/120 144/204/121
f 126/205/122 125/206/123 133/207/124 124/208/125
f 123/209/126 135/210/119 136/211/118 122/212/127
f 124/213/125 133/214/124 134/215/128 121/216/129
f 122/217/127 128/218/130 126/219/122 124/220/125
f 127/221/131 125/222/123 130/223/127 129/224/125
f 141/225/132 137/226/133 140/227/134 143/228/135
f 133/229/124 136/230/118 144/231/121 139/232/136
f 122/233/127 136/234/118 127/235/131 128/236/130
f 121/237/129 134/238/128 135/239/119 123/240/126
f 121/241/129 123/242/126 122/243/127 124/244/125
f 138/245/137 137/246/133 141/247/132 142/248/120
f 131/249/134 129/250/125 130/251/127 132/252/135
f 128/253/130 127/254/131 129/255/125 131/256/134
f 125/257/123 126/258/122 132/259/135 130/260/127
f 126/261/122 128/262/130 131/263/134 132/264/135
f 127/265/131 136/230/118 133/229/124 125/266/123
f 144/231/121 143/228/135 140/227/134 139/232/136
f 139/267/136 140/227/134 137/226/133 138/268/137
f 134/269/128 133/270/124 139/267/136 138/268/137
f 142/203/120 141/225/132 143/228/135 144/204/121
f 134/271/128 138/245/137 142/248/120 135/272/119
f 145/273/138 146/274/138 147/275/139 148/276/139
f 150/277/140 152/278/141 151/279/141 149/280/140
f 145/273/138 150/277/140 149/280/140 146/274/138
f 157/281/140 159/282/142 158/283/126 156/284/127
f 155/285/143 154/286/144 156/284/127 158/283/126
f 154/287/144 153/288/145 157/281/140 156/284/127
f 155/289/143 158/283/126 159/282/142 160/290/146
f 165/291/140 164/292/125 166/293/129 167/294/142
f 163/295/147 166/293/129 164/292/125 162/296/148
f 162/297/148 164/292/125 165/291/140 161/298/145
f 163/299/147 168/300/146 167/294/142 166/293/129
f 169/301/138 170/302/138 171/303/139 172/304/139
f 174/305/140 176/306/141 175/307/141 173/308/140
f 169/301/138 174/305/140 173/308/140 170/302/138
f 181/309/140 183/310/142 182/311/126 180/312/149
f 179/313/143 178/314/144 180/312/149 182/311/126
f 178/315/144 177/316/145 181/309/140 180/312/149
f 179/317/143 182/311/126 183/310/142 184/318/146
f 189/319/140 188/320/150 190/321/129 191/322/142
f 187/323/147 190/321/129 188/320/150 186/324/148
f 186/325/148 188/320/150 189/319/140 185/326/145
f 187/327/147 192/328/146 191/322/142 190/321/129
f 193/329/138 194/330/138 195/331/139 196/332/139
f 198/333/140 200/334/141 199/335/141 197/336/140
f 193/329/138 198/333/140 197/336/140 194/330/138
f 205/337/140 207/338/142 206/339/126 204/340/127
f 203/341/143 202/342/144 204/340/127 206/339/126
f 202/343/144 201/344/145 205/337/140 204/340/127
f 203/345/143 206/339/126 207/338/142 208/346/146
f 213/347/140 212/348/125 214/349/129 215/350/142
f 211/351/147 214/349/129 212/348/125 210/352/148
f 210/353/148 212/348/125 213/347/140 209/354/145
f 211/355/147 216/356/146 215/350/142 214/349/129
f 217/357/138 218/358/138 219/359/139 220/360/139
f 222/361/140 224/362/141 223/363/141 221/364/140
f 217/357/138 222/361/140 221/364/140 218/358/138
f 229/365/140 231/366/142 230/367/126 228/368/127
f 227/369/143 226/370/144 228/368/127 230/367/126
f 226/371/144 225/372/145 229/365/140 228/368/127
f 227/373/143 230/367/126 231/366/142 232/374/146
f 237/375/140 236/376/125 238/377/129 239/378/142
f 235/379/147 238/377/129 236/376/125 234/380/148
f 234/381/148 236/376/125 237/375/140 233/382/145
f 235/383/147 240/384/146 239/378/142 238/377/129
f 241/385/138 242/386/138 243/387/139 244/388/139
f 246/389/140 248/390/141 247/391/141 245/392/140
f 241/385/138 246/389/140 245/392/140 242/386/138
f 253/393/140 255/394/142 254/395/126 252/396/149
f 251/397/143 250/398/144 252/396/149 254/395/126
f 250/399/144 249/400/145 253/393/140 252/396/149
f 251/401/143 254/395/126 255/394/142 256/402/146
f 261/403/140 260/404/150 262/405/129 263/406/142
f 259/407/147 262/405/129 260/404/150 258/408/148
f 258/409/148 260/404/150 261/403/140 257/410/145
f 259/411/147 264/412/146 263/406/142 262/405/129
f 265/413/134 266/414/135 267/415/151 268/416/152
f 270/417/125 272/418/129 271/419/126 269/420/127
f 265/413/134 270/417/125 269/420/127 266/414/135
f 268/421/152 272/418/129 270/417/125 265/422/134
f 266/423/135 269/420/127 271/419/126 267/424/151
f 268/425/152 267/426/151 271/419/126 272/418/129
f 277/427/140 279/428/142 278/429/126 276/430/127
f 275/431/143 274/432/144 276/430/127 278/429/126
f 274/433/144 273/434/145 277/427/140 276/430/127
f 275/435/143 278/429/126 279/428/142 280/436/146
f 285/437/140 284/438/125 286/439/129 287/440/142
f 283/441/147 286/439/129 284/438/125 282/442/148
f 282/443/148 284/438/125 285/437/140 281/444/145
f 283/445/147 288/446/146 287/440/142 286/439/129
