# Blender 3.6.23
# www.blender.org
mtllib scene_0016.mtl
o glass_table_01
v 4.356003 -607.816833 -0.011028
v 3.242165 -605.374023 79.943909
v 5.185280 -609.635559 0.056087
v 4.071442 -607.192749 80.011032
v -68.434380 -641.006592 -0.011028
v -69.548218 -638.563782 79.943909
v -67.605103 -642.825317 0.056087
v -68.718941 -640.382507 80.011032
vn 0.9099 0.4149 -0.0000
vn 0.4146 -0.9094 0.0336
vn -0.9099 -0.4149 -0.0000
vn -0.4146 0.9094 -0.0336
vn 0.0139 -0.0305 -0.9994
vn -0.0139 0.0305 0.9994
vt 0.375000 0.000000
vt 0.625000 0.000000
vt 0.625000 0.250000
vt 0.375000 0.250000
vt 0.625000 0.500000
vt 0.375000 0.500000
vt 0.625000 0.750000
vt 0.375000 0.750000
vt 0.625000 1.000000
vt 0.375000 1.000000
vt 0.125000 0.500000
vt 0.125000 0.750000
vt 0.875000 0.500000
vt 0.875000 0.750000
s 0
usemtl Glass_Clear
f 1/1/1 2/2/1 4/3/1 3/4/1
f 3/4/2 4/3/2 8/5/2 7/6/2
f 7/6/3 8/5/3 6/7/3 5/8/3
f 5/8/4 6/7/4 2/9/4 1/10/4
f 3/11/5 7/6/5 5/8/5 1/12/5
f 8/5/6 4/13/6 2/14/6 6/7/6
o diffuse_shelf_01
v 70.218864 -731.423828 94.500000
v -19.612665 -713.114380 94.500000
v -18.636564 -735.328247 94.500000
v 69.242767 -709.209961 94.500000
v 63.689308 -709.454041 277.941162
v 63.689308 -709.453979 107.192184
v -14.059206 -712.870361 277.941162
v -14.059206 -712.870361 107.192184
v -13.229521 -731.752197 277.941162
v 64.518990 -728.335815 277.941162
v -13.229521 -731.752136 107.192169
v 64.518990 -728.335815 107.192169
v 69.242767 -709.210022 280.720581
v 70.218864 -731.423889 280.720581
v -18.636564 -735.328247 280.720581
v -19.612665 -713.114380 280.720581
v 71.329559 -731.375061 283.500000
v 71.329559 -731.375061 281.502014
v 70.304649 -708.050537 281.502014
v 70.304649 -708.050537 283.500000
v -19.747255 -735.377075 283.500000
v -19.747255 -735.377075 281.502014
v -20.772161 -712.052551 283.500000
v -20.772161 -712.052551 281.502014
v 63.738113 -710.564697 154.535309
v -14.010401 -713.981079 154.535309
v -13.229521 -731.752136 154.535294
v 64.518990 -728.335815 154.535294
v -14.010401 -713.981079 152.311768
v 63.738113 -710.564697 152.311768
v -13.229521 -731.752136 152.311768
v 64.518990 -728.335815 152.311768
v 63.786919 -711.675415 152.311768
v 62.898712 -711.714417 152.311768
v 63.630783 -728.374817 152.311768
v 62.898712 -711.714417 151.644699
v 63.786919 -711.675415 151.644699
v 63.630783 -728.374817 151.644699
v 64.518990 -728.335815 151.644699
v 64.518990 -728.335815 152.311768
v -13.961596 -715.091736 152.311768
v -13.073389 -715.052734 152.311768
v -12.341314 -731.713135 152.311768
v -13.073389 -715.052734 151.644699
v -13.961596 -715.091736 151.644699
v -12.341314 -731.713135 151.644699
v -13.229521 -731.752136 151.644699
v -13.229521 -731.752136 152.311768
v 63.738113 -710.564697 180.105881
v -14.010401 -713.981079 180.105881
v -13.229521 -731.752136 180.105881
v 64.518990 -728.335815 180.105881
v -14.010401 -713.981079 177.882355
v 63.738113 -710.564697 177.882355
v -13.229521 -731.752136 177.882355
v 64.518990 -728.335815 177.882355
v 63.786919 -711.675415 177.882355
v 62.898712 -711.714417 177.882355
v 63.630783 -728.374817 177.882355
v 62.898712 -711.714417 177.215302
v 63.786919 -711.675415 177.215302
v 63.630783 -728.374817 177.215302
v 64.518990 -728.335815 177.215302
v 64.518990 -728.335815 177.882355
v -13.961596 -715.091736 177.882355
v -13.073389 -715.052734 177.882355
v -12.341314 -731.713135 177.882355
v -13.073389 -715.052734 177.215302
v -13.961596 -715.091736 177.215302
v -12.341314 -731.713135 177.215302
v -13.229521 -731.752136 177.215302
v -13.229521 -731.752136 177.882355
v 63.738113 -710.564697 205.676468
v -14.010401 -713.981079 205.676468
v -13.229521 -731.752136 205.676468
v 64.518990 -728.335815 205.676468
v -14.010401 -713.981079 203.452927
v 63.738113 -710.564697 203.452927
v -13.229521 -731.752136 203.452927
v 64.518990 -728.335815 203.452927
v 63.786919 -711.675415 203.452927
v 62.898712 -711.714417 203.452927
v 63.630783 -728.374817 203.452927
v 62.898712 -711.714417 202.785873
v 63.786919 -711.675415 202.785873
v 63.630783 -728.374817 202.785873
v 64.518990 -728.335815 202.785873
v 64.518990 -728.335815 203.452927
v -13.961596 -715.091736 203.452927
v -13.073389 -715.052734 203.452927
v -12.341314 -731.713135 203.452927
v -13.073389 -715.052734 202.785873
v -13.961596 -715.091736 202.785873
v -12.341314 -731.713135 202.785873
v -13.229521 -731.752136 202.785873
v -13.229521 -731.752136 203.452927
v 63.738113 -710.564697 231.247055
v -14.010401 -713.981079 231.247055
v -13.229521 -731.752136 231.247055
v 64.518990 -728.335815 231.247055
v -14.010401 -713.981079 229.023514
v 63.738113 -710.564697 229.023514
v -13.229521 -731.752136 229.023514
v 64.518990 -728.335815 229.023514
v 63.786919 -711.675415 229.023514
v 62.898712 -711.714417 229.023514
v 63.630783 -728.374817 229.023514
v 62.898712 -711.714417 228.356461
v 63.786919 -711.675415 228.356461
v 63.630783 -728.374817 228.356461
v 64.518990 -728.335815 228.356461
v 64.518990 -728.335815 229.023514
v -13.961596 -715.091736 229.023514
v -13.073389 -715.052734 229.023514
v -12.341314 -731.713135 229.023514
v -13.073389 -715.052734 228.356461
v -13.961596 -715.091736 228.356461
v -12.341314 -731.713135 228.356461
v -13.229521 -731.752136 228.356461
v -13.229521 -731.752136 229.023514
v 63.738113 -710.564697 256.817627
v -14.010401 -713.981079 256.817627
v -13.229521 -731.752136 256.817627
v 64.518990 -728.335815 256.817627
v -14.010401 -713.981079 254.594116
v 63.738113 -710.564697 254.594116
v -13.229521 -731.752136 254.594116
v 64.518990 -728.335815 254.594116
v 63.786919 -711.675415 254.594116
v 62.898712 -711.714417 254.594116
v 63.630783 -728.374817 254.594116
v 62.898712 -711.714417 253.927063
v 63.786919 -711.675415 253.927063
v 63.630783 -728.374817 253.927063
v 64.518990 -728.335815 253.927063
v 64.518990 -728.335815 254.594116
v -13.961596 -715.091736 254.594116
v -13.073389 -715.052734 254.594116
v -12.341314 -731.713135 254.594116
v -13.073389 -715.052734 253.927063
v -13.961596 -715.091736 253.927063
v -12.341314 -731.713135 253.927063
v -13.229521 -731.752136 253.927063
v -13.229521 -731.752136 254.594116
v 63.738113 -710.564697 128.964706
v -14.010401 -713.981079 128.964706
v -13.229521 -731.752136 128.964706
v 64.518990 -728.335754 128.964706
v -14.010401 -713.981079 126.741180
v 63.738113 -710.564697 126.741180
v -13.229521 -731.752136 126.741180
v 64.518990 -728.335754 126.741180
v 63.786919 -711.675415 126.741180
v 62.898712 -711.714417 126.741180
v 63.630783 -728.374817 126.741180
v 62.898712 -711.714417 126.074120
v 63.786919 -711.675415 126.074120
v 63.630783 -728.374817 126.074112
v 64.518990 -728.335754 126.074112
v 64.518990 -728.335754 126.741180
v -13.961596 -715.091736 126.741180
v -13.073389 -715.052734 126.741180
v -12.341314 -731.713135 126.741180
v -13.073389 -715.052734 126.074120
v -13.961596 -715.091736 126.074120
v -12.341314 -731.713135 126.074112
v -13.229521 -731.752136 126.074112
v -13.229521 -731.752136 126.741180
vn -0.5454 0.4995 -0.6731
vn -0.4622 -0.8480 -0.2592
vn -0.6709 -0.6467 -0.3629
vn -0.6616 0.6059 -0.4417
vn -0.3409 0.8904 0.3015
vn -0.3409 0.8904 -0.3015
vn 0.4995 0.5454 -0.6731
vn 0.5514 0.6021 -0.5774
vn -0.5514 -0.6021 -0.5774
vn -0.6021 0.5514 -0.5774
vn 0.5348 -0.8042 -0.2592
vn 0.6021 -0.5514 -0.5774
vn 0.2615 0.9169 0.3015
vn 0.2615 0.9169 -0.3015
vn -0.5514 -0.6021 0.5774
vn 0.6021 -0.5514 0.5774
vn 0.5514 0.6021 0.5774
vn -0.6021 0.5514 0.5774
vn 0.6059 0.6616 -0.4417
vn 0.7251 -0.5853 -0.3629
vn -0.0310 0.7064 0.7071
vn -0.0000 -0.0000 1.0000
vn -0.0310 0.7064 -0.7071
vn -0.0000 -0.0000 -1.0000
vn 0.0310 -0.7064 -0.7071
vn -0.6754 -0.7375 -0.0000
vn -0.7375 0.6754 -0.0000
vn -0.0439 0.9990 -0.0000
vn 0.0439 -0.9990 -0.0000
vn 0.7375 -0.6754 -0.0000
vn 0.6754 0.7375 -0.0000
vn -0.6021 0.5515 -0.5774
vn 0.5514 0.6021 -0.5773
vn 0.6021 -0.5514 -0.5773
vt 0.910724 0.606259
vt 0.989116 0.606259
vt 0.989116 0.611050
vt 0.906804 0.611050
vt 0.613938 0.966226
vt 0.011952 0.966226
vt 0.002153 0.946628
vt 0.658686 0.946628
vt 0.780069 0.657875
vt 0.780069 0.001334
vt 0.858462 0.001334
vt 0.858462 0.657875
vt 0.629727 0.657876
vt 0.629727 0.001334
vt 0.708120 0.001334
vt 0.708120 0.657876
vt 0.963978 0.953926
vt 0.944379 0.998674
vt 0.670004 0.998674
vt 0.650405 0.953926
vt 0.996659 0.003858
vt 0.996659 0.273693
vt 0.931128 0.273693
vt 0.931128 0.003858
vt 0.989116 0.618094
vt 0.989116 0.939504
vt 0.906804 0.939503
vt 0.906804 0.618094
vt 0.894966 0.935583
vt 0.894969 0.622013
vt 0.899760 0.618094
vt 0.899759 0.939503
vt 0.659539 0.991588
vt 0.003002 0.991588
vt 0.012801 0.971990
vt 0.614791 0.971990
vt 0.624644 0.577883
vt 0.003749 0.577882
vt 0.003750 0.281335
vt 0.624645 0.281336
vt 0.317517 0.663987
vt 0.003945 0.663987
vt 0.003945 0.585594
vt 0.317517 0.585594
vt 0.978444 0.278821
vt 0.985488 0.278821
vt 0.985489 0.600233
vt 0.978444 0.600233
vt 0.001331 0.001326
vt 0.603325 0.001326
vt 0.603325 0.275702
vt 0.001331 0.275702
vt 0.927665 0.002061
vt 0.927666 0.604056
vt 0.861032 0.604056
vt 0.861031 0.002061
vt 0.710782 0.603328
vt 0.710781 0.001333
vt 0.777415 0.001333
vt 0.777415 0.603328
vt 0.326807 0.589611
vt 0.601183 0.589611
vt 0.601183 0.656245
vt 0.326807 0.656245
vt 0.885170 0.641612
vt 0.885168 0.915984
vt 0.906804 0.946547
vt 0.989116 0.946548
vt 0.989116 0.951339
vt 0.910723 0.951339
vt 0.975689 0.282741
vt 0.975688 0.596312
vt 0.558477 0.878351
vt 0.832841 0.878351
vt 0.832841 0.941063
vt 0.558477 0.941063
vt 0.558477 0.870512
vt 0.558477 0.807800
vt 0.832841 0.807800
vt 0.832841 0.870512
vt 0.605985 0.062479
vt 0.605985 0.003686
vt 0.609120 0.003686
vt 0.609119 0.062479
vt 0.611471 0.003686
vt 0.611471 0.062479
vt 0.609119 0.064831
vt 0.605985 0.064831
vt 0.609120 0.001335
vt 0.605985 0.001335
vt 0.613685 0.138933
vt 0.616819 0.138933
vt 0.616819 0.197726
vt 0.613685 0.197726
vt 0.619171 0.197726
vt 0.619171 0.138933
vt 0.616819 0.136581
vt 0.613685 0.136581
vt 0.616819 0.200077
vt 0.613685 0.200077
vt 0.554922 0.731143
vt 0.280558 0.731143
vt 0.280558 0.668431
vt 0.554922 0.668431
vt 0.554922 0.738982
vt 0.554922 0.801694
vt 0.280558 0.801694
vt 0.280558 0.738982
vt 0.622273 0.062477
vt 0.622275 0.003684
vt 0.625409 0.003684
vt 0.625407 0.062477
vt 0.627761 0.003684
vt 0.627759 0.062477
vt 0.625408 0.064829
vt 0.622273 0.064829
vt 0.625409 0.001333
vt 0.622275 0.001332
vt 0.605571 0.207142
vt 0.608705 0.207142
vt 0.608705 0.265935
vt 0.605571 0.265935
vt 0.611057 0.265935
vt 0.611057 0.207142
vt 0.608705 0.204791
vt 0.605571 0.204791
vt 0.608705 0.268287
vt 0.605571 0.268287
vt 0.003015 0.875554
vt 0.277378 0.875554
vt 0.277378 0.938266
vt 0.003015 0.938266
vt 0.003015 0.867715
vt 0.003015 0.805003
vt 0.277378 0.805003
vt 0.277378 0.867715
vt 0.621345 0.591306
vt 0.621344 0.650098
vt 0.618210 0.650098
vt 0.618211 0.591306
vt 0.615858 0.650098
vt 0.615859 0.591306
vt 0.618211 0.588954
vt 0.621345 0.588954
vt 0.618210 0.652450
vt 0.621344 0.652450
vt 0.605988 0.071199
vt 0.609122 0.071199
vt 0.609122 0.129992
vt 0.605988 0.129992
vt 0.611474 0.129992
vt 0.611474 0.071199
vt 0.609122 0.068848
vt 0.605988 0.068848
vt 0.609122 0.132343
vt 0.605988 0.132343
vt 0.277373 0.731785
vt 0.003009 0.731785
vt 0.003009 0.669074
vt 0.277373 0.669074
vt 0.277373 0.739624
vt 0.277373 0.802336
vt 0.003009 0.802336
vt 0.003009 0.739625
vt 0.622271 0.129998
vt 0.622272 0.071206
vt 0.625406 0.071206
vt 0.625405 0.129999
vt 0.627758 0.071206
vt 0.627757 0.129998
vt 0.625406 0.132350
vt 0.622271 0.132350
vt 0.625406 0.068855
vt 0.622272 0.068855
vt 0.614131 0.003686
vt 0.617265 0.003686
vt 0.617265 0.062478
vt 0.614131 0.062478
vt 0.619617 0.062478
vt 0.619617 0.003686
vt 0.617265 0.001335
vt 0.614131 0.001335
vt 0.617265 0.064830
vt 0.614131 0.064830
vt 0.554918 0.868004
vt 0.280554 0.868004
vt 0.280554 0.805293
vt 0.554918 0.805293
vt 0.554918 0.875843
vt 0.554918 0.938555
vt 0.280554 0.938555
vt 0.280554 0.875843
vt 0.614132 0.129990
vt 0.614132 0.071198
vt 0.617267 0.071198
vt 0.617267 0.129990
vt 0.619618 0.071198
vt 0.619618 0.129990
vt 0.617267 0.132342
vt 0.614132 0.132342
vt 0.617267 0.068846
vt 0.614132 0.068846
vt 0.621835 0.138936
vt 0.624969 0.138936
vt 0.624969 0.197728
vt 0.621835 0.197728
vt 0.627321 0.197728
vt 0.627321 0.138936
vt 0.624969 0.136584
vt 0.621835 0.136584
vt 0.624969 0.200080
vt 0.621835 0.200080
vt 0.565751 0.740565
vt 0.840114 0.740565
vt 0.840114 0.803276
vt 0.565751 0.803276
vt 0.565751 0.732726
vt 0.565751 0.670014
vt 0.840114 0.670014
vt 0.840114 0.732725
vt 0.557912 0.670014
vt 0.557912 0.732726
vt 0.847953 0.732725
vt 0.847953 0.670014
vt 0.565751 0.662175
vt 0.840114 0.662175
vt 0.605446 0.198158
vt 0.605452 0.139365
vt 0.608586 0.139365
vt 0.608580 0.198158
vt 0.610938 0.139366
vt 0.610932 0.198158
vt 0.608580 0.200510
vt 0.605446 0.200509
vt 0.608587 0.137014
vt 0.605452 0.137013
vt 0.606732 0.591302
vt 0.609866 0.591302
vt 0.609866 0.650095
vt 0.606732 0.650095
vt 0.612218 0.650095
vt 0.612218 0.591302
vt 0.609866 0.588950
vt 0.606732 0.588950
vt 0.609866 0.652446
vt 0.606732 0.652446
s 1
usemtl Diffuse_shelf
f 24/15/7 23/16/8 30/17/9 32/18/10
f 14/19/11 13/20/12 21/21/13 12/22/14
f 11/23/15 23/24/8 24/25/7 10/26/16
f 12/27/14 21/28/13 22/29/17 9/30/18
f 10/31/16 16/32/19 14/33/11 12/34/14
f 15/35/20 13/36/12 18/37/16 17/38/14
f 29/39/21 25/40/22 28/41/23 31/42/24
f 21/43/13 24/44/7 32/45/10 27/46/25
f 10/47/16 24/48/7 15/49/20 16/50/19
f 9/51/18 22/52/17 23/53/8 11/54/15
f 9/55/18 11/56/15 10/57/16 12/58/14
f 26/59/26 25/60/22 29/61/21 30/62/9
f 19/63/23 17/64/14 18/65/16 20/66/24
f 16/67/19 15/68/20 17/69/14 19/70/23
f 13/71/12 14/72/11 20/73/24 18/74/16
f 14/75/11 16/76/19 19/77/23 20/78/24
f 15/79/20 24/44/7 21/43/13 13/80/12
f 32/45/10 31/42/24 28/41/23 27/46/25
f 27/81/25 28/41/23 25/40/22 26/82/26
f 22/83/17 21/84/13 27/81/25 26/82/26
f 30/17/9 29/39/21 31/42/24 32/18/10
f 22/85/17 26/59/26 30/62/9 23/86/8
f 33/87/27 34/88/27 35/89/28 36/90/28
f 38/91/29 40/92/30 39/93/30 37/94/29
f 33/87/27 38/91/29 37/94/29 34/88/27
f 45/95/29 47/96/31 46/97/15 44/98/16
f 43/99/32 42/100/33 44/98/16 46/97/15
f 42/101/33 41/102/34 45/95/29 44/98/16
f 43/103/32 46/97/15 47/96/31 48/104/35
f 53/105/29 52/106/14 54/107/18 55/108/31
f 51/109/36 54/107/18 52/106/14 50/110/37
f 50/111/37 52/106/14 53/105/29 49/112/34
f 51/113/36 56/114/35 55/108/31 54/107/18
f 57/115/27 58/116/27 59/117/28 60/118/28
f 62/119/29 64/120/30 63/121/30 61/122/29
f 57/115/27 62/119/29 61/122/29 58/116/27
f 69/123/29 71/124/31 70/125/15 68/126/38
f 67/127/32 66/128/33 68/126/38 70/125/15
f 66/129/33 65/130/34 69/123/29 68/126/38
f 67/131/32 70/125/15 71/124/31 72/132/35
f 77/133/29 76/134/39 78/135/40 79/136/31
f 75/137/36 78/135/40 76/134/39 74/138/37
f 74/139/37 76/134/39 77/133/29 73/140/34
f 75/141/36 80/142/35 79/136/31 78/135/40
f 81/143/27 82/144/27 83/145/28 84/146/28
f 86/147/29 88/148/30 87/149/30 85/150/29
f 81/143/27 86/147/29 85/150/29 82/144/27
f 93/151/29 95/152/31 94/153/15 92/154/16
f 91/155/32 90/156/33 92/154/16 94/153/15
f 90/157/33 89/158/34 93/151/29 92/154/16
f 91/159/32 94/153/15 95/152/31 96/160/35
f 101/161/29 100/162/39 102/163/40 103/164/31
f 99/165/36 102/163/40 100/162/39 98/166/37
f 98/167/37 100/162/39 101/161/29 97/168/34
f 99/169/36 104/170/35 103/164/31 102/163/40
f 105/171/27 106/172/27 107/173/28 108/174/28
f 110/175/29 112/176/30 111/177/30 109/178/29
f 105/171/27 110/175/29 109/178/29 106/172/27
f 117/179/29 119/180/31 118/181/15 116/182/16
f 115/183/32 114/184/33 116/182/16 118/181/15
f 114/185/33 113/186/34 117/179/29 116/182/16
f 115/187/32 118/181/15 119/180/31 120/188/35
f 125/189/29 124/190/14 126/191/18 127/192/31
f 123/193/36 126/191/18 124/190/14 122/194/37
f 122/195/37 124/190/14 125/189/29 121/196/34
f 123/197/36 128/198/35 127/192/31 126/191/18
f 129/199/27 130/200/27 131/201/28 132/202/28
f 134/203/29 136/204/30 135/205/30 133/206/29
f 129/199/27 134/203/29 133/206/29 130/200/27
f 141/207/29 143/208/31 142/209/15 140/210/16
f 139/211/32 138/212/33 140/210/16 142/209/15
f 138/213/33 137/214/34 141/207/29 140/210/16
f 139/215/32 142/209/15 143/208/31 144/216/35
f 149/217/29 148/218/14 150/219/18 151/220/31
f 147/221/36 150/219/18 148/218/14 146/222/37
f 146/223/37 148/218/14 149/217/29 145/224/34
f 147/225/36 152/226/35 151/220/31 150/219/18
f 153/227/23 154/228/24 155/229/21 156/230/22
f 158/231/14 160/232/18 159/233/15 157/234/16
f 153/227/23 158/231/14 157/234/16 154/228/24
f 156/235/22 160/232/18 158/231/14 153/236/23
f 154/237/24 157/234/16 159/233/15 155/238/21
f 156/239/22 155/240/21 159/233/15 160/232/18
f 165/241/29 167/242/31 166/243/15 164/244/16
f 163/245/32 162/246/33 164/244/16 166/243/15
f 162/247/33 161/248/34 165/241/29 164/244/16
f 163/249/32 166/243/15 167/242/31 168/250/35
f 173/251/29 172/252/14 174/253/18 175/254/31
f 171/255/36 174/253/18 172/252/14 170/256/37
f 170/257/37 172/252/14 173/251/29 169/258/34
f 171/259/36 176/260/35 175/254/31 174/253/18
o diffuse_chair_02
v -48.734509 -741.495667 85.368103
v -48.922462 -742.817444 85.308769
v -48.687485 -741.164978 78.848801
v -72.885620 -738.061462 85.368103
v -73.073570 -739.383240 85.308769
v -72.838593 -737.730774 78.848801
v -73.026550 -739.052490 78.789474
v -48.875439 -742.486755 78.789474
v -36.357391 -708.164429 86.416458
v -36.281162 -707.811829 85.378906
v -75.306747 -701.486694 86.388763
v -75.280693 -701.147095 85.369675
v -35.152031 -702.741394 86.136215
v -35.878860 -701.667480 86.088409
v -35.174145 -702.258911 86.112320
v -35.440186 -701.865845 86.094818
v -35.873241 -701.627625 85.269547
v -35.145992 -702.700500 85.286285
v -35.434532 -701.825989 85.271790
v -35.168343 -702.218689 85.277916
v -73.934120 -695.594360 86.088409
v -74.935638 -696.393005 86.135513
v -74.409607 -695.646912 86.094719
v -74.776192 -695.939209 86.111961
v -74.932800 -696.332764 85.285980
v -73.932068 -695.536621 85.269547
v -74.773720 -695.880066 85.277771
v -74.407433 -695.588684 85.271751
v -44.890869 -748.371033 133.083923
v -44.887238 -746.563538 123.582962
v -45.160267 -750.237793 132.702194
v -45.413490 -748.367920 133.460495
v -46.428970 -748.152344 133.083923
v -47.967068 -747.933594 133.083923
v -46.445572 -748.269043 133.714020
v -45.931477 -748.332153 133.661194
v -46.956879 -748.186340 133.661194
v -47.464294 -748.076294 133.460495
v -48.222305 -746.089294 123.582962
v -48.366028 -744.260864 114.082001
v -48.535599 -748.257324 123.157074
v -48.236465 -749.800415 132.702194
v -48.722569 -746.730225 113.611954
v -45.200523 -748.731567 123.157074
v -46.698364 -750.019104 132.702194
v -47.733688 -749.943054 133.078781
v -47.226273 -750.053162 133.279465
v -46.714966 -750.135864 133.332306
v -46.200874 -750.198975 133.279465
v -45.682884 -750.234680 133.078781
v -45.314472 -747.214844 113.611954
v -45.474457 -745.092712 99.532150
v -44.957932 -744.745483 114.082001
v -45.038414 -742.074585 100.106682
v -44.908844 -739.407471 85.994339
v -48.512886 -741.580505 100.106682
v -48.516075 -738.894531 85.994339
v -48.948929 -744.598633 99.532150
v -49.144512 -743.295593 85.591705
v -49.164852 -742.634033 71.035049
v -45.537285 -743.808533 85.591705
v -45.557617 -743.146973 71.035049
v -45.506653 -742.517700 56.967949
v -44.994991 -739.195007 71.294861
v -48.602219 -738.682068 71.294861
v -45.006435 -738.999939 57.089737
v -48.290070 -738.533020 57.089737
v -44.983162 -738.836243 44.829769
v -45.292542 -739.065369 44.555805
v -45.430096 -741.979309 44.829762
v -48.063896 -738.398193 44.829769
v -47.826107 -738.705078 44.555805
v -48.510876 -741.541260 44.829762
v -48.194672 -741.296997 44.555801
v -48.790283 -742.050781 56.967949
v -45.661106 -741.657288 44.555801
v -78.947510 -745.433350 132.702194
v -78.488968 -743.998047 123.157074
v -78.444733 -745.576050 133.078781
v -78.685852 -743.565491 133.083923
v -77.409409 -745.652100 132.702194
v -75.871315 -745.870789 132.702194
v -77.937317 -745.686096 133.279465
v -77.426010 -745.768799 133.332306
v -76.911919 -745.831909 133.279465
v -76.393936 -745.867676 133.078781
v -75.153893 -744.472290 123.157074
v -74.548645 -743.057800 113.611954
v -74.850418 -742.302856 123.582962
v -74.202705 -740.586975 114.082001
v -75.609650 -744.002930 133.083923
v -78.185486 -741.828613 123.582962
v -77.147751 -743.784180 133.083923
v -76.132271 -743.999756 133.460495
v -76.650261 -743.964050 133.661194
v -77.164352 -743.900940 133.714020
v -77.675659 -743.818237 133.661194
v -78.183075 -743.708130 133.460495
v -77.610794 -740.102356 114.082001
v -76.788971 -737.559753 100.106682
v -77.956741 -742.573181 113.611954
v -77.211548 -740.579773 99.532150
v -76.793236 -739.364014 85.591705
v -73.737068 -741.073853 99.532150
v -73.186005 -739.876953 85.591705
v -73.314499 -738.053772 100.106682
v -72.562698 -735.475159 85.994339
v -76.169922 -734.962219 85.994339
v -72.420746 -735.295166 71.294861
v -76.027969 -734.782227 71.294861
v -72.982056 -739.247314 71.035049
v -72.678970 -735.065002 57.089737
v -75.962601 -734.598022 57.089737
v -73.179184 -738.582703 56.967949
v -72.858597 -734.872437 44.829769
v -73.172508 -735.100891 44.555805
v -73.305481 -738.015503 44.829762
v -75.939331 -734.434387 44.829769
v -75.706070 -734.740601 44.555805
v -76.386261 -737.577454 44.829762
v -76.074631 -737.332581 44.555801
v -76.462814 -738.115784 56.967949
v -76.589287 -738.734375 71.035049
v -73.541069 -737.692810 44.555801
v -40.282764 -705.630005 85.421356
v -39.631485 -701.049866 85.153168
v -36.615578 -706.151489 85.421356
v -40.518173 -705.884399 75.230270
v -40.753586 -706.138733 65.039177
v -37.080475 -706.373169 75.230270
v -39.913094 -701.636230 75.029129
v -40.194702 -702.222656 64.905083
v -36.475391 -702.125061 75.029129
v -35.964294 -701.571350 85.153168
v -36.994141 -702.677734 64.905083
v -37.482288 -703.234741 54.781044
v -37.553024 -706.593811 65.039177
v -37.994980 -706.818787 54.848091
v -40.988998 -706.393066 54.848091
v -38.297596 -707.055847 44.930862
v -38.538689 -706.752502 44.657005
v -37.833683 -703.794250 44.930855
v -41.202290 -706.642822 44.930862
v -40.898285 -706.416931 44.657005
v -40.738392 -703.381226 44.930855
v -40.512939 -703.707031 44.657005
v -40.476311 -702.809021 54.781044
v -38.153347 -704.042542 44.657005
v -71.196915 -701.234131 85.421356
v -70.545624 -696.653992 85.153168
v -74.864105 -700.712646 85.421356
v -71.041733 -701.544006 75.230270
v -70.886551 -701.853882 65.039177
v -74.479431 -701.055176 75.230270
v -70.438637 -697.295593 75.029129
v -70.331650 -697.937256 64.905083
v -73.876343 -696.806763 75.029129
v -74.212822 -696.132507 85.153168
v -73.532211 -697.482117 64.905083
v -73.218681 -698.153137 54.781044
v -74.087112 -701.398804 65.039177
v -73.725395 -701.738037 54.848091
v -70.731369 -702.163757 54.848091
v -73.500847 -702.050049 44.930862
v -73.184753 -701.825928 44.657005
v -73.037186 -698.788452 44.930855
v -70.596153 -702.463074 44.930862
v -70.825157 -702.161438 44.657005
v -70.132477 -699.201477 44.930855
v -70.439812 -699.451538 44.657005
v -70.224663 -698.578857 54.781044
v -72.799408 -699.115967 44.657005
v -38.635117 -705.920837 78.792244
v -37.363373 -706.229431 78.769943
v -46.673744 -738.977844 78.848801
v -38.492088 -705.756104 85.221161
v -37.220352 -706.064697 85.198860
v -46.556515 -738.994507 85.277725
v -45.284775 -739.303101 85.255424
v -45.402004 -739.286438 78.826508
v -72.865112 -701.011169 78.792076
v -74.172462 -700.953003 78.769775
v -74.356918 -735.041382 78.848801
v -72.941002 -700.763062 85.220993
v -74.248352 -700.704895 85.198700
v -74.465881 -735.025879 85.277725
v -75.773232 -734.967773 85.255424
v -75.664261 -734.983215 78.826508
v -48.566612 -742.242554 101.296921
v -48.781647 -743.754822 101.006836
v -48.498123 -741.760925 98.735336
v -73.458763 -738.703003 101.296921
v -73.673798 -740.215210 101.006836
v -73.390274 -738.221313 98.735336
v -73.605301 -739.733582 98.445251
v -48.713158 -743.273132 98.445251
v -48.031078 -748.125366 131.566376
v -48.246109 -749.637573 131.276276
v -48.235294 -747.220886 127.002686
v -54.798927 -747.163025 131.566376
v -54.843044 -746.281250 127.002686
v -55.013962 -748.675232 131.276276
v -54.822269 -747.327148 132.439377
v -61.091568 -746.268188 131.566376
v -61.822010 -746.164368 131.566376
v -61.150230 -746.677429 133.743164
v -60.969322 -745.410156 127.002686
v -61.699989 -745.306213 127.002686
v -61.184357 -746.922363 126.712601
v -61.915024 -746.818481 126.712601
v -61.306599 -747.780457 131.276276
v -55.058079 -747.793518 126.712601
v -48.450325 -748.733093 126.712601
v -62.037045 -747.676575 131.276276
v -61.365265 -748.189636 133.453064
v -62.096920 -748.097656 133.515717
v -55.037304 -748.839355 132.149292
v -62.825226 -747.982056 133.453064
v -61.881886 -746.585449 133.805801
v -62.610191 -746.469849 133.743164
v -62.552452 -746.060486 131.566376
v -68.868439 -745.329834 132.439377
v -69.083466 -746.842041 132.149292
v -68.845093 -745.165649 131.566376
v -75.612946 -744.203308 131.566376
v -68.556938 -744.331177 127.002686
v -69.060127 -746.677917 131.276276
v -75.827980 -745.715515 131.276276
v -68.771973 -745.843445 126.712601
v -62.767487 -747.572693 131.276276
v -62.645691 -746.714539 126.712601
v -62.430656 -745.202332 127.002686
v -75.379723 -744.903809 126.712601
v -75.164688 -743.391602 127.002686
v -54.697079 -747.146362 126.911545
v -54.595963 -746.435242 127.046310
v -54.016472 -742.359985 101.143730
v -56.356945 -746.910339 126.911545
v -56.255829 -746.199219 127.046310
v -55.676338 -742.123962 101.143730
v -55.575218 -741.412842 101.278511
v -53.915356 -741.648865 101.278511
v -68.938263 -745.121277 126.911545
v -68.837143 -744.410217 127.046310
v -68.257660 -740.334961 101.143730
v -67.278397 -745.357361 126.911545
v -67.177284 -744.646240 127.046310
v -66.597794 -740.570984 101.143730
v -66.496674 -739.859863 101.278511
v -68.156540 -739.623840 101.278511
v -64.760620 -745.029663 127.034172
v -58.675873 -745.894897 127.034172
v -64.897636 -745.993225 126.860054
v -64.678352 -744.451111 123.767715
v -64.815819 -744.371826 123.437050
v -58.593601 -745.316345 123.767715
v -64.815361 -745.414673 123.593590
v -64.952835 -745.335327 123.262924
v -58.730618 -746.279907 123.593590
v -58.576492 -746.242065 123.262924
v -58.812889 -746.858459 126.860054
v -58.439476 -745.278503 123.437050
v -58.064213 -746.223572 122.757729
v -65.439667 -745.174805 122.757729
v -57.927197 -745.260071 122.931847
v -57.702667 -746.152649 122.080482
v -57.403404 -746.023926 121.132637
v -65.767090 -745.005859 122.080482
v -57.565655 -745.189087 122.254585
v -57.266392 -745.060364 121.306763
v -65.630081 -744.042358 122.254585
v -65.881592 -743.835266 121.306763
v -65.302650 -744.211304 122.931847
v -66.018608 -744.798828 121.132637
v -65.938408 -743.657104 120.365532
v -65.844543 -743.453125 119.162743
v -57.162167 -744.905090 120.365532
v -66.075417 -744.620667 120.191414
v -57.299179 -745.868652 120.191414
v -65.981560 -744.416687 118.988625
v -57.332455 -745.646545 118.988625
v -65.719612 -744.236267 117.784142
v -65.432434 -744.059631 116.580856
v -65.582596 -743.272705 117.958275
v -57.533726 -745.400269 117.784142
v -57.760292 -745.150635 116.580856
v -57.396713 -744.436707 117.958275
v -57.623280 -744.187073 116.754974
v -57.195438 -744.682983 119.162743
v -65.295418 -743.096130 116.754974
v -57.955929 -743.859741 115.205208
v -58.196617 -743.569580 113.789017
v -64.884697 -742.874451 115.205208
v -58.092945 -744.823242 115.031097
v -58.333633 -744.533142 113.614899
v -65.021713 -743.838013 115.031097
v -64.709686 -743.626465 113.614899
v -64.572678 -742.662903 113.789017
v -64.388222 -743.368286 111.933151
v -64.249931 -743.154785 110.642906
v -64.251213 -742.404724 112.107277
v -58.570381 -744.195557 111.933151
v -58.643677 -743.951965 110.642906
v -58.433369 -743.231995 112.107277
v -58.506664 -742.988403 110.817024
v -64.112915 -742.191223 110.817024
v -58.487637 -742.695740 109.182365
v -58.446335 -742.296326 106.939468
v -64.049606 -741.904846 109.182365
v -58.624649 -743.659302 109.008263
v -58.583347 -743.259827 106.765350
v -64.186615 -742.868408 109.008263
v -64.114937 -742.473267 106.765350
v -63.977924 -741.509705 106.939468
v -63.968239 -741.441589 100.940857
v -63.831226 -740.478088 101.114975
v -58.436646 -742.228149 100.940857
v -58.299633 -741.264648 101.114975
v -39.695145 -702.214478 85.004036
v -39.882889 -703.534851 85.090042
v -39.749809 -702.598938 78.982323
v -70.616753 -697.817566 85.004036
v -70.804504 -699.137878 85.090042
v -70.671425 -698.202026 78.982323
v -70.859169 -699.522339 79.068329
v -39.937561 -703.919312 79.068329
v -39.776535 -702.786926 76.038391
v -39.964287 -704.107239 76.124397
v -39.792587 -702.899780 74.270401
v -70.698151 -698.389954 76.038391
v -70.885895 -699.710266 76.124397
v -70.714195 -698.502808 74.270401
v -70.901947 -699.823181 74.356407
v -39.980335 -704.220093 74.356407
v -38.713585 -705.630127 73.269806
v -37.442001 -705.938660 73.247513
v -46.800163 -738.959839 73.326538
v -38.687027 -705.633911 74.836647
v -37.415447 -705.942444 74.814354
v -46.773609 -738.963623 74.893372
v -45.502029 -739.272217 74.871078
v -45.528587 -739.268433 73.304237
v -72.705612 -700.796570 73.269806
v -74.012794 -700.738403 73.247513
v -74.230484 -735.059326 73.326538
v -72.732170 -700.792786 74.836647
v -74.039360 -700.734619 74.814354
v -74.257050 -735.055542 74.893372
v -75.564232 -734.997437 74.871078
v -75.537674 -735.001221 73.304237
v -41.656982 -732.052063 86.283356
v -77.160583 -726.887878 86.283356
v -41.646538 -732.001221 85.257645
v -43.141647 -738.678650 86.452484
v -44.725605 -739.498474 86.478317
v -43.109097 -738.530212 85.369232
v -77.650230 -733.770996 86.452827
v -76.335464 -735.004028 86.478317
v -77.638657 -733.616882 85.369385
v -76.323601 -734.848877 85.386520
v -77.156059 -726.835815 85.256989
v -44.692978 -739.348755 85.386520
v -41.639629 -731.930054 86.283356
v -40.455032 -726.671387 86.283356
v -77.143890 -726.770508 86.283356
v -41.629482 -731.881287 85.257645
v -40.433685 -726.573364 85.379395
v -77.139664 -726.720520 85.256989
v -76.727119 -720.832642 85.370995
v -76.734070 -720.922241 86.283356
v -40.440189 -726.567078 86.283356
v -38.968060 -719.930969 86.270882
v -76.715729 -720.793213 86.283356
v -40.418243 -726.464783 85.379395
v -38.989944 -720.023010 85.233063
v -76.708237 -720.699890 85.370995
v -76.224205 -714.077026 85.234848
v -76.219513 -713.994934 86.261932
v -38.951759 -719.816345 86.270882
v -37.711864 -714.301758 86.112228
v -76.206390 -713.902649 86.261932
v -38.973175 -719.905029 85.233063
v -37.670410 -714.108337 85.277496
v -76.210670 -713.981873 85.234848
v -75.800423 -708.164490 85.278717
v -75.816429 -708.366516 86.115891
v -37.684410 -714.108704 86.112228
v -36.367401 -708.234802 86.416458
v -75.788399 -708.169434 86.115891
v -37.642738 -713.913696 85.277496
v -36.292587 -707.892212 85.378906
v -75.772171 -707.965820 85.278717
v -75.296494 -701.258240 85.369675
v -75.321205 -701.588379 86.388763
v -49.167286 -743.405823 86.622009
v -49.138268 -743.252991 85.530212
v -48.553860 -738.974487 86.427048
v -73.159363 -739.994202 86.622009
v -72.513199 -735.567505 86.427048
v -73.144638 -739.839355 85.530212
v -72.507759 -735.515564 85.400681
v -48.544601 -738.923035 85.400681
v -48.664120 -741.000610 74.871078
v -48.852074 -742.322388 74.811752
v -48.653046 -740.922791 73.326538
v -72.815231 -737.566406 74.871078
v -73.003181 -738.888184 74.811752
v -72.804153 -737.488525 73.326538
v -72.992111 -738.810303 73.267204
v -48.841000 -742.244568 73.267204
vn -0.4947 0.6248 0.6041
vn -0.6563 -0.5172 0.5493
vn 0.4862 -0.6797 0.5493
vn 0.6492 0.4621 0.6041
vn 0.4947 -0.6248 -0.6041
vn 0.6563 0.5172 -0.5493
vn -0.4862 0.6797 -0.5493
vn -0.6492 -0.4621 -0.6041
vn 0.2155 0.7151 -0.6650
vn 0.0172 0.7503 -0.6609
vn 0.0219 0.7294 0.6838
vn 0.2073 0.7034 0.6799
vn 0.4187 -0.7555 0.5039
vn 0.4952 -0.5786 -0.6481
vn 0.7320 -0.0711 -0.6776
vn 0.7345 -0.0356 0.6777
vn -0.7238 0.1442 -0.6747
vn -0.6272 0.4466 -0.6381
vn -0.2957 0.7169 -0.6313
vn -0.6473 -0.3989 -0.6495
vn -0.6339 -0.5840 0.5071
vn -0.7115 0.1752 0.6805
vn 0.7253 0.2387 -0.6457
vn 0.7159 0.2563 0.6495
vn 0.4952 0.5863 -0.6411
vn 0.4822 0.5880 0.6494
vn -0.2785 0.7004 0.6572
vn -0.6068 0.4501 0.6551
vn 0.7774 0.4332 0.4561
vn 0.7995 0.5906 0.1099
vn 0.1384 0.9730 0.1845
vn 0.6069 -0.7601 0.2323
vn 0.6024 -0.7876 -0.1296
vn 0.4309 0.4876 0.7593
vn 0.2393 -0.8316 0.5012
vn -0.6062 0.6326 0.4821
vn -0.2773 0.5892 0.7589
vn -0.6031 0.7807 0.1636
vn 0.0751 0.5273 0.8463
vn -0.0989 0.5484 0.8303
vn 0.2482 0.4987 0.8305
vn -0.7996 -0.5958 -0.0756
vn -0.6022 0.7826 0.1581
vn -0.7999 -0.5949 -0.0783
vn 0.7986 0.5921 0.1080
vn -0.7785 -0.5724 0.2573
vn -0.1388 -0.9758 -0.1689
vn 0.6022 -0.7879 -0.1290
vn -0.4621 -0.7312 0.5018
vn -0.2848 -0.7693 0.5719
vn -0.1143 -0.8032 0.5846
vn 0.0587 -0.8184 0.5716
vn 0.6064 -0.7888 -0.1006
vn 0.7974 0.5926 0.1140
vn -0.8054 -0.5897 -0.0598
vn -0.6028 0.7831 0.1529
vn 0.6053 -0.7940 -0.0565
vn 0.7823 0.6196 0.0643
vn -0.5820 0.8089 0.0833
vn -0.8056 -0.5915 -0.0348
vn -0.6039 0.7970 0.0054
vn -0.8022 -0.5960 -0.0361
vn 0.5999 -0.7993 -0.0354
vn 0.7991 0.6012 0.0058
vn 0.6003 -0.7991 -0.0326
vn 0.7993 0.6008 0.0086
vn -0.7989 -0.5998 -0.0448
vn -0.5997 0.8002 -0.0036
vn 0.7362 0.5558 -0.3861
vn -0.5481 0.7386 -0.3926
vn 0.5544 -0.7250 -0.4087
vn 0.3395 0.2579 -0.9046
vn -0.2504 0.3422 -0.9056
vn 0.2574 -0.3300 -0.9082
vn -0.3356 -0.2461 -0.9093
vn -0.7305 -0.5422 -0.4153
vn -0.7947 -0.5608 0.2323
vn -0.7981 -0.5884 -0.1296
vn -0.6258 0.6327 0.4561
vn -0.6031 0.7900 0.1099
vn -0.4617 -0.7319 0.5012
vn -0.2779 0.5884 0.7593
vn 0.6018 -0.7950 -0.0756
vn 0.5881 -0.7668 0.2573
vn 0.2399 -0.8311 0.5018
vn -0.2845 -0.7696 0.5716
vn -0.1141 -0.8032 0.5846
vn 0.0590 -0.8182 0.5719
vn 0.7968 0.5817 0.1636
vn 0.7585 0.4385 0.4821
vn -0.7979 -0.5888 -0.1290
vn 0.6024 -0.7944 -0.0783
vn 0.7964 0.5837 0.1581
vn -0.6019 0.7913 0.1080
vn 0.4305 0.4885 0.7589
vn 0.2479 0.4991 0.8303
vn 0.0749 0.5274 0.8463
vn -0.0993 0.5481 0.8305
vn -0.6006 0.7914 0.1140
vn -0.8023 -0.5884 -0.1006
vn 0.7972 0.5840 0.1529
vn 0.6091 -0.7909 -0.0598
vn -0.5786 0.8131 0.0643
vn -0.8026 -0.5938 -0.0565
vn 0.6087 -0.7926 -0.0348
vn 0.7844 0.6146 0.0833
vn 0.8022 0.5971 0.0054
vn -0.5998 0.8001 0.0058
vn 0.6043 -0.7960 -0.0361
vn 0.7990 0.6013 -0.0036
vn -0.6002 0.7998 0.0086
vn 0.6001 -0.7987 -0.0448
vn 0.7322 0.5565 -0.3926
vn -0.5521 0.7390 -0.3861
vn 0.5504 -0.7243 -0.4153
vn 0.3359 0.2589 -0.9056
vn -0.2541 0.3423 -0.9046
vn 0.2537 -0.3299 -0.9093
vn -0.3392 -0.2451 -0.9082
vn -0.7345 -0.5417 -0.4087
vn -0.7992 -0.6001 -0.0326
vn -0.7990 -0.6003 -0.0354
vn -0.6420 -0.4679 0.6074
vn -0.4792 0.6864 0.5470
vn -0.6005 0.7991 -0.0296
vn -0.7996 -0.5996 0.0334
vn 0.5054 -0.6285 0.5913
vn 0.6700 0.5188 0.5310
vn 0.5995 -0.8003 -0.0102
vn 0.5992 -0.8006 -0.0094
vn 0.7985 0.5975 -0.0732
vn 0.7981 0.5982 -0.0724
vn 0.5983 -0.8013 -0.0038
vn 0.7974 0.5998 -0.0670
vn -0.6007 0.7989 -0.0300
vn -0.7997 -0.5995 0.0329
vn -0.7409 -0.5582 -0.3735
vn 0.5450 -0.7418 -0.3908
vn 0.7274 0.5382 -0.4256
vn -0.3434 -0.2601 -0.9025
vn 0.2473 -0.3453 -0.9053
vn 0.3332 0.2431 -0.9110
vn -0.5594 0.7217 -0.4077
vn -0.2623 0.3267 -0.9080
vn 0.4861 -0.6283 0.6074
vn 0.6007 -0.7988 0.0334
vn 0.7994 0.6000 -0.0296
vn 0.6515 0.5256 0.5470
vn -0.4988 0.6850 0.5310
vn -0.6605 -0.4627 0.5913
vn -0.7988 -0.6015 -0.0102
vn -0.7986 -0.6018 -0.0094
vn -0.6003 0.7964 -0.0732
vn -0.5997 0.7969 -0.0724
vn -0.5986 0.7983 -0.0670
vn -0.7979 -0.6027 -0.0038
vn 0.7996 0.5998 -0.0300
vn 0.6008 -0.7987 0.0329
vn 0.5559 -0.7426 -0.3735
vn -0.7302 -0.5604 -0.3908
vn -0.5486 0.7197 -0.4256
vn -0.3338 -0.2627 -0.9053
vn 0.2573 -0.3455 -0.9025
vn -0.2523 0.3264 -0.9110
vn 0.3430 0.2406 -0.9080
vn 0.7384 0.5372 -0.4077
vn -0.4119 0.7039 0.5787
vn 0.7074 0.4329 0.5588
vn 0.6868 0.4168 -0.5955
vn -0.4380 0.6905 -0.5757
vn 0.4147 -0.6961 -0.5860
vn -0.7071 -0.4232 -0.5666
vn -0.6873 -0.4265 0.5879
vn 0.4348 -0.6983 0.5686
vn 0.5921 0.5635 0.5762
vn 0.6128 0.5387 -0.5781
vn -0.5445 0.5891 -0.5971
vn -0.5575 0.6154 0.5571
vn 0.5606 -0.6034 -0.5671
vn -0.5928 -0.5529 -0.5856
vn 0.5416 -0.6013 0.5874
vn -0.6117 -0.5495 0.5690
vn -0.5069 0.5362 0.6749
vn -0.6666 -0.5869 0.4595
vn 0.4766 -0.7495 0.4595
vn 0.6363 0.3736 0.6749
vn 0.5069 -0.5362 -0.6749
vn 0.6666 0.5869 -0.4595
vn -0.4766 0.7495 -0.4595
vn -0.6363 -0.3736 -0.6749
vn 0.4157 0.7817 0.4650
vn 0.1655 -0.9779 0.1274
vn 0.4993 -0.7455 0.4414
vn 0.6580 0.3705 0.6555
vn 0.4844 -0.5334 -0.6934
vn 0.6452 0.5972 -0.4766
vn 0.1164 0.8184 -0.5628
vn 0.1383 0.9727 0.1866
vn 0.6890 0.3904 0.6107
vn 0.5261 -0.7553 0.3909
vn 0.1810 0.5286 0.8294
vn 0.0761 0.5354 0.8412
vn -0.0792 -0.5572 -0.8266
vn -0.1383 -0.9727 -0.1866
vn -0.0109 -0.8213 0.5704
vn -0.1142 -0.8034 0.5844
vn -0.2184 -0.7918 0.5704
vn -0.0265 0.5581 0.8294
vn -0.1813 0.8665 0.4650
vn -0.5528 0.5670 0.6107
vn -0.7157 -0.5787 0.3909
vn -0.4315 -0.8930 0.1274
vn -0.5286 0.5393 0.6555
vn -0.6873 -0.5768 0.4414
vn -0.4532 0.7534 -0.4766
vn -0.6139 -0.3772 -0.6934
vn -0.6665 -0.5859 0.4610
vn 0.4767 -0.7485 0.4610
vn 0.6365 0.3751 0.6739
vn -0.5067 0.5377 0.6739
vn 0.5067 -0.5377 -0.6739
vn 0.6665 0.5859 -0.4610
vn -0.6365 -0.3751 -0.6739
vn -0.4767 0.7485 -0.4610
vn -0.5059 0.5433 0.6700
vn 0.6373 0.3807 0.6700
vn 0.7354 0.6235 0.2653
vn -0.5324 0.8038 0.2653
vn -0.6659 -0.5821 0.4666
vn 0.4773 -0.7446 0.4666
vn -0.7421 -0.6703 -0.0011
vn -0.4474 0.7436 0.4970
vn -0.6553 -0.7186 0.2327
vn 0.6369 0.5894 0.4970
vn 0.5258 -0.8506 -0.0011
vn 0.4290 -0.8728 0.2327
vn -0.6982 -0.6476 0.3053
vn 0.4900 -0.8165 0.3053
vn 0.6768 0.4974 0.5427
vn -0.7715 -0.6204 0.1410
vn 0.5680 -0.8109 0.1410
vn 0.7583 0.5276 0.3829
vn 0.6103 -0.7921 0.0097
vn 0.8003 0.5444 0.2512
vn -0.8069 -0.5906 0.0097
vn -0.6169 0.7459 0.2512
vn -0.5812 0.7181 0.3829
vn -0.5114 0.6663 0.5427
vn 0.8102 0.5707 0.1334
vn -0.6190 0.7740 0.1334
vn -0.8108 -0.5748 -0.1104
vn -0.6114 0.7905 0.0363
vn -0.8032 -0.5584 -0.2074
vn 0.8075 0.5888 0.0363
vn 0.6184 -0.7780 -0.1104
vn 0.6157 -0.7602 -0.2074
vn -0.7826 -0.5646 -0.2622
vn 0.5942 -0.7603 -0.2622
vn -0.5873 0.8093 -0.0139
vn -0.7794 -0.5617 -0.2776
vn 0.5919 -0.7567 -0.2776
vn -0.5842 0.8111 -0.0296
vn 0.7896 0.6135 -0.0139
vn 0.7871 0.6161 -0.0296
vn 0.7819 0.6230 -0.0207
vn -0.5772 0.8163 -0.0207
vn 0.5846 -0.7646 -0.2714
vn 0.5906 -0.7681 -0.2475
vn 0.7875 0.6164 0.0027
vn -0.5844 0.8114 0.0027
vn -0.7746 -0.5713 -0.2714
vn -0.7813 -0.5730 -0.2475
vn -0.7827 -0.5859 -0.2101
vn 0.5883 -0.7809 -0.2101
vn -0.5841 0.8106 0.0423
vn -0.7898 -0.5925 -0.1585
vn 0.5933 -0.7892 -0.1585
vn -0.5917 0.8008 0.0933
vn 0.7869 0.6156 0.0423
vn 0.7914 0.6041 0.0933
vn 0.7976 0.5917 0.1176
vn -0.6010 0.7905 0.1176
vn 0.6014 -0.7881 -0.1317
vn 0.6013 -0.7889 -0.1270
vn 0.7975 0.5908 0.1223
vn -0.6012 0.7897 0.1223
vn -0.7972 -0.5892 -0.1317
vn -0.7973 -0.5900 -0.1270
vn -0.6373 -0.3807 -0.6700
vn 0.5059 -0.5433 -0.6700
vn -0.4773 0.7446 -0.4667
vn 0.6659 0.5821 -0.4667
vn -0.4853 0.6885 0.5390
vn -0.6475 -0.4524 0.6133
vn 0.4957 -0.6149 0.6133
vn 0.6579 0.5259 0.5390
vn 0.4853 -0.6885 -0.5390
vn 0.6475 0.4524 -0.6133
vn -0.4957 0.6149 -0.6133
vn -0.6579 -0.5259 -0.5390
vn -0.4151 0.6958 0.5861
vn 0.7069 0.4236 0.5665
vn 0.6873 0.4263 -0.5881
vn -0.4346 0.6986 -0.5684
vn 0.4151 -0.6958 -0.5861
vn -0.7069 -0.4236 -0.5665
vn -0.6873 -0.4263 0.5881
vn 0.4346 -0.6986 0.5684
vn 0.5926 0.5525 0.5861
vn 0.6122 0.5497 -0.5684
vn -0.5412 0.6010 -0.5881
vn -0.5608 0.6038 0.5665
vn 0.5608 -0.6038 -0.5665
vn -0.5926 -0.5525 -0.5861
vn 0.5412 -0.6010 0.5881
vn -0.6122 -0.5497 0.5684
vn 0.6770 0.4539 0.5794
vn -0.5188 0.6285 0.5795
vn -0.7365 -0.3087 0.6019
vn 0.6201 -0.5009 0.6039
vn 0.6735 0.4769 -0.5648
vn -0.5088 0.6496 -0.5649
vn 0.6202 -0.4528 -0.6405
vn 0.1290 -0.7859 0.6048
vn 0.1262 -0.7161 -0.6865
vn -0.3406 -0.7198 0.6049
vn -0.7229 -0.2605 -0.6399
vn -0.3180 -0.6528 -0.6876
vn 0.4560 -0.6845 0.5688
vn 0.4658 -0.6499 -0.6006
vn 0.6794 0.4980 -0.5389
vn 0.6781 0.4243 0.6002
vn -0.5181 0.6086 0.6010
vn -0.6327 -0.5257 0.5686
vn -0.6329 -0.4892 -0.6001
vn -0.5032 0.6775 -0.5364
vn 0.4448 -0.7046 0.5529
vn 0.4720 -0.6460 -0.5999
vn 0.6746 0.4265 -0.6026
vn 0.6770 0.4886 0.5504
vn -0.5039 0.6683 0.5472
vn -0.6369 -0.5368 0.5533
vn -0.6397 -0.4771 -0.6026
vn -0.5142 0.6102 -0.6027
vn 0.4680 -0.6409 0.6085
vn 0.4460 -0.6960 -0.5627
vn 0.6802 0.5331 -0.5031
vn 0.6783 0.3878 0.6241
vn -0.5340 0.5709 0.6237
vn -0.6354 -0.4726 0.6106
vn -0.6353 -0.5285 -0.5631
vn -0.4913 0.7116 -0.5022
vn 0.4357 -0.7498 0.4980
vn 0.4846 -0.5955 -0.6407
vn 0.6830 0.5542 -0.4758
vn 0.6719 0.3326 0.6617
vn -0.5357 0.5246 0.6617
vn -0.6345 -0.5888 0.5007
vn -0.6401 -0.4246 -0.6403
vn -0.4833 0.7382 -0.4706
vn -0.6599 -0.4493 -0.6021
vn 0.5085 -0.6155 -0.6021
vn 0.4765 -0.6833 0.5532
vn -0.6481 -0.5234 0.5532
vn 0.6498 0.5005 -0.5721
vn 0.6550 0.4862 0.5785
vn -0.4935 0.6495 0.5785
vn -0.4845 0.6618 -0.5721
vn -0.4946 0.6249 0.6040
vn -0.6563 -0.5171 0.5494
vn 0.4862 -0.6796 0.5494
vn 0.6492 0.4622 0.6040
vn 0.4946 -0.6249 -0.6040
vn 0.6563 0.5171 -0.5494
vn -0.4862 0.6796 -0.5494
vn -0.6492 -0.4622 -0.6040
vt 0.260220 0.704599
vt 0.271953 0.704599
vt 0.271953 0.918768
vt 0.260220 0.918768
vt 0.986617 0.063677
vt 0.998350 0.063597
vt 0.998350 0.120909
vt 0.986617 0.120989
vt 0.340998 0.918768
vt 0.340998 0.704599
vt 0.398309 0.704599
vt 0.398309 0.918768
vt 0.998345 0.058955
vt 0.986612 0.058876
vt 0.986612 0.001564
vt 0.998345 0.001644
vt 0.329265 0.918768
vt 0.329265 0.704599
vt 0.992174 0.420907
vt 0.993080 0.758638
vt 0.985887 0.758596
vt 0.984992 0.420920
vt 0.979222 0.359856
vt 0.988460 0.362552
vt 0.991593 0.408322
vt 0.984138 0.408339
vt 0.454208 0.430860
vt 0.445854 0.423392
vt 0.449999 0.424098
vt 0.453057 0.426831
vt 0.988400 0.813226
vt 0.979269 0.815523
vt 0.984886 0.771069
vt 0.992349 0.771109
vt 0.792598 0.365439
vt 0.792598 0.712102
vt 0.782975 0.711966
vt 0.783187 0.365717
vt 0.991877 0.412539
vt 0.984559 0.412554
vt 0.992089 0.416690
vt 0.984870 0.416704
vt 0.992993 0.762828
vt 0.985764 0.762786
vt 0.992728 0.766921
vt 0.985400 0.766881
vt 0.738596 0.361351
vt 0.730202 0.368812
vt 0.731364 0.364784
vt 0.734436 0.362054
vt 0.730155 0.713407
vt 0.727152 0.710525
vt 0.726090 0.706443
vt 0.734294 0.714315
vt 0.449581 0.776416
vt 0.457776 0.768551
vt 0.403754 0.774156
vt 0.403754 0.427493
vt 0.453711 0.775512
vt 0.456710 0.772633
vt 0.514662 0.007202
vt 0.512075 0.091187
vt 0.501141 0.007138
vt 0.531397 0.007949
vt 0.531433 0.091879
vt 0.880168 0.683927
vt 0.880199 0.700713
vt 0.874580 0.700764
vt 0.874549 0.683978
vt 0.510170 0.003846
vt 0.487621 0.007077
vt 0.492143 0.003763
vt 0.482788 0.091190
vt 0.501167 0.001559
vt 0.496658 0.002007
vt 0.505672 0.002048
vt 0.560617 0.092674
vt 0.579973 0.091535
vt 0.584009 0.175632
vt 0.561866 0.176783
vt 0.509675 0.175368
vt 0.479619 0.175381
vt 0.558435 0.008664
vt 0.575128 0.007475
vt 0.544914 0.008304
vt 0.531875 0.176036
vt 0.554016 0.005210
vt 0.535990 0.004734
vt 0.549556 0.003313
vt 0.545061 0.002726
vt 0.540542 0.003075
vt 0.869725 0.700790
vt 0.869694 0.684003
vt 0.865183 0.700796
vt 0.865152 0.684009
vt 0.860642 0.700788
vt 0.860611 0.684002
vt 0.855786 0.700761
vt 0.855755 0.683975
vt 0.850167 0.700713
vt 0.850136 0.683927
vt 0.532900 0.301978
vt 0.505580 0.300522
vt 0.564030 0.302188
vt 0.474431 0.299733
vt 0.535504 0.425725
vt 0.496908 0.425177
vt 0.465407 0.425013
vt 0.591114 0.299722
vt 0.606361 0.424669
vt 0.567275 0.425896
vt 0.601138 0.552830
vt 0.566407 0.553004
vt 0.534786 0.552723
vt 0.500101 0.551911
vt 0.534650 0.675164
vt 0.503720 0.675432
vt 0.563508 0.675256
vt 0.468424 0.552915
vt 0.474890 0.676314
vt 0.506787 0.782053
vt 0.479749 0.782830
vt 0.534361 0.780894
vt 0.473381 0.140109
vt 0.473743 0.168992
vt 0.470113 0.165387
vt 0.470040 0.143724
vt 0.444297 0.168992
vt 0.447938 0.165580
vt 0.447500 0.143505
vt 0.444000 0.140089
vt 0.594474 0.676240
vt 0.588975 0.782773
vt 0.561416 0.780978
vt 0.795700 0.698485
vt 0.795700 0.675649
vt 0.818022 0.675649
vt 0.818022 0.698485
vt 0.067537 0.776478
vt 0.067574 0.692549
vt 0.081054 0.776124
vt 0.050803 0.777226
vt 0.048216 0.693240
vt 0.072131 0.779694
vt 0.862193 0.301395
vt 0.867811 0.301445
vt 0.867780 0.318231
vt 0.862162 0.318181
vt 0.096758 0.691753
vt 0.094575 0.775763
vt 0.090157 0.779218
vt 0.076683 0.781352
vt 0.081202 0.781702
vt 0.085696 0.781114
vt 0.116114 0.692892
vt 0.111269 0.776952
vt 0.068016 0.608392
vt 0.098007 0.607645
vt 0.120149 0.608796
vt 0.018929 0.693238
vt 0.015760 0.609047
vt 0.045816 0.609060
vt 0.037282 0.777289
vt 0.023762 0.777351
vt 0.028284 0.780664
vt 0.046311 0.780581
vt 0.032798 0.782421
vt 0.037307 0.782868
vt 0.041812 0.782379
vt 0.872667 0.301471
vt 0.872636 0.318257
vt 0.877208 0.301477
vt 0.877178 0.318263
vt 0.881750 0.301470
vt 0.881719 0.318256
vt 0.886606 0.301443
vt 0.886575 0.318229
vt 0.892224 0.301395
vt 0.892194 0.318181
vt 0.041721 0.483906
vt 0.069041 0.482450
vt 0.010571 0.484695
vt 0.100171 0.482240
vt 0.033048 0.359251
vt 0.071645 0.358703
vt 0.103416 0.358532
vt 0.142502 0.359759
vt 0.127255 0.484706
vt 0.001548 0.359415
vt 0.004565 0.231513
vt 0.036242 0.232517
vt 0.102548 0.231424
vt 0.137279 0.231598
vt 0.011031 0.108114
vt 0.039860 0.108996
vt 0.099649 0.109171
vt 0.130615 0.108188
vt 0.015890 0.001598
vt 0.042928 0.002375
vt 0.097557 0.003450
vt 0.125116 0.001654
vt 0.447693 0.211960
vt 0.447620 0.233623
vt 0.443990 0.237228
vt 0.444352 0.208345
vt 0.473733 0.208325
vt 0.470232 0.211741
vt 0.469795 0.233816
vt 0.473436 0.237228
vt 0.070502 0.003534
vt 0.070791 0.109263
vt 0.070926 0.231705
vt 0.843448 0.700554
vt 0.821126 0.700554
vt 0.821126 0.677718
vt 0.843448 0.677718
vt 0.861196 0.355744
vt 0.820689 0.356864
vt 0.818522 0.268176
vt 0.856064 0.266725
vt 0.901562 0.264156
vt 0.901562 0.296600
vt 0.860973 0.296600
vt 0.860973 0.264156
vt 0.720358 0.266799
vt 0.750633 0.269034
vt 0.747809 0.358208
vt 0.715509 0.355821
vt 0.816351 0.179417
vt 0.850968 0.177683
vt 0.725178 0.177758
vt 0.753398 0.179769
vt 0.788329 0.358280
vt 0.788188 0.269510
vt 0.788063 0.180627
vt 0.756053 0.090214
vt 0.787883 0.091432
vt 0.814440 0.090455
vt 0.729559 0.088559
vt 0.732951 0.001642
vt 0.758629 0.003100
vt 0.787410 0.004740
vt 0.471486 0.271973
vt 0.443979 0.272269
vt 0.447553 0.268649
vt 0.467840 0.268632
vt 0.468047 0.244987
vt 0.471493 0.241431
vt 0.443979 0.241774
vt 0.447363 0.245457
vt 0.846135 0.088521
vt 0.813114 0.003884
vt 0.841898 0.001672
vt 0.907259 0.683916
vt 0.907259 0.704791
vt 0.883284 0.704791
vt 0.883284 0.683916
vt 0.729746 0.004089
vt 0.724615 0.093109
vt 0.687073 0.091657
vt 0.689240 0.002970
vt 0.858835 0.226937
vt 0.899424 0.226937
vt 0.899424 0.259381
vt 0.858835 0.259381
vt 0.588909 0.093035
vt 0.584059 0.004012
vt 0.616359 0.001625
vt 0.619183 0.090800
vt 0.719518 0.182151
vt 0.684902 0.180417
vt 0.593729 0.182076
vt 0.621948 0.180064
vt 0.656738 0.090323
vt 0.656879 0.001554
vt 0.656614 0.179207
vt 0.656433 0.268402
vt 0.624603 0.269620
vt 0.682991 0.269379
vt 0.598109 0.271275
vt 0.601502 0.358192
vt 0.627179 0.356733
vt 0.655961 0.355094
vt 0.467842 0.176830
vt 0.447555 0.176813
vt 0.443980 0.173193
vt 0.471488 0.173490
vt 0.471495 0.204032
vt 0.468049 0.200475
vt 0.447365 0.200005
vt 0.443980 0.203688
vt 0.714685 0.271313
vt 0.710449 0.358162
vt 0.681665 0.355950
vt 0.683727 0.700463
vt 0.707702 0.700463
vt 0.707702 0.721338
vt 0.683727 0.721338
vt 0.998011 0.183707
vt 0.986618 0.183707
vt 0.986618 0.125614
vt 0.998011 0.125614
vt 0.145600 0.363645
vt 0.145600 0.352251
vt 0.444149 0.352251
vt 0.444149 0.363645
vt 0.444149 0.421738
vt 0.145600 0.421738
vt 0.444149 0.282765
vt 0.444149 0.294158
vt 0.145600 0.294158
vt 0.145600 0.282765
vt 0.998008 0.245741
vt 0.986614 0.245741
vt 0.986614 0.187648
vt 0.998008 0.187648
vt 0.458641 0.276568
vt 0.458641 0.334661
vt 0.447248 0.334661
vt 0.447248 0.276568
vt 0.142326 0.198190
vt 0.440874 0.198190
vt 0.440874 0.209583
vt 0.142326 0.209583
vt 0.142326 0.140097
vt 0.440874 0.140097
vt 0.440875 0.279070
vt 0.142326 0.279070
vt 0.142326 0.267676
vt 0.440875 0.267676
vt 0.447255 0.396695
vt 0.447255 0.338602
vt 0.458648 0.338602
vt 0.458648 0.396695
vt 0.893240 0.222289
vt 0.879590 0.222289
vt 0.879590 0.001548
vt 0.893240 0.001548
vt 0.902526 0.226937
vt 0.916176 0.226937
vt 0.916176 0.249829
vt 0.902526 0.249829
vt 0.916131 0.001548
vt 0.916131 0.222289
vt 0.998260 0.351152
vt 0.984610 0.351152
vt 0.984610 0.328260
vt 0.998260 0.328260
vt 0.929781 0.001548
vt 0.929781 0.222289
vt 0.856698 0.222289
vt 0.856698 0.001548
vt 0.792114 0.994408
vt 0.792114 0.981673
vt 0.848111 0.981673
vt 0.848111 0.994408
vt 0.886258 0.981673
vt 0.886258 0.994408
vt 0.237843 0.833698
vt 0.183171 0.833698
vt 0.184546 0.795646
vt 0.240542 0.795646
vt 0.132483 0.833698
vt 0.132481 0.795646
vt 0.784835 0.994408
vt 0.784835 0.981673
vt 0.132477 0.777496
vt 0.184546 0.788367
vt 0.126437 0.833698
vt 0.126438 0.795646
vt 0.126438 0.776974
vt 0.126437 0.846433
vt 0.132483 0.846433
vt 0.183171 0.846433
vt 0.132481 0.884485
vt 0.126437 0.884485
vt 0.184546 0.884485
vt 0.237843 0.846433
vt 0.240542 0.884485
vt 0.132477 0.902635
vt 0.126437 0.903157
vt 0.184546 0.891764
vt 0.731644 0.981673
vt 0.731644 0.994408
vt 0.725582 0.994408
vt 0.725582 0.981673
vt 0.120398 0.902635
vt 0.120394 0.884485
vt 0.719520 0.994408
vt 0.719520 0.981673
vt 0.120394 0.795646
vt 0.120398 0.777496
vt 0.068329 0.795646
vt 0.068329 0.788367
vt 0.666329 0.994408
vt 0.666329 0.981673
vt 0.659050 0.994408
vt 0.659050 0.981673
vt 0.603053 0.994408
vt 0.603053 0.981673
vt 0.069704 0.833698
vt 0.015032 0.833698
vt 0.012333 0.795646
vt 0.120392 0.833698
vt 0.015032 0.846433
vt 0.069704 0.846433
vt 0.068329 0.884485
vt 0.012333 0.884485
vt 0.120392 0.846433
vt 0.068329 0.891764
vt 0.564906 0.994408
vt 0.564906 0.981673
vt 0.007960 0.020161
vt 0.007960 0.034865
vt 0.001551 0.034865
vt 0.001551 0.020161
vt 0.305316 0.959157
vt 0.535251 0.959156
vt 0.535250 0.965566
vt 0.305316 0.965565
vt 0.305316 0.944453
vt 0.535251 0.944452
vt 0.535251 0.986678
vt 0.305316 0.986678
vt 0.305316 0.980269
vt 0.535250 0.980270
vt 0.845728 0.016252
vt 0.845728 0.001548
vt 0.852137 0.001548
vt 0.852137 0.016252
vt 0.846635 0.020160
vt 0.853044 0.020160
vt 0.853044 0.034863
vt 0.846635 0.034863
vt 0.961292 0.971748
vt 0.954883 0.971748
vt 0.954883 0.741814
vt 0.961292 0.741813
vt 0.975996 0.741813
vt 0.975997 0.971748
vt 0.933770 0.741813
vt 0.940179 0.741814
vt 0.940179 0.971748
vt 0.933770 0.971748
vt 0.001552 0.001555
vt 0.007962 0.001555
vt 0.007962 0.016259
vt 0.001552 0.016259
vt 0.705176 0.965314
vt 0.705176 0.912680
vt 0.733594 0.912680
vt 0.733594 0.965314
vt 0.054183 0.989943
vt 0.054183 0.998410
vt 0.001549 0.998410
vt 0.001549 0.989943
vt 0.082600 0.989943
vt 0.082600 0.998410
vt 0.085741 0.989943
vt 0.085741 0.998410
vt 0.736471 0.911419
vt 0.736471 0.966575
vt 0.924434 0.255360
vt 0.977068 0.255360
vt 0.978329 0.258237
vt 0.923173 0.258236
vt 0.977068 0.226942
vt 0.924434 0.226942
vt 0.533387 0.989943
vt 0.533387 0.998410
vt 0.530246 0.998410
vt 0.530246 0.989943
vt 0.561805 0.989943
vt 0.561805 0.998410
vt 0.982650 0.262632
vt 0.918852 0.262632
vt 0.524082 0.998410
vt 0.524082 0.989943
vt 0.985630 0.268524
vt 0.915872 0.268524
vt 0.517480 0.998410
vt 0.517480 0.989943
vt 0.508896 0.998410
vt 0.508896 0.989943
vt 0.988012 0.276770
vt 0.913490 0.276770
vt 0.755004 0.901736
vt 0.755004 0.976258
vt 0.746758 0.973876
vt 0.746758 0.904118
vt 0.740866 0.970896
vt 0.740866 0.907098
vt 0.107091 0.989943
vt 0.107091 0.998410
vt 0.098508 0.998410
vt 0.098508 0.989943
vt 0.091905 0.998410
vt 0.091905 0.989943
vt 0.763193 0.901039
vt 0.763193 0.976955
vt 0.115309 0.989943
vt 0.115309 0.998410
vt 0.125788 0.989943
vt 0.125788 0.998410
vt 0.773657 0.901589
vt 0.773657 0.976405
vt 0.912793 0.284959
vt 0.988709 0.284958
vt 0.988159 0.295423
vt 0.913343 0.295423
vt 0.986155 0.305901
vt 0.915347 0.305901
vt 0.136456 0.989943
vt 0.136456 0.998410
vt 0.983933 0.316370
vt 0.917569 0.316370
vt 0.147158 0.989943
vt 0.147158 0.998410
vt 0.479531 0.989943
vt 0.479531 0.998410
vt 0.468829 0.998410
vt 0.468829 0.989943
vt 0.490200 0.989943
vt 0.490200 0.998410
vt 0.794604 0.905815
vt 0.794604 0.972179
vt 0.784136 0.974401
vt 0.784136 0.903593
vt 0.500678 0.989943
vt 0.500678 0.998410
vt 0.808087 0.909030
vt 0.808087 0.968964
vt 0.454969 0.998410
vt 0.454969 0.989943
vt 0.442418 0.998410
vt 0.442418 0.989943
vt 0.820408 0.911420
vt 0.820408 0.966574
vt 0.920784 0.329853
vt 0.980718 0.329853
vt 0.978328 0.342174
vt 0.923174 0.342174
vt 0.161019 0.998410
vt 0.161019 0.989943
vt 0.173570 0.989943
vt 0.173570 0.998410
vt 0.975914 0.356804
vt 0.925589 0.356805
vt 0.188399 0.989943
vt 0.188399 0.998410
vt 0.974998 0.368029
vt 0.926504 0.368030
vt 0.199661 0.989943
vt 0.199661 0.998410
vt 0.427589 0.989943
vt 0.427589 0.998410
vt 0.416327 0.998410
vt 0.416327 0.989943
vt 0.846264 0.914750
vt 0.846264 0.963244
vt 0.835039 0.964159
vt 0.835039 0.913835
vt 0.860485 0.914941
vt 0.860485 0.963053
vt 0.402104 0.998410
vt 0.402104 0.989943
vt 0.382591 0.998410
vt 0.382591 0.989943
vt 0.879998 0.915073
vt 0.879998 0.962921
vt 0.926695 0.382251
vt 0.974807 0.382251
vt 0.974675 0.401764
vt 0.926827 0.401764
vt 0.233397 0.989943
vt 0.233397 0.998410
vt 0.213884 0.998410
vt 0.213884 0.989943
vt 0.974675 0.452437
vt 0.926827 0.452437
vt 0.284070 0.989943
vt 0.284070 0.998410
vt 0.331918 0.989943
vt 0.331918 0.998410
vt 0.930671 0.915073
vt 0.930671 0.962921
vt 0.377911 0.425448
vt 0.389644 0.425448
vt 0.389644 0.699658
vt 0.377911 0.699658
vt 0.916328 0.326194
vt 0.916328 0.337927
vt 0.863350 0.337927
vt 0.863350 0.326194
vt 0.324933 0.699658
vt 0.324933 0.425448
vt 0.013288 0.681070
vt 0.001555 0.681070
vt 0.001555 0.628092
vt 0.013288 0.628092
vt 0.313200 0.699658
vt 0.313200 0.425448
vt 0.260222 0.699658
vt 0.260222 0.425448
vt 0.950968 0.462664
vt 0.962701 0.462664
vt 0.962701 0.736874
vt 0.950968 0.736874
vt 0.466508 0.148363
vt 0.466508 0.160096
vt 0.450954 0.160096
vt 0.450954 0.148363
vt 0.935414 0.736874
vt 0.935414 0.462664
vt 0.450790 0.228337
vt 0.450790 0.216604
vt 0.466344 0.216604
vt 0.466344 0.228337
vt 0.923681 0.736874
vt 0.923681 0.462664
vt 0.978255 0.462664
vt 0.978256 0.736874
vt 0.447246 0.400636
vt 0.458719 0.400636
vt 0.458719 0.414373
vt 0.447246 0.414373
vt 0.702071 0.890693
vt 0.702071 0.902166
vt 0.401406 0.902166
vt 0.401406 0.890694
vt 0.401406 0.941114
vt 0.401406 0.927377
vt 0.702071 0.927376
vt 0.702071 0.941114
vt 0.401406 0.915904
vt 0.702071 0.915904
vt 0.998454 0.263425
vt 0.986982 0.263425
vt 0.986982 0.249687
vt 0.998454 0.249687
vt 0.471505 0.673575
vt 0.471505 0.687313
vt 0.460033 0.687313
vt 0.460033 0.673575
vt 0.001549 0.923774
vt 0.302216 0.923774
vt 0.302216 0.935247
vt 0.001549 0.935246
vt 0.302216 0.974194
vt 0.001549 0.974195
vt 0.001549 0.960457
vt 0.302216 0.960456
vt 0.001549 0.948984
vt 0.302216 0.948984
vt 0.909061 0.312854
vt 0.895324 0.312854
vt 0.895324 0.301381
vt 0.909061 0.301381
vt 0.915342 0.794365
vt 0.600355 0.794358
vt 0.604801 0.733920
vt 0.910818 0.734897
vt 0.915368 0.803381
vt 0.600328 0.803381
vt 0.920385 0.735745
vt 0.924359 0.794360
vt 0.898092 0.725769
vt 0.904515 0.718527
vt 0.917191 0.727712
vt 0.617782 0.724866
vt 0.598524 0.726644
vt 0.611459 0.717533
vt 0.591332 0.794377
vt 0.595233 0.734811
vt 0.712117 0.866561
vt 0.699391 0.875675
vt 0.418894 0.876556
vt 0.405911 0.867513
vt 0.716573 0.807980
vt 0.401534 0.807980
vt 0.699323 0.885355
vt 0.419013 0.886239
vt 0.906392 0.671247
vt 0.906420 0.680044
vt 0.859817 0.681409
vt 0.860275 0.673631
vt 0.864287 0.358987
vt 0.914260 0.363998
vt 0.923060 0.364198
vt 0.915186 0.671498
vt 0.806001 0.669984
vt 0.806001 0.362582
vt 0.856434 0.358825
vt 0.852485 0.673581
vt 0.864301 0.351133
vt 0.914709 0.355207
vt 0.468286 0.009544
vt 0.476263 0.009994
vt 0.480951 0.067748
vt 0.471904 0.069112
vt 0.140726 0.069236
vt 0.145794 0.009606
vt 0.145728 0.001554
vt 0.468334 0.001554
vt 0.468381 0.136103
vt 0.145776 0.136382
vt 0.140800 0.078282
vt 0.471842 0.078263
vt 0.137744 0.009772
vt 0.131797 0.067781
vt 0.618365 0.369638
vt 0.617267 0.360753
vt 0.668304 0.359331
vt 0.666858 0.366560
vt 0.665790 0.697949
vt 0.618264 0.693786
vt 0.609412 0.693715
vt 0.609412 0.369700
vt 0.725163 0.370035
vt 0.723142 0.694044
vt 0.673191 0.698104
vt 0.674230 0.366487
vt 0.617045 0.702554
vt 0.667089 0.705236
vt 0.143601 0.436678
vt 0.144665 0.429418
vt 0.197298 0.425596
vt 0.195099 0.434698
vt 0.190669 0.772549
vt 0.134558 0.766288
vt 0.127191 0.766217
vt 0.136269 0.436381
vt 0.257122 0.438160
vt 0.257122 0.768121
vt 0.199823 0.772942
vt 0.204465 0.434690
vt 0.135197 0.773629
vt 0.192144 0.781592
vt 0.724852 0.843237
vt 0.920384 0.843237
vt 0.920326 0.852130
vt 0.724910 0.852130
vt 0.929061 0.853797
vt 0.928440 0.889050
vt 0.920192 0.888239
vt 0.725044 0.888239
vt 0.716797 0.889050
vt 0.716175 0.853797
vt 0.725028 0.807979
vt 0.920208 0.807979
vt 0.920208 0.896526
vt 0.725028 0.896526
vt 0.946464 0.001554
vt 0.958197 0.001554
vt 0.958198 0.215723
vt 0.946465 0.215723
vt 0.464216 0.181448
vt 0.464292 0.193181
vt 0.450714 0.193181
vt 0.450638 0.181448
vt 0.932886 0.215723
vt 0.932886 0.001554
vt 0.462354 0.263344
vt 0.450621 0.263268
vt 0.450621 0.249690
vt 0.462354 0.249766
vt 0.983509 0.215723
vt 0.971776 0.215723
vt 0.971776 0.001554
vt 0.983509 0.001554
s 1
usemtl Diffuse_Chair
f 180/261/41 181/262/42 178/263/43 177/264/44
f 177/265/44 178/266/43 184/267/45 179/268/46
f 179/269/46 182/270/47 180/271/41 177/272/44
f 182/273/47 183/274/48 181/275/42 180/276/41
f 179/269/46 184/277/45 183/278/48 182/270/47
f 183/278/48 184/277/45 178/263/43 181/262/42
f 193/279/49 202/280/50 197/281/51 190/282/52
f 185/283/53 186/284/54 194/285/55 189/286/56
f 202/287/50 201/288/57 203/289/58 204/290/59
f 188/291/60 187/292/61 198/293/62 201/294/57
f 188/295/60 186/296/54 185/297/53 187/298/61
f 189/286/56 194/285/55 196/299/63 191/300/64
f 191/300/64 196/299/63 195/301/65 192/302/66
f 192/302/66 195/301/65 193/279/49 190/282/52
f 197/281/51 202/280/50 204/303/59 199/304/67
f 199/304/67 204/303/59 203/305/58 200/306/68
f 200/306/68 203/305/58 201/294/57 198/293/62
f 198/307/62 197/308/51 199/309/67 200/310/68
f 191/311/64 192/312/66 190/313/52 189/314/56
f 185/297/53 189/314/56 198/307/62 187/298/61
f 189/314/56 190/313/52 197/308/51 198/307/62
f 194/315/55 201/288/57 202/287/50 193/316/49
f 186/317/54 188/318/60 201/288/57 194/315/55
f 196/319/63 194/315/55 193/316/49 195/320/65
f 205/321/69 206/322/70 209/323/71
f 207/324/72 220/325/73 206/322/70 205/321/69
f 207/326/72 205/327/69 208/328/74 226/329/75
f 208/330/74 205/321/69 209/323/71
f 209/323/71 210/331/76 214/332/77
f 215/333/78 210/331/76 209/323/71
f 211/334/79 209/323/71 213/335/80
f 212/336/81 209/323/71 211/334/79
f 212/336/81 208/330/74 209/323/71
f 213/335/80 209/323/71 214/332/77
f 206/322/70 215/333/78 209/323/71
f 217/337/82 215/338/78 216/339/83 219/340/84
f 206/322/70 229/341/85 216/342/83 215/333/78
f 218/343/86 210/344/76 215/338/78 217/337/82
f 217/337/82 221/345/87 218/343/86
f 227/346/88 220/325/73 217/337/82 219/340/84
f 217/337/82 220/325/73 221/345/87
f 221/345/87 222/347/89 218/343/86
f 220/325/73 207/324/72 221/345/87
f 207/324/72 226/348/75 221/345/87
f 221/345/87 223/349/90 222/347/89
f 221/345/87 224/350/91 223/349/90
f 221/345/87 225/351/92 224/350/91
f 226/348/75 225/351/92 221/345/87
f 226/329/75 208/328/74 212/352/81 225/353/92
f 225/353/92 212/352/81 211/354/79 224/355/91
f 224/355/91 211/354/79 213/356/80 223/357/90
f 223/357/90 213/356/80 214/358/77 222/359/89
f 222/359/89 214/358/77 210/360/76 218/361/86
f 220/325/73 227/346/88 229/341/85 206/322/70
f 227/346/88 228/362/93 230/363/94 229/341/85
f 228/362/93 227/346/88 219/340/84 234/364/95
f 229/341/85 230/363/94 232/365/96 216/342/83
f 228/362/93 237/366/97 231/367/98 230/363/94
f 230/363/94 231/367/98 233/368/99 232/365/96
f 219/340/84 216/339/83 232/369/96 234/364/95
f 234/364/95 232/369/96 233/370/99 235/371/100
f 237/366/97 228/362/93 234/364/95 235/371/100
f 235/371/100 233/370/99 241/372/101 236/373/102
f 238/374/103 237/366/97 235/371/100 236/373/102
f 231/367/98 237/366/97 238/374/103 240/375/104
f 240/375/104 238/374/103 239/376/105 242/377/106
f 239/376/105 238/374/103 236/373/102 251/378/107
f 231/367/98 240/375/104 241/379/101 233/368/99
f 240/375/104 242/377/106 243/380/108 241/379/101
f 242/377/106 244/381/109 247/382/110 243/380/108
f 242/377/106 239/376/105 246/383/111 244/381/109
f 247/384/110 244/385/109 245/386/112 248/387/113
f 244/385/109 246/388/111 252/389/114 245/386/112
f 248/387/113 250/390/115 249/391/116 247/384/110
f 251/378/107 243/392/108 247/393/110 249/394/116
f 246/388/111 249/391/116 250/390/115 252/389/114
f 246/383/111 239/376/105 251/378/107 249/394/116
f 236/373/102 241/372/101 243/392/108 251/378/107
f 245/395/112 252/396/114 250/397/115 248/398/113
f 253/399/117 254/400/118 257/401/87
f 253/399/117 256/402/119 268/403/120 254/400/118
f 253/399/117 257/401/87 255/404/121
f 253/405/117 255/406/121 274/407/122 256/408/119
f 263/409/123 258/410/124 257/401/87
f 257/401/87 258/410/124 262/411/125
f 255/404/121 257/401/87 259/412/126
f 259/412/126 257/401/87 260/413/127
f 260/413/127 257/401/87 261/414/128
f 261/414/128 257/401/87 262/411/125
f 254/400/118 263/409/123 257/401/87
f 258/410/124 263/409/123 265/415/129 267/416/130
f 277/417/131 264/418/132 263/409/123 254/400/118
f 263/409/123 264/418/132 266/419/133 265/415/129
f 268/403/120 265/420/129 266/421/133 275/422/134
f 265/420/129 269/423/71 267/424/130
f 265/420/129 268/403/120 269/423/71
f 269/423/71 270/425/135 267/424/130
f 268/403/120 256/402/119 269/423/71
f 256/402/119 274/426/122 269/423/71
f 269/423/71 271/427/136 270/425/135
f 269/423/71 272/428/137 271/427/136
f 269/423/71 273/429/138 272/428/137
f 274/426/122 273/429/138 269/423/71
f 255/406/121 259/430/126 273/431/138 274/407/122
f 259/430/126 260/432/127 272/433/137 273/431/138
f 260/432/127 261/434/128 271/435/136 272/433/137
f 261/434/128 262/436/125 270/437/135 271/435/136
f 262/436/125 258/438/124 267/439/130 270/437/135
f 254/400/118 268/403/120 275/422/134 277/417/131
f 277/417/131 275/422/134 276/440/139 278/441/140
f 275/422/134 266/421/133 282/442/141 276/440/139
f 278/441/140 280/443/142 264/418/132 277/417/131
f 278/441/140 276/440/139 284/444/143 279/445/144
f 279/445/144 281/446/145 280/443/142 278/441/140
f 280/443/142 281/446/145 283/447/146 282/448/141
f 264/418/132 280/443/142 282/448/141 266/419/133
f 276/440/139 282/442/141 283/449/146 284/444/143
f 284/444/143 283/449/146 285/450/147 286/451/148
f 281/446/145 287/452/149 285/453/147 283/447/146
f 286/451/148 285/450/147 288/454/150 289/455/151
f 287/452/149 290/456/152 288/457/150 285/453/147
f 289/455/151 288/454/150 291/458/153 294/459/154
f 290/456/152 293/460/155 291/461/153 288/457/150
f 292/462/156 295/463/157 294/464/154 291/465/153
f 291/465/153 293/466/155 300/467/158 292/462/156
f 295/463/157 297/468/159 296/469/160 294/464/154
f 289/455/151 294/459/154 296/470/160 298/471/161
f 297/468/159 300/467/158 293/466/155 296/469/160
f 296/470/160 293/460/155 290/456/152 298/471/161
f 286/451/148 289/455/151 298/471/161 299/472/162
f 298/471/161 290/456/152 287/452/149 299/472/162
f 284/444/143 286/451/148 299/472/162 279/445/144
f 299/472/162 287/452/149 281/446/145 279/445/144
f 295/473/157 292/474/156 300/475/158 297/476/159
f 301/477/163 302/478/164 307/479/165 304/480/166
f 301/481/163 303/482/167 310/483/168 302/484/164
f 304/485/166 306/486/169 303/487/167 301/488/163
f 304/480/166 307/479/165 308/489/165 305/490/166
f 305/491/166 313/492/170 306/486/169 304/485/166
f 302/478/164 310/493/168 309/494/171 307/479/165
f 307/479/165 309/494/171 311/495/172 308/489/165
f 303/487/167 306/486/169 309/494/171 310/493/168
f 306/486/169 313/492/170 311/495/172 309/494/171
f 313/492/170 314/496/173 312/497/174 311/495/172
f 308/489/165 311/495/172 312/497/174 323/498/175
f 315/499/176 314/496/173 313/492/170 305/491/166
f 319/500/177 316/501/178 314/496/173 315/499/176
f 314/496/173 316/501/178 318/502/179 312/497/174
f 316/503/178 319/504/177 320/505/180 317/506/181
f 317/506/181 324/507/182 318/508/179 316/503/178
f 319/504/177 321/509/183 322/510/184 320/505/180
f 315/511/176 323/498/175 321/512/183 319/513/177
f 321/509/183 318/508/179 324/507/182 322/510/184
f 323/498/175 312/497/174 318/502/179 321/512/183
f 305/490/166 308/489/165 323/498/175 315/511/176
f 322/514/184 324/515/182 317/516/181 320/517/180
f 325/518/185 328/519/186 331/520/187 326/521/188
f 325/522/185 326/523/188 334/524/189 327/525/190
f 328/526/186 325/527/185 327/528/190 330/529/191
f 328/519/186 329/530/186 332/531/187 331/520/187
f 329/532/186 328/526/186 330/529/191 337/533/192
f 326/521/188 331/520/187 333/534/193 334/535/189
f 331/520/187 332/531/187 335/536/194 333/534/193
f 327/528/190 334/535/189 333/534/193 330/529/191
f 330/529/191 333/534/193 335/536/194 337/533/192
f 337/533/192 335/536/194 336/537/195 338/538/196
f 332/531/187 347/539/197 336/537/195 335/536/194
f 339/540/198 329/532/186 337/533/192 338/538/196
f 343/541/199 339/540/198 338/538/196 340/542/200
f 338/538/196 336/537/195 342/543/201 340/542/200
f 341/544/202 344/545/203 343/546/199 340/547/200
f 340/547/200 342/548/201 348/549/204 341/544/202
f 344/545/203 346/550/205 345/551/206 343/546/199
f 339/552/198 343/553/199 345/554/206 347/539/197
f 346/550/205 348/549/204 342/548/201 345/551/206
f 347/539/197 345/554/206 342/543/201 336/537/195
f 329/530/186 339/552/198 347/539/197 332/531/187
f 346/555/205 344/556/203 341/557/202 348/558/204
f 352/559/207 353/560/208 350/561/209 349/562/210
f 349/563/210 350/564/209 356/565/211 351/566/212
f 351/566/212 354/567/213 352/568/207 349/563/210
f 354/569/213 355/570/214 353/571/208 352/572/207
f 351/573/212 356/574/211 355/575/214 354/576/213
f 355/570/214 356/565/211 350/564/209 353/571/208
f 360/577/215 357/578/216 358/579/217 361/580/218
f 357/581/216 359/582/219 364/583/220 358/584/217
f 359/582/219 357/581/216 360/585/215 362/586/221
f 362/587/221 360/588/215 361/589/218 363/590/222
f 359/591/219 362/592/221 363/593/222 364/594/220
f 363/590/222 361/589/218 358/584/217 364/583/220
f 368/595/223 369/596/224 366/597/225 365/598/226
f 365/599/226 366/600/225 372/601/227 367/602/228
f 367/603/228 370/604/229 368/595/223 365/598/226
f 370/605/229 371/606/230 369/607/224 368/608/223
f 367/603/228 372/609/227 371/610/230 370/604/229
f 371/611/230 372/612/227 366/597/225 369/596/224
f 376/613/231 378/614/232 374/615/233 373/616/234
f 373/616/234 374/615/233 389/617/235 375/618/236
f 375/619/236 377/620/237 376/621/231 373/622/234
f 377/620/237 383/623/237 380/624/238 376/621/231
f 378/614/232 376/613/231 379/625/239 393/626/240
f 376/621/231 380/624/238 382/627/241 379/628/239
f 384/629/237 381/630/238 380/624/238 383/623/237
f 381/630/238 395/631/242 382/627/241 380/624/238
f 386/632/243 384/629/237 383/623/237 385/633/243
f 377/620/237 388/634/243 385/633/243 383/623/237
f 385/633/243 387/635/244 390/636/244 386/632/243
f 385/633/243 388/634/243 378/637/232 387/635/244
f 375/619/236 389/638/235 388/634/243 377/620/237
f 388/634/243 389/638/235 374/639/233 378/637/232
f 387/635/244 391/640/245 392/641/246 390/636/244
f 387/635/244 378/637/232 393/642/240 391/640/245
f 391/643/245 382/644/241 395/645/242 392/646/246
f 382/644/241 391/643/245 393/626/240 379/625/239
f 390/636/244 392/641/246 394/647/247 406/648/244
f 392/646/246 395/645/242 396/649/248 394/650/247
f 397/651/238 396/652/248 395/631/242 381/630/238
f 397/651/238 400/653/249 398/654/250 396/652/248
f 398/655/250 399/656/251 394/650/247 396/649/248
f 400/657/249 403/658/252 399/656/251 398/655/250
f 401/659/253 404/660/254 403/658/252 400/657/249
f 402/661/237 410/662/255 401/663/253 400/653/249
f 408/664/237 402/661/237 400/653/249 397/651/238
f 409/665/256 405/666/243 403/667/252 404/668/254
f 405/666/243 407/669/243 406/648/244 403/667/252
f 403/667/252 406/648/244 394/647/247 399/670/251
f 386/632/243 390/636/244 406/648/244 407/669/243
f 407/669/243 408/664/237 384/629/237 386/632/243
f 408/664/237 407/669/243 405/666/243 402/661/237
f 408/664/237 397/651/238 381/630/238 384/629/237
f 402/661/237 405/666/243 409/665/256 410/662/255
f 410/671/255 409/672/256 404/660/254 401/659/253
f 414/673/257 411/674/258 412/675/259 415/676/260
f 411/677/258 413/678/261 418/679/262 412/680/259
f 413/678/261 411/677/258 414/681/257 416/682/263
f 416/683/263 414/684/257 415/685/260 417/686/264
f 413/687/261 416/688/263 417/689/264 418/690/262
f 417/686/264 415/685/260 412/680/259 418/679/262
f 422/691/258 423/692/259 420/693/260 419/694/257
f 419/695/257 420/696/260 426/697/264 421/698/263
f 421/698/263 424/699/261 422/700/258 419/695/257
f 424/701/261 425/702/262 423/703/259 422/704/258
f 421/705/263 426/706/264 425/707/262 424/708/261
f 425/702/262 426/697/264 420/696/260 423/703/259
f 427/709/265 428/710/266 432/711/267 430/712/268
f 427/713/265 429/714/269 437/715/270 428/716/266
f 430/717/268 433/718/271 429/714/269 427/713/265
f 431/719/272 434/720/273 433/718/271 430/717/268
f 438/721/274 431/722/272 430/712/268 432/711/267
f 435/723/275 433/724/271 434/725/273 436/726/276
f 429/727/269 433/724/271 435/723/275 437/728/270
f 432/729/267 435/730/275 436/731/276 438/732/274
f 428/733/266 437/734/270 435/730/275 432/729/267
f 434/725/273 440/735/277 439/736/278 436/726/276
f 438/732/274 436/731/276 439/737/278 441/738/279
f 440/735/277 444/739/280 442/740/281 439/736/278
f 441/738/279 439/737/278 442/741/281 445/742/282
f 445/742/282 442/741/281 443/743/283 446/744/284
f 442/740/281 444/739/280 450/745/285 443/746/283
f 446/747/284 448/748/286 447/749/287 445/750/282
f 449/751/288 441/752/279 445/750/282 447/749/287
f 448/753/286 450/754/285 444/755/280 447/756/287
f 447/756/287 444/755/280 440/757/277 449/758/288
f 431/722/272 438/721/274 441/752/279 449/751/288
f 449/758/288 440/757/277 434/720/273 431/719/272
f 448/748/286 446/747/284 453/759/289 451/760/290
f 451/761/290 454/762/291 450/754/285 448/753/286
f 452/763/292 456/764/293 454/762/291 451/761/290
f 465/765/294 452/766/292 451/760/290 453/759/289
f 455/767/295 454/768/291 456/769/293 457/770/296
f 450/745/285 454/768/291 455/767/295 443/746/283
f 456/769/293 458/771/297 461/772/298 457/770/296
f 460/773/299 458/774/297 456/764/293 452/763/292
f 461/772/298 458/771/297 459/775/300 462/776/301
f 466/777/302 459/778/300 458/774/297 460/773/299
f 463/779/303 461/780/298 462/781/301 464/782/304
f 465/783/294 457/784/296 461/780/298 463/779/303
f 464/785/304 466/786/302 460/787/299 463/788/303
f 452/766/292 465/765/294 463/788/303 460/787/299
f 453/789/289 455/790/295 457/784/296 465/783/294
f 466/786/302 464/785/304 467/791/305 469/792/306
f 464/782/304 462/781/301 470/793/307 467/794/305
f 471/795/308 468/796/309 467/794/305 470/793/307
f 468/797/309 474/798/310 469/792/306 467/791/305
f 470/799/307 472/800/311 473/801/312 471/802/308
f 459/775/300 472/800/311 470/799/307 462/776/301
f 472/803/311 469/804/306 474/805/310 473/806/312
f 469/804/306 472/803/311 459/778/300 466/777/302
f 473/801/312 475/807/313 478/808/314 471/802/308
f 477/809/315 475/810/313 473/806/312 474/805/310
f 478/808/314 475/807/313 476/811/316 479/812/317
f 482/813/318 476/814/316 475/810/313 477/809/315
f 480/815/319 478/816/314 479/817/317 481/818/320
f 468/796/309 471/795/308 478/816/314 480/815/319
f 481/819/320 482/820/318 477/821/315 480/822/319
f 474/798/310 468/797/309 480/822/319 477/821/315
f 482/820/318 481/819/320 483/823/321 485/824/322
f 481/818/320 479/817/317 486/825/323 483/826/321
f 483/826/321 486/825/323 487/827/324 484/828/325
f 484/829/325 490/830/326 485/824/322 483/823/321
f 486/831/323 488/832/327 489/833/328 487/834/324
f 476/811/316 488/832/327 486/831/323 479/812/317
f 490/835/326 489/836/328 488/837/327 485/838/322
f 485/838/322 488/837/327 476/814/316 482/813/318
f 489/833/328 491/839/329 493/840/330 487/834/324
f 492/841/331 491/842/329 489/836/328 490/835/326
f 494/843/332 493/844/330 491/842/329 492/841/331
f 484/828/325 487/827/324 493/844/330 494/843/332
f 490/830/326 484/829/325 494/845/332 492/846/331
f 446/744/284 443/743/283 455/790/295 453/789/289
f 498/847/333 499/848/334 496/849/335 495/850/336
f 495/851/336 496/852/335 502/853/337 497/854/338
f 497/855/338 500/856/339 498/847/333 495/850/336
f 500/857/339 501/858/340 499/859/334 498/860/333
f 497/855/338 502/861/337 501/862/340 500/856/339
f 501/862/340 502/861/337 496/863/335 499/864/334
f 506/865/333 507/866/334 504/867/335 503/868/336
f 503/869/336 504/870/335 510/871/337 505/872/338
f 505/873/338 508/874/339 506/865/333 503/868/336
f 508/875/339 509/876/340 507/877/334 506/878/333
f 505/873/338 510/879/337 509/880/340 508/874/339
f 509/881/340 510/882/337 504/867/335 507/866/334
f 514/883/341 515/884/342 512/885/343 511/886/344
f 511/887/344 512/888/343 518/889/345 513/890/346
f 513/891/346 516/892/347 514/893/341 511/894/344
f 516/892/347 517/895/348 515/896/342 514/893/341
f 513/897/346 518/898/345 517/899/348 516/900/347
f 517/895/348 518/889/345 512/888/343 515/896/342
f 522/901/349 519/902/350 520/903/351 523/904/352
f 519/905/350 521/906/353 526/907/354 520/908/351
f 521/909/353 519/910/350 522/911/349 524/912/355
f 524/912/355 522/911/349 523/913/352 525/914/356
f 521/915/353 524/916/355 525/917/356 526/918/354
f 525/914/356 523/913/352 520/908/351 526/907/354
f 527/919/357 528/920/358 533/921/359 530/922/360
f 528/920/358 527/919/357 529/923/361 537/924/362
f 530/922/360 532/925/363 529/926/361 527/919/357
f 531/927/364 538/928/365 532/929/363 530/922/360
f 530/922/360 533/921/359 534/930/366 531/927/364
f 533/921/359 535/931/367 536/932/368 534/930/366
f 533/921/359 528/920/358 537/933/362 535/934/367
f 532/935/363 538/936/365 536/937/368 535/938/367
f 529/939/361 532/935/363 535/938/367 537/940/362
f 538/936/365 531/941/364 534/942/366 536/937/368
f 539/943/369 542/944/370 543/945/371 540/946/372
f 540/946/372 546/947/373 541/948/374 539/943/369
f 541/948/374 544/949/375 542/950/370 539/943/369
f 542/951/370 544/952/375 545/953/376 543/954/371
f 541/948/374 546/947/373 545/955/376 544/956/375
f 546/947/373 540/946/372 543/954/371 545/953/376
f 547/957/377 550/958/378 551/959/379 548/960/380
f 548/960/380 554/961/381 549/962/382 547/957/377
f 549/962/382 552/963/383 550/964/378 547/957/377
f 550/965/378 552/966/383 553/967/384 551/968/379
f 552/969/383 549/962/382 554/961/381 553/970/384
f 553/967/384 554/961/381 548/960/380 551/968/379
f 555/971/385 558/972/386 559/973/387 556/974/388
f 556/974/388 562/975/389 557/976/390 555/971/385
f 560/977/391 558/978/386 555/971/385 557/976/390
f 558/979/386 560/980/391 561/981/392 559/982/387
f 560/983/391 557/976/390 562/975/389 561/984/392
f 561/981/392 562/975/389 556/974/388 559/982/387
f 563/985/393 566/986/394 567/987/395 564/988/396
f 564/988/396 570/989/397 565/990/398 563/985/393
f 568/991/399 566/992/394 563/985/393 565/990/398
f 566/993/394 568/994/399 569/995/400 567/996/395
f 568/997/399 565/990/398 570/989/397 569/998/400
f 569/995/400 570/989/397 564/988/396 567/996/395
f 576/999/401 572/1000/402 571/1001/403 574/1002/404
f 571/1001/403 572/1003/402 578/1004/405 573/1005/406
f 574/1002/404 571/1001/403 573/1005/406 575/1006/407
f 574/1002/404 575/1006/407 577/1007/408 576/1008/401
f 577/1009/408 578/1010/405 572/1000/402 576/999/401
f 575/1006/407 573/1005/406 578/1011/405 577/1012/408
f 582/1013/409 583/1014/410 580/1015/411 579/1016/412
f 579/1017/412 580/1018/411 586/1019/413 581/1020/414
f 581/1021/414 584/1022/415 582/1013/409 579/1016/412
f 584/1023/415 585/1024/416 583/1025/410 582/1026/409
f 581/1027/414 586/1028/413 585/1029/416 584/1030/415
f 585/1029/416 586/1028/413 580/1015/411 583/1014/410
