# Blender 3.6.23
# www.blender.org
mtllib scene_0003_glass.mtl
o glass_window_01
v 123.170822 -663.908997 0.025902
v 123.261581 -664.941101 80.019196
v 123.345993 -665.901184 0.000000
v 123.436752 -666.933289 79.993294
v 23.555218 -672.668640 0.025902
v 23.645977 -673.700745 80.019196
v 23.730396 -674.660828 0.000000
v 23.821156 -675.692932 79.993294
vn 0.9962 0.0876 -0.0000
vn 0.0876 -0.9961 -0.0130
vn -0.9962 -0.0876 -0.0000
vn -0.0876 0.9961 0.0130
vn -0.0011 0.0129 -0.9999
vn 0.0011 -0.0129 0.9999
vt 0.375000 0.000000
vt 0.625000 0.000000
vt 0.625000 0.250000
vt 0.375000 0.250000
vt 0.625000 0.500000
vt 0.375000 0.500000
vt 0.625000 0.750000
vt 0.375000 0.750000
vt 0.625000 1.000000
vt 0.375000 1.000000
vt 0.125000 0.500000
vt 0.125000 0.750000
vt 0.875000 0.500000
vt 0.875000 0.750000
s 0
usemtl Glass_Clear
f 1/1/1 2/2/1 4/3/1 3/4/1
f 3/4/2 4/3/2 8/5/2 7/6/2
f 7/6/3 8/5/3 6/7/3 5/8/3
f 5/8/4 6/7/4 2/9/4 1/10/4
f 3/11/5 7/6/5 5/8/5 1/12/5
f 8/5/6 4/13/6 2/14/6 6/7/6
o glass_table_02
v 70.709167 -619.042725 0.000000
v 70.695221 -618.963074 79.999954
v 71.054146 -621.012756 0.002022
v 71.040199 -620.933105 80.001976
v -8.091730 -632.841919 0.000000
v -8.105677 -632.762268 79.999954
v -7.746752 -634.811951 0.002022
v -7.760698 -634.732300 80.001976
vn 0.9850 0.1725 -0.0000
vn 0.1725 -0.9850 0.0010
vn -0.9850 -0.1725 -0.0000
vn -0.1725 0.9850 -0.0010
vn 0.0002 -0.0010 -1.0000
vn -0.0002 0.0010 1.0000
vt 0.375000 0.000000
vt 0.625000 0.000000
vt 0.625000 0.250000
vt 0.375000 0.250000
vt 0.625000 0.500000
vt 0.375000 0.500000
vt 0.625000 0.750000
vt 0.375000 0.750000
vt 0.625000 1.000000
vt 0.375000 1.000000
vt 0.125000 0.500000
vt 0.125000 0.750000
vt 0.875000 0.500000
vt 0.875000 0.750000
s 0
usemtl Glass_Clear
f 9/15/7 10/16/7 12/17/7 11/18/7
f 11/18/8 12/17/8 16/19/8 15/20/8
f 15/20/9 16/19/9 14/21/9 13/22/9
f 13/22/10 14/21/10 10/23/10 9/24/10
f 11/25/11 15/20/11 13/22/11 9/26/11
f 16/19/12 12/27/12 10/28/12 14/21/12
