# Blender 3.6.23
# www.blender.org
mtllib scene_0009_glass.mtl
o glass_window_01
v 56.806095 -657.185120 0.000000
v 56.598263 -655.509521 79.982178
v 57.052219 -659.169495 0.042213
v 56.844387 -657.493835 80.024391
v -42.433468 -669.494080 0.000000
v -42.641300 -667.818420 79.982178
v -42.187344 -671.478394 0.042213
v -42.395176 -669.802795 80.024391
vn 0.9924 0.1231 -0.0000
vn 0.1231 -0.9922 0.0211
vn -0.9924 -0.1231 -0.0000
vn -0.1231 0.9922 -0.0211
vn 0.0026 -0.0209 -0.9998
vn -0.0026 0.0209 0.9998
vt 0.375000 0.000000
vt 0.625000 0.000000
vt 0.625000 0.250000
vt 0.375000 0.250000
vt 0.625000 0.500000
vt 0.375000 0.500000
vt 0.625000 0.750000
vt 0.375000 0.750000
vt 0.625000 1.000000
vt 0.375000 1.000000
vt 0.125000 0.500000
vt 0.125000 0.750000
vt 0.875000 0.500000
vt 0.875000 0.750000
s 0
usemtl Glass_Clear
f 1/1/1 2/2/1 4/3/1 3/4/1
f 3/4/2 4/3/2 8/5/2 7/6/2
f 7/6/3 8/5/3 6/7/3 5/8/3
f 5/8/4 6/7/4 2/9/4 1/10/4
f 3/11/5 7/6/5 5/8/5 1/12/5
f 8/5/6 4/13/6 2/14/6 6/7/6
