# Blender 3.6.23
# www.blender.org
mtllib scene_0004.mtl
o glass_window_01
v 25.160957 -552.355713 0.094700
v 25.564636 -556.190674 80.001709
v 25.370079 -554.342407 -0.001705
v 25.773758 -558.177368 79.905304
v -74.289597 -562.824097 0.094700
v -73.885918 -566.659058 80.001709
v -74.080475 -564.810791 -0.001705
v -73.676796 -568.645752 79.905304
vn 0.9945 0.1047 -0.0000
vn 0.1046 -0.9933 -0.0482
vn -0.9945 -0.1047 -0.0000
vn -0.1046 0.9933 0.0482
vn -0.0050 0.0479 -0.9988
vn 0.0050 -0.0479 0.9988
vt 0.375000 0.000000
vt 0.625000 0.000000
vt 0.625000 0.250000
vt 0.375000 0.250000
vt 0.625000 0.500000
vt 0.375000 0.500000
vt 0.625000 0.750000
vt 0.375000 0.750000
vt 0.625000 1.000000
vt 0.375000 1.000000
vt 0.125000 0.500000
vt 0.125000 0.750000
vt 0.875000 0.500000
vt 0.875000 0.750000
s 0
usemtl Glass_Clear
f 1/1/1 2/2/1 4/3/1 3/4/1
f 3/4/2 4/3/2 8/5/2 7/6/2
f 7/6/3 8/5/3 6/7/3 5/8/3
f 5/8/4 6/7/4 2/9/4 1/10/4
f 3/11/5 7/6/5 5/8/5 1/12/5
f 8/5/6 4/13/6 2/14/6 6/7/6
o diffuse_table_01
v -83.792847 -663.784790 67.171371
v -83.349319 -663.344666 67.171371
v -83.792847 -663.784790 70.518539
v -80.997940 -666.157593 70.867592
v -83.349319 -663.344666 70.518539
v 0.626904 -663.665222 67.171371
v 1.067062 -664.108765 67.171371
v -1.745876 -666.460144 70.867599
v 1.067062 -664.108765 70.518539
v 0.626904 -663.665222 70.518539
v -83.550919 -716.158752 67.171371
v -83.991081 -715.715210 67.171371
v -81.178146 -713.363831 70.867592
v -83.991081 -715.715210 70.518539
v -83.550919 -716.158752 70.518539
v 0.868828 -716.039185 67.171371
v 0.425297 -716.479309 67.171371
v -1.926075 -713.666382 70.867599
v 0.425297 -716.479309 70.518539
v 0.868828 -716.039185 70.518539
v 0.625217 -664.107056 66.859894
v -83.350998 -663.786499 66.859879
v 0.426983 -716.037476 66.859894
v -83.549240 -715.716919 66.859879
v -1.792095 -666.515991 69.326935
v -80.952148 -666.213806 69.326920
v -1.971867 -713.610168 69.326935
v -81.131927 -713.307983 69.326920
v -80.952148 -666.213806 66.986206
v -81.111115 -666.052979 66.859879
v -1.631924 -666.356384 66.859894
v -1.792095 -666.515991 66.986221
v -81.292099 -713.467590 66.859879
v -81.131927 -713.307983 66.986206
v -1.812916 -713.770996 66.859894
v -1.971867 -713.610168 66.986221
v -83.350998 -663.786499 70.867599
v 0.625217 -664.107056 70.867599
v 0.426983 -716.037476 70.867599
v -83.549240 -715.716919 70.867599
v -6.891026 -708.610718 23.617607
v -7.221966 -708.593506 23.865791
v -6.905754 -708.279724 23.865795
v -10.005695 -705.169556 69.350403
v -10.321907 -705.483337 69.350403
v -3.471478 -708.623230 23.632402
v -3.480621 -708.292786 23.865795
v -3.167076 -708.608032 23.880463
v -5.096302 -705.503296 69.350403
v -5.409847 -705.187073 69.350403
v -6.904640 -712.030273 23.632401
v -6.922203 -712.334595 23.880463
v -7.235043 -712.018677 23.865791
v -10.339451 -710.079224 69.350403
v -10.025644 -710.395142 69.350403
v -3.483974 -712.043884 23.778730
v -3.180202 -712.034729 24.041864
v -3.495541 -712.347656 24.041864
v -5.429794 -710.412720 69.350403
v -5.113846 -710.099121 69.350403
v -6.749279 -671.477722 23.617607
v -7.080341 -671.492432 23.865791
v -6.766533 -671.808594 23.865795
v -9.890129 -674.895020 69.350403
v -10.203934 -674.578796 69.350403
v -3.329731 -671.491333 23.632402
v -3.341400 -671.821655 23.865795
v -3.025459 -671.508850 23.880463
v -4.978329 -674.598755 69.350403
v -5.294277 -674.912598 69.350403
v -6.736786 -668.058167 23.632401
v -6.752022 -667.753723 23.880463
v -7.067265 -668.067261 23.865791
v -10.186390 -669.982971 69.350403
v -9.870180 -669.669434 69.350403
v -3.316113 -668.070679 23.778730
v -3.012424 -668.082153 24.041864
v -3.325359 -667.766846 24.041864
v -5.274330 -669.686951 69.350403
v -4.960785 -670.002930 69.350403
v -76.174728 -708.346252 23.617603
v -75.843674 -708.331543 23.865786
v -76.157471 -708.015381 23.865791
v -73.033890 -704.928955 69.350395
v -72.720078 -705.245178 69.350395
v -79.594269 -708.332642 23.632397
v -79.582611 -708.002319 23.865791
v -79.898552 -708.315125 23.880457
v -77.945694 -705.225220 69.350395
v -77.629745 -704.911377 69.350395
v -76.187225 -711.765808 23.632397
v -76.171989 -712.070251 23.880457
v -75.856750 -711.756714 23.865786
v -72.737625 -709.841003 69.350395
v -73.053833 -710.154541 69.350395
v -79.607895 -711.753296 23.778727
v -79.911591 -711.741821 24.041859
v -79.598648 -712.057129 24.041859
v -77.649689 -710.137024 69.350395
v -77.963234 -709.821045 69.350395
v -76.032990 -671.213257 23.617603
v -75.702042 -671.230469 23.865786
v -76.018250 -671.544250 23.865791
v -72.918320 -674.654419 69.350395
v -72.602104 -674.340637 69.350395
v -79.452530 -671.200745 23.632397
v -79.443390 -671.531189 23.865791
v -79.756935 -671.215942 23.880457
v -77.827713 -674.320679 69.350395
v -77.514175 -674.636902 69.350395
v -76.019371 -667.793701 23.632397
v -76.001808 -667.489380 23.880457
v -75.688965 -667.805298 23.865786
v -72.584564 -669.744751 69.350395
v -72.898376 -669.428833 69.350395
v -79.440033 -667.780090 23.778727
v -79.743805 -667.789246 24.041859
v -79.428467 -667.476318 24.041859
v -77.494225 -669.411255 69.350395
v -77.810173 -669.724854 69.350395
vn -0.8509 -0.3287 -0.4098
vn -0.8597 -0.3317 0.3884
vn -0.8572 0.3383 0.3884
vn -0.8484 0.3352 -0.4098
vn 0.3287 -0.8509 -0.4098
vn 0.3317 -0.8597 0.3884
vn -0.3383 -0.8572 0.3884
vn -0.3352 -0.8484 -0.4098
vn -0.0000 -0.0000 1.0000
vn -0.3287 0.8509 -0.4098
vn -0.3317 0.8597 0.3884
vn 0.3383 0.8572 0.3884
vn 0.3352 0.8484 -0.4098
vn 0.8509 0.3287 -0.4098
vn 0.8597 0.3317 0.3884
vn 0.8572 -0.3383 0.3884
vn 0.8484 -0.3352 -0.4098
vn -0.2777 0.2799 -0.9190
vn -0.2983 0.3006 0.9059
vn 0.2799 0.2777 -0.9190
vn 0.3006 0.2983 0.9059
vn -0.2799 -0.2777 -0.9190
vn -0.3006 -0.2983 0.9059
vn 0.2777 -0.2799 -0.9190
vn 0.2983 -0.3006 0.9059
vn 0.5442 0.5391 -0.6428
vn 0.5401 -0.5432 -0.6428
vn 0.5751 -0.5795 -0.5774
vn 0.5796 0.5751 -0.5774
vn 0.0911 0.0905 -0.9917
vn -0.0904 0.0912 -0.9917
vn -0.5401 0.5432 -0.6428
vn -0.5751 0.5795 -0.5774
vn -0.0911 -0.0905 -0.9917
vn 0.0904 -0.0912 -0.9917
vn -0.5795 -0.5751 -0.5774
vn -0.5442 -0.5391 -0.6428
vn -0.8396 -0.3360 -0.4267
vn -0.9301 -0.3642 -0.0479
vn -0.9154 0.3926 -0.0892
vn -0.8340 0.3269 -0.4444
vn 0.3484 -0.8740 -0.3388
vn 0.3728 -0.9262 0.0554
vn -0.4044 -0.9145 0.0114
vn -0.3191 -0.8682 -0.3799
vn 0.8707 0.3125 -0.3797
vn 0.9176 0.3974 0.0118
vn 0.9233 -0.3800 0.0556
vn 0.8713 -0.3551 -0.3387
vn -0.3205 0.8366 -0.4443
vn -0.3857 0.9183 -0.0891
vn 0.3713 0.9273 -0.0476
vn 0.3425 0.8371 -0.4265
vn -0.2731 0.2753 -0.9217
vn 0.3185 0.2642 -0.9104
vn -0.2665 -0.3164 -0.9104
vn 0.3290 -0.3314 -0.8843
vn -0.8370 0.3424 -0.4267
vn -0.8365 -0.3206 -0.4444
vn -0.9183 -0.3856 -0.0892
vn -0.9273 0.3713 -0.0479
vn 0.3551 0.8713 -0.3388
vn -0.3125 0.8706 -0.3799
vn -0.3974 0.9176 0.0114
vn 0.3799 0.9234 0.0554
vn 0.8683 -0.3192 -0.3797
vn 0.8740 0.3484 -0.3387
vn 0.9262 0.3729 0.0556
vn 0.9145 -0.4044 0.0118
vn -0.3269 -0.8341 -0.4443
vn 0.3361 -0.8397 -0.4265
vn 0.3642 -0.9301 -0.0476
vn -0.3927 -0.9154 -0.0891
vn -0.2752 -0.2732 -0.9217
vn 0.3164 -0.2666 -0.9104
vn -0.2641 0.3184 -0.9104
vn 0.3315 0.3289 -0.8843
vn 0.8370 -0.3424 -0.4267
vn 0.8365 0.3206 -0.4444
vn 0.9183 0.3856 -0.0892
vn 0.9273 -0.3713 -0.0479
vn -0.3551 -0.8713 -0.3388
vn 0.3125 -0.8706 -0.3799
vn 0.3974 -0.9176 0.0114
vn -0.3799 -0.9234 0.0554
vn -0.8683 0.3192 -0.3797
vn -0.8740 -0.3484 -0.3387
vn -0.9262 -0.3729 0.0556
vn -0.9145 0.4044 0.0118
vn 0.3269 0.8341 -0.4443
vn -0.3361 0.8397 -0.4265
vn -0.3642 0.9301 -0.0476
vn 0.3927 0.9154 -0.0891
vn 0.2752 0.2732 -0.9217
vn -0.3164 0.2666 -0.9104
vn 0.2641 -0.3184 -0.9104
vn -0.3315 -0.3289 -0.8843
vn 0.8396 0.3360 -0.4267
vn 0.9301 0.3642 -0.0479
vn 0.9154 -0.3926 -0.0892
vn 0.8340 -0.3269 -0.4444
vn -0.3484 0.8740 -0.3388
vn -0.3728 0.9262 0.0554
vn 0.4044 0.9145 0.0114
vn 0.3191 0.8682 -0.3799
vn -0.8707 -0.3125 -0.3797
vn -0.9176 -0.3974 0.0118
vn -0.9233 0.3800 0.0556
vn -0.8713 0.3551 -0.3387
vn 0.3205 -0.8366 -0.4443
vn 0.3857 -0.9183 -0.0891
vn -0.3713 -0.9273 -0.0476
vn -0.3425 -0.8371 -0.4265
vn 0.2731 -0.2753 -0.9217
vn -0.3185 -0.2642 -0.9104
vn 0.2665 0.3164 -0.9104
vn -0.3290 0.3314 -0.8843
vt 0.012167 0.894395
vt 0.012161 0.862608
vt 0.401654 0.862517
vt 0.401672 0.894215
vt 0.770729 0.637544
vt 0.738930 0.637544
vt 0.738908 0.007387
vt 0.770625 0.007379
vt 0.011087 0.358772
vt 0.011087 0.004670
vt 0.605569 0.004670
vt 0.605569 0.358772
vt 0.665754 0.637544
vt 0.633954 0.637544
vt 0.633932 0.007387
vt 0.665648 0.007379
vt 0.012153 0.781665
vt 0.012159 0.749877
vt 0.401667 0.750059
vt 0.401653 0.781757
vt 0.402511 0.898447
vt 0.406213 0.894954
vt 0.402459 0.858019
vt 0.406193 0.861757
vt 0.669880 0.006541
vt 0.666388 0.002840
vt 0.629432 0.006581
vt 0.633174 0.002846
vt 0.774855 0.006541
vt 0.771365 0.002840
vt 0.734408 0.006581
vt 0.738150 0.002846
vt 0.402486 0.785988
vt 0.406185 0.782501
vt 0.402477 0.745559
vt 0.406213 0.749304
vt 0.670203 0.637542
vt 0.629261 0.637543
vt 0.012154 0.786116
vt 0.012153 0.745183
vt 0.775179 0.637542
vt 0.734237 0.637543
vt 0.012161 0.898847
vt 0.012163 0.857914
vt 0.030357 0.917428
vt 0.384349 0.917072
vt 0.384371 0.939343
vt 0.030379 0.939699
vt 0.791830 0.023428
vt 0.792136 0.620638
vt 0.793836 0.619438
vt 0.793540 0.024632
vt 0.815803 0.024621
vt 0.816101 0.619427
vt 0.686854 0.023428
vt 0.687161 0.620638
vt 0.012407 0.719528
vt 0.012407 0.366267
vt 0.606199 0.366267
vt 0.606199 0.719528
vt 0.385556 0.915367
vt 0.029151 0.915731
vt 0.030336 0.804709
vt 0.384312 0.804599
vt 0.384318 0.826869
vt 0.030343 0.826979
vt 0.385520 0.802895
vt 0.029131 0.803011
vt 0.688564 0.024632
vt 0.688861 0.619438
vt 0.710827 0.024621
vt 0.711126 0.619427
vt 0.611519 0.619791
vt 0.611679 0.024324
vt 0.029925 0.727445
vt 0.384741 0.727787
vt 0.716494 0.619791
vt 0.716655 0.024324
vt 0.029921 0.840165
vt 0.384711 0.840261
vt 0.413096 0.829099
vt 0.844696 0.829099
vt 0.844696 0.859196
vt 0.413096 0.859196
vt 0.413096 0.795490
vt 0.844696 0.795490
vt 0.844696 0.825587
vt 0.413096 0.825587
vt 0.413096 0.761885
vt 0.844696 0.761885
vt 0.844696 0.791983
vt 0.413096 0.791983
vt 0.413096 0.728276
vt 0.844696 0.728276
vt 0.844696 0.758374
vt 0.413096 0.758374
vt 0.107983 0.983687
vt 0.111358 0.984368
vt 0.108613 0.987108
vt 0.082406 0.983545
vt 0.081894 0.986785
vt 0.079217 0.984090
vt 0.108067 0.957990
vt 0.108635 0.954717
vt 0.111358 0.957486
vt 0.082448 0.957934
vt 0.079161 0.957325
vt 0.081842 0.954645
vt 0.413096 0.724762
vt 0.844696 0.724763
vt 0.888655 0.437483
vt 0.858557 0.437483
vt 0.858557 0.005879
vt 0.888655 0.005879
vt 0.922263 0.437483
vt 0.892166 0.437483
vt 0.892166 0.005879
vt 0.922263 0.005879
vt 0.955869 0.437483
vt 0.925771 0.437483
vt 0.925771 0.005879
vt 0.955869 0.005879
vt 0.989477 0.437483
vt 0.959380 0.437483
vt 0.959380 0.005879
vt 0.989477 0.005879
vt 0.221686 0.960258
vt 0.222316 0.956836
vt 0.225061 0.959577
vt 0.196110 0.960400
vt 0.192920 0.959855
vt 0.195597 0.957160
vt 0.221771 0.985955
vt 0.225061 0.986459
vt 0.222338 0.989228
vt 0.196151 0.986011
vt 0.195545 0.989300
vt 0.192865 0.986620
vt 0.992991 0.437483
vt 0.992991 0.005879
vt 0.961249 0.441373
vt 0.991346 0.441373
vt 0.991346 0.872978
vt 0.961249 0.872978
vt 0.927640 0.441373
vt 0.957737 0.441373
vt 0.957737 0.872978
vt 0.927640 0.872978
vt 0.894035 0.441373
vt 0.924132 0.441373
vt 0.924132 0.872978
vt 0.894035 0.872978
vt 0.860426 0.441373
vt 0.890524 0.441373
vt 0.890524 0.872978
vt 0.860426 0.872978
vt 0.054205 0.960486
vt 0.054834 0.957064
vt 0.057579 0.959805
vt 0.028628 0.960627
vt 0.025438 0.960082
vt 0.028115 0.957387
vt 0.054289 0.986182
vt 0.057579 0.986686
vt 0.054856 0.989456
vt 0.028669 0.986238
vt 0.028063 0.989527
vt 0.025383 0.986847
vt 0.856912 0.441373
vt 0.856912 0.872978
vt 0.845719 0.893331
vt 0.414117 0.893331
vt 0.414117 0.863233
vt 0.845719 0.863233
vt 0.845719 0.926939
vt 0.414117 0.926939
vt 0.414117 0.896842
vt 0.845719 0.896842
vt 0.845719 0.960544
vt 0.414117 0.960544
vt 0.414117 0.930447
vt 0.845719 0.930447
vt 0.845719 0.994153
vt 0.414117 0.994153
vt 0.414117 0.964055
vt 0.845719 0.964055
vt 0.163985 0.985789
vt 0.167323 0.986440
vt 0.164631 0.989129
vt 0.138369 0.985797
vt 0.137835 0.989092
vt 0.135147 0.986348
vt 0.164045 0.960168
vt 0.164650 0.956930
vt 0.167323 0.959689
vt 0.138385 0.960134
vt 0.135092 0.959522
vt 0.137781 0.956836
vt 0.845719 0.997667
vt 0.414117 0.997667
s 1
usemtl Diffuse_Table
f 20/15/7 22/16/8 11/17/9 9/18/10
f 25/19/11 27/20/12 23/21/13 19/22/14
f 26/23/15 16/24/15 12/25/15 21/26/15
f 10/27/16 13/28/17 18/29/18 14/30/19
f 15/31/20 17/32/21 28/33/22 24/34/23
f 30/35/24 9/18/10 10/36/16
f 11/17/9 45/37/25 13/38/17
f 29/39/26 14/30/19 15/40/20
f 46/41/27 17/42/21 18/29/18
f 32/43/28 19/22/14 20/44/7
f 48/45/29 22/46/8 23/21/13
f 31/47/30 24/34/23 25/48/11
f 47/49/31 27/50/12 28/33/22
f 29/39/26 30/51/24 10/27/16 14/30/19
f 9/18/10 11/17/9 13/38/17 10/36/16
f 45/52/25 46/41/27 18/29/18 13/28/17
f 17/42/21 15/40/20 14/30/19 18/29/18
f 31/47/30 29/53/26 15/31/20 24/34/23
f 46/54/27 47/49/31 28/33/22 17/32/21
f 27/50/12 25/48/11 24/34/23 28/33/22
f 32/43/28 31/55/30 25/19/11 19/22/14
f 47/56/31 48/45/29 23/21/13 27/20/12
f 22/46/8 20/44/7 19/22/14 23/21/13
f 30/35/24 32/57/28 20/15/7 9/18/10
f 48/58/29 45/37/25 11/17/9 22/16/8
f 42/59/32 37/60/33 34/61/34 36/62/35
f 41/63/36 43/64/37 31/55/30 32/43/28
f 44/65/38 42/66/32 36/67/35 35/68/39
f 39/69/40 38/70/41 30/51/24 29/39/26
f 33/71/42 35/72/39 36/73/35 34/74/34
f 38/75/41 41/76/36 32/57/28 30/35/24
f 40/77/43 44/78/38 35/79/39 33/80/42
f 43/81/37 39/82/40 29/53/26 31/47/30
f 40/83/43 37/84/33 38/70/41 39/69/40
f 44/78/38 40/77/43 39/82/40 43/81/37
f 42/66/32 44/65/38 43/64/37 41/63/36
f 37/60/33 42/59/32 41/76/36 38/75/41
f 37/84/33 40/83/43 33/85/42 34/86/34
f 12/87/15 16/88/15 46/41/27 45/52/25
f 16/89/15 26/90/15 47/49/31 46/54/27
f 26/91/15 21/92/15 48/45/29 47/56/31
f 21/93/15 12/94/15 45/37/25 48/58/29
f 61/95/44 62/96/45 53/97/46 50/98/47
f 66/99/48 67/100/49 63/101/50 60/102/51
f 56/103/52 57/104/53 68/105/54 65/106/55
f 51/107/56 52/108/57 58/109/58 55/110/59
f 49/111/60 50/112/47 51/113/56
f 54/114/61 55/115/59 56/116/52
f 59/117/62 60/118/51 61/119/44
f 64/120/63 65/121/55 66/122/48
f 54/114/61 49/111/60 51/113/56 55/115/59
f 50/123/47 53/124/46 52/108/57 51/107/56
f 57/104/53 56/103/52 55/110/59 58/109/58
f 64/120/63 54/114/61 56/116/52 65/121/55
f 67/100/49 66/99/48 65/106/55 68/105/54
f 59/117/62 64/120/63 66/122/48 60/118/51
f 62/96/45 61/95/44 60/102/51 63/101/50
f 49/111/60 59/117/62 61/119/44 50/112/47
f 54/114/61 64/120/63 59/117/62 49/111/60
f 81/125/64 70/126/65 73/127/66 82/128/67
f 86/129/68 80/130/69 83/131/70 87/132/71
f 76/133/72 85/134/73 88/135/74 77/136/75
f 71/137/76 75/138/77 78/139/78 72/140/79
f 69/141/80 71/142/76 70/143/65
f 74/144/81 76/145/72 75/146/77
f 79/147/82 81/148/64 80/149/69
f 84/150/83 86/151/68 85/152/73
f 74/144/81 75/146/77 71/142/76 69/141/80
f 70/153/65 71/137/76 72/140/79 73/154/66
f 77/136/75 78/139/78 75/138/77 76/133/72
f 84/150/83 85/152/73 76/145/72 74/144/81
f 87/132/71 88/135/74 85/134/73 86/129/68
f 79/147/82 80/149/69 86/151/68 84/150/83
f 82/128/67 83/131/70 80/130/69 81/125/64
f 69/141/80 70/143/65 81/148/64 79/147/82
f 74/144/81 69/141/80 79/147/82 84/150/83
f 101/155/84 90/156/85 93/157/86 102/158/87
f 106/159/88 100/160/89 103/161/90 107/162/91
f 96/163/92 105/164/93 108/165/94 97/166/95
f 91/167/96 95/168/97 98/169/98 92/170/99
f 89/171/100 91/172/96 90/173/85
f 94/174/101 96/175/92 95/176/97
f 99/177/102 101/178/84 100/179/89
f 104/180/103 106/181/88 105/182/93
f 94/174/101 95/176/97 91/172/96 89/171/100
f 90/183/85 91/167/96 92/170/99 93/184/86
f 97/166/95 98/169/98 95/168/97 96/163/92
f 104/180/103 105/182/93 96/175/92 94/174/101
f 107/162/91 108/165/94 105/164/93 106/159/88
f 99/177/102 100/179/89 106/181/88 104/180/103
f 102/158/87 103/161/90 100/160/89 101/155/84
f 89/171/100 90/173/85 101/178/84 99/177/102
f 94/174/101 89/171/100 99/177/102 104/180/103
f 121/185/104 122/186/105 113/187/106 110/188/107
f 126/189/108 127/190/109 123/191/110 120/192/111
f 116/193/112 117/194/113 128/195/114 125/196/115
f 111/197/116 112/198/117 118/199/118 115/200/119
f 109/201/120 110/202/107 111/203/116
f 114/204/121 115/205/119 116/206/112
f 119/207/122 120/208/111 121/209/104
f 124/210/123 125/211/115 126/212/108
f 114/204/121 109/201/120 111/203/116 115/205/119
f 110/213/107 113/214/106 112/198/117 111/197/116
f 117/194/113 116/193/112 115/200/119 118/199/118
f 124/210/123 114/204/121 116/206/112 125/211/115
f 127/190/109 126/189/108 125/196/115 128/195/114
f 119/207/122 124/210/123 126/212/108 120/208/111
f 122/186/105 121/185/104 120/192/111 123/191/110
f 109/201/120 119/207/122 121/209/104 110/202/107
f 114/204/121 124/210/123 119/207/122 109/201/120
o diffuse_chair_02
v 100.417351 -734.818237 85.368103
v 100.694038 -736.124329 85.308769
v 100.348129 -734.491455 78.848801
v 76.552917 -739.873840 85.368103
v 76.829613 -741.179932 85.308769
v 76.483696 -739.547058 78.848801
v 76.760384 -740.853149 78.789474
v 100.624817 -735.797546 78.789474
v 100.614517 -699.263733 86.416458
v 100.565216 -698.906372 85.378906
v 61.736847 -706.346924 86.388763
v 61.644867 -706.018921 85.369675
v 99.887192 -693.756165 86.136215
v 98.836189 -692.996582 86.088409
v 99.700974 -693.310547 86.112320
v 99.316277 -693.032471 86.094818
v 98.827797 -692.957214 85.269547
v 99.878845 -693.715698 85.286285
v 99.307922 -692.993103 85.271790
v 99.692635 -693.270752 85.277916
v 61.005718 -700.341125 86.088409
v 60.338791 -701.434753 86.135513
v 60.577068 -700.553528 86.094719
v 60.332954 -700.953796 86.111961
v 60.320793 -701.377197 85.285980
v 60.987854 -700.286194 85.269547
v 60.315002 -700.897400 85.277771
v 60.559158 -700.498108 85.271751
v 106.385559 -739.958740 133.083923
v 105.769173 -738.259644 123.582962
v 106.772629 -741.804749 132.702194
v 105.893555 -740.135010 133.460495
v 104.865715 -740.280701 133.083923
v 103.345879 -740.602722 133.083923
v 104.890152 -740.396057 133.714020
v 105.394722 -740.279053 133.661194
v 104.381493 -740.493713 133.661194
v 103.867096 -740.564331 133.460495
v 102.473694 -738.957764 123.582962
v 101.711700 -737.289429 114.082001
v 102.922821 -741.101746 123.157074
v 103.732948 -742.448669 132.702194
v 102.223534 -739.731323 113.611954
v 106.218307 -740.403625 123.157074
v 105.252792 -742.126709 132.702194
v 104.254166 -742.410278 133.078781
v 104.768562 -742.339722 133.279465
v 105.277222 -742.242065 133.332306
v 105.781792 -742.125061 133.279465
v 106.280624 -741.981018 133.078781
v 105.591171 -739.017883 113.611954
v 104.713203 -737.079346 99.532150
v 105.079338 -736.576050 114.082001
v 104.087860 -734.094666 100.106682
v 103.294998 -731.544800 85.994339
v 100.654633 -734.821960 100.106682
v 99.730591 -732.299927 85.994339
v 101.279968 -737.806641 99.532150
v 100.649429 -736.649658 85.591705
v 100.403458 -736.035156 71.035049
v 104.213837 -735.894592 85.591705
v 103.967873 -735.280090 71.035049
v 103.799957 -734.671448 56.967949
v 103.141235 -731.374817 71.294861
v 99.576820 -732.129883 71.294861
v 103.063583 -731.195435 57.089737
v 99.818924 -731.882812 57.089737
v 103.029327 -731.033752 44.829769
v 102.817261 -731.355042 44.555805
v 103.687263 -734.139465 44.829762
v 99.985161 -731.678650 44.829769
v 100.313766 -731.885376 44.555805
v 100.643051 -734.784363 44.829762
v 100.856339 -734.446533 44.555801
v 100.555305 -735.358826 56.967949
v 103.359833 -733.916199 44.555801
v 73.386452 -748.877502 132.702194
v 73.325012 -747.371948 123.157074
v 73.907669 -748.839111 133.078781
v 72.991737 -747.033142 133.083923
v 74.906296 -748.555481 132.702194
v 76.426132 -748.233521 132.702194
v 74.422066 -748.768494 133.279465
v 74.930733 -748.670837 133.332306
v 75.435295 -748.553833 133.279465
v 75.934128 -748.409790 133.078781
v 76.620491 -746.673828 123.157074
v 76.704018 -745.137573 113.611954
v 76.161667 -744.531860 123.582962
v 76.181717 -742.697876 114.082001
v 76.031418 -746.389160 133.083923
v 72.866180 -745.229980 123.582962
v 74.511581 -746.711121 133.083923
v 75.539413 -746.565430 133.460495
v 75.040581 -746.709473 133.661194
v 74.536018 -746.826477 133.714020
v 74.027351 -746.924133 133.661194
v 73.512955 -746.994751 133.460495
v 72.814072 -743.411316 114.082001
v 72.714195 -740.741028 100.106682
v 73.336380 -745.850952 113.611954
v 73.352844 -743.722900 99.532150
v 73.328903 -742.437439 85.591705
v 76.786079 -742.995605 99.532150
v 76.893311 -741.682312 85.591705
v 76.147430 -740.013733 100.106682
v 75.969414 -737.333618 85.994339
v 72.404999 -738.088745 85.994339
v 76.041031 -737.115845 71.294861
v 72.476624 -737.870972 71.294861
v 76.868973 -741.020874 71.035049
v 75.719536 -736.988220 57.089737
v 72.474884 -737.675537 57.089737
v 76.455917 -740.464172 56.967949
v 75.484779 -736.868958 44.829769
v 75.268234 -737.191162 44.555805
v 76.142769 -739.974670 44.829762
v 72.440620 -737.513855 44.829769
v 72.764748 -737.721558 44.555805
v 73.098557 -740.619568 44.829762
v 73.307320 -740.282715 44.555801
v 73.211258 -741.151550 56.967949
v 73.304565 -741.776001 71.035049
v 75.810806 -739.752319 44.555801
v 96.058075 -698.229004 85.421356
v 95.099297 -693.703247 85.153168
v 99.681732 -697.461365 85.421356
v 95.924149 -698.548645 75.230270
v 95.790230 -698.868286 65.039177
v 99.321045 -697.829041 75.230270
v 95.035835 -694.350647 75.029129
v 94.972374 -694.998047 64.905083
v 98.432732 -693.630981 75.029129
v 98.722961 -692.935608 85.153168
v 98.134949 -694.328064 64.905083
v 97.867393 -695.018677 54.781044
v 98.952797 -698.198303 65.039177
v 98.614784 -698.561218 54.848091
v 95.656303 -699.187927 54.848091
v 98.411797 -698.887634 44.930862
v 98.081299 -698.685364 44.657005
v 97.729172 -695.664734 44.930855
v 95.541580 -699.495667 44.930862
v 95.749718 -699.179321 44.657005
v 94.858940 -696.272827 44.930855
v 95.182442 -696.501526 44.657005
v 94.908913 -695.645386 54.781044
v 97.514023 -696.007629 44.657005
v 65.510880 -704.700317 85.421356
v 64.552124 -700.174561 85.153168
v 61.887226 -705.468018 85.421356
v 65.762917 -704.938232 75.230270
v 66.014954 -705.176086 65.039177
v 62.366020 -705.657837 75.230270
v 64.872643 -700.740601 75.029129
v 65.193161 -701.306641 64.905083
v 61.475746 -701.460205 75.029129
v 60.928455 -700.942200 85.153168
v 62.030594 -701.976624 64.905083
v 62.555206 -702.499451 54.781044
v 62.852379 -705.846069 65.039177
v 63.308498 -706.040710 54.848091
v 66.266983 -705.414001 54.848091
v 63.626419 -706.256836 44.930862
v 63.846504 -705.937866 44.657005
v 62.943542 -703.033936 44.930855
v 66.496635 -705.648743 44.930862
v 66.178085 -705.443970 44.657005
v 65.813766 -702.425903 44.930855
v 65.610809 -702.766174 44.657005
v 65.513687 -701.872681 54.781044
v 63.279228 -703.260132 44.657005
v 97.705551 -697.937195 78.792244
v 99.006004 -697.791016 78.769943
v 101.489799 -731.746460 78.848801
v 97.783417 -697.733398 85.221161
v 99.083862 -697.587219 85.198860
v 101.605637 -731.721924 85.277725
v 102.906082 -731.575684 85.255424
v 102.790245 -731.600220 78.826508
v 63.867378 -705.062927 78.792076
v 62.619354 -705.456604 78.769775
v 74.135231 -737.541443 78.848801
v 63.711010 -704.855896 85.220993
v 62.462990 -705.249573 85.198700
v 74.027557 -737.564209 85.277725
v 72.779533 -737.957886 85.255424
v 72.887207 -737.935120 78.826508
v 100.831192 -735.462341 101.296921
v 101.147751 -736.956604 101.006836
v 100.730362 -734.986389 98.735336
v 76.234520 -740.673035 101.296921
v 76.551079 -742.167297 101.006836
v 76.133698 -740.197083 98.735336
v 76.450256 -741.691345 98.445251
v 101.046921 -736.480652 98.445251
v 103.351509 -740.804810 131.566376
v 103.668068 -742.299072 131.276276
v 102.849518 -740.025146 127.002686
v 96.664001 -742.221497 131.566376
v 96.320206 -741.408386 127.002686
v 96.980553 -743.715820 131.276276
v 96.698357 -742.383728 132.439377
v 90.446053 -743.538757 131.566376
v 89.724281 -743.691650 131.566376
v 90.531273 -743.943298 133.743164
v 90.266647 -742.690796 127.002686
v 89.544655 -742.843750 127.002686
v 90.583199 -744.185059 126.712601
v 89.861206 -744.338013 126.712601
v 90.762611 -745.033020 131.276276
v 96.636757 -742.902649 126.712601
v 103.166077 -741.519409 126.712601
v 90.040833 -745.185974 131.276276
v 90.847832 -745.437561 133.453064
v 90.128983 -745.602051 133.515717
v 97.014915 -743.877991 132.149292
v 89.405205 -745.743164 133.453064
v 89.812424 -744.107727 133.805801
v 89.088646 -744.248901 133.743164
v 89.002510 -743.844604 131.566376
v 82.818924 -745.324036 132.439377
v 83.135483 -746.818298 132.149292
v 82.784561 -745.161804 131.566376
v 76.097046 -746.578552 131.566376
v 82.769104 -744.279114 127.002686
v 83.101120 -746.656128 131.276276
v 76.413605 -748.072815 131.276276
v 83.085655 -745.773376 126.712601
v 89.319061 -745.338867 131.276276
v 89.139214 -744.490967 126.712601
v 88.822662 -742.996704 127.002686
v 76.556343 -747.156616 126.712601
v 76.239784 -745.662354 127.002686
v 96.753960 -742.170959 126.911545
v 96.605103 -741.468323 127.046310
v 95.752022 -737.441406 101.143730
v 95.113800 -742.518433 126.911545
v 94.964943 -741.815735 127.046310
v 94.111862 -737.788879 101.143730
v 93.963005 -737.086182 101.278511
v 95.603165 -736.738708 101.278511
v 82.681824 -745.152100 126.911545
v 82.532967 -744.449402 127.046310
v 81.679886 -740.422546 101.143730
v 84.321983 -744.804626 126.911545
v 84.173126 -744.101990 127.046310
v 83.320045 -740.075073 101.143730
v 83.171188 -739.372375 101.278511
v 81.531029 -739.719849 101.278511
v 86.574753 -743.633484 127.034172
v 92.587273 -742.359741 127.034172
v 86.776451 -744.585571 126.860054
v 86.453644 -743.061768 123.767715
v 86.297318 -743.034424 123.437050
v 92.466156 -741.788025 123.767715
v 86.655342 -744.013855 123.593590
v 86.499016 -743.986511 123.262924
v 92.667862 -742.740173 123.593590
v 92.799667 -742.651733 123.262924
v 92.788971 -743.311829 126.860054
v 92.597969 -741.699646 123.437050
v 93.274559 -742.458740 122.757729
v 85.986656 -744.002686 122.757729
v 93.072861 -741.506653 122.931847
v 93.589844 -742.268127 122.080482
v 93.826820 -742.044556 121.132637
v 85.621147 -743.956238 122.080482
v 93.388145 -741.315979 122.254585
v 93.625122 -741.092468 121.306763
v 85.419449 -743.004150 122.254585
v 85.112183 -742.895874 121.306763
v 85.784958 -743.050537 122.931847
v 85.313889 -743.848022 121.132637
v 84.997726 -742.748047 120.365532
v 85.015938 -742.524170 119.162743
v 93.669785 -740.910889 120.365532
v 85.199425 -743.700134 120.191414
v 93.871490 -741.862976 120.191414
v 85.217636 -743.476318 118.988625
v 93.764076 -741.665771 118.988625
v 85.401840 -743.217041 117.784142
v 85.611053 -742.952637 116.580856
v 85.200134 -742.264893 117.958275
v 93.490555 -741.503418 117.784142
v 93.192116 -741.346619 116.580856
v 93.288857 -740.551331 117.958275
v 92.990417 -740.394531 116.754974
v 93.562378 -740.713684 119.162743
v 85.409348 -742.000549 116.754974
v 92.565681 -740.201050 115.205208
v 92.240097 -740.011047 113.789017
v 85.719162 -741.651489 115.205208
v 92.767380 -741.153198 115.031097
v 92.441795 -740.963135 113.614899
v 85.920860 -742.603577 115.031097
v 86.141426 -742.297852 113.614899
v 85.939728 -741.345764 113.789017
v 86.354866 -741.945129 111.933151
v 86.411560 -741.697144 110.642906
v 86.153168 -740.992981 112.107277
v 92.103645 -740.727234 111.933151
v 91.951271 -740.523560 110.642906
v 91.901947 -739.775146 112.107277
v 91.749565 -739.571472 110.817024
v 86.209862 -740.744995 110.817024
v 91.667084 -739.289978 109.182365
v 91.568909 -738.900635 106.939468
v 86.171135 -740.454285 109.182365
v 91.868782 -740.242065 109.008263
v 91.770607 -739.852722 106.765350
v 86.372833 -741.406372 109.008263
v 86.304680 -741.010681 106.765350
v 86.102982 -740.058533 106.939468
v 86.088715 -739.991211 100.940857
v 85.887016 -739.039124 101.114975
v 91.554649 -738.833313 100.940857
v 91.352951 -737.881226 101.114975
v 95.438858 -694.819092 85.004036
v 95.715248 -696.123718 85.090042
v 95.519341 -695.198975 78.982323
v 64.884300 -701.291931 85.004036
v 65.160690 -702.596619 85.090042
v 64.964775 -701.671875 78.982323
v 65.241165 -702.976501 79.068329
v 95.795723 -696.503662 79.068329
v 95.558685 -695.384705 76.038391
v 95.835068 -696.689331 76.124397
v 95.582306 -695.496216 74.270401
v 65.004120 -701.857544 76.038391
v 65.280510 -703.162231 76.124397
v 65.027748 -701.969116 74.270401
v 65.304138 -703.273743 74.356407
v 95.858696 -696.800903 74.356407
v 97.532150 -697.691040 73.269806
v 98.832436 -697.544861 73.247513
v 101.364868 -731.772888 73.326538
v 97.558395 -697.685486 74.836647
v 98.858673 -697.539307 74.814354
v 101.391113 -731.767334 74.893372
v 102.691399 -731.621155 74.871078
v 102.665154 -731.626709 73.304237
v 63.943619 -704.806641 73.269806
v 62.695747 -705.200256 73.247513
v 74.260155 -737.514954 73.326538
v 63.917374 -704.812195 74.836647
v 62.669502 -705.205811 74.814354
v 74.233910 -737.520508 74.893372
v 72.986046 -737.914124 74.871078
v 73.012283 -737.908569 73.304237
v 103.827492 -723.520325 86.283356
v 68.705658 -730.843689 86.283356
v 103.819870 -723.468994 85.257645
v 104.705132 -730.254211 86.452484
v 103.498337 -731.567444 86.478317
v 104.684807 -730.103577 85.369232
v 70.605957 -737.477356 86.452827
v 72.263824 -738.184753 86.478317
v 70.563995 -737.328613 85.369385
v 72.221771 -738.034973 85.386520
v 68.692047 -730.793213 85.256989
v 103.477646 -731.415649 85.386520
v 103.801941 -723.399719 86.283356
v 103.111496 -718.053711 86.283356
v 68.681084 -730.727661 86.283356
v 103.794762 -723.350464 85.257645
v 103.097931 -717.954285 85.379395
v 68.667915 -730.679260 85.256989
v 67.036453 -725.006897 85.370995
v 67.060638 -725.093445 86.283356
v 103.089645 -717.950623 86.283356
v 102.196968 -711.212097 86.270882
v 67.033638 -724.966003 86.283356
v 103.075203 -717.846985 85.379395
v 102.207954 -711.306030 85.233063
v 67.008659 -724.875732 85.370995
v 65.192329 -718.488464 85.234848
v 65.168579 -718.409729 86.261932
v 102.172974 -711.098816 86.270882
v 101.446701 -705.493408 86.112228
v 65.149269 -718.318542 86.261932
v 102.183258 -711.189453 85.233063
v 101.419319 -705.297485 85.277496
v 65.172409 -718.394409 85.234848
v 63.562965 -712.789124 85.278717
v 63.617210 -712.984375 86.115891
v 101.406281 -705.302612 86.112228
v 100.629242 -699.333252 86.416458
v 63.575951 -712.789612 86.115891
v 101.378571 -705.105164 85.277496
v 100.582031 -698.985779 85.378906
v 63.521374 -712.592773 85.278717
v 61.668129 -706.128723 85.369675
v 61.758133 -706.447388 86.388763
v 100.665825 -736.760986 86.622009
v 100.640686 -736.607483 85.530212
v 99.722511 -732.388000 86.427048
v 76.958542 -741.783325 86.622009
v 76.047577 -737.403442 86.427048
v 76.919273 -741.632812 85.530212
v 76.034874 -737.352783 85.400681
v 99.713577 -732.336487 85.400681
v 100.313728 -734.329102 74.871078
v 100.590416 -735.635193 74.811752
v 100.297424 -734.252197 73.326538
v 76.449295 -739.384705 74.871078
v 76.725990 -740.690796 74.811752
v 76.432999 -739.307739 73.326538
v 76.709686 -740.613831 73.267204
v 100.574112 -735.558228 73.267204
vn -0.6789 0.4173 0.6041
vn -0.4392 -0.7109 0.5493
vn 0.6897 -0.4718 0.5493
vn 0.4514 0.6567 0.6041
vn 0.6789 -0.4173 -0.6041
vn 0.4392 0.7109 -0.5493
vn -0.6897 0.4718 -0.5493
vn -0.4514 -0.6567 -0.6041
vn -0.0427 0.7456 -0.6650
vn -0.2411 0.7107 -0.6609
vn -0.2295 0.6927 0.6838
vn -0.0464 0.7318 0.6799
vn 0.6523 -0.5662 0.5039
vn 0.6635 -0.3737 -0.6481
vn 0.7120 0.1842 -0.6776
vn 0.7022 0.2184 0.6777
vn -0.7294 -0.1127 -0.6747
vn -0.7424 0.2045 -0.6381
vn -0.5237 0.5721 -0.6313
vn -0.4712 -0.5967 -0.6495
vn -0.3952 -0.7660 0.5071
vn -0.7284 -0.0794 0.6805
vn 0.5995 0.4729 -0.6457
vn 0.5846 0.4862 0.6495
vn 0.2641 0.7206 -0.6411
vn 0.2513 0.7177 0.6494
vn -0.5018 0.5624 0.6572
vn -0.7244 0.2147 0.6551
vn 0.5817 0.6735 0.4561
vn 0.5485 0.8289 0.1099
vn -0.2037 0.9615 0.1845
vn 0.8307 -0.5059 0.2323
vn 0.8360 -0.5333 -0.1296
vn 0.2376 0.6058 0.7593
vn 0.5100 -0.6991 0.5012
vn -0.7863 0.3864 0.4821
vn -0.4625 0.4583 0.7589
vn -0.8342 0.5266 0.1636
vn -0.1103 0.5211 0.8463
vn -0.2810 0.4813 0.8303
vn 0.0621 0.5536 0.8305
vn -0.5468 -0.8338 -0.0756
vn -0.8340 0.5286 0.1581
vn -0.5474 -0.8332 -0.0783
vn 0.5471 0.8301 0.1080
vn -0.5350 -0.8047 0.2573
vn 0.2043 -0.9642 -0.1689
vn 0.8358 -0.5336 -0.1290
vn -0.1833 -0.8453 0.5018
vn -0.0037 -0.8203 0.5719
vn 0.1680 -0.7937 0.5846
vn 0.3358 -0.7487 0.5716
vn 0.8401 -0.5330 -0.1006
vn 0.5458 0.8301 0.1140
vn -0.5543 -0.8301 -0.0598
vn -0.8348 0.5289 0.1529
vn 0.8409 -0.5383 -0.0565
vn 0.5224 0.8503 0.0643
vn -0.8241 0.5603 0.0833
vn -0.5539 -0.8319 -0.0348
vn -0.8406 0.5416 0.0054
vn -0.5492 -0.8349 -0.0361
vn 0.8376 -0.5451 -0.0354
vn 0.5445 0.8387 0.0058
vn 0.8379 -0.5448 -0.0326
vn 0.5449 0.8385 0.0086
vn -0.5448 -0.8374 -0.0448
vn -0.8378 0.5460 -0.0036
vn 0.5010 0.7745 -0.3861
vn -0.7681 0.5059 -0.3926
vn 0.7694 -0.4909 -0.4087
vn 0.2305 0.3587 -0.9046
vn -0.3526 0.2356 -0.9056
vn 0.3549 -0.2217 -0.9082
vn -0.2308 -0.3462 -0.9093
vn -0.5003 -0.7598 -0.4153
vn -0.5542 -0.7993 0.2323
vn -0.5479 -0.8264 -0.1296
vn -0.8048 0.3798 0.4561
vn -0.8375 0.5353 0.1099
vn -0.1827 -0.8458 0.5012
vn -0.4629 0.4575 0.7593
vn 0.8380 -0.5405 -0.0756
vn 0.8154 -0.5186 0.2573
vn 0.5104 -0.6984 0.5018
vn -0.0033 -0.8205 0.5716
vn 0.1682 -0.7937 0.5846
vn 0.3360 -0.7483 0.5719
vn 0.5490 0.8196 0.1636
vn 0.5621 0.6720 0.4821
vn -0.5476 -0.8267 -0.1290
vn 0.8382 -0.5396 -0.0783
vn 0.5480 0.8214 0.1581
vn -0.8367 0.5369 0.1080
vn 0.2369 0.6065 0.7589
vn 0.0617 0.5539 0.8303
vn -0.1105 0.5211 0.8463
vn -0.2812 0.4808 0.8305
vn -0.8355 0.5375 0.1140
vn -0.5518 -0.8279 -0.1006
vn 0.5486 0.8220 0.1529
vn 0.8433 -0.5341 -0.0598
vn -0.8223 0.5654 0.0643
vn -0.5504 -0.8330 -0.0565
vn 0.8436 -0.5358 -0.0348
vn 0.5261 0.8463 0.0833
vn 0.5488 0.8360 0.0054
vn -0.8378 0.5459 0.0058
vn 0.8406 -0.5405 -0.0361
vn 0.5444 0.8388 -0.0036
vn -0.8381 0.5455 0.0086
vn 0.8376 -0.5445 -0.0448
vn 0.4970 0.7739 -0.3926
vn -0.7720 0.5048 -0.3861
vn 0.7654 -0.4917 -0.4153
vn 0.2268 0.3584 -0.9056
vn -0.3561 0.2344 -0.9046
vn 0.3514 -0.2229 -0.9093
vn -0.2346 -0.3466 -0.9082
vn -0.5043 -0.7607 -0.4087
vn -0.5450 -0.8378 -0.0326
vn -0.5447 -0.8379 -0.0354
vn -0.4426 -0.6596 0.6074
vn -0.6855 0.4805 0.5470
vn -0.8381 0.5447 -0.0296
vn -0.5455 -0.8375 0.0334
vn 0.6902 -0.4171 0.5913
vn 0.4515 0.7171 0.5310
vn 0.8376 -0.5462 -0.0102
vn -0.8381 0.5448 -0.0296
vn 0.8374 -0.5466 -0.0094
vn 0.5452 0.8351 -0.0732
vn 0.5446 0.8356 -0.0724
vn 0.8368 -0.5475 -0.0038
vn 0.5434 0.8368 -0.0670
vn -0.8382 0.5445 -0.0300
vn -0.5456 -0.8374 0.0329
vn -0.5045 -0.7784 -0.3735
vn 0.7663 -0.5099 -0.3908
vn 0.4988 0.7550 -0.4256
vn -0.2334 -0.3621 -0.9025
vn 0.3507 -0.2396 -0.9053
vn 0.2297 0.3426 -0.9110
vn -0.7729 0.4862 -0.4077
vn -0.3584 0.2169 -0.9080
vn 0.6721 -0.4235 0.6074
vn 0.8382 -0.5443 0.0334
vn 0.5452 0.8378 -0.0296
vn 0.4318 0.7172 0.5470
vn -0.7035 0.4724 0.5310
vn -0.4618 -0.6611 0.5913
vn -0.5441 -0.8389 -0.0102
vn -0.5438 -0.8392 -0.0094
vn -0.8370 0.5423 -0.0732
vn -0.8366 0.5430 -0.0724
vn -0.8360 0.5446 -0.0670
vn -0.5429 -0.8398 -0.0038
vn 0.5455 0.8376 -0.0300
vn 0.8383 -0.5442 0.0329
vn 0.7768 -0.5070 -0.3735
vn -0.4937 -0.7768 -0.3908
vn -0.7621 0.4879 -0.4256
vn -0.2235 -0.3612 -0.9053
vn 0.3601 -0.2364 -0.9025
vn -0.3489 0.2201 -0.9110
vn 0.2397 0.3436 -0.9080
vn 0.5094 0.7578 -0.4077
vn -0.6283 0.5200 0.5787
vn 0.5160 0.6492 0.5588
vn 0.5022 0.6270 -0.5955
vn -0.6482 0.4984 -0.5757
vn 0.6283 -0.5117 -0.5860
vn -0.5191 -0.6400 -0.5666
vn -0.4994 -0.6364 0.5879
vn 0.6479 -0.5069 0.5686
vn 0.3629 0.7323 0.5762
vn 0.3910 0.7162 -0.5781
vn -0.7135 0.3666 -0.5971
vn -0.7348 0.3869 0.5571
vn 0.7336 -0.3746 -0.5671
vn -0.3673 -0.7227 -0.5856
vn 0.7150 -0.3791 0.5874
vn -0.3862 -0.7260 0.5690
vn -0.6600 0.3299 0.6749
vn -0.4249 -0.7799 0.4595
vn 0.7047 -0.5406 0.4595
vn 0.4696 0.5692 0.6749
vn 0.6600 -0.3299 -0.6749
vn 0.4249 0.7799 -0.4595
vn -0.7047 0.5406 -0.4595
vn -0.4696 -0.5692 -0.6749
vn 0.1225 0.8768 0.4650
vn 0.4908 -0.8619 0.1274
vn 0.7247 -0.5291 0.4414
vn 0.4911 0.5737 0.6555
vn 0.6380 -0.3349 -0.6934
vn 0.4013 0.7822 -0.4766
vn -0.1713 0.8087 -0.5628
vn -0.2036 0.9611 0.1866
vn 0.5133 0.6030 0.6107
vn 0.7532 -0.5291 0.3909
vn -0.0112 0.5586 0.8294
vn -0.1121 0.5290 0.8412
vn 0.1166 -0.5505 -0.8266
vn 0.2036 -0.9611 -0.1866
vn 0.2713 -0.7752 0.5704
vn 0.1682 -0.7939 0.5844
vn 0.0663 -0.8187 0.5704
vn -0.2162 0.5152 0.8294
vn -0.4675 0.7518 0.4650
vn -0.7137 0.3430 0.6107
vn -0.4739 -0.7891 0.3909
vn -0.0991 -0.9869 0.1274
vn -0.6815 0.3253 0.6555
vn -0.4479 -0.7775 0.4414
vn -0.6840 0.5523 -0.4766
vn -0.4474 -0.5648 -0.6934
vn -0.4251 -0.7789 0.4610
vn 0.7045 -0.5396 0.4610
vn 0.4693 0.5706 0.6739
vn -0.6604 0.3313 0.6739
vn 0.6603 -0.3313 -0.6739
vn 0.4251 0.7789 -0.4610
vn -0.4693 -0.5706 -0.6739
vn -0.7045 0.5396 -0.4610
vn -0.6615 0.3369 0.6700
vn 0.4681 0.5762 0.6700
vn 0.4770 0.8379 0.2653
vn -0.7758 0.5725 0.2653
vn -0.4260 -0.7751 0.4666
vn 0.7037 -0.5358 0.4666
vn -0.4672 -0.8842 -0.0011
vn -0.6752 0.5451 0.4970
vn -0.3691 -0.8998 0.2327
vn 0.3962 0.7720 0.4970
vn 0.7856 -0.6188 -0.0011
vn 0.7023 -0.6728 0.2327
vn -0.4338 -0.8477 0.3053
vn 0.7403 -0.5990 0.3053
vn 0.4652 0.6993 0.5427
vn -0.5120 -0.8473 0.1410
vn 0.8116 -0.5669 0.1410
vn 0.5314 0.7556 0.3829
vn 0.8449 -0.5348 0.0097
vn 0.5651 0.7858 0.2512
vn -0.5555 -0.8315 0.0097
vn -0.8352 0.4892 0.2512
vn -0.7922 0.4752 0.3829
vn -0.7088 0.4506 0.5427
vn 0.5654 0.8140 0.1334
vn -0.8469 0.5148 0.1334
vn -0.5646 -0.8180 -0.1104
vn -0.8454 0.5329 0.0363
vn -0.5630 -0.8000 -0.2074
vn 0.5566 0.8300 0.0363
vn 0.8477 -0.5188 -0.1104
vn 0.8390 -0.5030 -0.2074
vn -0.5416 -0.7987 -0.2622
vn 0.8189 -0.5105 -0.2622
vn -0.8292 0.5588 -0.0139
vn -0.5395 -0.7949 -0.2776
vn 0.8155 -0.5078 -0.2776
vn -0.8269 0.5616 -0.0296
vn 0.5314 0.8470 -0.0139
vn 0.5281 0.8487 -0.0296
vn 0.5209 0.8534 -0.0207
vn -0.8222 0.5689 -0.0207
vn 0.8113 -0.5178 -0.2714
vn 0.8182 -0.5190 -0.2475
vn 0.5284 0.8490 0.0027
vn -0.8272 0.5618 0.0027
vn -0.5317 -0.8023 -0.2714
vn -0.5374 -0.8062 -0.2475
vn -0.5343 -0.8188 -0.2101
vn 0.8204 -0.5318 -0.2101
vn -0.8266 0.5611 0.0423
vn -0.5387 -0.8274 -0.1585
vn 0.8280 -0.5379 -0.1585
vn -0.8304 0.5493 0.0933
vn 0.5281 0.8481 0.0423
vn 0.5363 0.8389 0.0933
vn 0.5463 0.8293 0.1176
vn -0.8356 0.5365 0.1176
vn 0.8351 -0.5341 -0.1317
vn 0.8353 -0.5349 -0.1270
vn 0.5465 0.8285 0.1223
vn -0.8355 0.5357 0.1223
vn -0.5468 -0.8268 -0.1317
vn -0.5467 -0.8277 -0.1270
vn -0.4681 -0.5762 -0.6700
vn 0.6615 -0.3369 -0.6700
vn -0.7037 0.5358 -0.4667
vn 0.4260 0.7751 -0.4667
vn -0.6919 0.4803 0.5390
vn -0.4531 -0.6470 0.6133
vn 0.6765 -0.4076 0.6133
vn 0.4377 0.7196 0.5390
vn 0.6919 -0.4803 -0.5390
vn 0.4531 0.6469 -0.6133
vn -0.6765 0.4076 -0.6133
vn -0.4377 -0.7196 -0.5390
vn -0.4531 -0.6469 0.6133
vn -0.6285 0.5113 0.5861
vn 0.5188 0.6403 0.5665
vn 0.4995 0.6362 -0.5881
vn -0.6478 0.5072 -0.5684
vn 0.6285 -0.5113 -0.5861
vn -0.5188 -0.6403 -0.5665
vn -0.4995 -0.6362 0.5881
vn 0.6478 -0.5072 0.5684
vn 0.3672 0.7222 0.5861
vn 0.3865 0.7263 -0.5684
vn -0.7145 0.3790 -0.5881
vn -0.7339 0.3749 0.5665
vn 0.7339 -0.3749 -0.5665
vn -0.3672 -0.7222 -0.5861
vn 0.7145 -0.3790 0.5881
vn -0.3865 -0.7263 0.5684
vn 0.4803 0.6585 0.5794
vn -0.7029 0.4125 0.5795
vn -0.5860 -0.5426 0.6019
vn 0.7542 -0.2579 0.6039
vn 0.4691 0.6790 -0.5648
vn -0.7007 0.4358 -0.5649
vn 0.7379 -0.2127 -0.6405
vn 0.3906 -0.6940 0.6048
vn 0.3641 -0.6294 -0.6865
vn -0.0731 -0.7929 0.6049
vn -0.5898 -0.4926 -0.6399
vn -0.0749 -0.7223 -0.6876
vn 0.6631 -0.4867 0.5688
vn 0.6604 -0.4507 -0.6006
vn 0.4674 0.7008 -0.5389
vn 0.4915 0.6311 0.6002
vn -0.6954 0.3941 0.6010
vn -0.4141 -0.7107 0.5686
vn -0.4268 -0.6766 -0.6001
vn -0.7050 0.4639 -0.5364
vn 0.6594 -0.5093 0.5529
vn 0.6649 -0.4450 -0.5999
vn 0.4874 0.6319 -0.6026
vn 0.4684 0.6911 0.5504
vn -0.7025 0.4550 0.5472
vn -0.4142 -0.7227 0.5533
vn -0.4373 -0.6676 -0.6026
vn -0.6923 0.3968 -0.6027
vn 0.6594 -0.4415 0.6085
vn 0.6576 -0.5008 -0.5627
vn 0.4562 0.7340 -0.5031
vn 0.5041 0.5969 0.6241
vn -0.6974 0.3532 0.6237
vn -0.4348 -0.6619 0.6106
vn -0.4156 -0.7143 -0.5631
vn -0.7055 0.5000 -0.5022
vn 0.6664 -0.5549 0.4980
vn 0.6594 -0.3933 -0.6407
vn 0.4515 0.7548 -0.4758
vn 0.5171 0.5429 0.6617
vn -0.6831 0.3091 0.6617
vn -0.3941 -0.7707 0.5007
vn -0.4557 -0.6183 -0.6403
vn -0.7071 0.5277 -0.4706
vn -0.4659 -0.6484 -0.6021
vn 0.6888 -0.4038 -0.6021
vn 0.6819 -0.4785 0.5532
vn -0.4293 -0.7139 0.5532
vn 0.4388 0.6929 -0.5721
vn 0.4485 0.6813 0.5785
vn -0.6863 0.4409 0.5785
vn -0.6821 0.4555 -0.5721
vn -0.6789 0.4174 0.6040
vn -0.4392 -0.7108 0.5494
vn 0.6897 -0.4717 0.5494
vn 0.4514 0.6568 0.6040
vn 0.6789 -0.4174 -0.6040
vn 0.4392 0.7108 -0.5494
vn -0.6897 0.4717 -0.5494
vn -0.4514 -0.6568 -0.6040
vt 0.260220 0.704599
vt 0.271953 0.704599
vt 0.271953 0.918768
vt 0.260220 0.918768
vt 0.986617 0.063677
vt 0.998350 0.063597
vt 0.998350 0.120909
vt 0.986617 0.120989
vt 0.340998 0.918768
vt 0.340998 0.704599
vt 0.398309 0.704599
vt 0.398309 0.918768
vt 0.998345 0.058955
vt 0.986612 0.058876
vt 0.986612 0.001564
vt 0.998345 0.001644
vt 0.329265 0.918768
vt 0.329265 0.704599
vt 0.992174 0.420907
vt 0.993080 0.758638
vt 0.985887 0.758596
vt 0.984992 0.420920
vt 0.979222 0.359856
vt 0.988460 0.362552
vt 0.991593 0.408322
vt 0.984138 0.408339
vt 0.454208 0.430860
vt 0.445854 0.423392
vt 0.449999 0.424098
vt 0.453057 0.426831
vt 0.988400 0.813226
vt 0.979269 0.815523
vt 0.984886 0.771069
vt 0.992349 0.771109
vt 0.792598 0.365439
vt 0.792598 0.712102
vt 0.782975 0.711966
vt 0.783187 0.365717
vt 0.991877 0.412539
vt 0.984559 0.412554
vt 0.992089 0.416690
vt 0.984870 0.416704
vt 0.992993 0.762828
vt 0.985764 0.762786
vt 0.992728 0.766921
vt 0.985400 0.766881
vt 0.738596 0.361351
vt 0.730202 0.368812
vt 0.731364 0.364784
vt 0.734436 0.362054
vt 0.730155 0.713407
vt 0.727152 0.710525
vt 0.726090 0.706443
vt 0.734294 0.714315
vt 0.449581 0.776416
vt 0.457776 0.768551
vt 0.403754 0.774156
vt 0.403754 0.427493
vt 0.453711 0.775512
vt 0.456710 0.772633
vt 0.514662 0.007202
vt 0.512075 0.091187
vt 0.501141 0.007138
vt 0.531397 0.007949
vt 0.531433 0.091879
vt 0.880168 0.683927
vt 0.880199 0.700713
vt 0.874580 0.700764
vt 0.874549 0.683978
vt 0.510170 0.003846
vt 0.487621 0.007077
vt 0.492143 0.003763
vt 0.482788 0.091190
vt 0.501167 0.001559
vt 0.496658 0.002007
vt 0.505672 0.002048
vt 0.560617 0.092674
vt 0.579973 0.091535
vt 0.584009 0.175632
vt 0.561866 0.176783
vt 0.509675 0.175368
vt 0.479619 0.175381
vt 0.558435 0.008664
vt 0.575128 0.007475
vt 0.544914 0.008304
vt 0.531875 0.176036
vt 0.554016 0.005210
vt 0.535990 0.004734
vt 0.549556 0.003313
vt 0.545061 0.002726
vt 0.540542 0.003075
vt 0.869725 0.700790
vt 0.869694 0.684003
vt 0.865183 0.700796
vt 0.865152 0.684009
vt 0.860642 0.700788
vt 0.860611 0.684002
vt 0.855786 0.700761
vt 0.855755 0.683975
vt 0.850167 0.700713
vt 0.850136 0.683927
vt 0.532900 0.301978
vt 0.505580 0.300522
vt 0.564030 0.302188
vt 0.474431 0.299733
vt 0.535504 0.425725
vt 0.496908 0.425177
vt 0.465407 0.425013
vt 0.591114 0.299722
vt 0.606361 0.424669
vt 0.567275 0.425896
vt 0.601138 0.552830
vt 0.566407 0.553004
vt 0.534786 0.552723
vt 0.500101 0.551911
vt 0.534650 0.675164
vt 0.503720 0.675432
vt 0.563508 0.675256
vt 0.468424 0.552915
vt 0.474890 0.676314
vt 0.506787 0.782053
vt 0.479749 0.782830
vt 0.534361 0.780894
vt 0.473381 0.140109
vt 0.473743 0.168992
vt 0.470113 0.165387
vt 0.470040 0.143724
vt 0.444297 0.168992
vt 0.447938 0.165580
vt 0.447500 0.143505
vt 0.444000 0.140089
vt 0.594474 0.676240
vt 0.588975 0.782773
vt 0.561416 0.780978
vt 0.795700 0.698485
vt 0.795700 0.675649
vt 0.818022 0.675649
vt 0.818022 0.698485
vt 0.067537 0.776478
vt 0.067574 0.692549
vt 0.081054 0.776124
vt 0.050803 0.777226
vt 0.048216 0.693240
vt 0.072131 0.779694
vt 0.862193 0.301395
vt 0.867811 0.301445
vt 0.867780 0.318231
vt 0.862162 0.318181
vt 0.096758 0.691753
vt 0.094575 0.775763
vt 0.090157 0.779218
vt 0.076683 0.781352
vt 0.081202 0.781702
vt 0.085696 0.781114
vt 0.116114 0.692892
vt 0.111269 0.776952
vt 0.068016 0.608392
vt 0.098007 0.607645
vt 0.120149 0.608796
vt 0.018929 0.693238
vt 0.015760 0.609047
vt 0.045816 0.609060
vt 0.037282 0.777289
vt 0.023762 0.777351
vt 0.028284 0.780664
vt 0.046311 0.780581
vt 0.032798 0.782421
vt 0.037307 0.782868
vt 0.041812 0.782379
vt 0.872667 0.301471
vt 0.872636 0.318257
vt 0.877208 0.301477
vt 0.877178 0.318263
vt 0.881750 0.301470
vt 0.881719 0.318256
vt 0.886606 0.301443
vt 0.886575 0.318229
vt 0.892224 0.301395
vt 0.892194 0.318181
vt 0.041721 0.483906
vt 0.069041 0.482450
vt 0.010571 0.484695
vt 0.100171 0.482240
vt 0.033048 0.359251
vt 0.071645 0.358703
vt 0.103416 0.358532
vt 0.142502 0.359759
vt 0.127255 0.484706
vt 0.001548 0.359415
vt 0.004565 0.231513
vt 0.036242 0.232517
vt 0.102548 0.231424
vt 0.137279 0.231598
vt 0.011031 0.108114
vt 0.039860 0.108996
vt 0.099649 0.109171
vt 0.130615 0.108188
vt 0.015890 0.001598
vt 0.042928 0.002375
vt 0.097557 0.003450
vt 0.125116 0.001654
vt 0.447693 0.211960
vt 0.447620 0.233623
vt 0.443990 0.237228
vt 0.444352 0.208345
vt 0.473733 0.208325
vt 0.470232 0.211741
vt 0.469795 0.233816
vt 0.473436 0.237228
vt 0.070502 0.003534
vt 0.070791 0.109263
vt 0.070926 0.231705
vt 0.843448 0.700554
vt 0.821126 0.700554
vt 0.821126 0.677718
vt 0.843448 0.677718
vt 0.861196 0.355744
vt 0.820689 0.356864
vt 0.818522 0.268176
vt 0.856064 0.266725
vt 0.901562 0.264156
vt 0.901562 0.296600
vt 0.860973 0.296600
vt 0.860973 0.264156
vt 0.720358 0.266799
vt 0.750633 0.269034
vt 0.747809 0.358208
vt 0.715509 0.355821
vt 0.816351 0.179417
vt 0.850968 0.177683
vt 0.725178 0.177758
vt 0.753398 0.179769
vt 0.788329 0.358280
vt 0.788188 0.269510
vt 0.788063 0.180627
vt 0.756053 0.090214
vt 0.787883 0.091432
vt 0.814440 0.090455
vt 0.729559 0.088559
vt 0.732951 0.001642
vt 0.758629 0.003100
vt 0.787410 0.004740
vt 0.471486 0.271973
vt 0.443979 0.272269
vt 0.447553 0.268649
vt 0.467840 0.268632
vt 0.468047 0.244987
vt 0.471493 0.241431
vt 0.443979 0.241774
vt 0.447363 0.245457
vt 0.846135 0.088521
vt 0.813114 0.003884
vt 0.841898 0.001672
vt 0.907259 0.683916
vt 0.907259 0.704791
vt 0.883284 0.704791
vt 0.883284 0.683916
vt 0.729746 0.004089
vt 0.724615 0.093109
vt 0.687073 0.091657
vt 0.689240 0.002970
vt 0.858835 0.226937
vt 0.899424 0.226937
vt 0.899424 0.259381
vt 0.858835 0.259381
vt 0.588909 0.093035
vt 0.584059 0.004012
vt 0.616359 0.001625
vt 0.619183 0.090800
vt 0.719518 0.182151
vt 0.684902 0.180417
vt 0.593729 0.182076
vt 0.621948 0.180064
vt 0.656738 0.090323
vt 0.656879 0.001554
vt 0.656614 0.179207
vt 0.656433 0.268402
vt 0.624603 0.269620
vt 0.682991 0.269379
vt 0.598109 0.271275
vt 0.601502 0.358192
vt 0.627179 0.356733
vt 0.655961 0.355094
vt 0.467842 0.176830
vt 0.447555 0.176813
vt 0.443980 0.173193
vt 0.471488 0.173490
vt 0.471495 0.204032
vt 0.468049 0.200475
vt 0.447365 0.200005
vt 0.443980 0.203688
vt 0.714685 0.271313
vt 0.710449 0.358162
vt 0.681665 0.355950
vt 0.683727 0.700463
vt 0.707702 0.700463
vt 0.707702 0.721338
vt 0.683727 0.721338
vt 0.998011 0.183707
vt 0.986618 0.183707
vt 0.986618 0.125614
vt 0.998011 0.125614
vt 0.145600 0.363645
vt 0.145600 0.352251
vt 0.444149 0.352251
vt 0.444149 0.363645
vt 0.444149 0.421738
vt 0.145600 0.421738
vt 0.444149 0.282765
vt 0.444149 0.294158
vt 0.145600 0.294158
vt 0.145600 0.282765
vt 0.998008 0.245741
vt 0.986614 0.245741
vt 0.986614 0.187648
vt 0.998008 0.187648
vt 0.458641 0.276568
vt 0.458641 0.334661
vt 0.447248 0.334661
vt 0.447248 0.276568
vt 0.142326 0.198190
vt 0.440874 0.198190
vt 0.440874 0.209583
vt 0.142326 0.209583
vt 0.142326 0.140097
vt 0.440874 0.140097
vt 0.440875 0.279070
vt 0.142326 0.279070
vt 0.142326 0.267676
vt 0.440875 0.267676
vt 0.447255 0.396695
vt 0.447255 0.338602
vt 0.458648 0.338602
vt 0.458648 0.396695
vt 0.893240 0.222289
vt 0.879590 0.222289
vt 0.879590 0.001548
vt 0.893240 0.001548
vt 0.902526 0.226937
vt 0.916176 0.226937
vt 0.916176 0.249829
vt 0.902526 0.249829
vt 0.916131 0.001548
vt 0.916131 0.222289
vt 0.998260 0.351152
vt 0.984610 0.351152
vt 0.984610 0.328260
vt 0.998260 0.328260
vt 0.929781 0.001548
vt 0.929781 0.222289
vt 0.856698 0.222289
vt 0.856698 0.001548
vt 0.792114 0.994408
vt 0.792114 0.981673
vt 0.848111 0.981673
vt 0.848111 0.994408
vt 0.886258 0.981673
vt 0.886258 0.994408
vt 0.237843 0.833698
vt 0.183171 0.833698
vt 0.184546 0.795646
vt 0.240542 0.795646
vt 0.132483 0.833698
vt 0.132481 0.795646
vt 0.784835 0.994408
vt 0.784835 0.981673
vt 0.132477 0.777496
vt 0.184546 0.788367
vt 0.126437 0.833698
vt 0.126438 0.795646
vt 0.126438 0.776974
vt 0.126437 0.846433
vt 0.132483 0.846433
vt 0.183171 0.846433
vt 0.132481 0.884485
vt 0.126437 0.884485
vt 0.184546 0.884485
vt 0.237843 0.846433
vt 0.240542 0.884485
vt 0.132477 0.902635
vt 0.126437 0.903157
vt 0.184546 0.891764
vt 0.731644 0.981673
vt 0.731644 0.994408
vt 0.725582 0.994408
vt 0.725582 0.981673
vt 0.120398 0.902635
vt 0.120394 0.884485
vt 0.719520 0.994408
vt 0.719520 0.981673
vt 0.120394 0.795646
vt 0.120398 0.777496
vt 0.068329 0.795646
vt 0.068329 0.788367
vt 0.666329 0.994408
vt 0.666329 0.981673
vt 0.659050 0.994408
vt 0.659050 0.981673
vt 0.603053 0.994408
vt 0.603053 0.981673
vt 0.069704 0.833698
vt 0.015032 0.833698
vt 0.012333 0.795646
vt 0.120392 0.833698
vt 0.015032 0.846433
vt 0.069704 0.846433
vt 0.068329 0.884485
vt 0.012333 0.884485
vt 0.120392 0.846433
vt 0.068329 0.891764
vt 0.564906 0.994408
vt 0.564906 0.981673
vt 0.007960 0.020161
vt 0.007960 0.034865
vt 0.001551 0.034865
vt 0.001551 0.020161
vt 0.305316 0.959157
vt 0.535251 0.959156
vt 0.535250 0.965566
vt 0.305316 0.965565
vt 0.305316 0.944453
vt 0.535251 0.944452
vt 0.535251 0.986678
vt 0.305316 0.986678
vt 0.305316 0.980269
vt 0.535250 0.980270
vt 0.845728 0.016252
vt 0.845728 0.001548
vt 0.852137 0.001548
vt 0.852137 0.016252
vt 0.846635 0.020160
vt 0.853044 0.020160
vt 0.853044 0.034863
vt 0.846635 0.034863
vt 0.961292 0.971748
vt 0.954883 0.971748
vt 0.954883 0.741814
vt 0.961292 0.741813
vt 0.975996 0.741813
vt 0.975997 0.971748
vt 0.933770 0.741813
vt 0.940179 0.741814
vt 0.940179 0.971748
vt 0.933770 0.971748
vt 0.001552 0.001555
vt 0.007962 0.001555
vt 0.007962 0.016259
vt 0.001552 0.016259
vt 0.705176 0.965314
vt 0.705176 0.912680
vt 0.733594 0.912680
vt 0.733594 0.965314
vt 0.054183 0.989943
vt 0.054183 0.998410
vt 0.001549 0.998410
vt 0.001549 0.989943
vt 0.082600 0.989943
vt 0.082600 0.998410
vt 0.085741 0.989943
vt 0.085741 0.998410
vt 0.736471 0.911419
vt 0.736471 0.966575
vt 0.924434 0.255360
vt 0.977068 0.255360
vt 0.978329 0.258237
vt 0.923173 0.258236
vt 0.977068 0.226942
vt 0.924434 0.226942
vt 0.533387 0.989943
vt 0.533387 0.998410
vt 0.530246 0.998410
vt 0.530246 0.989943
vt 0.561805 0.989943
vt 0.561805 0.998410
vt 0.982650 0.262632
vt 0.918852 0.262632
vt 0.524082 0.998410
vt 0.524082 0.989943
vt 0.985630 0.268524
vt 0.915872 0.268524
vt 0.517480 0.998410
vt 0.517480 0.989943
vt 0.508896 0.998410
vt 0.508896 0.989943
vt 0.988012 0.276770
vt 0.913490 0.276770
vt 0.755004 0.901736
vt 0.755004 0.976258
vt 0.746758 0.973876
vt 0.746758 0.904118
vt 0.740866 0.970896
vt 0.740866 0.907098
vt 0.107091 0.989943
vt 0.107091 0.998410
vt 0.098508 0.998410
vt 0.098508 0.989943
vt 0.091905 0.998410
vt 0.091905 0.989943
vt 0.763193 0.901039
vt 0.763193 0.976955
vt 0.115309 0.989943
vt 0.115309 0.998410
vt 0.125788 0.989943
vt 0.125788 0.998410
vt 0.773657 0.901589
vt 0.773657 0.976405
vt 0.912793 0.284959
vt 0.988709 0.284958
vt 0.988159 0.295423
vt 0.913343 0.295423
vt 0.986155 0.305901
vt 0.915347 0.305901
vt 0.136456 0.989943
vt 0.136456 0.998410
vt 0.983933 0.316370
vt 0.917569 0.316370
vt 0.147158 0.989943
vt 0.147158 0.998410
vt 0.479531 0.989943
vt 0.479531 0.998410
vt 0.468829 0.998410
vt 0.468829 0.989943
vt 0.490200 0.989943
vt 0.490200 0.998410
vt 0.794604 0.905815
vt 0.794604 0.972179
vt 0.784136 0.974401
vt 0.784136 0.903593
vt 0.500678 0.989943
vt 0.500678 0.998410
vt 0.808087 0.909030
vt 0.808087 0.968964
vt 0.454969 0.998410
vt 0.454969 0.989943
vt 0.442418 0.998410
vt 0.442418 0.989943
vt 0.820408 0.911420
vt 0.820408 0.966574
vt 0.920784 0.329853
vt 0.980718 0.329853
vt 0.978328 0.342174
vt 0.923174 0.342174
vt 0.161019 0.998410
vt 0.161019 0.989943
vt 0.173570 0.989943
vt 0.173570 0.998410
vt 0.975914 0.356804
vt 0.925589 0.356805
vt 0.188399 0.989943
vt 0.188399 0.998410
vt 0.974998 0.368029
vt 0.926504 0.368030
vt 0.199661 0.989943
vt 0.199661 0.998410
vt 0.427589 0.989943
vt 0.427589 0.998410
vt 0.416327 0.998410
vt 0.416327 0.989943
vt 0.846264 0.914750
vt 0.846264 0.963244
vt 0.835039 0.964159
vt 0.835039 0.913835
vt 0.860485 0.914941
vt 0.860485 0.963053
vt 0.402104 0.998410
vt 0.402104 0.989943
vt 0.382591 0.998410
vt 0.382591 0.989943
vt 0.879998 0.915073
vt 0.879998 0.962921
vt 0.926695 0.382251
vt 0.974807 0.382251
vt 0.974675 0.401764
vt 0.926827 0.401764
vt 0.233397 0.989943
vt 0.233397 0.998410
vt 0.213884 0.998410
vt 0.213884 0.989943
vt 0.974675 0.452437
vt 0.926827 0.452437
vt 0.284070 0.989943
vt 0.284070 0.998410
vt 0.331918 0.989943
vt 0.331918 0.998410
vt 0.930671 0.915073
vt 0.930671 0.962921
vt 0.377911 0.425448
vt 0.389644 0.425448
vt 0.389644 0.699658
vt 0.377911 0.699658
vt 0.916328 0.326194
vt 0.916328 0.337927
vt 0.863350 0.337927
vt 0.863350 0.326194
vt 0.324933 0.699658
vt 0.324933 0.425448
vt 0.013288 0.681070
vt 0.001555 0.681070
vt 0.001555 0.628092
vt 0.013288 0.628092
vt 0.313200 0.699658
vt 0.313200 0.425448
vt 0.260222 0.699658
vt 0.260222 0.425448
vt 0.950968 0.462664
vt 0.962701 0.462664
vt 0.962701 0.736874
vt 0.950968 0.736874
vt 0.466508 0.148363
vt 0.466508 0.160096
vt 0.450954 0.160096
vt 0.450954 0.148363
vt 0.935414 0.736874
vt 0.935414 0.462664
vt 0.450790 0.228337
vt 0.450790 0.216604
vt 0.466344 0.216604
vt 0.466344 0.228337
vt 0.923681 0.736874
vt 0.923681 0.462664
vt 0.978255 0.462664
vt 0.978256 0.736874
vt 0.447246 0.400636
vt 0.458719 0.400636
vt 0.458719 0.414373
vt 0.447246 0.414373
vt 0.702071 0.890693
vt 0.702071 0.902166
vt 0.401406 0.902166
vt 0.401406 0.890694
vt 0.401406 0.941114
vt 0.401406 0.927377
vt 0.702071 0.927376
vt 0.702071 0.941114
vt 0.401406 0.915904
vt 0.702071 0.915904
vt 0.998454 0.263425
vt 0.986982 0.263425
vt 0.986982 0.249687
vt 0.998454 0.249687
vt 0.471505 0.673575
vt 0.471505 0.687313
vt 0.460033 0.687313
vt 0.460033 0.673575
vt 0.001549 0.923774
vt 0.302216 0.923774
vt 0.302216 0.935247
vt 0.001549 0.935246
vt 0.302216 0.974194
vt 0.001549 0.974195
vt 0.001549 0.960457
vt 0.302216 0.960456
vt 0.001549 0.948984
vt 0.302216 0.948984
vt 0.909061 0.312854
vt 0.895324 0.312854
vt 0.895324 0.301381
vt 0.909061 0.301381
vt 0.915342 0.794365
vt 0.600355 0.794358
vt 0.604801 0.733920
vt 0.910818 0.734897
vt 0.915368 0.803381
vt 0.600328 0.803381
vt 0.920385 0.735745
vt 0.924359 0.794360
vt 0.898092 0.725769
vt 0.904515 0.718527
vt 0.917191 0.727712
vt 0.617782 0.724866
vt 0.598524 0.726644
vt 0.611459 0.717533
vt 0.591332 0.794377
vt 0.595233 0.734811
vt 0.712117 0.866561
vt 0.699391 0.875675
vt 0.418894 0.876556
vt 0.405911 0.867513
vt 0.716573 0.807980
vt 0.401534 0.807980
vt 0.699323 0.885355
vt 0.419013 0.886239
vt 0.906392 0.671247
vt 0.906420 0.680044
vt 0.859817 0.681409
vt 0.860275 0.673631
vt 0.864287 0.358987
vt 0.914260 0.363998
vt 0.923060 0.364198
vt 0.915186 0.671498
vt 0.806001 0.669984
vt 0.806001 0.362582
vt 0.856434 0.358825
vt 0.852485 0.673581
vt 0.864301 0.351133
vt 0.914709 0.355207
vt 0.468286 0.009544
vt 0.476263 0.009994
vt 0.480951 0.067748
vt 0.471904 0.069112
vt 0.140726 0.069236
vt 0.145794 0.009606
vt 0.145728 0.001554
vt 0.468334 0.001554
vt 0.468381 0.136103
vt 0.145776 0.136382
vt 0.140800 0.078282
vt 0.471842 0.078263
vt 0.137744 0.009772
vt 0.131797 0.067781
vt 0.618365 0.369638
vt 0.617267 0.360753
vt 0.668304 0.359331
vt 0.666858 0.366560
vt 0.665790 0.697949
vt 0.618264 0.693786
vt 0.609412 0.693715
vt 0.609412 0.369700
vt 0.725163 0.370035
vt 0.723142 0.694044
vt 0.673191 0.698104
vt 0.674230 0.366487
vt 0.617045 0.702554
vt 0.667089 0.705236
vt 0.143601 0.436678
vt 0.144665 0.429418
vt 0.197298 0.425596
vt 0.195099 0.434698
vt 0.190669 0.772549
vt 0.134558 0.766288
vt 0.127191 0.766217
vt 0.136269 0.436381
vt 0.257122 0.438160
vt 0.257122 0.768121
vt 0.199823 0.772942
vt 0.204465 0.434690
vt 0.135197 0.773629
vt 0.192144 0.781592
vt 0.724852 0.843237
vt 0.920384 0.843237
vt 0.920326 0.852130
vt 0.724910 0.852130
vt 0.929061 0.853797
vt 0.928440 0.889050
vt 0.920192 0.888239
vt 0.725044 0.888239
vt 0.716797 0.889050
vt 0.716175 0.853797
vt 0.725028 0.807979
vt 0.920208 0.807979
vt 0.920208 0.896526
vt 0.725028 0.896526
vt 0.946464 0.001554
vt 0.958197 0.001554
vt 0.958198 0.215723
vt 0.946465 0.215723
vt 0.464216 0.181448
vt 0.464292 0.193181
vt 0.450714 0.193181
vt 0.450638 0.181448
vt 0.932886 0.215723
vt 0.932886 0.001554
vt 0.462354 0.263344
vt 0.450621 0.263268
vt 0.450621 0.249690
vt 0.462354 0.249766
vt 0.983509 0.215723
vt 0.971776 0.215723
vt 0.971776 0.001554
vt 0.983509 0.001554
s 1
usemtl Diffuse_Chair
f 132/215/124 133/216/125 130/217/126 129/218/127
f 129/219/127 130/220/126 136/221/128 131/222/129
f 131/223/129 134/224/130 132/225/124 129/226/127
f 134/227/130 135/228/131 133/229/125 132/230/124
f 131/223/129 136/231/128 135/232/131 134/224/130
f 135/232/131 136/231/128 130/217/126 133/216/125
f 145/233/132 154/234/133 149/235/134 142/236/135
f 137/237/136 138/238/137 146/239/138 141/240/139
f 154/241/133 153/242/140 155/243/141 156/244/142
f 140/245/143 139/246/144 150/247/145 153/248/140
f 140/249/143 138/250/137 137/251/136 139/252/144
f 141/240/139 146/239/138 148/253/146 143/254/147
f 143/254/147 148/253/146 147/255/148 144/256/149
f 144/256/149 147/255/148 145/233/132 142/236/135
f 149/235/134 154/234/133 156/257/142 151/258/150
f 151/258/150 156/257/142 155/259/141 152/260/151
f 152/260/151 155/259/141 153/248/140 150/247/145
f 150/261/145 149/262/134 151/263/150 152/264/151
f 143/265/147 144/266/149 142/267/135 141/268/139
f 137/251/136 141/268/139 150/261/145 139/252/144
f 141/268/139 142/267/135 149/262/134 150/261/145
f 146/269/138 153/242/140 154/241/133 145/270/132
f 138/271/137 140/272/143 153/242/140 146/269/138
f 148/273/146 146/269/138 145/270/132 147/274/148
f 157/275/152 158/276/153 161/277/154
f 159/278/155 172/279/156 158/276/153 157/275/152
f 159/280/155 157/281/152 160/282/157 178/283/158
f 160/284/157 157/275/152 161/277/154
f 161/277/154 162/285/159 166/286/160
f 167/287/161 162/285/159 161/277/154
f 163/288/162 161/277/154 165/289/163
f 164/290/164 161/277/154 163/288/162
f 164/290/164 160/284/157 161/277/154
f 165/289/163 161/277/154 166/286/160
f 158/276/153 167/287/161 161/277/154
f 169/291/165 167/292/161 168/293/166 171/294/167
f 158/276/153 181/295/168 168/296/166 167/287/161
f 170/297/169 162/298/159 167/292/161 169/291/165
f 169/291/165 173/299/170 170/297/169
f 179/300/171 172/279/156 169/291/165 171/294/167
f 169/291/165 172/279/156 173/299/170
f 173/299/170 174/301/172 170/297/169
f 172/279/156 159/278/155 173/299/170
f 159/278/155 178/302/158 173/299/170
f 173/299/170 175/303/173 174/301/172
f 173/299/170 176/304/174 175/303/173
f 173/299/170 177/305/175 176/304/174
f 178/302/158 177/305/175 173/299/170
f 178/283/158 160/282/157 164/306/164 177/307/175
f 177/307/175 164/306/164 163/308/162 176/309/174
f 176/309/174 163/308/162 165/310/163 175/311/173
f 175/311/173 165/310/163 166/312/160 174/313/172
f 174/313/172 166/312/160 162/314/159 170/315/169
f 172/279/156 179/300/171 181/295/168 158/276/153
f 179/300/171 180/316/176 182/317/177 181/295/168
f 180/316/176 179/300/171 171/294/167 186/318/178
f 181/295/168 182/317/177 184/319/179 168/296/166
f 180/316/176 189/320/180 183/321/181 182/317/177
f 182/317/177 183/321/181 185/322/182 184/319/179
f 171/294/167 168/293/166 184/323/179 186/318/178
f 186/318/178 184/323/179 185/324/182 187/325/183
f 189/320/180 180/316/176 186/318/178 187/325/183
f 187/325/183 185/324/182 193/326/184 188/327/185
f 190/328/186 189/320/180 187/325/183 188/327/185
f 183/321/181 189/320/180 190/328/186 192/329/187
f 192/329/187 190/328/186 191/330/188 194/331/189
f 191/330/188 190/328/186 188/327/185 203/332/190
f 183/321/181 192/329/187 193/333/184 185/322/182
f 192/329/187 194/331/189 195/334/191 193/333/184
f 194/331/189 196/335/192 199/336/193 195/334/191
f 194/331/189 191/330/188 198/337/194 196/335/192
f 199/338/193 196/339/192 197/340/195 200/341/196
f 196/339/192 198/342/194 204/343/197 197/340/195
f 200/341/196 202/344/198 201/345/199 199/338/193
f 203/332/190 195/346/191 199/347/193 201/348/199
f 198/342/194 201/345/199 202/344/198 204/343/197
f 198/337/194 191/330/188 203/332/190 201/348/199
f 188/327/185 193/326/184 195/346/191 203/332/190
f 197/349/195 204/350/197 202/351/198 200/352/196
f 205/353/200 206/354/201 209/355/170
f 205/353/200 208/356/202 220/357/203 206/354/201
f 205/353/200 209/355/170 207/358/204
f 205/359/200 207/360/204 226/361/205 208/362/202
f 215/363/206 210/364/207 209/355/170
f 209/355/170 210/364/207 214/365/208
f 207/358/204 209/355/170 211/366/209
f 211/366/209 209/355/170 212/367/210
f 212/367/210 209/355/170 213/368/211
f 213/368/211 209/355/170 214/365/208
f 206/354/201 215/363/206 209/355/170
f 210/364/207 215/363/206 217/369/212 219/370/213
f 229/371/214 216/372/215 215/363/206 206/354/201
f 215/363/206 216/372/215 218/373/216 217/369/212
f 220/357/203 217/374/212 218/375/216 227/376/217
f 217/374/212 221/377/154 219/378/213
f 217/374/212 220/357/203 221/377/154
f 221/377/154 222/379/218 219/378/213
f 220/357/203 208/356/202 221/377/154
f 208/356/202 226/380/205 221/377/154
f 221/377/154 223/381/219 222/379/218
f 221/377/154 224/382/220 223/381/219
f 221/377/154 225/383/221 224/382/220
f 226/380/205 225/383/221 221/377/154
f 207/360/204 211/384/209 225/385/221 226/361/205
f 211/384/209 212/386/210 224/387/220 225/385/221
f 212/386/210 213/388/211 223/389/219 224/387/220
f 213/388/211 214/390/208 222/391/218 223/389/219
f 214/390/208 210/392/207 219/393/213 222/391/218
f 206/354/201 220/357/203 227/376/217 229/371/214
f 229/371/214 227/376/217 228/394/222 230/395/223
f 227/376/217 218/375/216 234/396/224 228/394/222
f 230/395/223 232/397/225 216/372/215 229/371/214
f 230/395/223 228/394/222 236/398/226 231/399/227
f 231/399/227 233/400/228 232/397/225 230/395/223
f 232/397/225 233/400/228 235/401/229 234/402/224
f 216/372/215 232/397/225 234/402/224 218/373/216
f 228/394/222 234/396/224 235/403/229 236/398/226
f 236/398/226 235/403/229 237/404/230 238/405/231
f 233/400/228 239/406/232 237/407/230 235/401/229
f 238/405/231 237/404/230 240/408/233 241/409/234
f 239/406/232 242/410/235 240/411/233 237/407/230
f 241/409/234 240/408/233 243/412/236 246/413/237
f 242/410/235 245/414/238 243/415/236 240/411/233
f 244/416/239 247/417/240 246/418/237 243/419/236
f 243/419/236 245/420/238 252/421/241 244/416/239
f 247/417/240 249/422/242 248/423/243 246/418/237
f 241/409/234 246/413/237 248/424/243 250/425/244
f 249/422/242 252/421/241 245/420/238 248/423/243
f 248/424/243 245/414/238 242/410/235 250/425/244
f 238/405/231 241/409/234 250/425/244 251/426/245
f 250/425/244 242/410/235 239/406/232 251/426/245
f 236/398/226 238/405/231 251/426/245 231/399/227
f 251/426/245 239/406/232 233/400/228 231/399/227
f 247/427/240 244/428/239 252/429/241 249/430/242
f 253/431/246 254/432/247 259/433/248 256/434/249
f 253/435/246 255/436/250 262/437/251 254/438/247
f 256/439/249 258/440/252 255/441/250 253/442/246
f 256/434/249 259/433/248 260/443/253 257/444/249
f 257/445/249 265/446/254 258/440/252 256/439/249
f 254/432/247 262/447/251 261/448/255 259/433/248
f 259/433/248 261/448/255 263/449/256 260/443/253
f 255/441/250 258/440/252 261/448/255 262/447/251
f 258/440/252 265/446/254 263/449/256 261/448/255
f 265/446/254 266/450/257 264/451/258 263/449/256
f 260/443/253 263/449/256 264/451/258 275/452/259
f 267/453/260 266/450/257 265/446/254 257/445/249
f 271/454/261 268/455/262 266/450/257 267/453/260
f 266/450/257 268/455/262 270/456/263 264/451/258
f 268/457/262 271/458/261 272/459/264 269/460/265
f 269/460/265 276/461/266 270/462/263 268/457/262
f 271/458/261 273/463/267 274/464/268 272/459/264
f 267/465/260 275/452/259 273/466/267 271/467/261
f 273/463/267 270/462/263 276/461/266 274/464/268
f 275/452/259 264/451/258 270/456/263 273/466/267
f 257/444/249 260/443/253 275/452/259 267/465/260
f 274/468/268 276/469/266 269/470/265 272/471/264
f 277/472/269 280/473/270 283/474/271 278/475/272
f 277/476/269 278/477/272 286/478/273 279/479/274
f 280/480/270 277/481/269 279/482/274 282/483/275
f 280/473/270 281/484/270 284/485/271 283/474/271
f 281/486/270 280/480/270 282/483/275 289/487/276
f 278/475/272 283/474/271 285/488/277 286/489/273
f 283/474/271 284/485/271 287/490/278 285/488/277
f 279/482/274 286/489/273 285/488/277 282/483/275
f 282/483/275 285/488/277 287/490/278 289/487/276
f 289/487/276 287/490/278 288/491/279 290/492/280
f 284/485/271 299/493/281 288/491/279 287/490/278
f 291/494/282 281/486/270 289/487/276 290/492/280
f 295/495/283 291/494/282 290/492/280 292/496/284
f 290/492/280 288/491/279 294/497/285 292/496/284
f 293/498/286 296/499/287 295/500/283 292/501/284
f 292/501/284 294/502/285 300/503/288 293/498/286
f 296/499/287 298/504/289 297/505/290 295/500/283
f 291/506/282 295/507/283 297/508/290 299/493/281
f 298/504/289 300/503/288 294/502/285 297/505/290
f 299/493/281 297/508/290 294/497/285 288/491/279
f 281/484/270 291/506/282 299/493/281 284/485/271
f 298/509/289 296/510/287 293/511/286 300/512/288
f 304/513/291 305/514/292 302/515/293 301/516/294
f 301/517/294 302/518/293 308/519/295 303/520/296
f 303/520/296 306/521/297 304/522/291 301/517/294
f 306/523/297 307/524/298 305/525/292 304/526/291
f 303/527/296 308/528/295 307/529/298 306/530/297
f 307/524/298 308/519/295 302/518/293 305/525/292
f 312/531/299 309/532/300 310/533/301 313/534/302
f 309/535/300 311/536/303 316/537/304 310/538/301
f 311/536/303 309/535/300 312/539/299 314/540/305
f 314/541/305 312/542/299 313/543/302 315/544/306
f 311/545/303 314/546/305 315/547/306 316/548/304
f 315/544/306 313/543/302 310/538/301 316/537/304
f 320/549/307 321/550/308 318/551/309 317/552/310
f 317/553/310 318/554/309 324/555/311 319/556/312
f 319/557/312 322/558/313 320/549/307 317/552/310
f 322/559/313 323/560/314 321/561/308 320/562/307
f 319/557/312 324/563/311 323/564/314 322/558/313
f 323/565/314 324/566/311 318/551/309 321/550/308
f 328/567/315 330/568/316 326/569/317 325/570/318
f 325/570/318 326/569/317 341/571/319 327/572/320
f 327/573/320 329/574/321 328/575/315 325/576/318
f 329/574/321 335/577/321 332/578/322 328/575/315
f 330/568/316 328/567/315 331/579/323 345/580/324
f 328/575/315 332/578/322 334/581/325 331/582/323
f 336/583/321 333/584/322 332/578/322 335/577/321
f 333/584/322 347/585/326 334/581/325 332/578/322
f 338/586/327 336/583/321 335/577/321 337/587/327
f 329/574/321 340/588/327 337/587/327 335/577/321
f 337/587/327 339/589/328 342/590/328 338/586/327
f 337/587/327 340/588/327 330/591/316 339/589/328
f 327/573/320 341/592/319 340/588/327 329/574/321
f 340/588/327 341/592/319 326/593/317 330/591/316
f 339/589/328 343/594/329 344/595/330 342/590/328
f 339/589/328 330/591/316 345/596/324 343/594/329
f 343/597/329 334/598/325 347/599/326 344/600/330
f 334/598/325 343/597/329 345/580/324 331/579/323
f 342/590/328 344/595/330 346/601/331 358/602/328
f 344/600/330 347/599/326 348/603/332 346/604/331
f 349/605/322 348/606/332 347/585/326 333/584/322
f 349/605/322 352/607/333 350/608/334 348/606/332
f 350/609/334 351/610/335 346/604/331 348/603/332
f 352/611/333 355/612/336 351/610/335 350/609/334
f 353/613/337 356/614/338 355/612/336 352/611/333
f 354/615/321 362/616/339 353/617/337 352/607/333
f 360/618/321 354/615/321 352/607/333 349/605/322
f 361/619/340 357/620/327 355/621/336 356/622/338
f 357/620/327 359/623/327 358/602/328 355/621/336
f 355/621/336 358/602/328 346/601/331 351/624/335
f 338/586/327 342/590/328 358/602/328 359/623/327
f 359/623/327 360/618/321 336/583/321 338/586/327
f 360/618/321 359/623/327 357/620/327 354/615/321
f 360/618/321 349/605/322 333/584/322 336/583/321
f 354/615/321 357/620/327 361/619/340 362/616/339
f 362/625/339 361/626/340 356/614/338 353/613/337
f 366/627/341 363/628/342 364/629/343 367/630/344
f 363/631/342 365/632/345 370/633/346 364/634/343
f 365/632/345 363/631/342 366/635/341 368/636/347
f 368/637/347 366/638/341 367/639/344 369/640/348
f 365/641/345 368/642/347 369/643/348 370/644/346
f 369/640/348 367/639/344 364/634/343 370/633/346
f 374/645/342 375/646/343 372/647/344 371/648/341
f 371/649/341 372/650/344 378/651/348 373/652/347
f 373/652/347 376/653/345 374/654/342 371/649/341
f 376/655/345 377/656/346 375/657/343 374/658/342
f 373/659/347 378/660/348 377/661/346 376/662/345
f 377/656/346 378/651/348 372/650/344 375/657/343
f 379/663/349 380/664/350 384/665/351 382/666/352
f 379/667/349 381/668/353 389/669/354 380/670/350
f 382/671/352 385/672/355 381/668/353 379/667/349
f 383/673/356 386/674/357 385/672/355 382/671/352
f 390/675/358 383/676/356 382/666/352 384/665/351
f 387/677/359 385/678/355 386/679/357 388/680/360
f 381/681/353 385/678/355 387/677/359 389/682/354
f 384/683/351 387/684/359 388/685/360 390/686/358
f 380/687/350 389/688/354 387/684/359 384/683/351
f 386/679/357 392/689/361 391/690/362 388/680/360
f 390/686/358 388/685/360 391/691/362 393/692/363
f 392/689/361 396/693/364 394/694/365 391/690/362
f 393/692/363 391/691/362 394/695/365 397/696/366
f 397/696/366 394/695/365 395/697/367 398/698/368
f 394/694/365 396/693/364 402/699/369 395/700/367
f 398/701/368 400/702/370 399/703/371 397/704/366
f 401/705/372 393/706/363 397/704/366 399/703/371
f 400/707/370 402/708/369 396/709/364 399/710/371
f 399/710/371 396/709/364 392/711/361 401/712/372
f 383/676/356 390/675/358 393/706/363 401/705/372
f 401/712/372 392/711/361 386/674/357 383/673/356
f 400/702/370 398/701/368 405/713/373 403/714/374
f 403/715/374 406/716/375 402/708/369 400/707/370
f 404/717/376 408/718/377 406/716/375 403/715/374
f 417/719/378 404/720/376 403/714/374 405/713/373
f 407/721/379 406/722/375 408/723/377 409/724/380
f 402/699/369 406/722/375 407/721/379 395/700/367
f 408/723/377 410/725/381 413/726/382 409/724/380
f 412/727/383 410/728/381 408/718/377 404/717/376
f 413/726/382 410/725/381 411/729/384 414/730/385
f 418/731/386 411/732/384 410/728/381 412/727/383
f 415/733/387 413/734/382 414/735/385 416/736/388
f 417/737/378 409/738/380 413/734/382 415/733/387
f 416/739/388 418/740/386 412/741/383 415/742/387
f 404/720/376 417/719/378 415/742/387 412/741/383
f 405/743/373 407/744/379 409/738/380 417/737/378
f 418/740/386 416/739/388 419/745/389 421/746/390
f 416/736/388 414/735/385 422/747/391 419/748/389
f 423/749/392 420/750/393 419/748/389 422/747/391
f 420/751/393 426/752/394 421/746/390 419/745/389
f 422/753/391 424/754/395 425/755/396 423/756/392
f 411/729/384 424/754/395 422/753/391 414/730/385
f 424/757/395 421/758/390 426/759/394 425/760/396
f 421/758/390 424/757/395 411/732/384 418/731/386
f 425/755/396 427/761/397 430/762/398 423/756/392
f 429/763/399 427/764/397 425/760/396 426/759/394
f 430/762/398 427/761/397 428/765/400 431/766/401
f 434/767/402 428/768/400 427/764/397 429/763/399
f 432/769/403 430/770/398 431/771/401 433/772/404
f 420/750/393 423/749/392 430/770/398 432/769/403
f 433/773/404 434/774/402 429/775/399 432/776/403
f 426/752/394 420/751/393 432/776/403 429/775/399
f 434/774/402 433/773/404 435/777/405 437/778/406
f 433/772/404 431/771/401 438/779/407 435/780/405
f 435/780/405 438/779/407 439/781/408 436/782/409
f 436/783/409 442/784/410 437/778/406 435/777/405
f 438/785/407 440/786/411 441/787/412 439/788/408
f 428/765/400 440/786/411 438/785/407 431/766/401
f 442/789/410 441/790/412 440/791/411 437/792/406
f 437/792/406 440/791/411 428/768/400 434/767/402
f 441/787/412 443/793/413 445/794/414 439/788/408
f 444/795/415 443/796/413 441/790/412 442/789/410
f 446/797/416 445/798/414 443/796/413 444/795/415
f 436/782/409 439/781/408 445/798/414 446/797/416
f 442/784/410 436/783/409 446/799/416 444/800/415
f 398/698/368 395/697/367 407/744/379 405/743/373
f 450/801/417 451/802/418 448/803/419 447/804/420
f 447/805/420 448/806/419 454/807/421 449/808/422
f 449/809/422 452/810/423 450/801/417 447/804/420
f 452/811/423 453/812/424 451/813/418 450/814/417
f 449/809/422 454/815/421 453/816/424 452/810/423
f 453/816/424 454/815/421 448/817/419 451/818/418
f 458/819/417 459/820/425 456/821/419 455/822/420
f 455/823/420 456/824/419 462/825/421 457/826/422
f 457/827/422 460/828/423 458/819/417 455/822/420
f 460/829/423 461/830/424 459/831/425 458/832/417
f 457/827/422 462/833/421 461/834/424 460/828/423
f 461/835/424 462/836/421 456/821/419 459/820/425
f 466/837/426 467/838/427 464/839/428 463/840/429
f 463/841/429 464/842/428 470/843/430 465/844/431
f 465/845/431 468/846/432 466/847/426 463/848/429
f 468/846/432 469/849/433 467/850/427 466/847/426
f 465/851/431 470/852/430 469/853/433 468/854/432
f 469/849/433 470/843/430 464/842/428 467/850/427
f 474/855/434 471/856/435 472/857/436 475/858/437
f 471/859/435 473/860/438 478/861/439 472/862/436
f 473/863/438 471/864/435 474/865/434 476/866/440
f 476/866/440 474/865/434 475/867/437 477/868/441
f 473/869/438 476/870/440 477/871/441 478/872/439
f 477/868/441 475/867/437 472/862/436 478/861/439
f 479/873/442 480/874/443 485/875/444 482/876/445
f 480/874/443 479/873/442 481/877/446 489/878/447
f 482/876/445 484/879/448 481/880/446 479/873/442
f 483/881/449 490/882/450 484/883/448 482/876/445
f 482/876/445 485/875/444 486/884/451 483/881/449
f 485/875/444 487/885/452 488/886/453 486/884/451
f 485/875/444 480/874/443 489/887/447 487/888/452
f 484/889/448 490/890/450 488/891/453 487/892/452
f 481/893/446 484/889/448 487/892/452 489/894/447
f 490/890/450 483/895/449 486/896/451 488/891/453
f 491/897/454 494/898/455 495/899/456 492/900/457
f 492/900/457 498/901/458 493/902/459 491/897/454
f 493/902/459 496/903/460 494/904/455 491/897/454
f 494/905/455 496/906/460 497/907/461 495/908/456
f 493/902/459 498/901/458 497/909/461 496/910/460
f 498/901/458 492/900/457 495/908/456 497/907/461
f 499/911/462 502/912/463 503/913/464 500/914/465
f 500/914/465 506/915/466 501/916/467 499/911/462
f 501/916/467 504/917/468 502/918/463 499/911/462
f 502/919/463 504/920/468 505/921/469 503/922/464
f 504/923/468 501/916/467 506/915/466 505/924/469
f 505/921/469 506/915/466 500/914/465 503/922/464
f 507/925/470 510/926/471 511/927/472 508/928/473
f 508/928/473 514/929/474 509/930/475 507/925/470
f 512/931/476 510/932/471 507/925/470 509/930/475
f 510/933/471 512/934/476 513/935/477 511/936/472
f 512/937/476 509/930/475 514/929/474 513/938/477
f 513/935/477 514/929/474 508/928/473 511/936/472
f 515/939/478 518/940/479 519/941/480 516/942/481
f 516/942/481 522/943/482 517/944/483 515/939/478
f 520/945/484 518/946/479 515/939/478 517/944/483
f 518/947/479 520/948/484 521/949/485 519/950/480
f 520/951/484 517/944/483 522/943/482 521/952/485
f 521/949/485 522/943/482 516/942/481 519/950/480
f 528/953/486 524/954/487 523/955/488 526/956/489
f 523/955/488 524/957/487 530/958/490 525/959/491
f 526/956/489 523/955/488 525/959/491 527/960/492
f 526/956/489 527/960/492 529/961/493 528/962/486
f 529/963/493 530/964/490 524/954/487 528/953/486
f 527/960/492 525/959/491 530/965/490 529/966/493
f 534/967/494 535/968/495 532/969/496 531/970/497
f 531/971/497 532/972/496 538/973/498 533/974/499
f 533/975/499 536/976/500 534/967/494 531/970/497
f 536/977/500 537/978/501 535/979/495 534/980/494
f 533/981/499 538/982/498 537/983/501 536/984/500
f 537/983/501 538/982/498 532/969/496 535/968/495
