# Blender 3.6.23
# www.blender.org
mtllib scene_0002.mtl
o glass_window_01
v -20.069595 -634.273499 0.127472
v -20.108406 -638.964600 79.989807
v -20.086113 -636.270020 0.010193
v -20.124924 -640.961121 79.872528
v -120.066177 -633.446228 0.127472
v -120.104988 -638.137329 79.989807
v -120.082695 -635.442749 0.010193
v -120.121506 -640.133850 79.872528
vn 1.0000 -0.0083 -0.0000
vn -0.0083 -0.9982 -0.0586
vn -1.0000 0.0083 -0.0000
vn 0.0083 0.9982 0.0586
vn 0.0005 0.0586 -0.9983
vn -0.0005 -0.0586 0.9983
vt 0.375000 0.000000
vt 0.625000 0.000000
vt 0.625000 0.250000
vt 0.375000 0.250000
vt 0.625000 0.500000
vt 0.375000 0.500000
vt 0.625000 0.750000
vt 0.375000 0.750000
vt 0.625000 1.000000
vt 0.375000 1.000000
vt 0.125000 0.500000
vt 0.125000 0.750000
vt 0.875000 0.500000
vt 0.875000 0.750000
s 0
usemtl Glass_Clear
f 1/1/1 2/2/1 4/3/1 3/4/1
f 3/4/2 4/3/2 8/5/2 7/6/2
f 7/6/3 8/5/3 6/7/3 5/8/3
f 5/8/4 6/7/4 2/9/4 1/10/4
f 3/11/5 7/6/5 5/8/5 1/12/5
f 8/5/6 4/13/6 2/14/6 6/7/6
o glass_window_02
v 78.563614 -677.735657 -0.009090
v 77.697388 -674.818359 79.933014
v 79.132492 -679.651550 0.066990
v 78.266266 -676.734192 80.009094
v -17.299734 -706.200012 -0.009090
v -18.165960 -703.282654 79.933014
v -16.730856 -708.115845 0.066990
v -17.597082 -705.198547 80.009094
vn 0.9586 0.2846 -0.0000
vn 0.2844 -0.9579 0.0380
vn -0.9586 -0.2846 -0.0000
vn -0.2844 0.9579 -0.0380
vn 0.0108 -0.0365 -0.9993
vn -0.0108 0.0365 0.9993
vt 0.375000 0.000000
vt 0.625000 0.000000
vt 0.625000 0.250000
vt 0.375000 0.250000
vt 0.625000 0.500000
vt 0.375000 0.500000
vt 0.625000 0.750000
vt 0.375000 0.750000
vt 0.625000 1.000000
vt 0.375000 1.000000
vt 0.125000 0.500000
vt 0.125000 0.750000
vt 0.875000 0.500000
vt 0.875000 0.750000
s 0
usemtl Glass_Clear
f 9/15/7 10/16/7 12/17/7 11/18/7
f 11/18/8 12/17/8 16/19/8 15/20/8
f 15/20/9 16/19/9 14/21/9 13/22/9
f 13/22/10 14/21/10 10/23/10 9/24/10
f 11/25/11 15/20/11 13/22/11 9/26/11
f 16/19/12 12/27/12 10/28/12 14/21/12
o glass_door_03
v 66.906982 -538.747681 -0.006554
v 66.913818 -537.010986 149.983398
v 66.899109 -540.747498 0.016609
v 66.905945 -539.010803 150.006561
v -23.092323 -538.393372 -0.006554
v -23.085487 -536.656677 149.983398
v -23.100197 -540.393188 0.016609
v -23.093361 -538.656494 150.006561
vn 1.0000 -0.0039 -0.0000
vn -0.0039 -0.9999 0.0116
vn -1.0000 0.0039 -0.0000
vn 0.0039 0.9999 -0.0116
vn -0.0000 -0.0116 -0.9999
vn -0.0000 0.0116 0.9999
vt 0.375000 0.000000
vt 0.625000 0.000000
vt 0.625000 0.250000
vt 0.375000 0.250000
vt 0.625000 0.500000
vt 0.375000 0.500000
vt 0.625000 0.750000
vt 0.375000 0.750000
vt 0.625000 1.000000
vt 0.375000 1.000000
vt 0.125000 0.500000
vt 0.125000 0.750000
vt 0.875000 0.500000
vt 0.875000 0.750000
s 0
usemtl Glass_Clear
f 17/29/13 18/30/13 20/31/13 19/32/13
f 19/32/14 20/31/14 24/33/14 23/34/14
f 23/34/15 24/33/15 22/35/15 21/36/15
f 21/36/16 22/35/16 18/37/16 17/38/16
f 19/39/17 23/34/17 21/36/17 17/40/17
f 24/33/18 20/41/18 18/42/18 22/35/18
o diffuse_table_01
v -46.095085 -733.275574 67.171371
v -45.689957 -732.799805 67.171371
v -46.095085 -733.275574 70.518539
v -43.111362 -735.406067 70.867592
v -45.689957 -732.799805 70.518539
v 38.018333 -726.089355 67.171371
v 38.494072 -726.494507 67.171371
v 35.887852 -729.073059 70.867599
v 38.494072 -726.494507 70.518539
v 38.018333 -726.089355 70.518539
v -41.469627 -785.445435 67.171371
v -41.945366 -785.040283 67.171371
v -39.339146 -782.461731 70.867592
v -41.945366 -785.040283 70.518539
v -41.469627 -785.445435 70.518539
v 42.643791 -778.259216 67.171371
v 42.238663 -778.734985 67.171371
v 39.660069 -776.128723 70.867599
v 42.238663 -778.734985 70.518539
v 42.643791 -778.259216 70.518539
v 38.053638 -726.529785 66.859894
v -45.654652 -733.240295 66.859879
v 42.203358 -778.294495 66.859894
v -41.504932 -785.005005 66.859879
v 35.846474 -729.132629 69.326935
v -43.061020 -735.458252 69.326920
v 39.609726 -776.076538 69.326935
v -39.297768 -782.402161 69.326920
v -43.061020 -735.458252 66.986206
v -43.232887 -735.311279 66.859879
v 35.992718 -728.960205 66.859894
v 35.846474 -729.132629 66.986221
v -39.444023 -782.574585 66.859879
v -39.297768 -782.402161 66.986206
v 39.781582 -776.223511 66.859894
v 39.609726 -776.076538 66.986221
v -45.654652 -733.240295 70.867599
v 38.053638 -726.529785 70.867599
v 42.203358 -778.294495 70.867599
v -41.504932 -785.005005 70.867599
v 34.289314 -771.506409 23.617607
v 33.958103 -771.517029 23.865791
v 34.246933 -771.177856 23.865795
v 30.897507 -768.338074 69.350403
v 30.608681 -768.677246 69.350403
v 37.697910 -771.232605 23.632402
v 37.661137 -770.904114 23.865795
v 37.999973 -771.192017 23.880463
v 35.817612 -768.259705 69.350403
v 35.478699 -767.970825 69.350403
v 34.562008 -774.915100 23.632401
v 34.569992 -775.219849 23.880463
v 34.231804 -774.931213 23.865791
v 30.975929 -773.258423 69.350403
v 31.315083 -773.546997 69.350403
v 37.971813 -774.642334 23.778730
v 38.273750 -774.607788 24.041864
v 37.985714 -774.945984 24.041864
v 35.896275 -773.179749 69.350403
v 36.184860 -772.840881 69.350403
v 31.322052 -734.491943 23.617607
v 30.993382 -734.534241 23.865791
v 31.332558 -734.823120 23.865795
v 28.478296 -738.160156 69.350403
v 28.139124 -737.871338 69.350403
v 34.730732 -734.219238 23.632402
v 34.746761 -734.549377 23.865795
v 35.035404 -734.211182 23.880463
v 33.348053 -737.453735 69.350403
v 33.059486 -737.792908 69.350403
v 31.048237 -731.083374 23.632401
v 31.007568 -730.781189 23.880463
v 30.719681 -731.120056 23.865791
v 27.771872 -733.290161 69.350403
v 28.060722 -732.951233 69.350403
v 34.457951 -730.809448 23.778730
v 34.761536 -730.795471 24.041864
v 34.423298 -730.507446 24.041864
v 32.641911 -732.583984 69.350403
v 32.980804 -732.872559 69.350403
v -34.773338 -777.042847 23.617603
v -34.444668 -777.000549 23.865786
v -34.783836 -776.711670 23.865791
v -31.929590 -773.374634 69.350395
v -31.590410 -773.663452 69.350395
v -38.182011 -777.315552 23.632397
v -38.198048 -776.985413 23.865791
v -38.486691 -777.323608 23.880457
v -36.799347 -774.081055 69.350395
v -36.510780 -773.741882 69.350395
v -34.499527 -780.451416 23.632397
v -34.458855 -780.753601 23.880457
v -34.170967 -780.414734 23.865786
v -31.223158 -778.244629 69.350395
v -31.512016 -778.583557 69.350395
v -37.909229 -780.725342 23.778727
v -38.212822 -780.739319 24.041859
v -37.874577 -781.027344 24.041859
v -36.093204 -778.950806 69.350395
v -36.432098 -778.662231 69.350395
v -37.740601 -740.028381 23.617603
v -37.409389 -740.017761 23.865786
v -37.698212 -740.356934 23.865791
v -34.348801 -743.196716 69.350395
v -34.059967 -742.857544 69.350395
v -41.149189 -740.302185 23.632397
v -41.112423 -740.630676 23.865791
v -41.451260 -740.342773 23.880457
v -39.268906 -743.275085 69.350395
v -38.929993 -743.563965 69.350395
v -38.013298 -736.619690 23.632397
v -38.021278 -736.314941 23.880457
v -37.683090 -736.603577 23.865786
v -34.427216 -738.276367 69.350395
v -34.766376 -737.987793 69.350395
v -41.423092 -736.892456 23.778727
v -41.725037 -736.927002 24.041859
v -41.436993 -736.588806 24.041859
v -39.347569 -738.355042 69.350395
v -39.636154 -738.693909 69.350395
vn -0.8204 -0.3987 -0.4098
vn -0.8289 -0.4025 0.3884
vn -0.8825 0.2653 0.3884
vn -0.8734 0.2630 -0.4098
vn 0.3987 -0.8204 -0.4098
vn 0.4025 -0.8289 0.3884
vn -0.2653 -0.8825 0.3884
vn -0.2630 -0.8734 -0.4098
vn -0.0000 -0.0000 1.0000
vn -0.3987 0.8204 -0.4098
vn -0.4025 0.8289 0.3884
vn 0.2653 0.8825 0.3884
vn 0.2630 0.8734 -0.4098
vn 0.8204 0.3987 -0.4098
vn 0.8289 0.4025 0.3884
vn 0.8825 -0.2653 0.3884
vn 0.8734 -0.2630 -0.4098
vn -0.3002 0.2556 -0.9190
vn -0.3224 0.2746 0.9059
vn 0.2556 0.3002 -0.9190
vn 0.2746 0.3224 0.9059
vn -0.2556 -0.3002 -0.9190
vn -0.2746 -0.3224 0.9059
vn 0.3002 -0.2556 -0.9190
vn 0.3224 -0.2746 0.9059
vn 0.4972 0.5828 -0.6428
vn 0.5837 -0.4961 -0.6428
vn 0.6216 -0.5294 -0.5774
vn 0.5294 0.6216 -0.5774
vn 0.0832 0.0978 -0.9917
vn -0.0977 0.0833 -0.9917
vn -0.5837 0.4961 -0.6428
vn -0.6216 0.5294 -0.5774
vn -0.0832 -0.0978 -0.9917
vn 0.0977 -0.0833 -0.9917
vn -0.5294 -0.6216 -0.5774
vn -0.4972 -0.5828 -0.6428
vn -0.8085 -0.4051 -0.4267
vn -0.8963 -0.4408 -0.0479
vn -0.9450 0.3146 -0.0892
vn -0.8585 0.2560 -0.4444
vn 0.4204 -0.8417 -0.3388
vn 0.4491 -0.8918 0.0554
vn -0.3264 -0.9452 0.0114
vn -0.2453 -0.8919 -0.3799
vn 0.8415 0.3843 -0.3797
vn 0.8811 0.4728 0.0118
vn 0.9519 -0.3013 0.0556
vn 0.8980 -0.2809 -0.3387
vn -0.3894 0.8068 -0.4443
vn -0.4612 0.8828 -0.0891
vn 0.2923 0.9551 -0.0476
vn 0.2712 0.8629 -0.4265
vn -0.2952 0.2514 -0.9217
vn 0.2952 0.2899 -0.9104
vn -0.2391 -0.3376 -0.9104
vn 0.3555 -0.3027 -0.8843
vn -0.8628 0.2712 -0.4267
vn -0.8067 -0.3895 -0.4444
vn -0.8828 -0.4611 -0.0892
vn -0.9551 0.2924 -0.0479
vn 0.2809 0.8979 -0.3388
vn -0.3843 0.8414 -0.3799
vn -0.4728 0.8811 0.0114
vn 0.3013 0.9519 0.0554
vn 0.8920 -0.2454 -0.3797
vn 0.8418 0.4203 -0.3387
vn 0.8917 0.4491 0.0556
vn 0.9452 -0.3264 0.0118
vn -0.2559 -0.8585 -0.4443
vn 0.4052 -0.8086 -0.4265
vn 0.4408 -0.8964 -0.0476
vn -0.3147 -0.9450 -0.0891
vn -0.2514 -0.2953 -0.9217
vn 0.3376 -0.2392 -0.9104
vn -0.2898 0.2952 -0.9104
vn 0.3028 0.3555 -0.8843
vn 0.8628 -0.2712 -0.4267
vn 0.8067 0.3895 -0.4444
vn 0.8828 0.4611 -0.0892
vn 0.9551 -0.2924 -0.0479
vn -0.2809 -0.8979 -0.3388
vn 0.3843 -0.8414 -0.3799
vn 0.4728 -0.8811 0.0114
vn -0.3012 -0.9519 0.0554
vn -0.8920 0.2454 -0.3797
vn -0.8418 -0.4203 -0.3387
vn -0.8917 -0.4491 0.0556
vn -0.9452 0.3264 0.0118
vn 0.2559 0.8585 -0.4443
vn -0.4052 0.8086 -0.4265
vn -0.4408 0.8964 -0.0476
vn 0.3147 0.9450 -0.0891
vn 0.2514 0.2953 -0.9217
vn -0.3376 0.2392 -0.9104
vn 0.2898 -0.2952 -0.9104
vn -0.3028 -0.3555 -0.8843
vn 0.8085 0.4051 -0.4267
vn 0.8963 0.4408 -0.0479
vn 0.9450 -0.3146 -0.0892
vn 0.8585 -0.2560 -0.4444
vn -0.4204 0.8417 -0.3388
vn -0.4490 0.8918 0.0554
vn 0.3264 0.9452 0.0114
vn 0.2453 0.8919 -0.3799
vn -0.8415 -0.3843 -0.3797
vn -0.8811 -0.4728 0.0118
vn -0.9519 0.3013 0.0556
vn -0.8980 0.2809 -0.3387
vn 0.3894 -0.8068 -0.4443
vn 0.4612 -0.8828 -0.0891
vn -0.2923 -0.9551 -0.0476
vn -0.2712 -0.8629 -0.4265
vn 0.2952 -0.2514 -0.9217
vn -0.2952 -0.2899 -0.9104
vn 0.2391 0.3376 -0.9104
vn -0.3555 0.3027 -0.8843
vt 0.012167 0.894395
vt 0.012161 0.862608
vt 0.401654 0.862517
vt 0.401672 0.894215
vt 0.770729 0.637544
vt 0.738930 0.637544
vt 0.738908 0.007387
vt 0.770625 0.007379
vt 0.011087 0.358772
vt 0.011087 0.004670
vt 0.605569 0.004670
vt 0.605569 0.358772
vt 0.665754 0.637544
vt 0.633954 0.637544
vt 0.633932 0.007387
vt 0.665648 0.007379
vt 0.012153 0.781665
vt 0.012159 0.749877
vt 0.401667 0.750059
vt 0.401653 0.781757
vt 0.402511 0.898447
vt 0.406213 0.894954
vt 0.402459 0.858019
vt 0.406193 0.861757
vt 0.669880 0.006541
vt 0.666388 0.002840
vt 0.629432 0.006581
vt 0.633174 0.002846
vt 0.774855 0.006541
vt 0.771365 0.002840
vt 0.734408 0.006581
vt 0.738150 0.002846
vt 0.402486 0.785988
vt 0.406185 0.782501
vt 0.402477 0.745559
vt 0.406213 0.749304
vt 0.670203 0.637542
vt 0.629261 0.637543
vt 0.012154 0.786116
vt 0.012153 0.745183
vt 0.775179 0.637542
vt 0.734237 0.637543
vt 0.012161 0.898847
vt 0.012163 0.857914
vt 0.030357 0.917428
vt 0.384349 0.917072
vt 0.384371 0.939343
vt 0.030379 0.939699
vt 0.791830 0.023428
vt 0.792136 0.620638
vt 0.793836 0.619438
vt 0.793540 0.024632
vt 0.815803 0.024621
vt 0.816101 0.619427
vt 0.686854 0.023428
vt 0.687161 0.620638
vt 0.012407 0.719528
vt 0.012407 0.366267
vt 0.606199 0.366267
vt 0.606199 0.719528
vt 0.385556 0.915367
vt 0.029151 0.915731
vt 0.030336 0.804709
vt 0.384312 0.804599
vt 0.384318 0.826869
vt 0.030343 0.826979
vt 0.385520 0.802895
vt 0.029131 0.803011
vt 0.688564 0.024632
vt 0.688861 0.619438
vt 0.710827 0.024621
vt 0.711126 0.619427
vt 0.611519 0.619791
vt 0.611679 0.024324
vt 0.029925 0.727445
vt 0.384741 0.727787
vt 0.716494 0.619791
vt 0.716655 0.024324
vt 0.029921 0.840165
vt 0.384711 0.840261
vt 0.413096 0.829099
vt 0.844696 0.829099
vt 0.844696 0.859196
vt 0.413096 0.859196
vt 0.413096 0.795490
vt 0.844696 0.795490
vt 0.844696 0.825587
vt 0.413096 0.825587
vt 0.413096 0.761885
vt 0.844696 0.761885
vt 0.844696 0.791983
vt 0.413096 0.791983
vt 0.413096 0.728276
vt 0.844696 0.728276
vt 0.844696 0.758374
vt 0.413096 0.758374
vt 0.107983 0.983687
vt 0.111358 0.984368
vt 0.108613 0.987108
vt 0.082406 0.983545
vt 0.081894 0.986785
vt 0.079217 0.984090
vt 0.108067 0.957990
vt 0.108635 0.954717
vt 0.111358 0.957486
vt 0.082448 0.957934
vt 0.079161 0.957325
vt 0.081842 0.954645
vt 0.413096 0.724762
vt 0.844696 0.724763
vt 0.888655 0.437483
vt 0.858557 0.437483
vt 0.858557 0.005879
vt 0.888655 0.005879
vt 0.922263 0.437483
vt 0.892166 0.437483
vt 0.892166 0.005879
vt 0.922263 0.005879
vt 0.955869 0.437483
vt 0.925771 0.437483
vt 0.925771 0.005879
vt 0.955869 0.005879
vt 0.989477 0.437483
vt 0.959380 0.437483
vt 0.959380 0.005879
vt 0.989477 0.005879
vt 0.221686 0.960258
vt 0.222316 0.956836
vt 0.225061 0.959577
vt 0.196110 0.960400
vt 0.192920 0.959855
vt 0.195597 0.957160
vt 0.221771 0.985955
vt 0.225061 0.986459
vt 0.222338 0.989228
vt 0.196151 0.986011
vt 0.195545 0.989300
vt 0.192865 0.986620
vt 0.992991 0.437483
vt 0.992991 0.005879
vt 0.961249 0.441373
vt 0.991346 0.441373
vt 0.991346 0.872978
vt 0.961249 0.872978
vt 0.927640 0.441373
vt 0.957737 0.441373
vt 0.957737 0.872978
vt 0.927640 0.872978
vt 0.894035 0.441373
vt 0.924132 0.441373
vt 0.924132 0.872978
vt 0.894035 0.872978
vt 0.860426 0.441373
vt 0.890524 0.441373
vt 0.890524 0.872978
vt 0.860426 0.872978
vt 0.054205 0.960486
vt 0.054834 0.957064
vt 0.057579 0.959805
vt 0.028628 0.960627
vt 0.025438 0.960082
vt 0.028115 0.957387
vt 0.054289 0.986182
vt 0.057579 0.986686
vt 0.054856 0.989456
vt 0.028669 0.986238
vt 0.028063 0.989527
vt 0.025383 0.986847
vt 0.856912 0.441373
vt 0.856912 0.872978
vt 0.845719 0.893331
vt 0.414117 0.893331
vt 0.414117 0.863233
vt 0.845719 0.863233
vt 0.845719 0.926939
vt 0.414117 0.926939
vt 0.414117 0.896842
vt 0.845719 0.896842
vt 0.845719 0.960544
vt 0.414117 0.960544
vt 0.414117 0.930447
vt 0.845719 0.930447
vt 0.845719 0.994153
vt 0.414117 0.994153
vt 0.414117 0.964055
vt 0.845719 0.964055
vt 0.163985 0.985789
vt 0.167323 0.986440
vt 0.164631 0.989129
vt 0.138369 0.985797
vt 0.137835 0.989092
vt 0.135147 0.986348
vt 0.164045 0.960168
vt 0.164650 0.956930
vt 0.167323 0.959689
vt 0.138385 0.960134
vt 0.135092 0.959522
vt 0.137781 0.956836
vt 0.845719 0.997667
vt 0.414117 0.997667
s 1
usemtl Diffuse_Table
f 36/43/19 38/44/20 27/45/21 25/46/22
f 41/47/23 43/48/24 39/49/25 35/50/26
f 42/51/27 32/52/27 28/53/27 37/54/27
f 26/55/28 29/56/29 34/57/30 30/58/31
f 31/59/32 33/60/33 44/61/34 40/62/35
f 46/63/36 25/46/22 26/64/28
f 27/45/21 61/65/37 29/66/29
f 45/67/38 30/58/31 31/68/32
f 62/69/39 33/70/33 34/57/30
f 48/71/40 35/50/26 36/72/19
f 64/73/41 38/74/20 39/49/25
f 47/75/42 40/62/35 41/76/23
f 63/77/43 43/78/24 44/61/34
f 45/67/38 46/79/36 26/55/28 30/58/31
f 25/46/22 27/45/21 29/66/29 26/64/28
f 61/80/37 62/69/39 34/57/30 29/56/29
f 33/70/33 31/68/32 30/58/31 34/57/30
f 47/75/42 45/81/38 31/59/32 40/62/35
f 62/82/39 63/77/43 44/61/34 33/60/33
f 43/78/24 41/76/23 40/62/35 44/61/34
f 48/71/40 47/83/42 41/47/23 35/50/26
f 63/84/43 64/73/41 39/49/25 43/48/24
f 38/74/20 36/72/19 35/50/26 39/49/25
f 46/63/36 48/85/40 36/43/19 25/46/22
f 64/86/41 61/65/37 27/45/21 38/44/20
f 58/87/44 53/88/45 50/89/46 52/90/47
f 57/91/48 59/92/49 47/83/42 48/71/40
f 60/93/50 58/94/44 52/95/47 51/96/51
f 55/97/52 54/98/53 46/79/36 45/67/38
f 49/99/54 51/100/51 52/101/47 50/102/46
f 54/103/53 57/104/48 48/85/40 46/63/36
f 56/105/55 60/106/50 51/107/51 49/108/54
f 59/109/49 55/110/52 45/81/38 47/75/42
f 56/111/55 53/112/45 54/98/53 55/97/52
f 60/106/50 56/105/55 55/110/52 59/109/49
f 58/94/44 60/93/50 59/92/49 57/91/48
f 53/88/45 58/87/44 57/104/48 54/103/53
f 53/112/45 56/111/55 49/113/54 50/114/46
f 28/115/27 32/116/27 62/69/39 61/80/37
f 32/117/27 42/118/27 63/77/43 62/82/39
f 42/119/27 37/120/27 64/73/41 63/84/43
f 37/121/27 28/122/27 61/65/37 64/86/41
f 77/123/56 78/124/57 69/125/58 66/126/59
f 82/127/60 83/128/61 79/129/62 76/130/63
f 72/131/64 73/132/65 84/133/66 81/134/67
f 67/135/68 68/136/69 74/137/70 71/138/71
f 65/139/72 66/140/59 67/141/68
f 70/142/73 71/143/71 72/144/64
f 75/145/74 76/146/63 77/147/56
f 80/148/75 81/149/67 82/150/60
f 70/142/73 65/139/72 67/141/68 71/143/71
f 66/151/59 69/152/58 68/136/69 67/135/68
f 73/132/65 72/131/64 71/138/71 74/137/70
f 80/148/75 70/142/73 72/144/64 81/149/67
f 83/128/61 82/127/60 81/134/67 84/133/66
f 75/145/74 80/148/75 82/150/60 76/146/63
f 78/124/57 77/123/56 76/130/63 79/129/62
f 65/139/72 75/145/74 77/147/56 66/140/59
f 70/142/73 80/148/75 75/145/74 65/139/72
f 97/153/76 86/154/77 89/155/78 98/156/79
f 102/157/80 96/158/81 99/159/82 103/160/83
f 92/161/84 101/162/85 104/163/86 93/164/87
f 87/165/88 91/166/89 94/167/90 88/168/91
f 85/169/92 87/170/88 86/171/77
f 90/172/93 92/173/84 91/174/89
f 95/175/94 97/176/76 96/177/81
f 100/178/95 102/179/80 101/180/85
f 90/172/93 91/174/89 87/170/88 85/169/92
f 86/181/77 87/165/88 88/168/91 89/182/78
f 93/164/87 94/167/90 91/166/89 92/161/84
f 100/178/95 101/180/85 92/173/84 90/172/93
f 103/160/83 104/163/86 101/162/85 102/157/80
f 95/175/94 96/177/81 102/179/80 100/178/95
f 98/156/79 99/159/82 96/158/81 97/153/76
f 85/169/92 86/171/77 97/176/76 95/175/94
f 90/172/93 85/169/92 95/175/94 100/178/95
f 117/183/96 106/184/97 109/185/98 118/186/99
f 122/187/100 116/188/101 119/189/102 123/190/103
f 112/191/104 121/192/105 124/193/106 113/194/107
f 107/195/108 111/196/109 114/197/110 108/198/111
f 105/199/112 107/200/108 106/201/97
f 110/202/113 112/203/104 111/204/109
f 115/205/114 117/206/96 116/207/101
f 120/208/115 122/209/100 121/210/105
f 110/202/113 111/204/109 107/200/108 105/199/112
f 106/211/97 107/195/108 108/198/111 109/212/98
f 113/194/107 114/197/110 111/196/109 112/191/104
f 120/208/115 121/210/105 112/203/104 110/202/113
f 123/190/103 124/193/106 121/192/105 122/187/100
f 115/205/114 116/207/101 122/209/100 120/208/115
f 118/186/99 119/189/102 116/188/101 117/183/96
f 105/199/112 106/201/97 117/206/96 115/205/114
f 110/202/113 105/199/112 115/205/114 120/208/115
f 137/213/116 138/214/117 129/215/118 126/216/119
f 142/217/120 143/218/121 139/219/122 136/220/123
f 132/221/124 133/222/125 144/223/126 141/224/127
f 127/225/128 128/226/129 134/227/130 131/228/131
f 125/229/132 126/230/119 127/231/128
f 130/232/133 131/233/131 132/234/124
f 135/235/134 136/236/123 137/237/116
f 140/238/135 141/239/127 142/240/120
f 130/232/133 125/229/132 127/231/128 131/233/131
f 126/241/119 129/242/118 128/226/129 127/225/128
f 133/222/125 132/221/124 131/228/131 134/227/130
f 140/238/135 130/232/133 132/234/124 141/239/127
f 143/218/121 142/217/120 141/224/127 144/223/126
f 135/235/134 140/238/135 142/240/120 136/236/123
f 138/214/117 137/213/116 136/220/123 139/219/122
f 125/229/132 135/235/134 137/237/116 126/230/119
f 130/232/133 140/238/135 135/235/134 125/229/132
o diffuse_shelf_02
v 89.122597 -638.849121 94.500000
v -2.506310 -635.835510 94.500000
v 2.174538 -657.572510 94.500000
v 84.441750 -617.112122 94.500000
v 79.007507 -618.282349 277.941162
v 79.007500 -618.282349 107.192184
v 2.927944 -634.665283 277.941162
v 2.927940 -634.665283 107.192184
v 6.906666 -653.141785 277.941162
v 82.986221 -636.758789 277.941162
v 6.906662 -653.141724 107.192169
v 82.986221 -636.758789 107.192169
v 84.441757 -617.112122 280.720581
v 89.122604 -638.849121 280.720581
v 2.174545 -657.572571 280.720581
v -2.506306 -635.835510 280.720581
v 90.209457 -638.615112 283.500000
v 90.209457 -638.615112 281.502014
v 85.294563 -615.791260 281.502014
v 85.294563 -615.791260 283.500000
v 1.087696 -657.806580 283.500000
v 1.087696 -657.806580 281.502014
v -3.827194 -634.982727 283.500000
v -3.827194 -634.982727 281.502014
v 79.241547 -619.369141 154.535309
v 3.161983 -635.752136 154.535309
v 6.906662 -653.141724 154.535294
v 82.986221 -636.758789 154.535294
v 3.161983 -635.752136 152.311768
v 79.241547 -619.369141 152.311768
v 6.906662 -653.141724 152.311768
v 82.986221 -636.758789 152.311768
v 79.475586 -620.455994 152.311768
v 78.606445 -620.643188 152.311768
v 82.117081 -636.945923 152.311768
v 78.606445 -620.643188 151.644699
v 79.475586 -620.455994 151.644699
v 82.117081 -636.945923 151.644699
v 82.986221 -636.758789 151.644699
v 82.986221 -636.758789 152.311768
v 3.396027 -636.838989 152.311768
v 4.265160 -636.651855 152.311768
v 7.775799 -652.954590 152.311768
v 4.265160 -636.651855 151.644699
v 3.396027 -636.838989 151.644699
v 7.775799 -652.954590 151.644699
v 6.906662 -653.141724 151.644699
v 6.906662 -653.141724 152.311768
v 79.241547 -619.369141 180.105881
v 3.161983 -635.752136 180.105881
v 6.906662 -653.141785 180.105881
v 82.986221 -636.758789 180.105881
v 3.161983 -635.752136 177.882355
v 79.241547 -619.369141 177.882355
v 6.906662 -653.141785 177.882355
v 82.986221 -636.758789 177.882355
v 79.475586 -620.456055 177.882355
v 78.606445 -620.643188 177.882355
v 82.117081 -636.945923 177.882355
v 78.606445 -620.643188 177.215302
v 79.475586 -620.456055 177.215302
v 82.117081 -636.945923 177.215302
v 82.986221 -636.758789 177.215302
v 82.986221 -636.758789 177.882355
v 3.396027 -636.838989 177.882355
v 4.265163 -636.651855 177.882355
v 7.775799 -652.954590 177.882355
v 4.265163 -636.651855 177.215302
v 3.396027 -636.838989 177.215302
v 7.775799 -652.954590 177.215302
v 6.906662 -653.141785 177.215302
v 6.906662 -653.141785 177.882355
v 79.241547 -619.369202 205.676468
v 3.161983 -635.752136 205.676468
v 6.906662 -653.141785 205.676468
v 82.986221 -636.758789 205.676468
v 3.161983 -635.752136 203.452927
v 79.241547 -619.369202 203.452927
v 6.906662 -653.141785 203.452927
v 82.986221 -636.758789 203.452927
v 79.475586 -620.456055 203.452927
v 78.606445 -620.643188 203.452927
v 82.117081 -636.945923 203.452927
v 78.606445 -620.643188 202.785873
v 79.475586 -620.456055 202.785873
v 82.117081 -636.945923 202.785873
v 82.986221 -636.758789 202.785873
v 82.986221 -636.758789 203.452927
v 3.396027 -636.838989 203.452927
v 4.265163 -636.651855 203.452927
v 7.775799 -652.954590 203.452927
v 4.265163 -636.651855 202.785873
v 3.396027 -636.838989 202.785873
v 7.775799 -652.954590 202.785873
v 6.906662 -653.141785 202.785873
v 6.906662 -653.141785 203.452927
v 79.241547 -619.369202 231.247055
v 3.161983 -635.752136 231.247055
v 6.906666 -653.141785 231.247055
v 82.986221 -636.758789 231.247055
v 3.161983 -635.752136 229.023514
v 79.241547 -619.369202 229.023514
v 6.906666 -653.141785 229.023514
v 82.986221 -636.758789 229.023514
v 79.475586 -620.456055 229.023514
v 78.606445 -620.643188 229.023514
v 82.117081 -636.945923 229.023514
v 78.606445 -620.643188 228.356461
v 79.475586 -620.456055 228.356461
v 82.117081 -636.945923 228.356461
v 82.986221 -636.758789 228.356461
v 82.986221 -636.758789 229.023514
v 3.396027 -636.838989 229.023514
v 4.265163 -636.651855 229.023514
v 7.775799 -652.954590 229.023514
v 4.265163 -636.651855 228.356461
v 3.396027 -636.838989 228.356461
v 7.775799 -652.954590 228.356461
v 6.906666 -653.141785 228.356461
v 6.906666 -653.141785 229.023514
v 79.241547 -619.369202 256.817627
v 3.161987 -635.752136 256.817627
v 6.906666 -653.141785 256.817627
v 82.986221 -636.758789 256.817627
v 3.161987 -635.752136 254.594116
v 79.241547 -619.369202 254.594116
v 6.906666 -653.141785 254.594116
v 82.986221 -636.758789 254.594116
v 79.475586 -620.456055 254.594116
v 78.606453 -620.643188 254.594116
v 82.117088 -636.945984 254.594116
v 78.606445 -620.643188 253.927063
v 79.475586 -620.456055 253.927063
v 82.117088 -636.945984 253.927063
v 82.986221 -636.758789 253.927063
v 82.986221 -636.758789 254.594116
v 3.396027 -636.838989 254.594116
v 4.265167 -636.651855 254.594116
v 7.775803 -652.954590 254.594116
v 4.265163 -636.651855 253.927063
v 3.396027 -636.838989 253.927063
v 7.775803 -652.954590 253.927063
v 6.906666 -653.141785 253.927063
v 6.906666 -653.141785 254.594116
v 79.241539 -619.369141 128.964706
v 3.161980 -635.752136 128.964706
v 6.906662 -653.141724 128.964706
v 82.986221 -636.758789 128.964706
v 3.161980 -635.752136 126.741180
v 79.241539 -619.369141 126.741180
v 6.906662 -653.141724 126.741180
v 82.986221 -636.758789 126.741180
v 79.475586 -620.455994 126.741180
v 78.606445 -620.643188 126.741180
v 82.117081 -636.945923 126.741180
v 78.606445 -620.643188 126.074120
v 79.475586 -620.455994 126.074120
v 82.117081 -636.945923 126.074112
v 82.986221 -636.758789 126.074112
v 82.986221 -636.758789 126.741180
v 3.396023 -636.838989 126.741180
v 4.265160 -636.651855 126.741180
v 7.775799 -652.954590 126.741180
v 4.265160 -636.651855 126.074120
v 3.396023 -636.838989 126.074120
v 7.775799 -652.954590 126.074112
v 6.906662 -653.141724 126.074112
v 6.906662 -653.141724 126.741180
vn -0.6213 0.4011 -0.6731
vn -0.3138 -0.9134 -0.2592
vn -0.5532 -0.7498 -0.3629
vn -0.7537 0.4866 -0.4417
vn -0.4852 0.8208 0.3015
vn -0.4852 0.8208 -0.3015
vn 0.4011 0.6213 -0.6731
vn 0.4429 0.6860 -0.5774
vn -0.4429 -0.6860 -0.5774
vn -0.6860 0.4429 -0.5774
vn 0.6619 -0.7033 -0.2592
vn 0.6860 -0.4429 -0.5774
vn 0.1043 0.9477 0.3015
vn 0.1043 0.9477 -0.3015
vn -0.4429 -0.6860 0.5774
vn 0.6860 -0.4429 0.5774
vn 0.4429 0.6860 0.5774
vn -0.6860 0.4429 0.5774
vn 0.4866 0.7537 -0.4417
vn 0.8128 -0.4557 -0.3629
vn -0.1489 0.6913 0.7071
vn -0.0000 -0.0000 1.0000
vn -0.1489 0.6913 -0.7071
vn -0.0000 -0.0000 -1.0000
vn 0.1489 -0.6913 -0.7071
vn -0.5424 -0.8401 -0.0000
vn -0.8401 0.5424 -0.0000
vn -0.2105 0.9776 -0.0000
vn 0.2105 -0.9776 -0.0000
vn 0.8401 -0.5424 -0.0000
vn 0.5424 0.8401 -0.0000
vn 0.4429 0.6860 -0.5773
vn 0.6860 -0.4429 -0.5773
vt 0.910724 0.606259
vt 0.989116 0.606259
vt 0.989116 0.611050
vt 0.906804 0.611050
vt 0.613938 0.966226
vt 0.011952 0.966226
vt 0.002153 0.946628
vt 0.658686 0.946628
vt 0.780069 0.657875
vt 0.780069 0.001334
vt 0.858462 0.001334
vt 0.858462 0.657875
vt 0.629727 0.657876
vt 0.629727 0.001334
vt 0.708120 0.001334
vt 0.708120 0.657876
vt 0.963978 0.953926
vt 0.944379 0.998674
vt 0.670004 0.998674
vt 0.650405 0.953926
vt 0.996659 0.003858
vt 0.996659 0.273693
vt 0.931128 0.273693
vt 0.931128 0.003858
vt 0.989116 0.618094
vt 0.989116 0.939504
vt 0.906804 0.939503
vt 0.906804 0.618094
vt 0.894966 0.935583
vt 0.894969 0.622013
vt 0.899760 0.618094
vt 0.899759 0.939503
vt 0.659539 0.991588
vt 0.003002 0.991588
vt 0.012801 0.971990
vt 0.614791 0.971990
vt 0.624644 0.577883
vt 0.003749 0.577882
vt 0.003750 0.281335
vt 0.624645 0.281336
vt 0.317517 0.663987
vt 0.003945 0.663987
vt 0.003945 0.585594
vt 0.317517 0.585594
vt 0.978444 0.278821
vt 0.985488 0.278821
vt 0.985489 0.600233
vt 0.978444 0.600233
vt 0.001331 0.001326
vt 0.603325 0.001326
vt 0.603325 0.275702
vt 0.001331 0.275702
vt 0.927665 0.002061
vt 0.927666 0.604056
vt 0.861032 0.604056
vt 0.861031 0.002061
vt 0.710782 0.603328
vt 0.710781 0.001333
vt 0.777415 0.001333
vt 0.777415 0.603328
vt 0.326807 0.589611
vt 0.601183 0.589611
vt 0.601183 0.656245
vt 0.326807 0.656245
vt 0.885170 0.641612
vt 0.885168 0.915984
vt 0.906804 0.946547
vt 0.989116 0.946548
vt 0.989116 0.951339
vt 0.910723 0.951339
vt 0.975689 0.282741
vt 0.975688 0.596312
vt 0.558477 0.878351
vt 0.832841 0.878351
vt 0.832841 0.941063
vt 0.558477 0.941063
vt 0.558477 0.870512
vt 0.558477 0.807800
vt 0.832841 0.807800
vt 0.832841 0.870512
vt 0.605985 0.062479
vt 0.605985 0.003686
vt 0.609120 0.003686
vt 0.609119 0.062479
vt 0.611471 0.003686
vt 0.611471 0.062479
vt 0.609119 0.064831
vt 0.605985 0.064831
vt 0.609120 0.001335
vt 0.605985 0.001335
vt 0.613685 0.138933
vt 0.616819 0.138933
vt 0.616819 0.197726
vt 0.613685 0.197726
vt 0.619171 0.197726
vt 0.619171 0.138933
vt 0.616819 0.136581
vt 0.613685 0.136581
vt 0.616819 0.200077
vt 0.613685 0.200077
vt 0.554922 0.731143
vt 0.280558 0.731143
vt 0.280558 0.668431
vt 0.554922 0.668431
vt 0.554922 0.738982
vt 0.554922 0.801694
vt 0.280558 0.801694
vt 0.280558 0.738982
vt 0.622273 0.062477
vt 0.622275 0.003684
vt 0.625409 0.003684
vt 0.625407 0.062477
vt 0.627761 0.003684
vt 0.627759 0.062477
vt 0.625408 0.064829
vt 0.622273 0.064829
vt 0.625409 0.001333
vt 0.622275 0.001332
vt 0.605571 0.207142
vt 0.608705 0.207142
vt 0.608705 0.265935
vt 0.605571 0.265935
vt 0.611057 0.265935
vt 0.611057 0.207142
vt 0.608705 0.204791
vt 0.605571 0.204791
vt 0.608705 0.268287
vt 0.605571 0.268287
vt 0.003015 0.875554
vt 0.277378 0.875554
vt 0.277378 0.938266
vt 0.003015 0.938266
vt 0.003015 0.867715
vt 0.003015 0.805003
vt 0.277378 0.805003
vt 0.277378 0.867715
vt 0.621345 0.591306
vt 0.621344 0.650098
vt 0.618210 0.650098
vt 0.618211 0.591306
vt 0.615858 0.650098
vt 0.615859 0.591306
vt 0.618211 0.588954
vt 0.621345 0.588954
vt 0.618210 0.652450
vt 0.621344 0.652450
vt 0.605988 0.071199
vt 0.609122 0.071199
vt 0.609122 0.129992
vt 0.605988 0.129992
vt 0.611474 0.129992
vt 0.611474 0.071199
vt 0.609122 0.068848
vt 0.605988 0.068848
vt 0.609122 0.132343
vt 0.605988 0.132343
vt 0.277373 0.731785
vt 0.003009 0.731785
vt 0.003009 0.669074
vt 0.277373 0.669074
vt 0.277373 0.739624
vt 0.277373 0.802336
vt 0.003009 0.802336
vt 0.003009 0.739625
vt 0.622271 0.129998
vt 0.622272 0.071206
vt 0.625406 0.071206
vt 0.625405 0.129999
vt 0.627758 0.071206
vt 0.627757 0.129998
vt 0.625406 0.132350
vt 0.622271 0.132350
vt 0.625406 0.068855
vt 0.622272 0.068855
vt 0.614131 0.003686
vt 0.617265 0.003686
vt 0.617265 0.062478
vt 0.614131 0.062478
vt 0.619617 0.062478
vt 0.619617 0.003686
vt 0.617265 0.001335
vt 0.614131 0.001335
vt 0.617265 0.064830
vt 0.614131 0.064830
vt 0.554918 0.868004
vt 0.280554 0.868004
vt 0.280554 0.805293
vt 0.554918 0.805293
vt 0.554918 0.875843
vt 0.554918 0.938555
vt 0.280554 0.938555
vt 0.280554 0.875843
vt 0.614132 0.129990
vt 0.614132 0.071198
vt 0.617267 0.071198
vt 0.617267 0.129990
vt 0.619618 0.071198
vt 0.619618 0.129990
vt 0.617267 0.132342
vt 0.614132 0.132342
vt 0.617267 0.068846
vt 0.614132 0.068846
vt 0.621835 0.138936
vt 0.624969 0.138936
vt 0.624969 0.197728
vt 0.621835 0.197728
vt 0.627321 0.197728
vt 0.627321 0.138936
vt 0.624969 0.136584
vt 0.621835 0.136584
vt 0.624969 0.200080
vt 0.621835 0.200080
vt 0.565751 0.740565
vt 0.840114 0.740565
vt 0.840114 0.803276
vt 0.565751 0.803276
vt 0.565751 0.732726
vt 0.565751 0.670014
vt 0.840114 0.670014
vt 0.840114 0.732725
vt 0.557912 0.670014
vt 0.557912 0.732726
vt 0.847953 0.732725
vt 0.847953 0.670014
vt 0.565751 0.662175
vt 0.840114 0.662175
vt 0.605446 0.198158
vt 0.605452 0.139365
vt 0.608586 0.139365
vt 0.608580 0.198158
vt 0.610938 0.139366
vt 0.610932 0.198158
vt 0.608580 0.200510
vt 0.605446 0.200509
vt 0.608587 0.137014
vt 0.605452 0.137013
vt 0.606732 0.591302
vt 0.609866 0.591302
vt 0.609866 0.650095
vt 0.606732 0.650095
vt 0.612218 0.650095
vt 0.612218 0.591302
vt 0.609866 0.588950
vt 0.606732 0.588950
vt 0.609866 0.652446
vt 0.606732 0.652446
s 1
usemtl Diffuse_shelf
f 160/243/136 159/244/137 166/245/138 168/246/139
f 150/247/140 149/248/141 157/249/142 148/250/143
f 147/251/144 159/252/137 160/253/136 146/254/145
f 148/255/143 157/256/142 158/257/146 145/258/147
f 146/259/145 152/260/148 150/261/140 148/262/143
f 151/263/149 149/264/141 154/265/145 153/266/143
f 165/267/150 161/268/151 164/269/152 167/270/153
f 157/271/142 160/272/136 168/273/139 163/274/154
f 146/275/145 160/276/136 151/277/149 152/278/148
f 145/279/147 158/280/146 159/281/137 147/282/144
f 145/283/147 147/284/144 146/285/145 148/286/143
f 162/287/155 161/288/151 165/289/150 166/290/138
f 155/291/152 153/292/143 154/293/145 156/294/153
f 152/295/148 151/296/149 153/297/143 155/298/152
f 149/299/141 150/300/140 156/301/153 154/302/145
f 150/303/140 152/304/148 155/305/152 156/306/153
f 151/307/149 160/272/136 157/271/142 149/308/141
f 168/273/139 167/270/153 164/269/152 163/274/154
f 163/309/154 164/269/152 161/268/151 162/310/155
f 158/311/146 157/312/142 163/309/154 162/310/155
f 166/245/138 165/267/150 167/270/153 168/246/139
f 158/313/146 162/287/155 166/290/138 159/314/137
f 169/315/156 170/316/156 171/317/157 172/318/157
f 174/319/158 176/320/159 175/321/159 173/322/158
f 169/315/156 174/319/158 173/322/158 170/316/156
f 181/323/158 183/324/160 182/325/144 180/326/145
f 179/327/161 178/328/162 180/326/145 182/325/144
f 178/329/162 177/330/163 181/323/158 180/326/145
f 179/331/161 182/325/144 183/324/160 184/332/164
f 189/333/158 188/334/143 190/335/147 191/336/160
f 187/337/165 190/335/147 188/334/143 186/338/166
f 186/339/166 188/334/143 189/333/158 185/340/163
f 187/341/165 192/342/164 191/336/160 190/335/147
f 193/343/156 194/344/156 195/345/157 196/346/157
f 198/347/158 200/348/159 199/349/159 197/350/158
f 193/343/156 198/347/158 197/350/158 194/344/156
f 205/351/158 207/352/160 206/353/144 204/354/145
f 203/355/161 202/356/162 204/354/145 206/353/144
f 202/357/162 201/358/163 205/351/158 204/354/145
f 203/359/161 206/353/144 207/352/160 208/360/164
f 213/361/158 212/362/167 214/363/168 215/364/160
f 211/365/165 214/363/168 212/362/167 210/366/166
f 210/367/166 212/362/167 213/361/158 209/368/163
f 211/369/165 216/370/164 215/364/160 214/363/168
f 217/371/156 218/372/156 219/373/157 220/374/157
f 222/375/158 224/376/159 223/377/159 221/378/158
f 217/371/156 222/375/158 221/378/158 218/372/156
f 229/379/158 231/380/160 230/381/144 228/382/145
f 227/383/161 226/384/162 228/382/145 230/381/144
f 226/385/162 225/386/163 229/379/158 228/382/145
f 227/387/161 230/381/144 231/380/160 232/388/164
f 237/389/158 236/390/167 238/391/168 239/392/160
f 235/393/165 238/391/168 236/390/167 234/394/166
f 234/395/166 236/390/167 237/389/158 233/396/163
f 235/397/165 240/398/164 239/392/160 238/391/168
f 241/399/156 242/400/156 243/401/157 244/402/157
f 246/403/158 248/404/159 247/405/159 245/406/158
f 241/399/156 246/403/158 245/406/158 242/400/156
f 253/407/158 255/408/160 254/409/144 252/410/145
f 251/411/161 250/412/162 252/410/145 254/409/144
f 250/413/162 249/414/163 253/407/158 252/410/145
f 251/415/161 254/409/144 255/408/160 256/416/164
f 261/417/158 260/418/143 262/419/147 263/420/160
f 259/421/165 262/419/147 260/418/143 258/422/166
f 258/423/166 260/418/143 261/417/158 257/424/163
f 259/425/165 264/426/164 263/420/160 262/419/147
f 265/427/156 266/428/156 267/429/157 268/430/157
f 270/431/158 272/432/159 271/433/159 269/434/158
f 265/427/156 270/431/158 269/434/158 266/428/156
f 277/435/158 279/436/160 278/437/144 276/438/145
f 275/439/161 274/440/162 276/438/145 278/437/144
f 274/441/162 273/442/163 277/435/158 276/438/145
f 275/443/161 278/437/144 279/436/160 280/444/164
f 285/445/158 284/446/143 286/447/147 287/448/160
f 283/449/165 286/447/147 284/446/143 282/450/166
f 282/451/166 284/446/143 285/445/158 281/452/163
f 283/453/165 288/454/164 287/448/160 286/447/147
f 289/455/152 290/456/153 291/457/150 292/458/151
f 294/459/143 296/460/147 295/461/144 293/462/145
f 289/455/152 294/459/143 293/462/145 290/456/153
f 292/463/151 296/460/147 294/459/143 289/464/152
f 290/465/153 293/462/145 295/461/144 291/466/150
f 292/467/151 291/468/150 295/461/144 296/460/147
f 301/469/158 303/470/160 302/471/144 300/472/145
f 299/473/161 298/474/162 300/472/145 302/471/144
f 298/475/162 297/476/163 301/469/158 300/472/145
f 299/477/161 302/471/144 303/470/160 304/478/164
f 309/479/158 308/480/143 310/481/147 311/482/160
f 307/483/165 310/481/147 308/480/143 306/484/166
f 306/485/166 308/480/143 309/479/158 305/486/163
f 307/487/165 312/488/164 311/482/160 310/481/147
o diffuse_chair_03
v 114.766602 -779.808167 85.368103
v 114.989426 -781.124512 85.308769
v 114.710861 -779.478821 78.848801
v 90.714706 -783.879517 85.368103
v 90.937531 -785.195862 85.308769
v 90.658958 -783.550232 78.848801
v 90.881783 -784.866577 78.789474
v 114.933685 -780.795166 78.789474
v 116.423599 -744.291748 86.416458
v 116.389023 -743.932678 85.378906
v 77.287872 -749.772461 86.388763
v 77.209427 -749.441040 85.369675
v 115.923050 -738.758972 86.136215
v 114.904121 -737.956848 86.088409
v 115.755295 -738.306030 86.112320
v 115.382332 -738.012451 86.094818
v 114.897354 -737.917175 85.269547
v 115.916374 -738.718140 85.286285
v 115.375610 -737.972778 85.271790
v 115.748596 -738.265930 85.277916
v 76.803970 -743.741760 86.088409
v 76.092697 -744.807068 86.135513
v 76.366966 -743.936340 86.094719
v 76.106621 -744.326294 86.111961
v 76.077080 -744.748840 85.285980
v 76.788376 -743.686157 85.269547
v 76.090996 -744.269226 85.277771
v 76.351349 -743.880249 85.271751
v 120.518692 -785.189392 133.083923
v 119.972595 -783.466370 123.582962
v 120.829636 -787.049744 132.702194
v 120.019867 -785.345337 133.460495
v 118.986908 -785.448730 133.083923
v 117.455132 -785.708008 133.083923
v 119.006592 -785.564941 133.714020
v 119.515533 -785.468811 133.661194
v 118.494354 -785.641663 133.661194
v 117.977486 -785.691040 133.460495
v 116.651230 -784.028625 123.582962
v 115.958389 -782.330444 114.082001
v 117.011940 -786.189270 123.157074
v 117.766075 -787.568298 132.702194
v 116.369514 -784.791260 113.611954
v 120.333313 -785.627014 123.157074
v 119.297852 -787.309021 132.702194
v 118.288429 -787.551392 133.078781
v 118.805290 -787.501953 133.279465
v 119.317535 -787.425293 133.332306
v 119.826477 -787.329102 133.279465
v 120.330811 -787.205627 133.078781
v 119.763611 -784.216736 113.611954
v 118.965988 -782.243774 99.532150
v 119.352486 -781.755920 114.082001
v 118.463737 -779.235901 100.106682
v 117.776253 -776.655640 85.994339
v 115.003532 -779.821655 100.106682
v 114.183838 -777.263794 85.994339
v 115.505783 -782.829468 99.532150
v 114.923279 -781.647583 85.591705
v 114.702751 -781.023499 71.035049
v 118.515686 -781.039490 85.591705
v 118.295166 -780.415405 71.035049
v 118.152390 -779.800415 56.967949
v 117.629593 -776.479492 71.294861
v 114.037178 -777.087585 71.294861
v 117.559372 -776.297119 57.089737
v 114.289230 -776.850647 57.089737
v 117.531784 -776.134094 44.829769
v 117.306702 -776.446411 44.555805
v 118.061630 -779.264221 44.829762
v 114.463707 -776.653442 44.829769
v 114.783546 -776.873535 44.555805
v 114.993515 -779.783630 44.829762
v 115.220490 -779.454773 44.555801
v 114.882248 -780.353943 56.967949
v 117.743645 -779.027710 44.555801
v 87.181183 -792.745544 132.702194
v 87.181618 -791.238770 123.157074
v 87.703537 -792.728577 133.078781
v 86.862541 -790.886536 133.083923
v 88.712967 -792.486267 132.702194
v 90.244751 -792.226990 132.702194
v 88.220398 -792.679199 133.279465
v 88.732651 -792.602539 133.332306
v 89.241592 -792.506348 133.279465
v 89.745918 -792.382874 133.078781
v 90.502991 -790.676514 123.157074
v 90.649529 -789.145020 113.611954
v 90.132500 -788.517578 123.582962
v 90.227844 -786.685974 114.082001
v 89.926102 -790.367981 133.083923
v 86.811134 -789.079773 123.582962
v 88.394325 -790.627258 133.083923
v 89.427277 -790.523865 133.460495
v 88.922943 -790.647339 133.661194
v 88.414001 -790.743530 133.714020
v 87.901756 -790.820190 133.661194
v 87.384895 -790.869568 133.460495
v 86.833748 -787.260498 114.082001
v 86.843605 -784.588379 100.106682
v 87.255432 -789.719543 113.611954
v 87.359268 -787.593933 99.532150
v 87.388138 -786.308594 85.591705
v 90.819473 -787.008240 99.532150
v 90.980545 -785.700439 85.591705
v 90.303810 -784.002686 100.106682
v 90.236000 -781.317505 85.994339
v 86.643585 -781.925598 85.994339
v 90.316498 -781.102905 71.294861
v 86.724091 -781.710999 71.294861
v 90.983391 -785.038574 71.035049
v 90.000519 -780.962097 57.089737
v 86.730377 -781.515686 57.089737
v 90.593536 -784.465393 56.967949
v 89.770859 -780.833313 44.829769
v 89.541267 -781.146362 44.555805
v 90.300758 -783.963440 44.829762
v 86.702782 -781.352661 44.829769
v 87.018105 -781.573486 44.555805
v 87.232635 -784.482788 44.829762
v 87.455055 -784.154785 44.555801
v 87.323395 -785.018982 56.967949
v 87.390976 -785.646667 71.035049
v 89.978210 -783.727661 44.555801
v 111.913490 -743.070801 85.421356
v 111.141373 -738.509460 85.153168
v 115.565613 -742.452576 85.421356
v 111.766556 -743.384644 75.230270
v 111.619621 -743.698547 65.039177
v 115.190132 -742.805176 75.230270
v 111.051376 -739.153687 75.029129
v 110.961388 -739.797913 64.905083
v 114.474960 -738.574158 75.029129
v 114.793503 -737.891235 85.153168
v 114.148804 -739.258423 64.905083
v 113.853119 -739.937439 54.781044
v 114.807037 -743.158997 65.039177
v 114.454407 -743.507690 54.848091
v 111.472687 -744.012451 54.848091
v 114.238190 -743.825500 44.930862
v 113.916275 -743.609863 44.657005
v 113.688477 -740.577332 44.930855
v 111.345428 -744.315186 44.930862
v 111.566376 -744.007629 44.657005
v 110.795700 -741.067017 44.930855
v 111.109535 -741.308838 44.657005
v 110.871399 -740.442200 54.781044
v 113.459435 -740.911072 44.657005
v 81.126335 -748.282288 85.421356
v 80.354225 -743.720947 85.153168
v 77.474213 -748.900513 85.421356
v 81.368385 -748.530273 75.230270
v 81.610435 -748.778320 65.039177
v 77.944809 -749.109802 75.230270
v 80.651230 -744.299683 75.029129
v 80.948242 -744.878418 64.905083
v 77.227646 -744.879211 75.029129
v 76.702095 -744.339172 85.153168
v 77.760826 -745.417969 64.905083
v 78.263527 -745.961853 54.781044
v 78.423027 -749.317871 65.039177
v 78.870766 -749.531067 54.848091
v 81.852493 -749.026367 54.848091
v 79.179550 -749.760071 44.930862
v 79.412537 -749.450439 44.657005
v 78.629585 -746.511902 44.930855
v 82.072311 -749.270386 44.930862
v 81.762436 -749.052673 44.657005
v 81.522362 -746.022217 44.930855
v 81.305603 -746.353882 44.657005
v 81.245247 -745.457153 54.781044
v 78.955704 -746.751648 44.657005
v 113.571564 -742.846924 78.792244
v 114.876923 -742.754211 78.769943
v 115.964287 -776.783020 78.848801
v 113.657730 -742.646484 85.221161
v 114.963081 -742.553772 85.198860
v 116.081039 -776.763245 85.277725
v 117.386391 -776.670532 85.255424
v 117.269646 -776.690308 78.826508
v 79.469322 -748.577087 78.792076
v 78.206184 -748.919189 78.769775
v 88.394836 -781.449829 78.848801
v 79.321594 -748.363770 85.220993
v 78.058456 -748.705872 85.198700
v 88.286316 -781.468201 85.277725
v 87.023178 -781.810303 85.255424
v 87.131699 -781.791870 78.826508
v 115.153648 -780.468689 101.296921
v 115.408577 -781.974670 101.006836
v 115.072456 -779.989014 98.735336
v 90.363754 -784.664978 101.296921
v 90.618683 -786.170959 101.006836
v 90.282562 -784.185303 98.735336
v 90.537491 -785.691345 98.445251
v 115.327385 -781.494995 98.445251
v 117.452461 -785.910156 131.566376
v 117.707390 -787.416138 131.276276
v 116.982910 -785.110596 127.002686
v 110.712418 -787.051086 131.566376
v 110.402298 -786.224487 127.002686
v 110.967346 -788.557068 131.276276
v 110.740082 -787.214539 132.439377
v 104.445625 -788.111877 131.566376
v 103.718178 -788.234985 131.566376
v 104.514160 -788.519592 133.743164
v 104.301186 -787.257263 127.002686
v 103.573524 -787.380432 127.002686
v 104.556114 -788.763245 126.712601
v 103.828453 -788.886475 126.712601
v 104.700554 -789.617859 131.276276
v 110.657227 -787.730530 126.712601
v 117.237839 -786.616577 126.712601
v 103.973106 -789.741028 131.276276
v 104.769089 -790.025574 133.453064
v 104.044098 -790.160400 133.515717
v 110.995018 -788.720581 132.149292
v 103.315132 -790.271729 133.453064
v 103.789169 -788.654358 133.805801
v 103.060196 -788.765686 133.743164
v 102.990738 -788.358154 131.566376
v 96.751617 -789.582458 132.439377
v 97.006546 -791.088440 132.149292
v 96.723946 -789.418945 131.566376
v 89.983902 -790.559875 131.566376
v 96.744743 -788.536377 127.002686
v 96.978874 -790.924988 131.276276
v 90.238831 -792.065918 131.276276
v 96.999672 -790.042358 126.712601
v 103.245667 -789.864136 131.276276
v 103.100784 -789.009644 126.712601
v 102.845856 -787.503601 127.002686
v 90.419067 -791.156311 126.712601
v 90.164139 -789.650269 127.002686
v 110.804382 -787.004272 126.911545
v 110.684502 -786.296082 127.046310
v 109.997498 -782.237549 101.143730
v 109.151337 -787.284058 126.911545
v 109.031456 -786.575867 127.046310
v 108.344452 -782.517334 101.143730
v 108.224571 -781.809143 101.278511
v 109.877617 -781.529358 101.278511
v 96.621696 -789.405029 126.911545
v 96.501823 -788.696838 127.046310
v 95.814812 -784.638306 101.143730
v 98.274742 -789.125183 126.911545
v 98.154861 -788.416992 127.046310
v 97.467857 -784.358459 101.143730
v 97.347984 -783.650269 101.278511
v 95.694939 -783.930115 101.278511
v 100.573700 -788.047546 127.034172
v 106.633453 -787.021790 127.034172
v 100.736137 -789.007141 126.860054
v 100.476166 -787.471313 123.767715
v 100.321091 -787.437561 123.437050
v 106.535919 -786.445557 123.767715
v 100.638596 -788.430908 123.593590
v 100.483528 -788.397156 123.262924
v 106.698349 -787.405151 123.593590
v 106.833679 -787.322266 123.262924
v 106.795883 -787.981384 126.860054
v 106.671242 -786.362671 123.437050
v 107.316093 -787.148926 122.757729
v 99.970940 -788.392273 122.757729
v 107.153656 -786.189331 122.931847
v 107.638939 -786.971375 122.080482
v 107.884903 -786.757751 121.132637
v 99.607643 -788.330872 122.080482
v 107.476509 -786.011780 122.254585
v 107.722466 -785.798157 121.306763
v 99.445213 -787.371277 122.254585
v 99.142654 -787.250549 121.306763
v 99.808502 -787.432678 122.931847
v 99.305084 -788.210083 121.132637
v 99.034363 -787.098083 120.365532
v 99.061752 -786.875183 119.162743
v 107.774551 -785.618591 120.365532
v 99.196793 -788.057678 120.191414
v 107.936981 -786.578186 120.191414
v 99.224182 -787.834778 118.988625
v 107.837761 -786.376709 118.988625
v 99.418877 -787.583252 117.784142
v 99.638771 -787.327698 116.580856
v 99.256447 -786.623657 117.958275
v 107.571136 -786.203308 117.784142
v 107.279388 -786.034302 116.580856
v 107.408707 -785.243713 117.958275
v 107.116951 -785.074768 116.754974
v 107.675323 -785.417114 119.162743
v 99.476334 -786.368103 116.754974
v 106.700523 -784.864014 115.205208
v 106.383011 -784.660828 113.789017
v 99.800217 -786.032104 115.205208
v 106.862953 -785.823608 115.031097
v 106.545448 -785.620422 113.614899
v 99.962646 -786.991638 115.031097
v 100.195587 -786.695251 113.614899
v 100.033150 -785.735657 113.789017
v 100.423325 -786.351562 111.933151
v 100.490158 -786.106140 110.642906
v 100.260895 -785.391968 112.107277
v 106.217270 -785.370789 111.933151
v 106.073387 -785.161011 110.642906
v 106.054840 -784.411194 112.107277
v 105.910950 -784.201416 110.817024
v 100.327728 -785.146545 110.817024
v 105.840088 -783.916809 109.182365
v 105.757996 -783.523743 106.939468
v 100.300972 -784.854492 109.182365
v 106.002525 -784.876404 109.008263
v 105.920425 -784.483337 106.765350
v 100.463402 -785.814026 109.008263
v 100.411560 -785.415833 106.765350
v 100.249123 -784.456238 106.939468
v 100.237640 -784.388428 100.940857
v 100.075203 -783.428833 101.114975
v 105.746506 -783.455872 100.940857
v 105.584076 -782.496338 101.114975
v 111.434830 -739.638306 85.004036
v 111.657410 -740.953247 85.090042
v 111.499634 -740.021179 78.982323
v 80.640236 -744.851074 85.004036
v 80.862816 -746.165955 85.090042
v 80.705048 -745.233948 78.982323
v 80.927628 -746.548828 79.068329
v 111.722214 -741.336121 79.068329
v 111.531319 -740.208374 76.038391
v 111.753899 -741.523254 76.124397
v 111.550346 -740.320801 74.270401
v 80.736732 -745.421082 76.038391
v 80.959312 -746.736023 76.124397
v 80.755760 -745.533508 74.270401
v 80.978340 -746.848450 74.356407
v 111.772934 -741.635681 74.356407
v 113.408417 -742.593811 73.269806
v 114.713608 -742.501099 73.247513
v 115.838379 -776.804321 73.326538
v 113.434868 -742.589294 74.836647
v 114.740059 -742.496643 74.814354
v 115.864830 -776.799805 74.893372
v 117.170021 -776.707153 74.871078
v 117.143570 -776.711609 73.304237
v 79.556023 -748.324158 73.269806
v 78.293045 -748.666199 73.247513
v 88.520737 -781.428467 73.326538
v 79.529572 -748.328613 74.836647
v 78.266594 -748.670654 74.814354
v 88.494286 -781.432983 74.893372
v 87.231308 -781.775024 74.871078
v 87.257759 -781.770508 73.304237
v 118.637802 -768.659790 86.283356
v 83.244873 -774.534729 86.283356
v 118.632301 -768.608215 85.257645
v 119.238190 -775.424011 86.452484
v 117.978485 -776.686646 86.478317
v 119.224060 -775.272705 85.369232
v 84.871162 -781.240845 86.452827
v 86.498581 -782.015747 86.478317
v 84.835342 -781.090515 85.369385
v 86.462723 -781.864380 85.386520
v 83.233353 -774.483765 85.256989
v 117.964043 -776.534058 85.386520
v 118.617233 -768.538269 86.283356
v 118.146889 -763.168396 86.283356
v 83.225082 -774.417847 86.283356
v 118.612076 -768.488770 85.257645
v 118.137421 -763.068542 85.379395
v 83.213913 -774.368958 85.256989
v 81.816757 -768.634399 85.370995
v 81.837372 -768.721802 86.283356
v 118.129295 -763.064453 86.283356
v 117.514076 -756.294983 86.270882
v 81.815620 -768.593384 86.283356
v 118.119118 -762.960388 85.379395
v 117.521202 -756.389282 85.233063
v 81.794373 -768.502136 85.370995
v 80.241852 -762.045654 85.234848
v 80.221359 -761.966064 86.261932
v 117.494751 -756.180847 86.270882
v 116.999268 -750.550354 86.112228
v 80.205811 -761.874146 86.261932
v 117.501312 -756.271790 85.233063
v 116.979958 -750.353455 85.277496
v 80.225815 -761.950928 85.234848
v 78.847908 -756.284241 85.278717
v 78.894081 -756.481567 86.115891
v 116.966721 -750.358032 86.112228
v 116.435455 -744.361816 86.416458
v 78.860855 -756.285278 86.115891
v 116.947144 -750.159668 85.277496
v 116.402565 -744.012695 85.378906
v 78.814407 -756.086365 85.278717
v 77.228165 -749.551697 85.369675
v 77.305008 -749.873718 86.388763
v 114.935089 -781.759521 86.622009
v 114.916275 -781.605103 85.530212
v 114.172150 -777.351440 86.427048
v 91.041573 -785.804077 86.622009
v 90.311234 -781.390442 86.427048
v 91.008522 -785.652039 85.530212
v 90.300621 -781.339294 85.400681
v 114.165337 -777.299622 85.400681
v 114.683159 -779.315186 74.871078
v 114.905983 -780.631531 74.811752
v 114.670029 -779.237671 73.326538
v 90.631256 -783.386536 74.871078
v 90.854080 -784.702881 74.811752
v 90.618126 -783.309021 73.326538
v 90.840950 -784.625366 73.267204
v 114.892853 -780.554016 73.267204
vn -0.6612 0.4448 0.6041
vn -0.4680 -0.6923 0.5493
vn 0.6698 -0.4997 0.5493
vn 0.4780 0.6377 0.6041
vn 0.6612 -0.4448 -0.6041
vn 0.4680 0.6923 -0.5493
vn -0.6698 0.4997 -0.5493
vn -0.4780 -0.6377 -0.6041
vn -0.0121 0.7467 -0.6650
vn -0.2118 0.7200 -0.6609
vn -0.2009 0.7015 0.6838
vn -0.0163 0.7331 0.6799
vn 0.6285 -0.5925 0.5039
vn 0.6476 -0.4006 -0.6481
vn 0.7189 0.1548 -0.6776
vn 0.7105 0.1894 0.6777
vn -0.7334 -0.0827 -0.6747
vn -0.7333 0.2348 -0.6381
vn -0.4997 0.5931 -0.6313
vn -0.4953 -0.5768 -0.6495
vn -0.4263 -0.7491 0.5071
vn -0.7311 -0.0494 0.6805
vn 0.6184 0.4479 -0.6457
vn 0.6041 0.4618 0.6495
vn 0.2935 0.7091 -0.6411
vn 0.2806 0.7068 0.6494
vn -0.4783 0.5826 0.6572
vn -0.7150 0.2442 0.6551
vn 0.6089 0.6490 0.4561
vn 0.5821 0.8057 0.1099
vn -0.1640 0.9690 0.1845
vn 0.8093 -0.5396 0.2323
vn 0.8134 -0.5671 -0.1296
vn 0.2623 0.5956 0.7593
vn 0.4809 -0.7195 0.5012
vn -0.7698 0.4183 0.4821
vn -0.4433 0.4770 0.7589
vn -0.8119 0.5604 0.1636
vn -0.0888 0.5252 0.8463
vn -0.2610 0.4924 0.8303
vn 0.0848 0.5505 0.8305
vn -0.5806 -0.8107 -0.0756
vn -0.8116 0.5624 0.1581
vn -0.5812 -0.8100 -0.0783
vn 0.5808 0.8069 0.1080
vn -0.5676 -0.7820 0.2573
vn 0.1645 -0.9718 -0.1689
vn 0.8132 -0.5675 -0.1290
vn -0.2179 -0.8371 0.5018
vn -0.0374 -0.8195 0.5719
vn 0.1353 -0.7999 0.5846
vn 0.3047 -0.7618 0.5716
vn 0.8175 -0.5670 -0.1006
vn 0.5794 0.8070 0.1140
vn -0.5880 -0.8067 -0.0598
vn -0.8123 0.5628 0.1529
vn 0.8181 -0.5724 -0.0565
vn 0.5569 0.8281 0.0643
vn -0.8004 0.5937 0.0833
vn -0.5876 -0.8084 -0.0348
vn -0.8177 0.5757 0.0054
vn -0.5830 -0.8117 -0.0361
vn 0.8146 -0.5790 -0.0354
vn 0.5785 0.8157 0.0058
vn 0.8148 -0.5788 -0.0326
vn 0.5788 0.8154 0.0086
vn -0.5787 -0.8143 -0.0448
vn -0.8146 0.5800 -0.0036
vn 0.5324 0.7533 -0.3861
vn -0.7467 0.5370 -0.3926
vn 0.7486 -0.5221 -0.4087
vn 0.2450 0.3489 -0.9046
vn -0.3426 0.2499 -0.9056
vn 0.3455 -0.2361 -0.9082
vn -0.2449 -0.3365 -0.9093
vn -0.5310 -0.7386 -0.4153
vn -0.5866 -0.7759 0.2323
vn -0.5814 -0.8032 -0.1296
vn -0.7886 0.4125 0.4561
vn -0.8148 0.5692 0.1099
vn -0.2173 -0.8376 0.5012
vn -0.4437 0.4761 0.7593
vn 0.8151 -0.5744 -0.0756
vn 0.7934 -0.5517 0.2573
vn 0.4813 -0.7188 0.5018
vn -0.0370 -0.8197 0.5716
vn 0.1355 -0.7999 0.5846
vn 0.3050 -0.7615 0.5719
vn 0.5822 0.7964 0.1636
vn 0.5892 0.6484 0.4821
vn -0.5811 -0.8035 -0.1290
vn 0.8154 -0.5736 -0.0783
vn 0.5813 0.7982 0.1581
vn -0.8140 0.5708 0.1080
vn 0.2616 0.5963 0.7589
vn 0.0844 0.5509 0.8303
vn -0.0890 0.5252 0.8463
vn -0.2613 0.4920 0.8305
vn -0.8127 0.5714 0.1140
vn -0.5854 -0.8045 -0.1006
vn 0.5819 0.7988 0.1529
vn 0.8207 -0.5682 -0.0598
vn -0.7984 0.5987 0.0643
vn -0.5841 -0.8097 -0.0565
vn 0.8209 -0.5700 -0.0348
vn 0.5604 0.8240 0.0833
vn 0.5826 0.8127 0.0054
vn -0.8147 0.5799 0.0058
vn 0.8177 -0.5746 -0.0361
vn 0.5784 0.8158 -0.0036
vn -0.8149 0.5795 0.0086
vn 0.8145 -0.5784 -0.0448
vn 0.5283 0.7528 -0.3926
vn -0.7507 0.5361 -0.3861
vn 0.7445 -0.5227 -0.4153
vn 0.2413 0.3487 -0.9056
vn -0.3462 0.2489 -0.9046
vn 0.3420 -0.2371 -0.9093
vn -0.2486 -0.3367 -0.9082
vn -0.5351 -0.7394 -0.4087
vn -0.5789 -0.8147 -0.0326
vn -0.5786 -0.8148 -0.0354
vn -0.4694 -0.6409 0.6074
vn -0.6652 0.5082 0.5470
vn -0.8150 0.5787 -0.0296
vn -0.5794 -0.8144 0.0334
vn 0.6725 -0.4451 0.5913
vn 0.4805 0.6980 0.5310
vn 0.8144 -0.5802 -0.0102
vn 0.8142 -0.5805 -0.0094
vn 0.5790 0.8120 -0.0732
vn 0.5784 0.8125 -0.0724
vn 0.8136 -0.5814 -0.0038
vn 0.5773 0.8138 -0.0670
vn -0.8152 0.5784 -0.0300
vn -0.5795 -0.8143 0.0329
vn -0.5360 -0.7571 -0.3735
vn 0.7448 -0.5409 -0.3908
vn 0.5293 0.7339 -0.4256
vn -0.2480 -0.3522 -0.9025
vn 0.3406 -0.2538 -0.9053
vn 0.2435 0.3329 -0.9110
vn -0.7523 0.5175 -0.4077
vn -0.3492 0.2314 -0.9080
vn 0.6541 -0.4507 0.6074
vn 0.8151 -0.5783 0.0334
vn 0.5791 0.8147 -0.0296
vn 0.4609 0.6988 0.5470
vn -0.6835 0.5009 0.5310
vn -0.4886 -0.6416 0.5913
vn -0.5781 -0.8159 -0.0102
vn -0.5778 -0.8161 -0.0094
vn -0.8140 0.5762 -0.0732
vn -0.8136 0.5769 -0.0724
vn -0.8129 0.5785 -0.0670
vn -0.5769 -0.8168 -0.0038
vn 0.5794 0.8145 -0.0300
vn 0.8152 -0.5782 0.0329
vn 0.7553 -0.5385 -0.3735
vn -0.5252 -0.7559 -0.3908
vn -0.7414 0.5188 -0.4256
vn -0.2381 -0.3517 -0.9053
vn 0.3501 -0.2510 -0.9025
vn -0.3395 0.2342 -0.9110
vn 0.2536 0.3335 -0.9080
vn 0.5401 0.7363 -0.4077
vn -0.6064 0.5454 0.5787
vn 0.5423 0.6274 0.5588
vn 0.5275 0.6059 -0.5955
vn -0.6272 0.5246 -0.5757
vn 0.6067 -0.5371 -0.5860
vn -0.5449 -0.6181 -0.5666
vn -0.5251 -0.6153 0.5879
vn 0.6266 -0.5331 0.5686
vn 0.3927 0.7168 0.5762
vn 0.4200 0.6995 -0.5781
vn -0.6978 0.3956 -0.5971
vn -0.7183 0.4168 0.5571
vn 0.7176 -0.4044 -0.5671
vn -0.3966 -0.7070 -0.5856
vn 0.6988 -0.4081 0.5874
vn -0.4157 -0.7095 0.5690
vn -0.6459 0.3567 0.6749
vn -0.4566 -0.7618 0.4595
vn 0.6819 -0.5691 0.4595
vn 0.4926 0.5494 0.6749
vn 0.6459 -0.3567 -0.6749
vn 0.4566 0.7618 -0.4595
vn -0.6819 0.5691 -0.4595
vn -0.4926 -0.5494 -0.6749
vn 0.1584 0.8710 0.4650
vn 0.4550 -0.8813 0.1274
vn 0.7024 -0.5584 0.4414
vn 0.5142 0.5531 0.6555
vn 0.6237 -0.3608 -0.6934
vn 0.4331 0.7651 -0.4766
vn -0.1380 0.8150 -0.5628
vn -0.1640 0.9687 0.1866
vn 0.5377 0.5814 0.6107
vn 0.7308 -0.5596 0.3909
vn 0.0117 0.5586 0.8294
vn -0.0903 0.5332 0.8412
vn 0.0939 -0.5549 -0.8266
vn 0.1640 -0.9687 -0.1866
vn 0.2393 -0.7857 0.5704
vn 0.1354 -0.8001 0.5844
vn 0.0326 -0.8207 0.5704
vn -0.1949 0.5236 0.8294
vn -0.4362 0.7704 0.4650
vn -0.6990 0.3720 0.6107
vn -0.5059 -0.7689 0.3909
vn -0.1396 -0.9820 0.1274
vn -0.6676 0.3530 0.6555
vn -0.4794 -0.7585 0.4414
vn -0.6608 0.5799 -0.4766
vn -0.4702 -0.5460 -0.6934
vn -0.4568 -0.7608 0.4610
vn 0.6817 -0.5681 0.4610
vn 0.4923 0.5509 0.6739
vn -0.6462 0.3582 0.6739
vn 0.6462 -0.3582 -0.6739
vn 0.4568 0.7608 -0.4610
vn -0.4923 -0.5509 -0.6739
vn -0.6817 0.5681 -0.4610
vn -0.6471 0.3637 0.6700
vn 0.4914 0.5565 0.6700
vn 0.5110 0.8176 0.2653
vn -0.7516 0.6039 0.2653
vn -0.4574 -0.7570 0.4666
vn 0.6811 -0.5642 0.4666
vn -0.5031 -0.8642 -0.0011
vn -0.6523 0.5723 0.4970
vn -0.4058 -0.8838 0.2327
vn 0.4276 0.7551 0.4970
vn 0.7595 -0.6505 -0.0011
vn 0.6740 -0.7011 0.2327
vn -0.4682 -0.8292 0.3053
vn 0.7151 -0.6289 0.3053
vn 0.4936 0.6796 0.5427
vn -0.5464 -0.8256 0.1410
vn 0.7877 -0.5998 0.1410
vn 0.5620 0.7332 0.3829
vn 0.8222 -0.5691 0.0097
vn 0.5969 0.7620 0.2512
vn -0.5891 -0.8080 0.0097
vn -0.8145 0.5230 0.2512
vn -0.7720 0.5074 0.3829
vn -0.6897 0.4793 0.5427
vn 0.5984 0.7901 0.1334
vn -0.8250 0.5491 0.1334
vn -0.5977 -0.7941 -0.1104
vn -0.8228 0.5672 0.0363
vn -0.5954 -0.7762 -0.2074
vn 0.5903 0.8064 0.0363
vn 0.8257 -0.5532 -0.1104
vn 0.8177 -0.5370 -0.2074
vn -0.5739 -0.7758 -0.2622
vn 0.7973 -0.5437 -0.2622
vn -0.8055 0.5924 -0.0139
vn -0.5717 -0.7721 -0.2776
vn 0.7939 -0.5409 -0.2776
vn -0.8031 0.5951 -0.0296
vn 0.5657 0.8245 -0.0139
vn 0.5625 0.8263 -0.0296
vn 0.5555 0.8313 -0.0207
vn -0.7981 0.6022 -0.0207
vn 0.7894 -0.5506 -0.2714
vn 0.7962 -0.5521 -0.2475
vn 0.5628 0.8266 0.0027
vn -0.8035 0.5953 0.0027
vn -0.5642 -0.7798 -0.2714
vn -0.5701 -0.7834 -0.2475
vn -0.5675 -0.7961 -0.2101
vn 0.7979 -0.5650 -0.2101
vn -0.8029 0.5946 0.0423
vn -0.5723 -0.8046 -0.1585
vn 0.8052 -0.5714 -0.1585
vn -0.8071 0.5830 0.0933
vn 0.5625 0.8257 0.0423
vn 0.5703 0.8161 0.0933
vn 0.5799 0.8062 0.1176
vn -0.8129 0.5704 0.1176
vn 0.8125 -0.5679 -0.1317
vn 0.8127 -0.5687 -0.1270
vn 0.5801 0.8053 0.1223
vn -0.8128 0.5696 0.1223
vn -0.5803 -0.8037 -0.1317
vn -0.5802 -0.8045 -0.1270
vn -0.4914 -0.5565 -0.6700
vn 0.6471 -0.3637 -0.6700
vn -0.6811 0.5642 -0.4667
vn 0.4574 0.7570 -0.4667
vn -0.6716 0.5083 0.5390
vn -0.4793 -0.6278 0.6133
vn 0.6592 -0.4351 0.6133
vn 0.4669 0.7011 0.5390
vn 0.6716 -0.5083 -0.5390
vn 0.4793 0.6278 -0.6133
vn -0.6592 0.4351 -0.6133
vn -0.4669 -0.7011 -0.5390
vn -0.6070 0.5367 0.5861
vn 0.5447 0.6184 0.5665
vn 0.5252 0.6151 -0.5881
vn -0.6265 0.5334 -0.5684
vn 0.6070 -0.5367 -0.5861
vn -0.5447 -0.6184 -0.5665
vn -0.5252 -0.6151 0.5881
vn 0.6265 -0.5334 0.5684
vn 0.3965 0.7065 0.5861
vn 0.4160 0.7098 -0.5684
vn -0.6984 0.4080 -0.5881
vn -0.7179 0.4047 0.5665
vn 0.7178 -0.4047 -0.5665
vn -0.3965 -0.7065 -0.5861
vn 0.6984 -0.4080 0.5881
vn -0.4160 -0.7098 0.5684
vn 0.5070 0.6382 0.5794
vn -0.6853 0.4410 0.5795
vn -0.6078 -0.5180 0.6019
vn 0.7430 -0.2886 0.6039
vn 0.4966 0.6591 -0.5648
vn -0.6822 0.4642 -0.5649
vn 0.7285 -0.2428 -0.6405
vn 0.3618 -0.7095 0.6048
vn 0.3380 -0.6439 -0.6865
vn -0.1056 -0.7892 0.6049
vn -0.6095 -0.4680 -0.6399
vn -0.1045 -0.7186 -0.6876
vn 0.6425 -0.5135 0.5688
vn 0.6414 -0.4775 -0.6006
vn 0.4958 0.6810 -0.5389
vn 0.5170 0.6104 0.6002
vn -0.6786 0.4223 0.6010
vn -0.4429 -0.6931 0.5686
vn -0.4542 -0.6585 -0.6001
vn -0.6854 0.4924 -0.5364
vn 0.6380 -0.5360 0.5529
vn 0.6461 -0.4719 -0.5999
vn 0.5130 0.6114 -0.6026
vn 0.4964 0.6713 0.5504
vn -0.6832 0.4835 0.5472
vn -0.4435 -0.7051 0.5533
vn -0.4644 -0.6491 -0.6026
vn -0.6754 0.4249 -0.6027
vn 0.6407 -0.4682 0.6085
vn 0.6365 -0.5274 -0.5627
vn 0.4859 0.7147 -0.5031
vn 0.5282 0.5757 0.6241
vn -0.6823 0.3815 0.6237
vn -0.4616 -0.6435 0.6106
vn -0.4445 -0.6967 -0.5631
vn -0.6844 0.5285 -0.5022
vn 0.6431 -0.5818 0.4980
vn 0.6427 -0.4200 -0.6407
vn 0.4821 0.7357 -0.4758
vn 0.5390 0.5212 0.6617
vn -0.6698 0.3368 0.6617
vn -0.4254 -0.7538 0.5007
vn -0.4807 -0.5991 -0.6403
vn -0.6848 0.5563 -0.4706
vn -0.4921 -0.6287 -0.6021
vn 0.6716 -0.4317 -0.6021
vn 0.6617 -0.5061 0.5532
vn -0.4583 -0.6957 0.5532
vn 0.4669 0.6743 -0.5721
vn 0.4761 0.6623 0.5785
vn -0.6676 0.4687 0.5785
vn -0.6628 0.4831 -0.5721
vn -0.6612 0.4449 0.6040
vn -0.4680 -0.6922 0.5494
vn 0.6698 -0.4996 0.5494
vn 0.4780 0.6378 0.6040
vn 0.6612 -0.4449 -0.6040
vn 0.4680 0.6922 -0.5494
vn -0.6698 0.4996 -0.5494
vn -0.4780 -0.6378 -0.6040
vt 0.260220 0.704599
vt 0.271953 0.704599
vt 0.271953 0.918768
vt 0.260220 0.918768
vt 0.986617 0.063677
vt 0.998350 0.063597
vt 0.998350 0.120909
vt 0.986617 0.120989
vt 0.340998 0.918768
vt 0.340998 0.704599
vt 0.398309 0.704599
vt 0.398309 0.918768
vt 0.998345 0.058955
vt 0.986612 0.058876
vt 0.986612 0.001564
vt 0.998345 0.001644
vt 0.329265 0.918768
vt 0.329265 0.704599
vt 0.992174 0.420907
vt 0.993080 0.758638
vt 0.985887 0.758596
vt 0.984992 0.420920
vt 0.979222 0.359856
vt 0.988460 0.362552
vt 0.991593 0.408322
vt 0.984138 0.408339
vt 0.454208 0.430860
vt 0.445854 0.423392
vt 0.449999 0.424098
vt 0.453057 0.426831
vt 0.988400 0.813226
vt 0.979269 0.815523
vt 0.984886 0.771069
vt 0.992349 0.771109
vt 0.792598 0.365439
vt 0.792598 0.712102
vt 0.782975 0.711966
vt 0.783187 0.365717
vt 0.991877 0.412539
vt 0.984559 0.412554
vt 0.992089 0.416690
vt 0.984870 0.416704
vt 0.992993 0.762828
vt 0.985764 0.762786
vt 0.992728 0.766921
vt 0.985400 0.766881
vt 0.738596 0.361351
vt 0.730202 0.368812
vt 0.731364 0.364784
vt 0.734436 0.362054
vt 0.730155 0.713407
vt 0.727152 0.710525
vt 0.726090 0.706443
vt 0.734294 0.714315
vt 0.449581 0.776416
vt 0.457776 0.768551
vt 0.403754 0.774156
vt 0.403754 0.427493
vt 0.453711 0.775512
vt 0.456710 0.772633
vt 0.514662 0.007202
vt 0.512075 0.091187
vt 0.501141 0.007138
vt 0.531397 0.007949
vt 0.531433 0.091879
vt 0.880168 0.683927
vt 0.880199 0.700713
vt 0.874580 0.700764
vt 0.874549 0.683978
vt 0.510170 0.003846
vt 0.487621 0.007077
vt 0.492143 0.003763
vt 0.482788 0.091190
vt 0.501167 0.001559
vt 0.496658 0.002007
vt 0.505672 0.002048
vt 0.560617 0.092674
vt 0.579973 0.091535
vt 0.584009 0.175632
vt 0.561866 0.176783
vt 0.509675 0.175368
vt 0.479619 0.175381
vt 0.558435 0.008664
vt 0.575128 0.007475
vt 0.544914 0.008304
vt 0.531875 0.176036
vt 0.554016 0.005210
vt 0.535990 0.004734
vt 0.549556 0.003313
vt 0.545061 0.002726
vt 0.540542 0.003075
vt 0.869725 0.700790
vt 0.869694 0.684003
vt 0.865183 0.700796
vt 0.865152 0.684009
vt 0.860642 0.700788
vt 0.860611 0.684002
vt 0.855786 0.700761
vt 0.855755 0.683975
vt 0.850167 0.700713
vt 0.850136 0.683927
vt 0.532900 0.301978
vt 0.505580 0.300522
vt 0.564030 0.302188
vt 0.474431 0.299733
vt 0.535504 0.425725
vt 0.496908 0.425177
vt 0.465407 0.425013
vt 0.591114 0.299722
vt 0.606361 0.424669
vt 0.567275 0.425896
vt 0.601138 0.552830
vt 0.566407 0.553004
vt 0.534786 0.552723
vt 0.500101 0.551911
vt 0.534650 0.675164
vt 0.503720 0.675432
vt 0.563508 0.675256
vt 0.468424 0.552915
vt 0.474890 0.676314
vt 0.506787 0.782053
vt 0.479749 0.782830
vt 0.534361 0.780894
vt 0.473381 0.140109
vt 0.473743 0.168992
vt 0.470113 0.165387
vt 0.470040 0.143724
vt 0.444297 0.168992
vt 0.447938 0.165580
vt 0.447500 0.143505
vt 0.444000 0.140089
vt 0.594474 0.676240
vt 0.588975 0.782773
vt 0.561416 0.780978
vt 0.795700 0.698485
vt 0.795700 0.675649
vt 0.818022 0.675649
vt 0.818022 0.698485
vt 0.067537 0.776478
vt 0.067574 0.692549
vt 0.081054 0.776124
vt 0.050803 0.777226
vt 0.048216 0.693240
vt 0.072131 0.779694
vt 0.862193 0.301395
vt 0.867811 0.301445
vt 0.867780 0.318231
vt 0.862162 0.318181
vt 0.096758 0.691753
vt 0.094575 0.775763
vt 0.090157 0.779218
vt 0.076683 0.781352
vt 0.081202 0.781702
vt 0.085696 0.781114
vt 0.116114 0.692892
vt 0.111269 0.776952
vt 0.068016 0.608392
vt 0.098007 0.607645
vt 0.120149 0.608796
vt 0.018929 0.693238
vt 0.015760 0.609047
vt 0.045816 0.609060
vt 0.037282 0.777289
vt 0.023762 0.777351
vt 0.028284 0.780664
vt 0.046311 0.780581
vt 0.032798 0.782421
vt 0.037307 0.782868
vt 0.041812 0.782379
vt 0.872667 0.301471
vt 0.872636 0.318257
vt 0.877208 0.301477
vt 0.877178 0.318263
vt 0.881750 0.301470
vt 0.881719 0.318256
vt 0.886606 0.301443
vt 0.886575 0.318229
vt 0.892224 0.301395
vt 0.892194 0.318181
vt 0.041721 0.483906
vt 0.069041 0.482450
vt 0.010571 0.484695
vt 0.100171 0.482240
vt 0.033048 0.359251
vt 0.071645 0.358703
vt 0.103416 0.358532
vt 0.142502 0.359759
vt 0.127255 0.484706
vt 0.001548 0.359415
vt 0.004565 0.231513
vt 0.036242 0.232517
vt 0.102548 0.231424
vt 0.137279 0.231598
vt 0.011031 0.108114
vt 0.039860 0.108996
vt 0.099649 0.109171
vt 0.130615 0.108188
vt 0.015890 0.001598
vt 0.042928 0.002375
vt 0.097557 0.003450
vt 0.125116 0.001654
vt 0.447693 0.211960
vt 0.447620 0.233623
vt 0.443990 0.237228
vt 0.444352 0.208345
vt 0.473733 0.208325
vt 0.470232 0.211741
vt 0.469795 0.233816
vt 0.473436 0.237228
vt 0.070502 0.003534
vt 0.070791 0.109263
vt 0.070926 0.231705
vt 0.843448 0.700554
vt 0.821126 0.700554
vt 0.821126 0.677718
vt 0.843448 0.677718
vt 0.861196 0.355744
vt 0.820689 0.356864
vt 0.818522 0.268176
vt 0.856064 0.266725
vt 0.901562 0.264156
vt 0.901562 0.296600
vt 0.860973 0.296600
vt 0.860973 0.264156
vt 0.720358 0.266799
vt 0.750633 0.269034
vt 0.747809 0.358208
vt 0.715509 0.355821
vt 0.816351 0.179417
vt 0.850968 0.177683
vt 0.725178 0.177758
vt 0.753398 0.179769
vt 0.788329 0.358280
vt 0.788188 0.269510
vt 0.788063 0.180627
vt 0.756053 0.090214
vt 0.787883 0.091432
vt 0.814440 0.090455
vt 0.729559 0.088559
vt 0.732951 0.001642
vt 0.758629 0.003100
vt 0.787410 0.004740
vt 0.471486 0.271973
vt 0.443979 0.272269
vt 0.447553 0.268649
vt 0.467840 0.268632
vt 0.468047 0.244987
vt 0.471493 0.241431
vt 0.443979 0.241774
vt 0.447363 0.245457
vt 0.846135 0.088521
vt 0.813114 0.003884
vt 0.841898 0.001672
vt 0.907259 0.683916
vt 0.907259 0.704791
vt 0.883284 0.704791
vt 0.883284 0.683916
vt 0.729746 0.004089
vt 0.724615 0.093109
vt 0.687073 0.091657
vt 0.689240 0.002970
vt 0.858835 0.226937
vt 0.899424 0.226937
vt 0.899424 0.259381
vt 0.858835 0.259381
vt 0.588909 0.093035
vt 0.584059 0.004012
vt 0.616359 0.001625
vt 0.619183 0.090800
vt 0.719518 0.182151
vt 0.684902 0.180417
vt 0.593729 0.182076
vt 0.621948 0.180064
vt 0.656738 0.090323
vt 0.656879 0.001554
vt 0.656614 0.179207
vt 0.656433 0.268402
vt 0.624603 0.269620
vt 0.682991 0.269379
vt 0.598109 0.271275
vt 0.601502 0.358192
vt 0.627179 0.356733
vt 0.655961 0.355094
vt 0.467842 0.176830
vt 0.447555 0.176813
vt 0.443980 0.173193
vt 0.471488 0.173490
vt 0.471495 0.204032
vt 0.468049 0.200475
vt 0.447365 0.200005
vt 0.443980 0.203688
vt 0.714685 0.271313
vt 0.710449 0.358162
vt 0.681665 0.355950
vt 0.683727 0.700463
vt 0.707702 0.700463
vt 0.707702 0.721338
vt 0.683727 0.721338
vt 0.998011 0.183707
vt 0.986618 0.183707
vt 0.986618 0.125614
vt 0.998011 0.125614
vt 0.145600 0.363645
vt 0.145600 0.352251
vt 0.444149 0.352251
vt 0.444149 0.363645
vt 0.444149 0.421738
vt 0.145600 0.421738
vt 0.444149 0.282765
vt 0.444149 0.294158
vt 0.145600 0.294158
vt 0.145600 0.282765
vt 0.998008 0.245741
vt 0.986614 0.245741
vt 0.986614 0.187648
vt 0.998008 0.187648
vt 0.458641 0.276568
vt 0.458641 0.334661
vt 0.447248 0.334661
vt 0.447248 0.276568
vt 0.142326 0.198190
vt 0.440874 0.198190
vt 0.440874 0.209583
vt 0.142326 0.209583
vt 0.142326 0.140097
vt 0.440874 0.140097
vt 0.440875 0.279070
vt 0.142326 0.279070
vt 0.142326 0.267676
vt 0.440875 0.267676
vt 0.447255 0.396695
vt 0.447255 0.338602
vt 0.458648 0.338602
vt 0.458648 0.396695
vt 0.893240 0.222289
vt 0.879590 0.222289
vt 0.879590 0.001548
vt 0.893240 0.001548
vt 0.902526 0.226937
vt 0.916176 0.226937
vt 0.916176 0.249829
vt 0.902526 0.249829
vt 0.916131 0.001548
vt 0.916131 0.222289
vt 0.998260 0.351152
vt 0.984610 0.351152
vt 0.984610 0.328260
vt 0.998260 0.328260
vt 0.929781 0.001548
vt 0.929781 0.222289
vt 0.856698 0.222289
vt 0.856698 0.001548
vt 0.792114 0.994408
vt 0.792114 0.981673
vt 0.848111 0.981673
vt 0.848111 0.994408
vt 0.886258 0.981673
vt 0.886258 0.994408
vt 0.237843 0.833698
vt 0.183171 0.833698
vt 0.184546 0.795646
vt 0.240542 0.795646
vt 0.132483 0.833698
vt 0.132481 0.795646
vt 0.784835 0.994408
vt 0.784835 0.981673
vt 0.132477 0.777496
vt 0.184546 0.788367
vt 0.126437 0.833698
vt 0.126438 0.795646
vt 0.126438 0.776974
vt 0.126437 0.846433
vt 0.132483 0.846433
vt 0.183171 0.846433
vt 0.132481 0.884485
vt 0.126437 0.884485
vt 0.184546 0.884485
vt 0.237843 0.846433
vt 0.240542 0.884485
vt 0.132477 0.902635
vt 0.126437 0.903157
vt 0.184546 0.891764
vt 0.731644 0.981673
vt 0.731644 0.994408
vt 0.725582 0.994408
vt 0.725582 0.981673
vt 0.120398 0.902635
vt 0.120394 0.884485
vt 0.719520 0.994408
vt 0.719520 0.981673
vt 0.120394 0.795646
vt 0.120398 0.777496
vt 0.068329 0.795646
vt 0.068329 0.788367
vt 0.666329 0.994408
vt 0.666329 0.981673
vt 0.659050 0.994408
vt 0.659050 0.981673
vt 0.603053 0.994408
vt 0.603053 0.981673
vt 0.069704 0.833698
vt 0.015032 0.833698
vt 0.012333 0.795646
vt 0.120392 0.833698
vt 0.015032 0.846433
vt 0.069704 0.846433
vt 0.068329 0.884485
vt 0.012333 0.884485
vt 0.120392 0.846433
vt 0.068329 0.891764
vt 0.564906 0.994408
vt 0.564906 0.981673
vt 0.007960 0.020161
vt 0.007960 0.034865
vt 0.001551 0.034865
vt 0.001551 0.020161
vt 0.305316 0.959157
vt 0.535251 0.959156
vt 0.535250 0.965566
vt 0.305316 0.965565
vt 0.305316 0.944453
vt 0.535251 0.944452
vt 0.535251 0.986678
vt 0.305316 0.986678
vt 0.305316 0.980269
vt 0.535250 0.980270
vt 0.845728 0.016252
vt 0.845728 0.001548
vt 0.852137 0.001548
vt 0.852137 0.016252
vt 0.846635 0.020160
vt 0.853044 0.020160
vt 0.853044 0.034863
vt 0.846635 0.034863
vt 0.961292 0.971748
vt 0.954883 0.971748
vt 0.954883 0.741814
vt 0.961292 0.741813
vt 0.975996 0.741813
vt 0.975997 0.971748
vt 0.933770 0.741813
vt 0.940179 0.741814
vt 0.940179 0.971748
vt 0.933770 0.971748
vt 0.001552 0.001555
vt 0.007962 0.001555
vt 0.007962 0.016259
vt 0.001552 0.016259
vt 0.705176 0.965314
vt 0.705176 0.912680
vt 0.733594 0.912680
vt 0.733594 0.965314
vt 0.054183 0.989943
vt 0.054183 0.998410
vt 0.001549 0.998410
vt 0.001549 0.989943
vt 0.082600 0.989943
vt 0.082600 0.998410
vt 0.085741 0.989943
vt 0.085741 0.998410
vt 0.736471 0.911419
vt 0.736471 0.966575
vt 0.924434 0.255360
vt 0.977068 0.255360
vt 0.978329 0.258237
vt 0.923173 0.258236
vt 0.977068 0.226942
vt 0.924434 0.226942
vt 0.533387 0.989943
vt 0.533387 0.998410
vt 0.530246 0.998410
vt 0.530246 0.989943
vt 0.561805 0.989943
vt 0.561805 0.998410
vt 0.982650 0.262632
vt 0.918852 0.262632
vt 0.524082 0.998410
vt 0.524082 0.989943
vt 0.985630 0.268524
vt 0.915872 0.268524
vt 0.517480 0.998410
vt 0.517480 0.989943
vt 0.508896 0.998410
vt 0.508896 0.989943
vt 0.988012 0.276770
vt 0.913490 0.276770
vt 0.755004 0.901736
vt 0.755004 0.976258
vt 0.746758 0.973876
vt 0.746758 0.904118
vt 0.740866 0.970896
vt 0.740866 0.907098
vt 0.107091 0.989943
vt 0.107091 0.998410
vt 0.098508 0.998410
vt 0.098508 0.989943
vt 0.091905 0.998410
vt 0.091905 0.989943
vt 0.763193 0.901039
vt 0.763193 0.976955
vt 0.115309 0.989943
vt 0.115309 0.998410
vt 0.125788 0.989943
vt 0.125788 0.998410
vt 0.773657 0.901589
vt 0.773657 0.976405
vt 0.912793 0.284959
vt 0.988709 0.284958
vt 0.988159 0.295423
vt 0.913343 0.295423
vt 0.986155 0.305901
vt 0.915347 0.305901
vt 0.136456 0.989943
vt 0.136456 0.998410
vt 0.983933 0.316370
vt 0.917569 0.316370
vt 0.147158 0.989943
vt 0.147158 0.998410
vt 0.479531 0.989943
vt 0.479531 0.998410
vt 0.468829 0.998410
vt 0.468829 0.989943
vt 0.490200 0.989943
vt 0.490200 0.998410
vt 0.794604 0.905815
vt 0.794604 0.972179
vt 0.784136 0.974401
vt 0.784136 0.903593
vt 0.500678 0.989943
vt 0.500678 0.998410
vt 0.808087 0.909030
vt 0.808087 0.968964
vt 0.454969 0.998410
vt 0.454969 0.989943
vt 0.442418 0.998410
vt 0.442418 0.989943
vt 0.820408 0.911420
vt 0.820408 0.966574
vt 0.920784 0.329853
vt 0.980718 0.329853
vt 0.978328 0.342174
vt 0.923174 0.342174
vt 0.161019 0.998410
vt 0.161019 0.989943
vt 0.173570 0.989943
vt 0.173570 0.998410
vt 0.975914 0.356804
vt 0.925589 0.356805
vt 0.188399 0.989943
vt 0.188399 0.998410
vt 0.974998 0.368029
vt 0.926504 0.368030
vt 0.199661 0.989943
vt 0.199661 0.998410
vt 0.427589 0.989943
vt 0.427589 0.998410
vt 0.416327 0.998410
vt 0.416327 0.989943
vt 0.846264 0.914750
vt 0.846264 0.963244
vt 0.835039 0.964159
vt 0.835039 0.913835
vt 0.860485 0.914941
vt 0.860485 0.963053
vt 0.402104 0.998410
vt 0.402104 0.989943
vt 0.382591 0.998410
vt 0.382591 0.989943
vt 0.879998 0.915073
vt 0.879998 0.962921
vt 0.926695 0.382251
vt 0.974807 0.382251
vt 0.974675 0.401764
vt 0.926827 0.401764
vt 0.233397 0.989943
vt 0.233397 0.998410
vt 0.213884 0.998410
vt 0.213884 0.989943
vt 0.974675 0.452437
vt 0.926827 0.452437
vt 0.284070 0.989943
vt 0.284070 0.998410
vt 0.331918 0.989943
vt 0.331918 0.998410
vt 0.930671 0.915073
vt 0.930671 0.962921
vt 0.377911 0.425448
vt 0.389644 0.425448
vt 0.389644 0.699658
vt 0.377911 0.699658
vt 0.916328 0.326194
vt 0.916328 0.337927
vt 0.863350 0.337927
vt 0.863350 0.326194
vt 0.324933 0.699658
vt 0.324933 0.425448
vt 0.013288 0.681070
vt 0.001555 0.681070
vt 0.001555 0.628092
vt 0.013288 0.628092
vt 0.313200 0.699658
vt 0.313200 0.425448
vt 0.260222 0.699658
vt 0.260222 0.425448
vt 0.950968 0.462664
vt 0.962701 0.462664
vt 0.962701 0.736874
vt 0.950968 0.736874
vt 0.466508 0.148363
vt 0.466508 0.160096
vt 0.450954 0.160096
vt 0.450954 0.148363
vt 0.935414 0.736874
vt 0.935414 0.462664
vt 0.450790 0.228337
vt 0.450790 0.216604
vt 0.466344 0.216604
vt 0.466344 0.228337
vt 0.923681 0.736874
vt 0.923681 0.462664
vt 0.978255 0.462664
vt 0.978256 0.736874
vt 0.447246 0.400636
vt 0.458719 0.400636
vt 0.458719 0.414373
vt 0.447246 0.414373
vt 0.702071 0.890693
vt 0.702071 0.902166
vt 0.401406 0.902166
vt 0.401406 0.890694
vt 0.401406 0.941114
vt 0.401406 0.927377
vt 0.702071 0.927376
vt 0.702071 0.941114
vt 0.401406 0.915904
vt 0.702071 0.915904
vt 0.998454 0.263425
vt 0.986982 0.263425
vt 0.986982 0.249687
vt 0.998454 0.249687
vt 0.471505 0.673575
vt 0.471505 0.687313
vt 0.460033 0.687313
vt 0.460033 0.673575
vt 0.001549 0.923774
vt 0.302216 0.923774
vt 0.302216 0.935247
vt 0.001549 0.935246
vt 0.302216 0.974194
vt 0.001549 0.974195
vt 0.001549 0.960457
vt 0.302216 0.960456
vt 0.001549 0.948984
vt 0.302216 0.948984
vt 0.909061 0.312854
vt 0.895324 0.312854
vt 0.895324 0.301381
vt 0.909061 0.301381
vt 0.915342 0.794365
vt 0.600355 0.794358
vt 0.604801 0.733920
vt 0.910818 0.734897
vt 0.915368 0.803381
vt 0.600328 0.803381
vt 0.920385 0.735745
vt 0.924359 0.794360
vt 0.898092 0.725769
vt 0.904515 0.718527
vt 0.917191 0.727712
vt 0.617782 0.724866
vt 0.598524 0.726644
vt 0.611459 0.717533
vt 0.591332 0.794377
vt 0.595233 0.734811
vt 0.712117 0.866561
vt 0.699391 0.875675
vt 0.418894 0.876556
vt 0.405911 0.867513
vt 0.716573 0.807980
vt 0.401534 0.807980
vt 0.699323 0.885355
vt 0.419013 0.886239
vt 0.906392 0.671247
vt 0.906420 0.680044
vt 0.859817 0.681409
vt 0.860275 0.673631
vt 0.864287 0.358987
vt 0.914260 0.363998
vt 0.923060 0.364198
vt 0.915186 0.671498
vt 0.806001 0.669984
vt 0.806001 0.362582
vt 0.856434 0.358825
vt 0.852485 0.673581
vt 0.864301 0.351133
vt 0.914709 0.355207
vt 0.468286 0.009544
vt 0.476263 0.009994
vt 0.480951 0.067748
vt 0.471904 0.069112
vt 0.140726 0.069236
vt 0.145794 0.009606
vt 0.145728 0.001554
vt 0.468334 0.001554
vt 0.468381 0.136103
vt 0.145776 0.136382
vt 0.140800 0.078282
vt 0.471842 0.078263
vt 0.137744 0.009772
vt 0.131797 0.067781
vt 0.618365 0.369638
vt 0.617267 0.360753
vt 0.668304 0.359331
vt 0.666858 0.366560
vt 0.665790 0.697949
vt 0.618264 0.693786
vt 0.609412 0.693715
vt 0.609412 0.369700
vt 0.725163 0.370035
vt 0.723142 0.694044
vt 0.673191 0.698104
vt 0.674230 0.366487
vt 0.617045 0.702554
vt 0.667089 0.705236
vt 0.143601 0.436678
vt 0.144665 0.429418
vt 0.197298 0.425596
vt 0.195099 0.434698
vt 0.190669 0.772549
vt 0.134558 0.766288
vt 0.127191 0.766217
vt 0.136269 0.436381
vt 0.257122 0.438160
vt 0.257122 0.768121
vt 0.199823 0.772942
vt 0.204465 0.434690
vt 0.135197 0.773629
vt 0.192144 0.781592
vt 0.724852 0.843237
vt 0.920384 0.843237
vt 0.920326 0.852130
vt 0.724910 0.852130
vt 0.929061 0.853797
vt 0.928440 0.889050
vt 0.920192 0.888239
vt 0.725044 0.888239
vt 0.716797 0.889050
vt 0.716175 0.853797
vt 0.725028 0.807979
vt 0.920208 0.807979
vt 0.920208 0.896526
vt 0.725028 0.896526
vt 0.946464 0.001554
vt 0.958197 0.001554
vt 0.958198 0.215723
vt 0.946465 0.215723
vt 0.464216 0.181448
vt 0.464292 0.193181
vt 0.450714 0.193181
vt 0.450638 0.181448
vt 0.932886 0.215723
vt 0.932886 0.001554
vt 0.462354 0.263344
vt 0.450621 0.263268
vt 0.450621 0.249690
vt 0.462354 0.249766
vt 0.983509 0.215723
vt 0.971776 0.215723
vt 0.971776 0.001554
vt 0.983509 0.001554
s 1
usemtl Diffuse_Chair
f 316/489/169 317/490/170 314/491/171 313/492/172
f 313/493/172 314/494/171 320/495/173 315/496/174
f 315/497/174 318/498/175 316/499/169 313/500/172
f 318/501/175 319/502/176 317/503/170 316/504/169
f 315/497/174 320/505/173 319/506/176 318/498/175
f 319/506/176 320/505/173 314/491/171 317/490/170
f 329/507/177 338/508/178 333/509/179 326/510/180
f 321/511/181 322/512/182 330/513/183 325/514/184
f 338/515/178 337/516/185 339/517/186 340/518/187
f 324/519/188 323/520/189 334/521/190 337/522/185
f 324/523/188 322/524/182 321/525/181 323/526/189
f 325/514/184 330/513/183 332/527/191 327/528/192
f 327/528/192 332/527/191 331/529/193 328/530/194
f 328/530/194 331/529/193 329/507/177 326/510/180
f 333/509/179 338/508/178 340/531/187 335/532/195
f 335/532/195 340/531/187 339/533/186 336/534/196
f 336/534/196 339/533/186 337/522/185 334/521/190
f 334/535/190 333/536/179 335/537/195 336/538/196
f 327/539/192 328/540/194 326/541/180 325/542/184
f 321/525/181 325/542/184 334/535/190 323/526/189
f 325/542/184 326/541/180 333/536/179 334/535/190
f 330/543/183 337/516/185 338/515/178 329/544/177
f 322/545/182 324/546/188 337/516/185 330/543/183
f 332/547/191 330/543/183 329/544/177 331/548/193
f 341/549/197 342/550/198 345/551/199
f 343/552/200 356/553/201 342/550/198 341/549/197
f 343/554/200 341/555/197 344/556/202 362/557/203
f 344/558/202 341/549/197 345/551/199
f 345/551/199 346/559/204 350/560/205
f 351/561/206 346/559/204 345/551/199
f 347/562/207 345/551/199 349/563/208
f 348/564/209 345/551/199 347/562/207
f 348/564/209 344/558/202 345/551/199
f 349/563/208 345/551/199 350/560/205
f 342/550/198 351/561/206 345/551/199
f 353/565/210 351/566/206 352/567/211 355/568/212
f 342/550/198 365/569/213 352/570/211 351/561/206
f 354/571/214 346/572/204 351/566/206 353/565/210
f 353/565/210 357/573/215 354/571/214
f 363/574/216 356/553/201 353/565/210 355/568/212
f 353/565/210 356/553/201 357/573/215
f 357/573/215 358/575/217 354/571/214
f 356/553/201 343/552/200 357/573/215
f 343/552/200 362/576/203 357/573/215
f 357/573/215 359/577/218 358/575/217
f 357/573/215 360/578/219 359/577/218
f 357/573/215 361/579/220 360/578/219
f 362/576/203 361/579/220 357/573/215
f 362/557/203 344/556/202 348/580/209 361/581/220
f 361/581/220 348/580/209 347/582/207 360/583/219
f 360/583/219 347/582/207 349/584/208 359/585/218
f 359/585/218 349/584/208 350/586/205 358/587/217
f 358/587/217 350/586/205 346/588/204 354/589/214
f 356/553/201 363/574/216 365/569/213 342/550/198
f 363/574/216 364/590/221 366/591/222 365/569/213
f 364/590/221 363/574/216 355/568/212 370/592/223
f 365/569/213 366/591/222 368/593/224 352/570/211
f 364/590/221 373/594/225 367/595/226 366/591/222
f 366/591/222 367/595/226 369/596/227 368/593/224
f 355/568/212 352/567/211 368/597/224 370/592/223
f 370/592/223 368/597/224 369/598/227 371/599/228
f 373/594/225 364/590/221 370/592/223 371/599/228
f 371/599/228 369/598/227 377/600/229 372/601/230
f 374/602/231 373/594/225 371/599/228 372/601/230
f 367/595/226 373/594/225 374/602/231 376/603/232
f 376/603/232 374/602/231 375/604/233 378/605/234
f 375/604/233 374/602/231 372/601/230 387/606/235
f 367/595/226 376/603/232 377/607/229 369/596/227
f 376/603/232 378/605/234 379/608/236 377/607/229
f 378/605/234 380/609/237 383/610/238 379/608/236
f 378/605/234 375/604/233 382/611/239 380/609/237
f 383/612/238 380/613/237 381/614/240 384/615/241
f 380/613/237 382/616/239 388/617/242 381/614/240
f 384/615/241 386/618/243 385/619/244 383/612/238
f 387/606/235 379/620/236 383/621/238 385/622/244
f 382/616/239 385/619/244 386/618/243 388/617/242
f 382/611/239 375/604/233 387/606/235 385/622/244
f 372/601/230 377/600/229 379/620/236 387/606/235
f 381/623/240 388/624/242 386/625/243 384/626/241
f 389/627/245 390/628/246 393/629/215
f 389/627/245 392/630/247 404/631/248 390/628/246
f 389/627/245 393/629/215 391/632/249
f 389/633/245 391/634/249 410/635/250 392/636/247
f 399/637/251 394/638/252 393/629/215
f 393/629/215 394/638/252 398/639/253
f 391/632/249 393/629/215 395/640/254
f 395/640/254 393/629/215 396/641/255
f 396/641/255 393/629/215 397/642/256
f 397/642/256 393/629/215 398/639/253
f 390/628/246 399/637/251 393/629/215
f 394/638/252 399/637/251 401/643/257 403/644/258
f 413/645/259 400/646/260 399/637/251 390/628/246
f 399/637/251 400/646/260 402/647/261 401/643/257
f 404/631/248 401/648/257 402/649/261 411/650/262
f 401/648/257 405/651/199 403/652/258
f 401/648/257 404/631/248 405/651/199
f 405/651/199 406/653/263 403/652/258
f 404/631/248 392/630/247 405/651/199
f 392/630/247 410/654/250 405/651/199
f 405/651/199 407/655/264 406/653/263
f 405/651/199 408/656/265 407/655/264
f 405/651/199 409/657/266 408/656/265
f 410/654/250 409/657/266 405/651/199
f 391/634/249 395/658/254 409/659/266 410/635/250
f 395/658/254 396/660/255 408/661/265 409/659/266
f 396/660/255 397/662/256 407/663/264 408/661/265
f 397/662/256 398/664/253 406/665/263 407/663/264
f 398/664/253 394/666/252 403/667/258 406/665/263
f 390/628/246 404/631/248 411/650/262 413/645/259
f 413/645/259 411/650/262 412/668/267 414/669/268
f 411/650/262 402/649/261 418/670/269 412/668/267
f 414/669/268 416/671/270 400/646/260 413/645/259
f 414/669/268 412/668/267 420/672/271 415/673/272
f 415/673/272 417/674/273 416/671/270 414/669/268
f 416/671/270 417/674/273 419/675/274 418/676/269
f 400/646/260 416/671/270 418/676/269 402/647/261
f 412/668/267 418/670/269 419/677/274 420/672/271
f 420/672/271 419/677/274 421/678/275 422/679/276
f 417/674/273 423/680/277 421/681/275 419/675/274
f 422/679/276 421/678/275 424/682/278 425/683/279
f 423/680/277 426/684/280 424/685/278 421/681/275
f 425/683/279 424/682/278 427/686/281 430/687/282
f 426/684/280 429/688/283 427/689/281 424/685/278
f 428/690/284 431/691/285 430/692/282 427/693/281
f 427/693/281 429/694/283 436/695/286 428/690/284
f 431/691/285 433/696/287 432/697/288 430/692/282
f 425/683/279 430/687/282 432/698/288 434/699/289
f 433/696/287 436/695/286 429/694/283 432/697/288
f 432/698/288 429/688/283 426/684/280 434/699/289
f 422/679/276 425/683/279 434/699/289 435/700/290
f 434/699/289 426/684/280 423/680/277 435/700/290
f 420/672/271 422/679/276 435/700/290 415/673/272
f 435/700/290 423/680/277 417/674/273 415/673/272
f 431/701/285 428/702/284 436/703/286 433/704/287
f 437/705/291 438/706/292 443/707/293 440/708/294
f 437/709/291 439/710/295 446/711/296 438/712/292
f 440/713/294 442/714/297 439/715/295 437/716/291
f 440/708/294 443/707/293 444/717/293 441/718/294
f 441/719/294 449/720/298 442/714/297 440/713/294
f 438/706/292 446/721/296 445/722/299 443/707/293
f 443/707/293 445/722/299 447/723/300 444/717/293
f 439/715/295 442/714/297 445/722/299 446/721/296
f 442/714/297 449/720/298 447/723/300 445/722/299
f 449/720/298 450/724/301 448/725/302 447/723/300
f 444/717/293 447/723/300 448/725/302 459/726/303
f 451/727/304 450/724/301 449/720/298 441/719/294
f 455/728/305 452/729/306 450/724/301 451/727/304
f 450/724/301 452/729/306 454/730/307 448/725/302
f 452/731/306 455/732/305 456/733/308 453/734/309
f 453/734/309 460/735/310 454/736/307 452/731/306
f 455/732/305 457/737/311 458/738/312 456/733/308
f 451/739/304 459/726/303 457/740/311 455/741/305
f 457/737/311 454/736/307 460/735/310 458/738/312
f 459/726/303 448/725/302 454/730/307 457/740/311
f 441/718/294 444/717/293 459/726/303 451/739/304
f 458/742/312 460/743/310 453/744/309 456/745/308
f 461/746/313 464/747/314 467/748/315 462/749/316
f 461/750/313 462/751/316 470/752/317 463/753/318
f 464/754/314 461/755/313 463/756/318 466/757/319
f 464/747/314 465/758/314 468/759/315 467/748/315
f 465/760/314 464/754/314 466/757/319 473/761/320
f 462/749/316 467/748/315 469/762/321 470/763/317
f 467/748/315 468/759/315 471/764/322 469/762/321
f 463/756/318 470/763/317 469/762/321 466/757/319
f 466/757/319 469/762/321 471/764/322 473/761/320
f 473/761/320 471/764/322 472/765/323 474/766/324
f 468/759/315 483/767/325 472/765/323 471/764/322
f 475/768/326 465/760/314 473/761/320 474/766/324
f 479/769/327 475/768/326 474/766/324 476/770/328
f 474/766/324 472/765/323 478/771/329 476/770/328
f 477/772/330 480/773/331 479/774/327 476/775/328
f 476/775/328 478/776/329 484/777/332 477/772/330
f 480/773/331 482/778/333 481/779/334 479/774/327
f 475/780/326 479/781/327 481/782/334 483/767/325
f 482/778/333 484/777/332 478/776/329 481/779/334
f 483/767/325 481/782/334 478/771/329 472/765/323
f 465/758/314 475/780/326 483/767/325 468/759/315
f 482/783/333 480/784/331 477/785/330 484/786/332
f 488/787/335 489/788/336 486/789/337 485/790/338
f 485/791/338 486/792/337 492/793/339 487/794/340
f 487/794/340 490/795/341 488/796/335 485/791/338
f 490/797/341 491/798/342 489/799/336 488/800/335
f 487/801/340 492/802/339 491/803/342 490/804/341
f 491/798/342 492/793/339 486/792/337 489/799/336
f 496/805/343 493/806/344 494/807/345 497/808/346
f 493/809/344 495/810/347 500/811/348 494/812/345
f 495/810/347 493/809/344 496/813/343 498/814/349
f 498/815/349 496/816/343 497/817/346 499/818/350
f 495/819/347 498/820/349 499/821/350 500/822/348
f 499/818/350 497/817/346 494/812/345 500/811/348
f 504/823/351 505/824/352 502/825/353 501/826/354
f 501/827/354 502/828/353 508/829/355 503/830/356
f 503/831/356 506/832/357 504/823/351 501/826/354
f 506/833/357 507/834/358 505/835/352 504/836/351
f 503/831/356 508/837/355 507/838/358 506/832/357
f 507/839/358 508/840/355 502/825/353 505/824/352
f 512/841/359 514/842/360 510/843/361 509/844/362
f 509/844/362 510/843/361 525/845/363 511/846/364
f 511/847/364 513/848/365 512/849/359 509/850/362
f 513/848/365 519/851/365 516/852/366 512/849/359
f 514/842/360 512/841/359 515/853/367 529/854/368
f 512/849/359 516/852/366 518/855/369 515/856/367
f 520/857/365 517/858/366 516/852/366 519/851/365
f 517/858/366 531/859/370 518/855/369 516/852/366
f 522/860/371 520/857/365 519/851/365 521/861/371
f 513/848/365 524/862/371 521/861/371 519/851/365
f 521/861/371 523/863/372 526/864/372 522/860/371
f 521/861/371 524/862/371 514/865/360 523/863/372
f 511/847/364 525/866/363 524/862/371 513/848/365
f 524/862/371 525/866/363 510/867/361 514/865/360
f 523/863/372 527/868/373 528/869/374 526/864/372
f 523/863/372 514/865/360 529/870/368 527/868/373
f 527/871/373 518/872/369 531/873/370 528/874/374
f 518/872/369 527/871/373 529/854/368 515/853/367
f 526/864/372 528/869/374 530/875/375 542/876/372
f 528/874/374 531/873/370 532/877/376 530/878/375
f 533/879/366 532/880/376 531/859/370 517/858/366
f 533/879/366 536/881/377 534/882/378 532/880/376
f 534/883/378 535/884/379 530/878/375 532/877/376
f 536/885/377 539/886/380 535/884/379 534/883/378
f 537/887/381 540/888/382 539/886/380 536/885/377
f 538/889/365 546/890/383 537/891/381 536/881/377
f 544/892/365 538/889/365 536/881/377 533/879/366
f 545/893/384 541/894/371 539/895/380 540/896/382
f 541/894/371 543/897/371 542/876/372 539/895/380
f 539/895/380 542/876/372 530/875/375 535/898/379
f 522/860/371 526/864/372 542/876/372 543/897/371
f 543/897/371 544/892/365 520/857/365 522/860/371
f 544/892/365 543/897/371 541/894/371 538/889/365
f 544/892/365 533/879/366 517/858/366 520/857/365
f 538/889/365 541/894/371 545/893/384 546/890/383
f 546/899/383 545/900/384 540/888/382 537/887/381
f 550/901/385 547/902/386 548/903/387 551/904/388
f 547/905/386 549/906/389 554/907/390 548/908/387
f 549/906/389 547/905/386 550/909/385 552/910/391
f 552/911/391 550/912/385 551/913/388 553/914/392
f 549/915/389 552/916/391 553/917/392 554/918/390
f 553/914/392 551/913/388 548/908/387 554/907/390
f 558/919/386 559/920/387 556/921/388 555/922/385
f 555/923/385 556/924/388 562/925/392 557/926/391
f 557/926/391 560/927/389 558/928/386 555/923/385
f 560/929/389 561/930/390 559/931/387 558/932/386
f 557/933/391 562/934/392 561/935/390 560/936/389
f 561/930/390 562/925/392 556/924/388 559/931/387
f 563/937/393 564/938/394 568/939/395 566/940/396
f 563/941/393 565/942/397 573/943/398 564/944/394
f 566/945/396 569/946/399 565/942/397 563/941/393
f 567/947/400 570/948/401 569/946/399 566/945/396
f 574/949/402 567/950/400 566/940/396 568/939/395
f 571/951/403 569/952/399 570/953/401 572/954/404
f 565/955/397 569/952/399 571/951/403 573/956/398
f 568/957/395 571/958/403 572/959/404 574/960/402
f 564/961/394 573/962/398 571/958/403 568/957/395
f 570/953/401 576/963/405 575/964/406 572/954/404
f 574/960/402 572/959/404 575/965/406 577/966/407
f 576/963/405 580/967/408 578/968/409 575/964/406
f 577/966/407 575/965/406 578/969/409 581/970/410
f 581/970/410 578/969/409 579/971/411 582/972/412
f 578/968/409 580/967/408 586/973/413 579/974/411
f 582/975/412 584/976/414 583/977/415 581/978/410
f 585/979/416 577/980/407 581/978/410 583/977/415
f 584/981/414 586/982/413 580/983/408 583/984/415
f 583/984/415 580/983/408 576/985/405 585/986/416
f 567/950/400 574/949/402 577/980/407 585/979/416
f 585/986/416 576/985/405 570/948/401 567/947/400
f 584/976/414 582/975/412 589/987/417 587/988/418
f 587/989/418 590/990/419 586/982/413 584/981/414
f 588/991/420 592/992/421 590/990/419 587/989/418
f 601/993/422 588/994/420 587/988/418 589/987/417
f 591/995/423 590/996/419 592/997/421 593/998/424
f 586/973/413 590/996/419 591/995/423 579/974/411
f 592/997/421 594/999/425 597/1000/426 593/998/424
f 596/1001/427 594/1002/425 592/992/421 588/991/420
f 597/1000/426 594/999/425 595/1003/428 598/1004/429
f 602/1005/430 595/1006/428 594/1002/425 596/1001/427
f 599/1007/431 597/1008/426 598/1009/429 600/1010/432
f 601/1011/422 593/1012/424 597/1008/426 599/1007/431
f 600/1013/432 602/1014/430 596/1015/427 599/1016/431
f 588/994/420 601/993/422 599/1016/431 596/1015/427
f 589/1017/417 591/1018/423 593/1012/424 601/1011/422
f 602/1014/430 600/1013/432 603/1019/433 605/1020/434
f 600/1010/432 598/1009/429 606/1021/435 603/1022/433
f 607/1023/436 604/1024/437 603/1022/433 606/1021/435
f 604/1025/437 610/1026/438 605/1020/434 603/1019/433
f 606/1027/435 608/1028/439 609/1029/440 607/1030/436
f 595/1003/428 608/1028/439 606/1027/435 598/1004/429
f 608/1031/439 605/1032/434 610/1033/438 609/1034/440
f 605/1032/434 608/1031/439 595/1006/428 602/1005/430
f 609/1029/440 611/1035/441 614/1036/442 607/1030/436
f 613/1037/443 611/1038/441 609/1034/440 610/1033/438
f 614/1036/442 611/1035/441 612/1039/444 615/1040/445
f 618/1041/446 612/1042/444 611/1038/441 613/1037/443
f 616/1043/447 614/1044/442 615/1045/445 617/1046/448
f 604/1024/437 607/1023/436 614/1044/442 616/1043/447
f 617/1047/448 618/1048/446 613/1049/443 616/1050/447
f 610/1026/438 604/1025/437 616/1050/447 613/1049/443
f 618/1048/446 617/1047/448 619/1051/449 621/1052/450
f 617/1046/448 615/1045/445 622/1053/451 619/1054/449
f 619/1054/449 622/1053/451 623/1055/452 620/1056/453
f 620/1057/453 626/1058/454 621/1052/450 619/1051/449
f 622/1059/451 624/1060/455 625/1061/456 623/1062/452
f 612/1039/444 624/1060/455 622/1059/451 615/1040/445
f 626/1063/454 625/1064/456 624/1065/455 621/1066/450
f 621/1066/450 624/1065/455 612/1042/444 618/1041/446
f 625/1061/456 627/1067/457 629/1068/458 623/1062/452
f 628/1069/459 627/1070/457 625/1064/456 626/1063/454
f 630/1071/460 629/1072/458 627/1070/457 628/1069/459
f 620/1056/453 623/1055/452 629/1072/458 630/1071/460
f 626/1058/454 620/1057/453 630/1073/460 628/1074/459
f 582/972/412 579/971/411 591/1018/423 589/1017/417
f 634/1075/461 635/1076/462 632/1077/463 631/1078/464
f 631/1079/464 632/1080/463 638/1081/465 633/1082/466
f 633/1083/466 636/1084/467 634/1075/461 631/1078/464
f 636/1085/467 637/1086/468 635/1087/462 634/1088/461
f 633/1083/466 638/1089/465 637/1090/468 636/1084/467
f 637/1090/468 638/1089/465 632/1091/463 635/1092/462
f 642/1093/461 643/1094/462 640/1095/463 639/1096/464
f 639/1097/464 640/1098/463 646/1099/465 641/1100/466
f 641/1101/466 644/1102/467 642/1093/461 639/1096/464
f 644/1103/467 645/1104/468 643/1105/462 642/1106/461
f 641/1101/466 646/1107/465 645/1108/468 644/1102/467
f 645/1109/468 646/1110/465 640/1095/463 643/1094/462
f 650/1111/469 651/1112/470 648/1113/471 647/1114/472
f 647/1115/472 648/1116/471 654/1117/473 649/1118/474
f 649/1119/474 652/1120/475 650/1121/469 647/1122/472
f 652/1120/475 653/1123/476 651/1124/470 650/1121/469
f 649/1125/474 654/1126/473 653/1127/476 652/1128/475
f 653/1123/476 654/1117/473 648/1116/471 651/1124/470
f 658/1129/477 655/1130/478 656/1131/479 659/1132/480
f 655/1133/478 657/1134/481 662/1135/482 656/1136/479
f 657/1137/481 655/1138/478 658/1139/477 660/1140/483
f 660/1140/483 658/1139/477 659/1141/480 661/1142/484
f 657/1143/481 660/1144/483 661/1145/484 662/1146/482
f 661/1142/484 659/1141/480 656/1136/479 662/1135/482
f 663/1147/485 664/1148/486 669/1149/487 666/1150/488
f 664/1148/486 663/1147/485 665/1151/489 673/1152/490
f 666/1150/488 668/1153/491 665/1154/489 663/1147/485
f 667/1155/492 674/1156/493 668/1157/491 666/1150/488
f 666/1150/488 669/1149/487 670/1158/494 667/1155/492
f 669/1149/487 671/1159/495 672/1160/496 670/1158/494
f 669/1149/487 664/1148/486 673/1161/490 671/1162/495
f 668/1163/491 674/1164/493 672/1165/496 671/1166/495
f 665/1167/489 668/1163/491 671/1166/495 673/1168/490
f 674/1164/493 667/1169/492 670/1170/494 672/1165/496
f 675/1171/497 678/1172/498 679/1173/499 676/1174/500
f 676/1174/500 682/1175/501 677/1176/502 675/1171/497
f 677/1176/502 680/1177/503 678/1178/498 675/1171/497
f 678/1179/498 680/1180/503 681/1181/504 679/1182/499
f 677/1176/502 682/1175/501 681/1183/504 680/1184/503
f 682/1175/501 676/1174/500 679/1182/499 681/1181/504
f 683/1185/505 686/1186/506 687/1187/507 684/1188/508
f 684/1188/508 690/1189/509 685/1190/510 683/1185/505
f 685/1190/510 688/1191/511 686/1192/506 683/1185/505
f 686/1193/506 688/1194/511 689/1195/512 687/1196/507
f 688/1197/511 685/1190/510 690/1189/509 689/1198/512
f 689/1195/512 690/1189/509 684/1188/508 687/1196/507
f 691/1199/513 694/1200/514 695/1201/515 692/1202/516
f 692/1202/516 698/1203/517 693/1204/518 691/1199/513
f 696/1205/519 694/1206/514 691/1199/513 693/1204/518
f 694/1207/514 696/1208/519 697/1209/520 695/1210/515
f 696/1211/519 693/1204/518 698/1203/517 697/1212/520
f 697/1209/520 698/1203/517 692/1202/516 695/1210/515
f 699/1213/521 702/1214/522 703/1215/523 700/1216/524
f 700/1216/524 706/1217/525 701/1218/526 699/1213/521
f 704/1219/527 702/1220/522 699/1213/521 701/1218/526
f 702/1221/522 704/1222/527 705/1223/528 703/1224/523
f 704/1225/527 701/1218/526 706/1217/525 705/1226/528
f 705/1223/528 706/1217/525 700/1216/524 703/1224/523
f 712/1227/529 708/1228/530 707/1229/531 710/1230/532
f 707/1229/531 708/1231/530 714/1232/533 709/1233/534
f 710/1230/532 707/1229/531 709/1233/534 711/1234/535
f 710/1230/532 711/1234/535 713/1235/536 712/1236/529
f 713/1237/536 714/1238/533 708/1228/530 712/1227/529
f 711/1234/535 709/1233/534 714/1239/533 713/1240/536
f 718/1241/537 719/1242/538 716/1243/539 715/1244/540
f 715/1245/540 716/1246/539 722/1247/541 717/1248/542
f 717/1249/542 720/1250/543 718/1241/537 715/1244/540
f 720/1251/543 721/1252/544 719/1253/538 718/1254/537
f 717/1255/542 722/1256/541 721/1257/544 720/1258/543
f 721/1257/544 722/1256/541 716/1243/539 719/1242/538
