# Blender 3.6.23
# www.blender.org
mtllib scene_0002_glass.mtl
o glass_table_01
v 2.242138 -655.851196 0.000000
v 3.302402 -653.218567 79.949638
v 1.495449 -657.705261 0.070953
v 2.555714 -655.072632 80.020592
v -71.965714 -625.964844 0.000000
v -70.905457 -623.332214 79.949638
v -72.712402 -627.818909 0.070953
v -71.652145 -625.186279 80.020592
vn 0.9276 -0.3736 -0.0000
vn -0.3733 -0.9270 0.0355
vn -0.9276 0.3736 -0.0000
vn 0.3733 0.9270 -0.0355
vn -0.0133 -0.0329 -0.9994
vn 0.0133 0.0329 0.9994
vt 0.375000 0.000000
vt 0.625000 0.000000
vt 0.625000 0.250000
vt 0.375000 0.250000
vt 0.625000 0.500000
vt 0.375000 0.500000
vt 0.625000 0.750000
vt 0.375000 0.750000
vt 0.625000 1.000000
vt 0.375000 1.000000
vt 0.125000 0.500000
vt 0.125000 0.750000
vt 0.875000 0.500000
vt 0.875000 0.750000
s 0
usemtl Glass_Clear
f 1/1/1 2/2/1 4/3/1 3/4/1
f 3/4/2 4/3/2 8/5/2 7/6/2
f 7/6/3 8/5/3 6/7/3 5/8/3
f 5/8/4 6/7/4 2/9/4 1/10/4
f 3/11/5 7/6/5 5/8/5 1/12/5
f 8/5/6 4/13/6 2/14/6 6/7/6
o glass_door_02
v 33.198162 -534.413330 0.018173
v 33.311291 -535.771545 150.011978
v 33.364162 -536.406372 0.000000
v 33.477291 -537.764587 149.993805
v -56.491268 -541.883728 0.018173
v -56.378139 -543.241943 150.011978
v -56.325268 -543.876770 0.000000
v -56.212139 -545.234985 149.993805
vn 0.9965 0.0830 -0.0000
vn 0.0830 -0.9965 -0.0091
vn -0.9965 -0.0830 -0.0000
vn -0.0830 0.9965 0.0091
vn -0.0008 0.0091 -1.0000
vn 0.0008 -0.0091 1.0000
vt 0.375000 0.000000
vt 0.625000 0.000000
vt 0.625000 0.250000
vt 0.375000 0.250000
vt 0.625000 0.500000
vt 0.375000 0.500000
vt 0.625000 0.750000
vt 0.375000 0.750000
vt 0.625000 1.000000
vt 0.375000 1.000000
vt 0.125000 0.500000
vt 0.125000 0.750000
vt 0.875000 0.500000
vt 0.875000 0.750000
s 0
usemtl Glass_Clear
f 9/15/7 10/16/7 12/17/7 11/18/7
f 11/18/8 12/17/8 16/19/8 15/20/8
f 15/20/9 16/19/9 14/21/9 13/22/9
f 13/22/10 14/21/10 10/23/10 9/24/10
f 11/25/11 15/20/11 13/22/11 9/26/11
f 16/19/12 12/27/12 10/28/12 14/21/12
