# Blender 3.6.23
# www.blender.org
mtllib scene_0021.mtl
o glass_window_01
v 40.635010 -654.254944 0.058216
v 40.861649 -647.510254 79.773071
v 40.568085 -656.246704 0.226933
v 40.794724 -649.502014 79.941788
v -59.308578 -650.896545 0.058216
v -59.081940 -644.151855 79.773071
v -59.375504 -652.888306 0.226933
v -59.148865 -646.143616 79.941788
vn 0.9994 -0.0336 -0.0000
vn -0.0335 -0.9959 0.0844
vn -0.9994 0.0336 -0.0000
vn 0.0335 0.9959 -0.0844
vn -0.0028 -0.0843 -0.9964
vn 0.0028 0.0843 0.9964
vt 0.375000 0.000000
vt 0.625000 0.000000
vt 0.625000 0.250000
vt 0.375000 0.250000
vt 0.625000 0.500000
vt 0.375000 0.500000
vt 0.625000 0.750000
vt 0.375000 0.750000
vt 0.625000 1.000000
vt 0.375000 1.000000
vt 0.125000 0.500000
vt 0.125000 0.750000
vt 0.875000 0.500000
vt 0.875000 0.750000
s 0
usemtl Glass_Clear
f 1/1/1 2/2/1 4/3/1 3/4/1
f 3/4/2 4/3/2 8/5/2 7/6/2
f 7/6/3 8/5/3 6/7/3 5/8/3
f 5/8/4 6/7/4 2/9/4 1/10/4
f 3/11/5 7/6/5 5/8/5 1/12/5
f 8/5/6 4/13/6 2/14/6 6/7/6
o glass_table_02
v 63.435135 -699.179138 0.113464
v 61.778999 -703.199158 79.995232
v 62.674431 -701.025635 0.004768
v 61.018295 -705.045654 79.886536
v -10.533663 -668.705933 0.113464
v -12.189798 -672.725952 79.995232
v -11.294367 -670.552429 0.004768
v -12.950502 -674.572449 79.886536
vn 0.9246 -0.3809 -0.0000
vn -0.3804 -0.9232 -0.0543
vn -0.9246 0.3809 -0.0000
vn 0.3804 0.9232 0.0543
vn 0.0207 0.0502 -0.9985
vn -0.0207 -0.0502 0.9985
vt 0.375000 0.000000
vt 0.625000 0.000000
vt 0.625000 0.250000
vt 0.375000 0.250000
vt 0.625000 0.500000
vt 0.375000 0.500000
vt 0.625000 0.750000
vt 0.375000 0.750000
vt 0.625000 1.000000
vt 0.375000 1.000000
vt 0.125000 0.500000
vt 0.125000 0.750000
vt 0.875000 0.500000
vt 0.875000 0.750000
s 0
usemtl Glass_Clear
f 9/15/7 10/16/7 12/17/7 11/18/7
f 11/18/8 12/17/8 16/19/8 15/20/8
f 15/20/9 16/19/9 14/21/9 13/22/9
f 13/22/10 14/21/10 10/23/10 9/24/10
f 11/25/11 15/20/11 13/22/11 9/26/11
f 16/19/12 12/27/12 10/28/12 14/21/12
o glass_window_03
v 7.086086 -597.583191 0.000156
v 7.079937 -597.594055 80.000153
v 6.100994 -599.323730 -0.000156
v 6.094845 -599.334595 79.999847
v -79.942566 -548.328613 0.000156
v -79.948715 -548.339478 80.000153
v -80.927658 -550.069153 -0.000156
v -80.933807 -550.080017 79.999847
vn 0.8703 -0.4926 -0.0000
vn -0.4925 -0.8703 -0.0002
vn -0.8703 0.4925 -0.0000
vn 0.4925 0.8703 0.0002
vn 0.0001 0.0001 -1.0000
vn -0.0001 -0.0001 1.0000
vt 0.375000 0.000000
vt 0.625000 0.000000
vt 0.625000 0.250000
vt 0.375000 0.250000
vt 0.625000 0.500000
vt 0.375000 0.500000
vt 0.625000 0.750000
vt 0.375000 0.750000
vt 0.625000 1.000000
vt 0.375000 1.000000
vt 0.125000 0.500000
vt 0.125000 0.750000
vt 0.875000 0.500000
vt 0.875000 0.750000
s 0
usemtl Glass_Clear
f 17/29/13 18/30/13 20/31/13 19/32/13
f 19/32/14 20/31/14 24/33/14 23/34/14
f 23/34/15 24/33/15 22/35/15 21/36/15
f 21/36/16 22/35/16 18/37/16 17/38/16
f 19/39/17 23/34/17 21/36/17 17/40/17
f 24/33/18 20/41/18 18/42/18 22/35/18
o diffuse_table_01
v 29.536499 -737.526001 67.171371
v 30.070801 -737.201965 67.171371
v 29.536499 -737.526001 70.518539
v 31.697819 -740.487427 70.867592
v 30.070801 -737.201965 70.518539
v 111.635422 -757.184937 67.171371
v 111.959435 -757.719238 67.171371
v 108.673965 -759.346252 70.867599
v 111.959435 -757.719238 70.518539
v 111.635422 -757.184937 70.518539
v 17.503143 -788.499390 67.171371
v 17.179131 -787.965088 67.171371
v 20.464603 -786.338074 70.867592
v 17.179131 -787.965088 70.518539
v 17.503143 -788.499390 70.518539
v 99.602066 -808.158325 67.171371
v 99.067764 -808.482361 67.171371
v 97.440750 -805.196899 70.867599
v 99.067764 -808.482361 70.518539
v 99.602066 -808.158325 70.518539
v 111.530281 -757.614136 66.859894
v 29.965656 -737.631104 66.859879
v 99.172913 -808.053223 66.859894
v 17.608284 -788.070190 66.859879
v 108.615936 -759.389771 69.326935
v 31.729160 -740.552856 69.326920
v 97.409409 -805.131470 69.326935
v 20.522629 -786.294556 69.326920
v 31.729160 -740.552856 66.986206
v 31.612305 -740.359253 66.859879
v 108.809036 -759.272095 66.859894
v 108.615936 -759.389771 66.986221
v 20.329517 -786.412170 66.859879
v 20.522629 -786.294556 66.986206
v 97.526253 -805.325073 66.859894
v 97.409409 -805.131470 66.986221
v 29.965656 -737.631104 70.867599
v 111.530281 -757.614136 70.867599
v 99.172913 -808.053223 70.867599
v 17.608284 -788.070190 70.867599
v 93.798225 -799.118835 23.617607
v 93.480515 -799.024597 23.865791
v 93.861435 -798.793640 23.865795
v 91.576309 -795.043823 69.350403
v 91.195389 -795.274841 69.350403
v 97.119705 -799.932007 23.632402
v 97.188210 -799.608643 23.865795
v 97.419189 -799.988586 23.880463
v 96.270920 -796.518311 69.350403
v 96.040176 -796.137451 69.350403
v 92.983963 -802.440063 23.632401
v 92.895599 -802.731812 23.880463
v 92.665466 -802.351379 23.865791
v 90.101761 -799.738708 69.350403
v 90.332817 -800.119324 69.350403
v 96.306267 -803.254578 23.778730
v 96.603729 -803.316833 24.041864
v 96.223862 -803.547180 24.041864
v 94.796692 -801.213013 69.350403
v 95.177292 -800.982178 69.350403
v 102.634392 -763.052246 23.617607
v 102.309113 -762.988953 23.865791
v 102.540115 -763.369873 23.865795
v 98.780434 -765.638733 69.350403
v 98.549438 -765.257812 69.350403
v 105.955612 -763.866516 23.632402
v 105.866882 -764.184937 23.865795
v 106.247314 -763.954773 23.880463
v 103.624969 -766.501282 69.350403
v 103.244308 -766.732361 69.350403
v 103.447571 -759.730774 23.632401
v 103.504074 -759.431213 23.880463
v 103.124161 -759.662170 23.865791
v 99.643066 -760.793945 69.350403
v 100.023926 -760.563171 69.350403
v 106.770134 -760.544189 23.778730
v 107.062683 -760.626526 24.041864
v 106.832321 -760.246643 24.041864
v 104.487793 -761.656799 69.350403
v 104.718597 -762.037415 69.350403
v 26.504181 -782.632080 23.617603
v 26.829464 -782.695374 23.865786
v 26.598469 -782.314453 23.865791
v 30.358131 -780.045593 69.350395
v 30.589138 -780.426514 69.350395
v 23.182972 -781.817810 23.632397
v 23.271690 -781.499390 23.865791
v 22.891254 -781.729553 23.880457
v 25.513596 -779.183044 69.350395
v 25.894260 -778.951965 69.350395
v 25.691006 -785.953552 23.632397
v 25.634495 -786.253113 23.880457
v 26.014416 -786.022156 23.865786
v 29.495506 -784.890381 69.350395
v 29.114647 -785.121155 69.350395
v 22.368446 -785.140137 23.778727
v 22.075890 -785.057800 24.041859
v 22.306259 -785.437683 24.041859
v 24.650772 -784.027527 69.350395
v 24.419968 -783.646912 69.350395
v 35.340347 -746.565491 23.617603
v 35.658054 -746.659729 23.865786
v 35.277142 -746.890686 23.865791
v 37.562263 -750.640503 69.350395
v 37.943184 -750.409485 69.350395
v 32.018875 -745.752319 23.632397
v 31.950363 -746.075684 23.865791
v 31.719387 -745.695740 23.880457
v 32.867645 -749.166016 69.350395
v 33.098389 -749.546875 69.350395
v 36.154610 -743.244263 23.632397
v 36.242977 -742.952515 23.880457
v 36.473103 -743.332947 23.865786
v 39.036816 -745.945618 69.350395
v 38.805748 -745.564941 69.350395
v 32.832314 -742.429749 23.778727
v 32.534843 -742.367493 24.041859
v 32.914719 -742.137146 24.041859
v 34.341877 -744.471313 69.350395
v 33.961273 -744.702148 69.350395
vn -0.9042 -0.1202 -0.4098
vn -0.9135 -0.1211 0.3884
vn -0.7541 0.5296 0.3884
vn -0.7462 0.5246 -0.4098
vn 0.1202 -0.9042 -0.4098
vn 0.1211 -0.9135 0.3884
vn -0.5297 -0.7541 0.3884
vn -0.5246 -0.7462 -0.4098
vn -0.0000 -0.0000 1.0000
vn -0.1202 0.9042 -0.4098
vn -0.1211 0.9135 0.3884
vn 0.5297 0.7541 0.3884
vn 0.5246 0.7462 -0.4098
vn 0.9042 0.1202 -0.4098
vn 0.9135 0.1211 0.3884
vn 0.7541 -0.5296 0.3884
vn 0.7462 -0.5246 -0.4098
vn -0.2045 0.3371 -0.9190
vn -0.2196 0.3621 0.9059
vn 0.3371 0.2044 -0.9190
vn 0.3621 0.2196 0.9059
vn -0.3371 -0.2044 -0.9190
vn -0.3621 -0.2196 0.9059
vn 0.2044 -0.3371 -0.9190
vn 0.2196 -0.3621 0.9059
vn 0.6554 0.3966 -0.6428
vn 0.3978 -0.6546 -0.6428
vn 0.4234 -0.6982 -0.5774
vn 0.6982 0.4234 -0.5774
vn 0.1097 0.0666 -0.9917
vn -0.0665 0.1098 -0.9917
vn -0.3978 0.6546 -0.6428
vn -0.4234 0.6982 -0.5774
vn -0.1097 -0.0666 -0.9917
vn 0.0665 -0.1098 -0.9917
vn -0.6982 -0.4234 -0.5774
vn -0.6554 -0.3966 -0.6428
vn -0.8950 -0.1300 -0.4267
vn -0.9895 -0.1362 -0.0479
vn -0.7979 0.5961 -0.0892
vn -0.7342 0.5132 -0.4444
vn 0.1340 -0.9313 -0.3388
vn 0.1455 -0.9878 0.0554
vn -0.6074 -0.7943 0.0114
vn -0.5136 -0.7693 -0.3799
vn 0.9197 0.0999 -0.3797
vn 0.9851 0.1714 0.0118
vn 0.8086 -0.5857 0.0556
vn 0.7639 -0.5493 -0.3387
vn -0.1157 0.8884 -0.4443
vn -0.1598 0.9831 -0.0891
vn 0.5782 0.8145 -0.0476
vn 0.5290 0.7336 -0.4265
vn -0.2011 0.3316 -0.9217
vn 0.3715 0.1822 -0.9104
vn -0.3332 -0.2451 -0.9104
vn 0.2422 -0.3993 -0.8843
vn -0.7335 0.5290 -0.4267
vn -0.8883 -0.1157 -0.4444
vn -0.9831 -0.1597 -0.0892
vn -0.8145 0.5782 -0.0479
vn 0.5493 0.7638 -0.3388
vn -0.0998 0.9196 -0.3799
vn -0.1714 0.9851 0.0114
vn 0.5856 0.8087 0.0554
vn 0.7694 -0.5137 -0.3797
vn 0.9313 0.1340 -0.3387
vn 0.9878 0.1456 0.0556
vn 0.7944 -0.6073 0.0118
vn -0.5132 -0.7343 -0.4443
vn 0.1300 -0.8951 -0.4265
vn 0.1362 -0.9895 -0.0476
vn -0.5962 -0.7979 -0.0891
vn -0.3316 -0.2011 -0.9217
vn 0.2452 -0.3333 -0.9104
vn -0.1822 0.3714 -0.9104
vn 0.3993 0.2421 -0.8843
vn 0.7335 -0.5290 -0.4267
vn 0.8883 0.1157 -0.4444
vn 0.9831 0.1597 -0.0892
vn 0.8145 -0.5782 -0.0479
vn -0.5493 -0.7638 -0.3388
vn 0.0998 -0.9196 -0.3799
vn 0.1714 -0.9851 0.0114
vn -0.5856 -0.8087 0.0554
vn -0.7694 0.5137 -0.3797
vn -0.9313 -0.1340 -0.3387
vn -0.9878 -0.1456 0.0556
vn -0.7944 0.6073 0.0118
vn 0.5132 0.7343 -0.4443
vn -0.1300 0.8951 -0.4265
vn -0.1362 0.9895 -0.0476
vn 0.5962 0.7979 -0.0891
vn 0.3316 0.2011 -0.9217
vn -0.2452 0.3333 -0.9104
vn 0.1822 -0.3714 -0.9104
vn -0.3993 -0.2421 -0.8843
vn 0.8950 0.1300 -0.4267
vn 0.9895 0.1362 -0.0479
vn 0.7979 -0.5961 -0.0892
vn 0.7342 -0.5132 -0.4444
vn -0.1340 0.9313 -0.3388
vn -0.1455 0.9878 0.0554
vn 0.6074 0.7943 0.0114
vn 0.5136 0.7693 -0.3799
vn -0.9197 -0.0999 -0.3797
vn -0.9851 -0.1714 0.0118
vn -0.8086 0.5857 0.0556
vn -0.7639 0.5493 -0.3387
vn 0.1157 -0.8884 -0.4443
vn 0.1598 -0.9831 -0.0891
vn -0.5782 -0.8145 -0.0476
vn -0.5290 -0.7336 -0.4265
vn 0.2011 -0.3316 -0.9217
vn -0.3715 -0.1822 -0.9104
vn 0.3332 0.2451 -0.9104
vn -0.2422 0.3993 -0.8843
vt 0.012167 0.894395
vt 0.012161 0.862608
vt 0.401654 0.862517
vt 0.401672 0.894215
vt 0.770729 0.637544
vt 0.738930 0.637544
vt 0.738908 0.007387
vt 0.770625 0.007379
vt 0.011087 0.358772
vt 0.011087 0.004670
vt 0.605569 0.004670
vt 0.605569 0.358772
vt 0.665754 0.637544
vt 0.633954 0.637544
vt 0.633932 0.007387
vt 0.665648 0.007379
vt 0.012153 0.781665
vt 0.012159 0.749877
vt 0.401667 0.750059
vt 0.401653 0.781757
vt 0.402511 0.898447
vt 0.406213 0.894954
vt 0.402459 0.858019
vt 0.406193 0.861757
vt 0.669880 0.006541
vt 0.666388 0.002840
vt 0.629432 0.006581
vt 0.633174 0.002846
vt 0.774855 0.006541
vt 0.771365 0.002840
vt 0.734408 0.006581
vt 0.738150 0.002846
vt 0.402486 0.785988
vt 0.406185 0.782501
vt 0.402477 0.745559
vt 0.406213 0.749304
vt 0.670203 0.637542
vt 0.629261 0.637543
vt 0.012154 0.786116
vt 0.012153 0.745183
vt 0.775179 0.637542
vt 0.734237 0.637543
vt 0.012161 0.898847
vt 0.012163 0.857914
vt 0.030357 0.917428
vt 0.384349 0.917072
vt 0.384371 0.939343
vt 0.030379 0.939699
vt 0.791830 0.023428
vt 0.792136 0.620638
vt 0.793836 0.619438
vt 0.793540 0.024632
vt 0.815803 0.024621
vt 0.816101 0.619427
vt 0.686854 0.023428
vt 0.687161 0.620638
vt 0.012407 0.719528
vt 0.012407 0.366267
vt 0.606199 0.366267
vt 0.606199 0.719528
vt 0.385556 0.915367
vt 0.029151 0.915731
vt 0.030336 0.804709
vt 0.384312 0.804599
vt 0.384318 0.826869
vt 0.030343 0.826979
vt 0.385520 0.802895
vt 0.029131 0.803011
vt 0.688564 0.024632
vt 0.688861 0.619438
vt 0.710827 0.024621
vt 0.711126 0.619427
vt 0.611519 0.619791
vt 0.611679 0.024324
vt 0.029925 0.727445
vt 0.384741 0.727787
vt 0.716494 0.619791
vt 0.716655 0.024324
vt 0.029921 0.840165
vt 0.384711 0.840261
vt 0.413096 0.829099
vt 0.844696 0.829099
vt 0.844696 0.859196
vt 0.413096 0.859196
vt 0.413096 0.795490
vt 0.844696 0.795490
vt 0.844696 0.825587
vt 0.413096 0.825587
vt 0.413096 0.761885
vt 0.844696 0.761885
vt 0.844696 0.791983
vt 0.413096 0.791983
vt 0.413096 0.728276
vt 0.844696 0.728276
vt 0.844696 0.758374
vt 0.413096 0.758374
vt 0.107983 0.983687
vt 0.111358 0.984368
vt 0.108613 0.987108
vt 0.082406 0.983545
vt 0.081894 0.986785
vt 0.079217 0.984090
vt 0.108067 0.957990
vt 0.108635 0.954717
vt 0.111358 0.957486
vt 0.082448 0.957934
vt 0.079161 0.957325
vt 0.081842 0.954645
vt 0.413096 0.724762
vt 0.844696 0.724763
vt 0.888655 0.437483
vt 0.858557 0.437483
vt 0.858557 0.005879
vt 0.888655 0.005879
vt 0.922263 0.437483
vt 0.892166 0.437483
vt 0.892166 0.005879
vt 0.922263 0.005879
vt 0.955869 0.437483
vt 0.925771 0.437483
vt 0.925771 0.005879
vt 0.955869 0.005879
vt 0.989477 0.437483
vt 0.959380 0.437483
vt 0.959380 0.005879
vt 0.989477 0.005879
vt 0.221686 0.960258
vt 0.222316 0.956836
vt 0.225061 0.959577
vt 0.196110 0.960400
vt 0.192920 0.959855
vt 0.195597 0.957160
vt 0.221771 0.985955
vt 0.225061 0.986459
vt 0.222338 0.989228
vt 0.196151 0.986011
vt 0.195545 0.989300
vt 0.192865 0.986620
vt 0.992991 0.437483
vt 0.992991 0.005879
vt 0.961249 0.441373
vt 0.991346 0.441373
vt 0.991346 0.872978
vt 0.961249 0.872978
vt 0.927640 0.441373
vt 0.957737 0.441373
vt 0.957737 0.872978
vt 0.927640 0.872978
vt 0.894035 0.441373
vt 0.924132 0.441373
vt 0.924132 0.872978
vt 0.894035 0.872978
vt 0.860426 0.441373
vt 0.890524 0.441373
vt 0.890524 0.872978
vt 0.860426 0.872978
vt 0.054205 0.960486
vt 0.054834 0.957064
vt 0.057579 0.959805
vt 0.028628 0.960627
vt 0.025438 0.960082
vt 0.028115 0.957387
vt 0.054289 0.986182
vt 0.057579 0.986686
vt 0.054856 0.989456
vt 0.028669 0.986238
vt 0.028063 0.989527
vt 0.025383 0.986847
vt 0.856912 0.441373
vt 0.856912 0.872978
vt 0.845719 0.893331
vt 0.414117 0.893331
vt 0.414117 0.863233
vt 0.845719 0.863233
vt 0.845719 0.926939
vt 0.414117 0.926939
vt 0.414117 0.896842
vt 0.845719 0.896842
vt 0.845719 0.960544
vt 0.414117 0.960544
vt 0.414117 0.930447
vt 0.845719 0.930447
vt 0.845719 0.994153
vt 0.414117 0.994153
vt 0.414117 0.964055
vt 0.845719 0.964055
vt 0.163985 0.985789
vt 0.167323 0.986440
vt 0.164631 0.989129
vt 0.138369 0.985797
vt 0.137835 0.989092
vt 0.135147 0.986348
vt 0.164045 0.960168
vt 0.164650 0.956930
vt 0.167323 0.959689
vt 0.138385 0.960134
vt 0.135092 0.959522
vt 0.137781 0.956836
vt 0.845719 0.997667
vt 0.414117 0.997667
s 1
usemtl Diffuse_Table
f 36/43/19 38/44/20 27/45/21 25/46/22
f 41/47/23 43/48/24 39/49/25 35/50/26
f 42/51/27 32/52/27 28/53/27 37/54/27
f 26/55/28 29/56/29 34/57/30 30/58/31
f 31/59/32 33/60/33 44/61/34 40/62/35
f 46/63/36 25/46/22 26/64/28
f 27/45/21 61/65/37 29/66/29
f 45/67/38 30/58/31 31/68/32
f 62/69/39 33/70/33 34/57/30
f 48/71/40 35/50/26 36/72/19
f 64/73/41 38/74/20 39/49/25
f 47/75/42 40/62/35 41/76/23
f 63/77/43 43/78/24 44/61/34
f 45/67/38 46/79/36 26/55/28 30/58/31
f 25/46/22 27/45/21 29/66/29 26/64/28
f 61/80/37 62/69/39 34/57/30 29/56/29
f 33/70/33 31/68/32 30/58/31 34/57/30
f 47/75/42 45/81/38 31/59/32 40/62/35
f 62/82/39 63/77/43 44/61/34 33/60/33
f 43/78/24 41/76/23 40/62/35 44/61/34
f 48/71/40 47/83/42 41/47/23 35/50/26
f 63/84/43 64/73/41 39/49/25 43/48/24
f 38/74/20 36/72/19 35/50/26 39/49/25
f 46/63/36 48/85/40 36/43/19 25/46/22
f 64/86/41 61/65/37 27/45/21 38/44/20
f 58/87/44 53/88/45 50/89/46 52/90/47
f 57/91/48 59/92/49 47/83/42 48/71/40
f 60/93/50 58/94/44 52/95/47 51/96/51
f 55/97/52 54/98/53 46/79/36 45/67/38
f 49/99/54 51/100/51 52/101/47 50/102/46
f 54/103/53 57/104/48 48/85/40 46/63/36
f 56/105/55 60/106/50 51/107/51 49/108/54
f 59/109/49 55/110/52 45/81/38 47/75/42
f 56/111/55 53/112/45 54/98/53 55/97/52
f 60/106/50 56/105/55 55/110/52 59/109/49
f 58/94/44 60/93/50 59/92/49 57/91/48
f 53/88/45 58/87/44 57/104/48 54/103/53
f 53/112/45 56/111/55 49/113/54 50/114/46
f 28/115/27 32/116/27 62/69/39 61/80/37
f 32/117/27 42/118/27 63/77/43 62/82/39
f 42/119/27 37/120/27 64/73/41 63/84/43
f 37/121/27 28/122/27 61/65/37 64/86/41
f 77/123/56 78/124/57 69/125/58 66/126/59
f 82/127/60 83/128/61 79/129/62 76/130/63
f 72/131/64 73/132/65 84/133/66 81/134/67
f 67/135/68 68/136/69 74/137/70 71/138/71
f 65/139/72 66/140/59 67/141/68
f 70/142/73 71/143/71 72/144/64
f 75/145/74 76/146/63 77/147/56
f 80/148/75 81/149/67 82/150/60
f 70/142/73 65/139/72 67/141/68 71/143/71
f 66/151/59 69/152/58 68/136/69 67/135/68
f 73/132/65 72/131/64 71/138/71 74/137/70
f 80/148/75 70/142/73 72/144/64 81/149/67
f 83/128/61 82/127/60 81/134/67 84/133/66
f 75/145/74 80/148/75 82/150/60 76/146/63
f 78/124/57 77/123/56 76/130/63 79/129/62
f 65/139/72 75/145/74 77/147/56 66/140/59
f 70/142/73 80/148/75 75/145/74 65/139/72
f 97/153/76 86/154/77 89/155/78 98/156/79
f 102/157/80 96/158/81 99/159/82 103/160/83
f 92/161/84 101/162/85 104/163/86 93/164/87
f 87/165/88 91/166/89 94/167/90 88/168/91
f 85/169/92 87/170/88 86/171/77
f 90/172/93 92/173/84 91/174/89
f 95/175/94 97/176/76 96/177/81
f 100/178/95 102/179/80 101/180/85
f 90/172/93 91/174/89 87/170/88 85/169/92
f 86/181/77 87/165/88 88/168/91 89/182/78
f 93/164/87 94/167/90 91/166/89 92/161/84
f 100/178/95 101/180/85 92/173/84 90/172/93
f 103/160/83 104/163/86 101/162/85 102/157/80
f 95/175/94 96/177/81 102/179/80 100/178/95
f 98/156/79 99/159/82 96/158/81 97/153/76
f 85/169/92 86/171/77 97/176/76 95/175/94
f 90/172/93 85/169/92 95/175/94 100/178/95
f 117/183/96 106/184/97 109/185/98 118/186/99
f 122/187/100 116/188/101 119/189/102 123/190/103
f 112/191/104 121/192/105 124/193/106 113/194/107
f 107/195/108 111/196/109 114/197/110 108/198/111
f 105/199/112 107/200/108 106/201/97
f 110/202/113 112/203/104 111/204/109
f 115/205/114 117/206/96 116/207/101
f 120/208/115 122/209/100 121/210/105
f 110/202/113 111/204/109 107/200/108 105/199/112
f 106/211/97 107/195/108 108/198/111 109/212/98
f 113/194/107 114/197/110 111/196/109 112/191/104
f 120/208/115 121/210/105 112/203/104 110/202/113
f 123/190/103 124/193/106 121/192/105 122/187/100
f 115/205/114 116/207/101 122/209/100 120/208/115
f 118/186/99 119/189/102 116/188/101 117/183/96
f 105/199/112 106/201/97 117/206/96 115/205/114
f 110/202/113 105/199/112 115/205/114 120/208/115
f 137/213/116 138/214/117 129/215/118 126/216/119
f 142/217/120 143/218/121 139/219/122 136/220/123
f 132/221/124 133/222/125 144/223/126 141/224/127
f 127/225/128 128/226/129 134/227/130 131/228/131
f 125/229/132 126/230/119 127/231/128
f 130/232/133 131/233/131 132/234/124
f 135/235/134 136/236/123 137/237/116
f 140/238/135 141/239/127 142/240/120
f 130/232/133 125/229/132 127/231/128 131/233/131
f 126/241/119 129/242/118 128/226/129 127/225/128
f 133/222/125 132/221/124 131/228/131 134/227/130
f 140/238/135 130/232/133 132/234/124 141/239/127
f 143/218/121 142/217/120 141/224/127 144/223/126
f 135/235/134 140/238/135 142/240/120 136/236/123
f 138/214/117 137/213/116 136/220/123 139/219/122
f 125/229/132 135/235/134 137/237/116 126/230/119
f 130/232/133 140/238/135 135/235/134 125/229/132
o diffuse_chair_02
v -84.335754 -686.675110 85.368103
v -84.262375 -688.008179 85.308769
v -84.354118 -686.341614 78.848801
v -108.692932 -688.015930 85.368103
v -108.619553 -689.348999 85.308769
v -108.711296 -687.682434 78.848801
v -108.637917 -689.015442 78.789474
v -84.280731 -687.674683 78.789474
v -78.695282 -651.570312 86.416458
v -78.689270 -651.209656 85.378906
v -118.199112 -652.615295 86.388763
v -118.239777 -652.277100 85.369675
v -78.570465 -646.016357 86.136215
v -79.492737 -645.104797 86.088409
v -78.686234 -645.547424 86.112320
v -79.023811 -645.213745 86.094818
v -79.495003 -645.064575 85.269547
v -78.572517 -645.975037 85.286285
v -79.026039 -645.173584 85.271790
v -78.688385 -645.506836 85.277916
v -118.001755 -646.568420 86.088409
v -118.828316 -647.546997 86.135513
v -118.457870 -646.712646 86.094719
v -118.760414 -647.070801 86.111961
v -118.837280 -647.487366 85.285980
v -118.010994 -646.511414 85.269547
v -118.769524 -647.012329 85.277771
v -118.467079 -646.655151 85.271751
v -79.225296 -692.669067 133.083923
v -79.574173 -690.895569 123.582962
v -79.125534 -694.552551 132.702194
v -79.738495 -692.767944 133.460495
v -80.776520 -692.754456 133.083923
v -82.327744 -692.839844 133.083923
v -80.770042 -692.872192 133.714020
v -80.253510 -692.833862 133.661194
v -81.287659 -692.890808 133.661194
v -81.806801 -692.881775 133.460495
v -82.937691 -691.080750 123.582962
v -83.435173 -689.315430 114.082001
v -82.822243 -693.268250 123.157074
v -82.227974 -694.723328 132.702194
v -83.303391 -691.806885 113.611954
v -79.458710 -693.083069 123.157074
v -80.676758 -694.637939 132.702194
v -81.707031 -694.765259 133.078781
v -81.187897 -694.774292 133.279465
v -80.670273 -694.755676 133.332306
v -80.153740 -694.717346 133.279465
v -79.638733 -694.651428 133.078781
v -79.866211 -691.617676 113.611954
v -80.436905 -689.567505 99.532150
v -79.998001 -689.126221 114.082001
v -80.597725 -686.522278 100.106682
v -80.990692 -683.881042 85.994339
v -84.101845 -686.715149 100.106682
v -84.628693 -684.081360 85.994339
v -83.941025 -689.760376 99.532150
v -84.386925 -688.520508 85.591705
v -84.535873 -687.875549 71.035049
v -80.748917 -688.320251 85.591705
v -80.897858 -687.675293 71.035049
v -80.970573 -687.048157 56.967949
v -81.116608 -683.689514 71.294861
v -84.754608 -683.889771 71.294861
v -81.165871 -683.500366 57.089737
v -84.477516 -683.682678 57.089737
v -81.174957 -683.335327 44.829769
v -81.433723 -683.620361 44.555805
v -81.000458 -686.505188 44.829762
v -84.281975 -683.506348 44.829769
v -83.988907 -683.760986 44.555805
v -84.107529 -686.676208 44.829762
v -83.845016 -686.375061 44.555801
v -84.282227 -687.230469 56.967949
v -81.289833 -686.234375 44.555801
v -113.201065 -696.428345 132.702194
v -113.031189 -694.931152 123.157074
v -112.680115 -696.470215 133.078781
v -113.308632 -694.545288 133.083923
v -111.649841 -696.342957 132.702194
v -110.098618 -696.257568 132.702194
v -112.160980 -696.479248 133.279465
v -111.643356 -696.460693 133.332306
v -111.126831 -696.422363 133.279465
v -110.611816 -696.356384 133.078781
v -109.667664 -694.745972 123.157074
v -109.349823 -693.240662 113.611954
v -109.793007 -692.559082 123.582962
v -109.492302 -690.749817 114.082001
v -110.206184 -694.374512 133.083923
v -113.156532 -692.744202 123.582962
v -111.757408 -694.459900 133.083923
v -110.719391 -694.473328 133.460495
v -111.234398 -694.539307 133.661194
v -111.750931 -694.577637 133.714020
v -112.268547 -694.596191 133.661194
v -112.787689 -694.587158 133.460495
v -112.929474 -690.939026 114.082001
v -112.619186 -688.284973 100.106682
v -112.786995 -693.429871 113.611954
v -112.444786 -691.329468 99.532150
v -112.271561 -690.055481 85.591705
v -108.940666 -691.136536 99.532150
v -108.633553 -689.855225 85.591705
v -109.115067 -688.092041 100.106682
v -108.880493 -685.416321 85.994339
v -112.518501 -685.616577 85.994339
v -108.776367 -685.212097 71.294861
v -112.414375 -685.412354 71.294861
v -108.556290 -689.197815 71.035049
v -109.074516 -685.036682 57.089737
v -112.386162 -685.218994 57.089737
v -108.879219 -688.584473 56.967949
v -109.288231 -684.882874 44.829769
v -109.551575 -685.168152 44.555805
v -109.113693 -688.052734 44.829762
v -112.395248 -685.053955 44.829769
v -112.106758 -685.308838 44.555805
v -112.220757 -688.223816 44.829762
v -111.962860 -687.922852 44.555801
v -112.190872 -688.766785 56.967949
v -112.194305 -689.398071 71.035049
v -109.407677 -687.782166 44.555801
v -83.039482 -649.849915 85.421356
v -83.293762 -645.230713 85.153168
v -79.341003 -649.646362 85.421356
v -83.220787 -650.145325 75.230270
v -83.402084 -650.440674 65.039177
v -79.753754 -649.954468 75.230270
v -83.455635 -645.860718 75.029129
v -83.617508 -646.490784 64.905083
v -79.988602 -645.669922 75.029129
v -79.595284 -645.027100 85.153168
v -80.389633 -646.313110 64.905083
v -80.759804 -646.954590 54.781044
v -80.174217 -650.263000 65.039177
v -80.563820 -650.569824 54.848091
v -83.583389 -650.736023 54.848091
v -80.814407 -650.861328 44.930862
v -81.110023 -650.610779 44.657005
v -80.995361 -647.571899 44.930855
v -83.743889 -651.022583 44.930862
v -83.489754 -650.741760 44.657005
v -83.924850 -647.733154 44.930855
v -83.640198 -648.008728 44.657005
v -83.779373 -647.120789 54.781044
v -81.260475 -647.877747 44.657005
v -114.217407 -651.566223 85.421356
v -114.471680 -646.946960 85.153168
v -117.915894 -651.769775 85.421356
v -114.004791 -651.839905 75.230270
v -113.792160 -652.113586 65.039177
v -117.471817 -652.030701 75.230270
v -114.241638 -647.555420 75.029129
v -114.011597 -648.163879 64.905083
v -117.708672 -647.746277 75.029129
v -118.170166 -647.150574 85.153168
v -117.239464 -648.341553 64.905083
v -116.801117 -648.938599 54.781044
v -117.020035 -652.291260 65.039177
v -116.599106 -652.553467 54.848091
v -113.579536 -652.387207 54.848091
v -116.318031 -652.815674 44.930862
v -116.051697 -652.534241 44.657005
v -116.499237 -649.526245 44.930855
v -113.388557 -652.654419 44.930862
v -113.671974 -652.403259 44.657005
v -113.569740 -649.364990 44.930855
v -113.822418 -649.670166 44.657005
v -113.781548 -648.772339 54.781044
v -116.202148 -649.801208 44.657005
v -81.366753 -649.813904 78.792244
v -80.059250 -649.868591 78.769943
v -82.805481 -683.803833 78.848801
v -81.258598 -649.624451 85.221161
v -79.951096 -649.679138 85.198860
v -82.687248 -683.797363 85.277725
v -81.379745 -683.852051 85.255424
v -81.497978 -683.858521 78.826508
v -115.897064 -651.672791 78.792076
v -117.190659 -651.870667 78.769775
v -110.724854 -685.340698 78.848801
v -116.019875 -651.444275 85.220993
v -117.313469 -651.642151 85.198700
v -110.834755 -685.346802 85.277725
v -112.128349 -685.544678 85.255424
v -112.018448 -685.538574 78.826508
v -84.025444 -687.375000 101.296921
v -83.941490 -688.900085 101.006836
v -84.052185 -686.889221 98.735336
v -109.129982 -688.756897 101.296921
v -109.046028 -690.282043 101.006836
v -109.156723 -688.271179 98.735336
v -109.072769 -689.796265 98.445251
v -83.968231 -688.414368 98.445251
v -82.353134 -693.040466 131.566376
v -82.269180 -694.565552 131.276276
v -82.729790 -692.193115 127.002686
v -89.178726 -693.416199 131.566376
v -89.393921 -692.559998 127.002686
v -89.094772 -694.941284 131.276276
v -89.169617 -693.581726 132.439377
v -95.525063 -693.765503 131.566376
v -96.261734 -693.806091 131.566376
v -95.502808 -694.178345 133.743164
v -95.572472 -692.900085 127.002686
v -96.309372 -692.940674 127.002686
v -95.488518 -694.425232 126.712601
v -96.225418 -694.465759 126.712601
v -95.441109 -695.290649 131.276276
v -89.309967 -694.085083 126.712601
v -82.645836 -693.718262 126.712601
v -96.177780 -695.331177 131.276276
v -95.418854 -695.703491 133.453064
v -96.154404 -695.755859 133.515717
v -89.085663 -695.106873 132.149292
v -96.891266 -695.784546 133.453064
v -96.238358 -694.230774 133.805801
v -96.975220 -694.259399 133.743164
v -96.998413 -693.846619 131.566376
v -103.335632 -694.361511 132.439377
v -103.251678 -695.886658 132.149292
v -103.344742 -694.195984 131.566376
v -110.170341 -694.571716 131.566376
v -103.224831 -693.321350 127.002686
v -103.260788 -695.721130 131.276276
v -110.086388 -696.096802 131.276276
v -103.140877 -694.846436 126.712601
v -96.914459 -695.371765 131.276276
v -96.962326 -694.506348 126.712601
v -97.046280 -692.981201 127.002686
v -109.805008 -695.213318 126.712601
v -109.888962 -693.688171 127.002686
v -89.082085 -693.380005 126.911545
v -89.121559 -692.662842 127.046310
v -89.347809 -688.552795 101.143730
v -90.756111 -693.472168 126.911545
v -90.795586 -692.754944 127.046310
v -91.021835 -688.644958 101.143730
v -91.061310 -687.927734 101.278511
v -89.387283 -687.835571 101.278511
v -103.444778 -694.170593 126.911545
v -103.484253 -693.453430 127.046310
v -103.710503 -689.343384 101.143730
v -101.770752 -694.078491 126.911545
v -101.810226 -693.361267 127.046310
v -102.036476 -689.251282 101.143730
v -102.075958 -688.534058 101.278511
v -103.749977 -688.626221 101.278511
v -99.365189 -693.266174 127.034172
v -93.228523 -692.928345 127.034172
v -99.311691 -694.237915 126.860054
v -99.397308 -692.682678 123.767715
v -99.547600 -692.631714 123.437050
v -93.260643 -692.344849 123.767715
v -99.343811 -693.654419 123.593590
v -99.494102 -693.603455 123.262924
v -93.207146 -693.316650 123.593590
v -93.063354 -693.249451 123.262924
v -93.175026 -693.900146 126.860054
v -93.116852 -692.277710 123.437050
v -92.564507 -693.131470 122.757729
v -100.002892 -693.540955 122.757729
v -92.618004 -692.159729 122.931847
v -92.223747 -692.991394 122.080482
v -91.955322 -692.806763 121.132637
v -100.356979 -693.439087 122.080482
v -92.277237 -692.019592 122.254585
v -92.008820 -691.835022 121.306763
v -100.410469 -692.467346 122.254585
v -100.697533 -692.313293 121.306763
v -100.056389 -692.569153 122.931847
v -100.644035 -693.285034 121.132637
v -100.787987 -692.149597 120.365532
v -100.735710 -691.931213 119.162743
v -91.936867 -691.662415 120.365532
v -100.734497 -693.121399 120.191414
v -91.883377 -692.634155 120.191414
v -100.682213 -692.903015 118.988625
v -91.959312 -692.422852 118.988625
v -100.460472 -692.674988 117.784142
v -100.213242 -692.445740 116.580856
v -100.513969 -691.703186 117.958275
v -92.204742 -692.220520 117.784142
v -92.475639 -692.019836 116.580856
v -92.258240 -691.248718 117.958275
v -92.529137 -691.048035 116.754974
v -92.012802 -691.451050 119.162743
v -100.266731 -691.473999 116.754974
v -92.919228 -690.791870 115.205208
v -93.211868 -690.554199 113.789017
v -99.907120 -691.176514 115.205208
v -92.865738 -691.763611 115.031097
v -93.158379 -691.526001 113.614899
v -99.853622 -692.148315 115.031097
v -99.588837 -691.879944 113.614899
v -99.642326 -690.908203 113.789017
v -99.323883 -691.564026 111.933151
v -99.229874 -691.327698 110.642906
v -99.377380 -690.592285 112.107277
v -93.456406 -691.241028 111.933151
v -93.575790 -691.016418 110.642906
v -93.509895 -690.269287 112.107277
v -93.629280 -690.044678 110.817024
v -99.283371 -690.355896 110.817024
v -93.667686 -689.753906 109.182365
v -93.705063 -689.354065 106.939468
v -99.277115 -690.062683 109.182365
v -93.614189 -690.725647 109.008263
v -93.651566 -690.325806 106.765350
v -99.223618 -691.034424 109.008263
v -99.230354 -690.632935 106.765350
v -99.283852 -689.661194 106.939468
v -99.287628 -689.592468 100.940857
v -99.341125 -688.620728 101.114975
v -93.708839 -689.285400 100.940857
v -93.762337 -688.313599 101.114975
v -83.129120 -646.385376 85.004036
v -83.055817 -647.716980 85.090042
v -83.107773 -646.773132 78.982323
v -114.314568 -648.102051 85.004036
v -114.241264 -649.433655 85.090042
v -114.293221 -648.489807 78.982323
v -114.219925 -649.821411 79.068329
v -83.034470 -648.104736 79.068329
v -83.097336 -646.962708 76.038391
v -83.024040 -648.294312 76.124397
v -83.091072 -647.076538 74.270401
v -114.282791 -648.679382 76.038391
v -114.209488 -650.010986 76.124397
v -114.276520 -648.793213 74.270401
v -114.203217 -650.124817 74.356407
v -83.017769 -648.408142 74.356407
v -81.500404 -649.544067 73.269806
v -80.193069 -649.598755 73.247513
v -82.932983 -683.810852 73.326538
v -81.473618 -649.542603 74.836647
v -80.166283 -649.597290 74.814354
v -82.906197 -683.809387 74.893372
v -81.598862 -683.864075 74.871078
v -81.625648 -683.865540 73.304237
v -115.782471 -651.431213 73.269806
v -117.075897 -651.629089 73.247513
v -110.597351 -685.333679 73.326538
v -115.809250 -651.432678 74.836647
v -117.102684 -651.630554 74.814354
v -110.624138 -685.335144 74.893372
v -111.917572 -685.533020 74.871078
v -111.890785 -685.531555 73.304237
v -79.235428 -676.032837 86.283356
v -115.064514 -677.890381 86.283356
v -79.235092 -675.980896 85.257645
v -79.399521 -682.821655 86.452484
v -80.793221 -683.934570 86.478317
v -79.396538 -682.669739 85.369232
v -114.202675 -684.736816 86.452827
v -112.672722 -685.689880 86.478317
v -114.221367 -684.583435 85.369385
v -112.691330 -685.535400 85.386520
v -115.070236 -677.838440 85.256989
v -80.790413 -683.781372 85.386520
v -79.242203 -675.909729 86.283356
v -79.105698 -670.521057 86.283356
v -115.071030 -677.771973 86.283356
v -79.241753 -675.859924 85.257645
v -79.103874 -670.420715 85.379395
v -115.076637 -677.722168 85.256989
v -115.820053 -671.866821 85.370995
v -115.809410 -671.956055 86.283356
v -79.111488 -670.415771 86.283356
v -78.961548 -663.620056 86.270882
v -115.816574 -671.825989 86.283356
v -79.109901 -670.311218 85.379395
v -78.965073 -663.714539 85.233063
v -115.827431 -671.732971 85.370995
v -116.644035 -665.142822 85.234848
v -116.655441 -665.061401 86.261932
v -78.967911 -663.504456 86.270882
v -78.827072 -657.853943 86.112228
v -116.660568 -664.968384 86.261932
v -78.971626 -663.595581 85.233063
v -78.824127 -657.656189 85.277496
v -116.649323 -665.046875 85.234848
v -117.381241 -659.261169 85.278717
v -117.357544 -659.462463 86.115891
v -78.837791 -657.659241 86.112228
v -78.691383 -651.641296 86.416458
v -117.368484 -659.263672 86.115891
v -78.834938 -657.459900 85.277496
v -78.684807 -651.290649 85.378906
v -117.392273 -659.060791 85.278717
v -118.233604 -652.389160 85.369675
v -118.193466 -652.717834 86.388763
v -84.387772 -688.632996 86.622009
v -84.389107 -688.477478 85.530212
v -84.650169 -684.167114 86.427048
v -108.584564 -689.964966 86.622009
v -108.813942 -685.497253 86.427048
v -108.600311 -689.810242 85.530212
v -108.818733 -685.445251 85.400681
v -84.651115 -684.114868 85.400681
v -84.363235 -686.175903 74.871078
v -84.289856 -687.508972 74.811752
v -84.367561 -686.097351 73.326538
v -108.720421 -687.516724 74.871078
v -108.647034 -688.849731 74.811752
v -108.724739 -687.438171 73.326538
v -108.651360 -688.771240 73.267204
v -84.294182 -687.430420 73.267204
vn -0.6070 0.5164 0.6041
vn -0.5429 -0.6353 0.5493
vn 0.6093 -0.5718 0.5493
vn 0.5467 0.5799 0.6041
vn 0.6070 -0.5164 -0.6041
vn 0.5429 0.6353 -0.5493
vn -0.6093 0.5718 -0.5493
vn -0.5467 -0.5799 -0.6041
vn 0.0720 0.7434 -0.6650
vn -0.1294 0.7392 -0.6609
vn -0.1207 0.7197 0.6838
vn 0.0662 0.7303 0.6799
vn 0.5579 -0.6594 0.5039
vn 0.5985 -0.4709 -0.6481
vn 0.7318 0.0730 -0.6776
vn 0.7273 0.1083 0.6777
vn -0.7381 0.0003 -0.6747
vn -0.7023 0.3157 -0.6381
vn -0.4299 0.6455 -0.6313
vn -0.5571 -0.5175 -0.6495
vn -0.5079 -0.6964 0.5071
vn -0.7320 0.0331 0.6805
vn 0.6649 0.3755 -0.6457
vn 0.6522 0.3909 0.6495
vn 0.3713 0.6716 -0.6411
vn 0.3583 0.6708 0.6494
vn -0.4097 0.6327 0.6572
vn -0.6830 0.3231 0.6551
vn 0.6780 0.5764 0.4561
vn 0.6690 0.7351 0.1099
vn -0.0540 0.9813 0.1845
vn 0.7434 -0.6272 0.2323
vn 0.7444 -0.6550 -0.1296
vn 0.3276 0.5623 0.7593
vn 0.3969 -0.7690 0.5012
vn -0.7179 0.5023 0.4821
vn -0.3869 0.5238 0.7589
vn -0.7437 0.6482 0.1636
vn -0.0292 0.5318 0.8463
vn -0.2040 0.5186 0.8303
vn 0.1462 0.5375 0.8305
vn -0.6681 -0.7402 -0.0756
vn -0.7432 0.6501 0.1581
vn -0.6686 -0.7395 -0.0783
vn 0.6678 0.7365 0.1080
vn -0.6520 -0.7133 0.2573
vn 0.0542 -0.9841 -0.1689
vn 0.7442 -0.6553 -0.1290
vn -0.3106 -0.8073 0.5018
vn -0.1293 -0.8101 0.5719
vn 0.0445 -0.8101 0.5846
vn 0.2171 -0.7913 0.5716
vn 0.7486 -0.6554 -0.1006
vn 0.6665 0.7367 0.1140
vn -0.6749 -0.7354 -0.0598
vn -0.7439 0.6506 0.1529
vn 0.7485 -0.6607 -0.0565
vn 0.6465 0.7602 0.0643
vn -0.7286 0.6799 0.0833
vn -0.6748 -0.7372 -0.0348
vn -0.7477 0.6640 0.0054
vn -0.6706 -0.7409 -0.0361
vn 0.7443 -0.6669 -0.0354
vn 0.6665 0.7455 0.0058
vn 0.7446 -0.6668 -0.0326
vn 0.6668 0.7451 0.0086
vn -0.6666 -0.7440 -0.0448
vn -0.7443 0.6679 -0.0036
vn 0.6137 0.6887 -0.3861
vn -0.6815 0.6175 -0.3926
vn 0.6851 -0.6030 -0.4087
vn 0.2827 0.3192 -0.9046
vn -0.3123 0.2868 -0.9056
vn 0.3168 -0.2734 -0.9082
vn -0.2812 -0.3068 -0.9093
vn -0.6107 -0.6742 -0.4153
vn -0.6701 -0.7050 0.2323
vn -0.6680 -0.7328 -0.1296
vn -0.7372 0.4985 0.4561
vn -0.7456 0.6573 0.1099
vn -0.3101 -0.8079 0.5012
vn -0.3873 0.5230 0.7593
vn 0.7453 -0.6624 -0.0756
vn 0.7263 -0.6374 0.2573
vn 0.3974 -0.7683 0.5018
vn -0.1290 -0.8103 0.5716
vn 0.0447 -0.8101 0.5846
vn 0.2174 -0.7910 0.5719
vn 0.6681 0.7259 0.1636
vn 0.6584 0.5780 0.4821
vn -0.6678 -0.7331 -0.1290
vn 0.7457 -0.6617 -0.0783
vn 0.6673 0.7278 0.1581
vn -0.7446 0.6587 0.1080
vn 0.3270 0.5631 0.7589
vn 0.1458 0.5379 0.8303
vn -0.0294 0.5318 0.8463
vn -0.2043 0.5182 0.8305
vn -0.7433 0.6591 0.1140
vn -0.6721 -0.7336 -0.1006
vn 0.6680 0.7283 0.1529
vn 0.7516 -0.6569 -0.0598
vn -0.7260 0.6847 0.0643
vn -0.6715 -0.7389 -0.0565
vn 0.7516 -0.6587 -0.0348
vn 0.6495 0.7558 0.0833
vn 0.6703 0.7420 0.0054
vn -0.7443 0.6678 0.0058
vn 0.7479 -0.6629 -0.0361
vn 0.6664 0.7455 -0.0036
vn -0.7446 0.6674 0.0086
vn 0.7443 -0.6664 -0.0448
vn 0.6096 0.6886 -0.3926
vn -0.6856 0.6171 -0.3861
vn 0.6810 -0.6031 -0.4153
vn 0.2790 0.3194 -0.9056
vn -0.3160 0.2862 -0.9046
vn 0.3131 -0.2741 -0.9093
vn -0.2849 -0.3066 -0.9082
vn -0.6148 -0.6745 -0.4087
vn -0.6669 -0.7445 -0.0326
vn -0.6666 -0.7446 -0.0354
vn -0.5385 -0.5841 0.6074
vn -0.6038 0.5798 0.5470
vn -0.7448 0.6667 -0.0296
vn -0.6673 -0.7440 0.0334
vn 0.6182 -0.5179 0.5913
vn 0.5560 0.6395 0.5310
vn 0.7440 -0.6681 -0.0102
vn 0.7438 -0.6684 -0.0094
vn 0.6667 0.7418 -0.0732
vn 0.6661 0.7423 -0.0724
vn 0.7431 -0.6692 -0.0038
vn 0.6651 0.7437 -0.0670
vn -0.7450 0.6664 -0.0300
vn -0.6674 -0.7440 0.0329
vn -0.6178 -0.6920 -0.3735
vn 0.6792 -0.6213 -0.3908
vn 0.6085 0.6697 -0.4256
vn -0.2861 -0.3221 -0.9025
vn 0.3099 -0.2905 -0.9053
vn 0.2794 0.3034 -0.9110
vn -0.6893 0.5988 -0.4077
vn -0.3210 0.2692 -0.9080
vn 0.5993 -0.5214 0.6074
vn 0.7449 -0.6663 0.0334
vn 0.6671 0.7444 -0.0296
vn 0.5366 0.6426 0.5470
vn -0.6228 0.5746 0.5310
vn -0.5576 -0.5826 0.5913
vn -0.6662 -0.7457 -0.0102
vn -0.6659 -0.7460 -0.0094
vn -0.7440 0.6641 -0.0732
vn -0.7436 0.6647 -0.0724
vn -0.7427 0.6662 -0.0670
vn -0.6651 -0.7467 -0.0038
vn 0.6673 0.7442 -0.0300
vn 0.7450 -0.6662 0.0329
vn 0.6900 -0.6200 -0.3735
vn -0.6069 -0.6921 -0.3908
vn -0.6784 0.5989 -0.4256
vn -0.2761 -0.3227 -0.9053
vn 0.3197 -0.2887 -0.9025
vn -0.3111 0.2709 -0.9110
vn 0.2895 0.3028 -0.9080
vn 0.6195 0.6709 -0.4077
vn -0.5412 0.6101 0.5787
vn 0.6094 0.5625 0.5588
vn 0.5923 0.5427 -0.5955
vn -0.5642 0.5918 -0.5757
vn 0.5425 -0.6019 -0.5860
vn -0.6110 -0.5529 -0.5666
vn -0.5909 -0.5524 0.5879
vn 0.5626 -0.6002 0.5686
vn 0.4708 0.6681 0.5762
vn 0.4960 0.6478 -0.5781
vn -0.6489 0.4716 -0.5971
vn -0.6668 0.4949 0.5571
vn 0.6675 -0.4825 -0.5671
vn -0.4736 -0.6579 -0.5856
vn 0.6485 -0.4841 0.5874
vn -0.4929 -0.6583 0.5690
vn -0.6017 0.4271 0.6749
vn -0.5394 -0.7056 0.4595
vn 0.6136 -0.6422 0.4595
vn 0.5512 0.4905 0.6749
vn 0.6017 -0.4271 -0.6749
vn 0.5394 0.7056 -0.4595
vn -0.6136 0.6422 -0.4595
vn -0.5512 -0.4905 -0.6749
vn 0.2553 0.8477 0.4650
vn 0.3530 -0.9269 0.1274
vn 0.6351 -0.6339 0.4414
vn 0.5731 0.4917 0.6555
vn 0.5791 -0.4287 -0.6934
vn 0.5164 0.7115 -0.4766
vn -0.0454 0.8254 -0.5628
vn -0.0540 0.9810 0.1866
vn 0.5996 0.5172 0.6107
vn 0.6632 -0.6382 0.3909
vn 0.0745 0.5537 0.8294
vn -0.0297 0.5399 0.8412
vn 0.0309 -0.5619 -0.8266
vn 0.0540 -0.9810 -0.1866
vn 0.1494 -0.8077 0.5704
vn 0.0446 -0.8103 0.5844
vn -0.0599 -0.8192 0.5704
vn -0.1348 0.5422 0.8294
vn -0.3468 0.8146 0.4650
vn -0.6528 0.4483 0.6107
vn -0.5892 -0.7072 0.3909
vn -0.2491 -0.9601 0.1274
vn -0.6236 0.4258 0.6555
vn -0.5617 -0.6997 0.4414
vn -0.5914 0.6505 -0.4766
vn -0.5286 -0.4897 -0.6934
vn -0.5394 -0.7046 0.4610
vn 0.6135 -0.6412 0.4610
vn 0.5511 0.4920 0.6739
vn -0.6018 0.4286 0.6739
vn 0.6018 -0.4285 -0.6739
vn 0.5394 0.7046 -0.4610
vn -0.5511 -0.4920 -0.6739
vn -0.6135 0.6412 -0.4610
vn -0.6021 0.4342 0.6700
vn 0.5508 0.4977 0.6700
vn 0.5997 0.7550 0.2653
vn -0.6789 0.6846 0.2653
vn -0.5397 -0.7007 0.4666
vn 0.6133 -0.6373 0.4666
vn -0.5971 -0.8022 -0.0011
vn -0.5838 0.6421 0.4970
vn -0.5026 -0.8326 0.2327
vn 0.5098 0.7023 0.4970
vn 0.6815 -0.7318 -0.0011
vn 0.5909 -0.7724 0.2327
vn -0.5585 -0.7713 0.3053
vn 0.6398 -0.7053 0.3053
vn 0.5669 0.6198 0.5427
vn -0.6358 -0.7589 0.1410
vn 0.7152 -0.6845 0.1410
vn 0.6409 0.6653 0.3829
vn 0.7530 -0.6579 0.0097
vn 0.6788 0.6900 0.2512
vn -0.6763 -0.7366 0.0097
vn -0.7505 0.6113 0.2512
vn -0.7101 0.5910 0.3829
vn -0.6315 0.5538 0.5427
vn 0.6834 0.7178 0.1334
vn -0.7581 0.6384 0.1334
vn -0.6832 -0.7219 -0.1104
vn -0.7538 0.6561 0.0363
vn -0.6789 -0.7043 -0.2074
vn 0.6772 0.7349 0.0363
vn 0.7583 -0.6425 -0.1104
vn 0.7521 -0.6256 -0.2074
vn -0.6575 -0.7063 -0.2622
vn 0.7311 -0.6299 -0.2622
vn -0.7338 0.6792 -0.0139
vn -0.6549 -0.7029 -0.2776
vn 0.7281 -0.6268 -0.2776
vn -0.7311 0.6816 -0.0296
vn 0.6548 0.7557 -0.0139
vn 0.6519 0.7578 -0.0296
vn 0.6454 0.7635 -0.0207
vn -0.7253 0.6881 -0.0207
vn 0.7225 -0.6359 -0.2714
vn 0.7290 -0.6382 -0.2475
vn 0.6522 0.7581 0.0027
vn -0.7314 0.6819 0.0027
vn -0.6483 -0.7114 -0.2714
vn -0.6546 -0.7143 -0.2475
vn -0.6534 -0.7273 -0.2101
vn 0.7293 -0.6512 -0.2101
vn -0.7309 0.6811 0.0423
vn -0.6591 -0.7352 -0.1585
vn 0.7358 -0.6584 -0.1585
vn -0.7365 0.6700 0.0933
vn 0.6518 0.7572 0.0423
vn 0.6585 0.7468 0.0933
vn 0.6669 0.7358 0.1176
vn -0.7436 0.6582 0.1176
vn 0.7435 -0.6557 -0.1317
vn 0.7436 -0.6565 -0.1270
vn 0.6670 0.7350 0.1223
vn -0.7436 0.6573 0.1223
vn -0.6670 -0.7333 -0.1317
vn -0.6670 -0.7342 -0.1270
vn -0.5508 -0.4977 -0.6700
vn 0.6021 -0.4342 -0.6700
vn -0.6133 0.6373 -0.4667
vn 0.5397 0.7007 -0.4667
vn -0.6102 0.5806 0.5390
vn -0.5469 -0.5699 0.6133
vn 0.6061 -0.5065 0.6133
vn 0.5428 0.6441 0.5390
vn 0.6102 -0.5806 -0.5390
vn 0.5469 0.5699 -0.6133
vn -0.6061 0.5065 -0.6133
vn -0.5428 -0.6441 -0.5390
vn 0.6061 -0.5064 0.6133
vn -0.6061 0.5064 -0.6133
vn -0.5428 0.6015 0.5861
vn 0.6107 0.5533 0.5665
vn 0.5910 0.5522 -0.5881
vn -0.5625 0.6004 -0.5684
vn 0.5428 -0.6015 -0.5861
vn -0.6107 -0.5533 -0.5665
vn -0.5910 -0.5522 0.5881
vn 0.5625 -0.6004 0.5684
vn 0.4735 0.6575 0.5861
vn 0.4932 0.6585 -0.5684
vn -0.6480 0.4840 -0.5881
vn -0.6678 0.4829 0.5665
vn 0.6678 -0.4829 -0.5665
vn -0.4735 -0.6575 -0.5861
vn 0.6480 -0.4840 0.5881
vn -0.4932 -0.6585 0.5684
vn 0.5755 0.5772 0.5794
vn -0.6314 0.5153 0.5795
vn -0.6622 -0.4464 0.6019
vn 0.7058 -0.3704 0.6039
vn 0.5675 0.5991 -0.5648
vn -0.6257 0.5380 -0.5649
vn 0.6966 -0.3232 -0.6405
vn 0.2797 -0.7456 0.6048
vn 0.2634 -0.6778 -0.6865
vn -0.1937 -0.7723 0.6049
vn -0.6582 -0.3965 -0.6399
vn -0.1846 -0.7023 -0.6876
vn 0.5807 -0.5825 0.5688
vn 0.5836 -0.5466 -0.6006
vn 0.5692 0.6209 -0.5389
vn 0.5823 0.5483 0.6002
vn -0.6268 0.4959 0.6010
vn -0.5181 -0.6389 0.5686
vn -0.5254 -0.6032 -0.6001
vn -0.6257 0.5664 -0.5364
vn 0.5736 -0.6043 0.5529
vn 0.5889 -0.5415 -0.5999
vn 0.5785 0.5498 -0.6026
vn 0.5687 0.6112 0.5504
vn -0.6245 0.5572 0.5472
vn -0.5200 -0.6507 0.5533
vn -0.5344 -0.5927 -0.6026
vn -0.6233 0.4982 -0.6027
vn 0.5840 -0.5373 0.6085
vn 0.5732 -0.5957 -0.5627
vn 0.5632 0.6555 -0.5031
vn 0.5896 0.5126 0.6241
vn -0.6351 0.4558 0.6237
vn -0.5311 -0.5875 0.6106
vn -0.5201 -0.6423 -0.5631
vn -0.6206 0.6021 -0.5022
vn 0.5736 -0.6504 0.4980
vn 0.5914 -0.4896 -0.6407
vn 0.5618 0.6768 -0.4758
vn 0.5942 0.4573 0.6617
vn -0.6277 0.4100 0.6617
vn -0.5075 -0.7012 0.5007
vn -0.5450 -0.5412 -0.6403
vn -0.6179 0.6298 -0.4706
vn -0.5597 -0.5694 -0.6021
vn 0.6188 -0.5045 -0.6021
vn 0.6006 -0.5773 0.5532
vn -0.5336 -0.6397 0.5532
vn 0.5398 0.6176 -0.5721
vn 0.5476 0.6046 0.5785
vn -0.6106 0.5408 0.5785
vn -0.6043 0.5546 -0.5721
vn -0.6070 0.5165 0.6040
vn -0.5429 -0.6352 0.5494
vn 0.6094 -0.5717 0.5494
vn 0.5466 0.5800 0.6040
vn 0.6070 -0.5165 -0.6040
vn 0.5429 0.6352 -0.5494
vn -0.6094 0.5717 -0.5494
vn -0.5466 -0.5800 -0.6040
vt 0.260220 0.704599
vt 0.271953 0.704599
vt 0.271953 0.918768
vt 0.260220 0.918768
vt 0.986617 0.063677
vt 0.998350 0.063597
vt 0.998350 0.120909
vt 0.986617 0.120989
vt 0.340998 0.918768
vt 0.340998 0.704599
vt 0.398309 0.704599
vt 0.398309 0.918768
vt 0.998345 0.058955
vt 0.986612 0.058876
vt 0.986612 0.001564
vt 0.998345 0.001644
vt 0.329265 0.918768
vt 0.329265 0.704599
vt 0.992174 0.420907
vt 0.993080 0.758638
vt 0.985887 0.758596
vt 0.984992 0.420920
vt 0.979222 0.359856
vt 0.988460 0.362552
vt 0.991593 0.408322
vt 0.984138 0.408339
vt 0.454208 0.430860
vt 0.445854 0.423392
vt 0.449999 0.424098
vt 0.453057 0.426831
vt 0.988400 0.813226
vt 0.979269 0.815523
vt 0.984886 0.771069
vt 0.992349 0.771109
vt 0.792598 0.365439
vt 0.792598 0.712102
vt 0.782975 0.711966
vt 0.783187 0.365717
vt 0.991877 0.412539
vt 0.984559 0.412554
vt 0.992089 0.416690
vt 0.984870 0.416704
vt 0.992993 0.762828
vt 0.985764 0.762786
vt 0.992728 0.766921
vt 0.985400 0.766881
vt 0.738596 0.361351
vt 0.730202 0.368812
vt 0.731364 0.364784
vt 0.734436 0.362054
vt 0.730155 0.713407
vt 0.727152 0.710525
vt 0.726090 0.706443
vt 0.734294 0.714315
vt 0.449581 0.776416
vt 0.457776 0.768551
vt 0.403754 0.774156
vt 0.403754 0.427493
vt 0.453711 0.775512
vt 0.456710 0.772633
vt 0.514662 0.007202
vt 0.512075 0.091187
vt 0.501141 0.007138
vt 0.531397 0.007949
vt 0.531433 0.091879
vt 0.880168 0.683927
vt 0.880199 0.700713
vt 0.874580 0.700764
vt 0.874549 0.683978
vt 0.510170 0.003846
vt 0.487621 0.007077
vt 0.492143 0.003763
vt 0.482788 0.091190
vt 0.501167 0.001559
vt 0.496658 0.002007
vt 0.505672 0.002048
vt 0.560617 0.092674
vt 0.579973 0.091535
vt 0.584009 0.175632
vt 0.561866 0.176783
vt 0.509675 0.175368
vt 0.479619 0.175381
vt 0.558435 0.008664
vt 0.575128 0.007475
vt 0.544914 0.008304
vt 0.531875 0.176036
vt 0.554016 0.005210
vt 0.535990 0.004734
vt 0.549556 0.003313
vt 0.545061 0.002726
vt 0.540542 0.003075
vt 0.869725 0.700790
vt 0.869694 0.684003
vt 0.865183 0.700796
vt 0.865152 0.684009
vt 0.860642 0.700788
vt 0.860611 0.684002
vt 0.855786 0.700761
vt 0.855755 0.683975
vt 0.850167 0.700713
vt 0.850136 0.683927
vt 0.532900 0.301978
vt 0.505580 0.300522
vt 0.564030 0.302188
vt 0.474431 0.299733
vt 0.535504 0.425725
vt 0.496908 0.425177
vt 0.465407 0.425013
vt 0.591114 0.299722
vt 0.606361 0.424669
vt 0.567275 0.425896
vt 0.601138 0.552830
vt 0.566407 0.553004
vt 0.534786 0.552723
vt 0.500101 0.551911
vt 0.534650 0.675164
vt 0.503720 0.675432
vt 0.563508 0.675256
vt 0.468424 0.552915
vt 0.474890 0.676314
vt 0.506787 0.782053
vt 0.479749 0.782830
vt 0.534361 0.780894
vt 0.473381 0.140109
vt 0.473743 0.168992
vt 0.470113 0.165387
vt 0.470040 0.143724
vt 0.444297 0.168992
vt 0.447938 0.165580
vt 0.447500 0.143505
vt 0.444000 0.140089
vt 0.594474 0.676240
vt 0.588975 0.782773
vt 0.561416 0.780978
vt 0.795700 0.698485
vt 0.795700 0.675649
vt 0.818022 0.675649
vt 0.818022 0.698485
vt 0.067537 0.776478
vt 0.067574 0.692549
vt 0.081054 0.776124
vt 0.050803 0.777226
vt 0.048216 0.693240
vt 0.072131 0.779694
vt 0.862193 0.301395
vt 0.867811 0.301445
vt 0.867780 0.318231
vt 0.862162 0.318181
vt 0.096758 0.691753
vt 0.094575 0.775763
vt 0.090157 0.779218
vt 0.076683 0.781352
vt 0.081202 0.781702
vt 0.085696 0.781114
vt 0.116114 0.692892
vt 0.111269 0.776952
vt 0.068016 0.608392
vt 0.098007 0.607645
vt 0.120149 0.608796
vt 0.018929 0.693238
vt 0.015760 0.609047
vt 0.045816 0.609060
vt 0.037282 0.777289
vt 0.023762 0.777351
vt 0.028284 0.780664
vt 0.046311 0.780581
vt 0.032798 0.782421
vt 0.037307 0.782868
vt 0.041812 0.782379
vt 0.872667 0.301471
vt 0.872636 0.318257
vt 0.877208 0.301477
vt 0.877178 0.318263
vt 0.881750 0.301470
vt 0.881719 0.318256
vt 0.886606 0.301443
vt 0.886575 0.318229
vt 0.892224 0.301395
vt 0.892194 0.318181
vt 0.041721 0.483906
vt 0.069041 0.482450
vt 0.010571 0.484695
vt 0.100171 0.482240
vt 0.033048 0.359251
vt 0.071645 0.358703
vt 0.103416 0.358532
vt 0.142502 0.359759
vt 0.127255 0.484706
vt 0.001548 0.359415
vt 0.004565 0.231513
vt 0.036242 0.232517
vt 0.102548 0.231424
vt 0.137279 0.231598
vt 0.011031 0.108114
vt 0.039860 0.108996
vt 0.099649 0.109171
vt 0.130615 0.108188
vt 0.015890 0.001598
vt 0.042928 0.002375
vt 0.097557 0.003450
vt 0.125116 0.001654
vt 0.447693 0.211960
vt 0.447620 0.233623
vt 0.443990 0.237228
vt 0.444352 0.208345
vt 0.473733 0.208325
vt 0.470232 0.211741
vt 0.469795 0.233816
vt 0.473436 0.237228
vt 0.070502 0.003534
vt 0.070791 0.109263
vt 0.070926 0.231705
vt 0.843448 0.700554
vt 0.821126 0.700554
vt 0.821126 0.677718
vt 0.843448 0.677718
vt 0.861196 0.355744
vt 0.820689 0.356864
vt 0.818522 0.268176
vt 0.856064 0.266725
vt 0.901562 0.264156
vt 0.901562 0.296600
vt 0.860973 0.296600
vt 0.860973 0.264156
vt 0.720358 0.266799
vt 0.750633 0.269034
vt 0.747809 0.358208
vt 0.715509 0.355821
vt 0.816351 0.179417
vt 0.850968 0.177683
vt 0.725178 0.177758
vt 0.753398 0.179769
vt 0.788329 0.358280
vt 0.788188 0.269510
vt 0.788063 0.180627
vt 0.756053 0.090214
vt 0.787883 0.091432
vt 0.814440 0.090455
vt 0.729559 0.088559
vt 0.732951 0.001642
vt 0.758629 0.003100
vt 0.787410 0.004740
vt 0.471486 0.271973
vt 0.443979 0.272269
vt 0.447553 0.268649
vt 0.467840 0.268632
vt 0.468047 0.244987
vt 0.471493 0.241431
vt 0.443979 0.241774
vt 0.447363 0.245457
vt 0.846135 0.088521
vt 0.813114 0.003884
vt 0.841898 0.001672
vt 0.907259 0.683916
vt 0.907259 0.704791
vt 0.883284 0.704791
vt 0.883284 0.683916
vt 0.729746 0.004089
vt 0.724615 0.093109
vt 0.687073 0.091657
vt 0.689240 0.002970
vt 0.858835 0.226937
vt 0.899424 0.226937
vt 0.899424 0.259381
vt 0.858835 0.259381
vt 0.588909 0.093035
vt 0.584059 0.004012
vt 0.616359 0.001625
vt 0.619183 0.090800
vt 0.719518 0.182151
vt 0.684902 0.180417
vt 0.593729 0.182076
vt 0.621948 0.180064
vt 0.656738 0.090323
vt 0.656879 0.001554
vt 0.656614 0.179207
vt 0.656433 0.268402
vt 0.624603 0.269620
vt 0.682991 0.269379
vt 0.598109 0.271275
vt 0.601502 0.358192
vt 0.627179 0.356733
vt 0.655961 0.355094
vt 0.467842 0.176830
vt 0.447555 0.176813
vt 0.443980 0.173193
vt 0.471488 0.173490
vt 0.471495 0.204032
vt 0.468049 0.200475
vt 0.447365 0.200005
vt 0.443980 0.203688
vt 0.714685 0.271313
vt 0.710449 0.358162
vt 0.681665 0.355950
vt 0.683727 0.700463
vt 0.707702 0.700463
vt 0.707702 0.721338
vt 0.683727 0.721338
vt 0.998011 0.183707
vt 0.986618 0.183707
vt 0.986618 0.125614
vt 0.998011 0.125614
vt 0.145600 0.363645
vt 0.145600 0.352251
vt 0.444149 0.352251
vt 0.444149 0.363645
vt 0.444149 0.421738
vt 0.145600 0.421738
vt 0.444149 0.282765
vt 0.444149 0.294158
vt 0.145600 0.294158
vt 0.145600 0.282765
vt 0.998008 0.245741
vt 0.986614 0.245741
vt 0.986614 0.187648
vt 0.998008 0.187648
vt 0.458641 0.276568
vt 0.458641 0.334661
vt 0.447248 0.334661
vt 0.447248 0.276568
vt 0.142326 0.198190
vt 0.440874 0.198190
vt 0.440874 0.209583
vt 0.142326 0.209583
vt 0.142326 0.140097
vt 0.440874 0.140097
vt 0.440875 0.279070
vt 0.142326 0.279070
vt 0.142326 0.267676
vt 0.440875 0.267676
vt 0.447255 0.396695
vt 0.447255 0.338602
vt 0.458648 0.338602
vt 0.458648 0.396695
vt 0.893240 0.222289
vt 0.879590 0.222289
vt 0.879590 0.001548
vt 0.893240 0.001548
vt 0.902526 0.226937
vt 0.916176 0.226937
vt 0.916176 0.249829
vt 0.902526 0.249829
vt 0.916131 0.001548
vt 0.916131 0.222289
vt 0.998260 0.351152
vt 0.984610 0.351152
vt 0.984610 0.328260
vt 0.998260 0.328260
vt 0.929781 0.001548
vt 0.929781 0.222289
vt 0.856698 0.222289
vt 0.856698 0.001548
vt 0.792114 0.994408
vt 0.792114 0.981673
vt 0.848111 0.981673
vt 0.848111 0.994408
vt 0.886258 0.981673
vt 0.886258 0.994408
vt 0.237843 0.833698
vt 0.183171 0.833698
vt 0.184546 0.795646
vt 0.240542 0.795646
vt 0.132483 0.833698
vt 0.132481 0.795646
vt 0.784835 0.994408
vt 0.784835 0.981673
vt 0.132477 0.777496
vt 0.184546 0.788367
vt 0.126437 0.833698
vt 0.126438 0.795646
vt 0.126438 0.776974
vt 0.126437 0.846433
vt 0.132483 0.846433
vt 0.183171 0.846433
vt 0.132481 0.884485
vt 0.126437 0.884485
vt 0.184546 0.884485
vt 0.237843 0.846433
vt 0.240542 0.884485
vt 0.132477 0.902635
vt 0.126437 0.903157
vt 0.184546 0.891764
vt 0.731644 0.981673
vt 0.731644 0.994408
vt 0.725582 0.994408
vt 0.725582 0.981673
vt 0.120398 0.902635
vt 0.120394 0.884485
vt 0.719520 0.994408
vt 0.719520 0.981673
vt 0.120394 0.795646
vt 0.120398 0.777496
vt 0.068329 0.795646
vt 0.068329 0.788367
vt 0.666329 0.994408
vt 0.666329 0.981673
vt 0.659050 0.994408
vt 0.659050 0.981673
vt 0.603053 0.994408
vt 0.603053 0.981673
vt 0.069704 0.833698
vt 0.015032 0.833698
vt 0.012333 0.795646
vt 0.120392 0.833698
vt 0.015032 0.846433
vt 0.069704 0.846433
vt 0.068329 0.884485
vt 0.012333 0.884485
vt 0.120392 0.846433
vt 0.068329 0.891764
vt 0.564906 0.994408
vt 0.564906 0.981673
vt 0.007960 0.020161
vt 0.007960 0.034865
vt 0.001551 0.034865
vt 0.001551 0.020161
vt 0.305316 0.959157
vt 0.535251 0.959156
vt 0.535250 0.965566
vt 0.305316 0.965565
vt 0.305316 0.944453
vt 0.535251 0.944452
vt 0.535251 0.986678
vt 0.305316 0.986678
vt 0.305316 0.980269
vt 0.535250 0.980270
vt 0.845728 0.016252
vt 0.845728 0.001548
vt 0.852137 0.001548
vt 0.852137 0.016252
vt 0.846635 0.020160
vt 0.853044 0.020160
vt 0.853044 0.034863
vt 0.846635 0.034863
vt 0.961292 0.971748
vt 0.954883 0.971748
vt 0.954883 0.741814
vt 0.961292 0.741813
vt 0.975996 0.741813
vt 0.975997 0.971748
vt 0.933770 0.741813
vt 0.940179 0.741814
vt 0.940179 0.971748
vt 0.933770 0.971748
vt 0.001552 0.001555
vt 0.007962 0.001555
vt 0.007962 0.016259
vt 0.001552 0.016259
vt 0.705176 0.965314
vt 0.705176 0.912680
vt 0.733594 0.912680
vt 0.733594 0.965314
vt 0.054183 0.989943
vt 0.054183 0.998410
vt 0.001549 0.998410
vt 0.001549 0.989943
vt 0.082600 0.989943
vt 0.082600 0.998410
vt 0.085741 0.989943
vt 0.085741 0.998410
vt 0.736471 0.911419
vt 0.736471 0.966575
vt 0.924434 0.255360
vt 0.977068 0.255360
vt 0.978329 0.258237
vt 0.923173 0.258236
vt 0.977068 0.226942
vt 0.924434 0.226942
vt 0.533387 0.989943
vt 0.533387 0.998410
vt 0.530246 0.998410
vt 0.530246 0.989943
vt 0.561805 0.989943
vt 0.561805 0.998410
vt 0.982650 0.262632
vt 0.918852 0.262632
vt 0.524082 0.998410
vt 0.524082 0.989943
vt 0.985630 0.268524
vt 0.915872 0.268524
vt 0.517480 0.998410
vt 0.517480 0.989943
vt 0.508896 0.998410
vt 0.508896 0.989943
vt 0.988012 0.276770
vt 0.913490 0.276770
vt 0.755004 0.901736
vt 0.755004 0.976258
vt 0.746758 0.973876
vt 0.746758 0.904118
vt 0.740866 0.970896
vt 0.740866 0.907098
vt 0.107091 0.989943
vt 0.107091 0.998410
vt 0.098508 0.998410
vt 0.098508 0.989943
vt 0.091905 0.998410
vt 0.091905 0.989943
vt 0.763193 0.901039
vt 0.763193 0.976955
vt 0.115309 0.989943
vt 0.115309 0.998410
vt 0.125788 0.989943
vt 0.125788 0.998410
vt 0.773657 0.901589
vt 0.773657 0.976405
vt 0.912793 0.284959
vt 0.988709 0.284958
vt 0.988159 0.295423
vt 0.913343 0.295423
vt 0.986155 0.305901
vt 0.915347 0.305901
vt 0.136456 0.989943
vt 0.136456 0.998410
vt 0.983933 0.316370
vt 0.917569 0.316370
vt 0.147158 0.989943
vt 0.147158 0.998410
vt 0.479531 0.989943
vt 0.479531 0.998410
vt 0.468829 0.998410
vt 0.468829 0.989943
vt 0.490200 0.989943
vt 0.490200 0.998410
vt 0.794604 0.905815
vt 0.794604 0.972179
vt 0.784136 0.974401
vt 0.784136 0.903593
vt 0.500678 0.989943
vt 0.500678 0.998410
vt 0.808087 0.909030
vt 0.808087 0.968964
vt 0.454969 0.998410
vt 0.454969 0.989943
vt 0.442418 0.998410
vt 0.442418 0.989943
vt 0.820408 0.911420
vt 0.820408 0.966574
vt 0.920784 0.329853
vt 0.980718 0.329853
vt 0.978328 0.342174
vt 0.923174 0.342174
vt 0.161019 0.998410
vt 0.161019 0.989943
vt 0.173570 0.989943
vt 0.173570 0.998410
vt 0.975914 0.356804
vt 0.925589 0.356805
vt 0.188399 0.989943
vt 0.188399 0.998410
vt 0.974998 0.368029
vt 0.926504 0.368030
vt 0.199661 0.989943
vt 0.199661 0.998410
vt 0.427589 0.989943
vt 0.427589 0.998410
vt 0.416327 0.998410
vt 0.416327 0.989943
vt 0.846264 0.914750
vt 0.846264 0.963244
vt 0.835039 0.964159
vt 0.835039 0.913835
vt 0.860485 0.914941
vt 0.860485 0.963053
vt 0.402104 0.998410
vt 0.402104 0.989943
vt 0.382591 0.998410
vt 0.382591 0.989943
vt 0.879998 0.915073
vt 0.879998 0.962921
vt 0.926695 0.382251
vt 0.974807 0.382251
vt 0.974675 0.401764
vt 0.926827 0.401764
vt 0.233397 0.989943
vt 0.233397 0.998410
vt 0.213884 0.998410
vt 0.213884 0.989943
vt 0.974675 0.452437
vt 0.926827 0.452437
vt 0.284070 0.989943
vt 0.284070 0.998410
vt 0.331918 0.989943
vt 0.331918 0.998410
vt 0.930671 0.915073
vt 0.930671 0.962921
vt 0.377911 0.425448
vt 0.389644 0.425448
vt 0.389644 0.699658
vt 0.377911 0.699658
vt 0.916328 0.326194
vt 0.916328 0.337927
vt 0.863350 0.337927
vt 0.863350 0.326194
vt 0.324933 0.699658
vt 0.324933 0.425448
vt 0.013288 0.681070
vt 0.001555 0.681070
vt 0.001555 0.628092
vt 0.013288 0.628092
vt 0.313200 0.699658
vt 0.313200 0.425448
vt 0.260222 0.699658
vt 0.260222 0.425448
vt 0.950968 0.462664
vt 0.962701 0.462664
vt 0.962701 0.736874
vt 0.950968 0.736874
vt 0.466508 0.148363
vt 0.466508 0.160096
vt 0.450954 0.160096
vt 0.450954 0.148363
vt 0.935414 0.736874
vt 0.935414 0.462664
vt 0.450790 0.228337
vt 0.450790 0.216604
vt 0.466344 0.216604
vt 0.466344 0.228337
vt 0.923681 0.736874
vt 0.923681 0.462664
vt 0.978255 0.462664
vt 0.978256 0.736874
vt 0.447246 0.400636
vt 0.458719 0.400636
vt 0.458719 0.414373
vt 0.447246 0.414373
vt 0.702071 0.890693
vt 0.702071 0.902166
vt 0.401406 0.902166
vt 0.401406 0.890694
vt 0.401406 0.941114
vt 0.401406 0.927377
vt 0.702071 0.927376
vt 0.702071 0.941114
vt 0.401406 0.915904
vt 0.702071 0.915904
vt 0.998454 0.263425
vt 0.986982 0.263425
vt 0.986982 0.249687
vt 0.998454 0.249687
vt 0.471505 0.673575
vt 0.471505 0.687313
vt 0.460033 0.687313
vt 0.460033 0.673575
vt 0.001549 0.923774
vt 0.302216 0.923774
vt 0.302216 0.935247
vt 0.001549 0.935246
vt 0.302216 0.974194
vt 0.001549 0.974195
vt 0.001549 0.960457
vt 0.302216 0.960456
vt 0.001549 0.948984
vt 0.302216 0.948984
vt 0.909061 0.312854
vt 0.895324 0.312854
vt 0.895324 0.301381
vt 0.909061 0.301381
vt 0.915342 0.794365
vt 0.600355 0.794358
vt 0.604801 0.733920
vt 0.910818 0.734897
vt 0.915368 0.803381
vt 0.600328 0.803381
vt 0.920385 0.735745
vt 0.924359 0.794360
vt 0.898092 0.725769
vt 0.904515 0.718527
vt 0.917191 0.727712
vt 0.617782 0.724866
vt 0.598524 0.726644
vt 0.611459 0.717533
vt 0.591332 0.794377
vt 0.595233 0.734811
vt 0.712117 0.866561
vt 0.699391 0.875675
vt 0.418894 0.876556
vt 0.405911 0.867513
vt 0.716573 0.807980
vt 0.401534 0.807980
vt 0.699323 0.885355
vt 0.419013 0.886239
vt 0.906392 0.671247
vt 0.906420 0.680044
vt 0.859817 0.681409
vt 0.860275 0.673631
vt 0.864287 0.358987
vt 0.914260 0.363998
vt 0.923060 0.364198
vt 0.915186 0.671498
vt 0.806001 0.669984
vt 0.806001 0.362582
vt 0.856434 0.358825
vt 0.852485 0.673581
vt 0.864301 0.351133
vt 0.914709 0.355207
vt 0.468286 0.009544
vt 0.476263 0.009994
vt 0.480951 0.067748
vt 0.471904 0.069112
vt 0.140726 0.069236
vt 0.145794 0.009606
vt 0.145728 0.001554
vt 0.468334 0.001554
vt 0.468381 0.136103
vt 0.145776 0.136382
vt 0.140800 0.078282
vt 0.471842 0.078263
vt 0.137744 0.009772
vt 0.131797 0.067781
vt 0.618365 0.369638
vt 0.617267 0.360753
vt 0.668304 0.359331
vt 0.666858 0.366560
vt 0.665790 0.697949
vt 0.618264 0.693786
vt 0.609412 0.693715
vt 0.609412 0.369700
vt 0.725163 0.370035
vt 0.723142 0.694044
vt 0.673191 0.698104
vt 0.674230 0.366487
vt 0.617045 0.702554
vt 0.667089 0.705236
vt 0.143601 0.436678
vt 0.144665 0.429418
vt 0.197298 0.425596
vt 0.195099 0.434698
vt 0.190669 0.772549
vt 0.134558 0.766288
vt 0.127191 0.766217
vt 0.136269 0.436381
vt 0.257122 0.438160
vt 0.257122 0.768121
vt 0.199823 0.772942
vt 0.204465 0.434690
vt 0.135197 0.773629
vt 0.192144 0.781592
vt 0.724852 0.843237
vt 0.920384 0.843237
vt 0.920326 0.852130
vt 0.724910 0.852130
vt 0.929061 0.853797
vt 0.928440 0.889050
vt 0.920192 0.888239
vt 0.725044 0.888239
vt 0.716797 0.889050
vt 0.716175 0.853797
vt 0.725028 0.807979
vt 0.920208 0.807979
vt 0.920208 0.896526
vt 0.725028 0.896526
vt 0.946464 0.001554
vt 0.958197 0.001554
vt 0.958198 0.215723
vt 0.946465 0.215723
vt 0.464216 0.181448
vt 0.464292 0.193181
vt 0.450714 0.193181
vt 0.450638 0.181448
vt 0.932886 0.215723
vt 0.932886 0.001554
vt 0.462354 0.263344
vt 0.450621 0.263268
vt 0.450621 0.249690
vt 0.462354 0.249766
vt 0.983509 0.215723
vt 0.971776 0.215723
vt 0.971776 0.001554
vt 0.983509 0.001554
s 1
usemtl Diffuse_Chair
f 148/243/136 149/244/137 146/245/138 145/246/139
f 145/247/139 146/248/138 152/249/140 147/250/141
f 147/251/141 150/252/142 148/253/136 145/254/139
f 150/255/142 151/256/143 149/257/137 148/258/136
f 147/251/141 152/259/140 151/260/143 150/252/142
f 151/260/143 152/259/140 146/245/138 149/244/137
f 161/261/144 170/262/145 165/263/146 158/264/147
f 153/265/148 154/266/149 162/267/150 157/268/151
f 170/269/145 169/270/152 171/271/153 172/272/154
f 156/273/155 155/274/156 166/275/157 169/276/152
f 156/277/155 154/278/149 153/279/148 155/280/156
f 157/268/151 162/267/150 164/281/158 159/282/159
f 159/282/159 164/281/158 163/283/160 160/284/161
f 160/284/161 163/283/160 161/261/144 158/264/147
f 165/263/146 170/262/145 172/285/154 167/286/162
f 167/286/162 172/285/154 171/287/153 168/288/163
f 168/288/163 171/287/153 169/276/152 166/275/157
f 166/289/157 165/290/146 167/291/162 168/292/163
f 159/293/159 160/294/161 158/295/147 157/296/151
f 153/279/148 157/296/151 166/289/157 155/280/156
f 157/296/151 158/295/147 165/290/146 166/289/157
f 162/297/150 169/270/152 170/269/145 161/298/144
f 154/299/149 156/300/155 169/270/152 162/297/150
f 164/301/158 162/297/150 161/298/144 163/302/160
f 173/303/164 174/304/165 177/305/166
f 175/306/167 188/307/168 174/304/165 173/303/164
f 175/308/167 173/309/164 176/310/169 194/311/170
f 176/312/169 173/303/164 177/305/166
f 177/305/166 178/313/171 182/314/172
f 183/315/173 178/313/171 177/305/166
f 179/316/174 177/305/166 181/317/175
f 180/318/176 177/305/166 179/316/174
f 180/318/176 176/312/169 177/305/166
f 181/317/175 177/305/166 182/314/172
f 174/304/165 183/315/173 177/305/166
f 185/319/177 183/320/173 184/321/178 187/322/179
f 174/304/165 197/323/180 184/324/178 183/315/173
f 186/325/181 178/326/171 183/320/173 185/319/177
f 185/319/177 189/327/182 186/325/181
f 195/328/183 188/307/168 185/319/177 187/322/179
f 185/319/177 188/307/168 189/327/182
f 189/327/182 190/329/184 186/325/181
f 188/307/168 175/306/167 189/327/182
f 175/306/167 194/330/170 189/327/182
f 189/327/182 191/331/185 190/329/184
f 189/327/182 192/332/186 191/331/185
f 189/327/182 193/333/187 192/332/186
f 194/330/170 193/333/187 189/327/182
f 194/311/170 176/310/169 180/334/176 193/335/187
f 193/335/187 180/334/176 179/336/174 192/337/186
f 192/337/186 179/336/174 181/338/175 191/339/185
f 191/339/185 181/338/175 182/340/172 190/341/184
f 190/341/184 182/340/172 178/342/171 186/343/181
f 188/307/168 195/328/183 197/323/180 174/304/165
f 195/328/183 196/344/188 198/345/189 197/323/180
f 196/344/188 195/328/183 187/322/179 202/346/190
f 197/323/180 198/345/189 200/347/191 184/324/178
f 196/344/188 205/348/192 199/349/193 198/345/189
f 198/345/189 199/349/193 201/350/194 200/347/191
f 187/322/179 184/321/178 200/351/191 202/346/190
f 202/346/190 200/351/191 201/352/194 203/353/195
f 205/348/192 196/344/188 202/346/190 203/353/195
f 203/353/195 201/352/194 209/354/196 204/355/197
f 206/356/198 205/348/192 203/353/195 204/355/197
f 199/349/193 205/348/192 206/356/198 208/357/199
f 208/357/199 206/356/198 207/358/200 210/359/201
f 207/358/200 206/356/198 204/355/197 219/360/202
f 199/349/193 208/357/199 209/361/196 201/350/194
f 208/357/199 210/359/201 211/362/203 209/361/196
f 210/359/201 212/363/204 215/364/205 211/362/203
f 210/359/201 207/358/200 214/365/206 212/363/204
f 215/366/205 212/367/204 213/368/207 216/369/208
f 212/367/204 214/370/206 220/371/209 213/368/207
f 216/369/208 218/372/210 217/373/211 215/366/205
f 219/360/202 211/374/203 215/375/205 217/376/211
f 214/370/206 217/373/211 218/372/210 220/371/209
f 214/365/206 207/358/200 219/360/202 217/376/211
f 204/355/197 209/354/196 211/374/203 219/360/202
f 213/377/207 220/378/209 218/379/210 216/380/208
f 221/381/212 222/382/213 225/383/182
f 221/381/212 224/384/214 236/385/215 222/382/213
f 221/381/212 225/383/182 223/386/216
f 221/387/212 223/388/216 242/389/217 224/390/214
f 231/391/218 226/392/219 225/383/182
f 225/383/182 226/392/219 230/393/220
f 223/386/216 225/383/182 227/394/221
f 227/394/221 225/383/182 228/395/222
f 228/395/222 225/383/182 229/396/223
f 229/396/223 225/383/182 230/393/220
f 222/382/213 231/391/218 225/383/182
f 226/392/219 231/391/218 233/397/224 235/398/225
f 245/399/226 232/400/227 231/391/218 222/382/213
f 231/391/218 232/400/227 234/401/228 233/397/224
f 236/385/215 233/402/224 234/403/228 243/404/229
f 233/402/224 237/405/166 235/406/225
f 233/402/224 236/385/215 237/405/166
f 237/405/166 238/407/230 235/406/225
f 236/385/215 224/384/214 237/405/166
f 224/384/214 242/408/217 237/405/166
f 237/405/166 239/409/231 238/407/230
f 237/405/166 240/410/232 239/409/231
f 237/405/166 241/411/233 240/410/232
f 242/408/217 241/411/233 237/405/166
f 223/388/216 227/412/221 241/413/233 242/389/217
f 227/412/221 228/414/222 240/415/232 241/413/233
f 228/414/222 229/416/223 239/417/231 240/415/232
f 229/416/223 230/418/220 238/419/230 239/417/231
f 230/418/220 226/420/219 235/421/225 238/419/230
f 222/382/213 236/385/215 243/404/229 245/399/226
f 245/399/226 243/404/229 244/422/234 246/423/235
f 243/404/229 234/403/228 250/424/236 244/422/234
f 246/423/235 248/425/237 232/400/227 245/399/226
f 246/423/235 244/422/234 252/426/238 247/427/239
f 247/427/239 249/428/240 248/425/237 246/423/235
f 248/425/237 249/428/240 251/429/241 250/430/236
f 232/400/227 248/425/237 250/430/236 234/401/228
f 244/422/234 250/424/236 251/431/241 252/426/238
f 252/426/238 251/431/241 253/432/242 254/433/243
f 249/428/240 255/434/244 253/435/242 251/429/241
f 254/433/243 253/432/242 256/436/245 257/437/246
f 255/434/244 258/438/247 256/439/245 253/435/242
f 257/437/246 256/436/245 259/440/248 262/441/249
f 258/438/247 261/442/250 259/443/248 256/439/245
f 260/444/251 263/445/252 262/446/249 259/447/248
f 259/447/248 261/448/250 268/449/253 260/444/251
f 263/445/252 265/450/254 264/451/255 262/446/249
f 257/437/246 262/441/249 264/452/255 266/453/256
f 265/450/254 268/449/253 261/448/250 264/451/255
f 264/452/255 261/442/250 258/438/247 266/453/256
f 254/433/243 257/437/246 266/453/256 267/454/257
f 266/453/256 258/438/247 255/434/244 267/454/257
f 252/426/238 254/433/243 267/454/257 247/427/239
f 267/454/257 255/434/244 249/428/240 247/427/239
f 263/455/252 260/456/251 268/457/253 265/458/254
f 269/459/258 270/460/259 275/461/260 272/462/261
f 269/463/258 271/464/262 278/465/263 270/466/259
f 272/467/261 274/468/264 271/469/262 269/470/258
f 272/462/261 275/461/260 276/471/260 273/472/261
f 273/473/261 281/474/265 274/468/264 272/467/261
f 270/460/259 278/475/263 277/476/266 275/461/260
f 275/461/260 277/476/266 279/477/267 276/471/260
f 271/469/262 274/468/264 277/476/266 278/475/263
f 274/468/264 281/474/265 279/477/267 277/476/266
f 281/474/265 282/478/268 280/479/269 279/477/267
f 276/471/260 279/477/267 280/479/269 291/480/270
f 283/481/271 282/478/268 281/474/265 273/473/261
f 287/482/272 284/483/273 282/478/268 283/481/271
f 282/478/268 284/483/273 286/484/274 280/479/269
f 284/485/273 287/486/272 288/487/275 285/488/276
f 285/488/276 292/489/277 286/490/274 284/485/273
f 287/486/272 289/491/278 290/492/279 288/487/275
f 283/493/271 291/480/270 289/494/278 287/495/272
f 289/491/278 286/490/274 292/489/277 290/492/279
f 291/480/270 280/479/269 286/484/274 289/494/278
f 273/472/261 276/471/260 291/480/270 283/493/271
f 290/496/279 292/497/277 285/498/276 288/499/275
f 293/500/280 296/501/281 299/502/282 294/503/283
f 293/504/280 294/505/283 302/506/284 295/507/285
f 296/508/281 293/509/280 295/510/285 298/511/286
f 296/501/281 297/512/281 300/513/282 299/502/282
f 297/514/281 296/508/281 298/511/286 305/515/287
f 294/503/283 299/502/282 301/516/288 302/517/284
f 299/502/282 300/513/282 303/518/289 301/516/288
f 295/510/285 302/517/284 301/516/288 298/511/286
f 298/511/286 301/516/288 303/518/289 305/515/287
f 305/515/287 303/518/289 304/519/290 306/520/291
f 300/513/282 315/521/292 304/519/290 303/518/289
f 307/522/293 297/514/281 305/515/287 306/520/291
f 311/523/294 307/522/293 306/520/291 308/524/295
f 306/520/291 304/519/290 310/525/296 308/524/295
f 309/526/297 312/527/298 311/528/294 308/529/295
f 308/529/295 310/530/296 316/531/299 309/526/297
f 312/527/298 314/532/300 313/533/301 311/528/294
f 307/534/293 311/535/294 313/536/301 315/521/292
f 314/532/300 316/531/299 310/530/296 313/533/301
f 315/521/292 313/536/301 310/525/296 304/519/290
f 297/512/281 307/534/293 315/521/292 300/513/282
f 314/537/300 312/538/298 309/539/297 316/540/299
f 320/541/302 321/542/303 318/543/304 317/544/305
f 317/545/305 318/546/304 324/547/306 319/548/307
f 319/548/307 322/549/308 320/550/302 317/545/305
f 322/551/308 323/552/309 321/553/303 320/554/302
f 319/555/307 324/556/306 323/557/309 322/558/308
f 323/552/309 324/547/306 318/546/304 321/553/303
f 328/559/310 325/560/311 326/561/312 329/562/313
f 325/563/311 327/564/314 332/565/315 326/566/312
f 327/564/314 325/563/311 328/567/310 330/568/316
f 330/569/316 328/570/310 329/571/313 331/572/317
f 327/573/314 330/574/316 331/575/317 332/576/315
f 331/572/317 329/571/313 326/566/312 332/565/315
f 336/577/318 337/578/319 334/579/320 333/580/321
f 333/581/321 334/582/320 340/583/322 335/584/323
f 335/585/323 338/586/324 336/577/318 333/580/321
f 338/587/324 339/588/325 337/589/319 336/590/318
f 335/585/323 340/591/322 339/592/325 338/586/324
f 339/593/325 340/594/322 334/579/320 337/578/319
f 344/595/326 346/596/327 342/597/328 341/598/329
f 341/598/329 342/597/328 357/599/330 343/600/331
f 343/601/331 345/602/332 344/603/326 341/604/329
f 345/602/332 351/605/332 348/606/333 344/603/326
f 346/596/327 344/595/326 347/607/334 361/608/335
f 344/603/326 348/606/333 350/609/336 347/610/334
f 352/611/332 349/612/333 348/606/333 351/605/332
f 349/612/333 363/613/337 350/609/336 348/606/333
f 354/614/338 352/611/332 351/605/332 353/615/338
f 345/602/332 356/616/338 353/615/338 351/605/332
f 353/615/338 355/617/339 358/618/339 354/614/338
f 353/615/338 356/616/338 346/619/327 355/617/339
f 343/601/331 357/620/330 356/616/338 345/602/332
f 356/616/338 357/620/330 342/621/328 346/619/327
f 355/617/339 359/622/340 360/623/341 358/618/339
f 355/617/339 346/619/327 361/624/335 359/622/340
f 359/625/340 350/626/336 363/627/337 360/628/341
f 350/626/336 359/625/340 361/608/335 347/607/334
f 358/618/339 360/623/341 362/629/342 374/630/339
f 360/628/341 363/627/337 364/631/343 362/632/342
f 365/633/333 364/634/343 363/613/337 349/612/333
f 365/633/333 368/635/344 366/636/345 364/634/343
f 366/637/345 367/638/346 362/632/342 364/631/343
f 368/639/344 371/640/347 367/638/346 366/637/345
f 369/641/348 372/642/349 371/640/347 368/639/344
f 370/643/332 378/644/350 369/645/348 368/635/344
f 376/646/332 370/643/332 368/635/344 365/633/333
f 377/647/351 373/648/338 371/649/347 372/650/349
f 373/648/338 375/651/338 374/630/339 371/649/347
f 371/649/347 374/630/339 362/629/342 367/652/346
f 354/614/338 358/618/339 374/630/339 375/651/338
f 375/651/338 376/646/332 352/611/332 354/614/338
f 376/646/332 375/651/338 373/648/338 370/643/332
f 376/646/332 365/633/333 349/612/333 352/611/332
f 370/643/332 373/648/338 377/647/351 378/644/350
f 378/653/350 377/654/351 372/642/349 369/641/348
f 382/655/352 379/656/353 380/657/354 383/658/355
f 379/659/353 381/660/356 386/661/357 380/662/354
f 381/660/356 379/659/353 382/663/352 384/664/358
f 384/665/358 382/666/352 383/667/355 385/668/359
f 381/669/356 384/670/358 385/671/359 386/672/357
f 385/668/359 383/667/355 380/662/354 386/661/357
f 390/673/353 391/674/354 388/675/355 387/676/352
f 387/677/352 388/678/355 394/679/359 389/680/358
f 389/680/358 392/681/356 390/682/353 387/677/352
f 392/683/356 393/684/357 391/685/354 390/686/353
f 389/687/358 394/688/359 393/689/357 392/690/356
f 393/684/357 394/679/359 388/678/355 391/685/354
f 395/691/360 396/692/361 400/693/362 398/694/363
f 395/695/360 397/696/364 405/697/365 396/698/361
f 398/699/363 401/700/366 397/696/364 395/695/360
f 399/701/367 402/702/368 401/700/366 398/699/363
f 406/703/369 399/704/367 398/694/363 400/693/362
f 403/705/370 401/706/366 402/707/368 404/708/371
f 397/709/364 401/706/366 403/705/370 405/710/365
f 400/711/362 403/712/370 404/713/371 406/714/369
f 396/715/361 405/716/365 403/712/370 400/711/362
f 402/707/368 408/717/372 407/718/373 404/708/371
f 406/714/369 404/713/371 407/719/373 409/720/374
f 408/717/372 412/721/375 410/722/376 407/718/373
f 409/720/374 407/719/373 410/723/376 413/724/377
f 413/724/377 410/723/376 411/725/378 414/726/379
f 410/722/376 412/721/375 418/727/380 411/728/378
f 414/729/379 416/730/381 415/731/382 413/732/377
f 417/733/383 409/734/374 413/732/377 415/731/382
f 416/735/381 418/736/380 412/737/375 415/738/382
f 415/738/382 412/737/375 408/739/372 417/740/383
f 399/704/367 406/703/369 409/734/374 417/733/383
f 417/740/383 408/739/372 402/702/368 399/701/367
f 416/730/381 414/729/379 421/741/384 419/742/385
f 419/743/385 422/744/386 418/736/380 416/735/381
f 420/745/387 424/746/388 422/744/386 419/743/385
f 433/747/389 420/748/387 419/742/385 421/741/384
f 423/749/390 422/750/386 424/751/388 425/752/391
f 418/727/380 422/750/386 423/749/390 411/728/378
f 424/751/388 426/753/392 429/754/393 425/752/391
f 428/755/394 426/756/392 424/746/388 420/745/387
f 429/754/393 426/753/392 427/757/395 430/758/396
f 434/759/397 427/760/395 426/756/392 428/755/394
f 431/761/398 429/762/393 430/763/396 432/764/399
f 433/765/389 425/766/391 429/762/393 431/761/398
f 432/767/399 434/768/397 428/769/394 431/770/398
f 420/748/387 433/747/389 431/770/398 428/769/394
f 421/771/384 423/772/390 425/766/391 433/765/389
f 434/768/397 432/767/399 435/773/400 437/774/401
f 432/764/399 430/763/396 438/775/402 435/776/400
f 439/777/403 436/778/404 435/776/400 438/775/402
f 436/779/404 442/780/405 437/774/401 435/773/400
f 438/781/402 440/782/406 441/783/407 439/784/403
f 427/757/395 440/782/406 438/781/402 430/758/396
f 440/785/406 437/786/401 442/787/405 441/788/407
f 437/786/401 440/785/406 427/760/395 434/759/397
f 441/783/407 443/789/408 446/790/409 439/784/403
f 445/791/410 443/792/408 441/788/407 442/787/405
f 446/790/409 443/789/408 444/793/411 447/794/412
f 450/795/413 444/796/411 443/792/408 445/791/410
f 448/797/414 446/798/409 447/799/412 449/800/415
f 436/778/404 439/777/403 446/798/409 448/797/414
f 449/801/415 450/802/413 445/803/410 448/804/414
f 442/780/405 436/779/404 448/804/414 445/803/410
f 450/802/413 449/801/415 451/805/416 453/806/417
f 449/800/415 447/799/412 454/807/418 451/808/416
f 451/808/416 454/807/418 455/809/419 452/810/420
f 452/811/420 458/812/421 453/806/417 451/805/416
f 454/813/418 456/814/422 457/815/423 455/816/419
f 444/793/411 456/814/422 454/813/418 447/794/412
f 458/817/421 457/818/423 456/819/422 453/820/417
f 453/820/417 456/819/422 444/796/411 450/795/413
f 457/815/423 459/821/424 461/822/425 455/816/419
f 460/823/426 459/824/424 457/818/423 458/817/421
f 462/825/427 461/826/425 459/824/424 460/823/426
f 452/810/420 455/809/419 461/826/425 462/825/427
f 458/812/421 452/811/420 462/827/427 460/828/426
f 414/726/379 411/725/378 423/772/390 421/771/384
f 466/829/428 467/830/429 464/831/430 463/832/431
f 463/833/431 464/834/430 470/835/432 465/836/433
f 465/837/433 468/838/434 466/829/428 463/832/431
f 468/839/434 469/840/435 467/841/429 466/842/428
f 465/837/433 470/843/432 469/844/435 468/838/434
f 469/844/435 470/843/432 464/845/430 467/846/429
f 474/847/428 475/848/429 472/849/436 471/850/431
f 471/851/431 472/852/436 478/853/432 473/854/433
f 473/855/433 476/856/437 474/847/428 471/850/431
f 476/857/437 477/858/435 475/859/429 474/860/428
f 473/855/433 478/861/432 477/862/435 476/856/437
f 477/863/435 478/864/432 472/849/436 475/848/429
f 482/865/438 483/866/439 480/867/440 479/868/441
f 479/869/441 480/870/440 486/871/442 481/872/443
f 481/873/443 484/874/444 482/875/438 479/876/441
f 484/874/444 485/877/445 483/878/439 482/875/438
f 481/879/443 486/880/442 485/881/445 484/882/444
f 485/877/445 486/871/442 480/870/440 483/878/439
f 490/883/446 487/884/447 488/885/448 491/886/449
f 487/887/447 489/888/450 494/889/451 488/890/448
f 489/891/450 487/892/447 490/893/446 492/894/452
f 492/894/452 490/893/446 491/895/449 493/896/453
f 489/897/450 492/898/452 493/899/453 494/900/451
f 493/896/453 491/895/449 488/890/448 494/889/451
f 495/901/454 496/902/455 501/903/456 498/904/457
f 496/902/455 495/901/454 497/905/458 505/906/459
f 498/904/457 500/907/460 497/908/458 495/901/454
f 499/909/461 506/910/462 500/911/460 498/904/457
f 498/904/457 501/903/456 502/912/463 499/909/461
f 501/903/456 503/913/464 504/914/465 502/912/463
f 501/903/456 496/902/455 505/915/459 503/916/464
f 500/917/460 506/918/462 504/919/465 503/920/464
f 497/921/458 500/917/460 503/920/464 505/922/459
f 506/918/462 499/923/461 502/924/463 504/919/465
f 507/925/466 510/926/467 511/927/468 508/928/469
f 508/928/469 514/929/470 509/930/471 507/925/466
f 509/930/471 512/931/472 510/932/467 507/925/466
f 510/933/467 512/934/472 513/935/473 511/936/468
f 509/930/471 514/929/470 513/937/473 512/938/472
f 514/929/470 508/928/469 511/936/468 513/935/473
f 515/939/474 518/940/475 519/941/476 516/942/477
f 516/942/477 522/943/478 517/944/479 515/939/474
f 517/944/479 520/945/480 518/946/475 515/939/474
f 518/947/475 520/948/480 521/949/481 519/950/476
f 520/951/480 517/944/479 522/943/478 521/952/481
f 521/949/481 522/943/478 516/942/477 519/950/476
f 523/953/482 526/954/483 527/955/484 524/956/485
f 524/956/485 530/957/486 525/958/487 523/953/482
f 528/959/488 526/960/483 523/953/482 525/958/487
f 526/961/483 528/962/488 529/963/489 527/964/484
f 528/965/488 525/958/487 530/957/486 529/966/489
f 529/963/489 530/957/486 524/956/485 527/964/484
f 531/967/490 534/968/491 535/969/492 532/970/493
f 532/970/493 538/971/494 533/972/495 531/967/490
f 536/973/496 534/974/491 531/967/490 533/972/495
f 534/975/491 536/976/496 537/977/497 535/978/492
f 536/979/496 533/972/495 538/971/494 537/980/497
f 537/977/497 538/971/494 532/970/493 535/978/492
f 544/981/498 540/982/499 539/983/500 542/984/501
f 539/983/500 540/985/499 546/986/502 541/987/503
f 542/984/501 539/983/500 541/987/503 543/988/504
f 542/984/501 543/988/504 545/989/505 544/990/498
f 545/991/505 546/992/502 540/982/499 544/981/498
f 543/988/504 541/987/503 546/993/502 545/994/505
f 550/995/506 551/996/507 548/997/508 547/998/509
f 547/999/509 548/1000/508 554/1001/510 549/1002/511
f 549/1003/511 552/1004/512 550/995/506 547/998/509
f 552/1005/512 553/1006/513 551/1007/507 550/1008/506
f 549/1009/511 554/1010/510 553/1011/513 552/1012/512
f 553/1011/513 554/1010/510 548/997/508 551/996/507
