# Blender 3.6.23
# www.blender.org
mtllib scene_0010_glass.mtl
o glass_window_01
v 11.387817 -570.650208 0.000000
v 12.790131 -567.234558 79.914749
v 10.629036 -572.498352 0.092308
v 12.031349 -569.082764 80.007057
v -81.119202 -532.670532 0.000000
v -79.716888 -529.254944 79.914749
v -81.877983 -534.518738 0.092308
v -80.475670 -531.103088 80.007057
vn 0.9251 -0.3798 -0.0000
vn -0.3794 -0.9241 0.0462
vn -0.9251 0.3798 -0.0000
vn 0.3794 0.9241 -0.0462
vn -0.0175 -0.0427 -0.9989
vn 0.0175 0.0427 0.9989
vt 0.375000 0.000000
vt 0.625000 0.000000
vt 0.625000 0.250000
vt 0.375000 0.250000
vt 0.625000 0.500000
vt 0.375000 0.500000
vt 0.625000 0.750000
vt 0.375000 0.750000
vt 0.625000 1.000000
vt 0.375000 1.000000
vt 0.125000 0.500000
vt 0.125000 0.750000
vt 0.875000 0.500000
vt 0.875000 0.750000
s 0
usemtl Glass_Clear
f 1/1/1 2/2/1 4/3/1 3/4/1
f 3/4/2 4/3/2 8/5/2 7/6/2
f 7/6/3 8/5/3 6/7/3 5/8/3
f 5/8/4 6/7/4 2/9/4 1/10/4
f 3/11/5 7/6/5 5/8/5 1/12/5
f 8/5/6 4/13/6 2/14/6 6/7/6
o glass_partition_02
v 44.017174 -583.083618 0.050869
v 44.098427 -584.097717 40.037930
v 44.176849 -585.076538 0.000000
v 44.258110 -586.090698 39.987061
v -5.823107 -587.076904 0.050869
v -5.741850 -588.091064 40.037930
v -5.663427 -589.069885 0.000000
v -5.582170 -590.083984 39.987061
vn 0.9968 0.0799 -0.0000
vn 0.0798 -0.9965 -0.0254
vn -0.9968 -0.0799 -0.0000
vn -0.0798 0.9965 0.0254
vn -0.0020 0.0254 -0.9997
vn 0.0020 -0.0254 0.9997
vt 0.375000 0.000000
vt 0.625000 0.000000
vt 0.625000 0.250000
vt 0.375000 0.250000
vt 0.625000 0.500000
vt 0.375000 0.500000
vt 0.625000 0.750000
vt 0.375000 0.750000
vt 0.625000 1.000000
vt 0.375000 1.000000
vt 0.125000 0.500000
vt 0.125000 0.750000
vt 0.875000 0.500000
vt 0.875000 0.750000
s 0
usemtl Glass_Clear
f 9/15/7 10/16/7 12/17/7 11/18/7
f 11/18/8 12/17/8 16/19/8 15/20/8
f 15/20/9 16/19/9 14/21/9 13/22/9
f 13/22/10 14/21/10 10/23/10 9/24/10
f 11/25/11 15/20/11 13/22/11 9/26/11
f 16/19/12 12/27/12 10/28/12 14/21/12
o glass_table_03
v -33.359299 -658.774475 0.000000
v -33.035324 -653.646851 79.834846
v -33.485153 -660.766357 0.128448
v -33.161179 -655.638794 79.963295
v -113.200089 -653.729858 0.000000
v -112.876114 -648.602295 79.834846
v -113.325943 -655.721802 0.128448
v -113.001968 -650.594177 79.963295
vn 0.9980 -0.0631 -0.0000
vn -0.0629 -0.9959 0.0642
vn -0.9980 0.0631 -0.0000
vn 0.0629 0.9959 -0.0642
vn -0.0040 -0.0641 -0.9979
vn 0.0041 0.0641 0.9979
vt 0.375000 0.000000
vt 0.625000 0.000000
vt 0.625000 0.250000
vt 0.375000 0.250000
vt 0.625000 0.500000
vt 0.375000 0.500000
vt 0.625000 0.750000
vt 0.375000 0.750000
vt 0.625000 1.000000
vt 0.375000 1.000000
vt 0.125000 0.500000
vt 0.125000 0.750000
vt 0.875000 0.500000
vt 0.875000 0.750000
s 0
usemtl Glass_Clear
f 17/29/13 18/30/13 20/31/13 19/32/13
f 19/32/14 20/31/14 24/33/14 23/34/14
f 23/34/15 24/33/15 22/35/15 21/36/15
f 21/36/16 22/35/16 18/37/16 17/38/16
f 19/39/17 23/34/17 21/36/17 17/40/17
f 24/33/18 20/41/18 18/42/18 22/35/18
