# Blender 3.6.23
# www.blender.org
mtllib scene_0005_glass.mtl
o glass_table_01
v -42.052284 -698.100342 0.119667
v -44.057732 -702.446777 79.976326
v -42.888695 -699.913147 0.000000
v -44.894142 -704.259583 79.856659
v -114.692833 -664.583923 0.119667
v -116.698280 -668.930359 79.976326
v -115.529243 -666.396729 0.000000
v -117.534691 -670.743164 79.856659
vn 0.9080 -0.4189 -0.0000
vn -0.4182 -0.9064 -0.0598
vn -0.9080 0.4189 -0.0000
vn 0.4182 0.9064 0.0598
vn 0.0251 0.0543 -0.9982
vn -0.0251 -0.0543 0.9982
vt 0.375000 0.000000
vt 0.625000 0.000000
vt 0.625000 0.250000
vt 0.375000 0.250000
vt 0.625000 0.500000
vt 0.375000 0.500000
vt 0.625000 0.750000
vt 0.375000 0.750000
vt 0.625000 1.000000
vt 0.375000 1.000000
vt 0.125000 0.500000
vt 0.125000 0.750000
vt 0.875000 0.500000
vt 0.875000 0.750000
s 0
usemtl Glass_Clear
f 1/1/1 2/2/1 4/3/1 3/4/1
f 3/4/2 4/3/2 8/5/2 7/6/2
f 7/6/3 8/5/3 6/7/3 5/8/3
f 5/8/4 6/7/4 2/9/4 1/10/4
f 3/11/5 7/6/5 5/8/5 1/12/5
f 8/5/6 4/13/6 2/14/6 6/7/6
