# Blender 3.6.23
# www.blender.org
mtllib scene_0003.mtl
o glass_door_01
v -22.485882 -589.818054 0.095711
v -23.509762 -595.564331 149.982117
v -22.836452 -591.785522 0.017891
v -23.860332 -597.531860 149.904297
v -111.090347 -574.030396 0.095711
v -112.114227 -579.776733 149.982117
v -111.440918 -575.997925 0.017891
v -112.464798 -581.744202 149.904297
vn 0.9845 -0.1754 -0.0000
vn -0.1753 -0.9837 -0.0389
vn -0.9845 0.1754 -0.0000
vn 0.1753 0.9837 0.0389
vn 0.0068 0.0383 -0.9992
vn -0.0068 -0.0383 0.9992
vt 0.375000 0.000000
vt 0.625000 0.000000
vt 0.625000 0.250000
vt 0.375000 0.250000
vt 0.625000 0.500000
vt 0.375000 0.500000
vt 0.625000 0.750000
vt 0.375000 0.750000
vt 0.625000 1.000000
vt 0.375000 1.000000
vt 0.125000 0.500000
vt 0.125000 0.750000
vt 0.875000 0.500000
vt 0.875000 0.750000
s 0
usemtl Glass_Clear
f 1/1/1 2/2/1 4/3/1 3/4/1
f 3/4/2 4/3/2 8/5/2 7/6/2
f 7/6/3 8/5/3 6/7/3 5/8/3
f 5/8/4 6/7/4 2/9/4 1/10/4
f 3/11/5 7/6/5 5/8/5 1/12/5
f 8/5/6 4/13/6 2/14/6 6/7/6
o glass_partition_02
v -46.667847 -680.864380 0.085819
v -46.684853 -683.074768 40.024700
v -46.683205 -682.861267 -0.024700
v -46.700211 -685.071655 39.914181
v -96.666367 -680.479736 0.085819
v -96.683372 -682.690125 40.024700
v -96.681725 -682.476624 -0.024700
v -96.698730 -684.687012 39.914181
vn 1.0000 -0.0077 -0.0000
vn -0.0077 -0.9984 -0.0553
vn -1.0000 0.0077 -0.0000
vn 0.0077 0.9984 0.0553
vn 0.0004 0.0553 -0.9985
vn -0.0004 -0.0553 0.9985
vt 0.375000 0.000000
vt 0.625000 0.000000
vt 0.625000 0.250000
vt 0.375000 0.250000
vt 0.625000 0.500000
vt 0.375000 0.500000
vt 0.625000 0.750000
vt 0.375000 0.750000
vt 0.625000 1.000000
vt 0.375000 1.000000
vt 0.125000 0.500000
vt 0.125000 0.750000
vt 0.875000 0.500000
vt 0.875000 0.750000
s 0
usemtl Glass_Clear
f 9/15/7 10/16/7 12/17/7 11/18/7
f 11/18/8 12/17/8 16/19/8 15/20/8
f 15/20/9 16/19/9 14/21/9 13/22/9
f 13/22/10 14/21/10 10/23/10 9/24/10
f 11/25/11 15/20/11 13/22/11 9/26/11
f 16/19/12 12/27/12 10/28/12 14/21/12
o diffuse_table_01
v 17.296398 -632.415710 67.171371
v 17.691200 -631.931335 67.171371
v 17.296398 -632.415710 70.518539
v 20.325249 -634.481506 70.867592
v 17.691200 -631.931335 70.518539
v 101.235825 -623.422363 67.171371
v 101.720169 -623.817139 67.171371
v 99.169998 -626.451172 70.867599
v 101.720169 -623.817139 70.518539
v 101.235825 -623.422363 70.518539
v 23.042648 -684.473999 67.171371
v 22.558308 -684.079224 67.171371
v 25.108479 -681.445190 70.867592
v 22.558308 -684.079224 70.518539
v 23.042648 -684.473999 70.518539
v 106.982086 -675.480652 67.171371
v 106.587280 -675.965027 67.171371
v 103.953232 -673.414856 70.867599
v 106.587280 -675.965027 70.518539
v 106.982086 -675.480652 70.518539
v 101.280594 -623.861938 66.859894
v 17.735970 -632.370911 66.859879
v 106.542511 -675.525452 66.859894
v 22.997879 -684.034424 66.859879
v 99.129913 -626.511658 69.326935
v 20.376698 -634.532654 69.326920
v 103.901779 -673.363770 69.326935
v 25.148563 -681.384705 69.326920
v 20.376698 -634.532654 66.986206
v 20.201714 -634.389404 66.859879
v 99.272423 -626.336060 66.859894
v 99.129913 -626.511658 66.986221
v 25.006050 -681.560303 66.859879
v 25.148563 -681.384705 66.986206
v 104.076759 -673.506958 66.859894
v 103.901779 -673.363770 66.986221
v 17.735970 -632.370911 70.867599
v 101.280594 -623.861938 70.867599
v 106.542511 -675.525452 70.867599
v 22.997879 -684.034424 70.867599
v 98.484329 -668.909119 23.617607
v 98.153412 -668.926819 23.865791
v 98.434891 -668.581482 23.865795
v 95.025177 -665.814453 69.350403
v 94.743698 -666.159729 69.350403
v 101.886246 -668.562073 23.632402
v 101.842422 -668.234436 23.865795
v 102.187363 -668.515015 23.880463
v 99.942451 -665.630249 69.350403
v 99.597397 -665.348755 69.350403
v 98.830261 -672.311157 23.632401
v 98.844788 -672.615662 23.880463
v 98.500473 -672.334351 23.865791
v 95.209381 -670.731995 69.350403
v 95.554665 -671.013184 69.350403
v 102.233406 -671.965088 23.778730
v 102.534531 -671.924072 24.041864
v 102.253830 -672.268372 24.041864
v 100.126892 -670.547485 69.350403
v 100.408127 -670.202515 69.350403
v 94.721786 -631.966980 23.617607
v 94.394104 -632.016357 23.865791
v 94.739410 -632.297852 23.865795
v 91.957573 -635.695496 69.350403
v 91.612267 -635.414062 69.350403
v 98.123817 -631.621033 23.632402
v 98.146942 -631.950806 23.865795
v 98.428246 -631.606445 23.880463
v 96.811012 -634.884583 69.350403
v 96.529800 -635.229858 69.350403
v 94.374741 -628.565063 23.632401
v 94.327576 -628.263855 23.880463
v 94.047043 -628.608826 23.865791
v 91.146584 -630.841797 69.350403
v 91.428085 -630.496765 69.350403
v 97.777771 -628.217896 23.778730
v 98.080994 -628.197388 24.041864
v 97.736633 -627.916748 24.041864
v 96.000313 -630.031067 69.350403
v 96.345337 -630.312317 69.350403
v 29.556702 -675.929382 23.617603
v 29.884388 -675.880005 23.865786
v 29.539085 -675.598511 23.865791
v 32.320908 -672.200867 69.350395
v 32.666222 -672.482300 69.350395
v 26.154678 -676.275330 23.632397
v 26.131550 -675.945557 23.865791
v 25.850243 -676.289917 23.880457
v 27.467468 -673.011780 69.350395
v 27.748676 -672.666504 69.350395
v 29.903751 -679.331299 23.632397
v 29.950909 -679.632507 23.880457
v 30.231443 -679.287537 23.865786
v 33.131905 -677.054565 69.350395
v 32.850403 -677.399597 69.350395
v 26.500725 -679.678467 23.778727
v 26.197498 -679.698975 24.041859
v 26.541862 -679.979614 24.041859
v 28.278168 -677.865295 69.350395
v 27.933147 -677.584045 69.350395
v 25.794159 -638.987244 23.617603
v 26.125072 -638.969543 23.865786
v 25.843605 -639.314880 23.865791
v 29.253311 -642.081909 69.350395
v 29.534786 -641.736633 69.350395
v 22.392250 -639.334290 23.632397
v 22.436069 -639.661926 23.865791
v 22.091125 -639.381348 23.880457
v 24.336029 -642.266113 69.350395
v 24.681080 -642.547607 69.350395
v 25.448231 -635.585205 23.632397
v 25.433697 -635.280701 23.880457
v 25.778019 -635.562012 23.865786
v 29.069107 -637.164368 69.350395
v 28.723820 -636.883179 69.350395
v 22.045090 -635.931274 23.778727
v 21.743961 -635.972290 24.041859
v 22.024662 -635.627991 24.041859
v 24.151588 -637.348877 69.350395
v 23.870350 -637.693848 69.350395
vn -0.8116 -0.4163 -0.4098
vn -0.8201 -0.4203 0.3884
vn -0.8880 0.2463 0.3884
vn -0.8789 0.2441 -0.4098
vn 0.4163 -0.8116 -0.4098
vn 0.4203 -0.8201 0.3884
vn -0.2463 -0.8880 0.3884
vn -0.2441 -0.8789 -0.4098
vn -0.0000 -0.0000 1.0000
vn -0.4163 0.8116 -0.4098
vn -0.4203 0.8201 0.3884
vn 0.2463 0.8880 0.3884
vn 0.2441 0.8789 -0.4098
vn 0.8116 0.4163 -0.4098
vn 0.8201 0.4203 0.3884
vn 0.8880 -0.2463 0.3884
vn 0.8789 -0.2441 -0.4098
vn -0.3056 0.2491 -0.9190
vn -0.3283 0.2676 0.9059
vn 0.2491 0.3056 -0.9190
vn 0.2676 0.3283 0.9059
vn -0.2491 -0.3056 -0.9190
vn -0.2676 -0.3283 0.9059
vn 0.3056 -0.2491 -0.9190
vn 0.3283 -0.2676 0.9059
vn 0.4845 0.5933 -0.6428
vn 0.5942 -0.4834 -0.6428
vn 0.6329 -0.5159 -0.5774
vn 0.5159 0.6329 -0.5774
vn 0.0810 0.0995 -0.9917
vn -0.0995 0.0812 -0.9917
vn -0.5942 0.4834 -0.6428
vn -0.6329 0.5159 -0.5774
vn -0.0811 -0.0995 -0.9917
vn 0.0995 -0.0812 -0.9917
vn -0.5159 -0.6329 -0.5774
vn -0.4846 -0.5933 -0.6428
vn -0.7996 -0.4224 -0.4267
vn -0.8866 -0.4600 -0.0479
vn -0.9516 0.2942 -0.0892
vn -0.8638 0.2375 -0.4444
vn 0.4384 -0.8325 -0.3388
vn 0.4681 -0.8819 0.0554
vn -0.3060 -0.9520 0.0114
vn -0.2261 -0.8970 -0.3799
vn 0.8330 0.4023 -0.3797
vn 0.8707 0.4916 0.0118
vn 0.9582 -0.2808 0.0556
vn 0.9038 -0.2615 -0.3387
vn -0.4067 0.7982 -0.4443
vn -0.4801 0.8727 -0.0891
vn 0.2717 0.9612 -0.0476
vn 0.2526 0.8685 -0.4265
vn -0.3006 0.2450 -0.9217
vn 0.2889 0.2962 -0.9104
vn -0.2318 -0.3426 -0.9104
vn 0.3620 -0.2950 -0.8843
vn -0.8684 0.2525 -0.4267
vn -0.7982 -0.4067 -0.4444
vn -0.8727 -0.4800 -0.0892
vn -0.9612 0.2718 -0.0479
vn 0.2615 0.9038 -0.3388
vn -0.4023 0.8330 -0.3799
vn -0.4917 0.8707 0.0114
vn 0.2807 0.9582 0.0554
vn 0.8970 -0.2261 -0.3797
vn 0.8325 0.4384 -0.3387
vn 0.8819 0.4682 0.0556
vn 0.9520 -0.3060 0.0118
vn -0.2374 -0.8638 -0.4443
vn 0.4225 -0.7997 -0.4265
vn 0.4599 -0.8867 -0.0476
vn -0.2943 -0.9516 -0.0891
vn -0.2450 -0.3006 -0.9217
vn 0.3427 -0.2318 -0.9104
vn -0.2961 0.2889 -0.9104
vn 0.2951 0.3619 -0.8843
vn 0.8684 -0.2525 -0.4267
vn 0.7982 0.4067 -0.4444
vn 0.8727 0.4800 -0.0892
vn 0.9612 -0.2718 -0.0479
vn -0.2615 -0.9038 -0.3388
vn 0.4023 -0.8330 -0.3799
vn 0.4917 -0.8707 0.0114
vn -0.2807 -0.9582 0.0554
vn -0.8970 0.2261 -0.3797
vn -0.8325 -0.4384 -0.3387
vn -0.8819 -0.4682 0.0556
vn -0.9520 0.3060 0.0118
vn 0.2374 0.8638 -0.4443
vn -0.4225 0.7997 -0.4265
vn -0.4599 0.8867 -0.0476
vn 0.2943 0.9516 -0.0891
vn 0.2450 0.3006 -0.9217
vn -0.3427 0.2318 -0.9104
vn 0.2961 -0.2889 -0.9104
vn -0.2951 -0.3619 -0.8843
vn 0.7997 0.4224 -0.4267
vn 0.8866 0.4600 -0.0479
vn 0.9516 -0.2942 -0.0892
vn 0.8638 -0.2375 -0.4444
vn -0.4384 0.8325 -0.3388
vn -0.4681 0.8819 0.0554
vn 0.3060 0.9520 0.0114
vn 0.2261 0.8970 -0.3799
vn -0.8330 -0.4023 -0.3797
vn -0.8707 -0.4916 0.0118
vn -0.9582 0.2808 0.0556
vn -0.9038 0.2615 -0.3387
vn 0.4067 -0.7982 -0.4443
vn 0.4801 -0.8727 -0.0891
vn -0.2717 -0.9612 -0.0476
vn -0.2526 -0.8685 -0.4265
vn 0.3006 -0.2450 -0.9217
vn -0.2889 -0.2962 -0.9104
vn 0.2318 0.3426 -0.9104
vn -0.3620 0.2950 -0.8843
vt 0.012167 0.894395
vt 0.012161 0.862608
vt 0.401654 0.862517
vt 0.401672 0.894215
vt 0.770729 0.637544
vt 0.738930 0.637544
vt 0.738908 0.007387
vt 0.770625 0.007379
vt 0.011087 0.358772
vt 0.011087 0.004670
vt 0.605569 0.004670
vt 0.605569 0.358772
vt 0.665754 0.637544
vt 0.633954 0.637544
vt 0.633932 0.007387
vt 0.665648 0.007379
vt 0.012153 0.781665
vt 0.012159 0.749877
vt 0.401667 0.750059
vt 0.401653 0.781757
vt 0.402511 0.898447
vt 0.406213 0.894954
vt 0.402459 0.858019
vt 0.406193 0.861757
vt 0.669880 0.006541
vt 0.666388 0.002840
vt 0.629432 0.006581
vt 0.633174 0.002846
vt 0.774855 0.006541
vt 0.771365 0.002840
vt 0.734408 0.006581
vt 0.738150 0.002846
vt 0.402486 0.785988
vt 0.406185 0.782501
vt 0.402477 0.745559
vt 0.406213 0.749304
vt 0.670203 0.637542
vt 0.629261 0.637543
vt 0.012154 0.786116
vt 0.012153 0.745183
vt 0.775179 0.637542
vt 0.734237 0.637543
vt 0.012161 0.898847
vt 0.012163 0.857914
vt 0.030357 0.917428
vt 0.384349 0.917072
vt 0.384371 0.939343
vt 0.030379 0.939699
vt 0.791830 0.023428
vt 0.792136 0.620638
vt 0.793836 0.619438
vt 0.793540 0.024632
vt 0.815803 0.024621
vt 0.816101 0.619427
vt 0.686854 0.023428
vt 0.687161 0.620638
vt 0.012407 0.719528
vt 0.012407 0.366267
vt 0.606199 0.366267
vt 0.606199 0.719528
vt 0.385556 0.915367
vt 0.029151 0.915731
vt 0.030336 0.804709
vt 0.384312 0.804599
vt 0.384318 0.826869
vt 0.030343 0.826979
vt 0.385520 0.802895
vt 0.029131 0.803011
vt 0.688564 0.024632
vt 0.688861 0.619438
vt 0.710827 0.024621
vt 0.711126 0.619427
vt 0.611519 0.619791
vt 0.611679 0.024324
vt 0.029925 0.727445
vt 0.384741 0.727787
vt 0.716494 0.619791
vt 0.716655 0.024324
vt 0.029921 0.840165
vt 0.384711 0.840261
vt 0.413096 0.829099
vt 0.844696 0.829099
vt 0.844696 0.859196
vt 0.413096 0.859196
vt 0.413096 0.795490
vt 0.844696 0.795490
vt 0.844696 0.825587
vt 0.413096 0.825587
vt 0.413096 0.761885
vt 0.844696 0.761885
vt 0.844696 0.791983
vt 0.413096 0.791983
vt 0.413096 0.728276
vt 0.844696 0.728276
vt 0.844696 0.758374
vt 0.413096 0.758374
vt 0.107983 0.983687
vt 0.111358 0.984368
vt 0.108613 0.987108
vt 0.082406 0.983545
vt 0.081894 0.986785
vt 0.079217 0.984090
vt 0.108067 0.957990
vt 0.108635 0.954717
vt 0.111358 0.957486
vt 0.082448 0.957934
vt 0.079161 0.957325
vt 0.081842 0.954645
vt 0.413096 0.724762
vt 0.844696 0.724763
vt 0.888655 0.437483
vt 0.858557 0.437483
vt 0.858557 0.005879
vt 0.888655 0.005879
vt 0.922263 0.437483
vt 0.892166 0.437483
vt 0.892166 0.005879
vt 0.922263 0.005879
vt 0.955869 0.437483
vt 0.925771 0.437483
vt 0.925771 0.005879
vt 0.955869 0.005879
vt 0.989477 0.437483
vt 0.959380 0.437483
vt 0.959380 0.005879
vt 0.989477 0.005879
vt 0.221686 0.960258
vt 0.222316 0.956836
vt 0.225061 0.959577
vt 0.196110 0.960400
vt 0.192920 0.959855
vt 0.195597 0.957160
vt 0.221771 0.985955
vt 0.225061 0.986459
vt 0.222338 0.989228
vt 0.196151 0.986011
vt 0.195545 0.989300
vt 0.192865 0.986620
vt 0.992991 0.437483
vt 0.992991 0.005879
vt 0.961249 0.441373
vt 0.991346 0.441373
vt 0.991346 0.872978
vt 0.961249 0.872978
vt 0.927640 0.441373
vt 0.957737 0.441373
vt 0.957737 0.872978
vt 0.927640 0.872978
vt 0.894035 0.441373
vt 0.924132 0.441373
vt 0.924132 0.872978
vt 0.894035 0.872978
vt 0.860426 0.441373
vt 0.890524 0.441373
vt 0.890524 0.872978
vt 0.860426 0.872978
vt 0.054205 0.960486
vt 0.054834 0.957064
vt 0.057579 0.959805
vt 0.028628 0.960627
vt 0.025438 0.960082
vt 0.028115 0.957387
vt 0.054289 0.986182
vt 0.057579 0.986686
vt 0.054856 0.989456
vt 0.028669 0.986238
vt 0.028063 0.989527
vt 0.025383 0.986847
vt 0.856912 0.441373
vt 0.856912 0.872978
vt 0.845719 0.893331
vt 0.414117 0.893331
vt 0.414117 0.863233
vt 0.845719 0.863233
vt 0.845719 0.926939
vt 0.414117 0.926939
vt 0.414117 0.896842
vt 0.845719 0.896842
vt 0.845719 0.960544
vt 0.414117 0.960544
vt 0.414117 0.930447
vt 0.845719 0.930447
vt 0.845719 0.994153
vt 0.414117 0.994153
vt 0.414117 0.964055
vt 0.845719 0.964055
vt 0.163985 0.985789
vt 0.167323 0.986440
vt 0.164631 0.989129
vt 0.138369 0.985797
vt 0.137835 0.989092
vt 0.135147 0.986348
vt 0.164045 0.960168
vt 0.164650 0.956930
vt 0.167323 0.959689
vt 0.138385 0.960134
vt 0.135092 0.959522
vt 0.137781 0.956836
vt 0.845719 0.997667
vt 0.414117 0.997667
s 1
usemtl Diffuse_Table
f 28/29/13 30/30/14 19/31/15 17/32/16
f 33/33/17 35/34/18 31/35/19 27/36/20
f 34/37/21 24/38/21 20/39/21 29/40/21
f 18/41/22 21/42/23 26/43/24 22/44/25
f 23/45/26 25/46/27 36/47/28 32/48/29
f 38/49/30 17/32/16 18/50/22
f 19/31/15 53/51/31 21/52/23
f 37/53/32 22/44/25 23/54/26
f 54/55/33 25/56/27 26/43/24
f 40/57/34 27/36/20 28/58/13
f 56/59/35 30/60/14 31/35/19
f 39/61/36 32/48/29 33/62/17
f 55/63/37 35/64/18 36/47/28
f 37/53/32 38/65/30 18/41/22 22/44/25
f 17/32/16 19/31/15 21/52/23 18/50/22
f 53/66/31 54/55/33 26/43/24 21/42/23
f 25/56/27 23/54/26 22/44/25 26/43/24
f 39/61/36 37/67/32 23/45/26 32/48/29
f 54/68/33 55/63/37 36/47/28 25/46/27
f 35/64/18 33/62/17 32/48/29 36/47/28
f 40/57/34 39/69/36 33/33/17 27/36/20
f 55/70/37 56/59/35 31/35/19 35/34/18
f 30/60/14 28/58/13 27/36/20 31/35/19
f 38/49/30 40/71/34 28/29/13 17/32/16
f 56/72/35 53/51/31 19/31/15 30/30/14
f 50/73/38 45/74/39 42/75/40 44/76/41
f 49/77/42 51/78/43 39/69/36 40/57/34
f 52/79/44 50/80/38 44/81/41 43/82/45
f 47/83/46 46/84/47 38/65/30 37/53/32
f 41/85/48 43/86/45 44/87/41 42/88/40
f 46/89/47 49/90/42 40/71/34 38/49/30
f 48/91/49 52/92/44 43/93/45 41/94/48
f 51/95/43 47/96/46 37/67/32 39/61/36
f 48/97/49 45/98/39 46/84/47 47/83/46
f 52/92/44 48/91/49 47/96/46 51/95/43
f 50/80/38 52/79/44 51/78/43 49/77/42
f 45/74/39 50/73/38 49/90/42 46/89/47
f 45/98/39 48/97/49 41/99/48 42/100/40
f 20/101/21 24/102/21 54/55/33 53/66/31
f 24/103/21 34/104/21 55/63/37 54/68/33
f 34/105/21 29/106/21 56/59/35 55/70/37
f 29/107/21 20/108/21 53/51/31 56/72/35
f 69/109/50 70/110/51 61/111/52 58/112/53
f 74/113/54 75/114/55 71/115/56 68/116/57
f 64/117/58 65/118/59 76/119/60 73/120/61
f 59/121/62 60/122/63 66/123/64 63/124/65
f 57/125/66 58/126/53 59/127/62
f 62/128/67 63/129/65 64/130/58
f 67/131/68 68/132/57 69/133/50
f 72/134/69 73/135/61 74/136/54
f 62/128/67 57/125/66 59/127/62 63/129/65
f 58/137/53 61/138/52 60/122/63 59/121/62
f 65/118/59 64/117/58 63/124/65 66/123/64
f 72/134/69 62/128/67 64/130/58 73/135/61
f 75/114/55 74/113/54 73/120/61 76/119/60
f 67/131/68 72/134/69 74/136/54 68/132/57
f 70/110/51 69/109/50 68/116/57 71/115/56
f 57/125/66 67/131/68 69/133/50 58/126/53
f 62/128/67 72/134/69 67/131/68 57/125/66
f 89/139/70 78/140/71 81/141/72 90/142/73
f 94/143/74 88/144/75 91/145/76 95/146/77
f 84/147/78 93/148/79 96/149/80 85/150/81
f 79/151/82 83/152/83 86/153/84 80/154/85
f 77/155/86 79/156/82 78/157/71
f 82/158/87 84/159/78 83/160/83
f 87/161/88 89/162/70 88/163/75
f 92/164/89 94/165/74 93/166/79
f 82/158/87 83/160/83 79/156/82 77/155/86
f 78/167/71 79/151/82 80/154/85 81/168/72
f 85/150/81 86/153/84 83/152/83 84/147/78
f 92/164/89 93/166/79 84/159/78 82/158/87
f 95/146/77 96/149/80 93/148/79 94/143/74
f 87/161/88 88/163/75 94/165/74 92/164/89
f 90/142/73 91/145/76 88/144/75 89/139/70
f 77/155/86 78/157/71 89/162/70 87/161/88
f 82/158/87 77/155/86 87/161/88 92/164/89
f 109/169/90 98/170/91 101/171/92 110/172/93
f 114/173/94 108/174/95 111/175/96 115/176/97
f 104/177/98 113/178/99 116/179/100 105/180/101
f 99/181/102 103/182/103 106/183/104 100/184/105
f 97/185/106 99/186/102 98/187/91
f 102/188/107 104/189/98 103/190/103
f 107/191/108 109/192/90 108/193/95
f 112/194/109 114/195/94 113/196/99
f 102/188/107 103/190/103 99/186/102 97/185/106
f 98/197/91 99/181/102 100/184/105 101/198/92
f 105/180/101 106/183/104 103/182/103 104/177/98
f 112/194/109 113/196/99 104/189/98 102/188/107
f 115/176/97 116/179/100 113/178/99 114/173/94
f 107/191/108 108/193/95 114/195/94 112/194/109
f 110/172/93 111/175/96 108/174/95 109/169/90
f 97/185/106 98/187/91 109/192/90 107/191/108
f 102/188/107 97/185/106 107/191/108 112/194/109
f 129/199/110 130/200/111 121/201/112 118/202/113
f 134/203/114 135/204/115 131/205/116 128/206/117
f 124/207/118 125/208/119 136/209/120 133/210/121
f 119/211/122 120/212/123 126/213/124 123/214/125
f 117/215/126 118/216/113 119/217/122
f 122/218/127 123/219/125 124/220/118
f 127/221/128 128/222/117 129/223/110
f 132/224/129 133/225/121 134/226/114
f 122/218/127 117/215/126 119/217/122 123/219/125
f 118/227/113 121/228/112 120/212/123 119/211/122
f 125/208/119 124/207/118 123/214/125 126/213/124
f 132/224/129 122/218/127 124/220/118 133/225/121
f 135/204/115 134/203/114 133/210/121 136/209/120
f 127/221/128 132/224/129 134/226/114 128/222/117
f 130/200/111 129/199/110 128/206/117 131/205/116
f 117/215/126 127/221/128 129/223/110 118/216/113
f 122/218/127 132/224/129 127/221/128 117/215/126
o diffuse_shelf_02
v 116.067078 -759.724121 94.500000
v 29.105381 -730.696533 94.500000
v 27.390743 -752.865601 94.500000
v 117.781723 -737.555054 94.500000
v 112.239449 -737.126404 277.941162
v 112.239456 -737.126404 107.192184
v 34.647644 -731.125183 277.941162
v 34.647648 -731.125183 107.192184
v 33.190205 -749.968933 277.941162
v 110.782013 -755.970154 277.941162
v 33.190205 -749.968872 107.192169
v 110.782013 -755.970093 107.192169
v 117.781715 -737.555054 280.720581
v 116.067078 -759.724182 280.720581
v 27.390739 -752.865601 280.720581
v 29.105377 -730.696533 280.720581
v 117.175529 -759.809875 283.500000
v 117.175529 -759.809875 281.502014
v 118.975899 -736.532349 281.502014
v 118.975899 -736.532349 283.500000
v 26.282288 -752.779907 283.500000
v 26.282288 -752.779907 281.502014
v 28.082657 -729.502319 283.500000
v 28.082657 -729.502319 281.502014
v 112.153717 -738.234863 154.535309
v 34.561913 -732.233643 154.535309
v 33.190205 -749.968872 154.535294
v 110.782013 -755.970093 154.535294
v 34.561913 -732.233643 152.311768
v 112.153717 -738.234863 152.311768
v 33.190205 -749.968872 152.311768
v 110.782013 -755.970093 152.311768
v 112.067986 -739.343323 152.311768
v 111.181572 -739.274719 152.311768
v 109.895599 -755.901550 152.311768
v 111.181572 -739.274719 151.644699
v 112.067986 -739.343323 151.644699
v 109.895599 -755.901550 151.644699
v 110.782013 -755.970093 151.644699
v 110.782013 -755.970093 152.311768
v 34.476181 -733.342102 152.311768
v 35.362595 -733.410645 152.311768
v 34.076618 -750.037476 152.311768
v 35.362595 -733.410645 151.644699
v 34.476181 -733.342102 151.644699
v 34.076618 -750.037476 151.644699
v 33.190205 -749.968872 151.644699
v 33.190205 -749.968872 152.311768
v 112.153717 -738.234863 180.105881
v 34.561913 -732.233643 180.105881
v 33.190205 -749.968872 180.105881
v 110.782013 -755.970093 180.105881
v 34.561913 -732.233643 177.882355
v 112.153717 -738.234863 177.882355
v 33.190205 -749.968872 177.882355
v 110.782013 -755.970093 177.882355
v 112.067986 -739.343323 177.882355
v 111.181572 -739.274719 177.882355
v 109.895599 -755.901550 177.882355
v 111.181572 -739.274719 177.215302
v 112.067986 -739.343323 177.215302
v 109.895599 -755.901550 177.215302
v 110.782013 -755.970093 177.215302
v 110.782013 -755.970093 177.882355
v 34.476181 -733.342102 177.882355
v 35.362595 -733.410645 177.882355
v 34.076618 -750.037476 177.882355
v 35.362595 -733.410645 177.215302
v 34.476181 -733.342102 177.215302
v 34.076618 -750.037476 177.215302
v 33.190205 -749.968872 177.215302
v 33.190205 -749.968872 177.882355
v 112.153717 -738.234863 205.676468
v 34.561913 -732.233643 205.676468
v 33.190205 -749.968872 205.676468
v 110.782013 -755.970154 205.676468
v 34.561913 -732.233643 203.452927
v 112.153717 -738.234863 203.452927
v 33.190205 -749.968872 203.452927
v 110.782013 -755.970154 203.452927
v 112.067986 -739.343323 203.452927
v 111.181572 -739.274780 203.452927
v 109.895599 -755.901550 203.452927
v 111.181572 -739.274780 202.785873
v 112.067986 -739.343323 202.785873
v 109.895599 -755.901550 202.785873
v 110.782013 -755.970154 202.785873
v 110.782013 -755.970154 203.452927
v 34.476181 -733.342102 203.452927
v 35.362595 -733.410645 203.452927
v 34.076618 -750.037476 203.452927
v 35.362595 -733.410645 202.785873
v 34.476181 -733.342102 202.785873
v 34.076618 -750.037476 202.785873
v 33.190205 -749.968872 202.785873
v 33.190205 -749.968872 203.452927
v 112.153717 -738.234863 231.247055
v 34.561913 -732.233643 231.247055
v 33.190205 -749.968872 231.247055
v 110.782013 -755.970154 231.247055
v 34.561913 -732.233643 229.023514
v 112.153717 -738.234863 229.023514
v 33.190205 -749.968872 229.023514
v 110.782013 -755.970154 229.023514
v 112.067986 -739.343323 229.023514
v 111.181572 -739.274780 229.023514
v 109.895599 -755.901550 229.023514
v 111.181572 -739.274780 228.356461
v 112.067986 -739.343323 228.356461
v 109.895599 -755.901550 228.356461
v 110.782013 -755.970154 228.356461
v 110.782013 -755.970154 229.023514
v 34.476181 -733.342102 229.023514
v 35.362595 -733.410645 229.023514
v 34.076618 -750.037476 229.023514
v 35.362595 -733.410645 228.356461
v 34.476181 -733.342102 228.356461
v 34.076618 -750.037476 228.356461
v 33.190205 -749.968872 228.356461
v 33.190205 -749.968872 229.023514
v 112.153717 -738.234863 256.817627
v 34.561913 -732.233643 256.817627
v 33.190205 -749.968933 256.817627
v 110.782013 -755.970154 256.817627
v 34.561913 -732.233643 254.594116
v 112.153717 -738.234863 254.594116
v 33.190205 -749.968933 254.594116
v 110.782013 -755.970154 254.594116
v 112.067986 -739.343323 254.594116
v 111.181572 -739.274780 254.594116
v 109.895599 -755.901550 254.594116
v 111.181572 -739.274780 253.927063
v 112.067986 -739.343323 253.927063
v 109.895599 -755.901550 253.927063
v 110.782013 -755.970154 253.927063
v 110.782013 -755.970154 254.594116
v 34.476181 -733.342102 254.594116
v 35.362595 -733.410645 254.594116
v 34.076618 -750.037476 254.594116
v 35.362595 -733.410645 253.927063
v 34.476181 -733.342102 253.927063
v 34.076618 -750.037476 253.927063
v 33.190205 -749.968933 253.927063
v 33.190205 -749.968933 254.594116
v 112.153717 -738.234863 128.964706
v 34.561913 -732.233643 128.964706
v 33.190205 -749.968872 128.964706
v 110.782013 -755.970093 128.964706
v 34.561913 -732.233643 126.741180
v 112.153717 -738.234863 126.741180
v 33.190205 -749.968872 126.741180
v 110.782013 -755.970093 126.741180
v 112.067986 -739.343323 126.741180
v 111.181572 -739.274719 126.741180
v 109.895599 -755.901550 126.741180
v 111.181572 -739.274719 126.074120
v 112.067986 -739.343323 126.074120
v 109.895599 -755.901550 126.074112
v 110.782013 -755.970093 126.074112
v 110.782013 -755.970093 126.741180
v 34.476181 -733.342041 126.741180
v 35.362595 -733.410645 126.741180
v 34.076618 -750.037415 126.741180
v 35.362595 -733.410645 126.074120
v 34.476181 -733.342041 126.074120
v 34.076618 -750.037415 126.074112
v 33.190205 -749.968872 126.074112
v 33.190205 -749.968872 126.741180
vn -0.4811 0.5617 -0.6731
vn -0.5613 -0.7860 -0.2592
vn -0.7441 -0.5609 -0.3629
vn -0.5836 0.6814 -0.4417
vn -0.2309 0.9251 0.3015
vn -0.2309 0.9251 -0.3015
vn 0.5617 0.4811 -0.6731
vn 0.6202 0.5311 -0.5774
vn -0.6202 -0.5311 -0.5774
vn -0.5311 0.6202 -0.5774
vn 0.4338 -0.8629 -0.2592
vn 0.5311 -0.6202 -0.5774
vn 0.3704 0.8786 0.3015
vn 0.3704 0.8786 -0.3015
vn -0.6202 -0.5311 0.5774
vn 0.5311 -0.6202 0.5774
vn 0.6202 0.5311 0.5774
vn -0.5311 0.6202 0.5774
vn 0.6814 0.5836 -0.4417
vn 0.6490 -0.6686 -0.3629
vn 0.0545 0.7050 0.7071
vn -0.0000 -0.0000 1.0000
vn 0.0545 0.7050 -0.7071
vn -0.0000 -0.0000 -1.0000
vn -0.0545 -0.7050 -0.7071
vn -0.7595 -0.6505 -0.0000
vn -0.6505 0.7595 -0.0000
vn 0.0771 0.9970 -0.0000
vn -0.0771 -0.9970 -0.0000
vn 0.6505 -0.7595 -0.0000
vn 0.7595 0.6505 -0.0000
vn 0.6202 0.5311 -0.5773
vn 0.5311 -0.6202 -0.5773
vt 0.910724 0.606259
vt 0.989116 0.606259
vt 0.989116 0.611050
vt 0.906804 0.611050
vt 0.613938 0.966226
vt 0.011952 0.966226
vt 0.002153 0.946628
vt 0.658686 0.946628
vt 0.780069 0.657875
vt 0.780069 0.001334
vt 0.858462 0.001334
vt 0.858462 0.657875
vt 0.629727 0.657876
vt 0.629727 0.001334
vt 0.708120 0.001334
vt 0.708120 0.657876
vt 0.963978 0.953926
vt 0.944379 0.998674
vt 0.670004 0.998674
vt 0.650405 0.953926
vt 0.996659 0.003858
vt 0.996659 0.273693
vt 0.931128 0.273693
vt 0.931128 0.003858
vt 0.989116 0.618094
vt 0.989116 0.939504
vt 0.906804 0.939503
vt 0.906804 0.618094
vt 0.894966 0.935583
vt 0.894969 0.622013
vt 0.899760 0.618094
vt 0.899759 0.939503
vt 0.659539 0.991588
vt 0.003002 0.991588
vt 0.012801 0.971990
vt 0.614791 0.971990
vt 0.624644 0.577883
vt 0.003749 0.577882
vt 0.003750 0.281335
vt 0.624645 0.281336
vt 0.317517 0.663987
vt 0.003945 0.663987
vt 0.003945 0.585594
vt 0.317517 0.585594
vt 0.978444 0.278821
vt 0.985488 0.278821
vt 0.985489 0.600233
vt 0.978444 0.600233
vt 0.001331 0.001326
vt 0.603325 0.001326
vt 0.603325 0.275702
vt 0.001331 0.275702
vt 0.927665 0.002061
vt 0.927666 0.604056
vt 0.861032 0.604056
vt 0.861031 0.002061
vt 0.710782 0.603328
vt 0.710781 0.001333
vt 0.777415 0.001333
vt 0.777415 0.603328
vt 0.326807 0.589611
vt 0.601183 0.589611
vt 0.601183 0.656245
vt 0.326807 0.656245
vt 0.885170 0.641612
vt 0.885168 0.915984
vt 0.906804 0.946547
vt 0.989116 0.946548
vt 0.989116 0.951339
vt 0.910723 0.951339
vt 0.975689 0.282741
vt 0.975688 0.596312
vt 0.558477 0.878351
vt 0.832841 0.878351
vt 0.832841 0.941063
vt 0.558477 0.941063
vt 0.558477 0.870512
vt 0.558477 0.807800
vt 0.832841 0.807800
vt 0.832841 0.870512
vt 0.605985 0.062479
vt 0.605985 0.003686
vt 0.609120 0.003686
vt 0.609119 0.062479
vt 0.611471 0.003686
vt 0.611471 0.062479
vt 0.609119 0.064831
vt 0.605985 0.064831
vt 0.609120 0.001335
vt 0.605985 0.001335
vt 0.613685 0.138933
vt 0.616819 0.138933
vt 0.616819 0.197726
vt 0.613685 0.197726
vt 0.619171 0.197726
vt 0.619171 0.138933
vt 0.616819 0.136581
vt 0.613685 0.136581
vt 0.616819 0.200077
vt 0.613685 0.200077
vt 0.554922 0.731143
vt 0.280558 0.731143
vt 0.280558 0.668431
vt 0.554922 0.668431
vt 0.554922 0.738982
vt 0.554922 0.801694
vt 0.280558 0.801694
vt 0.280558 0.738982
vt 0.622273 0.062477
vt 0.622275 0.003684
vt 0.625409 0.003684
vt 0.625407 0.062477
vt 0.627761 0.003684
vt 0.627759 0.062477
vt 0.625408 0.064829
vt 0.622273 0.064829
vt 0.625409 0.001333
vt 0.622275 0.001332
vt 0.605571 0.207142
vt 0.608705 0.207142
vt 0.608705 0.265935
vt 0.605571 0.265935
vt 0.611057 0.265935
vt 0.611057 0.207142
vt 0.608705 0.204791
vt 0.605571 0.204791
vt 0.608705 0.268287
vt 0.605571 0.268287
vt 0.003015 0.875554
vt 0.277378 0.875554
vt 0.277378 0.938266
vt 0.003015 0.938266
vt 0.003015 0.867715
vt 0.003015 0.805003
vt 0.277378 0.805003
vt 0.277378 0.867715
vt 0.621345 0.591306
vt 0.621344 0.650098
vt 0.618210 0.650098
vt 0.618211 0.591306
vt 0.615858 0.650098
vt 0.615859 0.591306
vt 0.618211 0.588954
vt 0.621345 0.588954
vt 0.618210 0.652450
vt 0.621344 0.652450
vt 0.605988 0.071199
vt 0.609122 0.071199
vt 0.609122 0.129992
vt 0.605988 0.129992
vt 0.611474 0.129992
vt 0.611474 0.071199
vt 0.609122 0.068848
vt 0.605988 0.068848
vt 0.609122 0.132343
vt 0.605988 0.132343
vt 0.277373 0.731785
vt 0.003009 0.731785
vt 0.003009 0.669074
vt 0.277373 0.669074
vt 0.277373 0.739624
vt 0.277373 0.802336
vt 0.003009 0.802336
vt 0.003009 0.739625
vt 0.622271 0.129998
vt 0.622272 0.071206
vt 0.625406 0.071206
vt 0.625405 0.129999
vt 0.627758 0.071206
vt 0.627757 0.129998
vt 0.625406 0.132350
vt 0.622271 0.132350
vt 0.625406 0.068855
vt 0.622272 0.068855
vt 0.614131 0.003686
vt 0.617265 0.003686
vt 0.617265 0.062478
vt 0.614131 0.062478
vt 0.619617 0.062478
vt 0.619617 0.003686
vt 0.617265 0.001335
vt 0.614131 0.001335
vt 0.617265 0.064830
vt 0.614131 0.064830
vt 0.554918 0.868004
vt 0.280554 0.868004
vt 0.280554 0.805293
vt 0.554918 0.805293
vt 0.554918 0.875843
vt 0.554918 0.938555
vt 0.280554 0.938555
vt 0.280554 0.875843
vt 0.614132 0.129990
vt 0.614132 0.071198
vt 0.617267 0.071198
vt 0.617267 0.129990
vt 0.619618 0.071198
vt 0.619618 0.129990
vt 0.617267 0.132342
vt 0.614132 0.132342
vt 0.617267 0.068846
vt 0.614132 0.068846
vt 0.621835 0.138936
vt 0.624969 0.138936
vt 0.624969 0.197728
vt 0.621835 0.197728
vt 0.627321 0.197728
vt 0.627321 0.138936
vt 0.624969 0.136584
vt 0.621835 0.136584
vt 0.624969 0.200080
vt 0.621835 0.200080
vt 0.565751 0.740565
vt 0.840114 0.740565
vt 0.840114 0.803276
vt 0.565751 0.803276
vt 0.565751 0.732726
vt 0.565751 0.670014
vt 0.840114 0.670014
vt 0.840114 0.732725
vt 0.557912 0.670014
vt 0.557912 0.732726
vt 0.847953 0.732725
vt 0.847953 0.670014
vt 0.565751 0.662175
vt 0.840114 0.662175
vt 0.605446 0.198158
vt 0.605452 0.139365
vt 0.608586 0.139365
vt 0.608580 0.198158
vt 0.610938 0.139366
vt 0.610932 0.198158
vt 0.608580 0.200510
vt 0.605446 0.200509
vt 0.608587 0.137014
vt 0.605452 0.137013
vt 0.606732 0.591302
vt 0.609866 0.591302
vt 0.609866 0.650095
vt 0.606732 0.650095
vt 0.612218 0.650095
vt 0.612218 0.591302
vt 0.609866 0.588950
vt 0.606732 0.588950
vt 0.609866 0.652446
vt 0.606732 0.652446
s 1
usemtl Diffuse_shelf
f 152/229/130 151/230/131 158/231/132 160/232/133
f 142/233/134 141/234/135 149/235/136 140/236/137
f 139/237/138 151/238/131 152/239/130 138/240/139
f 140/241/137 149/242/136 150/243/140 137/244/141
f 138/245/139 144/246/142 142/247/134 140/248/137
f 143/249/143 141/250/135 146/251/139 145/252/137
f 157/253/144 153/254/145 156/255/146 159/256/147
f 149/257/136 152/258/130 160/259/133 155/260/148
f 138/261/139 152/262/130 143/263/143 144/264/142
f 137/265/141 150/266/140 151/267/131 139/268/138
f 137/269/141 139/270/138 138/271/139 140/272/137
f 154/273/149 153/274/145 157/275/144 158/276/132
f 147/277/146 145/278/137 146/279/139 148/280/147
f 144/281/142 143/282/143 145/283/137 147/284/146
f 141/285/135 142/286/134 148/287/147 146/288/139
f 142/289/134 144/290/142 147/291/146 148/292/147
f 143/293/143 152/258/130 149/257/136 141/294/135
f 160/259/133 159/256/147 156/255/146 155/260/148
f 155/295/148 156/255/146 153/254/145 154/296/149
f 150/297/140 149/298/136 155/295/148 154/296/149
f 158/231/132 157/253/144 159/256/147 160/232/133
f 150/299/140 154/273/149 158/276/132 151/300/131
f 161/301/150 162/302/150 163/303/151 164/304/151
f 166/305/152 168/306/153 167/307/153 165/308/152
f 161/301/150 166/305/152 165/308/152 162/302/150
f 173/309/152 175/310/154 174/311/138 172/312/139
f 171/313/155 170/314/156 172/312/139 174/311/138
f 170/315/156 169/316/157 173/309/152 172/312/139
f 171/317/155 174/311/138 175/310/154 176/318/158
f 181/319/152 180/320/137 182/321/141 183/322/154
f 179/323/159 182/321/141 180/320/137 178/324/160
f 178/325/160 180/320/137 181/319/152 177/326/157
f 179/327/159 184/328/158 183/322/154 182/321/141
f 185/329/150 186/330/150 187/331/151 188/332/151
f 190/333/152 192/334/153 191/335/153 189/336/152
f 185/329/150 190/333/152 189/336/152 186/330/150
f 197/337/152 199/338/154 198/339/138 196/340/139
f 195/341/155 194/342/156 196/340/139 198/339/138
f 194/343/156 193/344/157 197/337/152 196/340/139
f 195/345/155 198/339/138 199/338/154 200/346/158
f 205/347/152 204/348/161 206/349/162 207/350/154
f 203/351/159 206/349/162 204/348/161 202/352/160
f 202/353/160 204/348/161 205/347/152 201/354/157
f 203/355/159 208/356/158 207/350/154 206/349/162
f 209/357/150 210/358/150 211/359/151 212/360/151
f 214/361/152 216/362/153 215/363/153 213/364/152
f 209/357/150 214/361/152 213/364/152 210/358/150
f 221/365/152 223/366/154 222/367/138 220/368/139
f 219/369/155 218/370/156 220/368/139 222/367/138
f 218/371/156 217/372/157 221/365/152 220/368/139
f 219/373/155 222/367/138 223/366/154 224/374/158
f 229/375/152 228/376/161 230/377/141 231/378/154
f 227/379/159 230/377/141 228/376/161 226/380/160
f 226/381/160 228/376/161 229/375/152 225/382/157
f 227/383/159 232/384/158 231/378/154 230/377/141
f 233/385/150 234/386/150 235/387/151 236/388/151
f 238/389/152 240/390/153 239/391/153 237/392/152
f 233/385/150 238/389/152 237/392/152 234/386/150
f 245/393/152 247/394/154 246/395/138 244/396/139
f 243/397/155 242/398/156 244/396/139 246/395/138
f 242/399/156 241/400/157 245/393/152 244/396/139
f 243/401/155 246/395/138 247/394/154 248/402/158
f 253/403/152 252/404/137 254/405/141 255/406/154
f 251/407/159 254/405/141 252/404/137 250/408/160
f 250/409/160 252/404/137 253/403/152 249/410/157
f 251/411/159 256/412/158 255/406/154 254/405/141
f 257/413/150 258/414/150 259/415/151 260/416/151
f 262/417/152 264/418/153 263/419/153 261/420/152
f 257/413/150 262/417/152 261/420/152 258/414/150
f 269/421/152 271/422/154 270/423/138 268/424/139
f 267/425/155 266/426/156 268/424/139 270/423/138
f 266/427/156 265/428/157 269/421/152 268/424/139
f 267/429/155 270/423/138 271/422/154 272/430/158
f 277/431/152 276/432/137 278/433/141 279/434/154
f 275/435/159 278/433/141 276/432/137 274/436/160
f 274/437/160 276/432/137 277/431/152 273/438/157
f 275/439/159 280/440/158 279/434/154 278/433/141
f 281/441/146 282/442/147 283/443/144 284/444/145
f 286/445/137 288/446/141 287/447/138 285/448/139
f 281/441/146 286/445/137 285/448/139 282/442/147
f 284/449/145 288/446/141 286/445/137 281/450/146
f 282/451/147 285/448/139 287/447/138 283/452/144
f 284/453/145 283/454/144 287/447/138 288/446/141
f 293/455/152 295/456/154 294/457/138 292/458/139
f 291/459/155 290/460/156 292/458/139 294/457/138
f 290/461/156 289/462/157 293/455/152 292/458/139
f 291/463/155 294/457/138 295/456/154 296/464/158
f 301/465/152 300/466/137 302/467/141 303/468/154
f 299/469/159 302/467/141 300/466/137 298/470/160
f 298/471/160 300/466/137 301/465/152 297/472/157
f 299/473/159 304/474/158 303/468/154 302/467/141
o diffuse_chair_03
v -28.509161 -656.313110 85.368103
v -28.844437 -657.605408 85.308769
v -28.425278 -655.989807 78.848801
v -52.121464 -650.187012 85.368103
v -52.456741 -651.479309 85.308769
v -52.037582 -649.863708 78.848801
v -52.372856 -651.156006 78.789474
v -28.760555 -657.282104 78.789474
v -12.465315 -624.583679 86.416458
v -12.349953 -624.241882 85.378906
v -50.417713 -613.571838 86.388763
v -50.353664 -613.237305 85.369675
v -10.658253 -619.330383 86.136215
v -11.259811 -618.181641 86.088409
v -10.626015 -618.848511 86.112320
v -10.846205 -618.427979 86.094818
v -11.249752 -618.142639 85.269547
v -10.647659 -619.290466 85.286285
v -10.836109 -618.389038 85.271790
v -10.615728 -618.809143 85.277916
v -48.391712 -607.871033 86.088409
v -49.476616 -608.552124 86.135513
v -48.870090 -607.869812 86.094719
v -49.267193 -608.119080 86.111961
v -49.467033 -608.492554 85.285980
v -48.383190 -607.813965 85.269547
v -49.258095 -608.060608 85.277771
v -48.861389 -607.812256 85.271751
v -25.462381 -663.576782 133.083923
v -25.255680 -661.781189 123.582962
v -25.939823 -665.401489 132.702194
v -25.981342 -663.514954 133.460495
v -26.966167 -663.186646 133.083923
v -28.469950 -662.796509 133.083923
v -26.995779 -663.300781 133.714020
v -26.492033 -663.421265 133.661194
v -27.494556 -663.161194 133.661194
v -27.986389 -662.994751 133.460495
v -28.516346 -660.935242 123.582962
v -28.453711 -659.102234 114.082001
v -29.071255 -663.054321 123.157074
v -28.947393 -664.621216 132.702194
v -29.085451 -661.515869 113.611954
v -25.810585 -663.900269 123.157074
v -27.443609 -665.011353 132.702194
v -28.463831 -664.819458 133.078781
v -27.972000 -664.985840 133.279465
v -27.473221 -665.125488 133.332306
v -26.969475 -665.245972 133.279465
v -26.458784 -665.339661 133.078781
v -25.753391 -662.380310 113.611954
v -25.673920 -660.253723 99.532150
v -25.121651 -659.966675 114.082001
v -24.901520 -657.303650 100.106682
v -24.473091 -654.667969 85.994339
v -28.298477 -656.422302 100.106682
v -27.999844 -653.752991 85.994339
v -29.070881 -659.372375 99.532150
v -29.118811 -658.055603 85.591705
v -29.064686 -657.395935 71.035049
v -25.592058 -658.970581 85.591705
v -25.537931 -658.310913 71.035049
v -25.416580 -657.691345 56.967949
v -24.534822 -654.447205 71.294861
v -28.061577 -653.532227 71.294861
v -24.524275 -654.252075 57.089737
v -27.734652 -653.419128 57.089737
v -24.482761 -654.092041 44.829769
v -24.815918 -654.284912 44.555805
v -25.280018 -657.164978 44.829762
v -27.494762 -653.310608 44.829769
v -27.292961 -653.642273 44.555805
v -28.292065 -656.383545 44.829762
v -27.950420 -656.176392 44.555801
v -28.626955 -656.858459 56.967949
v -25.473379 -656.819031 44.555801
v -58.973282 -656.831116 132.702194
v -58.356369 -655.456421 123.157074
v -58.489716 -657.029419 133.078781
v -58.503403 -655.004456 133.083923
v -57.469498 -657.221313 132.702194
v -55.965714 -657.611450 132.702194
v -57.997887 -657.195801 133.279465
v -57.499107 -657.335449 133.332306
v -56.995361 -657.455872 133.279465
v -56.484673 -657.549622 133.078781
v -55.095699 -656.302368 123.157074
v -54.335350 -654.964905 113.611954
v -54.550388 -654.180786 123.582962
v -53.713974 -652.548523 114.082001
v -55.495831 -655.784790 133.083923
v -57.811054 -653.334839 123.582962
v -56.999615 -655.394653 133.083923
v -56.014790 -655.722961 133.460495
v -56.525482 -655.629272 133.661194
v -57.029228 -655.508789 133.714020
v -57.528008 -655.369141 133.661194
v -58.019836 -655.202759 133.460495
v -57.046036 -651.684082 114.082001
v -55.943722 -649.249878 100.106682
v -57.667412 -654.100403 113.611954
v -56.702957 -652.203369 99.532150
v -56.150696 -651.042297 85.591705
v -53.306000 -653.084717 99.532150
v -52.623943 -651.957275 85.591705
v -52.546764 -650.131226 100.106682
v -51.509987 -647.653381 85.994339
v -55.036743 -646.738403 85.994339
v -51.348709 -647.490479 71.294861
v -54.875465 -646.575500 71.294861
v -52.350533 -651.354492 71.035049
v -51.579437 -647.232727 57.089737
v -54.789810 -646.399841 57.089737
v -52.471741 -650.671997 56.967949
v -51.736298 -647.021240 44.829769
v -52.073887 -647.213013 44.555805
v -52.533508 -650.094177 44.829762
v -54.748299 -646.239807 44.829769
v -54.550926 -646.570312 44.555805
v -55.545555 -649.312744 44.829762
v -55.208389 -649.104431 44.555801
v -55.682114 -649.839111 56.967949
v -55.877285 -650.439514 71.035049
v -52.731346 -649.747070 44.555801
v -16.081062 -621.624268 85.421356
v -14.919283 -617.146301 85.153168
v -12.495689 -622.554443 85.421356
v -16.343559 -621.850525 75.230270
v -16.606060 -622.076782 65.039177
v -12.982555 -622.722534 75.230270
v -15.264992 -617.697327 75.029129
v -15.610703 -618.248291 64.905083
v -11.903984 -618.569275 75.029129
v -11.333902 -618.076477 85.153168
v -12.481544 -619.060181 64.905083
v -13.029186 -619.558777 54.781044
v -13.476902 -622.888672 65.039177
v -13.941332 -623.062561 54.848091
v -16.868559 -622.303101 54.848091
v -14.268671 -623.264099 44.930862
v -14.474152 -622.935547 44.657005
v -13.441223 -620.075256 44.930855
v -17.108561 -622.527283 44.930862
v -16.781105 -622.337036 44.657005
v -16.281128 -619.338501 44.930855
v -16.093712 -619.687561 44.657005
v -15.956413 -618.799316 54.781044
v -13.786762 -620.286072 44.657005
v -46.305523 -613.782654 85.421356
v -45.143734 -609.304688 85.153168
v -49.890900 -612.852417 85.421356
v -46.186142 -614.108032 75.230270
v -46.066765 -614.433350 65.039177
v -49.547150 -613.236023 75.230270
v -45.109516 -609.954285 75.029129
v -45.075298 -610.603882 64.905083
v -48.470524 -609.082275 75.029129
v -48.729111 -608.374451 85.153168
v -48.204456 -609.792053 64.905083
v -47.968307 -610.494019 54.781044
v -49.195923 -613.621521 65.039177
v -48.874611 -613.999268 54.848091
v -45.947380 -614.758728 54.848091
v -48.686539 -614.334534 44.930862
v -48.347263 -614.147339 44.657005
v -47.859341 -611.145691 44.930855
v -45.846649 -615.071289 44.930862
v -46.040314 -614.745850 44.657005
v -45.019436 -611.882446 44.930855
v -45.352921 -612.096375 44.657005
v -45.041080 -611.253479 54.781044
v -47.659870 -611.497864 44.657005
v -14.476524 -622.098328 78.792244
v -13.247509 -622.547852 78.769943
v -26.178543 -654.042786 78.848801
v -14.315895 -621.950745 85.221161
v -13.086882 -622.400269 85.198860
v -26.063931 -654.072510 85.277725
v -24.834919 -654.522095 85.255424
v -24.949532 -654.492310 78.826508
v -47.938107 -613.373657 78.792076
v -49.230644 -613.169006 78.769775
v -53.244110 -647.020752 78.848801
v -47.985638 -613.118591 85.220993
v -49.278172 -612.913940 85.198700
v -53.350647 -646.993103 85.277725
v -54.643181 -646.788452 85.255424
v -54.536644 -646.816101 78.826508
v -28.426252 -657.074158 101.296921
v -28.809837 -658.552673 101.006836
v -28.304077 -656.603271 98.735336
v -52.763062 -650.760071 101.296921
v -53.146645 -652.238586 101.006836
v -52.640884 -650.289185 98.735336
v -53.024471 -651.767700 98.445251
v -28.687664 -658.081726 98.445251
v -28.555101 -662.979858 131.566376
v -28.938686 -664.458374 131.276276
v -28.656395 -662.058167 127.002686
v -35.171959 -661.263184 131.566376
v -35.116730 -660.382080 127.002686
v -35.555546 -662.741638 131.276276
v -35.213600 -661.423645 132.439377
v -41.324211 -659.666992 131.566376
v -42.038361 -659.481689 131.566376
v -41.428490 -660.067017 133.743164
v -41.106331 -658.828064 127.002686
v -41.820698 -658.642761 127.002686
v -41.489914 -660.306580 126.712601
v -42.204281 -660.121216 126.712601
v -41.707798 -661.145508 131.276276
v -35.500313 -661.860535 126.712601
v -29.039980 -663.536621 126.712601
v -42.421947 -660.960205 131.276276
v -41.812073 -661.545532 133.453064
v -42.528755 -661.371887 133.515717
v -35.597183 -662.902161 132.149292
v -43.239460 -661.175232 133.453064
v -42.145172 -659.893372 133.805801
v -42.855873 -659.696716 133.743164
v -42.752506 -659.296448 131.566376
v -48.946396 -657.860718 132.439377
v -49.329983 -659.339233 132.149292
v -48.904758 -657.700256 131.566376
v -55.521622 -655.983521 131.566376
v -48.524666 -656.903442 127.002686
v -49.288345 -659.178772 131.276276
v -55.905205 -657.462036 131.276276
v -48.908249 -658.381897 126.712601
v -43.136093 -660.774902 131.276276
v -42.918648 -659.935913 126.712601
v -42.535061 -658.457397 127.002686
v -55.368584 -656.705811 126.712601
v -54.984997 -655.227356 127.002686
v -35.068890 -661.258057 126.911545
v -34.888512 -660.562805 127.046310
v -33.854794 -656.578491 101.143730
v -36.691723 -660.837036 126.911545
v -36.511345 -660.141785 127.046310
v -35.477627 -656.157471 101.143730
v -35.297249 -655.462219 101.278511
v -33.674416 -655.883240 101.278511
v -48.992355 -657.645691 126.911545
v -48.811974 -656.950439 127.046310
v -47.778259 -652.966125 101.143730
v -47.369522 -658.066711 126.911545
v -47.189144 -657.371521 127.046310
v -46.155426 -653.387146 101.143730
v -45.975044 -652.691895 101.278511
v -47.597878 -652.270874 101.278511
v -44.830872 -658.024048 127.034172
v -38.881874 -659.567505 127.034172
v -45.075279 -658.966125 126.860054
v -44.684113 -657.458374 123.767715
v -44.811798 -657.364136 123.437050
v -38.735115 -659.001831 123.767715
v -44.928520 -658.400452 123.593590
v -45.056213 -658.306213 123.262924
v -38.979527 -659.943848 123.593590
v -38.822124 -659.923584 123.262924
v -39.126282 -660.509521 126.860054
v -38.577713 -658.981567 123.437050
v -38.311016 -659.962830 122.757729
v -45.521923 -658.091980 122.757729
v -38.066605 -659.020752 122.931847
v -37.943787 -659.932922 122.080482
v -37.631954 -659.838623 121.132637
v -45.828293 -657.887329 122.080482
v -37.699379 -658.990845 122.254585
v -37.387547 -658.896606 121.306763
v -45.583885 -656.945251 122.254585
v -45.810543 -656.711304 121.306763
v -45.277512 -657.149963 122.931847
v -46.054955 -657.653320 121.132637
v -45.846977 -656.527832 120.365532
v -45.730789 -656.335693 119.162743
v -37.266537 -658.754028 120.365532
v -46.091385 -657.469910 120.191414
v -37.510944 -659.696045 120.191414
v -45.975201 -657.277771 118.988625
v -37.519054 -659.471619 118.988625
v -45.694641 -657.127930 117.784142
v -45.389435 -656.984680 116.580856
v -45.450230 -656.185852 117.958275
v -37.691383 -659.204346 117.784142
v -37.888462 -658.930786 116.580856
v -37.446968 -658.262268 117.958275
v -37.644051 -657.988708 116.754974
v -37.274643 -658.529602 119.162743
v -45.145023 -656.042664 116.754974
v -37.937813 -657.626099 115.205208
v -38.144375 -657.310730 113.789017
v -44.712006 -655.868530 115.205208
v -38.182224 -658.568115 115.031097
v -38.388786 -658.252747 113.614899
v -44.956413 -656.810608 115.031097
v -44.622593 -656.635437 113.614899
v -44.378185 -655.693420 113.789017
v -44.274155 -656.414978 111.933151
v -44.112751 -656.218384 110.642906
v -44.029747 -655.472961 112.107277
v -38.586109 -657.890747 111.933151
v -38.631573 -657.640442 110.642906
v -38.341698 -656.948669 112.107277
v -38.387161 -656.698425 110.817024
v -43.868340 -655.276367 110.817024
v -38.335369 -656.409729 109.182365
v -38.249447 -656.017456 106.939468
v -43.773254 -654.998901 109.182365
v -38.579777 -657.351746 109.008263
v -38.493855 -656.959534 106.765350
v -44.017662 -655.940918 109.008263
v -43.902039 -655.556396 106.765350
v -43.657631 -654.614319 106.939468
v -43.640350 -654.547729 100.940857
v -43.395943 -653.605713 101.114975
v -38.232166 -655.950867 100.940857
v -37.987759 -655.008789 101.114975
v -15.113392 -618.296387 85.004036
v -15.448305 -619.587280 85.090042
v -15.210913 -618.672241 78.982323
v -45.345146 -610.452881 85.004036
v -45.680061 -611.743774 85.090042
v -45.442665 -610.828796 78.982323
v -45.777580 -612.119629 79.068329
v -15.545826 -619.963135 79.068329
v -15.258587 -618.856018 76.038391
v -15.593498 -620.146912 76.124397
v -15.287218 -618.966370 74.270401
v -45.490341 -611.012512 76.038391
v -45.825253 -612.303406 76.124397
v -45.518974 -611.122864 74.270401
v -45.853886 -612.413757 74.356407
v -15.622131 -620.257263 74.356407
v -14.521830 -621.800659 73.269806
v -13.292973 -622.250122 73.247513
v -26.302143 -654.010742 73.326538
v -14.495865 -621.807373 74.836647
v -13.267008 -622.256836 74.814354
v -26.276178 -654.017456 74.893372
v -25.047325 -654.466919 74.871078
v -25.073288 -654.460205 73.304237
v -47.755501 -613.178345 73.269806
v -49.047874 -612.973694 73.247513
v -53.120499 -647.052795 73.326538
v -47.781464 -613.171631 74.836647
v -49.073845 -612.966980 74.814354
v -53.146469 -647.046082 74.893372
v -54.438843 -646.841431 74.871078
v -54.412876 -646.848145 73.304237
v -20.415371 -647.724548 86.283356
v -55.113892 -638.603882 86.283356
v -20.399279 -647.675232 85.257645
v -22.635195 -654.142334 86.452484
v -24.301239 -654.778992 86.478317
v -22.586170 -653.998474 85.369232
v -56.373825 -645.388367 86.452827
v -55.205933 -646.761292 86.478317
v -56.345005 -645.236511 85.369385
v -55.176704 -646.608459 85.386520
v -55.103546 -638.552612 85.256989
v -24.251989 -654.633850 85.386520
v -20.384415 -647.605286 86.283356
v -18.616457 -642.513000 86.283356
v -55.084110 -638.489075 86.283356
v -20.368856 -647.557983 85.257645
v -18.584227 -642.417969 85.379395
v -55.074295 -638.439941 85.256989
v -54.002800 -632.635681 85.370995
v -54.019775 -632.723938 86.283356
v -18.589983 -642.411011 86.283356
v -16.381544 -635.982361 86.270882
v -53.987057 -632.597778 86.283356
v -18.556686 -642.311829 85.379395
v -16.413628 -636.071289 85.233063
v -53.969124 -632.505859 85.370995
v -52.744007 -625.979370 85.234848
v -52.730129 -625.898315 86.261932
v -16.352467 -635.870300 86.270882
v -14.500805 -630.529907 86.112228
v -52.706726 -625.808105 86.261932
v -16.383709 -635.955994 85.233063
v -14.437881 -630.342407 85.277496
v -52.719868 -625.886292 85.234848
v -51.658577 -620.151917 85.278717
v -51.697182 -620.350830 86.115891
v -14.451830 -630.341187 86.112228
v -12.483164 -624.652466 86.416458
v -51.647186 -620.158142 86.115891
v -14.388514 -630.152100 85.277496
v -12.370333 -624.320435 85.378906
v -51.608177 -619.957642 85.278717
v -50.381851 -613.345947 85.369675
v -50.443504 -613.671265 86.388763
v -29.153824 -658.162537 86.622009
v -29.107819 -658.013977 85.530212
v -28.046373 -653.828186 86.427048
v -52.610641 -652.076782 86.622009
v -51.471184 -647.750732 86.427048
v -52.578606 -651.924561 85.530212
v -51.459938 -647.699707 85.400681
v -28.031397 -653.778137 85.400681
v -28.383596 -655.829163 74.871078
v -28.718874 -657.121399 74.811752
v -28.363844 -655.752991 73.326538
v -51.995899 -649.703064 74.871078
v -52.331177 -650.995300 74.811752
v -51.976147 -649.626892 73.326538
v -52.311424 -650.919189 73.267204
v -28.699121 -657.045288 73.267204
vn -0.4213 0.6764 0.6041
vn -0.7103 -0.4402 0.5493
vn 0.4067 -0.7300 0.5493
vn 0.6970 0.3863 0.6041
vn 0.4213 -0.6764 -0.6041
vn 0.7103 0.4402 -0.5493
vn -0.4067 0.7300 -0.5493
vn -0.6970 -0.3863 -0.6041
vn 0.2945 0.6863 -0.6650
vn 0.1014 0.7436 -0.6609
vn 0.1037 0.7223 0.6838
vn 0.2851 0.6756 0.6799
vn 0.3311 -0.7978 0.5039
vn 0.4270 -0.6305 -0.6481
vn 0.7193 -0.1529 -0.6776
vn 0.7258 -0.1179 0.6777
vn -0.7031 0.2247 -0.6747
vn -0.5731 0.5143 -0.6381
vn -0.2133 0.7456 -0.6313
vn -0.6880 -0.3237 -0.6495
vn -0.6955 -0.5091 0.5071
vn -0.6873 0.2540 0.6805
vn 0.7476 0.1557 -0.6457
vn 0.7402 0.1742 0.6495
vn 0.5579 0.5270 -0.6411
vn 0.5452 0.5301 0.6494
vn -0.1980 0.7273 0.6572
vn -0.5524 0.5154 0.6551
vn 0.8211 0.3431 0.4561
vn 0.8608 0.4970 0.1099
vn 0.2468 0.9513 0.1845
vn 0.5176 -0.8235 0.2323
vn 0.5101 -0.8503 -0.1296
vn 0.4830 0.4361 0.7593
vn 0.1444 -0.8532 0.5012
vn -0.5312 0.6967 0.4821
vn -0.2094 0.6166 0.7589
vn -0.5115 0.8435 0.1636
vn 0.1339 0.5155 0.8463
vn -0.0367 0.5561 0.8303
vn 0.3026 0.4676 0.8305
vn -0.8615 -0.5022 -0.0756
vn -0.5104 0.8453 0.1581
vn -0.8617 -0.5013 -0.0783
vn 0.8601 0.4986 0.1080
vn -0.8379 -0.4813 0.2573
vn -0.2475 -0.9540 -0.1689
vn 0.5098 -0.8505 -0.1290
vn -0.5413 -0.6747 0.5018
vn -0.3694 -0.7324 0.5719
vn -0.2038 -0.7853 0.5846
vn -0.0336 -0.8198 0.5716
vn 0.5140 -0.8519 -0.1006
vn 0.8589 0.4993 0.1140
vn -0.8665 -0.4955 -0.0598
vn -0.5110 0.8459 0.1529
vn 0.5123 -0.8570 -0.0565
vn 0.8470 0.5278 0.0643
vn -0.4874 0.8692 0.0833
vn -0.8669 -0.4972 -0.0348
vn -0.5105 0.8598 0.0054
vn -0.8641 -0.5021 -0.0361
vn 0.5063 -0.8616 -0.0354
vn 0.8616 0.5076 0.0058
vn 0.5067 -0.8615 -0.0326
vn 0.8618 0.5072 0.0086
vn -0.8613 -0.5062 -0.0448
vn -0.5060 0.8625 -0.0036
vn 0.7940 0.4695 -0.3861
vn -0.4616 0.7955 -0.3926
vn 0.4695 -0.7827 -0.4087
vn 0.3663 0.2181 -0.9046
vn -0.2104 0.3682 -0.9056
vn 0.2187 -0.3568 -0.9082
vn -0.3611 -0.2068 -0.9093
vn -0.7868 -0.4567 -0.4153
vn -0.8527 -0.4679 0.2323
vn -0.8591 -0.4950 -0.1296
vn -0.5508 0.6990 0.4561
vn -0.5106 0.8528 0.1099
vn -0.5410 -0.6754 0.5012
vn -0.2100 0.6159 0.7593
vn 0.5087 -0.8576 -0.0756
vn 0.4982 -0.8280 0.2573
vn 0.1450 -0.8528 0.5018
vn -0.3692 -0.7328 0.5716
vn -0.2036 -0.7853 0.5846
vn -0.0333 -0.8196 0.5719
vn 0.8571 0.4885 0.1636
vn 0.8029 0.3505 0.4821
vn -0.8590 -0.4954 -0.1290
vn 0.5093 -0.8570 -0.0783
vn 0.8570 0.4905 0.1581
vn -0.5092 0.8539 0.1080
vn 0.4827 0.4370 0.7589
vn 0.3024 0.4681 0.8303
vn 0.1337 0.5156 0.8463
vn -0.0371 0.5558 0.8305
vn -0.5078 0.8539 0.1140
vn -0.8633 -0.4946 -0.1006
vn 0.8578 0.4908 0.1529
vn 0.5163 -0.8543 -0.0598
vn -0.4836 0.8729 0.0643
vn -0.8643 -0.4998 -0.0565
vn 0.5158 -0.8560 -0.0348
vn 0.8485 0.5226 0.0833
vn 0.8642 0.5032 0.0054
vn -0.5061 0.8624 0.0058
vn 0.5110 -0.8588 -0.0361
vn 0.8615 0.5077 -0.0036
vn -0.5065 0.8622 0.0086
vn 0.5065 -0.8611 -0.0448
vn 0.7901 0.4707 -0.3926
vn -0.4656 0.7963 -0.3861
vn 0.4655 -0.7816 -0.4153
vn 0.3629 0.2195 -0.9056
vn -0.2141 0.3687 -0.9046
vn 0.2150 -0.3563 -0.9093
vn -0.3646 -0.2055 -0.9082
vn -0.7908 -0.4557 -0.4087
vn -0.8616 -0.5065 -0.0326
vn -0.8614 -0.5068 -0.0354
vn -0.6905 -0.3928 0.6074
vn -0.3990 0.7359 0.5470
vn -0.5069 0.8615 -0.0296
vn -0.8619 -0.5060 0.0334
vn 0.4315 -0.6813 0.5913
vn 0.7240 0.4402 0.5310
vn 0.5058 -0.8626 -0.0102
vn 0.5054 -0.8628 -0.0094
vn 0.8606 0.5040 -0.0732
vn 0.8603 0.5047 -0.0724
vn 0.5045 -0.8634 -0.0038
vn 0.8597 0.5064 -0.0670
vn -0.5071 0.8613 -0.0300
vn -0.8620 -0.5059 0.0329
vn -0.7989 -0.4715 -0.3735
vn 0.4582 -0.7983 -0.3908
vn 0.7833 0.4531 -0.4256
vn -0.3704 -0.2199 -0.9025
vn 0.2069 -0.3709 -0.9053
vn 0.3584 0.2041 -0.9110
vn -0.4747 0.7800 -0.4077
vn -0.2239 0.3541 -0.9080
vn 0.4125 -0.6789 0.6074
vn 0.5072 -0.8612 0.0334
vn 0.8618 0.5064 -0.0296
vn 0.7065 0.4491 0.5470
vn -0.4187 0.7367 0.5310
vn -0.7083 -0.3855 0.5913
vn -0.8613 -0.5079 -0.0102
vn -0.8611 -0.5083 -0.0094
vn -0.5070 0.8588 -0.0732
vn -0.5064 0.8593 -0.0724
vn -0.5051 0.8605 -0.0670
vn -0.8606 -0.5092 -0.0038
vn 0.8619 0.5061 -0.0300
vn 0.5073 -0.8611 0.0329
vn 0.4689 -0.8004 -0.3735
vn -0.7885 -0.4748 -0.3908
vn -0.4642 0.7767 -0.4256
vn -0.3612 -0.2235 -0.9053
vn 0.2168 -0.3722 -0.9025
vn -0.2140 0.3526 -0.9110
vn 0.3678 0.2005 -0.9080
vn 0.7941 0.4508 -0.4077
vn -0.3302 0.7457 0.5787
vn 0.7515 0.3506 0.5588
vn 0.7292 0.3370 -0.5955
vn -0.3576 0.7353 -0.5757
vn 0.3339 -0.7383 -0.5860
vn -0.7501 -0.3410 -0.5666
vn -0.7309 -0.3466 0.5879
vn 0.3536 -0.7428 0.5686
vn 0.6516 0.4934 0.5762
vn 0.6695 0.4664 -0.5781
vn -0.4748 0.6465 -0.5971
vn -0.4849 0.6742 0.5571
vn 0.4893 -0.6626 -0.5671
vn -0.6512 -0.4828 -0.5856
vn 0.4707 -0.6583 0.5874
vn -0.6696 -0.4773 0.5690
vn -0.4435 0.5898 0.6749
vn -0.7283 -0.5083 0.4595
vn 0.3894 -0.7983 0.4595
vn 0.6742 0.2998 0.6749
vn 0.4435 -0.5898 -0.6749
vn 0.7283 0.5083 -0.4595
vn -0.3894 0.7983 -0.4595
vn -0.6742 -0.2998 -0.6749
vn 0.5009 0.7300 0.4650
vn 0.0546 -0.9903 0.1274
vn 0.4124 -0.7969 0.4414
vn 0.6955 0.2942 0.6555
vn 0.4214 -0.5844 -0.6934
vn 0.7082 0.5209 -0.4766
vn 0.2076 0.8001 -0.5628
vn 0.2467 0.9510 0.1866
vn 0.7285 0.3105 0.6107
vn 0.4379 -0.8096 0.3909
vn 0.2392 0.5049 0.8294
vn 0.1358 0.5234 0.8412
vn -0.1413 -0.5447 -0.8266
vn -0.2467 -0.9510 -0.1866
vn -0.1032 -0.8149 0.5704
vn -0.2038 -0.7855 0.5844
vn -0.3060 -0.7622 0.5704
vn 0.0364 0.5575 0.8294
vn -0.0828 0.8814 0.4650
vn -0.4856 0.6255 0.6107
vn -0.7762 -0.4946 0.3909
vn -0.5291 -0.8389 0.1274
vn -0.4647 0.5952 0.6555
vn -0.7478 -0.4959 0.4414
vn -0.3656 0.7995 -0.4766
vn -0.6524 -0.3058 -0.6934
vn -0.7281 -0.5073 0.4610
vn 0.3896 -0.7973 0.4610
vn 0.6746 0.3012 0.6739
vn -0.4431 0.5912 0.6739
vn 0.4431 -0.5912 -0.6739
vn 0.7281 0.5073 -0.4610
vn -0.6746 -0.3012 -0.6739
vn -0.3896 0.7973 -0.4610
vn -0.4417 0.5967 0.6700
vn 0.6760 0.3067 0.6700
vn 0.8008 0.5370 0.2653
vn -0.4387 0.8586 0.2653
vn -0.7271 -0.5035 0.4666
vn 0.3906 -0.7935 0.4666
vn -0.8127 -0.5827 -0.0011
vn -0.3610 0.7891 0.4970
vn -0.7319 -0.6405 0.2327
vn 0.6991 0.5141 0.4970
vn 0.4269 -0.9043 -0.0011
vn 0.3282 -0.9155 0.2327
vn -0.7665 -0.5650 0.3053
vn 0.3952 -0.8664 0.3053
vn 0.7284 0.4182 0.5427
vn -0.8364 -0.5298 0.1410
vn 0.4733 -0.8695 0.1410
vn 0.8128 0.4390 0.3829
vn 0.5174 -0.8557 0.0097
vn 0.8564 0.4510 0.2512
vn -0.8682 -0.4962 0.0097
vn -0.5291 0.8105 0.2512
vn -0.4968 0.7788 0.3829
vn -0.4332 0.7196 0.5427
vn 0.8692 0.4761 0.1334
vn -0.5281 0.8386 0.1334
vn -0.8703 -0.4801 -0.1104
vn -0.5187 0.8542 0.0363
vn -0.8608 -0.4647 -0.2074
vn 0.8685 0.4943 0.0363
vn 0.5271 -0.8426 -0.1104
vn 0.5264 -0.8246 -0.2074
vn -0.8411 -0.4730 -0.2622
vn 0.5050 -0.8223 -0.2622
vn -0.4926 0.8701 -0.0139
vn -0.8375 -0.4706 -0.2776
vn 0.5031 -0.8184 -0.2776
vn -0.4893 0.8716 -0.0296
vn 0.8535 0.5209 -0.0139
vn 0.8513 0.5238 -0.0296
vn 0.8470 0.5312 -0.0207
vn -0.4819 0.8760 -0.0207
vn 0.4950 -0.8254 -0.2714
vn 0.5006 -0.8296 -0.2475
vn 0.8517 0.5240 0.0027
vn -0.4896 0.8720 0.0027
vn -0.8338 -0.4807 -0.2714
vn -0.8407 -0.4816 -0.2475
vn -0.8436 -0.4943 -0.2101
vn 0.4969 -0.8420 -0.2101
vn -0.4893 0.8711 0.0423
vn -0.8514 -0.5000 -0.1585
vn 0.5009 -0.8509 -0.1585
vn -0.4980 0.8622 0.0933
vn 0.8511 0.5233 0.0423
vn 0.8543 0.5113 0.0933
vn 0.8590 0.4983 0.1176
vn -0.5084 0.8531 0.1176
vn 0.5090 -0.8506 -0.1317
vn 0.5088 -0.8515 -0.1270
vn 0.8588 0.4975 0.1223
vn -0.5086 0.8523 0.1223
vn -0.8583 -0.4959 -0.1317
vn -0.8586 -0.4967 -0.1270
vn -0.6760 -0.3067 -0.6700
vn 0.4417 -0.5967 -0.6700
vn -0.3906 0.7935 -0.4667
vn 0.7271 0.5035 -0.4667
vn -0.4048 0.7386 0.5390
vn -0.6942 -0.3767 0.6133
vn 0.4235 -0.6667 0.6133
vn 0.7129 0.4487 0.5390
vn 0.4048 -0.7386 -0.5390
vn 0.6942 0.3767 -0.6133
vn -0.4235 0.6667 -0.6133
vn -0.7129 -0.4487 -0.5390
vn -0.3343 0.7380 0.5861
vn 0.7500 0.3414 0.5665
vn 0.7309 0.3464 -0.5881
vn -0.3534 0.7430 -0.5684
vn 0.3343 -0.7380 -0.5861
vn -0.7500 -0.3414 -0.5665
vn -0.7309 -0.3464 0.5881
vn 0.3534 -0.7430 0.5684
vn 0.6509 0.4824 0.5861
vn 0.6700 0.4775 -0.5684
vn -0.4703 0.6580 -0.5881
vn -0.4894 0.6630 0.5665
vn 0.4894 -0.6630 -0.5665
vn -0.6509 -0.4824 -0.5861
vn 0.4703 -0.6580 0.5881
vn -0.6700 -0.4775 0.5684
vn 0.7237 0.3749 0.5794
vn -0.4449 0.6829 0.5795
vn -0.7665 -0.2240 0.6019
vn 0.5599 -0.5674 0.6039
vn 0.7228 0.3983 -0.5648
vn -0.4325 0.7027 -0.5649
vn 0.5654 -0.5196 -0.6405
vn 0.0398 -0.7954 0.6048
vn 0.0449 -0.7258 -0.6865
vn -0.4193 -0.6769 0.6049
vn -0.7476 -0.1776 -0.6399
vn -0.3893 -0.6129 -0.6876
vn 0.3762 -0.7314 0.5688
vn 0.3898 -0.6981 -0.6006
vn 0.7310 0.4185 -0.5389
vn 0.7214 0.3454 0.6002
vn -0.4464 0.6630 0.6010
vn -0.6878 -0.4512 0.5686
vn -0.6839 -0.4150 -0.6001
vn -0.4239 0.7298 -0.5364
vn 0.3628 -0.7501 0.5529
vn 0.3964 -0.6949 -0.5999
vn 0.7182 0.3480 -0.6026
vn 0.7276 0.4094 0.5504
vn -0.4256 0.7207 0.5472
vn -0.6932 -0.4619 0.5533
vn -0.6893 -0.4022 -0.6026
vn -0.4424 0.6641 -0.6027
vn 0.3930 -0.6894 0.6085
vn 0.3650 -0.7417 -0.5627
vn 0.7358 0.4533 -0.5031
vn 0.7175 0.3092 0.6241
vn -0.4665 0.6273 0.6237
vn -0.6845 -0.3982 0.6106
vn -0.6907 -0.4538 -0.5631
vn -0.4083 0.7623 -0.5022
vn 0.3487 -0.7940 0.4980
vn 0.4146 -0.6462 -0.6407
vn 0.7409 0.4740 -0.4758
vn 0.7050 0.2550 0.6617
vn -0.4734 0.5814 0.6617
vn -0.6966 -0.5138 0.5007
vn -0.6838 -0.3500 -0.6403
vn -0.3972 0.7878 -0.4706
vn -0.7063 -0.3723 -0.6021
vn 0.4362 -0.6687 -0.6021
vn 0.3967 -0.7325 0.5532
vn -0.7028 -0.4473 0.5532
vn 0.7019 0.4243 -0.5721
vn 0.7054 0.4095 0.5785
vn -0.4174 0.7008 0.5785
vn -0.4071 0.7120 -0.5721
vn -0.4213 0.6765 0.6040
vn -0.7103 -0.4401 0.5494
vn 0.4067 -0.7299 0.5494
vn 0.6971 0.3864 0.6040
vn 0.4213 -0.6765 -0.6040
vn 0.7103 0.4401 -0.5494
vn -0.4067 0.7299 -0.5494
vn -0.6971 -0.3864 -0.6040
vt 0.260220 0.704599
vt 0.271953 0.704599
vt 0.271953 0.918768
vt 0.260220 0.918768
vt 0.986617 0.063677
vt 0.998350 0.063597
vt 0.998350 0.120909
vt 0.986617 0.120989
vt 0.340998 0.918768
vt 0.340998 0.704599
vt 0.398309 0.704599
vt 0.398309 0.918768
vt 0.998345 0.058955
vt 0.986612 0.058876
vt 0.986612 0.001564
vt 0.998345 0.001644
vt 0.329265 0.918768
vt 0.329265 0.704599
vt 0.992174 0.420907
vt 0.993080 0.758638
vt 0.985887 0.758596
vt 0.984992 0.420920
vt 0.979222 0.359856
vt 0.988460 0.362552
vt 0.991593 0.408322
vt 0.984138 0.408339
vt 0.454208 0.430860
vt 0.445854 0.423392
vt 0.449999 0.424098
vt 0.453057 0.426831
vt 0.988400 0.813226
vt 0.979269 0.815523
vt 0.984886 0.771069
vt 0.992349 0.771109
vt 0.792598 0.365439
vt 0.792598 0.712102
vt 0.782975 0.711966
vt 0.783187 0.365717
vt 0.991877 0.412539
vt 0.984559 0.412554
vt 0.992089 0.416690
vt 0.984870 0.416704
vt 0.992993 0.762828
vt 0.985764 0.762786
vt 0.992728 0.766921
vt 0.985400 0.766881
vt 0.738596 0.361351
vt 0.730202 0.368812
vt 0.731364 0.364784
vt 0.734436 0.362054
vt 0.730155 0.713407
vt 0.727152 0.710525
vt 0.726090 0.706443
vt 0.734294 0.714315
vt 0.449581 0.776416
vt 0.457776 0.768551
vt 0.403754 0.774156
vt 0.403754 0.427493
vt 0.453711 0.775512
vt 0.456710 0.772633
vt 0.514662 0.007202
vt 0.512075 0.091187
vt 0.501141 0.007138
vt 0.531397 0.007949
vt 0.531433 0.091879
vt 0.880168 0.683927
vt 0.880199 0.700713
vt 0.874580 0.700764
vt 0.874549 0.683978
vt 0.510170 0.003846
vt 0.487621 0.007077
vt 0.492143 0.003763
vt 0.482788 0.091190
vt 0.501167 0.001559
vt 0.496658 0.002007
vt 0.505672 0.002048
vt 0.560617 0.092674
vt 0.579973 0.091535
vt 0.584009 0.175632
vt 0.561866 0.176783
vt 0.509675 0.175368
vt 0.479619 0.175381
vt 0.558435 0.008664
vt 0.575128 0.007475
vt 0.544914 0.008304
vt 0.531875 0.176036
vt 0.554016 0.005210
vt 0.535990 0.004734
vt 0.549556 0.003313
vt 0.545061 0.002726
vt 0.540542 0.003075
vt 0.869725 0.700790
vt 0.869694 0.684003
vt 0.865183 0.700796
vt 0.865152 0.684009
vt 0.860642 0.700788
vt 0.860611 0.684002
vt 0.855786 0.700761
vt 0.855755 0.683975
vt 0.850167 0.700713
vt 0.850136 0.683927
vt 0.532900 0.301978
vt 0.505580 0.300522
vt 0.564030 0.302188
vt 0.474431 0.299733
vt 0.535504 0.425725
vt 0.496908 0.425177
vt 0.465407 0.425013
vt 0.591114 0.299722
vt 0.606361 0.424669
vt 0.567275 0.425896
vt 0.601138 0.552830
vt 0.566407 0.553004
vt 0.534786 0.552723
vt 0.500101 0.551911
vt 0.534650 0.675164
vt 0.503720 0.675432
vt 0.563508 0.675256
vt 0.468424 0.552915
vt 0.474890 0.676314
vt 0.506787 0.782053
vt 0.479749 0.782830
vt 0.534361 0.780894
vt 0.473381 0.140109
vt 0.473743 0.168992
vt 0.470113 0.165387
vt 0.470040 0.143724
vt 0.444297 0.168992
vt 0.447938 0.165580
vt 0.447500 0.143505
vt 0.444000 0.140089
vt 0.594474 0.676240
vt 0.588975 0.782773
vt 0.561416 0.780978
vt 0.795700 0.698485
vt 0.795700 0.675649
vt 0.818022 0.675649
vt 0.818022 0.698485
vt 0.067537 0.776478
vt 0.067574 0.692549
vt 0.081054 0.776124
vt 0.050803 0.777226
vt 0.048216 0.693240
vt 0.072131 0.779694
vt 0.862193 0.301395
vt 0.867811 0.301445
vt 0.867780 0.318231
vt 0.862162 0.318181
vt 0.096758 0.691753
vt 0.094575 0.775763
vt 0.090157 0.779218
vt 0.076683 0.781352
vt 0.081202 0.781702
vt 0.085696 0.781114
vt 0.116114 0.692892
vt 0.111269 0.776952
vt 0.068016 0.608392
vt 0.098007 0.607645
vt 0.120149 0.608796
vt 0.018929 0.693238
vt 0.015760 0.609047
vt 0.045816 0.609060
vt 0.037282 0.777289
vt 0.023762 0.777351
vt 0.028284 0.780664
vt 0.046311 0.780581
vt 0.032798 0.782421
vt 0.037307 0.782868
vt 0.041812 0.782379
vt 0.872667 0.301471
vt 0.872636 0.318257
vt 0.877208 0.301477
vt 0.877178 0.318263
vt 0.881750 0.301470
vt 0.881719 0.318256
vt 0.886606 0.301443
vt 0.886575 0.318229
vt 0.892224 0.301395
vt 0.892194 0.318181
vt 0.041721 0.483906
vt 0.069041 0.482450
vt 0.010571 0.484695
vt 0.100171 0.482240
vt 0.033048 0.359251
vt 0.071645 0.358703
vt 0.103416 0.358532
vt 0.142502 0.359759
vt 0.127255 0.484706
vt 0.001548 0.359415
vt 0.004565 0.231513
vt 0.036242 0.232517
vt 0.102548 0.231424
vt 0.137279 0.231598
vt 0.011031 0.108114
vt 0.039860 0.108996
vt 0.099649 0.109171
vt 0.130615 0.108188
vt 0.015890 0.001598
vt 0.042928 0.002375
vt 0.097557 0.003450
vt 0.125116 0.001654
vt 0.447693 0.211960
vt 0.447620 0.233623
vt 0.443990 0.237228
vt 0.444352 0.208345
vt 0.473733 0.208325
vt 0.470232 0.211741
vt 0.469795 0.233816
vt 0.473436 0.237228
vt 0.070502 0.003534
vt 0.070791 0.109263
vt 0.070926 0.231705
vt 0.843448 0.700554
vt 0.821126 0.700554
vt 0.821126 0.677718
vt 0.843448 0.677718
vt 0.861196 0.355744
vt 0.820689 0.356864
vt 0.818522 0.268176
vt 0.856064 0.266725
vt 0.901562 0.264156
vt 0.901562 0.296600
vt 0.860973 0.296600
vt 0.860973 0.264156
vt 0.720358 0.266799
vt 0.750633 0.269034
vt 0.747809 0.358208
vt 0.715509 0.355821
vt 0.816351 0.179417
vt 0.850968 0.177683
vt 0.725178 0.177758
vt 0.753398 0.179769
vt 0.788329 0.358280
vt 0.788188 0.269510
vt 0.788063 0.180627
vt 0.756053 0.090214
vt 0.787883 0.091432
vt 0.814440 0.090455
vt 0.729559 0.088559
vt 0.732951 0.001642
vt 0.758629 0.003100
vt 0.787410 0.004740
vt 0.471486 0.271973
vt 0.443979 0.272269
vt 0.447553 0.268649
vt 0.467840 0.268632
vt 0.468047 0.244987
vt 0.471493 0.241431
vt 0.443979 0.241774
vt 0.447363 0.245457
vt 0.846135 0.088521
vt 0.813114 0.003884
vt 0.841898 0.001672
vt 0.907259 0.683916
vt 0.907259 0.704791
vt 0.883284 0.704791
vt 0.883284 0.683916
vt 0.729746 0.004089
vt 0.724615 0.093109
vt 0.687073 0.091657
vt 0.689240 0.002970
vt 0.858835 0.226937
vt 0.899424 0.226937
vt 0.899424 0.259381
vt 0.858835 0.259381
vt 0.588909 0.093035
vt 0.584059 0.004012
vt 0.616359 0.001625
vt 0.619183 0.090800
vt 0.719518 0.182151
vt 0.684902 0.180417
vt 0.593729 0.182076
vt 0.621948 0.180064
vt 0.656738 0.090323
vt 0.656879 0.001554
vt 0.656614 0.179207
vt 0.656433 0.268402
vt 0.624603 0.269620
vt 0.682991 0.269379
vt 0.598109 0.271275
vt 0.601502 0.358192
vt 0.627179 0.356733
vt 0.655961 0.355094
vt 0.467842 0.176830
vt 0.447555 0.176813
vt 0.443980 0.173193
vt 0.471488 0.173490
vt 0.471495 0.204032
vt 0.468049 0.200475
vt 0.447365 0.200005
vt 0.443980 0.203688
vt 0.714685 0.271313
vt 0.710449 0.358162
vt 0.681665 0.355950
vt 0.683727 0.700463
vt 0.707702 0.700463
vt 0.707702 0.721338
vt 0.683727 0.721338
vt 0.998011 0.183707
vt 0.986618 0.183707
vt 0.986618 0.125614
vt 0.998011 0.125614
vt 0.145600 0.363645
vt 0.145600 0.352251
vt 0.444149 0.352251
vt 0.444149 0.363645
vt 0.444149 0.421738
vt 0.145600 0.421738
vt 0.444149 0.282765
vt 0.444149 0.294158
vt 0.145600 0.294158
vt 0.145600 0.282765
vt 0.998008 0.245741
vt 0.986614 0.245741
vt 0.986614 0.187648
vt 0.998008 0.187648
vt 0.458641 0.276568
vt 0.458641 0.334661
vt 0.447248 0.334661
vt 0.447248 0.276568
vt 0.142326 0.198190
vt 0.440874 0.198190
vt 0.440874 0.209583
vt 0.142326 0.209583
vt 0.142326 0.140097
vt 0.440874 0.140097
vt 0.440875 0.279070
vt 0.142326 0.279070
vt 0.142326 0.267676
vt 0.440875 0.267676
vt 0.447255 0.396695
vt 0.447255 0.338602
vt 0.458648 0.338602
vt 0.458648 0.396695
vt 0.893240 0.222289
vt 0.879590 0.222289
vt 0.879590 0.001548
vt 0.893240 0.001548
vt 0.902526 0.226937
vt 0.916176 0.226937
vt 0.916176 0.249829
vt 0.902526 0.249829
vt 0.916131 0.001548
vt 0.916131 0.222289
vt 0.998260 0.351152
vt 0.984610 0.351152
vt 0.984610 0.328260
vt 0.998260 0.328260
vt 0.929781 0.001548
vt 0.929781 0.222289
vt 0.856698 0.222289
vt 0.856698 0.001548
vt 0.792114 0.994408
vt 0.792114 0.981673
vt 0.848111 0.981673
vt 0.848111 0.994408
vt 0.886258 0.981673
vt 0.886258 0.994408
vt 0.237843 0.833698
vt 0.183171 0.833698
vt 0.184546 0.795646
vt 0.240542 0.795646
vt 0.132483 0.833698
vt 0.132481 0.795646
vt 0.784835 0.994408
vt 0.784835 0.981673
vt 0.132477 0.777496
vt 0.184546 0.788367
vt 0.126437 0.833698
vt 0.126438 0.795646
vt 0.126438 0.776974
vt 0.126437 0.846433
vt 0.132483 0.846433
vt 0.183171 0.846433
vt 0.132481 0.884485
vt 0.126437 0.884485
vt 0.184546 0.884485
vt 0.237843 0.846433
vt 0.240542 0.884485
vt 0.132477 0.902635
vt 0.126437 0.903157
vt 0.184546 0.891764
vt 0.731644 0.981673
vt 0.731644 0.994408
vt 0.725582 0.994408
vt 0.725582 0.981673
vt 0.120398 0.902635
vt 0.120394 0.884485
vt 0.719520 0.994408
vt 0.719520 0.981673
vt 0.120394 0.795646
vt 0.120398 0.777496
vt 0.068329 0.795646
vt 0.068329 0.788367
vt 0.666329 0.994408
vt 0.666329 0.981673
vt 0.659050 0.994408
vt 0.659050 0.981673
vt 0.603053 0.994408
vt 0.603053 0.981673
vt 0.069704 0.833698
vt 0.015032 0.833698
vt 0.012333 0.795646
vt 0.120392 0.833698
vt 0.015032 0.846433
vt 0.069704 0.846433
vt 0.068329 0.884485
vt 0.012333 0.884485
vt 0.120392 0.846433
vt 0.068329 0.891764
vt 0.564906 0.994408
vt 0.564906 0.981673
vt 0.007960 0.020161
vt 0.007960 0.034865
vt 0.001551 0.034865
vt 0.001551 0.020161
vt 0.305316 0.959157
vt 0.535251 0.959156
vt 0.535250 0.965566
vt 0.305316 0.965565
vt 0.305316 0.944453
vt 0.535251 0.944452
vt 0.535251 0.986678
vt 0.305316 0.986678
vt 0.305316 0.980269
vt 0.535250 0.980270
vt 0.845728 0.016252
vt 0.845728 0.001548
vt 0.852137 0.001548
vt 0.852137 0.016252
vt 0.846635 0.020160
vt 0.853044 0.020160
vt 0.853044 0.034863
vt 0.846635 0.034863
vt 0.961292 0.971748
vt 0.954883 0.971748
vt 0.954883 0.741814
vt 0.961292 0.741813
vt 0.975996 0.741813
vt 0.975997 0.971748
vt 0.933770 0.741813
vt 0.940179 0.741814
vt 0.940179 0.971748
vt 0.933770 0.971748
vt 0.001552 0.001555
vt 0.007962 0.001555
vt 0.007962 0.016259
vt 0.001552 0.016259
vt 0.705176 0.965314
vt 0.705176 0.912680
vt 0.733594 0.912680
vt 0.733594 0.965314
vt 0.054183 0.989943
vt 0.054183 0.998410
vt 0.001549 0.998410
vt 0.001549 0.989943
vt 0.082600 0.989943
vt 0.082600 0.998410
vt 0.085741 0.989943
vt 0.085741 0.998410
vt 0.736471 0.911419
vt 0.736471 0.966575
vt 0.924434 0.255360
vt 0.977068 0.255360
vt 0.978329 0.258237
vt 0.923173 0.258236
vt 0.977068 0.226942
vt 0.924434 0.226942
vt 0.533387 0.989943
vt 0.533387 0.998410
vt 0.530246 0.998410
vt 0.530246 0.989943
vt 0.561805 0.989943
vt 0.561805 0.998410
vt 0.982650 0.262632
vt 0.918852 0.262632
vt 0.524082 0.998410
vt 0.524082 0.989943
vt 0.985630 0.268524
vt 0.915872 0.268524
vt 0.517480 0.998410
vt 0.517480 0.989943
vt 0.508896 0.998410
vt 0.508896 0.989943
vt 0.988012 0.276770
vt 0.913490 0.276770
vt 0.755004 0.901736
vt 0.755004 0.976258
vt 0.746758 0.973876
vt 0.746758 0.904118
vt 0.740866 0.970896
vt 0.740866 0.907098
vt 0.107091 0.989943
vt 0.107091 0.998410
vt 0.098508 0.998410
vt 0.098508 0.989943
vt 0.091905 0.998410
vt 0.091905 0.989943
vt 0.763193 0.901039
vt 0.763193 0.976955
vt 0.115309 0.989943
vt 0.115309 0.998410
vt 0.125788 0.989943
vt 0.125788 0.998410
vt 0.773657 0.901589
vt 0.773657 0.976405
vt 0.912793 0.284959
vt 0.988709 0.284958
vt 0.988159 0.295423
vt 0.913343 0.295423
vt 0.986155 0.305901
vt 0.915347 0.305901
vt 0.136456 0.989943
vt 0.136456 0.998410
vt 0.983933 0.316370
vt 0.917569 0.316370
vt 0.147158 0.989943
vt 0.147158 0.998410
vt 0.479531 0.989943
vt 0.479531 0.998410
vt 0.468829 0.998410
vt 0.468829 0.989943
vt 0.490200 0.989943
vt 0.490200 0.998410
vt 0.794604 0.905815
vt 0.794604 0.972179
vt 0.784136 0.974401
vt 0.784136 0.903593
vt 0.500678 0.989943
vt 0.500678 0.998410
vt 0.808087 0.909030
vt 0.808087 0.968964
vt 0.454969 0.998410
vt 0.454969 0.989943
vt 0.442418 0.998410
vt 0.442418 0.989943
vt 0.820408 0.911420
vt 0.820408 0.966574
vt 0.920784 0.329853
vt 0.980718 0.329853
vt 0.978328 0.342174
vt 0.923174 0.342174
vt 0.161019 0.998410
vt 0.161019 0.989943
vt 0.173570 0.989943
vt 0.173570 0.998410
vt 0.975914 0.356804
vt 0.925589 0.356805
vt 0.188399 0.989943
vt 0.188399 0.998410
vt 0.974998 0.368029
vt 0.926504 0.368030
vt 0.199661 0.989943
vt 0.199661 0.998410
vt 0.427589 0.989943
vt 0.427589 0.998410
vt 0.416327 0.998410
vt 0.416327 0.989943
vt 0.846264 0.914750
vt 0.846264 0.963244
vt 0.835039 0.964159
vt 0.835039 0.913835
vt 0.860485 0.914941
vt 0.860485 0.963053
vt 0.402104 0.998410
vt 0.402104 0.989943
vt 0.382591 0.998410
vt 0.382591 0.989943
vt 0.879998 0.915073
vt 0.879998 0.962921
vt 0.926695 0.382251
vt 0.974807 0.382251
vt 0.974675 0.401764
vt 0.926827 0.401764
vt 0.233397 0.989943
vt 0.233397 0.998410
vt 0.213884 0.998410
vt 0.213884 0.989943
vt 0.974675 0.452437
vt 0.926827 0.452437
vt 0.284070 0.989943
vt 0.284070 0.998410
vt 0.331918 0.989943
vt 0.331918 0.998410
vt 0.930671 0.915073
vt 0.930671 0.962921
vt 0.377911 0.425448
vt 0.389644 0.425448
vt 0.389644 0.699658
vt 0.377911 0.699658
vt 0.916328 0.326194
vt 0.916328 0.337927
vt 0.863350 0.337927
vt 0.863350 0.326194
vt 0.324933 0.699658
vt 0.324933 0.425448
vt 0.013288 0.681070
vt 0.001555 0.681070
vt 0.001555 0.628092
vt 0.013288 0.628092
vt 0.313200 0.699658
vt 0.313200 0.425448
vt 0.260222 0.699658
vt 0.260222 0.425448
vt 0.950968 0.462664
vt 0.962701 0.462664
vt 0.962701 0.736874
vt 0.950968 0.736874
vt 0.466508 0.148363
vt 0.466508 0.160096
vt 0.450954 0.160096
vt 0.450954 0.148363
vt 0.935414 0.736874
vt 0.935414 0.462664
vt 0.450790 0.228337
vt 0.450790 0.216604
vt 0.466344 0.216604
vt 0.466344 0.228337
vt 0.923681 0.736874
vt 0.923681 0.462664
vt 0.978255 0.462664
vt 0.978256 0.736874
vt 0.447246 0.400636
vt 0.458719 0.400636
vt 0.458719 0.414373
vt 0.447246 0.414373
vt 0.702071 0.890693
vt 0.702071 0.902166
vt 0.401406 0.902166
vt 0.401406 0.890694
vt 0.401406 0.941114
vt 0.401406 0.927377
vt 0.702071 0.927376
vt 0.702071 0.941114
vt 0.401406 0.915904
vt 0.702071 0.915904
vt 0.998454 0.263425
vt 0.986982 0.263425
vt 0.986982 0.249687
vt 0.998454 0.249687
vt 0.471505 0.673575
vt 0.471505 0.687313
vt 0.460033 0.687313
vt 0.460033 0.673575
vt 0.001549 0.923774
vt 0.302216 0.923774
vt 0.302216 0.935247
vt 0.001549 0.935246
vt 0.302216 0.974194
vt 0.001549 0.974195
vt 0.001549 0.960457
vt 0.302216 0.960456
vt 0.001549 0.948984
vt 0.302216 0.948984
vt 0.909061 0.312854
vt 0.895324 0.312854
vt 0.895324 0.301381
vt 0.909061 0.301381
vt 0.915342 0.794365
vt 0.600355 0.794358
vt 0.604801 0.733920
vt 0.910818 0.734897
vt 0.915368 0.803381
vt 0.600328 0.803381
vt 0.920385 0.735745
vt 0.924359 0.794360
vt 0.898092 0.725769
vt 0.904515 0.718527
vt 0.917191 0.727712
vt 0.617782 0.724866
vt 0.598524 0.726644
vt 0.611459 0.717533
vt 0.591332 0.794377
vt 0.595233 0.734811
vt 0.712117 0.866561
vt 0.699391 0.875675
vt 0.418894 0.876556
vt 0.405911 0.867513
vt 0.716573 0.807980
vt 0.401534 0.807980
vt 0.699323 0.885355
vt 0.419013 0.886239
vt 0.906392 0.671247
vt 0.906420 0.680044
vt 0.859817 0.681409
vt 0.860275 0.673631
vt 0.864287 0.358987
vt 0.914260 0.363998
vt 0.923060 0.364198
vt 0.915186 0.671498
vt 0.806001 0.669984
vt 0.806001 0.362582
vt 0.856434 0.358825
vt 0.852485 0.673581
vt 0.864301 0.351133
vt 0.914709 0.355207
vt 0.468286 0.009544
vt 0.476263 0.009994
vt 0.480951 0.067748
vt 0.471904 0.069112
vt 0.140726 0.069236
vt 0.145794 0.009606
vt 0.145728 0.001554
vt 0.468334 0.001554
vt 0.468381 0.136103
vt 0.145776 0.136382
vt 0.140800 0.078282
vt 0.471842 0.078263
vt 0.137744 0.009772
vt 0.131797 0.067781
vt 0.618365 0.369638
vt 0.617267 0.360753
vt 0.668304 0.359331
vt 0.666858 0.366560
vt 0.665790 0.697949
vt 0.618264 0.693786
vt 0.609412 0.693715
vt 0.609412 0.369700
vt 0.725163 0.370035
vt 0.723142 0.694044
vt 0.673191 0.698104
vt 0.674230 0.366487
vt 0.617045 0.702554
vt 0.667089 0.705236
vt 0.143601 0.436678
vt 0.144665 0.429418
vt 0.197298 0.425596
vt 0.195099 0.434698
vt 0.190669 0.772549
vt 0.134558 0.766288
vt 0.127191 0.766217
vt 0.136269 0.436381
vt 0.257122 0.438160
vt 0.257122 0.768121
vt 0.199823 0.772942
vt 0.204465 0.434690
vt 0.135197 0.773629
vt 0.192144 0.781592
vt 0.724852 0.843237
vt 0.920384 0.843237
vt 0.920326 0.852130
vt 0.724910 0.852130
vt 0.929061 0.853797
vt 0.928440 0.889050
vt 0.920192 0.888239
vt 0.725044 0.888239
vt 0.716797 0.889050
vt 0.716175 0.853797
vt 0.725028 0.807979
vt 0.920208 0.807979
vt 0.920208 0.896526
vt 0.725028 0.896526
vt 0.946464 0.001554
vt 0.958197 0.001554
vt 0.958198 0.215723
vt 0.946465 0.215723
vt 0.464216 0.181448
vt 0.464292 0.193181
vt 0.450714 0.193181
vt 0.450638 0.181448
vt 0.932886 0.215723
vt 0.932886 0.001554
vt 0.462354 0.263344
vt 0.450621 0.263268
vt 0.450621 0.249690
vt 0.462354 0.249766
vt 0.983509 0.215723
vt 0.971776 0.215723
vt 0.971776 0.001554
vt 0.983509 0.001554
s 1
usemtl Diffuse_Chair
f 308/475/163 309/476/164 306/477/165 305/478/166
f 305/479/166 306/480/165 312/481/167 307/482/168
f 307/483/168 310/484/169 308/485/163 305/486/166
f 310/487/169 311/488/170 309/489/164 308/490/163
f 307/483/168 312/491/167 311/492/170 310/484/169
f 311/492/170 312/491/167 306/477/165 309/476/164
f 321/493/171 330/494/172 325/495/173 318/496/174
f 313/497/175 314/498/176 322/499/177 317/500/178
f 330/501/172 329/502/179 331/503/180 332/504/181
f 316/505/182 315/506/183 326/507/184 329/508/179
f 316/509/182 314/510/176 313/511/175 315/512/183
f 317/500/178 322/499/177 324/513/185 319/514/186
f 319/514/186 324/513/185 323/515/187 320/516/188
f 320/516/188 323/515/187 321/493/171 318/496/174
f 325/495/173 330/494/172 332/517/181 327/518/189
f 327/518/189 332/517/181 331/519/180 328/520/190
f 328/520/190 331/519/180 329/508/179 326/507/184
f 326/521/184 325/522/173 327/523/189 328/524/190
f 319/525/186 320/526/188 318/527/174 317/528/178
f 313/511/175 317/528/178 326/521/184 315/512/183
f 317/528/178 318/527/174 325/522/173 326/521/184
f 322/529/177 329/502/179 330/501/172 321/530/171
f 314/531/176 316/532/182 329/502/179 322/529/177
f 324/533/185 322/529/177 321/530/171 323/534/187
f 333/535/191 334/536/192 337/537/193
f 335/538/194 348/539/195 334/536/192 333/535/191
f 335/540/194 333/541/191 336/542/196 354/543/197
f 336/544/196 333/535/191 337/537/193
f 337/537/193 338/545/198 342/546/199
f 343/547/200 338/545/198 337/537/193
f 339/548/201 337/537/193 341/549/202
f 340/550/203 337/537/193 339/548/201
f 340/550/203 336/544/196 337/537/193
f 341/549/202 337/537/193 342/546/199
f 334/536/192 343/547/200 337/537/193
f 345/551/204 343/552/200 344/553/205 347/554/206
f 334/536/192 357/555/207 344/556/205 343/547/200
f 346/557/208 338/558/198 343/552/200 345/551/204
f 345/551/204 349/559/209 346/557/208
f 355/560/210 348/539/195 345/551/204 347/554/206
f 345/551/204 348/539/195 349/559/209
f 349/559/209 350/561/211 346/557/208
f 348/539/195 335/538/194 349/559/209
f 335/538/194 354/562/197 349/559/209
f 349/559/209 351/563/212 350/561/211
f 349/559/209 352/564/213 351/563/212
f 349/559/209 353/565/214 352/564/213
f 354/562/197 353/565/214 349/559/209
f 354/543/197 336/542/196 340/566/203 353/567/214
f 353/567/214 340/566/203 339/568/201 352/569/213
f 352/569/213 339/568/201 341/570/202 351/571/212
f 351/571/212 341/570/202 342/572/199 350/573/211
f 350/573/211 342/572/199 338/574/198 346/575/208
f 348/539/195 355/560/210 357/555/207 334/536/192
f 355/560/210 356/576/215 358/577/216 357/555/207
f 356/576/215 355/560/210 347/554/206 362/578/217
f 357/555/207 358/577/216 360/579/218 344/556/205
f 356/576/215 365/580/219 359/581/220 358/577/216
f 358/577/216 359/581/220 361/582/221 360/579/218
f 347/554/206 344/553/205 360/583/218 362/578/217
f 362/578/217 360/583/218 361/584/221 363/585/222
f 365/580/219 356/576/215 362/578/217 363/585/222
f 363/585/222 361/584/221 369/586/223 364/587/224
f 366/588/225 365/580/219 363/585/222 364/587/224
f 359/581/220 365/580/219 366/588/225 368/589/226
f 368/589/226 366/588/225 367/590/227 370/591/228
f 367/590/227 366/588/225 364/587/224 379/592/229
f 359/581/220 368/589/226 369/593/223 361/582/221
f 368/589/226 370/591/228 371/594/230 369/593/223
f 370/591/228 372/595/231 375/596/232 371/594/230
f 370/591/228 367/590/227 374/597/233 372/595/231
f 375/598/232 372/599/231 373/600/234 376/601/235
f 372/599/231 374/602/233 380/603/236 373/600/234
f 376/601/235 378/604/237 377/605/238 375/598/232
f 379/592/229 371/606/230 375/607/232 377/608/238
f 374/602/233 377/605/238 378/604/237 380/603/236
f 374/597/233 367/590/227 379/592/229 377/608/238
f 364/587/224 369/586/223 371/606/230 379/592/229
f 373/609/234 380/610/236 378/611/237 376/612/235
f 381/613/239 382/614/240 385/615/209
f 381/613/239 384/616/241 396/617/242 382/614/240
f 381/613/239 385/615/209 383/618/243
f 381/619/239 383/620/243 402/621/244 384/622/241
f 391/623/245 386/624/246 385/615/209
f 385/615/209 386/624/246 390/625/247
f 383/618/243 385/615/209 387/626/248
f 387/626/248 385/615/209 388/627/249
f 388/627/249 385/615/209 389/628/250
f 389/628/250 385/615/209 390/625/247
f 382/614/240 391/623/245 385/615/209
f 386/624/246 391/623/245 393/629/251 395/630/252
f 405/631/253 392/632/254 391/623/245 382/614/240
f 391/623/245 392/632/254 394/633/255 393/629/251
f 396/617/242 393/634/251 394/635/255 403/636/256
f 393/634/251 397/637/193 395/638/252
f 393/634/251 396/617/242 397/637/193
f 397/637/193 398/639/257 395/638/252
f 396/617/242 384/616/241 397/637/193
f 384/616/241 402/640/244 397/637/193
f 397/637/193 399/641/258 398/639/257
f 397/637/193 400/642/259 399/641/258
f 397/637/193 401/643/260 400/642/259
f 402/640/244 401/643/260 397/637/193
f 383/620/243 387/644/248 401/645/260 402/621/244
f 387/644/248 388/646/249 400/647/259 401/645/260
f 388/646/249 389/648/250 399/649/258 400/647/259
f 389/648/250 390/650/247 398/651/257 399/649/258
f 390/650/247 386/652/246 395/653/252 398/651/257
f 382/614/240 396/617/242 403/636/256 405/631/253
f 405/631/253 403/636/256 404/654/261 406/655/262
f 403/636/256 394/635/255 410/656/263 404/654/261
f 406/655/262 408/657/264 392/632/254 405/631/253
f 406/655/262 404/654/261 412/658/265 407/659/266
f 407/659/266 409/660/267 408/657/264 406/655/262
f 408/657/264 409/660/267 411/661/268 410/662/263
f 392/632/254 408/657/264 410/662/263 394/633/255
f 404/654/261 410/656/263 411/663/268 412/658/265
f 412/658/265 411/663/268 413/664/269 414/665/270
f 409/660/267 415/666/271 413/667/269 411/661/268
f 414/665/270 413/664/269 416/668/272 417/669/273
f 415/666/271 418/670/274 416/671/272 413/667/269
f 417/669/273 416/668/272 419/672/275 422/673/276
f 418/670/274 421/674/277 419/675/275 416/671/272
f 420/676/278 423/677/279 422/678/276 419/679/275
f 419/679/275 421/680/277 428/681/280 420/676/278
f 423/677/279 425/682/281 424/683/282 422/678/276
f 417/669/273 422/673/276 424/684/282 426/685/283
f 425/682/281 428/681/280 421/680/277 424/683/282
f 424/684/282 421/674/277 418/670/274 426/685/283
f 414/665/270 417/669/273 426/685/283 427/686/284
f 426/685/283 418/670/274 415/666/271 427/686/284
f 412/658/265 414/665/270 427/686/284 407/659/266
f 427/686/284 415/666/271 409/660/267 407/659/266
f 423/687/279 420/688/278 428/689/280 425/690/281
f 429/691/285 430/692/286 435/693/287 432/694/288
f 429/695/285 431/696/289 438/697/290 430/698/286
f 432/699/288 434/700/291 431/701/289 429/702/285
f 432/694/288 435/693/287 436/703/287 433/704/288
f 433/705/288 441/706/292 434/700/291 432/699/288
f 430/692/286 438/707/290 437/708/293 435/693/287
f 435/693/287 437/708/293 439/709/294 436/703/287
f 431/701/289 434/700/291 437/708/293 438/707/290
f 434/700/291 441/706/292 439/709/294 437/708/293
f 441/706/292 442/710/295 440/711/296 439/709/294
f 436/703/287 439/709/294 440/711/296 451/712/297
f 443/713/298 442/710/295 441/706/292 433/705/288
f 447/714/299 444/715/300 442/710/295 443/713/298
f 442/710/295 444/715/300 446/716/301 440/711/296
f 444/717/300 447/718/299 448/719/302 445/720/303
f 445/720/303 452/721/304 446/722/301 444/717/300
f 447/718/299 449/723/305 450/724/306 448/719/302
f 443/725/298 451/712/297 449/726/305 447/727/299
f 449/723/305 446/722/301 452/721/304 450/724/306
f 451/712/297 440/711/296 446/716/301 449/726/305
f 433/704/288 436/703/287 451/712/297 443/725/298
f 450/728/306 452/729/304 445/730/303 448/731/302
f 453/732/307 456/733/308 459/734/309 454/735/310
f 453/736/307 454/737/310 462/738/311 455/739/312
f 456/740/308 453/741/307 455/742/312 458/743/313
f 456/733/308 457/744/308 460/745/309 459/734/309
f 457/746/308 456/740/308 458/743/313 465/747/314
f 454/735/310 459/734/309 461/748/315 462/749/311
f 459/734/309 460/745/309 463/750/316 461/748/315
f 455/742/312 462/749/311 461/748/315 458/743/313
f 458/743/313 461/748/315 463/750/316 465/747/314
f 465/747/314 463/750/316 464/751/317 466/752/318
f 460/745/309 475/753/319 464/751/317 463/750/316
f 467/754/320 457/746/308 465/747/314 466/752/318
f 471/755/321 467/754/320 466/752/318 468/756/322
f 466/752/318 464/751/317 470/757/323 468/756/322
f 469/758/324 472/759/325 471/760/321 468/761/322
f 468/761/322 470/762/323 476/763/326 469/758/324
f 472/759/325 474/764/327 473/765/328 471/760/321
f 467/766/320 471/767/321 473/768/328 475/753/319
f 474/764/327 476/763/326 470/762/323 473/765/328
f 475/753/319 473/768/328 470/757/323 464/751/317
f 457/744/308 467/766/320 475/753/319 460/745/309
f 474/769/327 472/770/325 469/771/324 476/772/326
f 480/773/329 481/774/330 478/775/331 477/776/332
f 477/777/332 478/778/331 484/779/333 479/780/334
f 479/780/334 482/781/335 480/782/329 477/777/332
f 482/783/335 483/784/336 481/785/330 480/786/329
f 479/787/334 484/788/333 483/789/336 482/790/335
f 483/784/336 484/779/333 478/778/331 481/785/330
f 488/791/337 485/792/338 486/793/339 489/794/340
f 485/795/338 487/796/341 492/797/342 486/798/339
f 487/796/341 485/795/338 488/799/337 490/800/343
f 490/801/343 488/802/337 489/803/340 491/804/344
f 487/805/341 490/806/343 491/807/344 492/808/342
f 491/804/344 489/803/340 486/798/339 492/797/342
f 496/809/345 497/810/346 494/811/347 493/812/348
f 493/813/348 494/814/347 500/815/349 495/816/350
f 495/817/350 498/818/351 496/809/345 493/812/348
f 498/819/351 499/820/352 497/821/346 496/822/345
f 495/817/350 500/823/349 499/824/352 498/818/351
f 499/825/352 500/826/349 494/811/347 497/810/346
f 504/827/353 506/828/354 502/829/355 501/830/356
f 501/830/356 502/829/355 517/831/357 503/832/358
f 503/833/358 505/834/359 504/835/353 501/836/356
f 505/834/359 511/837/359 508/838/360 504/835/353
f 506/828/354 504/827/353 507/839/361 521/840/362
f 504/835/353 508/838/360 510/841/363 507/842/361
f 512/843/359 509/844/360 508/838/360 511/837/359
f 509/844/360 523/845/364 510/841/363 508/838/360
f 514/846/365 512/843/359 511/837/359 513/847/365
f 505/834/359 516/848/365 513/847/365 511/837/359
f 513/847/365 515/849/366 518/850/366 514/846/365
f 513/847/365 516/848/365 506/851/354 515/849/366
f 503/833/358 517/852/357 516/848/365 505/834/359
f 516/848/365 517/852/357 502/853/355 506/851/354
f 515/849/366 519/854/367 520/855/368 518/850/366
f 515/849/366 506/851/354 521/856/362 519/854/367
f 519/857/367 510/858/363 523/859/364 520/860/368
f 510/858/363 519/857/367 521/840/362 507/839/361
f 518/850/366 520/855/368 522/861/369 534/862/366
f 520/860/368 523/859/364 524/863/370 522/864/369
f 525/865/360 524/866/370 523/845/364 509/844/360
f 525/865/360 528/867/371 526/868/372 524/866/370
f 526/869/372 527/870/373 522/864/369 524/863/370
f 528/871/371 531/872/374 527/870/373 526/869/372
f 529/873/375 532/874/376 531/872/374 528/871/371
f 530/875/359 538/876/377 529/877/375 528/867/371
f 536/878/359 530/875/359 528/867/371 525/865/360
f 537/879/378 533/880/365 531/881/374 532/882/376
f 533/880/365 535/883/365 534/862/366 531/881/374
f 531/881/374 534/862/366 522/861/369 527/884/373
f 514/846/365 518/850/366 534/862/366 535/883/365
f 535/883/365 536/878/359 512/843/359 514/846/365
f 536/878/359 535/883/365 533/880/365 530/875/359
f 536/878/359 525/865/360 509/844/360 512/843/359
f 530/875/359 533/880/365 537/879/378 538/876/377
f 538/885/377 537/886/378 532/874/376 529/873/375
f 542/887/379 539/888/380 540/889/381 543/890/382
f 539/891/380 541/892/383 546/893/384 540/894/381
f 541/892/383 539/891/380 542/895/379 544/896/385
f 544/897/385 542/898/379 543/899/382 545/900/386
f 541/901/383 544/902/385 545/903/386 546/904/384
f 545/900/386 543/899/382 540/894/381 546/893/384
f 550/905/380 551/906/381 548/907/382 547/908/379
f 547/909/379 548/910/382 554/911/386 549/912/385
f 549/912/385 552/913/383 550/914/380 547/909/379
f 552/915/383 553/916/384 551/917/381 550/918/380
f 549/919/385 554/920/386 553/921/384 552/922/383
f 553/916/384 554/911/386 548/910/382 551/917/381
f 555/923/387 556/924/388 560/925/389 558/926/390
f 555/927/387 557/928/391 565/929/392 556/930/388
f 558/931/390 561/932/393 557/928/391 555/927/387
f 559/933/394 562/934/395 561/932/393 558/931/390
f 566/935/396 559/936/394 558/926/390 560/925/389
f 563/937/397 561/938/393 562/939/395 564/940/398
f 557/941/391 561/938/393 563/937/397 565/942/392
f 560/943/389 563/944/397 564/945/398 566/946/396
f 556/947/388 565/948/392 563/944/397 560/943/389
f 562/939/395 568/949/399 567/950/400 564/940/398
f 566/946/396 564/945/398 567/951/400 569/952/401
f 568/949/399 572/953/402 570/954/403 567/950/400
f 569/952/401 567/951/400 570/955/403 573/956/404
f 573/956/404 570/955/403 571/957/405 574/958/406
f 570/954/403 572/953/402 578/959/407 571/960/405
f 574/961/406 576/962/408 575/963/409 573/964/404
f 577/965/410 569/966/401 573/964/404 575/963/409
f 576/967/408 578/968/407 572/969/402 575/970/409
f 575/970/409 572/969/402 568/971/399 577/972/410
f 559/936/394 566/935/396 569/966/401 577/965/410
f 577/972/410 568/971/399 562/934/395 559/933/394
f 576/962/408 574/961/406 581/973/411 579/974/412
f 579/975/412 582/976/413 578/968/407 576/967/408
f 580/977/414 584/978/415 582/976/413 579/975/412
f 593/979/416 580/980/414 579/974/412 581/973/411
f 583/981/417 582/982/413 584/983/415 585/984/418
f 578/959/407 582/982/413 583/981/417 571/960/405
f 584/983/415 586/985/419 589/986/420 585/984/418
f 588/987/421 586/988/419 584/978/415 580/977/414
f 589/986/420 586/985/419 587/989/422 590/990/423
f 594/991/424 587/992/422 586/988/419 588/987/421
f 591/993/425 589/994/420 590/995/423 592/996/426
f 593/997/416 585/998/418 589/994/420 591/993/425
f 592/999/426 594/1000/424 588/1001/421 591/1002/425
f 580/980/414 593/979/416 591/1002/425 588/1001/421
f 581/1003/411 583/1004/417 585/998/418 593/997/416
f 594/1000/424 592/999/426 595/1005/427 597/1006/428
f 592/996/426 590/995/423 598/1007/429 595/1008/427
f 599/1009/430 596/1010/431 595/1008/427 598/1007/429
f 596/1011/431 602/1012/432 597/1006/428 595/1005/427
f 598/1013/429 600/1014/433 601/1015/434 599/1016/430
f 587/989/422 600/1014/433 598/1013/429 590/990/423
f 600/1017/433 597/1018/428 602/1019/432 601/1020/434
f 597/1018/428 600/1017/433 587/992/422 594/991/424
f 601/1015/434 603/1021/435 606/1022/436 599/1016/430
f 605/1023/437 603/1024/435 601/1020/434 602/1019/432
f 606/1022/436 603/1021/435 604/1025/438 607/1026/439
f 610/1027/440 604/1028/438 603/1024/435 605/1023/437
f 608/1029/441 606/1030/436 607/1031/439 609/1032/442
f 596/1010/431 599/1009/430 606/1030/436 608/1029/441
f 609/1033/442 610/1034/440 605/1035/437 608/1036/441
f 602/1012/432 596/1011/431 608/1036/441 605/1035/437
f 610/1034/440 609/1033/442 611/1037/443 613/1038/444
f 609/1032/442 607/1031/439 614/1039/445 611/1040/443
f 611/1040/443 614/1039/445 615/1041/446 612/1042/447
f 612/1043/447 618/1044/448 613/1038/444 611/1037/443
f 614/1045/445 616/1046/449 617/1047/450 615/1048/446
f 604/1025/438 616/1046/449 614/1045/445 607/1026/439
f 618/1049/448 617/1050/450 616/1051/449 613/1052/444
f 613/1052/444 616/1051/449 604/1028/438 610/1027/440
f 617/1047/450 619/1053/451 621/1054/452 615/1048/446
f 620/1055/453 619/1056/451 617/1050/450 618/1049/448
f 622/1057/454 621/1058/452 619/1056/451 620/1055/453
f 612/1042/447 615/1041/446 621/1058/452 622/1057/454
f 618/1044/448 612/1043/447 622/1059/454 620/1060/453
f 574/958/406 571/957/405 583/1004/417 581/1003/411
f 626/1061/455 627/1062/456 624/1063/457 623/1064/458
f 623/1065/458 624/1066/457 630/1067/459 625/1068/460
f 625/1069/460 628/1070/461 626/1061/455 623/1064/458
f 628/1071/461 629/1072/462 627/1073/456 626/1074/455
f 625/1069/460 630/1075/459 629/1076/462 628/1070/461
f 629/1076/462 630/1075/459 624/1077/457 627/1078/456
f 634/1079/455 635/1080/456 632/1081/457 631/1082/458
f 631/1083/458 632/1084/457 638/1085/459 633/1086/460
f 633/1087/460 636/1088/461 634/1079/455 631/1082/458
f 636/1089/461 637/1090/462 635/1091/456 634/1092/455
f 633/1087/460 638/1093/459 637/1094/462 636/1088/461
f 637/1095/462 638/1096/459 632/1081/457 635/1080/456
f 642/1097/463 643/1098/464 640/1099/465 639/1100/466
f 639/1101/466 640/1102/465 646/1103/467 641/1104/468
f 641/1105/468 644/1106/469 642/1107/463 639/1108/466
f 644/1106/469 645/1109/470 643/1110/464 642/1107/463
f 641/1111/468 646/1112/467 645/1113/470 644/1114/469
f 645/1109/470 646/1103/467 640/1102/465 643/1110/464
f 650/1115/471 647/1116/472 648/1117/473 651/1118/474
f 647/1119/472 649/1120/475 654/1121/476 648/1122/473
f 649/1123/475 647/1124/472 650/1125/471 652/1126/477
f 652/1126/477 650/1125/471 651/1127/474 653/1128/478
f 649/1129/475 652/1130/477 653/1131/478 654/1132/476
f 653/1128/478 651/1127/474 648/1122/473 654/1121/476
f 655/1133/479 656/1134/480 661/1135/481 658/1136/482
f 656/1134/480 655/1133/479 657/1137/483 665/1138/484
f 658/1136/482 660/1139/485 657/1140/483 655/1133/479
f 659/1141/486 666/1142/487 660/1143/485 658/1136/482
f 658/1136/482 661/1135/481 662/1144/488 659/1141/486
f 661/1135/481 663/1145/489 664/1146/490 662/1144/488
f 661/1135/481 656/1134/480 665/1147/484 663/1148/489
f 660/1149/485 666/1150/487 664/1151/490 663/1152/489
f 657/1153/483 660/1149/485 663/1152/489 665/1154/484
f 666/1150/487 659/1155/486 662/1156/488 664/1151/490
f 667/1157/491 670/1158/492 671/1159/493 668/1160/494
f 668/1160/494 674/1161/495 669/1162/496 667/1157/491
f 669/1162/496 672/1163/497 670/1164/492 667/1157/491
f 670/1165/492 672/1166/497 673/1167/498 671/1168/493
f 669/1162/496 674/1161/495 673/1169/498 672/1170/497
f 674/1161/495 668/1160/494 671/1168/493 673/1167/498
f 675/1171/499 678/1172/500 679/1173/501 676/1174/502
f 676/1174/502 682/1175/503 677/1176/504 675/1171/499
f 677/1176/504 680/1177/505 678/1178/500 675/1171/499
f 678/1179/500 680/1180/505 681/1181/506 679/1182/501
f 680/1183/505 677/1176/504 682/1175/503 681/1184/506
f 681/1181/506 682/1175/503 676/1174/502 679/1182/501
f 683/1185/507 686/1186/508 687/1187/509 684/1188/510
f 684/1188/510 690/1189/511 685/1190/512 683/1185/507
f 688/1191/513 686/1192/508 683/1185/507 685/1190/512
f 686/1193/508 688/1194/513 689/1195/514 687/1196/509
f 688/1197/513 685/1190/512 690/1189/511 689/1198/514
f 689/1195/514 690/1189/511 684/1188/510 687/1196/509
f 691/1199/515 694/1200/516 695/1201/517 692/1202/518
f 692/1202/518 698/1203/519 693/1204/520 691/1199/515
f 696/1205/521 694/1206/516 691/1199/515 693/1204/520
f 694/1207/516 696/1208/521 697/1209/522 695/1210/517
f 696/1211/521 693/1204/520 698/1203/519 697/1212/522
f 697/1209/522 698/1203/519 692/1202/518 695/1210/517
f 704/1213/523 700/1214/524 699/1215/525 702/1216/526
f 699/1215/525 700/1217/524 706/1218/527 701/1219/528
f 702/1216/526 699/1215/525 701/1219/528 703/1220/529
f 702/1216/526 703/1220/529 705/1221/530 704/1222/523
f 705/1223/530 706/1224/527 700/1214/524 704/1213/523
f 703/1220/529 701/1219/528 706/1225/527 705/1226/530
f 710/1227/531 711/1228/532 708/1229/533 707/1230/534
f 707/1231/534 708/1232/533 714/1233/535 709/1234/536
f 709/1235/536 712/1236/537 710/1227/531 707/1230/534
f 712/1237/537 713/1238/538 711/1239/532 710/1240/531
f 709/1241/536 714/1242/535 713/1243/538 712/1244/537
f 713/1243/538 714/1242/535 708/1229/533 711/1228/532
