# Blender 4.5.4 LTS
# www.blender.org
mtllib scene_0003.mtl
o ground_floor
v 0.250000 -0.350000 0.000000
v -0.250000 -0.350000 0.000000
v 0.250000 -0.850000 0.000000
v -0.250000 -0.850000 0.000000
vn -0.0000 -0.0000 1.0000
vt 1.000000 0.000000
vt 0.000000 1.000000
vt 0.000000 0.000000
vt 1.000000 1.000000
s 0
usemtl Diffuse_Floor
f 2/1/1 3/2/1 1/3/1
f 2/1/1 4/4/1 3/2/1
o bg_wall_back
v 0.250000 -0.800000 0.000000
v -0.250000 -0.800000 0.000000
v 0.250000 -0.800000 0.500000
v -0.250000 -0.800000 0.500000
vn -0.0000 1.0000 -0.0000
vt 1.000000 0.000000
vt 0.000000 1.000000
vt 0.000000 0.000000
vt 1.000000 1.000000
s 0
usemtl Diffuse_Wall
f 6/5/2 7/6/2 5/7/2
f 6/5/2 8/8/2 7/6/2
o glass_table_01
v 0.101117 -0.684139 -0.000078
v 0.103142 -0.679927 0.079786
v 0.098954 -0.688637 0.000214
v 0.100979 -0.684425 0.080078
v 0.029018 -0.649473 -0.000078
v 0.031043 -0.645260 0.079786
v 0.026855 -0.653971 0.000214
v 0.028880 -0.649759 0.080078
vn 0.9012 -0.4333 -0.0000
vn -0.4326 -0.8997 0.0584
vn -0.9012 0.4333 -0.0000
vn 0.4326 0.8997 -0.0584
vn -0.0253 -0.0527 -0.9983
vn 0.0253 0.0527 0.9983
vt 0.625000 0.000000
vt 0.375000 0.250000
vt 0.375000 0.000000
vt 0.625000 0.250000
vt 0.375000 0.500000
vt 0.625000 0.500000
vt 0.375000 0.750000
vt 0.625000 0.750000
vt 0.375000 1.000000
vt 0.125000 0.750000
vt 0.125000 0.500000
vt 0.875000 0.500000
vt 0.625000 1.000000
vt 0.875000 0.750000
s 0
usemtl Glass_Clear
f 10/9/3 11/10/3 9/11/3
f 12/12/4 15/13/4 11/10/4
f 16/14/5 13/15/5 15/13/5
f 14/16/6 9/17/6 13/15/6
f 15/13/7 9/18/7 11/19/7
f 12/20/8 14/16/8 16/14/8
f 10/9/3 12/12/3 11/10/3
f 12/12/4 16/14/4 15/13/4
f 16/14/5 14/16/5 13/15/5
f 14/16/6 10/21/6 9/17/6
f 15/13/7 13/15/7 9/18/7
f 12/20/8 10/22/8 14/16/8
o glass_table_02
v 0.051842 -0.631878 0.000172
v 0.050201 -0.635466 0.080075
v 0.049765 -0.636420 -0.000075
v 0.048124 -0.640007 0.079828
v -0.020909 -0.598602 0.000172
v -0.022550 -0.602190 0.080075
v -0.022986 -0.603143 -0.000075
v -0.024627 -0.606731 0.079828
vn 0.9094 -0.4160 -0.0000
vn -0.4154 -0.9083 -0.0493
vn -0.9094 0.4160 -0.0000
vn 0.4154 0.9083 0.0493
vn 0.0205 0.0448 -0.9988
vn -0.0205 -0.0448 0.9988
vt 0.625000 0.000000
vt 0.375000 0.250000
vt 0.375000 0.000000
vt 0.625000 0.250000
vt 0.375000 0.500000
vt 0.625000 0.500000
vt 0.375000 0.750000
vt 0.625000 0.750000
vt 0.375000 1.000000
vt 0.125000 0.750000
vt 0.125000 0.500000
vt 0.875000 0.500000
vt 0.625000 1.000000
vt 0.875000 0.750000
s 0
usemtl Glass_Clear
f 18/23/9 19/24/9 17/25/9
f 20/26/10 23/27/10 19/24/10
f 24/28/11 21/29/11 23/27/11
f 22/30/12 17/31/12 21/29/12
f 23/27/13 17/32/13 19/33/13
f 20/34/14 22/30/14 24/28/14
f 18/23/9 20/26/9 19/24/9
f 20/26/10 24/28/10 23/27/10
f 24/28/11 22/30/11 21/29/11
f 22/30/12 18/35/12 17/31/12
f 23/27/13 21/29/13 17/32/13
f 20/34/14 18/36/14 22/30/14
o glass_partition_03
v -0.044767 -0.631709 0.000117
v -0.044183 -0.633207 0.040084
v -0.042954 -0.636365 -0.000084
v -0.042371 -0.637863 0.039883
v -0.091360 -0.649849 0.000117
v -0.090777 -0.651347 0.040084
v -0.089548 -0.654504 -0.000084
v -0.088964 -0.656002 0.039883
vn 0.9319 0.3628 -0.0000
vn 0.3625 -0.9311 -0.0402
vn -0.9319 -0.3628 -0.0000
vn -0.3625 0.9311 0.0402
vn -0.0146 0.0374 -0.9992
vn 0.0146 -0.0374 0.9992
vt 0.625000 0.000000
vt 0.375000 0.250000
vt 0.375000 0.000000
vt 0.625000 0.250000
vt 0.375000 0.500000
vt 0.625000 0.500000
vt 0.375000 0.750000
vt 0.625000 0.750000
vt 0.375000 1.000000
vt 0.125000 0.750000
vt 0.125000 0.500000
vt 0.875000 0.500000
vt 0.625000 1.000000
vt 0.875000 0.750000
s 0
usemtl Glass_Clear
f 26/37/15 27/38/15 25/39/15
f 28/40/16 31/41/16 27/38/16
f 32/42/17 29/43/17 31/41/17
f 30/44/18 25/45/18 29/43/18
f 31/41/19 25/46/19 27/47/19
f 28/48/20 30/44/20 32/42/20
f 26/37/15 28/40/15 27/38/15
f 28/40/16 32/42/16 31/41/16
f 32/42/17 30/44/17 29/43/17
f 30/44/18 26/49/18 25/45/18
f 31/41/19 29/43/19 25/46/19
f 28/48/20 26/50/20 30/44/20
o diffuse_chair_01
v 0.112382 -0.714913 0.000000
v 0.112382 -0.714913 0.085000
v 0.117096 -0.759666 0.000000
v 0.117096 -0.759666 0.085000
v 0.067630 -0.719628 0.000000
v 0.067630 -0.719628 0.085000
v 0.072344 -0.764380 0.000000
v 0.072344 -0.764380 0.085000
vn 0.9945 0.1048 -0.0000
vn 0.1048 -0.9945 -0.0000
vn -0.9945 -0.1048 -0.0000
vn -0.1048 0.9945 -0.0000
vn -0.0000 -0.0000 -1.0000
vn -0.0000 -0.0000 1.0000
vt 0.625000 0.000000
vt 0.375000 0.250000
vt 0.375000 0.000000
vt 0.625000 0.250000
vt 0.375000 0.500000
vt 0.625000 0.500000
vt 0.375000 0.750000
vt 0.625000 0.750000
vt 0.375000 1.000000
vt 0.125000 0.750000
vt 0.125000 0.500000
vt 0.875000 0.750000
vt 0.625000 1.000000
vt 0.875000 0.500000
s 0
usemtl Mat_chair
f 34/51/21 35/52/21 33/53/21
f 36/54/22 39/55/22 35/52/22
f 40/56/23 37/57/23 39/55/23
f 38/58/24 33/59/24 37/57/24
f 39/55/25 33/60/25 35/61/25
f 40/56/26 34/62/26 38/58/26
f 34/51/21 36/54/21 35/52/21
f 36/54/22 40/56/22 39/55/22
f 40/56/23 38/58/23 37/57/23
f 38/58/24 34/63/24 33/59/24
f 39/55/25 37/57/25 33/60/25
f 40/56/26 36/64/26 34/62/26
o diffuse_chair_02
v -0.012730 -0.709398 0.000000
v -0.012730 -0.709398 0.085000
v -0.014892 -0.754346 0.000000
v -0.014892 -0.754346 0.085000
v -0.057678 -0.707237 0.000000
v -0.057678 -0.707237 0.085000
v -0.059840 -0.752185 0.000000
v -0.059840 -0.752185 0.085000
vn 0.9988 -0.0480 -0.0000
vn -0.0480 -0.9988 -0.0000
vn -0.9988 0.0480 -0.0000
vn 0.0480 0.9988 -0.0000
vn -0.0000 -0.0000 -1.0000
vn -0.0000 -0.0000 1.0000
vt 0.625000 0.000000
vt 0.375000 0.250000
vt 0.375000 0.000000
vt 0.625000 0.250000
vt 0.375000 0.500000
vt 0.625000 0.500000
vt 0.375000 0.750000
vt 0.625000 0.750000
vt 0.375000 1.000000
vt 0.125000 0.500000
vt 0.125000 0.750000
vt 0.875000 0.500000
vt 0.625000 1.000000
vt 0.875000 0.750000
s 0
usemtl Mat_chair
f 42/65/27 43/66/27 41/67/27
f 44/68/28 47/69/28 43/66/28
f 48/70/29 45/71/29 47/69/29
f 46/72/30 41/73/30 45/71/30
f 43/74/31 45/71/31 41/75/31
f 44/76/32 46/72/32 48/70/32
f 42/65/27 44/68/27 43/66/27
f 44/68/28 48/70/28 47/69/28
f 48/70/29 46/72/29 45/71/29
f 46/72/30 42/77/30 41/73/30
f 43/74/31 47/69/31 45/71/31
f 44/76/32 42/78/32 46/72/32
