# Blender 4.5.4 LTS
# www.blender.org
mtllib scene_0004.mtl
o ground_floor
v 0.250000 -0.350000 0.000000
v -0.250000 -0.350000 0.000000
v 0.250000 -0.850000 0.000000
v -0.250000 -0.850000 0.000000
vn -0.0000 -0.0000 1.0000
vt 1.000000 0.000000
vt 0.000000 1.000000
vt 0.000000 0.000000
vt 1.000000 1.000000
s 0
usemtl Diffuse_Floor
f 2/1/1 3/2/1 1/3/1
f 2/1/1 4/4/1 3/2/1
o bg_wall_back
v 0.250000 -0.800000 0.000000
v -0.250000 -0.800000 0.000000
v 0.250000 -0.800000 0.500000
v -0.250000 -0.800000 0.500000
vn -0.0000 1.0000 -0.0000
vt 1.000000 0.000000
vt 0.000000 1.000000
vt 0.000000 0.000000
vt 1.000000 1.000000
s 0
usemtl Diffuse_Wall
f 6/5/2 7/6/2 5/7/2
f 6/5/2 8/8/2 7/6/2
o glass_partition_01
v -0.012820 -0.666280 -0.000060
v -0.013234 -0.665297 0.039926
v -0.010876 -0.670885 0.000074
v -0.011291 -0.669902 0.040060
v -0.058886 -0.685720 -0.000060
v -0.059301 -0.684737 0.039926
v -0.056943 -0.690325 0.000074
v -0.057357 -0.689342 0.040060
vn 0.9213 0.3888 -0.0000
vn 0.3887 -0.9210 0.0267
vn -0.9213 -0.3888 -0.0000
vn -0.3887 0.9210 -0.0267
vn 0.0104 -0.0246 -0.9996
vn -0.0104 0.0246 0.9996
vt 0.625000 0.000000
vt 0.375000 0.250000
vt 0.375000 0.000000
vt 0.625000 0.250000
vt 0.375000 0.500000
vt 0.625000 0.500000
vt 0.375000 0.750000
vt 0.625000 0.750000
vt 0.375000 1.000000
vt 0.125000 0.750000
vt 0.125000 0.500000
vt 0.875000 0.500000
vt 0.625000 1.000000
vt 0.875000 0.750000
s 0
usemtl Glass_Clear
f 10/9/3 11/10/3 9/11/3
f 12/12/4 15/13/4 11/10/4
f 16/14/5 13/15/5 15/13/5
f 14/16/6 9/17/6 13/15/6
f 15/13/7 9/18/7 11/19/7
f 12/20/8 14/16/8 16/14/8
f 10/9/3 12/12/3 11/10/3
f 12/12/4 16/14/4 15/13/4
f 16/14/5 14/16/5 13/15/5
f 14/16/6 10/21/6 9/17/6
f 15/13/7 13/15/7 9/18/7
f 12/20/8 10/22/8 14/16/8
o diffuse_chair_01
v 0.121238 -0.692071 0.000000
v 0.121238 -0.692071 0.085000
v 0.121224 -0.737071 0.000000
v 0.121224 -0.737071 0.085000
v 0.076238 -0.692057 0.000000
v 0.076238 -0.692057 0.085000
v 0.076224 -0.737057 0.000000
v 0.076224 -0.737057 0.085000
vn 1.0000 -0.0003 -0.0000
vn -0.0003 -1.0000 -0.0000
vn -1.0000 0.0003 -0.0000
vn 0.0003 1.0000 -0.0000
vn -0.0000 -0.0000 -1.0000
vn -0.0000 -0.0000 1.0000
vt 0.625000 0.000000
vt 0.375000 0.250000
vt 0.375000 0.000000
vt 0.625000 0.250000
vt 0.375000 0.500000
vt 0.625000 0.500000
vt 0.375000 0.750000
vt 0.625000 0.750000
vt 0.375000 1.000000
vt 0.125000 0.750000
vt 0.125000 0.500000
vt 0.875000 0.750000
vt 0.625000 1.000000
vt 0.875000 0.500000
s 0
usemtl Mat_chair
f 18/23/9 19/24/9 17/25/9
f 20/26/10 23/27/10 19/24/10
f 24/28/11 21/29/11 23/27/11
f 22/30/12 17/31/12 21/29/12
f 23/27/13 17/32/13 19/33/13
f 24/28/14 18/34/14 22/30/14
f 18/23/9 20/26/9 19/24/9
f 20/26/10 24/28/10 23/27/10
f 24/28/11 22/30/11 21/29/11
f 22/30/12 18/35/12 17/31/12
f 23/27/13 21/29/13 17/32/13
f 24/28/14 20/36/14 18/34/14
o diffuse_table_02
v 0.059951 -0.722110 0.000000
v 0.059951 -0.722110 0.045000
v 0.049112 -0.770921 0.000000
v 0.049112 -0.770921 0.045000
v -0.018146 -0.704768 0.000000
v -0.018146 -0.704768 0.045000
v -0.028985 -0.753579 0.000000
v -0.028985 -0.753579 0.045000
vn 0.9762 -0.2168 -0.0000
vn -0.2168 -0.9762 -0.0000
vn -0.9762 0.2168 -0.0000
vn 0.2168 0.9762 -0.0000
vn -0.0000 -0.0000 -1.0000
vn -0.0000 -0.0000 1.0000
vt 0.625000 0.000000
vt 0.375000 0.250000
vt 0.375000 0.000000
vt 0.625000 0.250000
vt 0.375000 0.500000
vt 0.625000 0.500000
vt 0.375000 0.750000
vt 0.625000 0.750000
vt 0.375000 1.000000
vt 0.125000 0.500000
vt 0.125000 0.750000
vt 0.875000 0.500000
vt 0.625000 1.000000
vt 0.875000 0.750000
s 0
usemtl Mat_table
f 26/37/15 27/38/15 25/39/15
f 28/40/16 31/41/16 27/38/16
f 32/42/17 29/43/17 31/41/17
f 30/44/18 25/45/18 29/43/18
f 27/46/19 29/43/19 25/47/19
f 28/48/20 30/44/20 32/42/20
f 26/37/15 28/40/15 27/38/15
f 28/40/16 32/42/16 31/41/16
f 32/42/17 30/44/17 29/43/17
f 30/44/18 26/49/18 25/45/18
f 27/46/19 31/41/19 29/43/19
f 28/48/20 26/50/20 30/44/20
