# Blender 4.5.4 LTS
# www.blender.org
mtllib scene_0002.mtl
o ground_floor
v 0.250000 -0.350000 0.000000
v -0.250000 -0.350000 0.000000
v 0.250000 -0.850000 0.000000
v -0.250000 -0.850000 0.000000
vn -0.0000 -0.0000 1.0000
vt 1.000000 0.000000
vt 0.000000 1.000000
vt 0.000000 0.000000
vt 1.000000 1.000000
s 0
usemtl Diffuse_Floor
f 2/1/1 3/2/1 1/3/1
f 2/1/1 4/4/1 3/2/1
o bg_wall_back
v 0.250000 -0.800000 0.000000
v -0.250000 -0.800000 0.000000
v 0.250000 -0.800000 0.500000
v -0.250000 -0.800000 0.500000
vn -0.0000 1.0000 -0.0000
vt 1.000000 0.000000
vt 0.000000 1.000000
vt 0.000000 0.000000
vt 1.000000 1.000000
s 0
usemtl Diffuse_Wall
f 6/5/2 7/6/2 5/7/2
f 6/5/2 8/8/2 7/6/2
o glass_partition_01
v 0.040976 -0.628389 -0.000111
v 0.041270 -0.626105 0.039823
v 0.040338 -0.633340 0.000177
v 0.040632 -0.631056 0.040111
v -0.008615 -0.622004 -0.000111
v -0.008321 -0.619721 0.039823
v -0.009252 -0.626955 0.000177
v -0.008959 -0.624671 0.040111
vn 0.9918 -0.1277 -0.0000
vn -0.1275 -0.9902 0.0576
vn -0.9918 0.1277 -0.0000
vn 0.1275 0.9902 -0.0576
vn -0.0073 -0.0571 -0.9983
vn 0.0073 0.0571 0.9983
vt 0.625000 0.000000
vt 0.375000 0.250000
vt 0.375000 0.000000
vt 0.625000 0.250000
vt 0.375000 0.500000
vt 0.625000 0.500000
vt 0.375000 0.750000
vt 0.625000 0.750000
vt 0.375000 1.000000
vt 0.125000 0.750000
vt 0.125000 0.500000
vt 0.875000 0.500000
vt 0.625000 1.000000
vt 0.875000 0.750000
s 0
usemtl Glass_Clear
f 10/9/3 11/10/3 9/11/3
f 12/12/4 15/13/4 11/10/4
f 16/14/5 13/15/5 15/13/5
f 14/16/6 9/17/6 13/15/6
f 15/13/7 9/18/7 11/19/7
f 12/20/8 14/16/8 16/14/8
f 10/9/3 12/12/3 11/10/3
f 12/12/4 16/14/4 15/13/4
f 16/14/5 14/16/5 13/15/5
f 14/16/6 10/21/6 9/17/6
f 15/13/7 13/15/7 9/18/7
f 12/20/8 10/22/8 14/16/8
o diffuse_chair_01
v -0.040706 -0.695239 0.000000
v -0.040706 -0.695239 0.085000
v -0.044674 -0.740064 0.000000
v -0.044674 -0.740064 0.085000
v -0.085530 -0.691270 0.000000
v -0.085530 -0.691270 0.085000
v -0.089499 -0.736095 0.000000
v -0.089499 -0.736095 0.085000
vn 0.9961 -0.0882 -0.0000
vn -0.0882 -0.9961 -0.0000
vn -0.9961 0.0882 -0.0000
vn 0.0882 0.9961 -0.0000
vn -0.0000 -0.0000 -1.0000
vn -0.0000 -0.0000 1.0000
vt 0.625000 0.000000
vt 0.375000 0.250000
vt 0.375000 0.000000
vt 0.625000 0.250000
vt 0.375000 0.500000
vt 0.625000 0.500000
vt 0.375000 0.750000
vt 0.625000 0.750000
vt 0.375000 1.000000
vt 0.125000 0.500000
vt 0.125000 0.750000
vt 0.875000 0.500000
vt 0.625000 1.000000
vt 0.875000 0.750000
s 0
usemtl Mat_chair
f 18/23/9 19/24/9 17/25/9
f 20/26/10 23/27/10 19/24/10
f 24/28/11 21/29/11 23/27/11
f 22/30/12 17/31/12 21/29/12
f 19/32/13 21/29/13 17/33/13
f 20/34/14 22/30/14 24/28/14
f 18/23/9 20/26/9 19/24/9
f 20/26/10 24/28/10 23/27/10
f 24/28/11 22/30/11 21/29/11
f 22/30/12 18/35/12 17/31/12
f 19/32/13 23/27/13 21/29/13
f 20/34/14 18/36/14 22/30/14
o diffuse_cabinet_02
v 0.124083 -0.713306 0.000000
v 0.124083 -0.713306 0.090000
v 0.125077 -0.753293 0.000000
v 0.125077 -0.753293 0.090000
v 0.024114 -0.715790 0.000000
v 0.024114 -0.715790 0.090000
v 0.025108 -0.755777 0.000000
v 0.025108 -0.755777 0.090000
vn 0.9997 0.0248 -0.0000
vn 0.0248 -0.9997 -0.0000
vn -0.9997 -0.0248 -0.0000
vn -0.0248 0.9997 -0.0000
vn -0.0000 -0.0000 -1.0000
vn -0.0000 -0.0000 1.0000
vt 0.625000 0.000000
vt 0.375000 0.250000
vt 0.375000 0.000000
vt 0.625000 0.250000
vt 0.375000 0.500000
vt 0.625000 0.500000
vt 0.375000 0.750000
vt 0.625000 0.750000
vt 0.375000 1.000000
vt 0.125000 0.750000
vt 0.125000 0.500000
vt 0.875000 0.750000
vt 0.625000 1.000000
vt 0.875000 0.500000
s 0
usemtl Mat_cabinet
f 26/37/15 27/38/15 25/39/15
f 28/40/16 31/41/16 27/38/16
f 32/42/17 29/43/17 31/41/17
f 30/44/18 25/45/18 29/43/18
f 31/41/19 25/46/19 27/47/19
f 32/42/20 26/48/20 30/44/20
f 26/37/15 28/40/15 27/38/15
f 28/40/16 32/42/16 31/41/16
f 32/42/17 30/44/17 29/43/17
f 30/44/18 26/49/18 25/45/18
f 31/41/19 29/43/19 25/46/19
f 32/42/20 28/50/20 26/48/20
