# Blender 4.5.4 LTS
# www.blender.org
mtllib scene_0001.mtl
o ground_floor
v 0.250000 -0.350000 0.000000
v -0.250000 -0.350000 0.000000
v 0.250000 -0.850000 0.000000
v -0.250000 -0.850000 0.000000
vn -0.0000 -0.0000 1.0000
vt 1.000000 0.000000
vt 0.000000 1.000000
vt 0.000000 0.000000
vt 1.000000 1.000000
s 0
usemtl Diffuse_Floor
f 2/1/1 3/2/1 1/3/1
f 2/1/1 4/4/1 3/2/1
o bg_wall_back
v 0.250000 -0.800000 0.000000
v -0.250000 -0.800000 0.000000
v 0.250000 -0.800000 0.500000
v -0.250000 -0.800000 0.500000
vn -0.0000 1.0000 -0.0000
vt 1.000000 0.000000
vt 0.000000 1.000000
vt 0.000000 0.000000
vt 1.000000 1.000000
s 0
usemtl Diffuse_Wall
f 6/5/2 7/6/2 5/7/2
f 6/5/2 8/8/2 7/6/2
o glass_partition_01
v -0.000518 -0.523884 -0.000075
v -0.000729 -0.522507 0.039901
v 0.000240 -0.528823 0.000099
v 0.000029 -0.527447 0.040075
v -0.049940 -0.531465 -0.000075
v -0.050151 -0.530088 0.039901
v -0.049182 -0.536404 0.000099
v -0.049393 -0.535028 0.040075
vn 0.9884 0.1516 -0.0000
vn 0.1515 -0.9878 0.0348
vn -0.9884 -0.1516 -0.0000
vn -0.1515 0.9878 -0.0348
vn 0.0053 -0.0344 -0.9994
vn -0.0053 0.0344 0.9994
vt 0.625000 0.000000
vt 0.375000 0.250000
vt 0.375000 0.000000
vt 0.625000 0.250000
vt 0.375000 0.500000
vt 0.625000 0.500000
vt 0.375000 0.750000
vt 0.625000 0.750000
vt 0.375000 1.000000
vt 0.125000 0.750000
vt 0.125000 0.500000
vt 0.875000 0.500000
vt 0.625000 1.000000
vt 0.875000 0.750000
s 0
usemtl Glass_Clear
f 10/9/3 11/10/3 9/11/3
f 12/12/4 15/13/4 11/10/4
f 16/14/5 13/15/5 15/13/5
f 14/16/6 9/17/6 13/15/6
f 15/13/7 9/18/7 11/19/7
f 12/20/8 14/16/8 16/14/8
f 10/9/3 12/12/3 11/10/3
f 12/12/4 16/14/4 15/13/4
f 16/14/5 14/16/5 13/15/5
f 14/16/6 10/21/6 9/17/6
f 15/13/7 13/15/7 9/18/7
f 12/20/8 10/22/8 14/16/8
o glass_partition_02
v 0.122456 -0.529499 -0.000139
v 0.122040 -0.526175 0.039720
v 0.123074 -0.534443 0.000280
v 0.122658 -0.531119 0.040139
v 0.072842 -0.535705 -0.000139
v 0.072427 -0.532381 0.039720
v 0.073461 -0.540649 0.000280
v 0.073045 -0.537325 0.040139
vn 0.9923 0.1241 -0.0000
vn 0.1237 -0.9888 0.0837
vn -0.9923 -0.1241 -0.0000
vn -0.1237 0.9888 -0.0837
vn 0.0104 -0.0831 -0.9965
vn -0.0104 0.0831 0.9965
vt 0.625000 0.000000
vt 0.375000 0.250000
vt 0.375000 0.000000
vt 0.625000 0.250000
vt 0.375000 0.500000
vt 0.625000 0.500000
vt 0.375000 0.750000
vt 0.625000 0.750000
vt 0.375000 1.000000
vt 0.125000 0.750000
vt 0.125000 0.500000
vt 0.875000 0.500000
vt 0.625000 1.000000
vt 0.875000 0.750000
s 0
usemtl Glass_Clear
f 18/23/9 19/24/9 17/25/9
f 20/26/10 23/27/10 19/24/10
f 24/28/11 21/29/11 23/27/11
f 22/30/12 17/31/12 21/29/12
f 23/27/13 17/32/13 19/33/13
f 20/34/14 22/30/14 24/28/14
f 18/23/9 20/26/9 19/24/9
f 20/26/10 24/28/10 23/27/10
f 24/28/11 22/30/11 21/29/11
f 22/30/12 18/35/12 17/31/12
f 23/27/13 21/29/13 17/32/13
f 20/34/14 18/36/14 22/30/14
o diffuse_sofa_01
v 0.060610 -0.677580 0.000000
v 0.060610 -0.677580 0.070000
v 0.063672 -0.737502 0.000000
v 0.063672 -0.737502 0.070000
v -0.059233 -0.683704 0.000000
v -0.059233 -0.683704 0.070000
v -0.056172 -0.743625 0.000000
v -0.056172 -0.743625 0.070000
vn 0.9987 0.0510 -0.0000
vn 0.0510 -0.9987 -0.0000
vn -0.9987 -0.0510 -0.0000
vn -0.0510 0.9987 -0.0000
vn -0.0000 -0.0000 -1.0000
vn -0.0000 -0.0000 1.0000
vt 0.625000 0.000000
vt 0.375000 0.250000
vt 0.375000 0.000000
vt 0.625000 0.250000
vt 0.375000 0.500000
vt 0.625000 0.500000
vt 0.375000 0.750000
vt 0.625000 0.750000
vt 0.375000 1.000000
vt 0.125000 0.750000
vt 0.125000 0.500000
vt 0.875000 0.500000
vt 0.625000 1.000000
vt 0.875000 0.750000
s 0
usemtl Mat_sofa
f 26/37/15 27/38/15 25/39/15
f 28/40/16 31/41/16 27/38/16
f 32/42/17 29/43/17 31/41/17
f 30/44/18 25/45/18 29/43/18
f 31/41/19 25/46/19 27/47/19
f 28/48/20 30/44/20 32/42/20
f 26/37/15 28/40/15 27/38/15
f 28/40/16 32/42/16 31/41/16
f 32/42/17 30/44/17 29/43/17
f 30/44/18 26/49/18 25/45/18
f 31/41/19 29/43/19 25/46/19
f 28/48/20 26/50/20 30/44/20
