# Blender 4.5.4 LTS
# www.blender.org
mtllib scene_0005.mtl
o ground_floor
v 0.250000 -0.350000 0.000000
v -0.250000 -0.350000 0.000000
v 0.250000 -0.850000 0.000000
v -0.250000 -0.850000 0.000000
vn -0.0000 -0.0000 1.0000
vt 1.000000 0.000000
vt 0.000000 1.000000
vt 0.000000 0.000000
vt 1.000000 1.000000
s 0
usemtl Diffuse_Floor
f 2/1/1 3/2/1 1/3/1
f 2/1/1 4/4/1 3/2/1
o bg_wall_back
v 0.250000 -0.800000 0.000000
v -0.250000 -0.800000 0.000000
v 0.250000 -0.800000 0.500000
v -0.250000 -0.800000 0.500000
vn -0.0000 1.0000 -0.0000
vt 1.000000 0.000000
vt 0.000000 1.000000
vt 0.000000 0.000000
vt 1.000000 1.000000
s 0
usemtl Diffuse_Wall
f 6/5/2 7/6/2 5/7/2
f 6/5/2 8/8/2 7/6/2
o glass_window_01
v -0.000444 -0.591317 0.000034
v -0.000686 -0.592279 0.080028
v -0.001660 -0.596167 -0.000028
v -0.001902 -0.597128 0.079966
v -0.097442 -0.566997 0.000034
v -0.097683 -0.567958 0.080028
v -0.098658 -0.571846 -0.000028
v -0.098899 -0.572808 0.079966
vn 0.9700 -0.2432 -0.0000
vn -0.2432 -0.9699 -0.0124
vn -0.9700 0.2432 -0.0000
vn 0.2432 0.9699 0.0124
vn 0.0030 0.0120 -0.9999
vn -0.0030 -0.0120 0.9999
vt 0.625000 0.000000
vt 0.375000 0.250000
vt 0.375000 0.000000
vt 0.625000 0.250000
vt 0.375000 0.500000
vt 0.625000 0.500000
vt 0.375000 0.750000
vt 0.625000 0.750000
vt 0.375000 1.000000
vt 0.125000 0.750000
vt 0.125000 0.500000
vt 0.875000 0.500000
vt 0.625000 1.000000
vt 0.875000 0.750000
s 0
usemtl Glass_Clear
f 10/9/3 11/10/3 9/11/3
f 12/12/4 15/13/4 11/10/4
f 16/14/5 13/15/5 15/13/5
f 14/16/6 9/17/6 13/15/6
f 15/13/7 9/18/7 11/19/7
f 12/20/8 14/16/8 16/14/8
f 10/9/3 12/12/3 11/10/3
f 12/12/4 16/14/4 15/13/4
f 16/14/5 14/16/5 13/15/5
f 14/16/6 10/21/6 9/17/6
f 15/13/7 13/15/7 9/18/7
f 12/20/8 10/22/8 14/16/8
o glass_door_02
v 0.097923 -0.704314 -0.000040
v 0.099555 -0.698471 0.149838
v 0.096579 -0.709126 0.000162
v 0.098211 -0.703283 0.150040
v 0.011239 -0.680107 -0.000040
v 0.012871 -0.674265 0.149838
v 0.009896 -0.684919 0.000162
v 0.011527 -0.679076 0.150040
vn 0.9632 -0.2690 -0.0000
vn -0.2687 -0.9624 0.0404
vn -0.9632 0.2690 -0.0000
vn 0.2687 0.9624 -0.0404
vn -0.0109 -0.0390 -0.9992
vn 0.0109 0.0390 0.9992
vt 0.625000 0.000000
vt 0.375000 0.250000
vt 0.375000 0.000000
vt 0.625000 0.250000
vt 0.375000 0.500000
vt 0.625000 0.500000
vt 0.375000 0.750000
vt 0.625000 0.750000
vt 0.375000 1.000000
vt 0.125000 0.750000
vt 0.125000 0.500000
vt 0.875000 0.500000
vt 0.625000 1.000000
vt 0.875000 0.750000
s 0
usemtl Glass_Clear
f 18/23/9 19/24/9 17/25/9
f 20/26/10 23/27/10 19/24/10
f 24/28/11 21/29/11 23/27/11
f 22/30/12 17/31/12 21/29/12
f 23/27/13 17/32/13 19/33/13
f 20/34/14 22/30/14 24/28/14
f 18/23/9 20/26/9 19/24/9
f 20/26/10 24/28/10 23/27/10
f 24/28/11 22/30/11 21/29/11
f 22/30/12 18/35/12 17/31/12
f 23/27/13 21/29/13 17/32/13
f 20/34/14 18/36/14 22/30/14
o glass_window_03
v 0.098816 -0.687038 -0.000078
v 0.099014 -0.681752 0.079747
v 0.098630 -0.692023 0.000253
v 0.098827 -0.686738 0.080078
v -0.001114 -0.683300 -0.000078
v -0.000916 -0.678014 0.079747
v -0.001300 -0.688285 0.000253
v -0.001103 -0.683000 0.080078
vn 0.9993 -0.0374 -0.0000
vn -0.0373 -0.9971 0.0661
vn -0.9993 0.0374 -0.0000
vn 0.0373 0.9971 -0.0661
vn -0.0025 -0.0661 -0.9978
vn 0.0025 0.0661 0.9978
vt 0.625000 0.000000
vt 0.375000 0.250000
vt 0.375000 0.000000
vt 0.625000 0.250000
vt 0.375000 0.500000
vt 0.625000 0.500000
vt 0.375000 0.750000
vt 0.625000 0.750000
vt 0.375000 1.000000
vt 0.125000 0.750000
vt 0.125000 0.500000
vt 0.875000 0.500000
vt 0.625000 1.000000
vt 0.875000 0.750000
s 0
usemtl Glass_Clear
f 26/37/15 27/38/15 25/39/15
f 28/40/16 31/41/16 27/38/16
f 32/42/17 29/43/17 31/41/17
f 30/44/18 25/45/18 29/43/18
f 31/41/19 25/46/19 27/47/19
f 28/48/20 30/44/20 32/42/20
f 26/37/15 28/40/15 27/38/15
f 28/40/16 32/42/16 31/41/16
f 32/42/17 30/44/17 29/43/17
f 30/44/18 26/49/18 25/45/18
f 31/41/19 29/43/19 25/46/19
f 28/48/20 26/50/20 30/44/20
o diffuse_chair_01
v 0.105694 -0.719435 0.000000
v 0.105694 -0.719435 0.085000
v 0.100695 -0.764157 0.000000
v 0.100695 -0.764157 0.085000
v 0.060972 -0.714437 0.000000
v 0.060972 -0.714437 0.085000
v 0.055973 -0.759158 0.000000
v 0.055973 -0.759158 0.085000
vn 0.9938 -0.1111 -0.0000
vn -0.1111 -0.9938 -0.0000
vn -0.9938 0.1111 -0.0000
vn 0.1111 0.9938 -0.0000
vn -0.0000 -0.0000 -1.0000
vn -0.0000 -0.0000 1.0000
vt 0.625000 0.000000
vt 0.375000 0.250000
vt 0.375000 0.000000
vt 0.625000 0.250000
vt 0.375000 0.500000
vt 0.625000 0.500000
vt 0.375000 0.750000
vt 0.625000 0.750000
vt 0.375000 1.000000
vt 0.125000 0.750000
vt 0.125000 0.500000
vt 0.875000 0.750000
vt 0.625000 1.000000
vt 0.875000 0.500000
s 0
usemtl Mat_chair
f 34/51/21 35/52/21 33/53/21
f 36/54/22 39/55/22 35/52/22
f 40/56/23 37/57/23 39/55/23
f 38/58/24 33/59/24 37/57/24
f 39/55/25 33/60/25 35/61/25
f 40/56/26 34/62/26 38/58/26
f 34/51/21 36/54/21 35/52/21
f 36/54/22 40/56/22 39/55/22
f 40/56/23 38/58/23 37/57/23
f 38/58/24 34/63/24 33/59/24
f 39/55/25 37/57/25 33/60/25
f 40/56/26 36/64/26 34/62/26
o diffuse_table_02
v -0.034993 -0.718289 0.000000
v -0.034993 -0.718289 0.045000
v -0.039365 -0.768097 0.000000
v -0.039365 -0.768097 0.045000
v -0.114686 -0.711293 0.000000
v -0.114686 -0.711293 0.045000
v -0.119058 -0.761102 0.000000
v -0.119058 -0.761102 0.045000
vn 0.9962 -0.0874 -0.0000
vn -0.0874 -0.9962 -0.0000
vn -0.9962 0.0874 -0.0000
vn 0.0874 0.9962 -0.0000
vn -0.0000 -0.0000 -1.0000
vn -0.0000 -0.0000 1.0000
vt 0.625000 0.000000
vt 0.375000 0.250000
vt 0.375000 0.000000
vt 0.625000 0.250000
vt 0.375000 0.500000
vt 0.625000 0.500000
vt 0.375000 0.750000
vt 0.625000 0.750000
vt 0.375000 1.000000
vt 0.125000 0.500000
vt 0.125000 0.750000
vt 0.875000 0.500000
vt 0.625000 1.000000
vt 0.875000 0.750000
s 0
usemtl Mat_table
f 42/65/27 43/66/27 41/67/27
f 44/68/28 47/69/28 43/66/28
f 48/70/29 45/71/29 47/69/29
f 46/72/30 41/73/30 45/71/30
f 43/74/31 45/71/31 41/75/31
f 44/76/32 46/72/32 48/70/32
f 42/65/27 44/68/27 43/66/27
f 44/68/28 48/70/28 47/69/28
f 48/70/29 46/72/29 45/71/29
f 46/72/30 42/77/30 41/73/30
f 43/74/31 47/69/31 45/71/31
f 44/76/32 42/78/32 46/72/32
