ISO-10303-21;
HEADER;
/* Generated by software containing ST-Developer
 * from STEP Tools, Inc. (www.steptools.com) 
 */
/* OPTION: using custom renumber hook */

FILE_DESCRIPTION(
/* description */ ('STEP AP242 Edition 2',
'CAx-IF Rec.Pracs.---Representation and Presentation of Product Manufa
cturing Information (PMI)---4.0---2014-10-13',
'CAx-IF Rec.Pracs.---3D Tessellated Geometry---0.4---2014-09-14','2;1',
'CAx-IF Rec.Pracs.---User Defined Attributes---1.5---2016-08-15'),
/* implementation_level */ '2;1');

FILE_NAME(
/* name */ '693d18edc2b59a211fab3034',
/* time_stamp */ '2025-12-13T07:42:38Z',
/* author */ (''),
/* organization */ (''),
/* preprocessor_version */ 'ST-DEVELOPER v20',
/* originating_system */ 'ONSHAPE BY PTC INC, 1.208',
/* authorisation */ '  ');

FILE_SCHEMA (('AP242_MANAGED_MODEL_BASED_3D_ENGINEERING_MIM_LF { 1 0 10303 442 3 1 4 }'));
ENDSEC;

DATA;
#10=SHAPE_REPRESENTATION_RELATIONSHIP('','',#1457,#11);
#11=ADVANCED_BREP_SHAPE_REPRESENTATION('',(#1455),#2311);
#12=CYLINDRICAL_SURFACE('',#1502,0.0015);
#13=CYLINDRICAL_SURFACE('',#1503,0.0015);
#14=CYLINDRICAL_SURFACE('',#1504,0.0015);
#15=CYLINDRICAL_SURFACE('',#1505,0.0015);
#16=CYLINDRICAL_SURFACE('',#1538,0.0015);
#17=CYLINDRICAL_SURFACE('',#1539,0.0015);
#18=CYLINDRICAL_SURFACE('',#1540,0.0015);
#19=CYLINDRICAL_SURFACE('',#1541,0.0015);
#20=CIRCLE('',#1462,0.0015);
#21=CIRCLE('',#1463,0.0015);
#22=CIRCLE('',#1464,0.0015);
#23=CIRCLE('',#1465,0.0015);
#24=CIRCLE('',#1466,0.0015);
#25=CIRCLE('',#1467,0.0015);
#26=CIRCLE('',#1468,0.0015);
#27=CIRCLE('',#1469,0.0015);
#28=CIRCLE('',#1477,0.0015);
#29=CIRCLE('',#1485,0.0015);
#30=CIRCLE('',#1493,0.0015);
#31=CIRCLE('',#1501,0.0015);
#32=CIRCLE('',#1513,0.0015);
#33=CIRCLE('',#1521,0.0015);
#34=CIRCLE('',#1529,0.0015);
#35=CIRCLE('',#1537,0.0015);
#36=ORIENTED_EDGE('',*,*,#416,.T.);
#37=ORIENTED_EDGE('',*,*,#417,.T.);
#38=ORIENTED_EDGE('',*,*,#418,.T.);
#39=ORIENTED_EDGE('',*,*,#419,.T.);
#40=ORIENTED_EDGE('',*,*,#420,.T.);
#41=ORIENTED_EDGE('',*,*,#421,.T.);
#42=ORIENTED_EDGE('',*,*,#422,.T.);
#43=ORIENTED_EDGE('',*,*,#423,.T.);
#44=ORIENTED_EDGE('',*,*,#424,.T.);
#45=ORIENTED_EDGE('',*,*,#425,.T.);
#46=ORIENTED_EDGE('',*,*,#426,.T.);
#47=ORIENTED_EDGE('',*,*,#427,.T.);
#48=ORIENTED_EDGE('',*,*,#428,.T.);
#49=ORIENTED_EDGE('',*,*,#429,.T.);
#50=ORIENTED_EDGE('',*,*,#430,.T.);
#51=ORIENTED_EDGE('',*,*,#431,.T.);
#52=ORIENTED_EDGE('',*,*,#432,.T.);
#53=ORIENTED_EDGE('',*,*,#433,.T.);
#54=ORIENTED_EDGE('',*,*,#434,.T.);
#55=ORIENTED_EDGE('',*,*,#435,.T.);
#56=ORIENTED_EDGE('',*,*,#436,.T.);
#57=ORIENTED_EDGE('',*,*,#437,.T.);
#58=ORIENTED_EDGE('',*,*,#438,.T.);
#59=ORIENTED_EDGE('',*,*,#439,.T.);
#60=ORIENTED_EDGE('',*,*,#440,.T.);
#61=ORIENTED_EDGE('',*,*,#441,.T.);
#62=ORIENTED_EDGE('',*,*,#442,.F.);
#63=ORIENTED_EDGE('',*,*,#443,.F.);
#64=ORIENTED_EDGE('',*,*,#444,.T.);
#65=ORIENTED_EDGE('',*,*,#445,.T.);
#66=ORIENTED_EDGE('',*,*,#446,.T.);
#67=ORIENTED_EDGE('',*,*,#447,.T.);
#68=ORIENTED_EDGE('',*,*,#448,.T.);
#69=ORIENTED_EDGE('',*,*,#449,.T.);
#70=ORIENTED_EDGE('',*,*,#450,.T.);
#71=ORIENTED_EDGE('',*,*,#451,.T.);
#72=ORIENTED_EDGE('',*,*,#452,.T.);
#73=ORIENTED_EDGE('',*,*,#453,.T.);
#74=ORIENTED_EDGE('',*,*,#454,.T.);
#75=ORIENTED_EDGE('',*,*,#455,.T.);
#76=ORIENTED_EDGE('',*,*,#456,.T.);
#77=ORIENTED_EDGE('',*,*,#457,.T.);
#78=ORIENTED_EDGE('',*,*,#458,.T.);
#79=ORIENTED_EDGE('',*,*,#459,.T.);
#80=ORIENTED_EDGE('',*,*,#460,.T.);
#81=ORIENTED_EDGE('',*,*,#461,.T.);
#82=ORIENTED_EDGE('',*,*,#462,.T.);
#83=ORIENTED_EDGE('',*,*,#463,.T.);
#84=ORIENTED_EDGE('',*,*,#464,.T.);
#85=ORIENTED_EDGE('',*,*,#465,.T.);
#86=ORIENTED_EDGE('',*,*,#466,.T.);
#87=ORIENTED_EDGE('',*,*,#467,.T.);
#88=ORIENTED_EDGE('',*,*,#440,.F.);
#89=ORIENTED_EDGE('',*,*,#468,.F.);
#90=ORIENTED_EDGE('',*,*,#469,.T.);
#91=ORIENTED_EDGE('',*,*,#470,.T.);
#92=ORIENTED_EDGE('',*,*,#471,.F.);
#93=ORIENTED_EDGE('',*,*,#472,.F.);
#94=ORIENTED_EDGE('',*,*,#469,.F.);
#95=ORIENTED_EDGE('',*,*,#473,.T.);
#96=ORIENTED_EDGE('',*,*,#474,.T.);
#97=ORIENTED_EDGE('',*,*,#475,.T.);
#98=ORIENTED_EDGE('',*,*,#476,.T.);
#99=ORIENTED_EDGE('',*,*,#477,.T.);
#100=ORIENTED_EDGE('',*,*,#478,.T.);
#101=ORIENTED_EDGE('',*,*,#479,.T.);
#102=ORIENTED_EDGE('',*,*,#480,.T.);
#103=ORIENTED_EDGE('',*,*,#481,.T.);
#104=ORIENTED_EDGE('',*,*,#434,.F.);
#105=ORIENTED_EDGE('',*,*,#482,.F.);
#106=ORIENTED_EDGE('',*,*,#483,.T.);
#107=ORIENTED_EDGE('',*,*,#484,.T.);
#108=ORIENTED_EDGE('',*,*,#435,.F.);
#109=ORIENTED_EDGE('',*,*,#484,.F.);
#110=ORIENTED_EDGE('',*,*,#485,.T.);
#111=ORIENTED_EDGE('',*,*,#486,.T.);
#112=ORIENTED_EDGE('',*,*,#436,.F.);
#113=ORIENTED_EDGE('',*,*,#486,.F.);
#114=ORIENTED_EDGE('',*,*,#487,.T.);
#115=ORIENTED_EDGE('',*,*,#488,.T.);
#116=ORIENTED_EDGE('',*,*,#437,.F.);
#117=ORIENTED_EDGE('',*,*,#488,.F.);
#118=ORIENTED_EDGE('',*,*,#489,.T.);
#119=ORIENTED_EDGE('',*,*,#490,.T.);
#120=ORIENTED_EDGE('',*,*,#438,.F.);
#121=ORIENTED_EDGE('',*,*,#490,.F.);
#122=ORIENTED_EDGE('',*,*,#491,.T.);
#123=ORIENTED_EDGE('',*,*,#492,.T.);
#124=ORIENTED_EDGE('',*,*,#439,.F.);
#125=ORIENTED_EDGE('',*,*,#492,.F.);
#126=ORIENTED_EDGE('',*,*,#493,.T.);
#127=ORIENTED_EDGE('',*,*,#482,.T.);
#128=ORIENTED_EDGE('',*,*,#494,.F.);
#129=ORIENTED_EDGE('',*,*,#483,.F.);
#130=ORIENTED_EDGE('',*,*,#493,.F.);
#131=ORIENTED_EDGE('',*,*,#491,.F.);
#132=ORIENTED_EDGE('',*,*,#489,.F.);
#133=ORIENTED_EDGE('',*,*,#487,.F.);
#134=ORIENTED_EDGE('',*,*,#485,.F.);
#135=ORIENTED_EDGE('',*,*,#444,.F.);
#136=ORIENTED_EDGE('',*,*,#495,.F.);
#137=ORIENTED_EDGE('',*,*,#496,.T.);
#138=ORIENTED_EDGE('',*,*,#497,.T.);
#139=ORIENTED_EDGE('',*,*,#445,.F.);
#140=ORIENTED_EDGE('',*,*,#497,.F.);
#141=ORIENTED_EDGE('',*,*,#498,.T.);
#142=ORIENTED_EDGE('',*,*,#499,.T.);
#143=ORIENTED_EDGE('',*,*,#446,.F.);
#144=ORIENTED_EDGE('',*,*,#499,.F.);
#145=ORIENTED_EDGE('',*,*,#500,.T.);
#146=ORIENTED_EDGE('',*,*,#501,.T.);
#147=ORIENTED_EDGE('',*,*,#447,.F.);
#148=ORIENTED_EDGE('',*,*,#501,.F.);
#149=ORIENTED_EDGE('',*,*,#502,.T.);
#150=ORIENTED_EDGE('',*,*,#503,.T.);
#151=ORIENTED_EDGE('',*,*,#448,.F.);
#152=ORIENTED_EDGE('',*,*,#503,.F.);
#153=ORIENTED_EDGE('',*,*,#504,.T.);
#154=ORIENTED_EDGE('',*,*,#505,.T.);
#155=ORIENTED_EDGE('',*,*,#449,.F.);
#156=ORIENTED_EDGE('',*,*,#505,.F.);
#157=ORIENTED_EDGE('',*,*,#506,.T.);
#158=ORIENTED_EDGE('',*,*,#495,.T.);
#159=ORIENTED_EDGE('',*,*,#507,.F.);
#160=ORIENTED_EDGE('',*,*,#496,.F.);
#161=ORIENTED_EDGE('',*,*,#506,.F.);
#162=ORIENTED_EDGE('',*,*,#504,.F.);
#163=ORIENTED_EDGE('',*,*,#502,.F.);
#164=ORIENTED_EDGE('',*,*,#500,.F.);
#165=ORIENTED_EDGE('',*,*,#498,.F.);
#166=ORIENTED_EDGE('',*,*,#428,.F.);
#167=ORIENTED_EDGE('',*,*,#508,.F.);
#168=ORIENTED_EDGE('',*,*,#509,.T.);
#169=ORIENTED_EDGE('',*,*,#510,.T.);
#170=ORIENTED_EDGE('',*,*,#429,.F.);
#171=ORIENTED_EDGE('',*,*,#510,.F.);
#172=ORIENTED_EDGE('',*,*,#511,.T.);
#173=ORIENTED_EDGE('',*,*,#512,.T.);
#174=ORIENTED_EDGE('',*,*,#430,.F.);
#175=ORIENTED_EDGE('',*,*,#512,.F.);
#176=ORIENTED_EDGE('',*,*,#513,.T.);
#177=ORIENTED_EDGE('',*,*,#514,.T.);
#178=ORIENTED_EDGE('',*,*,#431,.F.);
#179=ORIENTED_EDGE('',*,*,#514,.F.);
#180=ORIENTED_EDGE('',*,*,#515,.T.);
#181=ORIENTED_EDGE('',*,*,#516,.T.);
#182=ORIENTED_EDGE('',*,*,#432,.F.);
#183=ORIENTED_EDGE('',*,*,#516,.F.);
#184=ORIENTED_EDGE('',*,*,#517,.T.);
#185=ORIENTED_EDGE('',*,*,#518,.T.);
#186=ORIENTED_EDGE('',*,*,#433,.F.);
#187=ORIENTED_EDGE('',*,*,#518,.F.);
#188=ORIENTED_EDGE('',*,*,#519,.T.);
#189=ORIENTED_EDGE('',*,*,#508,.T.);
#190=ORIENTED_EDGE('',*,*,#520,.F.);
#191=ORIENTED_EDGE('',*,*,#509,.F.);
#192=ORIENTED_EDGE('',*,*,#519,.F.);
#193=ORIENTED_EDGE('',*,*,#517,.F.);
#194=ORIENTED_EDGE('',*,*,#515,.F.);
#195=ORIENTED_EDGE('',*,*,#513,.F.);
#196=ORIENTED_EDGE('',*,*,#511,.F.);
#197=ORIENTED_EDGE('',*,*,#450,.F.);
#198=ORIENTED_EDGE('',*,*,#521,.F.);
#199=ORIENTED_EDGE('',*,*,#522,.T.);
#200=ORIENTED_EDGE('',*,*,#523,.T.);
#201=ORIENTED_EDGE('',*,*,#451,.F.);
#202=ORIENTED_EDGE('',*,*,#523,.F.);
#203=ORIENTED_EDGE('',*,*,#524,.T.);
#204=ORIENTED_EDGE('',*,*,#525,.T.);
#205=ORIENTED_EDGE('',*,*,#452,.F.);
#206=ORIENTED_EDGE('',*,*,#525,.F.);
#207=ORIENTED_EDGE('',*,*,#526,.T.);
#208=ORIENTED_EDGE('',*,*,#527,.T.);
#209=ORIENTED_EDGE('',*,*,#453,.F.);
#210=ORIENTED_EDGE('',*,*,#527,.F.);
#211=ORIENTED_EDGE('',*,*,#528,.T.);
#212=ORIENTED_EDGE('',*,*,#529,.T.);
#213=ORIENTED_EDGE('',*,*,#454,.F.);
#214=ORIENTED_EDGE('',*,*,#529,.F.);
#215=ORIENTED_EDGE('',*,*,#530,.T.);
#216=ORIENTED_EDGE('',*,*,#531,.T.);
#217=ORIENTED_EDGE('',*,*,#455,.F.);
#218=ORIENTED_EDGE('',*,*,#531,.F.);
#219=ORIENTED_EDGE('',*,*,#532,.T.);
#220=ORIENTED_EDGE('',*,*,#521,.T.);
#221=ORIENTED_EDGE('',*,*,#533,.F.);
#222=ORIENTED_EDGE('',*,*,#522,.F.);
#223=ORIENTED_EDGE('',*,*,#532,.F.);
#224=ORIENTED_EDGE('',*,*,#530,.F.);
#225=ORIENTED_EDGE('',*,*,#528,.F.);
#226=ORIENTED_EDGE('',*,*,#526,.F.);
#227=ORIENTED_EDGE('',*,*,#524,.F.);
#228=ORIENTED_EDGE('',*,*,#480,.F.);
#229=ORIENTED_EDGE('',*,*,#533,.T.);
#230=ORIENTED_EDGE('',*,*,#481,.F.);
#231=ORIENTED_EDGE('',*,*,#520,.T.);
#232=ORIENTED_EDGE('',*,*,#479,.F.);
#233=ORIENTED_EDGE('',*,*,#507,.T.);
#234=ORIENTED_EDGE('',*,*,#478,.F.);
#235=ORIENTED_EDGE('',*,*,#494,.T.);
#236=ORIENTED_EDGE('',*,*,#422,.F.);
#237=ORIENTED_EDGE('',*,*,#534,.F.);
#238=ORIENTED_EDGE('',*,*,#535,.T.);
#239=ORIENTED_EDGE('',*,*,#536,.T.);
#240=ORIENTED_EDGE('',*,*,#423,.F.);
#241=ORIENTED_EDGE('',*,*,#536,.F.);
#242=ORIENTED_EDGE('',*,*,#537,.T.);
#243=ORIENTED_EDGE('',*,*,#538,.T.);
#244=ORIENTED_EDGE('',*,*,#424,.F.);
#245=ORIENTED_EDGE('',*,*,#538,.F.);
#246=ORIENTED_EDGE('',*,*,#539,.T.);
#247=ORIENTED_EDGE('',*,*,#540,.T.);
#248=ORIENTED_EDGE('',*,*,#425,.F.);
#249=ORIENTED_EDGE('',*,*,#540,.F.);
#250=ORIENTED_EDGE('',*,*,#541,.T.);
#251=ORIENTED_EDGE('',*,*,#542,.T.);
#252=ORIENTED_EDGE('',*,*,#426,.F.);
#253=ORIENTED_EDGE('',*,*,#542,.F.);
#254=ORIENTED_EDGE('',*,*,#543,.T.);
#255=ORIENTED_EDGE('',*,*,#544,.T.);
#256=ORIENTED_EDGE('',*,*,#427,.F.);
#257=ORIENTED_EDGE('',*,*,#544,.F.);
#258=ORIENTED_EDGE('',*,*,#545,.T.);
#259=ORIENTED_EDGE('',*,*,#534,.T.);
#260=ORIENTED_EDGE('',*,*,#546,.F.);
#261=ORIENTED_EDGE('',*,*,#535,.F.);
#262=ORIENTED_EDGE('',*,*,#545,.F.);
#263=ORIENTED_EDGE('',*,*,#543,.F.);
#264=ORIENTED_EDGE('',*,*,#541,.F.);
#265=ORIENTED_EDGE('',*,*,#539,.F.);
#266=ORIENTED_EDGE('',*,*,#537,.F.);
#267=ORIENTED_EDGE('',*,*,#456,.F.);
#268=ORIENTED_EDGE('',*,*,#547,.F.);
#269=ORIENTED_EDGE('',*,*,#548,.T.);
#270=ORIENTED_EDGE('',*,*,#549,.T.);
#271=ORIENTED_EDGE('',*,*,#457,.F.);
#272=ORIENTED_EDGE('',*,*,#549,.F.);
#273=ORIENTED_EDGE('',*,*,#550,.T.);
#274=ORIENTED_EDGE('',*,*,#551,.T.);
#275=ORIENTED_EDGE('',*,*,#458,.F.);
#276=ORIENTED_EDGE('',*,*,#551,.F.);
#277=ORIENTED_EDGE('',*,*,#552,.T.);
#278=ORIENTED_EDGE('',*,*,#553,.T.);
#279=ORIENTED_EDGE('',*,*,#459,.F.);
#280=ORIENTED_EDGE('',*,*,#553,.F.);
#281=ORIENTED_EDGE('',*,*,#554,.T.);
#282=ORIENTED_EDGE('',*,*,#555,.T.);
#283=ORIENTED_EDGE('',*,*,#460,.F.);
#284=ORIENTED_EDGE('',*,*,#555,.F.);
#285=ORIENTED_EDGE('',*,*,#556,.T.);
#286=ORIENTED_EDGE('',*,*,#557,.T.);
#287=ORIENTED_EDGE('',*,*,#461,.F.);
#288=ORIENTED_EDGE('',*,*,#557,.F.);
#289=ORIENTED_EDGE('',*,*,#558,.T.);
#290=ORIENTED_EDGE('',*,*,#547,.T.);
#291=ORIENTED_EDGE('',*,*,#559,.F.);
#292=ORIENTED_EDGE('',*,*,#548,.F.);
#293=ORIENTED_EDGE('',*,*,#558,.F.);
#294=ORIENTED_EDGE('',*,*,#556,.F.);
#295=ORIENTED_EDGE('',*,*,#554,.F.);
#296=ORIENTED_EDGE('',*,*,#552,.F.);
#297=ORIENTED_EDGE('',*,*,#550,.F.);
#298=ORIENTED_EDGE('',*,*,#416,.F.);
#299=ORIENTED_EDGE('',*,*,#560,.F.);
#300=ORIENTED_EDGE('',*,*,#561,.T.);
#301=ORIENTED_EDGE('',*,*,#562,.T.);
#302=ORIENTED_EDGE('',*,*,#417,.F.);
#303=ORIENTED_EDGE('',*,*,#562,.F.);
#304=ORIENTED_EDGE('',*,*,#563,.T.);
#305=ORIENTED_EDGE('',*,*,#564,.T.);
#306=ORIENTED_EDGE('',*,*,#418,.F.);
#307=ORIENTED_EDGE('',*,*,#564,.F.);
#308=ORIENTED_EDGE('',*,*,#565,.T.);
#309=ORIENTED_EDGE('',*,*,#566,.T.);
#310=ORIENTED_EDGE('',*,*,#419,.F.);
#311=ORIENTED_EDGE('',*,*,#566,.F.);
#312=ORIENTED_EDGE('',*,*,#567,.T.);
#313=ORIENTED_EDGE('',*,*,#568,.T.);
#314=ORIENTED_EDGE('',*,*,#420,.F.);
#315=ORIENTED_EDGE('',*,*,#568,.F.);
#316=ORIENTED_EDGE('',*,*,#569,.T.);
#317=ORIENTED_EDGE('',*,*,#570,.T.);
#318=ORIENTED_EDGE('',*,*,#421,.F.);
#319=ORIENTED_EDGE('',*,*,#570,.F.);
#320=ORIENTED_EDGE('',*,*,#571,.T.);
#321=ORIENTED_EDGE('',*,*,#560,.T.);
#322=ORIENTED_EDGE('',*,*,#572,.F.);
#323=ORIENTED_EDGE('',*,*,#561,.F.);
#324=ORIENTED_EDGE('',*,*,#571,.F.);
#325=ORIENTED_EDGE('',*,*,#569,.F.);
#326=ORIENTED_EDGE('',*,*,#567,.F.);
#327=ORIENTED_EDGE('',*,*,#565,.F.);
#328=ORIENTED_EDGE('',*,*,#563,.F.);
#329=ORIENTED_EDGE('',*,*,#462,.F.);
#330=ORIENTED_EDGE('',*,*,#573,.F.);
#331=ORIENTED_EDGE('',*,*,#574,.T.);
#332=ORIENTED_EDGE('',*,*,#575,.T.);
#333=ORIENTED_EDGE('',*,*,#463,.F.);
#334=ORIENTED_EDGE('',*,*,#575,.F.);
#335=ORIENTED_EDGE('',*,*,#576,.T.);
#336=ORIENTED_EDGE('',*,*,#577,.T.);
#337=ORIENTED_EDGE('',*,*,#464,.F.);
#338=ORIENTED_EDGE('',*,*,#577,.F.);
#339=ORIENTED_EDGE('',*,*,#578,.T.);
#340=ORIENTED_EDGE('',*,*,#579,.T.);
#341=ORIENTED_EDGE('',*,*,#465,.F.);
#342=ORIENTED_EDGE('',*,*,#579,.F.);
#343=ORIENTED_EDGE('',*,*,#580,.T.);
#344=ORIENTED_EDGE('',*,*,#581,.T.);
#345=ORIENTED_EDGE('',*,*,#466,.F.);
#346=ORIENTED_EDGE('',*,*,#581,.F.);
#347=ORIENTED_EDGE('',*,*,#582,.T.);
#348=ORIENTED_EDGE('',*,*,#583,.T.);
#349=ORIENTED_EDGE('',*,*,#467,.F.);
#350=ORIENTED_EDGE('',*,*,#583,.F.);
#351=ORIENTED_EDGE('',*,*,#584,.T.);
#352=ORIENTED_EDGE('',*,*,#573,.T.);
#353=ORIENTED_EDGE('',*,*,#585,.F.);
#354=ORIENTED_EDGE('',*,*,#574,.F.);
#355=ORIENTED_EDGE('',*,*,#584,.F.);
#356=ORIENTED_EDGE('',*,*,#582,.F.);
#357=ORIENTED_EDGE('',*,*,#580,.F.);
#358=ORIENTED_EDGE('',*,*,#578,.F.);
#359=ORIENTED_EDGE('',*,*,#576,.F.);
#360=ORIENTED_EDGE('',*,*,#476,.F.);
#361=ORIENTED_EDGE('',*,*,#585,.T.);
#362=ORIENTED_EDGE('',*,*,#475,.F.);
#363=ORIENTED_EDGE('',*,*,#572,.T.);
#364=ORIENTED_EDGE('',*,*,#477,.F.);
#365=ORIENTED_EDGE('',*,*,#559,.T.);
#366=ORIENTED_EDGE('',*,*,#474,.F.);
#367=ORIENTED_EDGE('',*,*,#546,.T.);
#368=ORIENTED_EDGE('',*,*,#441,.F.);
#369=ORIENTED_EDGE('',*,*,#470,.F.);
#370=ORIENTED_EDGE('',*,*,#472,.T.);
#371=ORIENTED_EDGE('',*,*,#586,.F.);
#372=ORIENTED_EDGE('',*,*,#587,.T.);
#373=ORIENTED_EDGE('',*,*,#588,.T.);
#374=ORIENTED_EDGE('',*,*,#443,.T.);
#375=ORIENTED_EDGE('',*,*,#589,.F.);
#376=ORIENTED_EDGE('',*,*,#590,.F.);
#377=ORIENTED_EDGE('',*,*,#591,.T.);
#378=ORIENTED_EDGE('',*,*,#473,.F.);
#379=ORIENTED_EDGE('',*,*,#468,.T.);
#380=ORIENTED_EDGE('',*,*,#592,.F.);
#381=ORIENTED_EDGE('',*,*,#593,.T.);
#382=ORIENTED_EDGE('',*,*,#594,.T.);
#383=ORIENTED_EDGE('',*,*,#595,.F.);
#384=ORIENTED_EDGE('',*,*,#596,.F.);
#385=ORIENTED_EDGE('',*,*,#589,.T.);
#386=ORIENTED_EDGE('',*,*,#442,.T.);
#387=ORIENTED_EDGE('',*,*,#588,.F.);
#388=ORIENTED_EDGE('',*,*,#471,.T.);
#389=ORIENTED_EDGE('',*,*,#591,.F.);
#390=ORIENTED_EDGE('',*,*,#597,.F.);
#391=ORIENTED_EDGE('',*,*,#586,.T.);
#392=ORIENTED_EDGE('',*,*,#587,.F.);
#393=ORIENTED_EDGE('',*,*,#597,.T.);
#394=ORIENTED_EDGE('',*,*,#590,.T.);
#395=ORIENTED_EDGE('',*,*,#596,.T.);
#396=ORIENTED_EDGE('',*,*,#598,.F.);
#397=ORIENTED_EDGE('',*,*,#599,.T.);
#398=ORIENTED_EDGE('',*,*,#600,.T.);
#399=ORIENTED_EDGE('',*,*,#592,.T.);
#400=ORIENTED_EDGE('',*,*,#593,.F.);
#401=ORIENTED_EDGE('',*,*,#600,.F.);
#402=ORIENTED_EDGE('',*,*,#601,.T.);
#403=ORIENTED_EDGE('',*,*,#602,.T.);
#404=ORIENTED_EDGE('',*,*,#595,.T.);
#405=ORIENTED_EDGE('',*,*,#603,.F.);
#406=ORIENTED_EDGE('',*,*,#604,.F.);
#407=ORIENTED_EDGE('',*,*,#598,.T.);
#408=ORIENTED_EDGE('',*,*,#594,.F.);
#409=ORIENTED_EDGE('',*,*,#602,.F.);
#410=ORIENTED_EDGE('',*,*,#605,.T.);
#411=ORIENTED_EDGE('',*,*,#603,.T.);
#412=ORIENTED_EDGE('',*,*,#601,.F.);
#413=ORIENTED_EDGE('',*,*,#599,.F.);
#414=ORIENTED_EDGE('',*,*,#604,.T.);
#415=ORIENTED_EDGE('',*,*,#605,.F.);
#416=EDGE_CURVE('',#606,#607,#738,.T.);
#417=EDGE_CURVE('',#607,#608,#739,.T.);
#418=EDGE_CURVE('',#608,#609,#740,.T.);
#419=EDGE_CURVE('',#609,#610,#741,.T.);
#420=EDGE_CURVE('',#610,#611,#742,.T.);
#421=EDGE_CURVE('',#611,#606,#743,.T.);
#422=EDGE_CURVE('',#612,#613,#744,.T.);
#423=EDGE_CURVE('',#613,#614,#745,.T.);
#424=EDGE_CURVE('',#614,#615,#746,.T.);
#425=EDGE_CURVE('',#615,#616,#747,.T.);
#426=EDGE_CURVE('',#616,#617,#748,.T.);
#427=EDGE_CURVE('',#617,#612,#749,.T.);
#428=EDGE_CURVE('',#618,#619,#750,.T.);
#429=EDGE_CURVE('',#619,#620,#751,.T.);
#430=EDGE_CURVE('',#620,#621,#752,.T.);
#431=EDGE_CURVE('',#621,#622,#753,.T.);
#432=EDGE_CURVE('',#622,#623,#754,.T.);
#433=EDGE_CURVE('',#623,#618,#755,.T.);
#434=EDGE_CURVE('',#624,#625,#756,.T.);
#435=EDGE_CURVE('',#625,#626,#757,.T.);
#436=EDGE_CURVE('',#626,#627,#758,.T.);
#437=EDGE_CURVE('',#627,#628,#759,.T.);
#438=EDGE_CURVE('',#628,#629,#760,.T.);
#439=EDGE_CURVE('',#629,#624,#761,.T.);
#440=EDGE_CURVE('',#630,#631,#762,.T.);
#441=EDGE_CURVE('',#631,#632,#763,.T.);
#442=EDGE_CURVE('',#633,#632,#764,.T.);
#443=EDGE_CURVE('',#630,#633,#765,.T.);
#444=EDGE_CURVE('',#634,#635,#766,.T.);
#445=EDGE_CURVE('',#635,#636,#767,.T.);
#446=EDGE_CURVE('',#636,#637,#768,.T.);
#447=EDGE_CURVE('',#637,#638,#769,.T.);
#448=EDGE_CURVE('',#638,#639,#770,.T.);
#449=EDGE_CURVE('',#639,#634,#771,.T.);
#450=EDGE_CURVE('',#640,#641,#772,.T.);
#451=EDGE_CURVE('',#641,#642,#773,.T.);
#452=EDGE_CURVE('',#642,#643,#774,.T.);
#453=EDGE_CURVE('',#643,#644,#775,.T.);
#454=EDGE_CURVE('',#644,#645,#776,.T.);
#455=EDGE_CURVE('',#645,#640,#777,.T.);
#456=EDGE_CURVE('',#646,#647,#778,.T.);
#457=EDGE_CURVE('',#647,#648,#779,.T.);
#458=EDGE_CURVE('',#648,#649,#780,.T.);
#459=EDGE_CURVE('',#649,#650,#781,.T.);
#460=EDGE_CURVE('',#650,#651,#782,.T.);
#461=EDGE_CURVE('',#651,#646,#783,.T.);
#462=EDGE_CURVE('',#652,#653,#784,.T.);
#463=EDGE_CURVE('',#653,#654,#785,.T.);
#464=EDGE_CURVE('',#654,#655,#786,.T.);
#465=EDGE_CURVE('',#655,#656,#787,.T.);
#466=EDGE_CURVE('',#656,#657,#788,.T.);
#467=EDGE_CURVE('',#657,#652,#789,.T.);
#468=EDGE_CURVE('',#658,#630,#790,.T.);
#469=EDGE_CURVE('',#658,#659,#791,.T.);
#470=EDGE_CURVE('',#659,#631,#792,.T.);
#471=EDGE_CURVE('',#660,#661,#793,.T.);
#472=EDGE_CURVE('',#659,#660,#794,.T.);
#473=EDGE_CURVE('',#658,#661,#795,.T.);
#474=EDGE_CURVE('',#662,#662,#20,.F.);
#475=EDGE_CURVE('',#663,#663,#21,.F.);
#476=EDGE_CURVE('',#664,#664,#22,.F.);
#477=EDGE_CURVE('',#665,#665,#23,.F.);
#478=EDGE_CURVE('',#666,#666,#24,.F.);
#479=EDGE_CURVE('',#667,#667,#25,.F.);
#480=EDGE_CURVE('',#668,#668,#26,.F.);
#481=EDGE_CURVE('',#669,#669,#27,.F.);
#482=EDGE_CURVE('',#670,#624,#796,.T.);
#483=EDGE_CURVE('',#670,#671,#797,.T.);
#484=EDGE_CURVE('',#671,#625,#798,.T.);
#485=EDGE_CURVE('',#671,#672,#799,.T.);
#486=EDGE_CURVE('',#672,#626,#800,.T.);
#487=EDGE_CURVE('',#672,#673,#801,.T.);
#488=EDGE_CURVE('',#673,#627,#802,.T.);
#489=EDGE_CURVE('',#673,#674,#803,.T.);
#490=EDGE_CURVE('',#674,#628,#804,.T.);
#491=EDGE_CURVE('',#674,#675,#805,.T.);
#492=EDGE_CURVE('',#675,#629,#806,.T.);
#493=EDGE_CURVE('',#675,#670,#807,.T.);
#494=EDGE_CURVE('',#676,#676,#28,.F.);
#495=EDGE_CURVE('',#677,#634,#808,.T.);
#496=EDGE_CURVE('',#677,#678,#809,.T.);
#497=EDGE_CURVE('',#678,#635,#810,.T.);
#498=EDGE_CURVE('',#678,#679,#811,.T.);
#499=EDGE_CURVE('',#679,#636,#812,.T.);
#500=EDGE_CURVE('',#679,#680,#813,.T.);
#501=EDGE_CURVE('',#680,#637,#814,.T.);
#502=EDGE_CURVE('',#680,#681,#815,.T.);
#503=EDGE_CURVE('',#681,#638,#816,.T.);
#504=EDGE_CURVE('',#681,#682,#817,.T.);
#505=EDGE_CURVE('',#682,#639,#818,.T.);
#506=EDGE_CURVE('',#682,#677,#819,.T.);
#507=EDGE_CURVE('',#683,#683,#29,.F.);
#508=EDGE_CURVE('',#684,#618,#820,.T.);
#509=EDGE_CURVE('',#684,#685,#821,.T.);
#510=EDGE_CURVE('',#685,#619,#822,.T.);
#511=EDGE_CURVE('',#685,#686,#823,.T.);
#512=EDGE_CURVE('',#686,#620,#824,.T.);
#513=EDGE_CURVE('',#686,#687,#825,.T.);
#514=EDGE_CURVE('',#687,#621,#826,.T.);
#515=EDGE_CURVE('',#687,#688,#827,.T.);
#516=EDGE_CURVE('',#688,#622,#828,.T.);
#517=EDGE_CURVE('',#688,#689,#829,.T.);
#518=EDGE_CURVE('',#689,#623,#830,.T.);
#519=EDGE_CURVE('',#689,#684,#831,.T.);
#520=EDGE_CURVE('',#690,#690,#30,.F.);
#521=EDGE_CURVE('',#691,#640,#832,.T.);
#522=EDGE_CURVE('',#691,#692,#833,.T.);
#523=EDGE_CURVE('',#692,#641,#834,.T.);
#524=EDGE_CURVE('',#692,#693,#835,.T.);
#525=EDGE_CURVE('',#693,#642,#836,.T.);
#526=EDGE_CURVE('',#693,#694,#837,.T.);
#527=EDGE_CURVE('',#694,#643,#838,.T.);
#528=EDGE_CURVE('',#694,#695,#839,.T.);
#529=EDGE_CURVE('',#695,#644,#840,.T.);
#530=EDGE_CURVE('',#695,#696,#841,.T.);
#531=EDGE_CURVE('',#696,#645,#842,.T.);
#532=EDGE_CURVE('',#696,#691,#843,.T.);
#533=EDGE_CURVE('',#697,#697,#31,.F.);
#534=EDGE_CURVE('',#698,#612,#844,.T.);
#535=EDGE_CURVE('',#698,#699,#845,.T.);
#536=EDGE_CURVE('',#699,#613,#846,.T.);
#537=EDGE_CURVE('',#699,#700,#847,.T.);
#538=EDGE_CURVE('',#700,#614,#848,.T.);
#539=EDGE_CURVE('',#700,#701,#849,.T.);
#540=EDGE_CURVE('',#701,#615,#850,.T.);
#541=EDGE_CURVE('',#701,#702,#851,.T.);
#542=EDGE_CURVE('',#702,#616,#852,.T.);
#543=EDGE_CURVE('',#702,#703,#853,.T.);
#544=EDGE_CURVE('',#703,#617,#854,.T.);
#545=EDGE_CURVE('',#703,#698,#855,.T.);
#546=EDGE_CURVE('',#704,#704,#32,.F.);
#547=EDGE_CURVE('',#705,#646,#856,.T.);
#548=EDGE_CURVE('',#705,#706,#857,.T.);
#549=EDGE_CURVE('',#706,#647,#858,.T.);
#550=EDGE_CURVE('',#706,#707,#859,.T.);
#551=EDGE_CURVE('',#707,#648,#860,.T.);
#552=EDGE_CURVE('',#707,#708,#861,.T.);
#553=EDGE_CURVE('',#708,#649,#862,.T.);
#554=EDGE_CURVE('',#708,#709,#863,.T.);
#555=EDGE_CURVE('',#709,#650,#864,.T.);
#556=EDGE_CURVE('',#709,#710,#865,.T.);
#557=EDGE_CURVE('',#710,#651,#866,.T.);
#558=EDGE_CURVE('',#710,#705,#867,.T.);
#559=EDGE_CURVE('',#711,#711,#33,.F.);
#560=EDGE_CURVE('',#712,#606,#868,.T.);
#561=EDGE_CURVE('',#712,#713,#869,.T.);
#562=EDGE_CURVE('',#713,#607,#870,.T.);
#563=EDGE_CURVE('',#713,#714,#871,.T.);
#564=EDGE_CURVE('',#714,#608,#872,.T.);
#565=EDGE_CURVE('',#714,#715,#873,.T.);
#566=EDGE_CURVE('',#715,#609,#874,.T.);
#567=EDGE_CURVE('',#715,#716,#875,.T.);
#568=EDGE_CURVE('',#716,#610,#876,.T.);
#569=EDGE_CURVE('',#716,#717,#877,.T.);
#570=EDGE_CURVE('',#717,#611,#878,.T.);
#571=EDGE_CURVE('',#717,#712,#879,.T.);
#572=EDGE_CURVE('',#718,#718,#34,.F.);
#573=EDGE_CURVE('',#719,#652,#880,.T.);
#574=EDGE_CURVE('',#719,#720,#881,.T.);
#575=EDGE_CURVE('',#720,#653,#882,.T.);
#576=EDGE_CURVE('',#720,#721,#883,.T.);
#577=EDGE_CURVE('',#721,#654,#884,.T.);
#578=EDGE_CURVE('',#721,#722,#885,.T.);
#579=EDGE_CURVE('',#722,#655,#886,.T.);
#580=EDGE_CURVE('',#722,#723,#887,.T.);
#581=EDGE_CURVE('',#723,#656,#888,.T.);
#582=EDGE_CURVE('',#723,#724,#889,.T.);
#583=EDGE_CURVE('',#724,#657,#890,.T.);
#584=EDGE_CURVE('',#724,#719,#891,.T.);
#585=EDGE_CURVE('',#725,#725,#35,.F.);
#586=EDGE_CURVE('',#726,#660,#892,.T.);
#587=EDGE_CURVE('',#726,#727,#893,.T.);
#588=EDGE_CURVE('',#727,#632,#894,.T.);
#589=EDGE_CURVE('',#728,#633,#895,.T.);
#590=EDGE_CURVE('',#729,#728,#896,.T.);
#591=EDGE_CURVE('',#729,#661,#897,.T.);
#592=EDGE_CURVE('',#730,#727,#898,.T.);
#593=EDGE_CURVE('',#730,#731,#899,.T.);
#594=EDGE_CURVE('',#731,#732,#900,.T.);
#595=EDGE_CURVE('',#733,#732,#901,.T.);
#596=EDGE_CURVE('',#728,#733,#902,.T.);
#597=EDGE_CURVE('',#726,#729,#903,.T.);
#598=EDGE_CURVE('',#734,#733,#904,.T.);
#599=EDGE_CURVE('',#734,#735,#905,.T.);
#600=EDGE_CURVE('',#735,#730,#906,.T.);
#601=EDGE_CURVE('',#735,#736,#907,.T.);
#602=EDGE_CURVE('',#736,#731,#908,.T.);
#603=EDGE_CURVE('',#737,#732,#909,.T.);
#604=EDGE_CURVE('',#734,#737,#910,.T.);
#605=EDGE_CURVE('',#736,#737,#911,.T.);
#606=VERTEX_POINT('',#1914);
#607=VERTEX_POINT('',#1915);
#608=VERTEX_POINT('',#1917);
#609=VERTEX_POINT('',#1919);
#610=VERTEX_POINT('',#1921);
#611=VERTEX_POINT('',#1923);
#612=VERTEX_POINT('',#1926);
#613=VERTEX_POINT('',#1927);
#614=VERTEX_POINT('',#1929);
#615=VERTEX_POINT('',#1931);
#616=VERTEX_POINT('',#1933);
#617=VERTEX_POINT('',#1935);
#618=VERTEX_POINT('',#1938);
#619=VERTEX_POINT('',#1939);
#620=VERTEX_POINT('',#1941);
#621=VERTEX_POINT('',#1943);
#622=VERTEX_POINT('',#1945);
#623=VERTEX_POINT('',#1947);
#624=VERTEX_POINT('',#1950);
#625=VERTEX_POINT('',#1951);
#626=VERTEX_POINT('',#1953);
#627=VERTEX_POINT('',#1955);
#628=VERTEX_POINT('',#1957);
#629=VERTEX_POINT('',#1959);
#630=VERTEX_POINT('',#1962);
#631=VERTEX_POINT('',#1963);
#632=VERTEX_POINT('',#1965);
#633=VERTEX_POINT('',#1967);
#634=VERTEX_POINT('',#1970);
#635=VERTEX_POINT('',#1971);
#636=VERTEX_POINT('',#1973);
#637=VERTEX_POINT('',#1975);
#638=VERTEX_POINT('',#1977);
#639=VERTEX_POINT('',#1979);
#640=VERTEX_POINT('',#1982);
#641=VERTEX_POINT('',#1983);
#642=VERTEX_POINT('',#1985);
#643=VERTEX_POINT('',#1987);
#644=VERTEX_POINT('',#1989);
#645=VERTEX_POINT('',#1991);
#646=VERTEX_POINT('',#1994);
#647=VERTEX_POINT('',#1995);
#648=VERTEX_POINT('',#1997);
#649=VERTEX_POINT('',#1999);
#650=VERTEX_POINT('',#2001);
#651=VERTEX_POINT('',#2003);
#652=VERTEX_POINT('',#2006);
#653=VERTEX_POINT('',#2007);
#654=VERTEX_POINT('',#2009);
#655=VERTEX_POINT('',#2011);
#656=VERTEX_POINT('',#2013);
#657=VERTEX_POINT('',#2015);
#658=VERTEX_POINT('',#2019);
#659=VERTEX_POINT('',#2021);
#660=VERTEX_POINT('',#2025);
#661=VERTEX_POINT('',#2026);
#662=VERTEX_POINT('',#2030);
#663=VERTEX_POINT('',#2032);
#664=VERTEX_POINT('',#2034);
#665=VERTEX_POINT('',#2036);
#666=VERTEX_POINT('',#2038);
#667=VERTEX_POINT('',#2040);
#668=VERTEX_POINT('',#2042);
#669=VERTEX_POINT('',#2044);
#670=VERTEX_POINT('',#2047);
#671=VERTEX_POINT('',#2049);
#672=VERTEX_POINT('',#2053);
#673=VERTEX_POINT('',#2057);
#674=VERTEX_POINT('',#2061);
#675=VERTEX_POINT('',#2065);
#676=VERTEX_POINT('',#2071);
#677=VERTEX_POINT('',#2074);
#678=VERTEX_POINT('',#2076);
#679=VERTEX_POINT('',#2080);
#680=VERTEX_POINT('',#2084);
#681=VERTEX_POINT('',#2088);
#682=VERTEX_POINT('',#2092);
#683=VERTEX_POINT('',#2098);
#684=VERTEX_POINT('',#2101);
#685=VERTEX_POINT('',#2103);
#686=VERTEX_POINT('',#2107);
#687=VERTEX_POINT('',#2111);
#688=VERTEX_POINT('',#2115);
#689=VERTEX_POINT('',#2119);
#690=VERTEX_POINT('',#2125);
#691=VERTEX_POINT('',#2128);
#692=VERTEX_POINT('',#2130);
#693=VERTEX_POINT('',#2134);
#694=VERTEX_POINT('',#2138);
#695=VERTEX_POINT('',#2142);
#696=VERTEX_POINT('',#2146);
#697=VERTEX_POINT('',#2152);
#698=VERTEX_POINT('',#2159);
#699=VERTEX_POINT('',#2161);
#700=VERTEX_POINT('',#2165);
#701=VERTEX_POINT('',#2169);
#702=VERTEX_POINT('',#2173);
#703=VERTEX_POINT('',#2177);
#704=VERTEX_POINT('',#2183);
#705=VERTEX_POINT('',#2186);
#706=VERTEX_POINT('',#2188);
#707=VERTEX_POINT('',#2192);
#708=VERTEX_POINT('',#2196);
#709=VERTEX_POINT('',#2200);
#710=VERTEX_POINT('',#2204);
#711=VERTEX_POINT('',#2210);
#712=VERTEX_POINT('',#2213);
#713=VERTEX_POINT('',#2215);
#714=VERTEX_POINT('',#2219);
#715=VERTEX_POINT('',#2223);
#716=VERTEX_POINT('',#2227);
#717=VERTEX_POINT('',#2231);
#718=VERTEX_POINT('',#2237);
#719=VERTEX_POINT('',#2240);
#720=VERTEX_POINT('',#2242);
#721=VERTEX_POINT('',#2246);
#722=VERTEX_POINT('',#2250);
#723=VERTEX_POINT('',#2254);
#724=VERTEX_POINT('',#2258);
#725=VERTEX_POINT('',#2264);
#726=VERTEX_POINT('',#2271);
#727=VERTEX_POINT('',#2273);
#728=VERTEX_POINT('',#2277);
#729=VERTEX_POINT('',#2279);
#730=VERTEX_POINT('',#2283);
#731=VERTEX_POINT('',#2285);
#732=VERTEX_POINT('',#2287);
#733=VERTEX_POINT('',#2289);
#734=VERTEX_POINT('',#2295);
#735=VERTEX_POINT('',#2297);
#736=VERTEX_POINT('',#2301);
#737=VERTEX_POINT('',#2305);
#738=LINE('',#1913,#912);
#739=LINE('',#1916,#913);
#740=LINE('',#1918,#914);
#741=LINE('',#1920,#915);
#742=LINE('',#1922,#916);
#743=LINE('',#1924,#917);
#744=LINE('',#1925,#918);
#745=LINE('',#1928,#919);
#746=LINE('',#1930,#920);
#747=LINE('',#1932,#921);
#748=LINE('',#1934,#922);
#749=LINE('',#1936,#923);
#750=LINE('',#1937,#924);
#751=LINE('',#1940,#925);
#752=LINE('',#1942,#926);
#753=LINE('',#1944,#927);
#754=LINE('',#1946,#928);
#755=LINE('',#1948,#929);
#756=LINE('',#1949,#930);
#757=LINE('',#1952,#931);
#758=LINE('',#1954,#932);
#759=LINE('',#1956,#933);
#760=LINE('',#1958,#934);
#761=LINE('',#1960,#935);
#762=LINE('',#1961,#936);
#763=LINE('',#1964,#937);
#764=LINE('',#1966,#938);
#765=LINE('',#1968,#939);
#766=LINE('',#1969,#940);
#767=LINE('',#1972,#941);
#768=LINE('',#1974,#942);
#769=LINE('',#1976,#943);
#770=LINE('',#1978,#944);
#771=LINE('',#1980,#945);
#772=LINE('',#1981,#946);
#773=LINE('',#1984,#947);
#774=LINE('',#1986,#948);
#775=LINE('',#1988,#949);
#776=LINE('',#1990,#950);
#777=LINE('',#1992,#951);
#778=LINE('',#1993,#952);
#779=LINE('',#1996,#953);
#780=LINE('',#1998,#954);
#781=LINE('',#2000,#955);
#782=LINE('',#2002,#956);
#783=LINE('',#2004,#957);
#784=LINE('',#2005,#958);
#785=LINE('',#2008,#959);
#786=LINE('',#2010,#960);
#787=LINE('',#2012,#961);
#788=LINE('',#2014,#962);
#789=LINE('',#2016,#963);
#790=LINE('',#2018,#964);
#791=LINE('',#2020,#965);
#792=LINE('',#2022,#966);
#793=LINE('',#2024,#967);
#794=LINE('',#2027,#968);
#795=LINE('',#2028,#969);
#796=LINE('',#2046,#970);
#797=LINE('',#2048,#971);
#798=LINE('',#2050,#972);
#799=LINE('',#2052,#973);
#800=LINE('',#2054,#974);
#801=LINE('',#2056,#975);
#802=LINE('',#2058,#976);
#803=LINE('',#2060,#977);
#804=LINE('',#2062,#978);
#805=LINE('',#2064,#979);
#806=LINE('',#2066,#980);
#807=LINE('',#2068,#981);
#808=LINE('',#2073,#982);
#809=LINE('',#2075,#983);
#810=LINE('',#2077,#984);
#811=LINE('',#2079,#985);
#812=LINE('',#2081,#986);
#813=LINE('',#2083,#987);
#814=LINE('',#2085,#988);
#815=LINE('',#2087,#989);
#816=LINE('',#2089,#990);
#817=LINE('',#2091,#991);
#818=LINE('',#2093,#992);
#819=LINE('',#2095,#993);
#820=LINE('',#2100,#994);
#821=LINE('',#2102,#995);
#822=LINE('',#2104,#996);
#823=LINE('',#2106,#997);
#824=LINE('',#2108,#998);
#825=LINE('',#2110,#999);
#826=LINE('',#2112,#1000);
#827=LINE('',#2114,#1001);
#828=LINE('',#2116,#1002);
#829=LINE('',#2118,#1003);
#830=LINE('',#2120,#1004);
#831=LINE('',#2122,#1005);
#832=LINE('',#2127,#1006);
#833=LINE('',#2129,#1007);
#834=LINE('',#2131,#1008);
#835=LINE('',#2133,#1009);
#836=LINE('',#2135,#1010);
#837=LINE('',#2137,#1011);
#838=LINE('',#2139,#1012);
#839=LINE('',#2141,#1013);
#840=LINE('',#2143,#1014);
#841=LINE('',#2145,#1015);
#842=LINE('',#2147,#1016);
#843=LINE('',#2149,#1017);
#844=LINE('',#2158,#1018);
#845=LINE('',#2160,#1019);
#846=LINE('',#2162,#1020);
#847=LINE('',#2164,#1021);
#848=LINE('',#2166,#1022);
#849=LINE('',#2168,#1023);
#850=LINE('',#2170,#1024);
#851=LINE('',#2172,#1025);
#852=LINE('',#2174,#1026);
#853=LINE('',#2176,#1027);
#854=LINE('',#2178,#1028);
#855=LINE('',#2180,#1029);
#856=LINE('',#2185,#1030);
#857=LINE('',#2187,#1031);
#858=LINE('',#2189,#1032);
#859=LINE('',#2191,#1033);
#860=LINE('',#2193,#1034);
#861=LINE('',#2195,#1035);
#862=LINE('',#2197,#1036);
#863=LINE('',#2199,#1037);
#864=LINE('',#2201,#1038);
#865=LINE('',#2203,#1039);
#866=LINE('',#2205,#1040);
#867=LINE('',#2207,#1041);
#868=LINE('',#2212,#1042);
#869=LINE('',#2214,#1043);
#870=LINE('',#2216,#1044);
#871=LINE('',#2218,#1045);
#872=LINE('',#2220,#1046);
#873=LINE('',#2222,#1047);
#874=LINE('',#2224,#1048);
#875=LINE('',#2226,#1049);
#876=LINE('',#2228,#1050);
#877=LINE('',#2230,#1051);
#878=LINE('',#2232,#1052);
#879=LINE('',#2234,#1053);
#880=LINE('',#2239,#1054);
#881=LINE('',#2241,#1055);
#882=LINE('',#2243,#1056);
#883=LINE('',#2245,#1057);
#884=LINE('',#2247,#1058);
#885=LINE('',#2249,#1059);
#886=LINE('',#2251,#1060);
#887=LINE('',#2253,#1061);
#888=LINE('',#2255,#1062);
#889=LINE('',#2257,#1063);
#890=LINE('',#2259,#1064);
#891=LINE('',#2261,#1065);
#892=LINE('',#2270,#1066);
#893=LINE('',#2272,#1067);
#894=LINE('',#2274,#1068);
#895=LINE('',#2276,#1069);
#896=LINE('',#2278,#1070);
#897=LINE('',#2280,#1071);
#898=LINE('',#2282,#1072);
#899=LINE('',#2284,#1073);
#900=LINE('',#2286,#1074);
#901=LINE('',#2288,#1075);
#902=LINE('',#2290,#1076);
#903=LINE('',#2292,#1077);
#904=LINE('',#2294,#1078);
#905=LINE('',#2296,#1079);
#906=LINE('',#2298,#1080);
#907=LINE('',#2300,#1081);
#908=LINE('',#2302,#1082);
#909=LINE('',#2304,#1083);
#910=LINE('',#2306,#1084);
#911=LINE('',#2308,#1085);
#912=VECTOR('',#1555,1.);
#913=VECTOR('',#1556,1.);
#914=VECTOR('',#1557,1.);
#915=VECTOR('',#1558,1.);
#916=VECTOR('',#1559,1.);
#917=VECTOR('',#1560,1.);
#918=VECTOR('',#1561,1.);
#919=VECTOR('',#1562,1.);
#920=VECTOR('',#1563,1.);
#921=VECTOR('',#1564,1.);
#922=VECTOR('',#1565,1.);
#923=VECTOR('',#1566,1.);
#924=VECTOR('',#1567,1.);
#925=VECTOR('',#1568,1.);
#926=VECTOR('',#1569,1.);
#927=VECTOR('',#1570,1.);
#928=VECTOR('',#1571,1.);
#929=VECTOR('',#1572,1.);
#930=VECTOR('',#1573,1.);
#931=VECTOR('',#1574,1.);
#932=VECTOR('',#1575,1.);
#933=VECTOR('',#1576,1.);
#934=VECTOR('',#1577,1.);
#935=VECTOR('',#1578,1.);
#936=VECTOR('',#1579,1.);
#937=VECTOR('',#1580,1.);
#938=VECTOR('',#1581,1.);
#939=VECTOR('',#1582,1.);
#940=VECTOR('',#1583,1.);
#941=VECTOR('',#1584,1.);
#942=VECTOR('',#1585,1.);
#943=VECTOR('',#1586,1.);
#944=VECTOR('',#1587,1.);
#945=VECTOR('',#1588,1.);
#946=VECTOR('',#1589,1.);
#947=VECTOR('',#1590,1.);
#948=VECTOR('',#1591,1.);
#949=VECTOR('',#1592,1.);
#950=VECTOR('',#1593,1.);
#951=VECTOR('',#1594,1.);
#952=VECTOR('',#1595,1.);
#953=VECTOR('',#1596,1.);
#954=VECTOR('',#1597,1.);
#955=VECTOR('',#1598,1.);
#956=VECTOR('',#1599,1.);
#957=VECTOR('',#1600,1.);
#958=VECTOR('',#1601,1.);
#959=VECTOR('',#1602,1.);
#960=VECTOR('',#1603,1.);
#961=VECTOR('',#1604,1.);
#962=VECTOR('',#1605,1.);
#963=VECTOR('',#1606,1.);
#964=VECTOR('',#1609,1.);
#965=VECTOR('',#1610,1.);
#966=VECTOR('',#1611,1.);
#967=VECTOR('',#1614,1.);
#968=VECTOR('',#1615,1.);
#969=VECTOR('',#1616,1.);
#970=VECTOR('',#1635,1.);
#971=VECTOR('',#1636,1.);
#972=VECTOR('',#1637,1.);
#973=VECTOR('',#1640,1.);
#974=VECTOR('',#1641,1.);
#975=VECTOR('',#1644,1.);
#976=VECTOR('',#1645,1.);
#977=VECTOR('',#1648,1.);
#978=VECTOR('',#1649,1.);
#979=VECTOR('',#1652,1.);
#980=VECTOR('',#1653,1.);
#981=VECTOR('',#1656,1.);
#982=VECTOR('',#1663,1.);
#983=VECTOR('',#1664,1.);
#984=VECTOR('',#1665,1.);
#985=VECTOR('',#1668,1.);
#986=VECTOR('',#1669,1.);
#987=VECTOR('',#1672,1.);
#988=VECTOR('',#1673,1.);
#989=VECTOR('',#1676,1.);
#990=VECTOR('',#1677,1.);
#991=VECTOR('',#1680,1.);
#992=VECTOR('',#1681,1.);
#993=VECTOR('',#1684,1.);
#994=VECTOR('',#1691,1.);
#995=VECTOR('',#1692,1.);
#996=VECTOR('',#1693,1.);
#997=VECTOR('',#1696,1.);
#998=VECTOR('',#1697,1.);
#999=VECTOR('',#1700,1.);
#1000=VECTOR('',#1701,1.);
#1001=VECTOR('',#1704,1.);
#1002=VECTOR('',#1705,1.);
#1003=VECTOR('',#1708,1.);
#1004=VECTOR('',#1709,1.);
#1005=VECTOR('',#1712,1.);
#1006=VECTOR('',#1719,1.);
#1007=VECTOR('',#1720,1.);
#1008=VECTOR('',#1721,1.);
#1009=VECTOR('',#1724,1.);
#1010=VECTOR('',#1725,1.);
#1011=VECTOR('',#1728,1.);
#1012=VECTOR('',#1729,1.);
#1013=VECTOR('',#1732,1.);
#1014=VECTOR('',#1733,1.);
#1015=VECTOR('',#1736,1.);
#1016=VECTOR('',#1737,1.);
#1017=VECTOR('',#1740,1.);
#1018=VECTOR('',#1755,1.);
#1019=VECTOR('',#1756,1.);
#1020=VECTOR('',#1757,1.);
#1021=VECTOR('',#1760,1.);
#1022=VECTOR('',#1761,1.);
#1023=VECTOR('',#1764,1.);
#1024=VECTOR('',#1765,1.);
#1025=VECTOR('',#1768,1.);
#1026=VECTOR('',#1769,1.);
#1027=VECTOR('',#1772,1.);
#1028=VECTOR('',#1773,1.);
#1029=VECTOR('',#1776,1.);
#1030=VECTOR('',#1783,1.);
#1031=VECTOR('',#1784,1.);
#1032=VECTOR('',#1785,1.);
#1033=VECTOR('',#1788,1.);
#1034=VECTOR('',#1789,1.);
#1035=VECTOR('',#1792,1.);
#1036=VECTOR('',#1793,1.);
#1037=VECTOR('',#1796,1.);
#1038=VECTOR('',#1797,1.);
#1039=VECTOR('',#1800,1.);
#1040=VECTOR('',#1801,1.);
#1041=VECTOR('',#1804,1.);
#1042=VECTOR('',#1811,1.);
#1043=VECTOR('',#1812,1.);
#1044=VECTOR('',#1813,1.);
#1045=VECTOR('',#1816,1.);
#1046=VECTOR('',#1817,1.);
#1047=VECTOR('',#1820,1.);
#1048=VECTOR('',#1821,1.);
#1049=VECTOR('',#1824,1.);
#1050=VECTOR('',#1825,1.);
#1051=VECTOR('',#1828,1.);
#1052=VECTOR('',#1829,1.);
#1053=VECTOR('',#1832,1.);
#1054=VECTOR('',#1839,1.);
#1055=VECTOR('',#1840,1.);
#1056=VECTOR('',#1841,1.);
#1057=VECTOR('',#1844,1.);
#1058=VECTOR('',#1845,1.);
#1059=VECTOR('',#1848,1.);
#1060=VECTOR('',#1849,1.);
#1061=VECTOR('',#1852,1.);
#1062=VECTOR('',#1853,1.);
#1063=VECTOR('',#1856,1.);
#1064=VECTOR('',#1857,1.);
#1065=VECTOR('',#1860,1.);
#1066=VECTOR('',#1875,1.);
#1067=VECTOR('',#1876,1.);
#1068=VECTOR('',#1877,1.);
#1069=VECTOR('',#1880,1.);
#1070=VECTOR('',#1881,1.);
#1071=VECTOR('',#1882,1.);
#1072=VECTOR('',#1885,1.);
#1073=VECTOR('',#1886,1.);
#1074=VECTOR('',#1887,1.);
#1075=VECTOR('',#1888,1.);
#1076=VECTOR('',#1889,1.);
#1077=VECTOR('',#1892,1.);
#1078=VECTOR('',#1895,1.);
#1079=VECTOR('',#1896,1.);
#1080=VECTOR('',#1897,1.);
#1081=VECTOR('',#1900,1.);
#1082=VECTOR('',#1901,1.);
#1083=VECTOR('',#1904,1.);
#1084=VECTOR('',#1905,1.);
#1085=VECTOR('',#1908,1.);
#1086=EDGE_LOOP('',(#36,#37,#38,#39,#40,#41));
#1087=EDGE_LOOP('',(#42,#43,#44,#45,#46,#47));
#1088=EDGE_LOOP('',(#48,#49,#50,#51,#52,#53));
#1089=EDGE_LOOP('',(#54,#55,#56,#57,#58,#59));
#1090=EDGE_LOOP('',(#60,#61,#62,#63));
#1091=EDGE_LOOP('',(#64,#65,#66,#67,#68,#69));
#1092=EDGE_LOOP('',(#70,#71,#72,#73,#74,#75));
#1093=EDGE_LOOP('',(#76,#77,#78,#79,#80,#81));
#1094=EDGE_LOOP('',(#82,#83,#84,#85,#86,#87));
#1095=EDGE_LOOP('',(#88,#89,#90,#91));
#1096=EDGE_LOOP('',(#92,#93,#94,#95));
#1097=EDGE_LOOP('',(#96));
#1098=EDGE_LOOP('',(#97));
#1099=EDGE_LOOP('',(#98));
#1100=EDGE_LOOP('',(#99));
#1101=EDGE_LOOP('',(#100));
#1102=EDGE_LOOP('',(#101));
#1103=EDGE_LOOP('',(#102));
#1104=EDGE_LOOP('',(#103));
#1105=EDGE_LOOP('',(#104,#105,#106,#107));
#1106=EDGE_LOOP('',(#108,#109,#110,#111));
#1107=EDGE_LOOP('',(#112,#113,#114,#115));
#1108=EDGE_LOOP('',(#116,#117,#118,#119));
#1109=EDGE_LOOP('',(#120,#121,#122,#123));
#1110=EDGE_LOOP('',(#124,#125,#126,#127));
#1111=EDGE_LOOP('',(#128));
#1112=EDGE_LOOP('',(#129,#130,#131,#132,#133,#134));
#1113=EDGE_LOOP('',(#135,#136,#137,#138));
#1114=EDGE_LOOP('',(#139,#140,#141,#142));
#1115=EDGE_LOOP('',(#143,#144,#145,#146));
#1116=EDGE_LOOP('',(#147,#148,#149,#150));
#1117=EDGE_LOOP('',(#151,#152,#153,#154));
#1118=EDGE_LOOP('',(#155,#156,#157,#158));
#1119=EDGE_LOOP('',(#159));
#1120=EDGE_LOOP('',(#160,#161,#162,#163,#164,#165));
#1121=EDGE_LOOP('',(#166,#167,#168,#169));
#1122=EDGE_LOOP('',(#170,#171,#172,#173));
#1123=EDGE_LOOP('',(#174,#175,#176,#177));
#1124=EDGE_LOOP('',(#178,#179,#180,#181));
#1125=EDGE_LOOP('',(#182,#183,#184,#185));
#1126=EDGE_LOOP('',(#186,#187,#188,#189));
#1127=EDGE_LOOP('',(#190));
#1128=EDGE_LOOP('',(#191,#192,#193,#194,#195,#196));
#1129=EDGE_LOOP('',(#197,#198,#199,#200));
#1130=EDGE_LOOP('',(#201,#202,#203,#204));
#1131=EDGE_LOOP('',(#205,#206,#207,#208));
#1132=EDGE_LOOP('',(#209,#210,#211,#212));
#1133=EDGE_LOOP('',(#213,#214,#215,#216));
#1134=EDGE_LOOP('',(#217,#218,#219,#220));
#1135=EDGE_LOOP('',(#221));
#1136=EDGE_LOOP('',(#222,#223,#224,#225,#226,#227));
#1137=EDGE_LOOP('',(#228));
#1138=EDGE_LOOP('',(#229));
#1139=EDGE_LOOP('',(#230));
#1140=EDGE_LOOP('',(#231));
#1141=EDGE_LOOP('',(#232));
#1142=EDGE_LOOP('',(#233));
#1143=EDGE_LOOP('',(#234));
#1144=EDGE_LOOP('',(#235));
#1145=EDGE_LOOP('',(#236,#237,#238,#239));
#1146=EDGE_LOOP('',(#240,#241,#242,#243));
#1147=EDGE_LOOP('',(#244,#245,#246,#247));
#1148=EDGE_LOOP('',(#248,#249,#250,#251));
#1149=EDGE_LOOP('',(#252,#253,#254,#255));
#1150=EDGE_LOOP('',(#256,#257,#258,#259));
#1151=EDGE_LOOP('',(#260));
#1152=EDGE_LOOP('',(#261,#262,#263,#264,#265,#266));
#1153=EDGE_LOOP('',(#267,#268,#269,#270));
#1154=EDGE_LOOP('',(#271,#272,#273,#274));
#1155=EDGE_LOOP('',(#275,#276,#277,#278));
#1156=EDGE_LOOP('',(#279,#280,#281,#282));
#1157=EDGE_LOOP('',(#283,#284,#285,#286));
#1158=EDGE_LOOP('',(#287,#288,#289,#290));
#1159=EDGE_LOOP('',(#291));
#1160=EDGE_LOOP('',(#292,#293,#294,#295,#296,#297));
#1161=EDGE_LOOP('',(#298,#299,#300,#301));
#1162=EDGE_LOOP('',(#302,#303,#304,#305));
#1163=EDGE_LOOP('',(#306,#307,#308,#309));
#1164=EDGE_LOOP('',(#310,#311,#312,#313));
#1165=EDGE_LOOP('',(#314,#315,#316,#317));
#1166=EDGE_LOOP('',(#318,#319,#320,#321));
#1167=EDGE_LOOP('',(#322));
#1168=EDGE_LOOP('',(#323,#324,#325,#326,#327,#328));
#1169=EDGE_LOOP('',(#329,#330,#331,#332));
#1170=EDGE_LOOP('',(#333,#334,#335,#336));
#1171=EDGE_LOOP('',(#337,#338,#339,#340));
#1172=EDGE_LOOP('',(#341,#342,#343,#344));
#1173=EDGE_LOOP('',(#345,#346,#347,#348));
#1174=EDGE_LOOP('',(#349,#350,#351,#352));
#1175=EDGE_LOOP('',(#353));
#1176=EDGE_LOOP('',(#354,#355,#356,#357,#358,#359));
#1177=EDGE_LOOP('',(#360));
#1178=EDGE_LOOP('',(#361));
#1179=EDGE_LOOP('',(#362));
#1180=EDGE_LOOP('',(#363));
#1181=EDGE_LOOP('',(#364));
#1182=EDGE_LOOP('',(#365));
#1183=EDGE_LOOP('',(#366));
#1184=EDGE_LOOP('',(#367));
#1185=EDGE_LOOP('',(#368,#369,#370,#371,#372,#373));
#1186=EDGE_LOOP('',(#374,#375,#376,#377,#378,#379));
#1187=EDGE_LOOP('',(#380,#381,#382,#383,#384,#385,#386,#387));
#1188=EDGE_LOOP('',(#388,#389,#390,#391));
#1189=EDGE_LOOP('',(#392,#393,#394,#395,#396,#397,#398,#399));
#1190=EDGE_LOOP('',(#400,#401,#402,#403));
#1191=EDGE_LOOP('',(#404,#405,#406,#407));
#1192=EDGE_LOOP('',(#408,#409,#410,#411));
#1193=EDGE_LOOP('',(#412,#413,#414,#415));
#1194=FACE_BOUND('',#1086,.T.);
#1195=FACE_BOUND('',#1087,.T.);
#1196=FACE_BOUND('',#1088,.T.);
#1197=FACE_BOUND('',#1089,.T.);
#1198=FACE_BOUND('',#1090,.T.);
#1199=FACE_BOUND('',#1091,.T.);
#1200=FACE_BOUND('',#1092,.T.);
#1201=FACE_BOUND('',#1093,.T.);
#1202=FACE_BOUND('',#1094,.T.);
#1203=FACE_BOUND('',#1095,.T.);
#1204=FACE_BOUND('',#1096,.T.);
#1205=FACE_BOUND('',#1097,.T.);
#1206=FACE_BOUND('',#1098,.T.);
#1207=FACE_BOUND('',#1099,.T.);
#1208=FACE_BOUND('',#1100,.T.);
#1209=FACE_BOUND('',#1101,.T.);
#1210=FACE_BOUND('',#1102,.T.);
#1211=FACE_BOUND('',#1103,.T.);
#1212=FACE_BOUND('',#1104,.T.);
#1213=FACE_BOUND('',#1105,.T.);
#1214=FACE_BOUND('',#1106,.T.);
#1215=FACE_BOUND('',#1107,.T.);
#1216=FACE_BOUND('',#1108,.T.);
#1217=FACE_BOUND('',#1109,.T.);
#1218=FACE_BOUND('',#1110,.T.);
#1219=FACE_BOUND('',#1111,.T.);
#1220=FACE_BOUND('',#1112,.T.);
#1221=FACE_BOUND('',#1113,.T.);
#1222=FACE_BOUND('',#1114,.T.);
#1223=FACE_BOUND('',#1115,.T.);
#1224=FACE_BOUND('',#1116,.T.);
#1225=FACE_BOUND('',#1117,.T.);
#1226=FACE_BOUND('',#1118,.T.);
#1227=FACE_BOUND('',#1119,.T.);
#1228=FACE_BOUND('',#1120,.T.);
#1229=FACE_BOUND('',#1121,.T.);
#1230=FACE_BOUND('',#1122,.T.);
#1231=FACE_BOUND('',#1123,.T.);
#1232=FACE_BOUND('',#1124,.T.);
#1233=FACE_BOUND('',#1125,.T.);
#1234=FACE_BOUND('',#1126,.T.);
#1235=FACE_BOUND('',#1127,.T.);
#1236=FACE_BOUND('',#1128,.T.);
#1237=FACE_BOUND('',#1129,.T.);
#1238=FACE_BOUND('',#1130,.T.);
#1239=FACE_BOUND('',#1131,.T.);
#1240=FACE_BOUND('',#1132,.T.);
#1241=FACE_BOUND('',#1133,.T.);
#1242=FACE_BOUND('',#1134,.T.);
#1243=FACE_BOUND('',#1135,.T.);
#1244=FACE_BOUND('',#1136,.T.);
#1245=FACE_BOUND('',#1137,.T.);
#1246=FACE_BOUND('',#1138,.T.);
#1247=FACE_BOUND('',#1139,.T.);
#1248=FACE_BOUND('',#1140,.T.);
#1249=FACE_BOUND('',#1141,.T.);
#1250=FACE_BOUND('',#1142,.T.);
#1251=FACE_BOUND('',#1143,.T.);
#1252=FACE_BOUND('',#1144,.T.);
#1253=FACE_BOUND('',#1145,.T.);
#1254=FACE_BOUND('',#1146,.T.);
#1255=FACE_BOUND('',#1147,.T.);
#1256=FACE_BOUND('',#1148,.T.);
#1257=FACE_BOUND('',#1149,.T.);
#1258=FACE_BOUND('',#1150,.T.);
#1259=FACE_BOUND('',#1151,.T.);
#1260=FACE_BOUND('',#1152,.T.);
#1261=FACE_BOUND('',#1153,.T.);
#1262=FACE_BOUND('',#1154,.T.);
#1263=FACE_BOUND('',#1155,.T.);
#1264=FACE_BOUND('',#1156,.T.);
#1265=FACE_BOUND('',#1157,.T.);
#1266=FACE_BOUND('',#1158,.T.);
#1267=FACE_BOUND('',#1159,.T.);
#1268=FACE_BOUND('',#1160,.T.);
#1269=FACE_BOUND('',#1161,.T.);
#1270=FACE_BOUND('',#1162,.T.);
#1271=FACE_BOUND('',#1163,.T.);
#1272=FACE_BOUND('',#1164,.T.);
#1273=FACE_BOUND('',#1165,.T.);
#1274=FACE_BOUND('',#1166,.T.);
#1275=FACE_BOUND('',#1167,.T.);
#1276=FACE_BOUND('',#1168,.T.);
#1277=FACE_BOUND('',#1169,.T.);
#1278=FACE_BOUND('',#1170,.T.);
#1279=FACE_BOUND('',#1171,.T.);
#1280=FACE_BOUND('',#1172,.T.);
#1281=FACE_BOUND('',#1173,.T.);
#1282=FACE_BOUND('',#1174,.T.);
#1283=FACE_BOUND('',#1175,.T.);
#1284=FACE_BOUND('',#1176,.T.);
#1285=FACE_BOUND('',#1177,.T.);
#1286=FACE_BOUND('',#1178,.T.);
#1287=FACE_BOUND('',#1179,.T.);
#1288=FACE_BOUND('',#1180,.T.);
#1289=FACE_BOUND('',#1181,.T.);
#1290=FACE_BOUND('',#1182,.T.);
#1291=FACE_BOUND('',#1183,.T.);
#1292=FACE_BOUND('',#1184,.T.);
#1293=FACE_BOUND('',#1185,.T.);
#1294=FACE_BOUND('',#1186,.T.);
#1295=FACE_BOUND('',#1187,.T.);
#1296=FACE_BOUND('',#1188,.T.);
#1297=FACE_BOUND('',#1189,.T.);
#1298=FACE_BOUND('',#1190,.T.);
#1299=FACE_BOUND('',#1191,.T.);
#1300=FACE_BOUND('',#1192,.T.);
#1301=FACE_BOUND('',#1193,.T.);
#1302=PLANE('',#1459);
#1303=PLANE('',#1460);
#1304=PLANE('',#1461);
#1305=PLANE('',#1470);
#1306=PLANE('',#1471);
#1307=PLANE('',#1472);
#1308=PLANE('',#1473);
#1309=PLANE('',#1474);
#1310=PLANE('',#1475);
#1311=PLANE('',#1476);
#1312=PLANE('',#1478);
#1313=PLANE('',#1479);
#1314=PLANE('',#1480);
#1315=PLANE('',#1481);
#1316=PLANE('',#1482);
#1317=PLANE('',#1483);
#1318=PLANE('',#1484);
#1319=PLANE('',#1486);
#1320=PLANE('',#1487);
#1321=PLANE('',#1488);
#1322=PLANE('',#1489);
#1323=PLANE('',#1490);
#1324=PLANE('',#1491);
#1325=PLANE('',#1492);
#1326=PLANE('',#1494);
#1327=PLANE('',#1495);
#1328=PLANE('',#1496);
#1329=PLANE('',#1497);
#1330=PLANE('',#1498);
#1331=PLANE('',#1499);
#1332=PLANE('',#1500);
#1333=PLANE('',#1506);
#1334=PLANE('',#1507);
#1335=PLANE('',#1508);
#1336=PLANE('',#1509);
#1337=PLANE('',#1510);
#1338=PLANE('',#1511);
#1339=PLANE('',#1512);
#1340=PLANE('',#1514);
#1341=PLANE('',#1515);
#1342=PLANE('',#1516);
#1343=PLANE('',#1517);
#1344=PLANE('',#1518);
#1345=PLANE('',#1519);
#1346=PLANE('',#1520);
#1347=PLANE('',#1522);
#1348=PLANE('',#1523);
#1349=PLANE('',#1524);
#1350=PLANE('',#1525);
#1351=PLANE('',#1526);
#1352=PLANE('',#1527);
#1353=PLANE('',#1528);
#1354=PLANE('',#1530);
#1355=PLANE('',#1531);
#1356=PLANE('',#1532);
#1357=PLANE('',#1533);
#1358=PLANE('',#1534);
#1359=PLANE('',#1535);
#1360=PLANE('',#1536);
#1361=PLANE('',#1542);
#1362=PLANE('',#1543);
#1363=PLANE('',#1544);
#1364=PLANE('',#1545);
#1365=PLANE('',#1546);
#1366=PLANE('',#1547);
#1367=PLANE('',#1548);
#1368=PLANE('',#1549);
#1369=PLANE('',#1550);
#1370=ADVANCED_FACE('',(#1194,#1195,#1196,#1197,#1198,#1199,#1200,#1201,
#1202),#1302,.F.);
#1371=ADVANCED_FACE('',(#1203),#1303,.T.);
#1372=ADVANCED_FACE('',(#1204,#1205,#1206,#1207,#1208,#1209,#1210,#1211,
#1212),#1304,.T.);
#1373=ADVANCED_FACE('',(#1213),#1305,.T.);
#1374=ADVANCED_FACE('',(#1214),#1306,.T.);
#1375=ADVANCED_FACE('',(#1215),#1307,.T.);
#1376=ADVANCED_FACE('',(#1216),#1308,.T.);
#1377=ADVANCED_FACE('',(#1217),#1309,.T.);
#1378=ADVANCED_FACE('',(#1218),#1310,.T.);
#1379=ADVANCED_FACE('',(#1219,#1220),#1311,.F.);
#1380=ADVANCED_FACE('',(#1221),#1312,.T.);
#1381=ADVANCED_FACE('',(#1222),#1313,.T.);
#1382=ADVANCED_FACE('',(#1223),#1314,.T.);
#1383=ADVANCED_FACE('',(#1224),#1315,.T.);
#1384=ADVANCED_FACE('',(#1225),#1316,.T.);
#1385=ADVANCED_FACE('',(#1226),#1317,.T.);
#1386=ADVANCED_FACE('',(#1227,#1228),#1318,.F.);
#1387=ADVANCED_FACE('',(#1229),#1319,.T.);
#1388=ADVANCED_FACE('',(#1230),#1320,.T.);
#1389=ADVANCED_FACE('',(#1231),#1321,.T.);
#1390=ADVANCED_FACE('',(#1232),#1322,.T.);
#1391=ADVANCED_FACE('',(#1233),#1323,.T.);
#1392=ADVANCED_FACE('',(#1234),#1324,.T.);
#1393=ADVANCED_FACE('',(#1235,#1236),#1325,.F.);
#1394=ADVANCED_FACE('',(#1237),#1326,.T.);
#1395=ADVANCED_FACE('',(#1238),#1327,.T.);
#1396=ADVANCED_FACE('',(#1239),#1328,.T.);
#1397=ADVANCED_FACE('',(#1240),#1329,.T.);
#1398=ADVANCED_FACE('',(#1241),#1330,.T.);
#1399=ADVANCED_FACE('',(#1242),#1331,.T.);
#1400=ADVANCED_FACE('',(#1243,#1244),#1332,.F.);
#1401=ADVANCED_FACE('',(#1245,#1246),#12,.F.);
#1402=ADVANCED_FACE('',(#1247,#1248),#13,.F.);
#1403=ADVANCED_FACE('',(#1249,#1250),#14,.F.);
#1404=ADVANCED_FACE('',(#1251,#1252),#15,.F.);
#1405=ADVANCED_FACE('',(#1253),#1333,.T.);
#1406=ADVANCED_FACE('',(#1254),#1334,.T.);
#1407=ADVANCED_FACE('',(#1255),#1335,.T.);
#1408=ADVANCED_FACE('',(#1256),#1336,.T.);
#1409=ADVANCED_FACE('',(#1257),#1337,.T.);
#1410=ADVANCED_FACE('',(#1258),#1338,.T.);
#1411=ADVANCED_FACE('',(#1259,#1260),#1339,.F.);
#1412=ADVANCED_FACE('',(#1261),#1340,.T.);
#1413=ADVANCED_FACE('',(#1262),#1341,.T.);
#1414=ADVANCED_FACE('',(#1263),#1342,.T.);
#1415=ADVANCED_FACE('',(#1264),#1343,.T.);
#1416=ADVANCED_FACE('',(#1265),#1344,.T.);
#1417=ADVANCED_FACE('',(#1266),#1345,.T.);
#1418=ADVANCED_FACE('',(#1267,#1268),#1346,.F.);
#1419=ADVANCED_FACE('',(#1269),#1347,.T.);
#1420=ADVANCED_FACE('',(#1270),#1348,.T.);
#1421=ADVANCED_FACE('',(#1271),#1349,.T.);
#1422=ADVANCED_FACE('',(#1272),#1350,.T.);
#1423=ADVANCED_FACE('',(#1273),#1351,.T.);
#1424=ADVANCED_FACE('',(#1274),#1352,.T.);
#1425=ADVANCED_FACE('',(#1275,#1276),#1353,.F.);
#1426=ADVANCED_FACE('',(#1277),#1354,.T.);
#1427=ADVANCED_FACE('',(#1278),#1355,.T.);
#1428=ADVANCED_FACE('',(#1279),#1356,.T.);
#1429=ADVANCED_FACE('',(#1280),#1357,.T.);
#1430=ADVANCED_FACE('',(#1281),#1358,.T.);
#1431=ADVANCED_FACE('',(#1282),#1359,.T.);
#1432=ADVANCED_FACE('',(#1283,#1284),#1360,.F.);
#1433=ADVANCED_FACE('',(#1285,#1286),#16,.F.);
#1434=ADVANCED_FACE('',(#1287,#1288),#17,.F.);
#1435=ADVANCED_FACE('',(#1289,#1290),#18,.F.);
#1436=ADVANCED_FACE('',(#1291,#1292),#19,.F.);
#1437=ADVANCED_FACE('',(#1293),#1361,.T.);
#1438=ADVANCED_FACE('',(#1294),#1362,.F.);
#1439=ADVANCED_FACE('',(#1295),#1363,.F.);
#1440=ADVANCED_FACE('',(#1296),#1364,.F.);
#1441=ADVANCED_FACE('',(#1297),#1365,.T.);
#1442=ADVANCED_FACE('',(#1298),#1366,.T.);
#1443=ADVANCED_FACE('',(#1299),#1367,.F.);
#1444=ADVANCED_FACE('',(#1300),#1368,.T.);
#1445=ADVANCED_FACE('',(#1301),#1369,.T.);
#1446=CLOSED_SHELL('',(#1370,#1371,#1372,#1373,#1374,#1375,#1376,#1377,
#1378,#1379,#1380,#1381,#1382,#1383,#1384,#1385,#1386,#1387,#1388,#1389,
#1390,#1391,#1392,#1393,#1394,#1395,#1396,#1397,#1398,#1399,#1400,#1401,
#1402,#1403,#1404,#1405,#1406,#1407,#1408,#1409,#1410,#1411,#1412,#1413,
#1414,#1415,#1416,#1417,#1418,#1419,#1420,#1421,#1422,#1423,#1424,#1425,
#1426,#1427,#1428,#1429,#1430,#1431,#1432,#1433,#1434,#1435,#1436,#1437,
#1438,#1439,#1440,#1441,#1442,#1443,#1444,#1445));
#1447=STYLED_ITEM('',(#1448),#1455);
#1448=PRESENTATION_STYLE_ASSIGNMENT((#1449));
#1449=SURFACE_STYLE_USAGE(.BOTH.,#1450);
#1450=SURFACE_SIDE_STYLE('',(#1451));
#1451=SURFACE_STYLE_FILL_AREA(#1452);
#1452=FILL_AREA_STYLE('',(#1453));
#1453=FILL_AREA_STYLE_COLOUR('',#1454);
#1454=COLOUR_RGB('',0.615686274509804,0.811764705882353,0.929411764705882);
#1455=MANIFOLD_SOLID_BREP('Part 1',#1446);
#1456=SHAPE_DEFINITION_REPRESENTATION(#2316,#1457);
#1457=SHAPE_REPRESENTATION('Part 1',(#1458),#2311);
#1458=AXIS2_PLACEMENT_3D('',#1911,#1551,#1552);
#1459=AXIS2_PLACEMENT_3D('',#1912,#1553,#1554);
#1460=AXIS2_PLACEMENT_3D('',#2017,#1607,#1608);
#1461=AXIS2_PLACEMENT_3D('',#2023,#1612,#1613);
#1462=AXIS2_PLACEMENT_3D('',#2029,#1617,#1618);
#1463=AXIS2_PLACEMENT_3D('',#2031,#1619,#1620);
#1464=AXIS2_PLACEMENT_3D('',#2033,#1621,#1622);
#1465=AXIS2_PLACEMENT_3D('',#2035,#1623,#1624);
#1466=AXIS2_PLACEMENT_3D('',#2037,#1625,#1626);
#1467=AXIS2_PLACEMENT_3D('',#2039,#1627,#1628);
#1468=AXIS2_PLACEMENT_3D('',#2041,#1629,#1630);
#1469=AXIS2_PLACEMENT_3D('',#2043,#1631,#1632);
#1470=AXIS2_PLACEMENT_3D('',#2045,#1633,#1634);
#1471=AXIS2_PLACEMENT_3D('',#2051,#1638,#1639);
#1472=AXIS2_PLACEMENT_3D('',#2055,#1642,#1643);
#1473=AXIS2_PLACEMENT_3D('',#2059,#1646,#1647);
#1474=AXIS2_PLACEMENT_3D('',#2063,#1650,#1651);
#1475=AXIS2_PLACEMENT_3D('',#2067,#1654,#1655);
#1476=AXIS2_PLACEMENT_3D('',#2069,#1657,#1658);
#1477=AXIS2_PLACEMENT_3D('',#2070,#1659,#1660);
#1478=AXIS2_PLACEMENT_3D('',#2072,#1661,#1662);
#1479=AXIS2_PLACEMENT_3D('',#2078,#1666,#1667);
#1480=AXIS2_PLACEMENT_3D('',#2082,#1670,#1671);
#1481=AXIS2_PLACEMENT_3D('',#2086,#1674,#1675);
#1482=AXIS2_PLACEMENT_3D('',#2090,#1678,#1679);
#1483=AXIS2_PLACEMENT_3D('',#2094,#1682,#1683);
#1484=AXIS2_PLACEMENT_3D('',#2096,#1685,#1686);
#1485=AXIS2_PLACEMENT_3D('',#2097,#1687,#1688);
#1486=AXIS2_PLACEMENT_3D('',#2099,#1689,#1690);
#1487=AXIS2_PLACEMENT_3D('',#2105,#1694,#1695);
#1488=AXIS2_PLACEMENT_3D('',#2109,#1698,#1699);
#1489=AXIS2_PLACEMENT_3D('',#2113,#1702,#1703);
#1490=AXIS2_PLACEMENT_3D('',#2117,#1706,#1707);
#1491=AXIS2_PLACEMENT_3D('',#2121,#1710,#1711);
#1492=AXIS2_PLACEMENT_3D('',#2123,#1713,#1714);
#1493=AXIS2_PLACEMENT_3D('',#2124,#1715,#1716);
#1494=AXIS2_PLACEMENT_3D('',#2126,#1717,#1718);
#1495=AXIS2_PLACEMENT_3D('',#2132,#1722,#1723);
#1496=AXIS2_PLACEMENT_3D('',#2136,#1726,#1727);
#1497=AXIS2_PLACEMENT_3D('',#2140,#1730,#1731);
#1498=AXIS2_PLACEMENT_3D('',#2144,#1734,#1735);
#1499=AXIS2_PLACEMENT_3D('',#2148,#1738,#1739);
#1500=AXIS2_PLACEMENT_3D('',#2150,#1741,#1742);
#1501=AXIS2_PLACEMENT_3D('',#2151,#1743,#1744);
#1502=AXIS2_PLACEMENT_3D('',#2153,#1745,#1746);
#1503=AXIS2_PLACEMENT_3D('',#2154,#1747,#1748);
#1504=AXIS2_PLACEMENT_3D('',#2155,#1749,#1750);
#1505=AXIS2_PLACEMENT_3D('',#2156,#1751,#1752);
#1506=AXIS2_PLACEMENT_3D('',#2157,#1753,#1754);
#1507=AXIS2_PLACEMENT_3D('',#2163,#1758,#1759);
#1508=AXIS2_PLACEMENT_3D('',#2167,#1762,#1763);
#1509=AXIS2_PLACEMENT_3D('',#2171,#1766,#1767);
#1510=AXIS2_PLACEMENT_3D('',#2175,#1770,#1771);
#1511=AXIS2_PLACEMENT_3D('',#2179,#1774,#1775);
#1512=AXIS2_PLACEMENT_3D('',#2181,#1777,#1778);
#1513=AXIS2_PLACEMENT_3D('',#2182,#1779,#1780);
#1514=AXIS2_PLACEMENT_3D('',#2184,#1781,#1782);
#1515=AXIS2_PLACEMENT_3D('',#2190,#1786,#1787);
#1516=AXIS2_PLACEMENT_3D('',#2194,#1790,#1791);
#1517=AXIS2_PLACEMENT_3D('',#2198,#1794,#1795);
#1518=AXIS2_PLACEMENT_3D('',#2202,#1798,#1799);
#1519=AXIS2_PLACEMENT_3D('',#2206,#1802,#1803);
#1520=AXIS2_PLACEMENT_3D('',#2208,#1805,#1806);
#1521=AXIS2_PLACEMENT_3D('',#2209,#1807,#1808);
#1522=AXIS2_PLACEMENT_3D('',#2211,#1809,#1810);
#1523=AXIS2_PLACEMENT_3D('',#2217,#1814,#1815);
#1524=AXIS2_PLACEMENT_3D('',#2221,#1818,#1819);
#1525=AXIS2_PLACEMENT_3D('',#2225,#1822,#1823);
#1526=AXIS2_PLACEMENT_3D('',#2229,#1826,#1827);
#1527=AXIS2_PLACEMENT_3D('',#2233,#1830,#1831);
#1528=AXIS2_PLACEMENT_3D('',#2235,#1833,#1834);
#1529=AXIS2_PLACEMENT_3D('',#2236,#1835,#1836);
#1530=AXIS2_PLACEMENT_3D('',#2238,#1837,#1838);
#1531=AXIS2_PLACEMENT_3D('',#2244,#1842,#1843);
#1532=AXIS2_PLACEMENT_3D('',#2248,#1846,#1847);
#1533=AXIS2_PLACEMENT_3D('',#2252,#1850,#1851);
#1534=AXIS2_PLACEMENT_3D('',#2256,#1854,#1855);
#1535=AXIS2_PLACEMENT_3D('',#2260,#1858,#1859);
#1536=AXIS2_PLACEMENT_3D('',#2262,#1861,#1862);
#1537=AXIS2_PLACEMENT_3D('',#2263,#1863,#1864);
#1538=AXIS2_PLACEMENT_3D('',#2265,#1865,#1866);
#1539=AXIS2_PLACEMENT_3D('',#2266,#1867,#1868);
#1540=AXIS2_PLACEMENT_3D('',#2267,#1869,#1870);
#1541=AXIS2_PLACEMENT_3D('',#2268,#1871,#1872);
#1542=AXIS2_PLACEMENT_3D('',#2269,#1873,#1874);
#1543=AXIS2_PLACEMENT_3D('',#2275,#1878,#1879);
#1544=AXIS2_PLACEMENT_3D('',#2281,#1883,#1884);
#1545=AXIS2_PLACEMENT_3D('',#2291,#1890,#1891);
#1546=AXIS2_PLACEMENT_3D('',#2293,#1893,#1894);
#1547=AXIS2_PLACEMENT_3D('',#2299,#1898,#1899);
#1548=AXIS2_PLACEMENT_3D('',#2303,#1902,#1903);
#1549=AXIS2_PLACEMENT_3D('',#2307,#1906,#1907);
#1550=AXIS2_PLACEMENT_3D('',#2309,#1909,#1910);
#1551=DIRECTION('',(0.,0.,1.));
#1552=DIRECTION('',(1.,0.,0.));
#1553=DIRECTION('',(0.,0.,1.));
#1554=DIRECTION('',(1.,0.,0.));
#1555=DIRECTION('',(-1.,-2.77555756156288E-15,0.));
#1556=DIRECTION('',(-0.5,-0.86602540378444,0.));
#1557=DIRECTION('',(0.5,-0.866025403784438,0.));
#1558=DIRECTION('',(1.,2.42861286636753E-15,0.));
#1559=DIRECTION('',(0.5,0.86602540378444,0.));
#1560=DIRECTION('',(-0.5,0.866025403784438,0.));
#1561=DIRECTION('',(1.,-2.77555756156289E-15,0.));
#1562=DIRECTION('',(0.5,0.866025403784437,0.));
#1563=DIRECTION('',(-0.5,0.86602540378444,0.));
#1564=DIRECTION('',(-1.,5.55111512312578E-15,0.));
#1565=DIRECTION('',(-0.5,-0.866025403784437,0.));
#1566=DIRECTION('',(0.5,-0.86602540378444,0.));
#1567=DIRECTION('',(1.,0.,0.));
#1568=DIRECTION('',(0.5,0.866025403784439,0.));
#1569=DIRECTION('',(-0.5,0.866025403784439,0.));
#1570=DIRECTION('',(-1.,0.,0.));
#1571=DIRECTION('',(-0.5,-0.866025403784438,0.));
#1572=DIRECTION('',(0.5,-0.866025403784439,0.));
#1573=DIRECTION('',(1.,-1.38777878078145E-15,0.));
#1574=DIRECTION('',(0.5,0.866025403784438,0.));
#1575=DIRECTION('',(-0.5,0.86602540378444,0.));
#1576=DIRECTION('',(-1.,1.38777878078144E-15,0.));
#1577=DIRECTION('',(-0.5,-0.866025403784438,0.));
#1578=DIRECTION('',(0.5,-0.86602540378444,0.));
#1579=DIRECTION('',(-1.,0.,0.));
#1580=DIRECTION('',(-3.65204942310907E-16,1.,0.));
#1581=DIRECTION('',(-1.,0.,0.));
#1582=DIRECTION('',(0.,1.,0.));
#1583=DIRECTION('',(-1.,0.,0.));
#1584=DIRECTION('',(-0.5,-0.866025403784439,0.));
#1585=DIRECTION('',(0.5,-0.866025403784439,0.));
#1586=DIRECTION('',(1.,0.,0.));
#1587=DIRECTION('',(0.5,0.866025403784439,0.));
#1588=DIRECTION('',(-0.5,0.866025403784439,0.));
#1589=DIRECTION('',(-1.,0.,0.));
#1590=DIRECTION('',(-0.5,-0.866025403784439,0.));
#1591=DIRECTION('',(0.5,-0.866025403784439,0.));
#1592=DIRECTION('',(1.,0.,0.));
#1593=DIRECTION('',(0.5,0.866025403784439,0.));
#1594=DIRECTION('',(-0.5,0.866025403784439,0.));
#1595=DIRECTION('',(-1.,-2.77555756156288E-15,0.));
#1596=DIRECTION('',(-0.5,-0.86602540378444,0.));
#1597=DIRECTION('',(0.5,-0.866025403784438,0.));
#1598=DIRECTION('',(1.,0.,0.));
#1599=DIRECTION('',(0.5,0.86602540378444,0.));
#1600=DIRECTION('',(-0.5,0.866025403784439,0.));
#1601=DIRECTION('',(1.,-6.93889390390722E-16,0.));
#1602=DIRECTION('',(0.5,0.866025403784438,0.));
#1603=DIRECTION('',(-0.5,0.866025403784439,0.));
#1604=DIRECTION('',(-1.,1.38777878078145E-15,0.));
#1605=DIRECTION('',(-0.5,-0.866025403784438,0.));
#1606=DIRECTION('',(0.5,-0.866025403784439,0.));
#1607=DIRECTION('',(0.,-1.,0.));
#1608=DIRECTION('',(0.,0.,-1.));
#1609=DIRECTION('',(0.,0.,-1.));
#1610=DIRECTION('',(-1.,0.,0.));
#1611=DIRECTION('',(0.,0.,-1.));
#1612=DIRECTION('',(0.,0.,1.));
#1613=DIRECTION('',(1.,0.,0.));
#1614=DIRECTION('',(1.,0.,0.));
#1615=DIRECTION('',(-3.65204942310907E-16,1.,0.));
#1616=DIRECTION('',(0.,1.,0.));
#1617=DIRECTION('',(0.,0.,1.));
#1618=DIRECTION('',(1.,0.,0.));
#1619=DIRECTION('',(0.,0.,1.));
#1620=DIRECTION('',(1.,0.,0.));
#1621=DIRECTION('',(0.,0.,1.));
#1622=DIRECTION('',(1.,0.,0.));
#1623=DIRECTION('',(0.,0.,1.));
#1624=DIRECTION('',(1.,0.,0.));
#1625=DIRECTION('',(0.,0.,1.));
#1626=DIRECTION('',(1.,0.,0.));
#1627=DIRECTION('',(0.,0.,1.));
#1628=DIRECTION('',(1.,0.,0.));
#1629=DIRECTION('',(0.,0.,1.));
#1630=DIRECTION('',(1.,0.,0.));
#1631=DIRECTION('',(0.,0.,1.));
#1632=DIRECTION('',(1.,0.,0.));
#1633=DIRECTION('',(1.38777878078145E-15,1.,0.));
#1634=DIRECTION('',(-1.,1.38777878078145E-15,0.));
#1635=DIRECTION('',(0.,0.,-1.));
#1636=DIRECTION('',(1.,-1.38777878078145E-15,0.));
#1637=DIRECTION('',(0.,0.,-1.));
#1638=DIRECTION('',(-0.866025403784438,0.5,0.));
#1639=DIRECTION('',(-0.5,-0.866025403784438,0.));
#1640=DIRECTION('',(0.5,0.866025403784438,0.));
#1641=DIRECTION('',(0.,0.,-1.));
#1642=DIRECTION('',(-0.86602540378444,-0.5,0.));
#1643=DIRECTION('',(0.5,-0.86602540378444,0.));
#1644=DIRECTION('',(-0.5,0.86602540378444,0.));
#1645=DIRECTION('',(0.,0.,-1.));
#1646=DIRECTION('',(-1.38777878078144E-15,-1.,0.));
#1647=DIRECTION('',(1.,-1.38777878078144E-15,0.));
#1648=DIRECTION('',(-1.,1.38777878078144E-15,0.));
#1649=DIRECTION('',(0.,0.,-1.));
#1650=DIRECTION('',(0.866025403784438,-0.5,0.));
#1651=DIRECTION('',(0.5,0.866025403784438,0.));
#1652=DIRECTION('',(-0.5,-0.866025403784438,0.));
#1653=DIRECTION('',(0.,0.,-1.));
#1654=DIRECTION('',(0.86602540378444,0.5,0.));
#1655=DIRECTION('',(-0.5,0.86602540378444,0.));
#1656=DIRECTION('',(0.5,-0.86602540378444,0.));
#1657=DIRECTION('',(0.,0.,1.));
#1658=DIRECTION('',(1.,0.,0.));
#1659=DIRECTION('',(0.,0.,1.));
#1660=DIRECTION('',(1.,0.,0.));
#1661=DIRECTION('',(0.,-1.,0.));
#1662=DIRECTION('',(0.,0.,-1.));
#1663=DIRECTION('',(0.,0.,-1.));
#1664=DIRECTION('',(-1.,0.,0.));
#1665=DIRECTION('',(0.,0.,-1.));
#1666=DIRECTION('',(0.866025403784439,-0.5,0.));
#1667=DIRECTION('',(0.5,0.866025403784439,0.));
#1668=DIRECTION('',(-0.5,-0.866025403784439,0.));
#1669=DIRECTION('',(0.,0.,-1.));
#1670=DIRECTION('',(0.866025403784439,0.5,0.));
#1671=DIRECTION('',(-0.5,0.866025403784439,0.));
#1672=DIRECTION('',(0.5,-0.866025403784439,0.));
#1673=DIRECTION('',(0.,0.,-1.));
#1674=DIRECTION('',(0.,1.,0.));
#1675=DIRECTION('',(0.,0.,1.));
#1676=DIRECTION('',(1.,0.,0.));
#1677=DIRECTION('',(0.,0.,-1.));
#1678=DIRECTION('',(-0.866025403784439,0.5,0.));
#1679=DIRECTION('',(-0.5,-0.866025403784439,0.));
#1680=DIRECTION('',(0.5,0.866025403784439,0.));
#1681=DIRECTION('',(0.,0.,-1.));
#1682=DIRECTION('',(-0.866025403784439,-0.5,0.));
#1683=DIRECTION('',(0.5,-0.866025403784439,0.));
#1684=DIRECTION('',(-0.5,0.866025403784439,0.));
#1685=DIRECTION('',(0.,0.,1.));
#1686=DIRECTION('',(1.,0.,0.));
#1687=DIRECTION('',(0.,0.,1.));
#1688=DIRECTION('',(1.,0.,0.));
#1689=DIRECTION('',(0.,1.,0.));
#1690=DIRECTION('',(0.,0.,1.));
#1691=DIRECTION('',(0.,0.,-1.));
#1692=DIRECTION('',(1.,0.,0.));
#1693=DIRECTION('',(0.,0.,-1.));
#1694=DIRECTION('',(-0.866025403784439,0.5,0.));
#1695=DIRECTION('',(-0.5,-0.866025403784439,0.));
#1696=DIRECTION('',(0.5,0.866025403784439,0.));
#1697=DIRECTION('',(0.,0.,-1.));
#1698=DIRECTION('',(-0.866025403784439,-0.5,0.));
#1699=DIRECTION('',(0.5,-0.866025403784439,0.));
#1700=DIRECTION('',(-0.5,0.866025403784439,0.));
#1701=DIRECTION('',(0.,0.,-1.));
#1702=DIRECTION('',(0.,-1.,0.));
#1703=DIRECTION('',(0.,0.,-1.));
#1704=DIRECTION('',(-1.,0.,0.));
#1705=DIRECTION('',(0.,0.,-1.));
#1706=DIRECTION('',(0.866025403784438,-0.5,0.));
#1707=DIRECTION('',(0.5,0.866025403784438,0.));
#1708=DIRECTION('',(-0.5,-0.866025403784438,0.));
#1709=DIRECTION('',(0.,0.,-1.));
#1710=DIRECTION('',(0.866025403784439,0.5,0.));
#1711=DIRECTION('',(-0.5,0.866025403784439,0.));
#1712=DIRECTION('',(0.5,-0.866025403784439,0.));
#1713=DIRECTION('',(0.,0.,1.));
#1714=DIRECTION('',(1.,0.,0.));
#1715=DIRECTION('',(0.,0.,1.));
#1716=DIRECTION('',(1.,0.,0.));
#1717=DIRECTION('',(0.,-1.,0.));
#1718=DIRECTION('',(0.,0.,-1.));
#1719=DIRECTION('',(0.,0.,-1.));
#1720=DIRECTION('',(-1.,0.,0.));
#1721=DIRECTION('',(0.,0.,-1.));
#1722=DIRECTION('',(0.866025403784439,-0.5,0.));
#1723=DIRECTION('',(0.5,0.866025403784439,0.));
#1724=DIRECTION('',(-0.5,-0.866025403784439,0.));
#1725=DIRECTION('',(0.,0.,-1.));
#1726=DIRECTION('',(0.866025403784439,0.5,0.));
#1727=DIRECTION('',(-0.5,0.866025403784439,0.));
#1728=DIRECTION('',(0.5,-0.866025403784439,0.));
#1729=DIRECTION('',(0.,0.,-1.));
#1730=DIRECTION('',(0.,1.,0.));
#1731=DIRECTION('',(0.,0.,1.));
#1732=DIRECTION('',(1.,0.,0.));
#1733=DIRECTION('',(0.,0.,-1.));
#1734=DIRECTION('',(-0.866025403784439,0.5,0.));
#1735=DIRECTION('',(-0.5,-0.866025403784439,0.));
#1736=DIRECTION('',(0.5,0.866025403784439,0.));
#1737=DIRECTION('',(0.,0.,-1.));
#1738=DIRECTION('',(-0.866025403784439,-0.5,0.));
#1739=DIRECTION('',(0.5,-0.866025403784439,0.));
#1740=DIRECTION('',(-0.5,0.866025403784439,0.));
#1741=DIRECTION('',(0.,0.,1.));
#1742=DIRECTION('',(1.,0.,0.));
#1743=DIRECTION('',(0.,0.,1.));
#1744=DIRECTION('',(1.,0.,0.));
#1745=DIRECTION('',(0.,0.,-1.));
#1746=DIRECTION('',(-1.,0.,0.));
#1747=DIRECTION('',(0.,0.,-1.));
#1748=DIRECTION('',(-1.,0.,0.));
#1749=DIRECTION('',(0.,0.,-1.));
#1750=DIRECTION('',(-1.,0.,0.));
#1751=DIRECTION('',(0.,0.,-1.));
#1752=DIRECTION('',(-1.,0.,0.));
#1753=DIRECTION('',(2.77555756156289E-15,1.,0.));
#1754=DIRECTION('',(-1.,2.77555756156289E-15,0.));
#1755=DIRECTION('',(0.,0.,-1.));
#1756=DIRECTION('',(1.,-2.77555756156289E-15,0.));
#1757=DIRECTION('',(0.,0.,-1.));
#1758=DIRECTION('',(-0.866025403784437,0.5,0.));
#1759=DIRECTION('',(-0.5,-0.866025403784437,0.));
#1760=DIRECTION('',(0.5,0.866025403784437,0.));
#1761=DIRECTION('',(0.,0.,-1.));
#1762=DIRECTION('',(-0.86602540378444,-0.5,0.));
#1763=DIRECTION('',(0.5,-0.86602540378444,0.));
#1764=DIRECTION('',(-0.5,0.86602540378444,0.));
#1765=DIRECTION('',(0.,0.,-1.));
#1766=DIRECTION('',(-5.55111512312578E-15,-1.,0.));
#1767=DIRECTION('',(1.,-5.55111512312578E-15,0.));
#1768=DIRECTION('',(-1.,5.55111512312578E-15,0.));
#1769=DIRECTION('',(0.,0.,-1.));
#1770=DIRECTION('',(0.866025403784437,-0.5,0.));
#1771=DIRECTION('',(0.5,0.866025403784437,0.));
#1772=DIRECTION('',(-0.5,-0.866025403784437,0.));
#1773=DIRECTION('',(0.,0.,-1.));
#1774=DIRECTION('',(0.866025403784441,0.5,0.));
#1775=DIRECTION('',(-0.5,0.866025403784441,0.));
#1776=DIRECTION('',(0.5,-0.86602540378444,0.));
#1777=DIRECTION('',(0.,0.,1.));
#1778=DIRECTION('',(1.,0.,0.));
#1779=DIRECTION('',(0.,0.,1.));
#1780=DIRECTION('',(1.,0.,0.));
#1781=DIRECTION('',(2.77555756156288E-15,-1.,0.));
#1782=DIRECTION('',(1.,2.77555756156288E-15,0.));
#1783=DIRECTION('',(0.,0.,-1.));
#1784=DIRECTION('',(-1.,-2.77555756156288E-15,0.));
#1785=DIRECTION('',(0.,0.,-1.));
#1786=DIRECTION('',(0.86602540378444,-0.5,0.));
#1787=DIRECTION('',(0.5,0.86602540378444,0.));
#1788=DIRECTION('',(-0.5,-0.86602540378444,0.));
#1789=DIRECTION('',(0.,0.,-1.));
#1790=DIRECTION('',(0.866025403784438,0.5,0.));
#1791=DIRECTION('',(-0.5,0.866025403784438,0.));
#1792=DIRECTION('',(0.5,-0.866025403784438,0.));
#1793=DIRECTION('',(0.,0.,-1.));
#1794=DIRECTION('',(0.,1.,0.));
#1795=DIRECTION('',(0.,0.,1.));
#1796=DIRECTION('',(1.,0.,0.));
#1797=DIRECTION('',(0.,0.,-1.));
#1798=DIRECTION('',(-0.86602540378444,0.5,0.));
#1799=DIRECTION('',(-0.5,-0.86602540378444,0.));
#1800=DIRECTION('',(0.5,0.86602540378444,0.));
#1801=DIRECTION('',(0.,0.,-1.));
#1802=DIRECTION('',(-0.866025403784439,-0.5,0.));
#1803=DIRECTION('',(0.5,-0.866025403784439,0.));
#1804=DIRECTION('',(-0.5,0.866025403784439,0.));
#1805=DIRECTION('',(0.,0.,1.));
#1806=DIRECTION('',(1.,0.,0.));
#1807=DIRECTION('',(0.,0.,1.));
#1808=DIRECTION('',(1.,0.,0.));
#1809=DIRECTION('',(2.77555756156288E-15,-1.,0.));
#1810=DIRECTION('',(1.,2.77555756156288E-15,0.));
#1811=DIRECTION('',(0.,0.,-1.));
#1812=DIRECTION('',(-1.,-2.77555756156288E-15,0.));
#1813=DIRECTION('',(0.,0.,-1.));
#1814=DIRECTION('',(0.86602540378444,-0.5,0.));
#1815=DIRECTION('',(0.5,0.86602540378444,0.));
#1816=DIRECTION('',(-0.5,-0.86602540378444,0.));
#1817=DIRECTION('',(0.,0.,-1.));
#1818=DIRECTION('',(0.866025403784438,0.5,0.));
#1819=DIRECTION('',(-0.5,0.866025403784438,0.));
#1820=DIRECTION('',(0.5,-0.866025403784438,0.));
#1821=DIRECTION('',(0.,0.,-1.));
#1822=DIRECTION('',(-2.42861286636753E-15,1.,0.));
#1823=DIRECTION('',(-1.,-2.42861286636753E-15,0.));
#1824=DIRECTION('',(1.,2.42861286636753E-15,0.));
#1825=DIRECTION('',(0.,0.,-1.));
#1826=DIRECTION('',(-0.86602540378444,0.5,0.));
#1827=DIRECTION('',(-0.5,-0.86602540378444,0.));
#1828=DIRECTION('',(0.5,0.86602540378444,0.));
#1829=DIRECTION('',(0.,0.,-1.));
#1830=DIRECTION('',(-0.866025403784438,-0.5,0.));
#1831=DIRECTION('',(0.5,-0.866025403784438,0.));
#1832=DIRECTION('',(-0.5,0.866025403784438,0.));
#1833=DIRECTION('',(0.,0.,1.));
#1834=DIRECTION('',(1.,0.,0.));
#1835=DIRECTION('',(0.,0.,1.));
#1836=DIRECTION('',(1.,0.,0.));
#1837=DIRECTION('',(6.93889390390722E-16,1.,0.));
#1838=DIRECTION('',(-1.,6.93889390390722E-16,0.));
#1839=DIRECTION('',(0.,0.,-1.));
#1840=DIRECTION('',(1.,-6.93889390390722E-16,0.));
#1841=DIRECTION('',(0.,0.,-1.));
#1842=DIRECTION('',(-0.866025403784438,0.5,0.));
#1843=DIRECTION('',(-0.5,-0.866025403784438,0.));
#1844=DIRECTION('',(0.5,0.866025403784438,0.));
#1845=DIRECTION('',(0.,0.,-1.));
#1846=DIRECTION('',(-0.866025403784439,-0.5,0.));
#1847=DIRECTION('',(0.5,-0.866025403784439,0.));
#1848=DIRECTION('',(-0.5,0.866025403784439,0.));
#1849=DIRECTION('',(0.,0.,-1.));
#1850=DIRECTION('',(-1.38777878078145E-15,-1.,0.));
#1851=DIRECTION('',(1.,-1.38777878078145E-15,0.));
#1852=DIRECTION('',(-1.,1.38777878078145E-15,0.));
#1853=DIRECTION('',(0.,0.,-1.));
#1854=DIRECTION('',(0.866025403784438,-0.5,0.));
#1855=DIRECTION('',(0.5,0.866025403784438,0.));
#1856=DIRECTION('',(-0.5,-0.866025403784438,0.));
#1857=DIRECTION('',(0.,0.,-1.));
#1858=DIRECTION('',(0.866025403784439,0.5,0.));
#1859=DIRECTION('',(-0.5,0.866025403784439,0.));
#1860=DIRECTION('',(0.5,-0.866025403784439,0.));
#1861=DIRECTION('',(0.,0.,1.));
#1862=DIRECTION('',(1.,0.,0.));
#1863=DIRECTION('',(0.,0.,1.));
#1864=DIRECTION('',(1.,0.,0.));
#1865=DIRECTION('',(0.,0.,-1.));
#1866=DIRECTION('',(-1.,0.,0.));
#1867=DIRECTION('',(0.,0.,-1.));
#1868=DIRECTION('',(-1.,0.,0.));
#1869=DIRECTION('',(0.,0.,-1.));
#1870=DIRECTION('',(-1.,0.,0.));
#1871=DIRECTION('',(0.,0.,-1.));
#1872=DIRECTION('',(-1.,0.,0.));
#1873=DIRECTION('',(-1.,-3.65204942310907E-16,0.));
#1874=DIRECTION('',(3.65204942310907E-16,-1.,0.));
#1875=DIRECTION('',(0.,0.,-1.));
#1876=DIRECTION('',(-3.65204942310907E-16,1.,0.));
#1877=DIRECTION('',(0.,0.,-1.));
#1878=DIRECTION('',(-1.,0.,0.));
#1879=DIRECTION('',(0.,0.,1.));
#1880=DIRECTION('',(0.,0.,-1.));
#1881=DIRECTION('',(0.,1.,0.));
#1882=DIRECTION('',(0.,0.,-1.));
#1883=DIRECTION('',(0.,-1.,0.));
#1884=DIRECTION('',(0.,0.,-1.));
#1885=DIRECTION('',(-1.,0.,0.));
#1886=DIRECTION('',(0.,0.,-1.));
#1887=DIRECTION('',(1.,0.,0.));
#1888=DIRECTION('',(0.,0.,-1.));
#1889=DIRECTION('',(-1.,0.,0.));
#1890=DIRECTION('',(0.,1.,0.));
#1891=DIRECTION('',(0.,0.,1.));
#1892=DIRECTION('',(1.,0.,0.));
#1893=DIRECTION('',(0.,0.,1.));
#1894=DIRECTION('',(1.,0.,0.));
#1895=DIRECTION('',(0.,-1.,0.));
#1896=DIRECTION('',(-1.,0.,0.));
#1897=DIRECTION('',(0.,-1.,0.));
#1898=DIRECTION('',(-1.,0.,0.));
#1899=DIRECTION('',(0.,0.,1.));
#1900=DIRECTION('',(0.,0.,-1.));
#1901=DIRECTION('',(0.,-1.,0.));
#1902=DIRECTION('',(-1.,0.,0.));
#1903=DIRECTION('',(0.,0.,1.));
#1904=DIRECTION('',(0.,-1.,0.));
#1905=DIRECTION('',(0.,0.,-1.));
#1906=DIRECTION('',(0.,0.,-1.));
#1907=DIRECTION('',(-1.,0.,0.));
#1908=DIRECTION('',(1.,0.,0.));
#1909=DIRECTION('',(0.,1.,0.));
#1910=DIRECTION('',(-1.,0.,0.));
#1911=CARTESIAN_POINT('',(0.,0.,0.));
#1912=CARTESIAN_POINT('',(-6.93889390390723E-18,0.019,0.));
#1913=CARTESIAN_POINT('',(0.034,0.0061650635094611,0.));
#1914=CARTESIAN_POINT('',(0.03525,0.0061650635094611,0.));
#1915=CARTESIAN_POINT('',(0.03275,0.0061650635094611,0.));
#1916=CARTESIAN_POINT('',(0.032125,0.00508253175473055,0.));
#1917=CARTESIAN_POINT('',(0.0315,0.004,0.));
#1918=CARTESIAN_POINT('',(0.032125,0.00291746824526945,0.));
#1919=CARTESIAN_POINT('',(0.03275,0.00183493649053889,0.));
#1920=CARTESIAN_POINT('',(0.034,0.0018349364905389,0.));
#1921=CARTESIAN_POINT('',(0.03525,0.0018349364905389,0.));
#1922=CARTESIAN_POINT('',(0.035875,0.00291746824526945,0.));
#1923=CARTESIAN_POINT('',(0.0365,0.004,0.));
#1924=CARTESIAN_POINT('',(0.035875,0.00508253175473055,0.));
#1925=CARTESIAN_POINT('',(0.004,0.0318349364905389,0.));
#1926=CARTESIAN_POINT('',(0.00275,0.0318349364905389,0.));
#1927=CARTESIAN_POINT('',(0.00525,0.0318349364905389,0.));
#1928=CARTESIAN_POINT('',(0.005875,0.0329174682452694,0.));
#1929=CARTESIAN_POINT('',(0.0065,0.034,0.));
#1930=CARTESIAN_POINT('',(0.005875,0.0350825317547306,0.));
#1931=CARTESIAN_POINT('',(0.00525,0.0361650635094611,0.));
#1932=CARTESIAN_POINT('',(0.004,0.0361650635094611,0.));
#1933=CARTESIAN_POINT('',(0.00275,0.0361650635094611,0.));
#1934=CARTESIAN_POINT('',(0.002125,0.0350825317547306,0.));
#1935=CARTESIAN_POINT('',(0.0015,0.034,0.));
#1936=CARTESIAN_POINT('',(0.002125,0.0329174682452694,0.));
#1937=CARTESIAN_POINT('',(-0.034,0.0318349364905389,0.));
#1938=CARTESIAN_POINT('',(-0.03525,0.0318349364905389,0.));
#1939=CARTESIAN_POINT('',(-0.03275,0.0318349364905389,0.));
#1940=CARTESIAN_POINT('',(-0.032125,0.0329174682452694,0.));
#1941=CARTESIAN_POINT('',(-0.0315,0.034,0.));
#1942=CARTESIAN_POINT('',(-0.032125,0.0350825317547306,0.));
#1943=CARTESIAN_POINT('',(-0.03275,0.0361650635094611,0.));
#1944=CARTESIAN_POINT('',(-0.034,0.0361650635094611,0.));
#1945=CARTESIAN_POINT('',(-0.03525,0.0361650635094611,0.));
#1946=CARTESIAN_POINT('',(-0.035875,0.0350825317547306,0.));
#1947=CARTESIAN_POINT('',(-0.0365,0.034,0.));
#1948=CARTESIAN_POINT('',(-0.035875,0.0329174682452694,0.));
#1949=CARTESIAN_POINT('',(-0.034,0.0018349364905389,0.));
#1950=CARTESIAN_POINT('',(-0.03525,0.0018349364905389,0.));
#1951=CARTESIAN_POINT('',(-0.03275,0.0018349364905389,0.));
#1952=CARTESIAN_POINT('',(-0.032125,0.00291746824526945,0.));
#1953=CARTESIAN_POINT('',(-0.0315,0.004,0.));
#1954=CARTESIAN_POINT('',(-0.032125,0.00508253175473055,0.));
#1955=CARTESIAN_POINT('',(-0.03275,0.0061650635094611,0.));
#1956=CARTESIAN_POINT('',(-0.034,0.0061650635094611,0.));
#1957=CARTESIAN_POINT('',(-0.03525,0.0061650635094611,0.));
#1958=CARTESIAN_POINT('',(-0.035875,0.00508253175473055,0.));
#1959=CARTESIAN_POINT('',(-0.0365,0.004,0.));
#1960=CARTESIAN_POINT('',(-0.035875,0.00291746824526945,0.));
#1961=CARTESIAN_POINT('',(-0.019,0.,0.));
#1962=CARTESIAN_POINT('',(0.043,0.,0.));
#1963=CARTESIAN_POINT('',(-0.043,-5.29547166350815E-18,0.));
#1964=CARTESIAN_POINT('',(-0.043,0.019,0.));
#1965=CARTESIAN_POINT('',(-0.043,0.05,0.));
#1966=CARTESIAN_POINT('',(-0.019,0.05,0.));
#1967=CARTESIAN_POINT('',(0.043,0.05,0.));
#1968=CARTESIAN_POINT('',(0.043,0.019,0.));
#1969=CARTESIAN_POINT('',(-0.004,0.0361650635094611,0.));
#1970=CARTESIAN_POINT('',(-0.00275,0.0361650635094611,0.));
#1971=CARTESIAN_POINT('',(-0.00525,0.0361650635094611,0.));
#1972=CARTESIAN_POINT('',(-0.005875,0.0350825317547306,0.));
#1973=CARTESIAN_POINT('',(-0.0065,0.034,0.));
#1974=CARTESIAN_POINT('',(-0.005875,0.0329174682452694,0.));
#1975=CARTESIAN_POINT('',(-0.00525,0.0318349364905389,0.));
#1976=CARTESIAN_POINT('',(-0.004,0.0318349364905389,0.));
#1977=CARTESIAN_POINT('',(-0.00275,0.0318349364905389,0.));
#1978=CARTESIAN_POINT('',(-0.002125,0.0329174682452694,0.));
#1979=CARTESIAN_POINT('',(-0.0015,0.034,0.));
#1980=CARTESIAN_POINT('',(-0.002125,0.0350825317547306,0.));
#1981=CARTESIAN_POINT('',(-0.004,0.0061650635094611,0.));
#1982=CARTESIAN_POINT('',(-0.00275,0.0061650635094611,0.));
#1983=CARTESIAN_POINT('',(-0.00525,0.0061650635094611,0.));
#1984=CARTESIAN_POINT('',(-0.005875,0.00508253175473055,0.));
#1985=CARTESIAN_POINT('',(-0.0065,0.004,0.));
#1986=CARTESIAN_POINT('',(-0.005875,0.00291746824526945,0.));
#1987=CARTESIAN_POINT('',(-0.00525,0.0018349364905389,0.));
#1988=CARTESIAN_POINT('',(-0.004,0.0018349364905389,0.));
#1989=CARTESIAN_POINT('',(-0.00275,0.0018349364905389,0.));
#1990=CARTESIAN_POINT('',(-0.002125,0.00291746824526945,0.));
#1991=CARTESIAN_POINT('',(-0.0015,0.004,0.));
#1992=CARTESIAN_POINT('',(-0.002125,0.00508253175473055,0.));
#1993=CARTESIAN_POINT('',(0.034,0.0361650635094611,0.));
#1994=CARTESIAN_POINT('',(0.03525,0.0361650635094611,0.));
#1995=CARTESIAN_POINT('',(0.03275,0.0361650635094611,0.));
#1996=CARTESIAN_POINT('',(0.032125,0.0350825317547306,0.));
#1997=CARTESIAN_POINT('',(0.0315,0.034,0.));
#1998=CARTESIAN_POINT('',(0.032125,0.0329174682452694,0.));
#1999=CARTESIAN_POINT('',(0.03275,0.0318349364905389,0.));
#2000=CARTESIAN_POINT('',(0.034,0.0318349364905389,0.));
#2001=CARTESIAN_POINT('',(0.03525,0.0318349364905389,0.));
#2002=CARTESIAN_POINT('',(0.035875,0.0329174682452694,0.));
#2003=CARTESIAN_POINT('',(0.0365,0.034,0.));
#2004=CARTESIAN_POINT('',(0.035875,0.0350825317547306,0.));
#2005=CARTESIAN_POINT('',(0.004,0.0018349364905389,0.));
#2006=CARTESIAN_POINT('',(0.00275,0.0018349364905389,0.));
#2007=CARTESIAN_POINT('',(0.00525,0.0018349364905389,0.));
#2008=CARTESIAN_POINT('',(0.005875,0.00291746824526945,0.));
#2009=CARTESIAN_POINT('',(0.0065,0.004,0.));
#2010=CARTESIAN_POINT('',(0.005875,0.00508253175473055,0.));
#2011=CARTESIAN_POINT('',(0.00525,0.0061650635094611,0.));
#2012=CARTESIAN_POINT('',(0.004,0.0061650635094611,0.));
#2013=CARTESIAN_POINT('',(0.00275,0.0061650635094611,0.));
#2014=CARTESIAN_POINT('',(0.002125,0.00508253175473055,0.));
#2015=CARTESIAN_POINT('',(0.0015,0.004,0.));
#2016=CARTESIAN_POINT('',(0.002125,0.00291746824526945,0.));
#2017=CARTESIAN_POINT('',(-0.019,0.,0.0084));
#2018=CARTESIAN_POINT('',(0.043,0.,0.0084));
#2019=CARTESIAN_POINT('',(0.043,0.,0.0084));
#2020=CARTESIAN_POINT('',(-0.019,0.,0.0084));
#2021=CARTESIAN_POINT('',(-0.043,-5.29547166350815E-18,0.0084));
#2022=CARTESIAN_POINT('',(-0.043,-5.29547166350815E-18,0.0084));
#2023=CARTESIAN_POINT('',(-6.93889390390723E-18,0.019,0.0084));
#2024=CARTESIAN_POINT('',(-6.93889390390723E-18,0.045,0.0084));
#2025=CARTESIAN_POINT('',(-0.043,0.045,0.0084));
#2026=CARTESIAN_POINT('',(0.043,0.045,0.0084));
#2027=CARTESIAN_POINT('',(-0.043,0.019,0.0084));
#2028=CARTESIAN_POINT('',(0.043,0.019,0.0084));
#2029=CARTESIAN_POINT('',(0.004,0.034,0.0084));
#2030=CARTESIAN_POINT('',(0.0055,0.034,0.0084));
#2031=CARTESIAN_POINT('',(0.034,0.004,0.0084));
#2032=CARTESIAN_POINT('',(0.0355,0.004,0.0084));
#2033=CARTESIAN_POINT('',(0.004,0.004,0.0084));
#2034=CARTESIAN_POINT('',(0.0055,0.004,0.0084));
#2035=CARTESIAN_POINT('',(0.034,0.034,0.0084));
#2036=CARTESIAN_POINT('',(0.0355,0.034,0.0084));
#2037=CARTESIAN_POINT('',(-0.034,0.004,0.0084));
#2038=CARTESIAN_POINT('',(-0.0325,0.004,0.0084));
#2039=CARTESIAN_POINT('',(-0.004,0.034,0.0084));
#2040=CARTESIAN_POINT('',(-0.0025,0.034,0.0084));
#2041=CARTESIAN_POINT('',(-0.004,0.004,0.0084));
#2042=CARTESIAN_POINT('',(-0.0025,0.004,0.0084));
#2043=CARTESIAN_POINT('',(-0.034,0.034,0.0084));
#2044=CARTESIAN_POINT('',(-0.0325,0.034,0.0084));
#2045=CARTESIAN_POINT('',(-0.034,0.0018349364905389,0.002));
#2046=CARTESIAN_POINT('',(-0.03525,0.0018349364905389,0.002));
#2047=CARTESIAN_POINT('',(-0.03525,0.0018349364905389,0.002));
#2048=CARTESIAN_POINT('',(-0.034,0.0018349364905389,0.002));
#2049=CARTESIAN_POINT('',(-0.03275,0.0018349364905389,0.002));
#2050=CARTESIAN_POINT('',(-0.03275,0.0018349364905389,0.002));
#2051=CARTESIAN_POINT('',(-0.032125,0.00291746824526945,0.002));
#2052=CARTESIAN_POINT('',(-0.032125,0.00291746824526945,0.002));
#2053=CARTESIAN_POINT('',(-0.0315,0.004,0.002));
#2054=CARTESIAN_POINT('',(-0.0315,0.004,0.002));
#2055=CARTESIAN_POINT('',(-0.032125,0.00508253175473055,0.002));
#2056=CARTESIAN_POINT('',(-0.032125,0.00508253175473055,0.002));
#2057=CARTESIAN_POINT('',(-0.03275,0.0061650635094611,0.002));
#2058=CARTESIAN_POINT('',(-0.03275,0.0061650635094611,0.002));
#2059=CARTESIAN_POINT('',(-0.034,0.0061650635094611,0.002));
#2060=CARTESIAN_POINT('',(-0.034,0.0061650635094611,0.002));
#2061=CARTESIAN_POINT('',(-0.03525,0.0061650635094611,0.002));
#2062=CARTESIAN_POINT('',(-0.03525,0.0061650635094611,0.002));
#2063=CARTESIAN_POINT('',(-0.035875,0.00508253175473055,0.002));
#2064=CARTESIAN_POINT('',(-0.035875,0.00508253175473055,0.002));
#2065=CARTESIAN_POINT('',(-0.0365,0.004,0.002));
#2066=CARTESIAN_POINT('',(-0.0365,0.004,0.002));
#2067=CARTESIAN_POINT('',(-0.035875,0.00291746824526945,0.002));
#2068=CARTESIAN_POINT('',(-0.035875,0.00291746824526945,0.002));
#2069=CARTESIAN_POINT('',(-0.019,0.019,0.002));
#2070=CARTESIAN_POINT('',(-0.034,0.004,0.002));
#2071=CARTESIAN_POINT('',(-0.0325,0.004,0.002));
#2072=CARTESIAN_POINT('',(-0.004,0.0361650635094611,0.002));
#2073=CARTESIAN_POINT('',(-0.00275,0.0361650635094611,0.002));
#2074=CARTESIAN_POINT('',(-0.00275,0.0361650635094611,0.002));
#2075=CARTESIAN_POINT('',(-0.004,0.0361650635094611,0.002));
#2076=CARTESIAN_POINT('',(-0.00525,0.0361650635094611,0.002));
#2077=CARTESIAN_POINT('',(-0.00525,0.0361650635094611,0.002));
#2078=CARTESIAN_POINT('',(-0.005875,0.0350825317547306,0.002));
#2079=CARTESIAN_POINT('',(-0.005875,0.0350825317547306,0.002));
#2080=CARTESIAN_POINT('',(-0.0065,0.034,0.002));
#2081=CARTESIAN_POINT('',(-0.0065,0.034,0.002));
#2082=CARTESIAN_POINT('',(-0.005875,0.0329174682452694,0.002));
#2083=CARTESIAN_POINT('',(-0.005875,0.0329174682452694,0.002));
#2084=CARTESIAN_POINT('',(-0.00525,0.0318349364905389,0.002));
#2085=CARTESIAN_POINT('',(-0.00525,0.0318349364905389,0.002));
#2086=CARTESIAN_POINT('',(-0.004,0.0318349364905389,0.002));
#2087=CARTESIAN_POINT('',(-0.004,0.0318349364905389,0.002));
#2088=CARTESIAN_POINT('',(-0.00275,0.0318349364905389,0.002));
#2089=CARTESIAN_POINT('',(-0.00275,0.0318349364905389,0.002));
#2090=CARTESIAN_POINT('',(-0.002125,0.0329174682452694,0.002));
#2091=CARTESIAN_POINT('',(-0.002125,0.0329174682452694,0.002));
#2092=CARTESIAN_POINT('',(-0.0015,0.034,0.002));
#2093=CARTESIAN_POINT('',(-0.0015,0.034,0.002));
#2094=CARTESIAN_POINT('',(-0.002125,0.0350825317547306,0.002));
#2095=CARTESIAN_POINT('',(-0.002125,0.0350825317547306,0.002));
#2096=CARTESIAN_POINT('',(-0.019,0.019,0.002));
#2097=CARTESIAN_POINT('',(-0.004,0.034,0.002));
#2098=CARTESIAN_POINT('',(-0.0025,0.034,0.002));
#2099=CARTESIAN_POINT('',(-0.034,0.0318349364905389,0.002));
#2100=CARTESIAN_POINT('',(-0.03525,0.0318349364905389,0.002));
#2101=CARTESIAN_POINT('',(-0.03525,0.0318349364905389,0.002));
#2102=CARTESIAN_POINT('',(-0.034,0.0318349364905389,0.002));
#2103=CARTESIAN_POINT('',(-0.03275,0.0318349364905389,0.002));
#2104=CARTESIAN_POINT('',(-0.03275,0.0318349364905389,0.002));
#2105=CARTESIAN_POINT('',(-0.032125,0.0329174682452694,0.002));
#2106=CARTESIAN_POINT('',(-0.032125,0.0329174682452694,0.002));
#2107=CARTESIAN_POINT('',(-0.0315,0.034,0.002));
#2108=CARTESIAN_POINT('',(-0.0315,0.034,0.002));
#2109=CARTESIAN_POINT('',(-0.032125,0.0350825317547306,0.002));
#2110=CARTESIAN_POINT('',(-0.032125,0.0350825317547306,0.002));
#2111=CARTESIAN_POINT('',(-0.03275,0.0361650635094611,0.002));
#2112=CARTESIAN_POINT('',(-0.03275,0.0361650635094611,0.002));
#2113=CARTESIAN_POINT('',(-0.034,0.0361650635094611,0.002));
#2114=CARTESIAN_POINT('',(-0.034,0.0361650635094611,0.002));
#2115=CARTESIAN_POINT('',(-0.03525,0.0361650635094611,0.002));
#2116=CARTESIAN_POINT('',(-0.03525,0.0361650635094611,0.002));
#2117=CARTESIAN_POINT('',(-0.035875,0.0350825317547306,0.002));
#2118=CARTESIAN_POINT('',(-0.035875,0.0350825317547306,0.002));
#2119=CARTESIAN_POINT('',(-0.0365,0.034,0.002));
#2120=CARTESIAN_POINT('',(-0.0365,0.034,0.002));
#2121=CARTESIAN_POINT('',(-0.035875,0.0329174682452694,0.002));
#2122=CARTESIAN_POINT('',(-0.035875,0.0329174682452694,0.002));
#2123=CARTESIAN_POINT('',(-0.019,0.019,0.002));
#2124=CARTESIAN_POINT('',(-0.034,0.034,0.002));
#2125=CARTESIAN_POINT('',(-0.0325,0.034,0.002));
#2126=CARTESIAN_POINT('',(-0.004,0.0061650635094611,0.002));
#2127=CARTESIAN_POINT('',(-0.00275,0.0061650635094611,0.002));
#2128=CARTESIAN_POINT('',(-0.00275,0.0061650635094611,0.002));
#2129=CARTESIAN_POINT('',(-0.004,0.0061650635094611,0.002));
#2130=CARTESIAN_POINT('',(-0.00525,0.0061650635094611,0.002));
#2131=CARTESIAN_POINT('',(-0.00525,0.0061650635094611,0.002));
#2132=CARTESIAN_POINT('',(-0.005875,0.00508253175473055,0.002));
#2133=CARTESIAN_POINT('',(-0.005875,0.00508253175473055,0.002));
#2134=CARTESIAN_POINT('',(-0.0065,0.004,0.002));
#2135=CARTESIAN_POINT('',(-0.0065,0.004,0.002));
#2136=CARTESIAN_POINT('',(-0.005875,0.00291746824526945,0.002));
#2137=CARTESIAN_POINT('',(-0.005875,0.00291746824526945,0.002));
#2138=CARTESIAN_POINT('',(-0.00525,0.0018349364905389,0.002));
#2139=CARTESIAN_POINT('',(-0.00525,0.0018349364905389,0.002));
#2140=CARTESIAN_POINT('',(-0.004,0.0018349364905389,0.002));
#2141=CARTESIAN_POINT('',(-0.004,0.0018349364905389,0.002));
#2142=CARTESIAN_POINT('',(-0.00275,0.0018349364905389,0.002));
#2143=CARTESIAN_POINT('',(-0.00275,0.0018349364905389,0.002));
#2144=CARTESIAN_POINT('',(-0.002125,0.00291746824526945,0.002));
#2145=CARTESIAN_POINT('',(-0.002125,0.00291746824526945,0.002));
#2146=CARTESIAN_POINT('',(-0.0015,0.004,0.002));
#2147=CARTESIAN_POINT('',(-0.0015,0.004,0.002));
#2148=CARTESIAN_POINT('',(-0.002125,0.00508253175473055,0.002));
#2149=CARTESIAN_POINT('',(-0.002125,0.00508253175473055,0.002));
#2150=CARTESIAN_POINT('',(-0.019,0.019,0.002));
#2151=CARTESIAN_POINT('',(-0.004,0.004,0.002));
#2152=CARTESIAN_POINT('',(-0.0025,0.004,0.002));
#2153=CARTESIAN_POINT('',(-0.004,0.004,0.025));
#2154=CARTESIAN_POINT('',(-0.034,0.034,0.025));
#2155=CARTESIAN_POINT('',(-0.004,0.034,0.025));
#2156=CARTESIAN_POINT('',(-0.034,0.004,0.025));
#2157=CARTESIAN_POINT('',(0.004,0.0318349364905389,0.002));
#2158=CARTESIAN_POINT('',(0.00275,0.0318349364905389,0.002));
#2159=CARTESIAN_POINT('',(0.00275,0.0318349364905389,0.002));
#2160=CARTESIAN_POINT('',(0.004,0.0318349364905389,0.002));
#2161=CARTESIAN_POINT('',(0.00525,0.0318349364905389,0.002));
#2162=CARTESIAN_POINT('',(0.00525,0.0318349364905389,0.002));
#2163=CARTESIAN_POINT('',(0.005875,0.0329174682452694,0.002));
#2164=CARTESIAN_POINT('',(0.005875,0.0329174682452694,0.002));
#2165=CARTESIAN_POINT('',(0.0065,0.034,0.002));
#2166=CARTESIAN_POINT('',(0.0065,0.034,0.002));
#2167=CARTESIAN_POINT('',(0.005875,0.0350825317547306,0.002));
#2168=CARTESIAN_POINT('',(0.005875,0.0350825317547306,0.002));
#2169=CARTESIAN_POINT('',(0.00525,0.0361650635094611,0.002));
#2170=CARTESIAN_POINT('',(0.00525,0.0361650635094611,0.002));
#2171=CARTESIAN_POINT('',(0.004,0.0361650635094611,0.002));
#2172=CARTESIAN_POINT('',(0.004,0.0361650635094611,0.002));
#2173=CARTESIAN_POINT('',(0.00275,0.0361650635094611,0.002));
#2174=CARTESIAN_POINT('',(0.00275,0.0361650635094611,0.002));
#2175=CARTESIAN_POINT('',(0.002125,0.0350825317547306,0.002));
#2176=CARTESIAN_POINT('',(0.002125,0.0350825317547306,0.002));
#2177=CARTESIAN_POINT('',(0.0015,0.034,0.002));
#2178=CARTESIAN_POINT('',(0.0015,0.034,0.002));
#2179=CARTESIAN_POINT('',(0.002125,0.0329174682452694,0.002));
#2180=CARTESIAN_POINT('',(0.002125,0.0329174682452694,0.002));
#2181=CARTESIAN_POINT('',(0.019,0.019,0.002));
#2182=CARTESIAN_POINT('',(0.004,0.034,0.002));
#2183=CARTESIAN_POINT('',(0.0055,0.034,0.002));
#2184=CARTESIAN_POINT('',(0.034,0.0361650635094611,0.002));
#2185=CARTESIAN_POINT('',(0.03525,0.0361650635094611,0.002));
#2186=CARTESIAN_POINT('',(0.03525,0.0361650635094611,0.002));
#2187=CARTESIAN_POINT('',(0.034,0.0361650635094611,0.002));
#2188=CARTESIAN_POINT('',(0.03275,0.0361650635094611,0.002));
#2189=CARTESIAN_POINT('',(0.03275,0.0361650635094611,0.002));
#2190=CARTESIAN_POINT('',(0.032125,0.0350825317547306,0.002));
#2191=CARTESIAN_POINT('',(0.032125,0.0350825317547306,0.002));
#2192=CARTESIAN_POINT('',(0.0315,0.034,0.002));
#2193=CARTESIAN_POINT('',(0.0315,0.034,0.002));
#2194=CARTESIAN_POINT('',(0.032125,0.0329174682452694,0.002));
#2195=CARTESIAN_POINT('',(0.032125,0.0329174682452694,0.002));
#2196=CARTESIAN_POINT('',(0.03275,0.0318349364905389,0.002));
#2197=CARTESIAN_POINT('',(0.03275,0.0318349364905389,0.002));
#2198=CARTESIAN_POINT('',(0.034,0.0318349364905389,0.002));
#2199=CARTESIAN_POINT('',(0.034,0.0318349364905389,0.002));
#2200=CARTESIAN_POINT('',(0.03525,0.0318349364905389,0.002));
#2201=CARTESIAN_POINT('',(0.03525,0.0318349364905389,0.002));
#2202=CARTESIAN_POINT('',(0.035875,0.0329174682452694,0.002));
#2203=CARTESIAN_POINT('',(0.035875,0.0329174682452694,0.002));
#2204=CARTESIAN_POINT('',(0.0365,0.034,0.002));
#2205=CARTESIAN_POINT('',(0.0365,0.034,0.002));
#2206=CARTESIAN_POINT('',(0.035875,0.0350825317547306,0.002));
#2207=CARTESIAN_POINT('',(0.035875,0.0350825317547306,0.002));
#2208=CARTESIAN_POINT('',(0.019,0.019,0.002));
#2209=CARTESIAN_POINT('',(0.034,0.034,0.002));
#2210=CARTESIAN_POINT('',(0.0355,0.034,0.002));
#2211=CARTESIAN_POINT('',(0.034,0.0061650635094611,0.002));
#2212=CARTESIAN_POINT('',(0.03525,0.00616506350946111,0.002));
#2213=CARTESIAN_POINT('',(0.03525,0.00616506350946111,0.002));
#2214=CARTESIAN_POINT('',(0.034,0.0061650635094611,0.002));
#2215=CARTESIAN_POINT('',(0.03275,0.0061650635094611,0.002));
#2216=CARTESIAN_POINT('',(0.03275,0.0061650635094611,0.002));
#2217=CARTESIAN_POINT('',(0.032125,0.00508253175473055,0.002));
#2218=CARTESIAN_POINT('',(0.032125,0.00508253175473055,0.002));
#2219=CARTESIAN_POINT('',(0.0315,0.004,0.002));
#2220=CARTESIAN_POINT('',(0.0315,0.004,0.002));
#2221=CARTESIAN_POINT('',(0.032125,0.00291746824526945,0.002));
#2222=CARTESIAN_POINT('',(0.032125,0.00291746824526945,0.002));
#2223=CARTESIAN_POINT('',(0.03275,0.00183493649053889,0.002));
#2224=CARTESIAN_POINT('',(0.03275,0.00183493649053889,0.002));
#2225=CARTESIAN_POINT('',(0.034,0.0018349364905389,0.002));
#2226=CARTESIAN_POINT('',(0.034,0.0018349364905389,0.002));
#2227=CARTESIAN_POINT('',(0.03525,0.0018349364905389,0.002));
#2228=CARTESIAN_POINT('',(0.03525,0.0018349364905389,0.002));
#2229=CARTESIAN_POINT('',(0.035875,0.00291746824526945,0.002));
#2230=CARTESIAN_POINT('',(0.035875,0.00291746824526945,0.002));
#2231=CARTESIAN_POINT('',(0.0365,0.004,0.002));
#2232=CARTESIAN_POINT('',(0.0365,0.004,0.002));
#2233=CARTESIAN_POINT('',(0.035875,0.00508253175473055,0.002));
#2234=CARTESIAN_POINT('',(0.035875,0.00508253175473055,0.002));
#2235=CARTESIAN_POINT('',(0.019,0.019,0.002));
#2236=CARTESIAN_POINT('',(0.034,0.004,0.002));
#2237=CARTESIAN_POINT('',(0.0355,0.004,0.002));
#2238=CARTESIAN_POINT('',(0.004,0.0018349364905389,0.002));
#2239=CARTESIAN_POINT('',(0.00275,0.0018349364905389,0.002));
#2240=CARTESIAN_POINT('',(0.00275,0.0018349364905389,0.002));
#2241=CARTESIAN_POINT('',(0.004,0.0018349364905389,0.002));
#2242=CARTESIAN_POINT('',(0.00525,0.0018349364905389,0.002));
#2243=CARTESIAN_POINT('',(0.00525,0.0018349364905389,0.002));
#2244=CARTESIAN_POINT('',(0.005875,0.00291746824526945,0.002));
#2245=CARTESIAN_POINT('',(0.005875,0.00291746824526945,0.002));
#2246=CARTESIAN_POINT('',(0.0065,0.004,0.002));
#2247=CARTESIAN_POINT('',(0.0065,0.004,0.002));
#2248=CARTESIAN_POINT('',(0.005875,0.00508253175473055,0.002));
#2249=CARTESIAN_POINT('',(0.005875,0.00508253175473055,0.002));
#2250=CARTESIAN_POINT('',(0.00525,0.0061650635094611,0.002));
#2251=CARTESIAN_POINT('',(0.00525,0.0061650635094611,0.002));
#2252=CARTESIAN_POINT('',(0.004,0.0061650635094611,0.002));
#2253=CARTESIAN_POINT('',(0.004,0.0061650635094611,0.002));
#2254=CARTESIAN_POINT('',(0.00275,0.0061650635094611,0.002));
#2255=CARTESIAN_POINT('',(0.00275,0.0061650635094611,0.002));
#2256=CARTESIAN_POINT('',(0.002125,0.00508253175473055,0.002));
#2257=CARTESIAN_POINT('',(0.002125,0.00508253175473055,0.002));
#2258=CARTESIAN_POINT('',(0.0015,0.004,0.002));
#2259=CARTESIAN_POINT('',(0.0015,0.004,0.002));
#2260=CARTESIAN_POINT('',(0.002125,0.00291746824526945,0.002));
#2261=CARTESIAN_POINT('',(0.002125,0.00291746824526945,0.002));
#2262=CARTESIAN_POINT('',(0.019,0.019,0.002));
#2263=CARTESIAN_POINT('',(0.004,0.004,0.002));
#2264=CARTESIAN_POINT('',(0.0055,0.004,0.002));
#2265=CARTESIAN_POINT('',(0.004,0.004,0.025));
#2266=CARTESIAN_POINT('',(0.034,0.004,0.025));
#2267=CARTESIAN_POINT('',(0.034,0.034,0.025));
#2268=CARTESIAN_POINT('',(0.004,0.034,0.025));
#2269=CARTESIAN_POINT('',(-0.043,0.019,0.0084));
#2270=CARTESIAN_POINT('',(-0.043,0.045,0.0584));
#2271=CARTESIAN_POINT('',(-0.043,0.045,0.0584));
#2272=CARTESIAN_POINT('',(-0.043,0.019,0.0584));
#2273=CARTESIAN_POINT('',(-0.043,0.05,0.0584));
#2274=CARTESIAN_POINT('',(-0.043,0.05,0.0084));
#2275=CARTESIAN_POINT('',(0.043,0.019,0.0084));
#2276=CARTESIAN_POINT('',(0.043,0.05,0.0084));
#2277=CARTESIAN_POINT('',(0.043,0.05,0.0584));
#2278=CARTESIAN_POINT('',(0.043,0.019,0.0584));
#2279=CARTESIAN_POINT('',(0.043,0.045,0.0584));
#2280=CARTESIAN_POINT('',(0.043,0.045,0.0584));
#2281=CARTESIAN_POINT('',(-0.019,0.05,0.0084));
#2282=CARTESIAN_POINT('',(-0.019,0.05,0.0584));
#2283=CARTESIAN_POINT('',(-0.016,0.05,0.0584));
#2284=CARTESIAN_POINT('',(-0.016,0.05,0.0549));
#2285=CARTESIAN_POINT('',(-0.016,0.05,0.0514));
#2286=CARTESIAN_POINT('',(-1.38777878078145E-17,0.05,0.0514));
#2287=CARTESIAN_POINT('',(0.016,0.05,0.0514));
#2288=CARTESIAN_POINT('',(0.016,0.05,0.0549));
#2289=CARTESIAN_POINT('',(0.016,0.05,0.0584));
#2290=CARTESIAN_POINT('',(-0.019,0.05,0.0584));
#2291=CARTESIAN_POINT('',(-6.93889390390723E-18,0.045,0.0584));
#2292=CARTESIAN_POINT('',(-6.93889390390723E-18,0.045,0.0584));
#2293=CARTESIAN_POINT('',(-6.93889390390723E-18,0.025,0.0584));
#2294=CARTESIAN_POINT('',(0.016,0.085,0.0584));
#2295=CARTESIAN_POINT('',(0.016,0.085,0.0584));
#2296=CARTESIAN_POINT('',(-0.019,0.085,0.0584));
#2297=CARTESIAN_POINT('',(-0.016,0.085,0.0584));
#2298=CARTESIAN_POINT('',(-0.016,0.085,0.0584));
#2299=CARTESIAN_POINT('',(-0.016,0.085,0.0549));
#2300=CARTESIAN_POINT('',(-0.016,0.085,0.0549));
#2301=CARTESIAN_POINT('',(-0.016,0.085,0.0514));
#2302=CARTESIAN_POINT('',(-0.016,0.085,0.0514));
#2303=CARTESIAN_POINT('',(0.016,0.085,0.0549));
#2304=CARTESIAN_POINT('',(0.016,0.085,0.0514));
#2305=CARTESIAN_POINT('',(0.016,0.085,0.0514));
#2306=CARTESIAN_POINT('',(0.016,0.085,0.0549));
#2307=CARTESIAN_POINT('',(-1.38777878078145E-17,0.085,0.0514));
#2308=CARTESIAN_POINT('',(-1.38777878078145E-17,0.085,0.0514));
#2309=CARTESIAN_POINT('',(-1.38777878078145E-17,0.085,0.0292));
#2310=MECHANICAL_DESIGN_GEOMETRIC_PRESENTATION_REPRESENTATION('',(#1447),
#2311);
#2311=(
GEOMETRIC_REPRESENTATION_CONTEXT(3)
GLOBAL_UNCERTAINTY_ASSIGNED_CONTEXT((#2312))
GLOBAL_UNIT_ASSIGNED_CONTEXT((#2315,#2314,#2313))
REPRESENTATION_CONTEXT('Part 1','TOP_LEVEL_ASSEMBLY_PART')
);
#2312=UNCERTAINTY_MEASURE_WITH_UNIT(LENGTH_MEASURE(1.E-8),#2315,
'DISTANCE_ACCURACY_VALUE','Maximum Tolerance applied to model');
#2313=(
NAMED_UNIT(*)
SI_UNIT($,.STERADIAN.)
SOLID_ANGLE_UNIT()
);
#2314=(
NAMED_UNIT(*)
PLANE_ANGLE_UNIT()
SI_UNIT($,.RADIAN.)
);
#2315=(
LENGTH_UNIT()
NAMED_UNIT(*)
SI_UNIT($,.METRE.)
);
#2316=PRODUCT_DEFINITION_SHAPE('','',#2317);
#2317=PRODUCT_DEFINITION('','',#2319,#2318);
#2318=PRODUCT_DEFINITION_CONTEXT('',#2325,'design');
#2319=PRODUCT_DEFINITION_FORMATION_WITH_SPECIFIED_SOURCE('','',#2321,
 .NOT_KNOWN.);
#2320=PRODUCT_RELATED_PRODUCT_CATEGORY('','',(#2321));
#2321=PRODUCT('Part 1','Part 1','Part 1',(#2323));
#2322=PRODUCT_CATEGORY('','');
#2323=PRODUCT_CONTEXT('',#2325,'mechanical');
#2324=APPLICATION_PROTOCOL_DEFINITION('international standard',
'ap242_managed_model_based_3d_engineering',2020,#2325);
#2325=APPLICATION_CONTEXT('managed model based 3d engineering');
ENDSEC;
END-ISO-10303-21;
